<svg width="29" height="45" viewBox="0 0 29 45" fill="none" xmlns="http://www.w3.org/2000/svg">
<path d="M1.67748 43.4654C1.66798 43.4474 1.64998 43.4329 1.63248 43.4219C1.61448 43.4109 1.60448 43.3894 1.58048 43.3904L1.54998 43.3864C1.54998 43.3989 1.53898 43.4049 1.53448 43.4154C1.53048 43.4244 1.52598 43.4359 1.52348 43.4454C1.51948 43.4599 1.51948 43.4779 1.51748 43.4934C1.51448 43.5144 1.51148 43.5299 1.52198 43.5499C1.53498 43.5734 1.55498 43.5874 1.57148 43.6084C1.59048 43.6324 1.58698 43.6764 1.58298 43.7054C1.57998 43.7274 1.58098 43.7359 1.60048 43.7509C1.61348 43.7604 1.62948 43.7644 1.64548 43.7569C1.65948 43.7499 1.67348 43.7294 1.68198 43.7159C1.69248 43.6999 1.69198 43.6844 1.69498 43.6654C1.69598 43.6574 1.69948 43.6474 1.69898 43.6399C1.69848 43.6299 1.69298 43.6234 1.69098 43.6139C1.68798 43.5984 1.68498 43.5819 1.68198 43.5654C1.67498 43.5314 1.69448 43.4969 1.67748 43.4654Z" fill="white"/>
<path d="M2.94756 44.6079C2.93456 44.5974 2.92356 44.5814 2.91106 44.5689C2.89556 44.5549 2.87556 44.5434 2.85556 44.5364C2.81856 44.5234 2.78556 44.5084 2.74606 44.5034C2.72906 44.5009 2.71056 44.4964 2.69306 44.4964C2.68006 44.4964 2.66556 44.4989 2.65206 44.5004C2.61156 44.5044 2.57256 44.5114 2.53156 44.5159C2.49556 44.5199 2.45905 44.5229 2.42305 44.5259C2.38005 44.5294 2.33805 44.5379 2.29555 44.5449C2.28605 44.5464 2.27905 44.5464 2.26955 44.5469C2.25805 44.5479 2.24855 44.5544 2.23705 44.5544C2.21805 44.5544 2.19605 44.5484 2.17705 44.5459L2.17055 44.5449C2.16255 44.5529 2.13605 44.5534 2.12405 44.5559C2.10155 44.5609 2.08155 44.5644 2.06205 44.5779C2.04305 44.5909 2.02505 44.6049 2.00555 44.6174C1.98905 44.6279 1.98055 44.6304 1.96105 44.6329C1.93255 44.6369 1.90405 44.6414 1.87555 44.6429C1.86055 44.6434 1.84755 44.6424 1.83155 44.6439C1.81455 44.6459 1.79955 44.6489 1.78255 44.6529C1.74805 44.6619 1.71205 44.6659 1.67755 44.6744C1.65855 44.6794 1.63805 44.6779 1.61955 44.6834C1.59655 44.6904 1.57305 44.6999 1.54855 44.6989C1.51205 44.6979 1.47355 44.7014 1.43755 44.7039C1.40255 44.7069 1.37005 44.7189 1.33454 44.7134L1.32054 44.7239C1.31854 44.7394 1.31005 44.7644 1.31405 44.7794C1.31955 44.7979 1.34555 44.8134 1.36305 44.8174C1.38055 44.8214 1.39805 44.8214 1.41605 44.8194C1.43755 44.8169 1.45505 44.8169 1.47705 44.8199L1.48305 44.8209C1.49555 44.8214 1.50855 44.8114 1.52055 44.8084C1.53155 44.8059 1.54255 44.8044 1.55355 44.8024C1.56805 44.7999 1.57955 44.7929 1.59355 44.7894C1.60605 44.7859 1.61755 44.7889 1.63005 44.7909C1.65005 44.7939 1.67105 44.7964 1.69105 44.7989C1.71255 44.8019 1.73855 44.8094 1.75955 44.8064C1.79455 44.8019 1.83405 44.8014 1.86805 44.7884C1.89005 44.7799 1.91405 44.7789 1.93605 44.7694C1.96055 44.7589 1.98605 44.7509 2.01155 44.7419C2.05205 44.7279 2.09305 44.7189 2.13305 44.7044C2.15855 44.6949 2.18305 44.6809 2.20905 44.6719C2.22655 44.6659 2.24455 44.6614 2.26155 44.6534C2.27705 44.6459 2.29505 44.6414 2.31205 44.6384C2.33155 44.6349 2.35155 44.6279 2.37155 44.6244C2.40656 44.6179 2.45155 44.6324 2.48756 44.6369C2.50556 44.6394 2.52106 44.6454 2.53906 44.6494C2.55956 44.6539 2.58106 44.6639 2.60106 44.6704C2.61906 44.6759 2.63406 44.6854 2.65106 44.6929C2.67506 44.7034 2.70306 44.7079 2.72756 44.7169C2.76006 44.7284 2.78456 44.7364 2.81856 44.7274C2.84056 44.7214 2.85806 44.7159 2.87806 44.7044C2.89956 44.6919 2.92356 44.6859 2.94656 44.6759C2.95406 44.6729 2.96006 44.6689 2.96756 44.6669C2.97206 44.6654 2.98106 44.6664 2.98506 44.6644C2.99156 44.6604 2.99806 44.6539 2.99406 44.6449C2.99106 44.6384 2.97706 44.6324 2.97206 44.6269C2.96456 44.6189 2.95756 44.6149 2.94756 44.6079Z" fill="white"/>
<path d="M2.837 44.9184C2.8265 44.9044 2.815 44.8814 2.795 44.8784L2.779 44.8574C2.7635 44.8524 2.7365 44.8679 2.7315 44.8819C2.7255 44.8979 2.732 44.9124 2.7385 44.9269C2.7465 44.9439 2.7535 44.9554 2.771 44.9644C2.7795 44.9689 2.788 44.9694 2.7965 44.9734C2.804 44.9769 2.81 44.9834 2.8175 44.9874C2.829 44.9934 2.848 45.0009 2.862 44.9999C2.882 44.9984 2.8775 44.9734 2.869 44.9594C2.8595 44.9459 2.8475 44.9324 2.837 44.9184Z" fill="white"/>
<path d="M2.76657 44.0179L2.77957 44.0134C2.78757 44.0074 2.80057 43.9919 2.80207 43.9819C2.80407 43.9699 2.79707 43.9659 2.78707 43.9599C2.76257 43.9454 2.74207 43.9494 2.71757 43.9629C2.70357 43.9704 2.67107 43.9944 2.69607 44.0084C2.71307 44.0174 2.74757 44.0154 2.76657 44.0179Z" fill="white"/>
<path d="M8.01659 44.0829C8.00509 44.0844 7.99409 44.0899 7.98259 44.0924C7.97209 44.0949 7.96059 44.0954 7.94959 44.0964C7.92659 44.0984 7.90359 44.1024 7.88109 44.1039C7.85609 44.1054 7.82909 44.1084 7.80459 44.1139C7.78259 44.1189 7.76159 44.1264 7.73959 44.1314C7.71909 44.1359 7.69709 44.1419 7.67609 44.1444C7.66459 44.1459 7.65658 44.1464 7.64558 44.1504C7.63558 44.1539 7.61908 44.1559 7.61008 44.1624C7.59258 44.1749 7.59009 44.2059 7.57458 44.2214L7.59109 44.2389C7.61109 44.2414 7.62759 44.2339 7.64709 44.2274C7.66809 44.2204 7.68809 44.2124 7.70959 44.2089C7.73209 44.2054 7.75209 44.1944 7.77509 44.1919C7.79759 44.1894 7.82359 44.1884 7.84459 44.1804C7.88409 44.1654 7.92559 44.1554 7.96509 44.1394C7.99009 44.1299 8.01509 44.1239 8.03659 44.1079C8.04509 44.1019 8.05459 44.1014 8.06309 44.0959C8.07259 44.0899 8.08709 44.0799 8.09459 44.0709C8.08209 44.0719 8.07059 44.0774 8.05859 44.0794C8.04359 44.0809 8.03009 44.0814 8.01659 44.0829Z" fill="white"/>
<path d="M7.57356 44.2219V44.2214L7.57056 44.2179L7.57356 44.2219Z" fill="white"/>
<path d="M28.4553 25.5147C28.4693 25.4767 28.3813 25.4077 28.3563 25.3887C28.3238 25.3647 28.2853 25.3452 28.2533 25.3217C28.1768 25.2652 28.1248 25.1872 28.0623 25.1167C27.9978 25.0437 27.8668 25.0292 27.8568 24.9167C27.8498 24.8382 27.8793 24.7412 27.8898 24.6627C27.9168 24.5837 27.9513 24.5067 27.9723 24.4257C27.9943 24.3392 27.9958 24.2412 28.0078 24.1522C28.0188 24.0702 28.0408 23.9797 28.0403 23.8972C28.0403 23.8717 28.0318 23.8492 28.0348 23.8222C28.0368 23.8012 28.0423 23.7797 28.0443 23.7587C28.0483 23.7122 28.0353 23.6667 28.0328 23.6202C28.0293 23.5377 28.0128 23.4477 27.9803 23.3692C27.9448 23.2827 27.9133 23.1852 27.8573 23.1077C27.8288 23.0677 27.8078 23.0337 27.7858 22.9902C27.7643 22.9477 27.7303 22.9177 27.7008 22.8812C27.6673 22.8397 27.6493 22.7912 27.6108 22.7522C27.5818 22.7232 27.5392 22.6542 27.4947 22.6542C27.5047 22.5772 27.3882 22.4852 27.3422 22.4347C27.3057 22.3942 27.2562 22.3762 27.2217 22.3362C27.1942 22.3037 27.1727 22.2707 27.1567 22.2317C27.1282 22.1602 27.0837 22.0937 27.0617 22.0172C27.0412 21.9462 27.0427 21.8727 27.0197 21.8032C26.9967 21.7322 27.0012 21.6532 26.9752 21.5827C26.9577 21.5337 26.9532 21.4902 26.9447 21.4402C26.9412 21.4212 26.9327 21.4102 26.9277 21.3912C26.9227 21.3722 26.9272 21.3522 26.9222 21.3332C26.9167 21.3117 26.9022 21.2907 26.8967 21.2677C26.8922 21.2492 26.8887 21.2302 26.8822 21.2117C26.8702 21.1772 26.8557 21.1432 26.8447 21.1082C26.8322 21.0682 26.8222 21.0282 26.7977 20.9937C26.7722 20.9567 26.7527 20.9077 26.7217 20.8752L26.7147 20.8042C26.6947 20.7842 26.6907 20.7297 26.6832 20.7032C26.6727 20.6672 26.6637 20.6232 26.6477 20.5892C26.6177 20.5257 26.5722 20.4467 26.5307 20.3897C26.4807 20.3207 26.4257 20.2662 26.3892 20.1862C26.3592 20.1202 26.3822 20.0577 26.3567 19.9892C26.3292 19.9162 26.3012 19.8632 26.2532 19.8012C26.2017 19.7357 26.1947 19.6802 26.1647 19.6057C26.1417 19.5492 26.1132 19.4762 26.1032 19.4142C26.0967 19.3742 26.1162 19.3387 26.1147 19.3002C26.1132 19.2672 26.1022 19.2287 26.0932 19.1967C26.0687 19.1082 25.9812 19.0792 25.9457 18.9977C25.9212 18.9402 25.9397 18.8787 25.9482 18.8197C25.9567 18.7592 25.9527 18.7007 25.9497 18.6417C25.9472 18.5987 25.9362 18.5707 25.9412 18.5257C25.9447 18.4927 25.9537 18.4632 25.9492 18.4297C25.9417 18.3702 25.9287 18.3052 25.9327 18.2442C25.9372 18.1812 25.9407 18.1227 25.9357 18.0602C25.9242 17.9132 25.8667 17.7667 25.8792 17.6172L22.3937 0.0470004L2.30402 0C2.31402 0.0255002 2.33202 0.0435004 2.34852 0.0660006C2.35852 0.0800007 2.36252 0.0955009 2.37052 0.111001C2.37552 0.121001 2.38352 0.128001 2.38852 0.137501C2.39502 0.150001 2.39752 0.163502 2.40552 0.176002C2.41252 0.187002 2.42052 0.196002 2.42702 0.207502C2.43352 0.219002 2.44102 0.228502 2.44852 0.239502C2.45502 0.249002 2.45652 0.259002 2.46202 0.269002C2.47502 0.292003 2.49602 0.311503 2.50752 0.335503C2.51902 0.360503 2.52652 0.390504 2.54202 0.414004C2.56802 0.454004 2.59502 0.493504 2.62502 0.531005C2.64152 0.551505 2.66002 0.571005 2.67752 0.591505C2.69352 0.610506 2.70652 0.633006 2.72452 0.650506C2.74502 0.671006 2.76302 0.691506 2.77702 0.716507C2.78452 0.730507 2.79402 0.738507 2.80352 0.751007C2.81102 0.761007 2.81452 0.772507 2.82402 0.781507C2.86353 0.817508 2.90503 0.851008 2.94053 0.892008C2.95603 0.910008 2.97553 0.925008 2.99103 0.944509C3.00853 0.967509 3.02253 0.994009 3.04203 1.01551C3.05703 1.03851 3.06553 1.05851 3.06853 1.08501C3.07103 1.10951 3.07203 1.13501 3.07603 1.15951C3.07953 1.18101 3.07603 1.20101 3.07303 1.22351C3.07053 1.24351 3.07153 1.27251 3.06253 1.29051C3.05303 1.31051 3.04153 1.32951 3.03253 1.35051C3.02703 1.36301 3.01803 1.37301 3.01453 1.38651C3.01203 1.39651 3.01353 1.40701 3.01103 1.41701C3.00803 1.43101 3.00053 1.44301 2.99803 1.45751C2.99603 1.46751 2.99553 1.47801 2.99403 1.48851C2.99253 1.50151 2.99053 1.51451 2.98903 1.52801C2.98853 1.53201 2.98503 1.55701 2.98603 1.55151L0 29.2868L0.667506 43.1239C0.688006 43.1059 0.728006 43.1074 0.753006 43.0964C0.758506 43.0939 0.763007 43.0894 0.769007 43.0879C0.775007 43.0864 0.783506 43.0894 0.789506 43.0889C0.801507 43.0879 0.812507 43.0829 0.823507 43.0799C0.847507 43.0739 0.880008 43.0839 0.904508 43.0869C0.931508 43.0904 0.959009 43.0939 0.986009 43.0979C1.03651 43.1044 1.09101 43.1139 1.13301 43.1439C1.17801 43.1759 1.16951 43.2649 1.23401 43.2749L1.23501 43.2689C1.23801 43.2564 1.25051 43.2409 1.25601 43.2279C1.26201 43.2144 1.26801 43.1999 1.27551 43.1864C1.28401 43.1714 1.29151 43.1554 1.30151 43.1414C1.31551 43.1219 1.32951 43.1189 1.35001 43.1104C1.37751 43.0984 1.42451 43.1099 1.44751 43.1279C1.46651 43.1424 1.47101 43.1549 1.47801 43.1764C1.48251 43.1899 1.48601 43.2159 1.49951 43.2229C1.51001 43.2284 1.53351 43.2279 1.54601 43.2289C1.56751 43.2309 1.56951 43.2434 1.57901 43.2614C1.58601 43.2744 1.59151 43.2994 1.60401 43.3064C1.61551 43.3129 1.63801 43.3084 1.65001 43.3039C1.68251 43.2919 1.71302 43.2614 1.74852 43.2569C1.75752 43.2559 1.76602 43.2584 1.77452 43.2579C1.78352 43.2574 1.78902 43.2554 1.79802 43.2559C1.81402 43.2569 1.83102 43.2604 1.84752 43.2624L1.86602 43.2744C1.87702 43.2939 1.89152 43.2984 1.90902 43.3104C1.92502 43.3214 1.93252 43.3369 1.94552 43.3509C1.96902 43.3754 1.99802 43.3749 2.02952 43.3794C2.08952 43.3874 2.14202 43.3669 2.19952 43.3549C2.25702 43.3429 2.31852 43.3589 2.37652 43.3664C2.39752 43.3694 2.45352 43.3659 2.47102 43.3809C2.49952 43.4054 2.45102 43.4299 2.43352 43.4344C2.38202 43.4469 2.30402 43.4544 2.28552 43.5149C2.27852 43.5379 2.28002 43.5669 2.27602 43.5909C2.26802 43.6399 2.25052 43.6254 2.21052 43.6324C2.14852 43.6424 2.12602 43.7339 2.13902 43.7849C2.14702 43.8159 2.16302 43.8279 2.15352 43.8604C2.14602 43.8864 2.13152 43.9114 2.13502 43.9404C2.17702 43.9604 2.23052 43.9129 2.26452 43.8934C2.28202 43.8834 2.31402 43.8684 2.33402 43.8634C2.37102 43.8549 2.37652 43.8774 2.40202 43.8919C2.43952 43.9139 2.49602 43.8884 2.50302 43.8479C2.50652 43.8279 2.51202 43.8029 2.51052 43.7824C2.50902 43.7644 2.50002 43.7459 2.49802 43.7279C2.49402 43.6909 2.51002 43.6034 2.56252 43.6174C2.57552 43.6209 2.60602 43.6369 2.61402 43.6469C2.63102 43.6684 2.60852 43.6934 2.62352 43.7129C2.64502 43.7409 2.72302 43.7264 2.75552 43.7374C2.77753 43.7444 2.85153 43.7889 2.85253 43.8104L2.85103 43.8219C2.90553 43.7754 2.94853 43.7089 2.98503 43.6494C3.01453 43.6004 3.03403 43.5314 3.05253 43.4779C3.07303 43.4179 3.06853 43.3399 3.06703 43.2794C3.06603 43.2469 3.04803 43.2119 3.04053 43.1804C3.03353 43.1519 3.03953 43.1249 3.04353 43.0954C3.04703 43.0684 3.05053 43.0409 3.05453 43.0134C3.05903 42.9794 3.05603 42.9544 3.05453 42.9204C3.05353 42.8884 3.04953 42.8589 3.04103 42.8274C3.02953 42.7829 3.02503 42.7594 2.97453 42.7744C2.94553 42.7829 2.91053 42.8049 2.88503 42.8214C2.86253 42.8354 2.83353 42.8754 2.80753 42.8584C2.78203 42.8424 2.76852 42.7874 2.75802 42.7599C2.74452 42.7254 2.73102 42.7029 2.70702 42.6724C2.73302 42.6354 2.76653 42.6309 2.80903 42.6384C2.84053 42.6434 2.85853 42.6659 2.88803 42.6499C2.91703 42.6344 2.95253 42.5974 2.97053 42.5714C2.98903 42.5449 2.98953 42.5139 2.99353 42.4824C3.00353 42.4089 3.01303 42.3359 3.02253 42.2624C3.03053 42.2024 3.04153 42.1424 3.07253 42.0904C3.09103 42.0594 3.11253 42.0279 3.13403 41.9989C3.15353 41.9724 3.18353 41.9564 3.20203 41.9294C3.22953 41.8879 3.22653 41.8084 3.23303 41.7599C3.23703 41.7309 3.24903 41.6899 3.24353 41.6614C3.24103 41.6479 3.23203 41.6369 3.22703 41.6249C3.22003 41.6079 3.21853 41.5909 3.21103 41.5739C3.19553 41.5419 3.16803 41.5134 3.15053 41.4829C3.12903 41.4454 3.09853 41.4074 3.08353 41.3664L3.07203 41.3649C3.04753 41.3384 3.02703 41.2944 3.01253 41.2619C2.99703 41.2269 2.98853 41.2109 3.00753 41.1734C3.01603 41.1564 3.04603 41.1104 3.06453 41.1039C3.10103 41.0899 3.11153 41.1359 3.12303 41.1579C3.14103 41.1909 3.16753 41.2209 3.17953 41.2574C3.18553 41.2754 3.18203 41.2949 3.18603 41.3134C3.19153 41.3379 3.18753 41.3279 3.20603 41.3364C3.21453 41.3399 3.24403 41.3454 3.25453 41.3434C3.27503 41.3394 3.27453 41.3304 3.28453 41.3139C3.30203 41.2844 3.31653 41.2524 3.33253 41.2219C3.36403 41.1604 3.33703 41.1084 3.34103 41.0449C3.34553 40.9769 3.33303 40.9099 3.33203 40.8419C3.33103 40.7694 3.32653 40.7059 3.30353 40.6349C3.29403 40.6054 3.28653 40.5749 3.27703 40.5454C3.26703 40.5149 3.24453 40.4829 3.25403 40.4504L3.24403 40.4374C3.24753 40.4119 3.22753 40.3864 3.22103 40.3624C3.21653 40.3464 3.21353 40.3274 3.21053 40.3109C3.20353 40.2759 3.19853 40.2414 3.20403 40.2054C3.20953 40.1684 3.21403 40.1309 3.21903 40.0939C3.22303 40.0624 3.22153 40.0144 3.23503 39.9854C3.27553 39.9879 3.28953 39.9724 3.32153 39.9484C3.34653 39.9299 3.36953 39.9089 3.38703 39.8829C3.40903 39.8514 3.41653 39.8199 3.42903 39.7849C3.43953 39.7539 3.46053 39.7234 3.47253 39.6924C3.47803 39.6769 3.47803 39.6614 3.48353 39.6459C3.48953 39.6289 3.50203 39.6149 3.50953 39.5989C3.52353 39.5704 3.54003 39.5434 3.55503 39.5154C3.58103 39.4659 3.58503 39.4089 3.59103 39.3534C3.61603 39.3429 3.62203 39.3099 3.64603 39.2949C3.66603 39.2824 3.68603 39.2684 3.70653 39.2554C3.74953 39.2294 3.78903 39.1954 3.83253 39.1709C3.85603 39.1574 3.92704 39.1219 3.95504 39.1389C3.98354 39.1564 3.94154 39.2099 3.92954 39.2314C3.91654 39.2549 3.90454 39.2749 3.87854 39.2849C3.85103 39.2964 3.84803 39.2959 3.84453 39.3279C3.84103 39.3629 3.83553 39.3979 3.83103 39.4324C3.82453 39.4829 3.80853 39.5224 3.76703 39.5559C3.74003 39.5779 3.68503 39.6084 3.68453 39.6484C3.68153 39.6714 3.68853 39.6979 3.68553 39.7214C3.68353 39.7389 3.67803 39.7574 3.67753 39.7759C3.67703 39.7964 3.67853 39.8274 3.70753 39.8209C3.73203 39.8154 3.74203 39.7799 3.76403 39.7684C3.78803 39.7559 3.82553 39.7579 3.85153 39.7574C3.88753 39.7574 3.89154 39.7489 3.91154 39.7204C3.92754 39.6979 3.94504 39.6784 3.95654 39.6524C3.96504 39.6329 3.97154 39.5949 3.99804 39.5929C4.00304 39.6174 3.99254 39.6509 3.98904 39.6754C3.98404 39.7114 3.98304 39.7504 3.97504 39.7854C3.96104 39.8454 3.90353 39.8704 3.87103 39.9169C3.85303 39.9424 3.83853 39.9704 3.82003 39.9954C3.80403 40.0179 3.79803 40.0389 3.78853 40.0639C3.77903 40.0889 3.77903 40.1159 3.77003 40.1414C3.76053 40.1679 3.73053 40.1964 3.73903 40.2264C3.75903 40.2324 3.79903 40.2214 3.82203 40.2174C3.85553 40.2114 3.87403 40.2109 3.89553 40.1829C3.91203 40.1609 3.92253 40.1459 3.95104 40.1364C3.97304 40.1294 4.01504 40.1114 4.02254 40.1374C4.02654 40.1514 4.01904 40.1869 4.01504 40.2014C4.00604 40.2344 3.97904 40.2479 3.95654 40.2714C3.93454 40.2949 3.91654 40.3804 3.94854 40.3994C3.97204 40.4129 4.00004 40.4054 4.02504 40.4229C4.04654 40.4374 4.06154 40.4634 4.07754 40.4844C4.09454 40.5074 4.11004 40.5329 4.14004 40.5109C4.15754 40.4984 4.16704 40.4749 4.17104 40.4549C4.17954 40.4104 4.18304 40.3644 4.18904 40.3189C4.19604 40.2674 4.21254 40.2259 4.22004 40.1754C4.23154 40.0894 4.22454 40.0094 4.20854 39.9249C4.19154 39.8334 4.19454 39.7424 4.20704 39.6504C4.21204 39.6129 4.21604 39.5809 4.23004 39.5474C4.24554 39.5104 4.24204 39.4704 4.26004 39.4319C4.27754 39.3949 4.29504 39.3594 4.31354 39.3229C4.33254 39.2839 4.32754 39.2589 4.32504 39.2194C4.32054 39.1404 4.36254 39.0744 4.31854 38.9994C4.30554 38.9779 4.28854 38.9619 4.27804 38.9374C4.26904 38.9159 4.26404 38.8929 4.25504 38.8714C4.23804 38.8314 4.21554 38.8034 4.21954 38.7579C4.22054 38.7444 4.22054 38.7224 4.22554 38.7099C4.23504 38.6858 4.24004 38.6919 4.26354 38.6954C4.31254 38.7029 4.34404 38.7279 4.37304 38.7694C4.38404 38.7849 4.38604 38.8214 4.39904 38.8314C4.41054 38.8409 4.44454 38.8394 4.45904 38.8404C4.48654 38.8424 4.48454 38.8449 4.50804 38.8269C4.52504 38.8134 4.53854 38.7959 4.55954 38.7859C4.56904 38.8279 4.54654 38.8929 4.53054 38.9304C4.51004 38.9789 4.48654 39.0254 4.46404 39.0729C4.43904 39.1254 4.40554 39.1784 4.39454 39.2359C4.38554 39.2829 4.38204 39.3314 4.37604 39.3784C4.37154 39.4104 4.36554 39.4434 4.36254 39.4754C4.36054 39.5004 4.36804 39.5224 4.36554 39.5469C4.36054 39.5989 4.36404 39.6449 4.35754 39.6969C4.35354 39.7279 4.35254 39.7504 4.35554 39.7799C4.35904 39.8134 4.34704 39.8454 4.35104 39.8789C4.35654 39.9279 4.35554 39.9769 4.34904 40.0269C4.34604 40.0504 4.33954 40.0744 4.34204 40.0979C4.34504 40.1214 4.35354 40.1434 4.35404 40.1679C4.35454 40.1899 4.35954 40.2044 4.36404 40.2264C4.36854 40.2499 4.36004 40.2769 4.38454 40.2919C4.42654 40.3174 4.47754 40.2599 4.51954 40.2639C4.53754 40.2654 4.57104 40.2664 4.58704 40.2754C4.60354 40.2849 4.61154 40.3054 4.61804 40.3259C4.60104 40.3394 4.58404 40.3514 4.56804 40.3669C4.55004 40.3844 4.53354 40.3929 4.51154 40.4074C4.47954 40.4279 4.46804 40.4469 4.46554 40.4844C4.46304 40.5244 4.46554 40.5624 4.46154 40.6034C4.45954 40.6249 4.46404 40.6429 4.46454 40.6639C4.46504 40.6794 4.45904 40.6939 4.45904 40.7099C4.45904 40.7464 4.46204 40.7844 4.46604 40.8204C4.46854 40.8439 4.45954 40.8654 4.45904 40.8884C4.45854 40.9049 4.46554 40.9204 4.46554 40.9374C4.46554 40.9714 4.45454 41.0084 4.45104 41.0424C4.44904 41.0624 4.45154 41.0724 4.45354 41.0924C4.45604 41.1144 4.44704 41.1354 4.44854 41.1569C4.45804 41.3079 4.47254 41.4604 4.50604 41.6094C4.51354 41.6429 4.52104 41.6709 4.51704 41.7054C4.51354 41.7364 4.50904 41.7679 4.50454 41.7984C4.49404 41.8764 4.48354 41.9549 4.47354 42.0329C4.47004 42.0619 4.46154 42.0794 4.45304 42.1064C4.44754 42.1234 4.45104 42.1429 4.44554 42.1604C4.43904 42.1809 4.43054 42.1939 4.42604 42.2169C4.42054 42.2434 4.40854 42.2704 4.39504 42.2939C4.38204 42.3164 4.36554 42.3314 4.35904 42.3579C4.35554 42.3724 4.35504 42.3889 4.35354 42.4039C4.35104 42.4264 4.35604 42.4439 4.35604 42.4654C4.35654 42.4924 4.35004 42.5104 4.36504 42.5359C4.39154 42.5809 4.43304 42.5979 4.46504 42.6359C4.48104 42.6549 4.50104 42.6759 4.51504 42.6964C4.52904 42.7174 4.52054 42.7379 4.52554 42.7604C4.53004 42.7809 4.53854 42.7929 4.53704 42.8154C4.53554 42.8349 4.53154 42.8549 4.52904 42.8739C4.52404 42.9129 4.51854 42.9519 4.51354 42.9909L4.51204 43.0024C4.51954 43.0289 4.52504 43.0419 4.53904 43.0649C4.55454 43.0899 4.56054 43.1184 4.57604 43.1429C4.60604 43.1909 4.63754 43.1979 4.68954 43.2049C4.73254 43.2104 4.77554 43.2154 4.81804 43.2219C4.85804 43.2279 4.88104 43.2569 4.90104 43.2929C4.90804 43.3049 4.91204 43.3384 4.92954 43.3409C4.94554 43.3429 4.96104 43.3134 4.97004 43.3029C5.00354 43.2634 5.03805 43.2309 5.06655 43.1869C5.08305 43.1619 5.10655 43.1329 5.11655 43.1049C5.12755 43.0724 5.13905 43.0329 5.16455 43.0069C5.18905 42.9809 5.25455 42.9774 5.25955 43.0194C5.26305 43.0469 5.23755 43.0869 5.24755 43.1134C5.26255 43.1529 5.33855 43.1334 5.34505 43.1854C5.34655 43.1984 5.33005 43.2289 5.32455 43.2394C5.31505 43.2579 5.30205 43.2694 5.29105 43.2879C5.27855 43.3079 5.27555 43.3274 5.25305 43.3404C5.23905 43.3484 5.21555 43.3439 5.20355 43.3559C5.18655 43.3744 5.16905 43.4474 5.17655 43.4729C5.18155 43.4894 5.20055 43.5084 5.20955 43.5244C5.22205 43.5454 5.22955 43.5659 5.23955 43.5889C5.24755 43.6069 5.26455 43.6234 5.26905 43.6429C5.27305 43.6599 5.26555 43.6819 5.26355 43.6989L5.26205 43.7104C5.29105 43.7484 5.29355 43.8129 5.34055 43.8384C5.35205 43.8444 5.36805 43.8459 5.38105 43.8509C5.40205 43.8589 5.42205 43.8714 5.44255 43.8804C5.47855 43.8964 5.51705 43.9094 5.55205 43.9274C5.58005 43.9414 5.61905 43.9779 5.63955 44.0044C5.65155 44.0194 5.65355 44.0389 5.67155 44.0499C5.68605 44.0579 5.70955 44.0569 5.72655 44.0589C5.74505 44.0614 5.76755 44.0684 5.78605 44.0674C5.79855 44.0664 5.80905 44.0604 5.82155 44.0589C5.86505 44.0554 5.90355 44.0884 5.94005 44.0519C5.97255 44.0184 5.97655 43.9859 6.03105 43.9919C6.06355 43.9954 6.09556 44.0054 6.12606 44.0164C6.14706 44.0239 6.15006 44.0164 6.14406 44.0414C6.14006 44.0584 6.10756 44.0859 6.09156 44.0924C6.07556 44.0994 6.05405 44.0949 6.04155 44.1114C6.03205 44.1249 6.03455 44.1549 6.03255 44.1709C6.03005 44.1884 6.02155 44.2129 6.02655 44.2299C6.03055 44.2439 6.04705 44.2564 6.05505 44.2679C6.06455 44.2814 6.08705 44.3144 6.08355 44.3324C6.08055 44.3479 6.05655 44.3694 6.04805 44.3844C6.03055 44.4134 6.01155 44.4429 5.97305 44.4369C5.94755 44.4334 5.90755 44.4079 5.88605 44.3924C5.85005 44.3674 5.86955 44.3204 5.87505 44.2804C5.85105 44.3034 5.81405 44.3114 5.78555 44.3284C5.75355 44.3469 5.72155 44.3504 5.69105 44.3754C5.64405 44.4124 5.58555 44.4424 5.52755 44.4574C5.49205 44.4664 5.46855 44.4574 5.43455 44.4594C5.41105 44.4604 5.39705 44.4664 5.37205 44.4634C5.31655 44.4564 5.26355 44.4819 5.21255 44.4989C5.16205 44.5159 5.10655 44.5209 5.05455 44.5254C5.02605 44.5279 4.99604 44.5259 4.96754 44.5279C4.94054 44.5299 4.91604 44.5389 4.88854 44.5439C4.83404 44.5539 4.77554 44.5374 4.72054 44.5304C4.68654 44.5264 4.67504 44.5224 4.65004 44.4974C4.64154 44.4894 4.63354 44.4779 4.62504 44.4699C4.61154 44.4579 4.59304 44.4544 4.58054 44.4409C4.50854 44.4314 4.44904 44.4214 4.37854 44.4409C4.33904 44.4519 4.30904 44.4534 4.27054 44.4704C4.23154 44.4874 4.19454 44.5099 4.16304 44.5389C4.14754 44.5529 4.14454 44.5684 4.13154 44.5839C4.11704 44.6004 4.09104 44.6069 4.07054 44.6109C4.04104 44.6169 4.00954 44.6149 3.98104 44.6164C3.94204 44.6184 3.90354 44.6074 3.86454 44.6154C3.81803 44.6244 3.78103 44.6409 3.74003 44.6619C3.71853 44.6724 3.69353 44.6774 3.67253 44.6884C3.65653 44.6969 3.64253 44.7089 3.62503 44.7154C3.58903 44.7294 3.55203 44.7279 3.58153 44.7844C3.60453 44.8289 3.70903 44.8269 3.75403 44.8309C3.79053 44.8344 3.82403 44.8214 3.86003 44.8209C3.89303 44.8204 3.92754 44.8134 3.96004 44.8024C4.02604 44.7799 4.09854 44.7449 4.16854 44.7554L4.18154 44.7454C4.20604 44.7519 4.23454 44.7289 4.25854 44.7229C4.27754 44.7184 4.29804 44.7099 4.31704 44.7064C4.36104 44.6984 4.42504 44.7184 4.46904 44.7244C4.52304 44.7314 4.57054 44.7414 4.62354 44.7299C4.65004 44.7239 4.67154 44.7319 4.69804 44.7319C4.72604 44.7319 4.75004 44.7254 4.77904 44.7299C4.82704 44.7369 4.87054 44.7299 4.91854 44.7369C4.96004 44.7429 4.99905 44.7349 5.04005 44.7409C5.08855 44.7479 5.13255 44.7529 5.18055 44.7504C5.20105 44.7494 5.22005 44.7554 5.23955 44.7529C5.25555 44.7509 5.26405 44.7479 5.28155 44.7489C5.30105 44.7504 5.32105 44.7569 5.34055 44.7559C5.36155 44.7549 5.37605 44.7499 5.39755 44.7524C5.44005 44.7574 5.47705 44.7514 5.51955 44.7569C5.56205 44.7629 5.60255 44.7574 5.64405 44.7609C5.67455 44.7639 5.70605 44.7694 5.73655 44.7739C5.77405 44.7789 5.81505 44.7894 5.85355 44.7884C5.89405 44.7874 5.93355 44.7794 5.97355 44.7759C6.01505 44.7719 6.05306 44.7754 6.09506 44.7689C6.13406 44.7624 6.16906 44.7449 6.20606 44.7334C6.29156 44.7064 6.38106 44.6829 6.46856 44.6669C6.50556 44.6599 6.54606 44.6434 6.58156 44.6304C6.59706 44.6249 6.61156 44.6149 6.62706 44.6084C6.64656 44.6004 6.67456 44.5959 6.69056 44.5814L6.70356 44.5714C6.76006 44.5274 6.83556 44.5404 6.89956 44.5319C6.92706 44.5284 6.96006 44.5364 6.98506 44.5204C7.00906 44.5049 7.03556 44.4769 7.05806 44.4579C7.09206 44.4299 7.09456 44.4184 7.13957 44.4269C7.16957 44.4324 7.19706 44.4539 7.22856 44.4514C7.25757 44.4494 7.26757 44.4364 7.27307 44.4094C7.27657 44.3924 7.27807 44.3759 7.26907 44.3599C7.25857 44.3424 7.23607 44.3394 7.22807 44.3189C7.25707 44.2744 7.32757 44.2639 7.37457 44.2519C7.42707 44.2384 7.45207 44.2049 7.46157 44.1529C7.47357 44.0889 7.43507 44.0929 7.38557 44.1019C7.36057 44.1064 7.33557 44.1044 7.31257 44.1149C7.28257 44.1279 7.26306 44.1609 7.23306 44.1709C7.17706 44.1894 7.14756 44.1399 7.10706 44.1119C7.08406 44.0959 7.06556 44.0939 7.03856 44.0909C7.00356 44.0869 6.99356 44.0959 6.96606 44.1169C6.92106 44.1519 6.89356 44.1674 6.83556 44.1589C6.81506 44.1559 6.79056 44.1569 6.77056 44.1509C6.75956 44.1474 6.70956 44.1309 6.70656 44.1254C6.71606 44.0949 6.73606 44.0734 6.75956 44.0539C6.78606 44.0309 6.80606 44.0064 6.83906 43.9929C6.87256 43.9789 7.01456 43.9619 6.97056 43.9034L6.96056 43.8904C6.96756 43.8689 6.95356 43.8514 6.94706 43.8319C6.93906 43.8069 6.93956 43.7799 6.93156 43.7549C6.92606 43.7369 6.90756 43.7219 6.90356 43.7044C6.89856 43.6834 6.91156 43.6624 6.92406 43.6469C6.95006 43.6149 6.98206 43.5884 7.01556 43.5639C7.05656 43.5349 7.07856 43.5244 7.12706 43.5319C7.16256 43.5369 7.20756 43.5284 7.20506 43.5784C7.20356 43.6024 7.16356 43.6524 7.18006 43.6774C7.19656 43.7034 7.27157 43.6734 7.29307 43.6674C7.31307 43.6619 7.32557 43.6554 7.34357 43.6449C7.35707 43.6364 7.38257 43.6119 7.39957 43.6174C7.39757 43.6439 7.37757 43.6694 7.36307 43.6889C7.34807 43.7094 7.33657 43.7339 7.32257 43.7554C7.30107 43.7894 7.28907 43.8534 7.29307 43.8944C7.29707 43.9324 7.33907 44.0009 7.38757 43.9829C7.40907 43.9749 7.42807 43.9204 7.45507 43.9254C7.47957 43.9299 7.47407 43.9709 7.48457 43.9864C7.52707 44.0484 7.58057 43.9544 7.60907 43.9299C7.63157 43.9104 7.65757 43.8929 7.68457 43.8804C7.71407 43.8674 7.71907 43.8624 7.71507 43.8254C7.70907 43.7729 7.71457 43.7254 7.74057 43.6774C7.75857 43.6444 7.76607 43.6434 7.80007 43.6619C7.82057 43.6734 7.84757 43.6869 7.87007 43.6684L7.87157 43.6569C7.90257 43.6394 7.89557 43.5619 7.90007 43.5299C7.91157 43.4534 7.93457 43.5044 7.97207 43.5254C8.01257 43.5479 8.03907 43.5279 8.07007 43.5049C8.10907 43.4759 8.15357 43.4699 8.17657 43.4244C8.21207 43.3534 8.20807 43.2614 8.22057 43.1834C8.22907 43.1294 8.26908 43.1074 8.30708 43.0729C8.34008 43.0434 8.37508 43.0174 8.41658 42.9994C8.43358 42.9919 8.44608 42.9859 8.46258 42.9754C8.48258 42.9614 8.51258 42.9519 8.52908 42.9334C8.55908 42.9014 8.57208 42.8659 8.57858 42.8239C8.58458 42.7814 8.56358 42.7674 8.54358 42.7334C8.52108 42.6954 8.49358 42.6469 8.45158 42.6279C8.43208 42.6194 8.41258 42.6224 8.39408 42.6064C8.37808 42.5929 8.36658 42.5729 8.35308 42.5554C8.32808 42.5229 8.31157 42.4919 8.29807 42.4534C8.27907 42.3969 8.26707 42.2719 8.32458 42.2309L8.34458 42.2159C8.34308 42.1924 8.36057 42.1779 8.36857 42.1569C8.37757 42.1339 8.38107 42.1119 8.39258 42.0889C8.41558 42.0434 8.43258 42.0039 8.44958 41.9569C8.48058 41.8714 8.47908 41.7754 8.51008 41.6884C8.52508 41.6454 8.56608 41.6004 8.59608 41.5664C8.61358 41.5469 8.62508 41.5254 8.64258 41.5054C8.66008 41.4849 8.68308 41.4759 8.69808 41.4529C8.75358 41.3704 8.75358 41.2699 8.76608 41.1729C8.77908 41.0764 8.77308 40.9844 8.74108 40.8904C8.70858 40.7959 8.62458 40.6939 8.53358 40.6549C8.44408 40.6169 8.35557 40.5869 8.27057 40.5374C8.22857 40.5134 8.18407 40.4969 8.14207 40.4729C8.10207 40.4499 8.06607 40.4264 8.02107 40.4134L8.00557 40.4114C8.00107 40.3909 7.96807 40.3699 7.94957 40.3564C7.92107 40.3344 7.90357 40.3159 7.88057 40.2879C7.85957 40.2619 7.82457 40.2504 7.79707 40.2304C7.77507 40.2149 7.75807 40.1959 7.73657 40.1789C7.69207 40.1439 7.64907 40.1159 7.60707 40.0764C7.56157 40.0334 7.51757 39.9919 7.47957 39.9419C7.43907 39.8889 7.38807 39.8439 7.37107 39.7814C7.35657 39.7274 7.34307 39.6744 7.30957 39.6284C7.28056 39.5874 7.24907 39.5479 7.22007 39.5074C7.18657 39.4599 7.14706 39.3584 7.08006 39.3464L7.06706 39.3289C7.07406 39.2899 6.98556 39.2239 6.96256 39.2009C6.93006 39.1689 6.90006 39.1354 6.86156 39.1089C6.83156 39.0884 6.78156 39.0804 6.75856 39.0534C6.73256 39.0229 6.73756 38.9799 6.74256 38.9439C6.74756 38.9074 6.75256 38.8699 6.75706 38.8334C6.76256 38.7889 6.77256 38.7643 6.78756 38.7248C6.80406 38.6808 6.81456 38.6288 6.82956 38.5838C6.84056 38.5503 6.85756 38.5263 6.87356 38.4943C6.88506 38.4708 6.89256 38.4488 6.90506 38.4263C6.91756 38.4038 6.93506 38.3803 6.94356 38.3558C6.95506 38.3208 6.97006 38.2838 6.97706 38.2483C6.99256 38.1693 7.00106 38.0848 7.00956 38.0043C7.01456 37.9568 6.99406 37.9243 6.98306 37.8788C6.97306 37.8373 6.95656 37.7913 6.93906 37.7528C6.92206 37.7153 6.89556 37.6783 6.87656 37.6413C6.85556 37.6008 6.86256 37.5733 6.86856 37.5308C14.7721 37.5878 22.2767 37.4973 28.0333 37.1048C28.0433 37.0703 28.0228 37.0203 28.0163 36.9858C28.0098 36.9533 27.9993 36.9208 27.9863 36.8898C27.9708 36.8533 27.9558 36.8068 27.9293 36.7763C27.9103 36.7538 27.8883 36.7388 27.8698 36.7148C27.8503 36.6898 27.8373 36.6668 27.8128 36.6443L27.8008 36.6098C27.7713 36.5703 27.7423 36.5328 27.7168 36.4908C27.6903 36.4463 27.6943 36.4103 27.6808 36.3608C27.6668 36.3108 27.6618 36.2673 27.6363 36.2223C27.6123 36.1788 27.5948 36.1583 27.5603 36.1213C27.4993 36.0558 27.4288 35.9978 27.3778 35.9228C27.3498 35.8813 27.3452 35.8378 27.3122 35.7973C27.2787 35.7558 27.2487 35.7073 27.2132 35.6678C27.1907 35.6448 27.1882 35.5613 27.1857 35.5313C27.1817 35.4883 27.1982 35.4473 27.1952 35.4038C27.1887 35.3198 27.2037 35.2353 27.2162 35.1503C27.2282 35.0658 27.1737 34.9773 27.1462 34.8953C27.1182 34.8113 27.1217 34.7413 27.1332 34.6548C27.1392 34.6098 27.1402 34.5733 27.1612 34.5343C27.1822 34.4963 27.2137 34.4548 27.2282 34.4133C27.2527 34.3443 27.2567 34.2493 27.2497 34.1798C27.2457 34.1428 27.2612 34.1063 27.2572 34.0688C27.2522 34.0228 27.2497 33.9778 27.2477 33.9308C27.2437 33.8408 27.2362 33.7568 27.2482 33.6663L27.2502 33.6503C27.2632 33.5523 27.2612 33.4343 27.3107 33.3468C27.3317 33.3093 27.3678 33.2788 27.3853 33.2373C27.4003 33.2023 27.4088 33.1308 27.4063 33.0923C27.4048 33.0663 27.4052 33.0363 27.4027 33.0113C27.4002 32.9858 27.3847 32.9673 27.3807 32.9418C27.3732 32.8948 27.3937 32.8608 27.4147 32.8223C27.4552 32.7493 27.4513 32.6398 27.4623 32.5583C27.4683 32.5113 27.4722 32.4768 27.4667 32.4313C27.4612 32.3878 27.4607 32.3488 27.4592 32.3058C27.4557 32.2188 27.4277 32.1313 27.4317 32.0453C27.4352 31.9678 27.4287 31.8743 27.4112 31.7978C27.4007 31.7503 27.3973 31.7013 27.3853 31.6548C27.3738 31.6118 27.3547 31.5698 27.3527 31.5248L27.3547 31.5088C27.3147 31.4508 27.2932 31.3713 27.2987 31.3023C27.3042 31.2303 27.3047 31.1608 27.3117 31.0893C27.3147 31.0573 27.3147 31.0078 27.3067 30.9758C27.3022 30.9573 27.2882 30.9448 27.2852 30.9258C27.2812 30.9048 27.2802 30.8883 27.2747 30.8673C27.2572 30.8008 27.2437 30.7278 27.2242 30.6583C27.2027 30.5793 27.1692 30.5073 27.1512 30.4263C27.1337 30.3488 27.1082 30.2743 27.0907 30.1963C27.0742 30.1223 27.0562 30.0418 27.0297 29.9733C27.0167 29.9398 27.0112 29.9033 26.9982 29.8688C26.9857 29.8363 26.9507 29.8018 26.9577 29.7648L26.9437 29.7463C26.9447 29.7133 26.9222 29.6613 26.9107 29.6303C26.8942 29.5868 26.8797 29.5423 26.8612 29.4988C26.8452 29.4598 26.8332 29.4223 26.8222 29.3813C26.8117 29.3388 26.7892 29.2973 26.7932 29.2538C26.8057 29.1103 26.8867 28.9998 26.9412 28.8698C26.9727 28.7938 27.0157 28.7273 27.0562 28.6558C27.0927 28.5908 27.1477 28.5198 27.1677 28.4473C27.1857 28.3818 27.2182 28.3168 27.2267 28.2488C27.2352 28.1808 27.2447 28.1128 27.2537 28.0453L27.2602 27.9963C27.2872 27.9818 27.2947 27.9153 27.3082 27.8873C27.3263 27.8473 27.3272 27.8053 27.3422 27.7663C27.3562 27.7298 27.3658 27.7043 27.3713 27.6628C27.3758 27.6278 27.3808 27.5923 27.3853 27.5578C27.4063 27.4007 27.4278 27.2432 27.4483 27.0862C27.4678 26.9387 27.4722 26.7782 27.5077 26.6337C27.5162 26.5987 27.5333 26.5747 27.5378 26.5382C27.5428 26.4967 27.5488 26.4562 27.5543 26.4147C27.5588 26.3787 27.5613 26.3462 27.5798 26.3142C27.5993 26.2807 27.6437 26.2477 27.6482 26.2082C27.6767 26.1592 27.7053 26.1082 27.7488 26.0722C27.7973 26.0332 27.8443 26.0042 27.8993 25.9762C27.9363 25.9572 28.0123 25.9337 28.0358 25.8952C28.0568 25.8607 28.0298 25.7747 28.0723 25.7527C28.0983 25.7392 28.1618 25.7407 28.1908 25.7372C28.2438 25.7307 28.2998 25.7587 28.3463 25.7127C28.3773 25.6817 28.3533 25.6352 28.3608 25.5892C28.3738 25.5212 28.3943 25.5357 28.4553 25.5147Z" fill="white"/>
<path d="M3.68347 39.6514C3.68347 39.6504 3.68497 39.6494 3.68497 39.6484C3.68547 39.6459 3.68397 39.6424 3.68497 39.6399L3.68347 39.6514Z" fill="white"/>
</svg>
