<svg width="53" height="45" viewBox="0 0 53 45" fill="none" xmlns="http://www.w3.org/2000/svg">
<path d="M46.1591 19.4273C46.1471 19.4135 46.1298 19.4089 46.1172 19.3963C46.1057 19.3848 46.1012 19.3642 46.092 19.3521C46.0776 19.3332 46.0581 19.3228 46.0426 19.3056C46.0277 19.289 46.0225 19.2689 46.0116 19.2494C45.9766 19.1851 45.9198 19.1306 45.8768 19.0703C45.8377 19.0152 45.7901 18.9573 45.762 18.8959C45.7413 18.8511 45.7459 18.796 45.7591 18.7495C45.7729 18.7002 45.7786 18.6612 45.8131 18.6216C45.8475 18.5814 45.9095 18.5326 45.9617 18.5183C46.0673 18.4884 46.1763 18.4747 46.2859 18.4959C46.3445 18.5068 46.4047 18.5481 46.4592 18.5722C46.4943 18.5877 46.5281 18.5963 46.5637 18.6089C46.5976 18.621 46.6262 18.6457 46.6601 18.6589C46.7416 18.6899 46.8942 18.7163 46.9614 18.6451C47.0383 18.563 47.0423 18.4615 47.0509 18.3541C47.0595 18.2463 47.0618 18.1361 47.0756 18.0288C47.0796 17.9983 47.0945 17.9725 47.098 17.9415C47.1008 17.9192 47.0985 17.8968 47.1037 17.8755C47.1192 17.8147 47.1427 17.7527 47.1743 17.6982C47.207 17.6414 47.2609 17.619 47.3155 17.5915C47.3556 17.5714 47.405 17.5536 47.4503 17.5582L47.4658 17.545C47.5657 17.4572 47.7051 17.4893 47.8233 17.4773C47.8939 17.4704 47.9427 17.4652 47.9978 17.417C48.0437 17.3768 48.0942 17.3321 48.1332 17.285C48.1659 17.246 48.1872 17.1898 48.2136 17.1462C48.2411 17.1014 48.2532 17.0578 48.2572 17.0061C48.26 16.9614 48.2761 16.9051 48.2532 16.8644C48.2273 16.8185 48.1831 16.7921 48.1332 16.7875C48.0437 16.7794 47.9542 16.7754 47.8647 16.7668C47.8067 16.7617 47.7441 16.7152 47.7034 16.6739C47.6575 16.6274 47.6575 16.5838 47.6627 16.5229C47.6707 16.4259 47.6902 16.3301 47.7568 16.2549C47.8291 16.1734 47.914 16.1109 47.9984 16.042C48.0603 15.9915 48.0288 15.8636 48.0282 15.793C48.0276 15.7419 48.0121 15.6793 47.9972 15.6294C47.988 15.5984 47.945 15.556 47.9461 15.5233L47.9329 15.5078C47.9461 15.4578 47.8612 15.3689 47.8365 15.3322C47.7918 15.2662 47.7212 15.2093 47.6678 15.1497C47.6231 15.0992 47.5685 15.0601 47.5307 15.0022C47.4974 14.9517 47.4675 14.9018 47.4394 14.849C47.4044 14.7824 47.3924 14.7003 47.3608 14.632C47.3424 14.593 47.3212 14.5373 47.3201 14.4937C47.3166 14.3904 47.3355 14.2791 47.3453 14.1764C47.3493 14.1305 47.3602 14.0909 47.405 14.0696C47.4469 14.0496 47.5094 14.045 47.5548 14.0392C47.6058 14.0335 47.6615 14.0392 47.7091 14.0243C47.7476 14.0123 47.7849 14.01 47.8228 13.9996C47.8761 13.9853 47.9393 13.9623 47.9949 13.9572C48.0471 13.952 48.0976 13.952 48.1499 13.9371C48.1763 13.929 48.2009 13.9176 48.2262 13.9061C48.2537 13.894 48.2853 13.8917 48.3106 13.8768C48.3588 13.8481 48.3966 13.808 48.4357 13.7684C48.4741 13.7293 48.4953 13.6794 48.5332 13.6433C48.5676 13.6105 48.6107 13.5773 48.6164 13.5285C48.6222 13.4791 48.6147 13.4332 48.613 13.3844C48.6113 13.3408 48.5849 13.2943 48.5935 13.2507L48.5699 13.1756C48.5699 13.121 48.5166 13.0579 48.4827 13.0212C48.4276 12.9615 48.3777 12.9024 48.3352 12.8324C48.2979 12.771 48.2681 12.7153 48.2469 12.6453C48.2268 12.5782 48.2394 12.511 48.2451 12.4422C48.2497 12.3848 48.2537 12.328 48.2583 12.2706C48.26 12.247 48.2566 12.2172 48.2629 12.1954C48.2801 12.1328 48.3433 12.1064 48.392 12.0737C48.4437 12.0393 48.489 11.994 48.5504 11.9779C48.5929 11.967 48.6342 11.9745 48.6778 11.9779C48.7381 11.9825 48.8001 11.9802 48.8569 12.0026C48.912 12.0244 48.9596 12.0536 49.0055 12.0915C49.0474 12.126 49.0836 12.1604 49.1329 12.1868C49.1777 12.2109 49.2368 12.2453 49.2861 12.2574C49.3739 12.2792 49.4744 12.2734 49.5645 12.282C49.6115 12.2866 49.6603 12.2757 49.7068 12.2654C49.7492 12.2562 49.79 12.2356 49.8347 12.2442L49.837 12.2149C49.8405 12.1965 49.8525 12.1828 49.8565 12.1638C49.86 12.1466 49.856 12.1277 49.8594 12.1105C49.8686 12.0588 49.8921 12.0077 49.9053 11.9567C49.9248 11.8798 49.938 11.8 49.9782 11.7306C50.0012 11.6915 50.0322 11.6525 50.0603 11.6169C50.0861 11.5854 50.1217 11.5693 50.1561 11.5498C50.2089 11.5199 50.2479 11.4798 50.2858 11.4333C50.3375 11.3702 50.3736 11.3306 50.3644 11.2451C50.3558 11.1676 50.3088 11.1177 50.2491 11.0706C50.1871 11.0218 50.1039 11.0046 50.0362 10.9627C49.9834 10.93 49.9357 10.8898 49.8755 10.8726C49.8273 10.8588 49.7819 10.8382 49.7332 10.8233C49.6574 10.7997 49.5765 10.7601 49.5111 10.716C49.4508 10.6752 49.4038 10.6282 49.3768 10.5622C49.3458 10.487 49.3171 10.4095 49.2861 10.3343C49.2718 10.2999 49.2672 10.2655 49.2597 10.2287C49.2528 10.1937 49.2333 10.1679 49.2219 10.1352C49.2081 10.0945 49.2041 10.0463 49.1926 10.0038C49.184 9.97222 49.1805 9.94181 49.1742 9.91025C49.1691 9.88213 49.1553 9.85688 49.1536 9.82818C49.1518 9.79719 49.1593 9.76219 49.1616 9.7312C49.1668 9.66233 49.1656 9.59691 49.2058 9.53723C49.2173 9.52002 49.2299 9.51083 49.2391 9.4919C49.2483 9.47353 49.2528 9.45402 49.2649 9.4368C49.2884 9.40237 49.3257 9.38171 49.3533 9.35072C49.4158 9.28301 49.4778 9.23595 49.5633 9.20324C49.6339 9.17627 49.7039 9.17569 49.7779 9.18143C49.8124 9.1843 49.8468 9.18717 49.8812 9.18947C49.9157 9.19176 49.9352 9.20324 49.9656 9.21185C50.023 9.22792 50.0959 9.22103 50.1561 9.22562L50.1705 9.22677C50.2238 9.23939 50.2743 9.26522 50.3271 9.27956C50.3885 9.29678 50.458 9.29047 50.5199 9.28186C50.5762 9.2744 50.6422 9.24571 50.6852 9.20783C50.7042 9.19061 50.7225 9.15618 50.7374 9.13495C50.7495 9.11716 50.7587 9.09937 50.7707 9.08215C50.8287 8.99779 50.9176 8.93352 50.9899 8.86121C51.033 8.81817 51.0714 8.76423 51.1076 8.71545C51.1328 8.68159 51.1581 8.64716 51.1833 8.6133C51.2189 8.56567 51.2631 8.51919 51.2947 8.46984C51.3222 8.4268 51.3469 8.3717 51.2826 8.35621C51.2459 8.3476 51.2005 8.35104 51.1627 8.34818C51.1294 8.34588 51.0961 8.34301 51.0634 8.34071C51.0186 8.33785 50.9808 8.32407 50.9371 8.31604C50.8752 8.30456 50.8333 8.28735 50.7879 8.24603C50.7426 8.20413 50.7369 8.18577 50.742 8.12494C50.7501 8.03829 50.7558 7.96196 50.7937 7.88219C50.8356 7.79439 50.8958 7.71405 50.9561 7.63715C51.0112 7.56714 51.0686 7.46958 51.165 7.45409C51.1965 7.44892 51.2597 7.45064 51.2901 7.45983C51.3234 7.46958 51.3549 7.50344 51.379 7.52926C51.4531 7.60731 51.5535 7.72668 51.6677 7.74045C51.7469 7.7502 51.8324 7.7634 51.9064 7.73012C51.9495 7.71118 51.9885 7.69167 52.0137 7.64978C52.0372 7.61075 52.0344 7.56771 52.0378 7.52238C52.0441 7.44491 52.0516 7.38178 52.0223 7.30775C51.9867 7.21765 51.9058 7.13617 51.833 7.07591C51.7543 7.01106 51.6826 6.94679 51.6017 6.88538C51.5345 6.83431 51.4685 6.75397 51.472 6.66559C51.4777 6.525 51.4944 6.38325 51.5053 6.24265L45.3459 6.41194C45.3023 6.43145 45.2731 6.47048 45.2231 6.47507C45.1876 6.47851 45.1485 6.4699 45.113 6.46761C45.0757 6.46531 45.0372 6.45556 45.0051 6.43432C44.9712 6.41194 44.9523 6.36661 44.9253 6.33562C44.9454 6.31955 44.9528 6.27421 44.9655 6.25069C44.9792 6.22429 44.993 6.20306 45.0079 6.17723C45.0395 6.12444 45.0711 6.07164 45.1043 6.01884C45.1428 5.95687 45.1703 5.89202 45.2036 5.82775C45.2329 5.77151 45.2398 5.71469 45.2564 5.65616C45.2748 5.59246 45.3018 5.52073 45.3528 5.47826C45.4211 5.42087 45.4888 5.37267 45.5623 5.32389C45.6002 5.29921 45.626 5.25904 45.661 5.2315C45.6903 5.20797 45.7132 5.1896 45.7299 5.1546C45.7471 5.11959 45.7672 5.08688 45.7861 5.05302C45.8039 5.02031 45.84 4.9899 45.8412 4.95145L45.8423 4.9371C45.8756 4.90611 45.8871 4.85102 45.8974 4.80798C45.9066 4.76724 45.9124 4.7242 45.9238 4.68345C45.9497 4.59106 45.9915 4.47284 46.0616 4.40742C46.1534 4.32249 46.263 4.28691 46.3806 4.25477C46.4357 4.23985 46.4765 4.21977 46.5184 4.18132C46.558 4.14574 46.5769 4.10212 46.6096 4.06253C46.6417 4.02408 46.6894 3.99538 46.7267 3.9621C46.7783 3.91619 46.8265 3.86167 46.8742 3.81175C46.9074 3.77617 46.9528 3.7337 46.9671 3.68722C46.9769 3.65565 46.9734 3.61491 46.9763 3.58162C46.9832 3.49612 46.9907 3.41061 46.9964 3.32511C46.9993 3.27977 47.0096 3.23042 47.0348 3.19312C47.0675 3.14434 47.1123 3.10015 47.1215 3.0376L47.1381 3.00948C47.1772 2.98308 47.2093 2.92627 47.2368 2.88782C47.2581 2.85798 47.2833 2.82871 47.3028 2.79829C47.3499 2.72312 47.4136 2.63359 47.4251 2.54407C47.4308 2.49988 47.4302 2.46947 47.4136 2.42872C47.3987 2.392 47.3849 2.33461 47.3849 2.29444C47.3849 2.20836 47.4142 2.13318 47.4193 2.0494C47.4216 2.01496 47.4365 1.98857 47.4423 1.95586C47.4486 1.91741 47.4486 1.88527 47.4675 1.84797C47.4842 1.81468 47.5077 1.78427 47.5335 1.75787C47.5548 1.73606 47.6167 1.68786 47.5955 1.64711C47.5789 1.61498 47.5266 1.61383 47.4968 1.61153C47.4543 1.60809 47.4222 1.58686 47.3826 1.57022C47.3493 1.55587 47.3281 1.52947 47.308 1.5002C47.2885 1.47208 47.2644 1.44224 47.2477 1.41298C47.2133 1.35042 47.1955 1.28672 47.145 1.23163C47.0939 1.17539 47.0394 1.12317 46.9884 1.06521C46.9608 1.03365 46.9465 0.999791 46.9264 0.965359C46.9074 0.932648 46.9034 0.922318 46.9069 0.882722C46.9126 0.821892 46.9292 0.778278 46.9488 0.720891C46.9729 0.650305 46.9987 0.588327 46.9912 0.510855C46.9884 0.483309 46.9855 0.450025 46.9763 0.424201C46.9631 0.388047 46.9235 0.368536 46.9189 0.328365C46.9109 0.258353 46.9396 0.18088 46.9384 0.109721C46.9379 0.0764364 46.9235 0.0362656 46.8954 0.0161802C46.8719 -0.000462025 46.8391 0.000685781 46.8099 0.000111913C46.733 -0.00218356 46.6532 0.0311011 46.5901 0.075289C46.5224 0.122346 46.4759 0.19121 46.3996 0.224494C46.3364 0.25204 46.2802 0.281308 46.2309 0.213017C46.2108 0.184898 46.2125 0.1585 46.1981 0.128658C46.1884 0.107999 46.1626 0.0701239 46.1482 0.0517602C39.1195 0.11259 4.05956 0.613577 0.847041 0.25204L0.764404 1.51111L2.34886 14.7221L1.5925 36.8344C1.61086 36.8356 1.62865 36.8373 1.64701 36.8384C1.66251 36.8396 1.67054 36.8448 1.68489 36.8482C1.7176 36.8562 1.75031 36.8654 1.78245 36.8775C1.79737 36.8826 1.81401 36.8861 1.82778 36.8935C1.84213 36.901 1.85246 36.9125 1.86566 36.9217C1.88058 36.9326 1.89091 36.9458 1.90411 36.9578C1.91903 36.9716 1.9351 36.9842 1.94543 37.002C1.95116 37.0118 1.96322 37.0267 1.96723 37.0364C1.96953 37.0422 1.97068 37.0422 1.9701 37.0491C1.96781 37.068 1.93108 37.0869 1.91845 37.1001C1.90583 37.1139 1.89493 37.1288 1.8823 37.1426C1.86795 37.1575 1.85475 37.1713 1.85131 37.1931C1.84615 37.2229 1.83696 37.2746 1.85648 37.3004C1.88402 37.3371 1.92534 37.332 1.96666 37.3354C2.00224 37.3383 2.03724 37.3412 2.07282 37.3435C2.10496 37.3457 2.13997 37.3521 2.1721 37.3498C2.20711 37.3469 2.24613 37.348 2.27999 37.3354C2.30065 37.328 2.32188 37.3222 2.34312 37.3159C2.3632 37.3102 2.38616 37.301 2.40739 37.3021C2.43436 37.3033 2.44756 37.3234 2.45961 37.3452C2.46937 37.3635 2.48199 37.3894 2.48601 37.4094C2.49404 37.4496 2.4929 37.4915 2.50265 37.5305C2.50896 37.5569 2.51183 37.5684 2.53479 37.585C2.55028 37.596 2.56693 37.6092 2.58586 37.6143C2.6025 37.6189 2.62029 37.6183 2.63694 37.6195C2.66333 37.6218 2.69145 37.6269 2.71785 37.6246C2.73966 37.6229 2.76032 37.6132 2.78213 37.6092C2.80393 37.6046 2.82344 37.6005 2.84353 37.5896C2.90493 37.5564 2.90608 37.4789 2.94797 37.4301C2.98011 37.3928 3.02028 37.3744 3.06734 37.3653C3.09259 37.3607 3.11784 37.3549 3.14366 37.3509C3.16834 37.3469 3.19187 37.3498 3.21654 37.3515L3.22286 37.3584C3.22171 37.3733 3.22056 37.3882 3.21941 37.4031C3.21884 37.4146 3.21941 37.4267 3.2154 37.4381C3.21253 37.4467 3.20564 37.4542 3.20277 37.4622C3.19187 37.4927 3.17809 37.5231 3.16604 37.5541C3.15227 37.5885 3.14366 37.6241 3.13448 37.6602C3.13104 37.6728 3.13104 37.6849 3.12989 37.6975C3.12874 37.7153 3.12243 37.7365 3.12587 37.7538C3.13333 37.7893 3.18383 37.7951 3.21253 37.7974C3.22974 37.7985 3.24696 37.8002 3.26475 37.8014C3.29689 37.8043 3.32501 37.8003 3.35599 37.7968C3.39157 37.7922 3.42084 37.779 3.4524 37.7629C3.46962 37.7538 3.48798 37.7503 3.50003 37.7343C3.51438 37.7147 3.52356 37.6872 3.52529 37.6637C3.53102 37.6017 3.53447 37.5397 3.53963 37.4777C3.54078 37.4645 3.54193 37.4513 3.5425 37.4376C3.54365 37.414 3.54824 37.4054 3.56775 37.3928C3.59874 37.3721 3.62514 37.3653 3.66244 37.3733C3.69859 37.3813 3.7204 37.4324 3.73417 37.464C3.74795 37.4961 3.74909 37.5403 3.75311 37.5753C3.75713 37.6074 3.78582 37.6459 3.81853 37.6522C3.84665 37.6579 3.87075 37.6269 3.89141 37.612C3.92125 37.5902 3.9488 37.5655 3.97462 37.5391C4.00045 37.5133 4.02168 37.484 4.04751 37.4576C4.05898 37.4462 4.08194 37.4186 4.09686 37.4117C4.11522 37.4031 4.14506 37.41 4.164 37.4123C4.18236 37.4146 4.19499 37.4192 4.2036 37.4364C4.22885 37.4846 4.21967 37.5472 4.21565 37.5994C4.2145 37.6178 4.21221 37.6361 4.21106 37.6539C4.21048 37.674 4.2168 37.6757 4.23573 37.6774L4.24262 37.678C4.26558 37.6797 4.29083 37.6849 4.31378 37.6838C4.35051 37.6826 4.3815 37.6717 4.4165 37.6596C4.43946 37.6516 4.46413 37.643 4.48537 37.6304C4.50603 37.6183 4.52554 37.5914 4.53759 37.5713C4.54964 37.5506 4.55882 37.5294 4.57833 37.5145C4.59899 37.4984 4.61908 37.4875 4.64433 37.4812C4.65523 37.4783 4.6604 37.4777 4.67245 37.4783C4.68852 37.4795 4.70114 37.4749 4.71664 37.4743C4.73902 37.4737 4.7614 37.4795 4.78378 37.48C4.82223 37.4806 4.86182 37.4691 4.90027 37.4686C4.92151 37.468 4.94389 37.4726 4.96455 37.4737C5.02882 37.4783 5.07243 37.5162 5.11031 37.5667C5.12638 37.5885 5.13958 37.6166 5.16425 37.6292C5.20385 37.6487 5.24574 37.6499 5.28936 37.6528C5.32321 37.6545 5.35822 37.6499 5.39036 37.6367C5.42651 37.6218 5.45635 37.6 5.49021 37.5816C5.52636 37.5615 5.56252 37.5564 5.60326 37.5506C5.62105 37.5483 5.63999 37.5414 5.65778 37.5414C5.67729 37.5409 5.69795 37.5443 5.71746 37.546C5.73812 37.5477 5.75362 37.5535 5.77255 37.5609C5.7846 37.5655 5.79551 37.565 5.80813 37.5678C5.83511 37.5741 5.86093 37.585 5.8879 37.5914C5.89995 37.5942 5.91832 37.5908 5.92635 37.6023L5.93324 37.6028C5.99005 37.6074 6.04285 37.6126 6.09794 37.631C6.14959 37.6482 6.20353 37.6551 6.246 37.6906C6.26379 37.7056 6.27871 37.7228 6.28846 37.744C6.29822 37.7652 6.31429 37.783 6.32691 37.8025C6.34011 37.8232 6.34872 37.8381 6.35216 37.8622C6.35446 37.876 6.35101 37.9076 6.36134 37.9156L6.30682 44.9478L36.9577 45C36.9755 44.9679 36.9795 44.93 36.9927 44.8956C37.0059 44.8617 37.0243 44.8267 37.0409 44.794C37.0822 44.7131 37.1614 44.666 37.2332 44.6149C37.3066 44.5627 37.3835 44.5093 37.4507 44.4485C37.4748 44.4267 37.4914 44.4003 37.519 44.3825C37.5367 44.3705 37.5436 44.3745 37.5494 44.3533C37.5585 44.3211 37.5155 44.2654 37.4966 44.2413L37.4788 44.2098C37.4616 44.1891 37.457 44.1576 37.4449 44.134C37.4271 44.1002 37.3996 44.0738 37.3715 44.0485C37.329 44.0112 37.2705 43.982 37.2182 43.9613C37.1505 43.9343 37.0782 43.9194 37.0088 43.8976C36.9336 43.8735 36.8401 43.8316 36.793 43.7645C36.758 43.7145 36.7012 43.6462 36.6972 43.5831C36.6949 43.5504 36.6989 43.5062 36.7064 43.4747C36.7115 43.4523 36.7167 43.4167 36.7299 43.3983C36.7471 43.3742 36.7706 43.3754 36.7947 43.3639C36.8137 43.3547 36.828 43.3387 36.8487 43.3323C36.867 43.3266 36.8888 43.322 36.9078 43.3174C36.9485 43.3071 36.9876 43.2876 37.03 43.2847C37.0696 43.2818 37.1127 43.2859 37.1517 43.2795C37.2114 43.2698 37.2733 43.2692 37.3319 43.256C37.3766 43.2463 37.4214 43.2371 37.4667 43.2273C37.5327 43.2124 37.5976 43.1837 37.6607 43.1602C37.7169 43.1389 37.7709 43.1189 37.826 43.0965C37.8661 43.0804 37.9178 43.0569 37.9402 43.0179C37.9608 42.9811 37.9815 42.9484 38.0004 42.91C38.0113 42.8887 38.0228 42.875 38.0257 42.8509C38.0291 42.825 38.0291 42.7981 38.0314 42.7722C38.036 42.7172 38.0222 42.6661 38.0234 42.6116C38.0245 42.5657 38.0154 42.5249 38.0062 42.4807C38.001 42.4566 38.0027 42.4314 37.9976 42.4073C37.993 42.3849 37.9832 42.3694 37.9838 42.3459C37.9849 42.3068 37.9901 42.2678 37.993 42.2288L37.9935 42.219C38.0022 42.1089 38.0067 42.0015 38.0412 41.8959C38.0555 41.8518 38.0722 41.8162 38.0957 41.7766C38.133 41.7135 38.168 41.6412 38.2219 41.5907C38.2701 41.5459 38.3258 41.5057 38.3706 41.4581C38.4182 41.4076 38.4716 41.3559 38.5135 41.3008C38.5295 41.2796 38.549 41.2549 38.5617 41.232C38.5731 41.2108 38.5737 41.1947 38.5754 41.17C38.5783 41.1327 38.5686 41.0908 38.5439 41.0627C38.5198 41.0351 38.4899 41.03 38.4578 41.0162C38.4079 40.995 38.358 40.9749 38.3029 40.9714C38.242 40.9674 38.1806 40.9577 38.1204 40.9651C38.0968 40.968 38.0745 40.9617 38.0504 40.964C38.028 40.9663 38.0136 40.9691 37.9907 40.9669C37.9465 40.9628 37.8862 40.972 37.8564 41.0087C37.826 41.0461 37.8197 41.0816 37.8053 41.1258C37.7915 41.1683 37.7657 41.2062 37.7508 41.2486C37.7324 41.3008 37.7072 41.3674 37.6733 41.411C37.6251 41.368 37.6268 41.3043 37.6062 41.2463C37.5855 41.1878 37.5603 41.1252 37.5522 41.0633C37.5442 41.003 37.531 40.945 37.5367 40.8825C37.5419 40.8194 37.5471 40.7562 37.5517 40.6931C37.554 40.6593 37.5672 40.6294 37.5695 40.5956C37.5712 40.5663 37.574 40.5365 37.5763 40.5072C37.5781 40.4871 37.5763 40.4647 37.5832 40.4452C37.593 40.4177 37.5936 40.3901 37.6022 40.3614C37.6268 40.2822 37.6618 40.2053 37.7049 40.1342C37.7353 40.0842 37.7537 40.0297 37.7841 39.9798C37.8024 39.9494 37.8214 39.9195 37.8392 39.8886C37.8529 39.8645 37.8719 39.8438 37.8799 39.8168L37.9425 39.7818C37.9683 39.7319 37.9924 39.6774 38.0337 39.6389C38.0991 39.5781 38.1382 39.488 38.191 39.4163C38.2747 39.3026 38.2897 39.1511 38.2575 39.0157C38.2483 38.9767 38.2432 38.9084 38.2116 38.8814C38.1743 38.8493 38.129 38.8539 38.0848 38.8619C37.9918 38.8785 37.8925 38.9004 37.826 38.9744C37.8099 38.9922 37.7915 39.0094 37.7772 39.0283C37.7617 39.049 37.7531 39.0742 37.7365 39.0943C37.7267 39.1058 37.7146 39.1127 37.706 39.1253C37.6957 39.1408 37.6905 39.1603 37.6802 39.1764C37.6486 39.2257 37.6263 39.2797 37.5982 39.3308C37.5775 39.3681 37.5499 39.3979 37.5253 39.4306C37.4971 39.4679 37.469 39.5052 37.4369 39.5396C37.4099 39.5683 37.3629 39.6045 37.3233 39.6131C37.2418 39.6315 37.1649 39.6039 37.0857 39.5965C37.0358 39.5919 36.9916 39.5746 36.9548 39.5414C36.9376 39.5259 36.917 39.5155 36.9135 39.4903C36.9112 39.4759 36.9175 39.4564 36.9187 39.4421C36.9216 39.4065 36.9302 39.3899 36.9548 39.3629C36.9812 39.3342 37.0128 39.3199 37.0444 39.2969C37.1052 39.2533 37.1832 39.2326 37.2498 39.1959C37.3198 39.1574 37.3841 39.1058 37.4403 39.0496C37.4828 39.0071 37.5276 38.9514 37.5322 38.8906C37.535 38.8533 37.5362 38.8212 37.5247 38.785C37.5149 38.7523 37.5006 38.7236 37.4862 38.6938C37.4707 38.6616 37.4673 38.6283 37.4426 38.6002C37.418 38.5721 37.3766 38.5423 37.3422 38.5268C37.2906 38.5027 37.2286 38.5061 37.1729 38.5015C37.1327 38.4986 37.0897 38.4929 37.0507 38.5073C36.9985 38.5268 37.0111 38.6301 37.0071 38.676C37.0013 38.7483 36.9956 38.8212 36.9904 38.8935C36.9876 38.9302 36.9841 38.9612 36.9738 38.9962C36.9646 39.0278 36.9462 39.0559 36.9261 39.0823C36.9015 39.115 36.8688 39.1442 36.8406 39.1741C36.8142 39.2022 36.7821 39.2372 36.7465 39.2539C36.7213 39.2659 36.6914 39.2521 36.6673 39.2418C36.6484 39.2338 36.6237 39.2263 36.6059 39.2154C36.595 39.2091 36.5887 39.1976 36.5761 39.1953L36.5663 39.1947C36.5462 39.181 36.6128 39.0524 36.6191 39.0329C36.661 38.9015 36.7276 38.7816 36.7833 38.6559C36.816 38.5819 36.82 38.5078 36.8263 38.4286C36.8303 38.3799 36.8309 38.3437 36.8114 38.2978C36.7919 38.2513 36.7649 38.2197 36.7247 38.1905C36.6777 38.1555 36.6283 38.1153 36.5956 38.0654C36.5635 38.016 36.5394 37.9787 36.5451 37.9162C36.5491 37.8714 36.5462 37.8307 36.5784 37.7962C36.5962 37.7767 36.6323 37.7756 36.6564 37.7675C36.6736 37.7618 36.692 37.7555 36.7098 37.7515C36.7574 37.74 36.8085 37.7348 36.8573 37.736C36.8825 37.7365 36.9038 37.7285 36.9302 37.7314C36.9503 37.7331 36.9721 37.7377 36.9921 37.7371C37.0099 37.7365 37.0243 37.7302 37.0415 37.7302C37.069 37.7302 37.0891 37.7302 37.1155 37.7274C37.2171 37.7165 37.3158 37.705 37.3979 37.6378C37.4386 37.6046 37.4776 37.5759 37.5063 37.5305C37.527 37.4978 37.5597 37.4645 37.5723 37.4284C37.5855 37.3911 37.5804 37.3429 37.574 37.3061C37.5677 37.2694 37.5683 37.2327 37.5522 37.1977C37.5333 37.1581 37.5241 37.1162 37.5098 37.076C37.5023 37.0559 37.4736 37.025 37.461 37.0072C37.4484 36.9899 37.4237 36.9745 37.4306 36.9492L37.4208 36.9486C37.3456 36.8493 37.2096 36.808 37.0943 36.7822C37.0616 36.7747 37.0346 36.7627 37.0053 36.7461C36.9812 36.7323 36.9537 36.7283 36.9296 36.7151C36.9003 36.6996 36.8722 36.6732 36.8447 36.6537C36.8217 36.6376 36.7976 36.6215 36.7758 36.6037C36.7322 36.5676 36.6863 36.5234 36.6513 36.4786C36.6168 36.435 36.6122 36.3897 36.6168 36.3357C36.622 36.2686 36.6375 36.1969 36.6622 36.1337C36.6748 36.1016 36.6937 36.0729 36.7075 36.0413C36.7207 36.0104 36.7351 36.0029 36.7643 35.9891C36.8607 35.9426 36.9548 35.9524 37.0593 35.9593C37.1482 35.9656 37.2269 36.0333 37.2865 36.097C37.3187 36.1314 37.36 36.1561 37.4002 36.1796C37.438 36.2015 37.4627 36.237 37.4983 36.2634C37.5534 36.3047 37.6113 36.3432 37.6687 36.3811C37.7141 36.4109 37.7583 36.4344 37.8122 36.4379C37.865 36.4413 37.9086 36.4431 37.9608 36.4344C38.0131 36.4258 38.0647 36.392 38.1077 36.361C38.1858 36.3047 38.2265 36.2353 38.234 36.1406C38.238 36.0855 38.238 36.0396 38.2156 35.988C38.1973 35.9455 38.1812 35.9122 38.1445 35.8841C38.1106 35.8583 38.0928 35.8175 38.0618 35.7883C38.0297 35.7573 37.9918 35.728 37.9568 35.6999C37.9017 35.6551 37.8409 35.6173 37.7869 35.5725C37.7422 35.5352 37.7043 35.4916 37.659 35.4548C37.6165 35.4204 37.5735 35.394 37.5436 35.3475C37.5178 35.3074 37.4851 35.2758 37.469 35.2293C37.4604 35.2052 37.4633 35.157 37.4725 35.1329C37.4903 35.0864 37.5431 35.0738 37.5861 35.0686C37.62 35.0646 37.6527 35.0537 37.6871 35.0566C37.7164 35.0589 37.7422 35.0514 37.772 35.0531C37.8145 35.056 37.8558 35.0497 37.8989 35.0531C37.97 35.0589 38.0412 35.0635 38.1123 35.0698C38.1307 35.0715 38.1399 35.0686 38.1565 35.0652C38.1766 35.0617 38.1961 35.0675 38.2168 35.0652C38.2455 35.0617 38.2696 35.0617 38.2983 35.064C38.3166 35.0652 38.327 35.06 38.3442 35.0583C38.3677 35.0554 38.3861 35.0583 38.4096 35.0497C38.4234 35.0445 38.4354 35.0394 38.4498 35.0354C38.4963 35.0233 38.5123 34.9992 38.5387 34.9613C38.5634 34.9252 38.5898 34.889 38.6036 34.846C38.6139 34.8138 38.611 34.7708 38.6139 34.7375L38.6001 34.6566C38.6036 34.6147 38.6122 34.5694 38.6082 34.5275C38.6059 34.5039 38.6018 34.4793 38.5984 34.4552C38.5944 34.4265 38.5841 34.4156 38.5709 34.392C38.5479 34.3513 38.5244 34.3106 38.4997 34.2698C38.4813 34.2394 38.4572 34.2136 38.4389 34.1837C38.4251 34.1613 38.4182 34.1401 38.4016 34.12C38.3895 34.1057 38.3786 34.0931 38.3689 34.077C38.3407 34.0322 38.3109 33.9892 38.2851 33.9433C38.2667 33.9106 38.2495 33.8779 38.2323 33.8446C38.2082 33.7981 38.1978 33.7516 38.1829 33.7023C38.1703 33.6598 38.1801 33.6139 38.1835 33.5697C38.1864 33.5324 38.1852 33.4922 38.1921 33.4555C38.2013 33.4044 38.2191 33.3551 38.234 33.3057C38.2472 33.2638 38.2524 33.2179 38.2736 33.1783C38.2908 33.1462 38.3086 33.1152 38.3241 33.0819C38.3367 33.0544 38.3545 33.0257 38.3585 32.9958C38.3677 32.9235 38.37 32.8489 38.3752 32.776L38.3757 32.7663C38.3614 32.7502 38.3614 32.7244 38.3505 32.706C38.3407 32.69 38.3264 32.6745 38.3132 32.6613C38.2633 32.6113 38.2019 32.5717 38.1473 32.527C38.0636 32.4575 37.9872 32.3783 37.904 32.3083C37.861 32.2722 37.8202 32.2205 37.7961 32.17C37.7772 32.1304 37.756 32.0948 37.7347 32.057C37.7146 32.0202 37.6946 31.9709 37.6991 31.929C37.7055 31.8728 37.7542 31.8515 37.7979 31.824C37.8415 31.7964 37.8948 31.75 37.9499 31.7522C37.9878 31.7534 38.0194 31.7609 38.0521 31.7804C38.0877 31.8016 38.1083 31.8309 38.1382 31.8578C38.1691 31.8854 38.1921 31.9141 38.2139 31.9497C38.2271 31.9715 38.2334 31.9961 38.2455 32.0185C38.2581 32.0426 38.2753 32.0644 38.2891 32.088C38.3097 32.123 38.3132 32.1637 38.335 32.1976C38.3551 32.2291 38.3752 32.2613 38.4021 32.2871C38.4486 32.3313 38.5192 32.3376 38.58 32.3428C38.6162 32.3456 38.6523 32.3485 38.6879 32.3514C38.7241 32.3542 38.7378 32.3542 38.7614 32.3829C38.8004 32.43 38.863 32.5293 38.937 32.477C38.9582 32.4621 38.9783 32.4283 38.9944 32.4059C39.0116 32.3818 39.0213 32.3537 39.0334 32.3261C39.046 32.2968 39.0552 32.2727 39.0575 32.2406C39.0598 32.2068 39.0575 32.1936 39.046 32.162C39.0334 32.1276 39.0167 32.0989 39.0007 32.0656C38.9863 32.0346 38.968 32.0053 38.9674 31.9697C38.9668 31.9399 38.9714 31.9072 38.9749 31.8774C38.9783 31.8446 38.9915 31.8257 39.0265 31.8263C39.0609 31.8274 39.0925 31.8309 39.1235 31.8441C39.1533 31.8573 39.1878 31.8624 39.2205 31.8619C39.2555 31.8613 39.2905 31.8441 39.3232 31.8332C39.3582 31.8217 39.3857 31.8114 39.4167 31.7907C39.4804 31.7482 39.5309 31.6874 39.5791 31.6289C39.6073 31.595 39.6428 31.5675 39.6721 31.5336C39.6836 31.5198 39.6928 31.5043 39.7048 31.4906C39.718 31.4756 39.7358 31.4647 39.749 31.4492C39.7817 31.4108 39.8104 31.3683 39.8385 31.327C39.8552 31.3023 39.8776 31.2805 39.8919 31.2547C39.9286 31.1876 39.9539 31.1227 39.9602 31.047L39.9608 31.0372C39.982 31.0137 39.9883 30.9775 40.0004 30.9494C40.0078 30.9316 40.0187 30.9207 40.0222 30.9018C40.0239 30.8914 40.0233 30.8794 40.0239 30.8691C40.0262 30.8421 40.025 30.8174 40.0182 30.791C40.0101 30.76 39.9809 30.7313 39.959 30.7084C39.9183 30.6659 39.8666 30.6596 39.811 30.655C39.7427 30.6498 39.675 30.6447 39.6067 30.6389C39.5407 30.6338 39.4873 30.6229 39.4253 30.5999C39.3565 30.5747 39.3094 30.5253 39.2532 30.4806C39.2216 30.4553 39.1941 30.4358 39.1688 30.4042C39.1505 30.3813 39.1332 30.3555 39.1172 30.3308C39.0994 30.3038 39.1005 30.2797 39.0965 30.2493C39.0908 30.2057 39.0873 30.1689 39.0908 30.1242C39.0936 30.0909 39.0919 30.0536 39.0982 30.0209C39.1034 29.9951 39.116 29.971 39.1223 29.9451C39.1315 29.909 39.1361 29.886 39.1568 29.8527C39.1711 29.8292 39.1855 29.8074 39.2015 29.785C39.2836 29.6714 39.4053 29.6921 39.5298 29.7012C39.5866 29.7053 39.644 29.7121 39.6905 29.7483C39.7358 29.7833 39.7766 29.8252 39.8087 29.8723C39.8276 29.9004 39.8425 29.9308 39.8644 29.9572C39.8844 29.9819 39.9034 30.0048 39.9212 30.0312C39.9522 30.0788 39.9843 30.1219 40.0262 30.1598C40.0687 30.1976 40.1071 30.2424 40.1639 30.259C40.1966 30.2688 40.2552 30.2751 40.289 30.2711C40.3315 30.2665 40.3734 30.2418 40.4135 30.2275C40.4531 30.2137 40.4893 30.1971 40.5277 30.1793C40.5564 30.1655 40.5851 30.1506 40.6121 30.1334C40.6385 30.1167 40.6431 30.1093 40.646 30.0806C40.6494 30.0456 40.6339 30.0146 40.6236 29.9813C40.5926 29.8809 40.5306 29.7948 40.4549 29.7231C40.3762 29.6484 40.2678 29.6106 40.1645 29.5825C40.0744 29.5584 39.9797 29.5561 39.8862 29.5486C39.8437 29.5452 39.8001 29.5452 39.7576 29.5394C39.7289 29.5354 39.7037 29.5251 39.6744 29.5222C39.6555 29.5205 39.6371 29.5193 39.6182 29.5182C39.5711 29.5147 39.5355 29.5067 39.4925 29.486C39.4529 29.4671 39.4162 29.439 39.384 29.4103C39.3163 29.35 39.2543 29.2731 39.1981 29.2014C39.1843 29.1836 39.1774 29.1624 39.1671 29.1423C39.1585 29.1262 39.1482 29.1102 39.1407 29.0935C39.1229 29.0528 39.1172 29.008 39.1212 28.9644C39.1252 28.9168 39.1172 28.8691 39.1562 28.837C39.1895 28.8089 39.2337 28.7888 39.2779 28.7911C39.3467 28.7945 39.4156 28.802 39.4845 28.8072L39.5625 28.833C39.609 28.8462 39.6268 28.8749 39.6566 28.9105C39.6847 28.9443 39.7094 28.9799 39.737 29.0143C39.7898 29.082 39.8368 29.1658 39.9137 29.2112C39.9625 29.2399 40.0428 29.2513 40.0996 29.2427C40.1645 29.233 40.219 29.1997 40.2781 29.1733C40.3154 29.1566 40.3401 29.1377 40.3636 29.1027C40.378 29.0809 40.3912 29.0562 40.3998 29.0321C40.4113 29.0011 40.4262 28.9724 40.4382 28.9414C40.4583 28.8881 40.4761 28.8341 40.495 28.7802C40.514 28.7251 40.5421 28.6729 40.5616 28.6184C40.5742 28.5833 40.592 28.5472 40.6155 28.5179C40.6425 28.4841 40.6764 28.4554 40.7028 28.4204C40.7223 28.3945 40.7441 28.3779 40.7768 28.3699C40.8428 28.3538 40.9226 28.3836 40.9909 28.3825C41.0247 28.3819 41.0597 28.3739 41.093 28.3693C41.136 28.3636 41.1515 28.3274 41.1871 28.3073C41.1865 28.2901 41.1986 28.2557 41.2043 28.2385C41.2106 28.2207 41.221 28.1983 41.229 28.1805C41.2353 28.1667 41.2462 28.1547 41.2531 28.1397C41.2583 28.1283 41.2606 28.1162 41.2657 28.1047C41.2766 28.0795 41.2927 28.0583 41.3065 28.0353C41.3335 27.9911 41.3616 27.9395 41.3799 27.8913C41.4052 27.8253 41.3937 27.7616 41.3874 27.6933C41.3845 27.6606 41.3736 27.6497 41.3604 27.6198C41.3512 27.5997 41.3467 27.5779 41.338 27.5573C41.3203 27.5131 41.3007 27.4712 41.2956 27.4236C41.2893 27.3673 41.2789 27.3162 41.2881 27.2589C41.2944 27.2198 41.3145 27.1791 41.3415 27.1504C41.3765 27.1131 41.419 27.1022 41.4683 27.1068C41.5291 27.112 41.5894 27.116 41.6502 27.1211C41.7013 27.1251 41.7403 27.1206 41.7771 27.1607C41.8109 27.1975 41.8339 27.2474 41.8442 27.2962C41.8568 27.3547 41.8815 27.4092 41.9045 27.4643C41.9257 27.5165 41.9441 27.571 41.9785 27.6175C42.0049 27.6537 42.0778 27.6497 42.1185 27.6411C42.1438 27.6359 42.1667 27.6273 42.192 27.625C42.2149 27.6227 42.2339 27.6233 42.2534 27.6095C42.2993 27.5768 42.3108 27.52 42.3142 27.4683C42.3182 27.415 42.3222 27.3662 42.3176 27.3128C42.3131 27.2652 42.3021 27.2216 42.3067 27.1728C42.309 27.1504 42.3182 27.132 42.3222 27.1108C42.3262 27.0896 42.3251 27.0655 42.3268 27.0437L42.3366 27.0442C42.3544 27.0293 42.3664 27.0173 42.3894 27.0104C42.406 27.0052 42.4198 27.0035 42.4353 26.996C42.4709 26.9782 42.5076 26.9633 42.5437 26.9455C42.561 26.9375 42.5719 26.9249 42.5868 26.9134C42.6034 26.9008 42.6229 26.8927 42.6407 26.8818C42.666 26.8663 42.6866 26.8457 42.7096 26.8267C42.7262 26.813 42.7406 26.8124 42.7589 26.8044C42.7796 26.7952 42.7905 26.7751 42.81 26.7648C42.8267 26.7556 42.845 26.7493 42.8617 26.7389C42.8921 26.7206 42.9179 26.6982 42.95 26.6815C42.9914 26.6603 43.0264 26.6385 43.0642 26.6115C43.0826 26.5983 43.1021 26.5892 43.1199 26.5742C43.1371 26.5599 43.1515 26.5404 43.1687 26.5266C43.198 26.5031 43.2295 26.4991 43.2341 26.4577C43.2376 26.425 43.2353 26.3969 43.2312 26.3642C43.2238 26.308 43.2089 26.2529 43.214 26.1955C43.2163 26.172 43.2089 26.1536 43.2089 26.1306C43.2089 26.1002 43.214 26.0687 43.2163 26.0382C43.2215 25.974 43.2261 25.9097 43.2312 25.846C43.2456 25.6618 43.2599 25.4781 43.2743 25.2939L43.2886 25.1746C43.3099 25.1528 43.3208 25.116 43.3391 25.0902C43.3592 25.0627 43.3753 25.0368 43.3931 25.0064C43.42 24.9611 43.4464 24.9135 43.478 24.8716C43.4975 24.8457 43.5038 24.8377 43.5084 24.8084C43.5165 24.7585 43.4975 24.7212 43.4774 24.677C43.4539 24.626 43.4332 24.572 43.4086 24.5209C43.3879 24.4779 43.3638 24.4343 43.3334 24.3981C43.299 24.3568 43.2726 24.3115 43.2376 24.2707C43.136 24.1531 43.0551 24.0251 42.9908 23.8834C42.965 23.826 42.9506 23.7634 42.9277 23.7049C42.9139 23.6705 42.9024 23.6378 42.8984 23.5999C42.8938 23.558 42.8984 23.5052 42.9093 23.4644C42.9208 23.422 42.9368 23.4025 42.9644 23.3709C43.0057 23.3233 43.0407 23.271 43.0889 23.2286C43.1256 23.1964 43.1698 23.1448 43.2117 23.1224C43.2731 23.0897 43.3919 23.1385 43.439 23.185C43.5147 23.2601 43.5027 23.3485 43.4952 23.4444C43.4895 23.5213 43.4837 23.5982 43.4774 23.6745C43.474 23.7124 43.4688 23.768 43.4837 23.8042C43.5055 23.8552 43.556 23.8398 43.5968 23.834C43.6932 23.8214 43.7822 23.8025 43.8642 23.7491C43.9469 23.6951 44.0375 23.6136 44.0909 23.5316C44.1202 23.4862 44.1408 23.4375 44.1649 23.3898C44.1856 23.3485 44.1821 23.3015 44.1862 23.2556C44.193 23.1787 44.1827 23.1574 44.1242 23.1075C44.0875 23.0759 44.057 23.0639 44.014 23.0438C43.9342 23.0059 43.8527 22.9996 43.7701 22.9738C43.6301 22.9302 43.4614 22.9531 43.3334 22.8665C43.3013 22.8447 43.2421 22.8165 43.237 22.7747C43.2335 22.7454 43.2559 22.6989 43.2639 22.6696C43.2858 22.5916 43.3741 22.5147 43.3678 22.4309L43.3833 22.4177C43.4292 22.3775 43.4573 22.35 43.4814 22.2926C43.5027 22.2421 43.5302 22.2019 43.5371 22.1468C43.5434 22.0958 43.536 22.0481 43.5228 21.9982C43.5073 21.9402 43.4625 21.907 43.4407 21.8519C43.3982 21.7446 43.4889 21.6671 43.5807 21.6275C43.6197 21.6108 43.6565 21.5908 43.6995 21.6063C43.7414 21.6212 43.7804 21.6585 43.7965 21.6992C43.812 21.74 43.7999 21.7853 43.7971 21.8278C43.7936 21.8806 43.7913 21.9047 43.7586 21.9466C43.711 22.0085 43.6427 22.094 43.6375 22.1738C43.6307 22.28 43.6502 22.3718 43.7219 22.455C43.7741 22.5158 43.8522 22.5422 43.9285 22.548C43.9985 22.5531 44.0903 22.5727 44.154 22.5371C44.2229 22.4992 44.2453 22.4068 44.2717 22.3397C44.2981 22.2719 44.3233 22.2037 44.3428 22.1354C44.3612 22.0717 44.3566 21.9976 44.3618 21.9316C44.3692 21.8387 44.3795 21.7595 44.4186 21.6745C44.4369 21.6344 44.4639 21.5982 44.4938 21.5655C44.5265 21.5294 44.5374 21.5219 44.488 21.4915C44.4501 21.468 44.414 21.4565 44.3704 21.4502C44.3388 21.4456 44.2986 21.4404 44.2694 21.4249C44.2344 21.4066 44.2034 21.3681 44.1879 21.3331C44.1707 21.2946 44.1431 21.2625 44.1391 21.2183C44.1339 21.1563 44.1546 21.0513 44.2258 21.0295C44.2831 21.0117 44.3675 21.0393 44.4146 21.0714C44.4455 21.0921 44.484 21.1145 44.5121 21.1368C44.5443 21.1627 44.5442 21.1977 44.5626 21.2304C44.5793 21.2596 44.6057 21.286 44.6212 21.3159C44.6303 21.3337 44.6321 21.3532 44.6401 21.3715C44.6481 21.3911 44.6665 21.4054 44.6653 21.4284C44.7296 21.3979 44.7927 21.367 44.8501 21.3251C44.9023 21.2872 44.9483 21.2614 45.0137 21.2528C45.0734 21.2447 45.1262 21.2464 45.1864 21.2482C45.2088 21.2487 45.2243 21.2418 45.2455 21.239C45.2759 21.235 45.3064 21.2464 45.3379 21.2418C45.4653 21.2241 45.5147 21.1007 45.556 20.9928C45.5807 20.9279 45.5904 20.8929 45.6444 20.843C45.6822 20.808 45.7304 20.7948 45.7809 20.7862C45.8297 20.7782 45.8808 20.7799 45.9296 20.7747C45.9703 20.7707 46.0151 20.7558 46.0564 20.7489C46.1195 20.7386 46.1603 20.7185 46.2033 20.668C46.2354 20.6301 46.2664 20.5796 46.2785 20.5308C46.2854 20.5027 46.2831 20.4729 46.2859 20.4442C46.2882 20.4218 46.2945 20.4126 46.3014 20.3931C46.3089 20.3719 46.306 20.3512 46.3089 20.3294C46.3129 20.3024 46.3238 20.2772 46.3341 20.2519C46.3479 20.2163 46.3594 20.1963 46.3875 20.1699C46.4093 20.1498 46.4397 20.1435 46.4592 20.1234C46.4742 20.1085 46.4845 20.0809 46.4971 20.0631C46.5115 20.043 46.527 20.0224 46.5407 20.0017C46.5752 19.9489 46.5953 19.8944 46.5981 19.8324C46.601 19.775 46.5729 19.7349 46.539 19.693C46.5143 19.662 46.5023 19.6442 46.4702 19.6241C46.4501 19.6115 46.4311 19.5948 46.4128 19.5805C46.3766 19.5518 46.3221 19.491 46.271 19.495L46.1591 19.4273Z" fill="white"/>
</svg>
