<svg width="99" height="45" viewBox="0 0 99 45" fill="none" xmlns="http://www.w3.org/2000/svg">
<path d="M0 28.9655C3.10345 28.4483 2.06896 27.931 3.62069 25.8621L7.24138 22.2414C7.75862 22.2414 8.27586 23.7931 8.7931 23.2759C9.31034 23.2759 10.8621 20.6897 10.3448 20.6897C10.8621 20.6897 14.4828 19.1379 14.4828 18.6207C15 18.6207 15.5172 19.6552 16.0345 19.6552C17.069 19.6552 17.069 19.1379 17.5862 18.6207C17.5862 18.6207 20.6897 18.6207 20.1724 17.5862C21.7241 21.2069 20.1724 18.6207 22.2414 18.6207C22.7586 18.6207 22.7586 19.1379 23.7931 19.1379C24.3103 19.1379 24.8276 18.6207 25.3448 18.1034C26.8965 17.5862 26.8965 18.1035 27.931 18.6207C29.4828 19.6552 31.0345 19.1379 33.1034 18.1034C34.1379 17.5862 34.6552 17.069 36.2069 16.0345C37.7586 15 36.7241 15 38.7931 16.0345C39.3103 16.0345 39.3103 18.1035 40.3448 16.5517C40.8621 16.0345 39.8276 15 39.8276 15C39.8276 13.9655 40.8621 9.31035 42.931 9.82759C42.931 7.75863 44.4828 7.75863 45 8.27587C45.5172 8.79311 46.5517 6.2069 46.5517 6.2069C47.069 5.68966 48.6207 4.13794 49.6552 4.65518C49.6552 4.65518 50.1724 5.17241 50.6897 5.17241C51.2069 2.58621 50.1724 3.10346 52.7586 2.06897C53.2759 2.06897 56.8966 0 56.8966 0C58.4483 1.55172 54.3103 3.62071 56.8966 4.13795C57.4138 4.13795 60 2.06897 60.5172 2.06897L61.0345 4.13795C62.069 4.65519 63.1034 2.58622 63.6207 3.10346C63.6207 3.10346 63.6207 6.2069 63.1035 6.2069C65.1724 6.72414 65.1724 3.6207 65.6897 3.10346C65.6897 3.10346 66.7241 5.17241 67.7586 2.58621C67.7586 3.62069 69.8276 3.10345 69.8276 2.58621C69.3103 2.58621 72.4138 4.13795 72.4138 4.13795C72.4138 5.17243 68.2759 6.2069 72.931 6.2069C74.4828 6.2069 75.5172 4.65519 76.5517 4.13795C76.5517 4.13795 78.6207 6.72415 79.1379 6.72415C79.6552 6.20691 80.1724 6.2069 80.1724 5.17241L82.2414 5.68967L84.3103 6.2069C84.3103 7.24138 84.3103 8.79311 85.8621 7.24139C86.3793 6.72415 85.8621 5.68966 86.3793 4.65518C86.8966 3.6207 88.4483 3.6207 88.9655 2.06897C88.4483 3.6207 94.6552 1.55174 94.1379 1.55174C94.1379 2.58622 93.1034 2.58621 93.1034 3.62069C93.1034 5.68966 94.6552 6.20691 93.1034 8.27587C92.069 9.8276 91.0345 10.8621 88.9655 10.8621C87.4138 11.3793 86.8966 11.3793 84.8276 12.4138C84.3103 12.931 81.7241 14.4828 81.2069 14.4828C78.1035 13.9655 80.6897 12.931 80.1724 11.8966C78.1034 6.20691 72.931 12.4138 70.8621 13.4483C70.3448 13.9655 69.8276 12.931 69.3103 13.4483C68.2759 13.9655 69.3103 15 68.2759 15.5172C67.2414 16.0345 65.6897 16.5517 64.6552 16.5517C64.1379 16.5517 60 17.069 60.5172 17.069C59.4828 16.0345 61.0345 11.3793 60 10.3448C59.4828 9.82759 55.8621 9.31036 54.8276 9.31036C53.7931 9.31036 53.2759 10.3448 52.2414 10.8621C51.2069 10.8621 46.0345 9.82759 47.5862 11.3793C48.1034 11.8966 54.3103 12.931 54.3103 12.4138C54.3103 12.931 53.7931 13.4483 54.3103 13.9655C56.3793 16.0345 55.3448 13.9655 54.8276 16.5517C54.8276 16.5517 53.7931 17.069 53.7931 17.5862C53.7931 18.1035 55.3448 17.5862 55.3448 18.6207C55.3448 19.6552 54.3103 19.6552 54.3103 20.1724C53.2759 21.2069 51.7241 21.7241 50.6897 22.7586C50.1724 23.2759 49.1379 23.7931 48.6207 24.8276C48.1034 25.8621 48.1034 26.8966 47.5862 27.4138C47.069 28.4483 47.069 27.4138 46.0345 27.931C46.5517 27.931 47.5862 26.3793 47.069 25.3448C46.0345 23.7931 45 25.3448 43.9655 25.3448C43.9655 25.3448 44.4828 26.3793 43.9655 26.3793C43.4483 26.8966 42.931 25.3448 42.931 25.3448C41.8966 25.8621 43.4483 26.3793 43.4483 26.3793C43.4483 26.3793 42.4138 26.3793 41.8966 26.3793C42.4138 26.8966 42.931 28.9655 43.9655 29.4828C46.0345 30.5172 48.1034 27.931 46.5517 30.5172C46.0345 31.5517 43.4483 32.5862 42.931 33.1035C40.3448 34.6552 41.3793 34.6552 40.3448 36.2069C39.8276 36.7241 39.3103 36.7241 38.7931 37.2414C38.2759 37.7586 38.2759 38.2759 37.7586 38.7931C37.2414 39.3103 36.7241 39.3103 36.2069 39.8276C35.1724 40.8621 35.6897 42.4138 34.1379 42.4138C33.6207 42.4138 31.5517 39.8276 31.0345 40.3448C31.0345 40.8621 30.5172 41.3793 30.5172 41.8966C30.5172 42.4138 30.5172 42.931 30.5172 42.931C30.5172 42.931 28.4483 45 28.9655 45C27.931 45 27.931 43.4483 27.4138 42.931C27.4138 43.4483 28.4483 42.4138 27.931 41.8966C26.8965 40.3448 25.8621 42.4138 24.8276 42.4138C24.3103 42.4138 22.7586 40.8621 22.2414 40.8621C20.1724 39.8276 20.1724 40.8621 19.1379 38.2759C18.6207 37.2414 19.1379 35.1724 18.6207 34.6552C18.1035 33.6207 18.1034 33.6207 17.5862 33.1035C17.069 32.5862 16.5517 31.5517 15.5172 31.0345C15 31.0345 13.4483 32.069 12.4138 31.5517C11.3793 31.0345 11.8966 29.4828 10.3448 29.4828C9.31034 29.4828 8.7931 31.5517 8.27586 31.5517C7.75862 31.5517 6.2069 31.0345 5.17241 30.5172C4.13793 30.5172 3.62069 31.0345 3.62069 31.0345C5.17241 30 0.517241 31.0345 0 28.9655Z" fill="white"/>
<path d="M96.2074 13.4484C98.2764 12.9311 100.345 17.0691 96.2074 17.0691C92.0695 16.5518 94.1384 12.4139 96.2074 13.4484Z" fill="white"/>
</svg>
