<svg width="100" height="45" viewBox="0 0 100 45" fill="none" xmlns="http://www.w3.org/2000/svg">
<path d="M0.764404 28.9655C3.86785 28.4483 2.83337 27.931 4.38509 25.8621L8.00578 22.2414C8.52303 22.2414 9.04027 23.7931 9.55751 23.2759C10.0747 23.2759 11.6265 20.6897 11.1092 20.6897C11.6265 20.6897 15.2472 19.1379 15.2472 18.6207C15.7644 18.6207 16.2816 19.6552 16.7989 19.6552C17.8334 19.6552 17.8334 19.1379 18.3506 18.6207C18.3506 18.6207 21.4541 18.6207 20.9368 17.5862C22.4885 21.2069 20.9368 18.6207 23.0058 18.6207C23.523 18.6207 23.523 19.1379 24.5575 19.1379C25.0748 19.1379 25.592 18.6207 26.1092 18.1034C27.661 17.5862 27.661 18.1035 28.6954 18.6207C30.2472 19.6552 31.7989 19.1379 33.8679 18.1034C34.9023 17.5862 35.4196 17.069 36.9713 16.0345C38.523 15 37.4885 15 39.5575 16.0345C40.0747 16.0345 40.0747 18.1035 41.1092 16.5517C41.6265 16.0345 40.592 15 40.592 15C40.592 13.9655 41.6265 9.31035 43.6954 9.82759C43.6954 7.75863 45.2472 7.75863 45.7644 8.27587C46.2816 8.79311 47.3161 6.2069 47.3161 6.2069C47.8334 5.68966 49.3851 4.13794 50.4196 4.65518C50.4196 4.65518 50.9368 5.17241 51.4541 5.17241C51.9713 2.58621 50.9368 3.10346 53.523 2.06897C54.0403 2.06897 57.661 0 57.661 0C59.2127 1.55172 55.0747 3.62071 57.661 4.13795C58.1782 4.13795 60.7644 2.06897 61.2817 2.06897L61.7989 4.13795C62.8334 4.65519 63.8678 2.58622 64.3851 3.10346C64.3851 3.10346 64.3851 6.2069 63.8679 6.2069C65.9368 6.72414 65.9368 3.6207 66.4541 3.10346C66.4541 3.10346 67.4885 5.17241 68.523 2.58621C68.523 3.62069 70.592 3.10345 70.592 2.58621C70.0748 2.58621 73.1782 4.13795 73.1782 4.13795C73.1782 5.17243 69.0403 6.2069 73.6954 6.2069C75.2472 6.2069 76.2816 4.65519 77.3161 4.13795C77.3161 4.13795 79.3851 6.72415 79.9023 6.72415C80.4196 6.20691 80.9368 6.2069 80.9368 5.17241L83.0058 5.68967L85.0747 6.2069C85.0747 7.24138 85.0748 8.79311 86.6265 7.24139C87.1437 6.72415 86.6265 5.68966 87.1437 4.65518C87.661 3.6207 89.2127 3.6207 89.7299 2.06897C89.2127 3.6207 95.4196 1.55174 94.9023 1.55174C94.9023 2.58622 93.8679 2.58621 93.8679 3.62069C93.8679 5.68966 95.4196 6.20691 93.8679 8.27587C92.8334 9.8276 91.7989 10.8621 89.7299 10.8621C88.1782 11.3793 87.661 11.3793 85.592 12.4138C85.0747 12.931 82.4885 14.4828 81.9713 14.4828C78.8679 13.9655 81.4541 12.931 80.9368 11.8966C78.8679 6.20691 73.6954 12.4138 71.6265 13.4483C71.1092 13.9655 70.592 12.931 70.0747 13.4483C69.0403 13.9655 70.0748 15 69.0403 15.5172C68.0058 16.0345 66.4541 16.5517 65.4196 16.5517C64.9023 16.5517 60.7644 17.069 61.2817 17.069C60.2472 16.0345 61.7989 11.3793 60.7644 10.3448C60.2472 9.82759 56.6265 9.31036 55.592 9.31036C54.5575 9.31036 54.0403 10.3448 53.0058 10.8621C51.9713 10.8621 46.7989 9.82759 48.3506 11.3793C48.8679 11.8966 55.0747 12.931 55.0747 12.4138C55.0747 12.931 54.5575 13.4483 55.0747 13.9655C57.1437 16.0345 56.1092 13.9655 55.592 16.5517C55.592 16.5517 54.5575 17.069 54.5575 17.5862C54.5575 18.1035 56.1092 17.5862 56.1092 18.6207C56.1092 19.6552 55.0747 19.6552 55.0747 20.1724C54.0403 21.2069 52.4885 21.7241 51.4541 22.7586C50.9368 23.2759 49.9023 23.7931 49.3851 24.8276C48.8679 25.8621 48.8679 26.8966 48.3506 27.4138C47.8334 28.4483 47.8334 27.4138 46.7989 27.931C47.3161 27.931 48.3506 26.3793 47.8334 25.3448C46.7989 23.7931 45.7644 25.3448 44.7299 25.3448C44.7299 25.3448 45.2472 26.3793 44.7299 26.3793C44.2127 26.8966 43.6954 25.3448 43.6954 25.3448C42.661 25.8621 44.2127 26.3793 44.2127 26.3793C44.2127 26.3793 43.1782 26.3793 42.661 26.3793C43.1782 26.8966 43.6954 28.9655 44.7299 29.4828C46.7989 30.5172 48.8679 27.931 47.3161 30.5172C46.7989 31.5517 44.2127 32.5862 43.6954 33.1035C41.1092 34.6552 42.1437 34.6552 41.1092 36.2069C40.592 36.7241 40.0747 36.7241 39.5575 37.2414C39.0403 37.7586 39.0403 38.2759 38.523 38.7931C38.0058 39.3103 37.4885 39.3103 36.9713 39.8276C35.9368 40.8621 36.4541 42.4138 34.9023 42.4138C34.3851 42.4138 32.3161 39.8276 31.7989 40.3448C31.7989 40.8621 31.2816 41.3793 31.2816 41.8966C31.2816 42.4138 31.2816 42.931 31.2816 42.931C31.2816 42.931 29.2127 45 29.7299 45C28.6954 45 28.6954 43.4483 28.1782 42.931C28.1782 43.4483 29.2127 42.4138 28.6954 41.8966C27.661 40.3448 26.6265 42.4138 25.592 42.4138C25.0748 42.4138 23.523 40.8621 23.0058 40.8621C20.9368 39.8276 20.9368 40.8621 19.9023 38.2759C19.3851 37.2414 19.9023 35.1724 19.3851 34.6552C18.8679 33.6207 18.8679 33.6207 18.3506 33.1035C17.8334 32.5862 17.3161 31.5517 16.2816 31.0345C15.7644 31.0345 14.2127 32.069 13.1782 31.5517C12.1437 31.0345 12.661 29.4828 11.1092 29.4828C10.0747 29.4828 9.55751 31.5517 9.04027 31.5517C8.52302 31.5517 6.9713 31.0345 5.93682 30.5172C4.90234 30.5172 4.38509 31.0345 4.38509 31.0345C5.93682 30 1.28165 31.0345 0.764404 28.9655Z" fill="white"/>
<path d="M96.9717 13.4484C99.0406 12.9311 101.11 17.0691 96.9717 17.0691C92.8337 16.5518 94.9027 12.4139 96.9717 13.4484Z" fill="white"/>
</svg>
