<svg width="40" height="45" viewBox="0 0 40 45" fill="none" xmlns="http://www.w3.org/2000/svg">
<path d="M0.860404 35.26L25.4369 45L39.2119 44.7835L37.9859 0.0685C21.6149 0.492 6.8569 0.038 6.8569 0L6.6214 6.4465C6.5879 6.4845 6.5669 6.53 6.5289 6.5645C6.4979 6.5925 6.4614 6.6085 6.4329 6.6395C6.3804 6.6955 6.3459 6.766 6.2934 6.822C6.2359 6.8835 6.2194 6.954 6.1944 7.0325C6.1694 7.1125 6.1049 7.178 6.0874 7.26C6.0779 7.3055 6.0844 7.3415 6.0654 7.3845C6.0544 7.41 6.0404 7.4335 6.0299 7.4595C5.9974 7.541 5.9724 7.648 5.9204 7.7185C5.8254 7.8475 5.6414 7.8095 5.4979 7.806C5.3389 7.802 5.2029 7.6835 5.1524 7.5415C5.1269 7.4705 5.0674 7.3905 4.9874 7.382C4.9629 7.3795 4.9354 7.392 4.9114 7.3805C4.8564 7.354 4.8649 7.298 4.8644 7.247C4.8639 7.1905 4.8799 7.1135 4.8609 7.061C4.8344 6.9875 4.7679 6.9365 4.7064 6.8975C4.6699 6.8745 4.6589 6.8675 4.6304 6.828C4.6074 6.796 4.5889 6.742 4.5589 6.7195C4.4819 6.661 4.4289 6.767 4.3499 6.7515L4.3734 6.775C4.3029 6.773 4.2444 6.7995 4.1744 6.7985C4.1189 6.798 4.0639 6.7985 4.0084 6.7985C3.9409 6.7985 3.8734 6.7975 3.8059 6.7985C3.7164 6.7995 3.7134 6.783 3.6484 6.7275C3.5514 6.6455 3.3999 6.6245 3.2959 6.704C3.2444 6.7435 3.2039 6.778 3.1369 6.7935C3.1024 6.8015 3.0799 6.804 3.0499 6.7855C3.0184 6.766 3.0079 6.7195 2.9674 6.7165C2.9184 6.7855 2.8679 6.826 2.7924 6.869C2.7299 6.9045 2.6494 6.935 2.5814 6.9595C2.5044 6.987 2.4359 6.995 2.3579 7.0075C2.2804 7.0205 2.2109 7.091 2.2454 7.173C2.2614 7.2115 2.2839 7.2255 2.2939 7.27C2.3059 7.3245 2.3119 7.3695 2.3114 7.425C2.3109 7.5055 2.3154 7.566 2.2824 7.6395C2.2119 7.7955 2.1554 7.983 2.2054 8.155C2.2154 8.1885 2.2299 8.2245 2.2459 8.2555C2.2734 8.3085 2.2914 8.3085 2.3349 8.3415C2.4114 8.3995 2.4314 8.503 2.4749 8.583C2.4989 8.6265 2.5214 8.6585 2.5549 8.695C2.5984 8.7425 2.6054 8.7765 2.6309 8.8335C2.6499 8.8755 2.6794 8.8925 2.6364 8.9245C2.6039 8.949 2.5354 8.9565 2.4979 8.9745C2.3924 9.025 2.4949 9.103 2.4779 9.1825C2.4679 9.2295 2.4309 9.2355 2.4039 9.274C2.3709 9.321 2.3859 9.3475 2.3999 9.399C2.4174 9.463 2.4444 9.5325 2.4534 9.5965C2.4639 9.671 2.4524 9.7565 2.4524 9.832C2.4524 9.9245 2.4499 10.0035 2.4309 10.0925C2.4239 10.125 2.4189 10.186 2.4274 10.2185C2.4399 10.2685 2.4859 10.2955 2.5179 10.335C2.6054 10.4435 2.5384 10.518 2.5444 10.639C2.5504 10.763 2.7044 10.8055 2.7099 10.9215L2.6864 11.015C2.6429 11.0645 2.5574 11.146 2.5589 11.214C2.5599 11.244 2.5809 11.273 2.5874 11.301C2.5959 11.3405 2.6009 11.375 2.6109 11.413C2.6224 11.458 2.6294 11.5515 2.6134 11.5945C2.5984 11.6345 2.5554 11.653 2.5324 11.6875C2.5069 11.7255 2.5009 11.768 2.4984 11.8115C2.4904 11.963 2.5874 12.098 2.6339 12.2385C2.6564 12.306 2.6739 12.3785 2.7029 12.443C2.7369 12.518 2.7899 12.5875 2.8164 12.666C2.8624 12.8045 2.9139 12.954 2.9394 13.099C2.9529 13.176 2.9694 13.254 2.9679 13.332C2.9664 13.4145 2.9894 13.4865 2.9904 13.5675C2.9914 13.643 3.0214 13.722 3.0329 13.797C3.0444 13.876 3.0279 13.957 3.0434 14.0355C3.0729 14.188 3.0614 14.349 3.0614 14.505C3.0599 14.579 3.0654 14.6725 3.0039 14.7265C2.9509 14.773 2.8574 14.7815 2.7929 14.7975C2.7049 14.819 2.6389 14.8435 2.6204 14.9455C2.6124 14.991 2.6144 14.985 2.6524 15.008C2.6994 15.0365 2.7339 15.0585 2.7694 15.1035C2.8234 15.171 2.8304 15.217 2.8274 15.303C2.8259 15.349 2.8219 15.3525 2.7814 15.372C2.7294 15.397 2.7024 15.415 2.6799 15.4705C2.6454 15.5555 2.6634 15.6635 2.6634 15.754C2.6634 15.8535 2.6634 15.953 2.6634 16.053C2.6634 16.132 2.6729 16.2175 2.6644 16.2955C2.6604 16.333 2.6429 16.365 2.6389 16.403C2.6344 16.4475 2.6399 16.498 2.6399 16.5425C2.6399 16.6165 2.6264 16.707 2.6389 16.7795C2.6504 16.847 2.7559 16.9025 2.8039 16.958C2.8569 17.0195 2.9039 17.087 2.9439 17.157C2.9949 17.2465 3.0199 17.334 3.0559 17.4295C3.1159 17.5885 3.2109 17.713 3.3674 17.779C3.4574 17.817 3.5509 17.8825 3.6014 17.9665C3.6484 18.0445 3.6539 18.133 3.6729 18.2185C3.6894 18.2925 3.7139 18.3655 3.7349 18.4395C3.7469 18.481 3.7494 18.518 3.7694 18.557C3.7914 18.6 3.8284 18.6485 3.8344 18.698L3.8579 18.7215C3.8589 18.767 3.8954 18.8035 3.9114 18.8445C3.9329 18.898 3.9249 18.9195 3.9044 18.9695C3.8874 19.0115 3.8699 19.0445 3.8934 19.085C3.9134 19.1195 3.9579 19.1505 3.9864 19.1785C4.1224 19.3125 4.0889 19.469 4.0914 19.646C4.0924 19.726 4.1264 19.807 4.1614 19.879C4.2019 19.962 4.2609 20.056 4.3259 20.123C4.3584 20.156 4.4029 20.1655 4.4379 20.1955C4.4814 20.233 4.5094 20.2785 4.5549 20.315C4.6174 20.365 4.7054 20.506 4.7944 20.502L4.8649 20.549C4.8994 20.5865 4.9614 20.609 5.0049 20.637C5.0329 20.655 5.0654 20.6615 5.0889 20.688C5.1094 20.711 5.1154 20.745 5.1339 20.7695C5.1639 20.809 5.1949 20.858 5.2389 20.878C5.2909 20.9015 5.3454 20.906 5.3949 20.9375C5.4964 21.001 5.5449 21.128 5.5729 21.235C5.5904 21.301 5.6159 21.3435 5.6154 21.416C5.6144 21.4785 5.6134 21.541 5.6149 21.6035C5.6169 21.694 5.5999 21.6825 5.5199 21.6975C5.4599 21.709 5.4379 21.733 5.4029 21.792C5.3434 21.8915 5.2584 22.0165 5.1714 22.0965C5.0904 22.171 4.9979 22.2395 4.9124 22.308C4.8219 22.3805 4.7014 22.3375 4.6019 22.3995C4.5489 22.4325 4.5344 22.4745 4.4924 22.518C4.4509 22.5605 4.4029 22.5905 4.3504 22.618C4.2999 22.6445 4.2729 22.6555 4.2154 22.6585C4.1264 22.6635 4.1189 22.739 4.0404 22.772C3.9939 22.7915 3.9304 22.789 3.8814 22.8045C3.8229 22.8225 3.7864 22.86 3.7369 22.8925C3.6739 22.934 3.6014 22.963 3.5984 23.0505C3.5959 23.1135 3.6404 23.202 3.6539 23.2665C3.6699 23.343 3.7164 23.4995 3.6024 23.5025C3.5259 23.5045 3.4924 23.501 3.4534 23.5725C3.4169 23.639 3.4149 23.6995 3.3674 23.7595C3.2949 23.851 3.1839 23.8875 3.1029 23.9755C3.0594 24.023 3.0269 24.059 3.0604 24.1165C3.0999 24.185 3.1574 24.215 3.1804 24.2925C3.2119 24.399 3.2549 24.5355 3.2284 24.649C3.2134 24.7145 3.1404 24.7515 3.0914 24.7895C3.0239 24.8425 3.0159 24.8625 3.0159 24.9465C3.0164 25.023 3.0244 25.09 3.0449 25.164C3.0649 25.2355 3.0904 25.2825 3.1334 25.345C3.2069 25.453 3.1799 25.5995 3.1799 25.7265L3.2034 25.82C3.2034 25.8865 3.2179 25.9705 3.1869 26.0315C3.1479 26.1075 3.0584 26.0865 2.9929 26.1295C2.9099 26.184 2.8934 26.2285 2.9169 26.3175C2.9364 26.391 2.9724 26.4695 2.9699 26.546C2.9674 26.6215 2.9274 26.687 2.9049 26.7575C2.8859 26.8185 2.8454 26.909 2.8569 26.968C2.8704 27.0385 2.9134 27.0895 2.8999 27.168C2.8929 27.21 2.8784 27.232 2.8409 27.2585C2.7854 27.298 2.7639 27.297 2.7394 27.3675C2.7094 27.455 2.6694 27.4945 2.5854 27.54C2.5529 27.5575 2.4994 27.5625 2.4749 27.59C2.4534 27.614 2.4434 27.691 2.4359 27.7235C2.4149 27.8135 2.3789 27.8975 2.3479 27.985C2.3239 28.054 2.2764 28.192 2.1969 28.211C2.1204 28.2295 2.0284 28.198 1.9499 28.2115C1.8769 28.224 1.7169 28.2555 1.7059 28.351C1.6984 28.4185 1.8029 28.4815 1.8194 28.549C1.8404 28.637 1.7874 28.722 1.7569 28.8005C1.7154 28.906 1.6454 28.982 1.5854 29.0775C1.5654 29.1095 1.5559 29.135 1.5614 29.175C1.5709 29.2425 1.6119 29.2545 1.6719 29.275C1.7429 29.2995 1.8694 29.3645 1.9039 29.438C1.9254 29.484 1.8644 29.5185 1.8599 29.5685C1.8549 29.6225 1.9039 29.6445 1.8914 29.7085H1.9149C1.9149 29.8955 1.9264 30.07 1.8689 30.2495C1.8419 30.3335 1.8054 30.459 1.7524 30.5285C1.7199 30.571 1.6864 30.6015 1.6629 30.652C1.6484 30.683 1.5984 30.748 1.6124 30.782C1.6904 30.795 1.7124 30.8225 1.7519 30.891C1.7849 30.9485 1.7994 31.016 1.8189 31.0785C1.8414 31.1495 1.8464 31.2115 1.9404 31.1795C2.0089 31.156 2.0334 31.11 2.0944 31.1715C2.1244 31.202 2.1464 31.247 2.1789 31.2745C2.2084 31.2995 2.2339 31.297 2.2679 31.307C2.3029 31.3175 2.3194 31.3335 2.3609 31.324C2.4039 31.314 2.4219 31.279 2.4599 31.259C2.5504 31.2105 2.7544 31.206 2.8394 31.2695C2.9029 31.317 2.9264 31.4145 2.9469 31.487C2.9574 31.5235 2.9689 31.5635 2.9714 31.6015C2.9734 31.629 2.9629 31.661 2.9714 31.6875C2.9954 31.7615 3.0834 31.748 3.1354 31.791C3.1864 31.833 3.1974 31.917 3.1774 31.979C3.1544 32.05 3.1174 32.0765 3.1454 32.1555C3.1719 32.23 3.2039 32.285 3.2049 32.367C3.2064 32.497 3.2344 32.658 3.1559 32.7685C3.0984 32.8495 3.0109 32.8505 2.9224 32.8755C2.8369 32.8995 2.7754 32.979 2.7619 33.068C2.7484 33.158 2.7364 33.247 2.7364 33.3385C2.7364 33.4095 2.7624 33.53 2.6894 33.573V33.62C2.6099 33.7125 2.5314 33.7135 2.4199 33.7135C2.3864 33.7135 2.3489 33.719 2.3159 33.7145C2.2644 33.708 2.2244 33.6745 2.1754 33.6655C2.1339 33.658 2.0879 33.6715 2.0459 33.6675C1.9984 33.663 1.9604 33.644 1.9174 33.6255C1.8244 33.5865 1.6679 33.5745 1.5679 33.5985C1.5559 33.686 1.4989 33.7485 1.4649 33.83C1.4484 33.87 1.4499 33.912 1.4259 33.9485C1.3979 33.991 1.3734 34.0365 1.3434 34.0795C1.2814 34.168 1.2204 34.2495 1.1564 34.334C1.1269 34.373 1.0939 34.422 1.0449 34.4355C0.986904 34.4515 0.953904 34.4325 0.899904 34.4735C0.803404 34.547 0.851404 34.611 0.904404 34.6965C0.927404 34.734 0.949904 34.788 0.920904 34.825C0.894904 34.8575 0.841404 34.8685 0.814404 34.9075C0.760404 34.987 0.809404 35.0525 0.836904 35.1295C0.843904 35.1625 0.866404 35.224 0.860404 35.26C0.852404 35.3075 0.796404 35.344 0.764404 35.3765L0.860404 35.26Z" fill="white"/>
</svg>
