<svg width="40" height="45" viewBox="0 0 40 45" fill="none" xmlns="http://www.w3.org/2000/svg">
<path d="M15.3921 38.2174C15.3736 38.1899 15.3651 38.1604 15.3266 38.1589C15.3016 38.1579 15.2766 38.1594 15.2521 38.1594C15.2096 38.1594 15.2041 38.1499 15.2051 38.1084C15.2056 38.0824 15.2181 38.0284 15.1771 38.0464C15.1601 38.0539 15.1506 38.0759 15.1351 38.0859C15.1206 38.0954 15.1006 38.0979 15.0856 38.1059C15.0721 38.1129 15.0616 38.1229 15.0481 38.1289C15.0296 38.1374 15.0106 38.1379 14.9926 38.1484C14.9651 38.1644 14.9381 38.1829 14.9096 38.1969C14.8976 38.2029 14.8831 38.2039 14.8711 38.2114C14.8556 38.2209 14.8436 38.2374 14.8306 38.2499L14.8406 38.2804C14.8701 38.2574 14.9141 38.2489 14.9496 38.2374C14.9711 38.2304 15.0096 38.2224 15.0331 38.2314C15.0451 38.2364 15.0551 38.2524 15.0656 38.2604C15.0821 38.2734 15.0951 38.2765 15.1141 38.283C15.1406 38.292 15.1696 38.2964 15.1951 38.3079C15.2166 38.3179 15.2381 38.3244 15.2611 38.3299C15.2891 38.3369 15.3206 38.3465 15.3496 38.3395C15.3686 38.335 15.4386 38.3089 15.4476 38.2884C15.4631 38.2524 15.4081 38.2414 15.3921 38.2174Z" fill="white"/>
<path d="M16.7021 38.5139C16.6946 38.4944 16.7121 38.4744 16.6886 38.4574C16.6736 38.4469 16.6496 38.4519 16.6316 38.4524C16.6031 38.4529 16.5871 38.4504 16.5611 38.4394C16.5426 38.4314 16.5141 38.4324 16.4996 38.4174C16.4846 38.4024 16.4836 38.3754 16.4806 38.3569C16.4731 38.3144 16.4646 38.2709 16.4526 38.2289C16.4466 38.2074 16.4451 38.1889 16.4206 38.1799C16.3961 38.1714 16.3616 38.1864 16.3391 38.1944C16.2956 38.2104 16.2421 38.2789 16.1896 38.2574C16.1531 38.2429 16.0941 38.1869 16.0556 38.2299C16.0466 38.2399 16.0431 38.2564 16.0351 38.2679C16.0246 38.2834 16.0091 38.2979 15.9946 38.3094C15.9781 38.3229 15.9471 38.3429 15.9261 38.3489C15.8346 38.3744 15.7266 38.3609 15.6301 38.3609L15.6201 38.3809C15.6646 38.4059 15.7056 38.4359 15.7416 38.4719C15.7591 38.4894 15.7766 38.5059 15.7921 38.5249C15.8096 38.5464 15.8181 38.5709 15.8321 38.5939C15.8446 38.6139 15.8551 38.6319 15.8651 38.6544C15.8751 38.6764 15.8796 38.6974 15.8951 38.7149C15.9286 38.7539 15.9681 38.8019 16.0121 38.8319C16.0501 38.8584 16.0931 38.8644 16.1356 38.8764C16.1546 38.8819 16.1716 38.8904 16.1921 38.8864C16.2266 38.8804 16.2506 38.8494 16.2796 38.8339C16.3081 38.8184 16.3296 38.7969 16.3591 38.7824C16.3761 38.7744 16.3926 38.7659 16.4091 38.7574C16.4486 38.7374 16.4911 38.7174 16.5321 38.7019C16.5806 38.6834 16.6326 38.6709 16.6826 38.6564C16.7346 38.6409 16.7566 38.6084 16.7441 38.5524C16.7386 38.5269 16.7096 38.5339 16.7021 38.5139Z" fill="white"/>
<path d="M18.4847 38.2249C18.4897 38.2109 18.5002 38.1934 18.4982 38.1784C18.4957 38.1599 18.5022 38.1654 18.4802 38.1574C18.4522 38.1474 18.4202 38.1409 18.3942 38.1264C18.3652 38.1099 18.3332 38.0799 18.3022 38.0694C18.2922 38.0659 18.2802 38.0674 18.2697 38.0679C18.2437 38.0684 18.2437 38.0674 18.2347 38.0904C18.2227 38.1199 18.2012 38.1509 18.1817 38.1774C18.1607 38.2054 18.1302 38.2479 18.0952 38.2509C18.0297 38.2569 17.9682 38.2429 17.9062 38.2274C17.8922 38.2239 17.8747 38.2219 17.8627 38.2144C17.8487 38.2054 17.8387 38.1894 17.8252 38.1794C17.7947 38.1564 17.7602 38.1389 17.7257 38.1229C17.6977 38.1099 17.6757 38.0944 17.6457 38.0874C17.6057 38.0784 17.5622 38.0699 17.5217 38.0684C17.4552 38.0654 17.3882 38.0684 17.3217 38.0684C17.2837 38.0684 17.2252 38.0799 17.1957 38.0529C17.1797 38.0384 17.1747 38.0144 17.1547 38.0029C17.1412 37.9949 17.1287 37.9974 17.1132 37.9974C17.0682 37.9979 17.0317 38.0039 16.9882 38.0179C16.9502 38.0304 16.8902 38.0349 16.9167 38.0884L16.9367 38.1189C16.9692 38.1124 17.0007 38.1479 17.0277 38.1594C17.0497 38.1689 17.0942 38.1674 17.1002 38.1914C17.1057 38.2124 17.0807 38.2274 17.0677 38.2379C17.0537 38.2489 17.0507 38.2469 17.0472 38.2679C17.0427 38.2939 17.0517 38.3374 17.0782 38.3499C17.0937 38.3574 17.1087 38.3514 17.1172 38.3714C17.1242 38.3869 17.1167 38.4069 17.1187 38.4229C17.1232 38.4579 17.1487 38.4689 17.1792 38.4854C17.2112 38.5029 17.2442 38.5134 17.2807 38.5134C17.3077 38.5134 17.3292 38.5229 17.3562 38.5234C17.3932 38.5239 17.4262 38.5404 17.4627 38.5444C17.4762 38.5459 17.4902 38.5414 17.5037 38.5434C17.5212 38.5464 17.5352 38.5534 17.5537 38.5544C17.5872 38.5559 17.6212 38.5544 17.6547 38.5544C17.6912 38.5539 17.7232 38.5659 17.7602 38.5644C17.7922 38.5634 17.8317 38.5544 17.8577 38.5344C17.8692 38.5254 17.8782 38.5129 17.8902 38.5034C17.9107 38.4869 17.9207 38.4739 17.9382 38.4549C17.9982 38.3889 18.0762 38.3714 18.1612 38.3719V38.3619C18.1947 38.3619 18.2287 38.3619 18.2622 38.3619C18.2792 38.3619 18.2967 38.3634 18.3132 38.3619C18.3282 38.3609 18.3387 38.3534 18.3532 38.3514H18.3632C18.4232 38.3479 18.4677 38.2729 18.4847 38.2249Z" fill="white"/>
<path d="M18.8856 41.9109C18.8651 41.8924 18.8461 41.8759 18.8221 41.8634C18.8006 41.8524 18.7816 41.8389 18.7576 41.8319C18.7371 41.8259 18.7191 41.8174 18.6991 41.8099C18.6731 41.7999 18.6501 41.7889 18.6221 41.7894C18.6061 41.7894 18.5906 41.7894 18.5746 41.7894C18.5566 41.7894 18.5356 41.7864 18.5181 41.7909C18.5081 41.7934 18.4991 41.7999 18.4896 41.8019C18.4806 41.8039 18.4706 41.8024 18.4611 41.8024L18.4296 41.8089C18.4096 41.8054 18.3816 41.8204 18.3926 41.8434C18.4001 41.8594 18.4161 41.8559 18.4176 41.8764C18.4186 41.8894 18.4116 41.9014 18.4106 41.9144C18.4081 41.9439 18.4161 41.9589 18.4356 41.9799C18.4471 41.9924 18.4601 42.0079 18.4756 42.0154C18.4871 42.0209 18.5011 42.0244 18.5131 42.0289C18.5251 42.0339 18.5371 42.0349 18.5491 42.0394C18.5641 42.0449 18.5781 42.0509 18.5936 42.0554C18.6186 42.0629 18.6421 42.0734 18.6676 42.0789C18.6911 42.0839 18.7146 42.0919 18.7386 42.0914C18.7596 42.0914 18.7806 42.0914 18.8016 42.0914C18.8251 42.0914 18.8486 42.0914 18.8721 42.0914C18.8921 42.0914 18.9211 42.0979 18.9346 42.0794C18.9456 42.0644 18.9401 42.0364 18.9401 42.0189C18.9401 42.0014 18.9381 41.9884 18.9331 41.9719C18.9281 41.9514 18.9016 41.9254 18.8856 41.9109Z" fill="white"/>
<path d="M23.1232 43.6565C23.1012 43.634 23.0742 43.6185 23.0537 43.594C23.0332 43.5705 23.0067 43.5525 22.9842 43.53C22.9662 43.512 22.9527 43.4915 22.9347 43.474C22.8972 43.437 22.8647 43.396 22.8302 43.3565C22.8122 43.336 22.7917 43.3175 22.7737 43.2975C22.7582 43.28 22.7487 43.2575 22.7322 43.2405C22.7017 43.2095 22.6772 43.1755 22.6507 43.1415C22.6317 43.1175 22.6152 43.0975 22.6002 43.0705C22.5887 43.049 22.5692 43.028 22.5527 43.011C22.5417 42.9995 22.5372 42.985 22.5272 42.9735C22.5207 42.9655 22.5157 42.9605 22.5117 42.951C22.5027 42.9315 22.4857 42.9125 22.4737 42.894C22.4617 42.876 22.4532 42.858 22.4312 42.8515C22.4152 42.847 22.4017 42.846 22.3857 42.8435C22.3652 42.84 22.3482 42.829 22.3287 42.822C22.3132 42.8165 22.2897 42.8055 22.2782 42.7935L22.2717 42.8C22.2807 42.8065 22.2762 42.812 22.2777 42.8205C22.2797 42.8335 22.2827 42.8355 22.2907 42.846C22.3027 42.862 22.3147 42.878 22.3257 42.895C22.3417 42.9195 22.3347 42.9535 22.3347 42.982C22.3347 43.0115 22.3397 43.0395 22.3552 43.0655C22.3757 43.1 22.4042 43.1305 22.4232 43.166C22.4342 43.187 22.4477 43.209 22.4572 43.2305C22.4617 43.241 22.4637 43.2515 22.4702 43.2615C22.4752 43.2685 22.4812 43.2745 22.4862 43.2815C22.4972 43.2975 22.5017 43.313 22.5142 43.328C22.5282 43.344 22.5382 43.3645 22.5492 43.3825C22.5702 43.4175 22.5892 43.4535 22.6122 43.4865C22.6232 43.502 22.6317 43.518 22.6437 43.5325C22.6582 43.551 22.6742 43.5695 22.6882 43.589L22.6947 43.5955C22.7127 43.61 22.7177 43.633 22.7292 43.652C22.7402 43.6695 22.7522 43.6875 22.7637 43.7045C22.7822 43.7325 22.8002 43.7635 22.8252 43.7845C22.8382 43.795 22.8442 43.8075 22.8597 43.8145C22.8672 43.818 22.8762 43.8245 22.8832 43.8275C22.8897 43.8305 22.8982 43.8295 22.9047 43.8315C22.9317 43.8405 22.9592 43.8535 22.9867 43.863C23.0032 43.869 23.0207 43.872 23.0347 43.883C23.0437 43.89 23.0547 43.908 23.0662 43.9105C23.0772 43.913 23.0952 43.901 23.1042 43.896C23.1172 43.8885 23.1307 43.8825 23.1422 43.8725C23.1677 43.8495 23.1857 43.8345 23.2202 43.8345C23.2487 43.8345 23.2772 43.8345 23.3062 43.8345C23.2652 43.793 23.2167 43.7615 23.1767 43.718C23.1582 43.697 23.1422 43.6755 23.1232 43.6565Z" fill="white"/>
<path d="M22.3248 40.8174C22.3353 40.8324 22.3453 40.8484 22.3558 40.8634C22.3668 40.8789 22.3823 40.9004 22.3973 40.9124L22.4288 40.9189C22.4478 40.8994 22.4813 40.8969 22.5058 40.8919C22.5203 40.8894 22.5348 40.8854 22.5488 40.8824C22.5643 40.8794 22.5718 40.8819 22.5843 40.8719C22.6123 40.8494 22.6113 40.8289 22.5743 40.8149C22.5638 40.8109 22.5513 40.8109 22.5423 40.8044C22.5318 40.7964 22.5243 40.7814 22.5173 40.7709C22.5028 40.7504 22.4863 40.7194 22.4608 40.7119C22.4393 40.7059 22.4058 40.7109 22.3828 40.7109C22.3418 40.7109 22.2678 40.6984 22.2473 40.7479C22.2533 40.7539 22.2618 40.7529 22.2693 40.7564C22.2788 40.7609 22.2833 40.7669 22.2893 40.7754C22.3013 40.7899 22.3148 40.8024 22.3248 40.8174Z" fill="white"/>
<path d="M23.3893 41.3805C23.3713 41.3625 23.3673 41.345 23.3563 41.322C23.3468 41.302 23.3473 41.2845 23.3428 41.264C23.3388 41.246 23.3278 41.229 23.3143 41.2165C23.3043 41.2075 23.2933 41.203 23.2823 41.196C23.2698 41.1885 23.2608 41.1785 23.2493 41.1705C23.2298 41.157 23.2098 41.151 23.1923 41.133C23.1758 41.116 23.1588 41.097 23.1478 41.0755C23.1378 41.0565 23.1358 41.04 23.1358 41.019C23.1358 40.998 23.1388 40.9685 23.1153 40.957C23.1093 40.954 23.0918 40.9525 23.0853 40.9515C23.0703 40.949 23.0553 40.948 23.0408 40.942C23.0203 40.9335 22.9983 40.9265 22.9778 40.917C22.9543 40.906 22.9323 40.8905 22.9083 40.88C22.8843 40.8695 22.8583 40.8615 22.8338 40.853C22.8133 40.8465 22.7913 40.845 22.7698 40.8405C22.7518 40.8365 22.7318 40.8324 22.7133 40.8369C22.6888 40.8429 22.6753 40.8685 22.6623 40.888C22.6573 40.8955 22.6533 40.9045 22.6483 40.9115C22.6408 40.922 22.6283 40.9275 22.6308 40.943V40.9619C22.6418 40.9719 22.6558 40.973 22.6688 40.979C22.6888 40.988 22.6883 40.999 22.6878 41.019C22.6873 41.0335 22.6893 41.0445 22.6938 41.058C22.7023 41.084 22.7198 41.0905 22.7398 41.1085C22.7578 41.125 22.7803 41.17 22.7523 41.1845C22.7448 41.1885 22.7383 41.188 22.7328 41.1945C22.7268 41.2015 22.7258 41.2175 22.7233 41.2255C22.7173 41.2455 22.7163 41.26 22.7248 41.2785C22.7398 41.3115 22.7658 41.337 22.7878 41.365C22.8028 41.384 22.8133 41.4045 22.8308 41.4225C22.8413 41.4335 22.8618 41.4595 22.8763 41.4655C22.8878 41.4705 22.9138 41.467 22.9263 41.465C22.9488 41.461 22.9673 41.45 22.9893 41.446C23.0088 41.442 23.0243 41.4395 23.0413 41.429C23.0638 41.415 23.0783 41.41 23.1018 41.4285C23.1088 41.434 23.1148 41.4475 23.1218 41.4515C23.1298 41.456 23.1363 41.454 23.1453 41.454C23.1643 41.4535 23.1793 41.4495 23.1978 41.4475C23.2368 41.4425 23.2598 41.485 23.2983 41.4855C23.3343 41.486 23.3723 41.4915 23.4043 41.4745C23.4198 41.4665 23.4413 41.4515 23.4383 41.43C23.4368 41.41 23.4028 41.394 23.3893 41.3805Z" fill="white"/>
<path d="M39.4779 35.6569C39.4474 35.6254 39.4159 35.6014 39.3934 35.5629C39.3734 35.5289 39.3769 35.4754 39.3214 35.4784C39.2644 35.3744 39.1614 35.3104 39.0759 35.2319C39.0334 35.1929 38.9874 35.1904 38.9404 35.1609C38.9029 35.1374 38.8659 35.1044 38.8304 35.0779C38.7459 35.0159 38.6419 34.8979 38.5994 34.8024C38.5734 34.7434 38.5589 34.7219 38.5159 34.6744C38.4749 34.6289 38.4509 34.5989 38.4039 34.5624C38.3724 34.5379 38.3104 34.4864 38.2954 34.4504C38.2774 34.4074 38.2944 34.3434 38.2924 34.2979C38.2879 34.1919 38.2044 34.1424 38.1564 34.0579C38.1004 33.9599 38.1884 33.8244 38.0569 33.7674C38.0044 33.7444 37.9549 33.7699 37.9024 33.7554C37.8449 33.7394 37.8364 33.6834 37.7999 33.6444V33.6219C37.7499 33.5709 37.7109 33.5309 37.6819 33.4649C37.6614 33.4179 37.6544 33.3789 37.6439 33.3309C37.6164 33.2079 37.4884 33.1979 37.4084 33.1194C37.3144 33.0274 37.3304 32.9164 37.3304 32.7939C37.3304 32.7399 37.3304 32.6864 37.3304 32.6324C37.3304 32.5894 37.3414 32.5254 37.3264 32.4849C37.3204 32.4834 37.3139 32.4824 37.3079 32.4809L16.0132 14.2607L15.6902 0H0.850009C0.850009 0.0240003 0.847509 0.0490005 0.851009 0.0730008C0.855009 0.100001 0.865509 0.127001 0.87001 0.154002C0.87351 0.174002 0.87001 0.194002 0.87501 0.213002C0.88101 0.236003 0.884009 0.252503 0.883509 0.277503C0.883509 0.351504 0.89751 0.436005 0.86551 0.503506C0.854009 0.527506 0.846009 0.552006 0.834509 0.576006C0.822509 0.601507 0.809009 0.616507 0.793509 0.638507C0.769508 0.672007 0.756508 0.723508 0.741008 0.762009C0.733508 0.781009 0.722508 0.798509 0.715008 0.817509C0.707508 0.838509 0.707008 0.85951 0.703008 0.88051C0.694508 0.92401 0.693008 0.963011 0.693008 1.00851C0.693008 1.05051 0.686008 1.10301 0.706508 1.14151C0.724508 1.17451 0.772508 1.18851 0.807509 1.18801C0.833509 1.18801 0.858009 1.19151 0.882509 1.18151C0.90701 1.17151 0.92401 1.15751 0.95151 1.15401C0.965511 1.15201 0.990511 1.15051 1.00201 1.15901C1.02251 1.17351 1.01801 1.21251 1.01801 1.23401C1.01751 1.27001 1.01301 1.31001 1.01751 1.34551C1.02101 1.37252 1.02951 1.39052 1.02951 1.41852C1.02901 1.44402 1.02801 1.46752 1.03451 1.49202C1.04751 1.54302 1.08001 1.58602 1.09651 1.63602C1.10401 1.65802 1.10551 1.68152 1.11051 1.70402C1.11701 1.73452 1.11501 1.76002 1.11851 1.79052C1.12501 1.84752 1.15051 1.90552 1.16401 1.96152C1.17701 2.01702 1.21151 2.06502 1.23151 2.11852C1.25001 2.16752 1.25351 2.21052 1.25351 2.26303C1.25351 2.31553 1.23901 2.40053 1.27601 2.44353L1.26501 2.48853C1.26501 2.57203 1.26501 2.65553 1.26501 2.73903C1.26501 2.77353 1.26501 2.80803 1.26501 2.84253C1.26501 2.88753 1.25551 2.92903 1.25401 2.97303C1.25301 2.99653 1.24451 3.01353 1.24201 3.03703C1.24001 3.05503 1.24351 3.07203 1.24001 3.09003C1.23101 3.13703 1.22201 3.18404 1.21151 3.23054C1.20201 3.27354 1.19301 3.31004 1.17751 3.35104C1.15951 3.39804 1.14451 3.44854 1.13001 3.49704C1.11901 3.53504 1.10301 3.57104 1.09551 3.60954C1.08851 3.64654 1.08251 3.68354 1.07451 3.71954C1.06451 3.76604 1.04651 3.80854 1.03801 3.85454C1.03001 3.89854 1.02101 3.94554 1.00751 3.98804C0.982011 4.06705 0.94951 4.14205 0.92851 4.22255C0.91051 4.29105 0.88601 4.36755 0.89451 4.44005C0.90151 4.50005 0.957011 4.51555 0.996511 4.54955C1.03501 4.58305 1.04451 4.61305 1.05451 4.66155C1.07251 4.74755 1.06301 4.84205 1.06301 4.93055V4.94155C1.06501 4.97206 1.03301 5.02606 1.01801 5.05156C1.00051 5.08156 0.995511 5.11206 0.97901 5.14206C0.96401 5.16956 0.94551 5.19806 0.93351 5.22706C0.92201 5.25556 0.91851 5.28856 0.89451 5.31106L0.838509 5.34456C0.839009 5.38056 0.829509 5.40456 0.814009 5.43656C0.794008 5.47756 0.774509 5.51706 0.756008 5.55856C0.747508 5.57706 0.744008 5.59756 0.735508 5.61606C0.728008 5.63206 0.716008 5.64656 0.709508 5.66356C0.696008 5.69906 0.687508 5.73506 0.674507 5.77156C0.697508 5.81206 0.746008 5.72856 0.760508 5.71406C0.793009 5.68156 0.828009 5.65956 0.855009 5.62206C0.88201 5.58456 0.92201 5.55756 0.95101 5.52106C0.977011 5.48856 1.00901 5.43806 1.05201 5.42456C1.13951 5.39706 1.21701 5.45856 1.22001 5.54556C1.22101 5.56856 1.22251 5.58306 1.21001 5.60206C1.19601 5.62356 1.16901 5.64106 1.15001 5.65806C1.11051 5.69406 1.06801 5.73056 1.02101 5.75656C0.94551 5.79806 0.862009 5.82506 0.794008 5.88157C0.721508 5.94207 0.726508 6.01857 0.726508 6.10607C0.726508 6.14307 0.736508 6.19457 0.716508 6.22707C0.693007 6.26557 0.638507 6.29007 0.603006 6.25307C0.580006 6.22857 0.570506 6.15807 0.583006 6.12807C0.591006 6.10857 0.610007 6.09407 0.618507 6.07207C0.625007 6.05457 0.626007 6.03607 0.633507 6.01907C0.615006 6.03957 0.599007 6.06307 0.585007 6.08607C0.566506 6.11607 0.545006 6.14407 0.525506 6.17357C0.500005 6.21207 0.488505 6.26107 0.465005 6.30157C0.437005 6.35007 0.401504 6.39757 0.383504 6.45007C0.376004 6.47107 0.362004 6.49757 0.371004 6.52007C0.380504 6.54357 0.415504 6.55057 0.419505 6.57657C0.386504 6.60807 0.301003 6.59057 0.281003 6.63757C0.277003 6.64757 0.282003 6.65507 0.280503 6.66507C0.278003 6.68157 0.270003 6.69557 0.263503 6.71107C0.242502 6.75908 0.223002 6.80808 0.201502 6.85658C0.148502 6.97408 0.105001 7.10058 0.0660007 7.22358C0.0545006 7.26008 0.0455002 7.29658 0.0335001 7.33308C0.025 7.35808 0.0200002 7.39858 0 7.41708V7.42808C0 7.48808 0.0535004 7.54608 0.0785007 7.60058C0.105001 7.65909 0.114501 7.71459 0.128501 7.77609C0.139502 7.82409 0.133501 7.87359 0.143001 7.92209C0.148501 7.95059 0.145501 7.98159 0.145501 8.01059C0.145501 8.06559 0.145501 8.12059 0.145501 8.17609C0.145501 8.20809 0.143502 8.23459 0.137002 8.26559C0.131002 8.29209 0.128501 8.32509 0.145002 8.34709C0.154502 8.35959 0.170002 8.37009 0.182002 8.38009C0.199502 8.39459 0.208002 8.41059 0.223502 8.42609C0.239002 8.44109 0.260003 8.44659 0.277503 8.45859C0.296003 8.47109 0.309003 8.48959 0.325003 8.50459C0.459005 8.6301 0.554506 8.7881 0.683007 8.9186C0.712508 8.9181 0.740008 8.9406 0.766508 8.9506C0.797009 8.9626 0.832009 8.9726 0.86201 8.9876C0.92451 9.0186 0.989511 9.0621 1.03551 9.1151C1.08401 9.1711 1.12901 9.2196 1.13151 9.2966C1.13351 9.3531 1.13101 9.4106 1.13101 9.4671L1.15351 9.4781C1.17951 9.4421 1.24051 9.47711 1.26301 9.49761C1.29701 9.52861 1.31551 9.56911 1.34701 9.60161C1.37901 9.63411 1.40102 9.67661 1.43002 9.71361C1.44652 9.73511 1.46702 9.74611 1.47902 9.76961C1.48902 9.78861 1.49702 9.79861 1.51202 9.81411C1.53302 9.83511 1.54252 9.85561 1.55602 9.88161C1.57102 9.90961 1.59502 9.92461 1.61352 9.94911C1.62252 9.96061 1.62602 9.97311 1.63402 9.98511C1.64902 10.0071 1.67052 10.0196 1.68852 10.0381C1.70902 10.0591 1.70952 10.0796 1.72452 10.1036C1.73552 10.1221 1.74502 10.1246 1.74752 10.1461C1.75252 10.1846 1.75702 10.2206 1.75802 10.2601C1.75902 10.2931 1.76302 10.2831 1.78902 10.2986C1.80402 10.3076 1.81452 10.3186 1.82802 10.3296C1.86452 10.3601 1.91352 10.3821 1.94102 10.4216C1.96652 10.4586 1.95502 10.4941 1.96252 10.5341C1.97002 10.5721 1.97102 10.6061 1.97102 10.6456C1.97102 10.6786 1.97102 10.7111 1.97102 10.7441C1.97102 10.7641 1.96902 10.7841 1.97302 10.8036C1.97802 10.8266 1.99102 10.8366 2.00202 10.8561C2.01752 10.8841 2.03302 10.9266 2.03852 10.9576C2.04152 10.9756 2.03902 10.9966 2.04852 11.0141C2.05952 11.0336 2.07952 11.0416 2.09402 11.0586V11.0696C2.12352 11.1046 2.13902 11.1361 2.15302 11.1791C2.16502 11.2156 2.16102 11.2526 2.16102 11.2911C2.16102 11.3536 2.16152 11.4161 2.16102 11.4791C2.16102 11.5251 2.16602 11.5506 2.18352 11.5916C2.19852 11.6271 2.21552 11.6726 2.21752 11.7111C2.21902 11.7436 2.21752 11.7771 2.21702 11.8096C2.21652 11.8536 2.19602 11.8941 2.18052 11.9351C2.16802 11.9686 2.14952 11.9966 2.13602 12.0301C2.11802 12.0741 2.10452 12.1166 2.09252 12.1621C2.08052 12.2056 2.07102 12.2511 2.07152 12.2971C2.07202 12.3376 2.07702 12.3831 2.07202 12.4231C2.06952 12.4436 2.06152 12.4606 2.06002 12.4811C2.05902 12.4981 2.05852 12.5106 2.05202 12.5266C2.03652 12.5641 2.00802 12.5961 2.00352 12.6381C1.99552 12.7121 2.00002 12.7901 2.05452 12.8456C2.09652 12.8881 2.07652 12.9306 2.08202 12.9851C2.08552 13.0221 2.09252 13.0736 2.10702 13.1086C2.12152 13.1436 2.15002 13.1761 2.16102 13.2121C2.17352 13.2521 2.17202 13.2906 2.17202 13.3326L2.18302 13.3996C2.18352 13.4356 2.19202 13.4556 2.20602 13.4896C2.21102 13.5021 2.21252 13.5166 2.21752 13.5286C2.22502 13.5456 2.24052 13.5546 2.25102 13.5702C2.26953 13.5992 2.27953 13.6322 2.29503 13.6627C2.31003 13.6922 2.32703 13.7212 2.33903 13.7522C2.36203 13.8137 2.37053 13.8807 2.39103 13.9427C2.40153 13.9747 2.40653 14.0097 2.41303 14.0427C2.42003 14.0777 2.42903 14.1202 2.43003 14.1562C2.43253 14.2172 2.42953 14.2787 2.42953 14.3397C2.42953 14.4087 2.42203 14.4822 2.38553 14.5417C2.36553 14.5747 2.34153 14.5997 2.30853 14.6182C2.29053 14.6282 2.28503 14.6257 2.28303 14.6497C2.28153 14.6687 2.29103 14.6832 2.29803 14.6997C2.30653 14.7192 2.31403 14.7452 2.31803 14.7662C2.32453 14.7992 2.30903 14.8267 2.32803 14.8562C2.35453 14.8972 2.39803 14.9217 2.42403 14.9627C2.44853 15.0017 2.48703 15.0252 2.51903 15.0577C2.54803 15.0867 2.57903 15.1092 2.60903 15.1362C2.62453 15.1497 2.63703 15.1677 2.65253 15.1812C2.67103 15.1972 2.69403 15.2067 2.70903 15.2262C2.70253 15.2482 2.72053 15.2482 2.73103 15.2587C2.74253 15.2702 2.74903 15.2862 2.76053 15.2977C2.78203 15.3207 2.81103 15.3367 2.83253 15.3597C2.87603 15.4067 2.91253 15.4657 2.95003 15.5177C2.96853 15.5437 2.97853 15.5732 3.00003 15.5962C3.01703 15.6147 3.03653 15.6372 3.05653 15.6527C3.10503 15.6902 3.15853 15.7212 3.21104 15.7527C3.23404 15.7667 3.25704 15.7822 3.28054 15.7967C3.31204 15.8157 3.32904 15.8547 3.35404 15.8817C3.37804 15.9082 3.38404 15.9457 3.40454 15.9752C3.41754 15.9947 3.43454 16.0122 3.44604 16.0322C3.47054 16.0747 3.49204 16.1222 3.51354 16.1672C3.52554 16.1922 3.53554 16.2182 3.54754 16.2437C3.55854 16.2672 3.58304 16.2992 3.58354 16.3242C3.57854 16.3442 3.59454 16.3557 3.60304 16.3717C3.61404 16.3912 3.61654 16.4032 3.63354 16.4197C3.66804 16.4527 3.69354 16.4917 3.72904 16.5237C3.75904 16.5512 3.79104 16.5762 3.82104 16.6042C3.85654 16.6367 3.89854 16.6702 3.93104 16.7052C3.94554 16.7207 3.95404 16.7412 3.96954 16.7562C3.98554 16.7722 4.00504 16.7822 4.02354 16.7952C4.05854 16.8192 4.08954 16.8482 4.12405 16.8737C4.16355 16.9027 4.20705 16.9227 4.24505 16.9527C4.27305 16.9747 4.30855 16.9867 4.34005 17.0027C4.37355 17.0197 4.41355 17.0317 4.44455 17.0527C4.46005 17.0632 4.47105 17.0757 4.48805 17.0842C4.51455 17.0977 4.54405 17.1062 4.57055 17.1202C4.64505 17.1592 4.65155 17.2422 4.66805 17.3127C4.67705 17.3517 4.67605 17.3947 4.68405 17.4337C4.69055 17.4642 4.70305 17.4912 4.70405 17.5232C4.70555 17.5902 4.70405 17.6577 4.70405 17.7252L4.71505 17.7477C4.82405 17.7477 4.91555 17.7702 4.99606 17.8492C5.04106 17.8932 5.07506 17.9522 5.10806 18.0052C5.14206 18.0597 5.15106 18.1187 5.19756 18.1662C5.24406 18.2132 5.25906 18.2852 5.29806 18.3397C5.31256 18.3602 5.32806 18.3732 5.33856 18.3967C5.35306 18.4287 5.36356 18.4582 5.38206 18.4882C5.43756 18.5807 5.48606 18.6742 5.54206 18.7667C5.51056 18.7672 5.45806 18.7322 5.43556 18.7117C5.42056 18.6977 5.41256 18.6812 5.39956 18.6657C5.38956 18.6537 5.37506 18.6452 5.36556 18.6327C5.34456 18.6057 5.33706 18.5722 5.31906 18.5432C5.31006 18.5287 5.29706 18.5147 5.28756 18.5007C5.27656 18.4857 5.27206 18.4702 5.26306 18.4557C5.25156 18.4367 5.24056 18.4187 5.22956 18.3997C5.22006 18.3832 5.20856 18.3777 5.19556 18.3642C5.16856 18.3372 5.15756 18.3007 5.12306 18.2787C5.07406 18.2472 5.06956 18.3042 5.07506 18.3417C5.08006 18.3767 5.09706 18.4162 5.11006 18.4482C5.13356 18.5052 5.15556 18.5657 5.13756 18.6287C5.12656 18.6677 5.10306 18.6997 5.08906 18.7367C5.08256 18.7542 5.08256 18.7737 5.07356 18.7907C5.06406 18.8087 5.04656 18.8207 5.03756 18.8402C5.02656 18.8642 5.02256 18.8882 5.00856 18.9112C4.99906 18.9267 4.98956 18.9407 4.98306 18.9587C4.97055 18.9922 4.96605 19.0292 4.95255 19.0637C4.94005 19.0962 4.93005 19.1282 4.91905 19.1607C4.91055 19.1862 4.89205 19.2352 4.91155 19.2582C4.93005 19.2517 4.94255 19.2357 4.96156 19.2292C4.97106 19.2257 4.98206 19.2252 4.99156 19.2222C5.01556 19.2142 5.03706 19.2007 5.06006 19.1927C5.09006 19.1822 5.11856 19.1587 5.14356 19.1377C5.16906 19.1162 5.17256 19.1012 5.17956 19.0707C5.18556 19.0437 5.18856 19.0227 5.18806 18.9947C5.18756 18.9657 5.19056 18.9482 5.21656 18.9297C5.29406 18.8742 5.28506 19.0062 5.28856 19.0452C5.30106 19.1817 5.48456 19.2057 5.58656 19.2497C5.62256 19.2652 5.65656 19.2717 5.68206 19.3032C5.70006 19.3257 5.70606 19.3452 5.71206 19.3732C5.71806 19.4012 5.72406 19.4332 5.74806 19.4527C5.77506 19.4742 5.81306 19.4697 5.83807 19.4967L5.84906 19.5077C5.89657 19.5042 5.92407 19.5602 5.94957 19.5897C5.96207 19.6042 5.97857 19.6112 5.98757 19.6282C5.99607 19.6442 5.99857 19.6672 6.00307 19.6847C6.00857 19.7072 6.01357 19.7537 6.03457 19.7642C6.07607 19.7857 6.10107 19.7337 6.13207 19.7222C6.15457 19.7137 6.20157 19.7162 6.22457 19.7212C6.25757 19.7282 6.30557 19.7762 6.33157 19.7987C6.40057 19.8577 6.45207 19.9362 6.53207 19.9802C6.57007 20.0012 6.60357 20.0322 6.64407 20.0462C6.67507 20.0572 6.70757 20.0677 6.74007 20.0682C6.76757 20.0687 6.80308 20.0732 6.82958 20.0672C6.86708 20.0587 6.87758 20.0292 6.88558 19.9957C6.89408 19.9612 6.89758 19.9362 6.86958 19.9112C6.84308 19.8877 6.78957 19.8607 6.79057 19.8162C6.79107 19.7882 6.82358 19.7992 6.84658 19.7987C6.88408 19.7987 6.92008 19.7897 6.92558 19.7477C6.93308 19.6877 6.89008 19.6767 6.85708 19.6397C6.82908 19.6087 6.83008 19.5612 6.83808 19.5222C6.84158 19.5047 6.84208 19.4752 6.84858 19.4597C6.85558 19.4427 6.87358 19.4357 6.88608 19.4242C6.92058 19.3922 6.97458 19.3727 6.98108 19.3177V19.3067C6.98058 19.2767 6.98708 19.2592 6.96458 19.2397C6.94608 19.2232 6.92458 19.2087 6.90758 19.1892C6.87508 19.1517 6.89108 19.0757 6.89108 19.0272C6.89108 18.9982 6.89208 18.9687 6.89158 18.9397C6.89058 18.9062 6.87908 18.8762 6.88008 18.8427C6.88058 18.8177 6.87508 18.8042 6.87008 18.7802C6.86108 18.7387 6.88158 18.7412 6.91408 18.7327C6.97058 18.7182 7.03258 18.7002 7.08158 18.6687C7.11658 18.6462 7.13358 18.6257 7.15458 18.5907C7.17108 18.5632 7.18458 18.5512 7.21708 18.5567C7.24808 18.5622 7.28508 18.5812 7.31508 18.5927C7.33808 18.6017 7.36108 18.6127 7.38358 18.6227C7.42058 18.6392 7.44258 18.6702 7.47658 18.6887C7.49508 18.6987 7.51008 18.7007 7.52808 18.7132C7.53958 18.7217 7.54808 18.7362 7.56408 18.7357L7.57508 18.7582C7.60508 18.7547 7.63458 18.7737 7.66008 18.7877C7.70059 18.8102 7.75109 18.8107 7.79309 18.8327C7.82309 18.8482 7.84809 18.8732 7.87709 18.8902C7.91159 18.9107 7.94659 18.9157 7.98409 18.9277C8.01559 18.9377 8.04409 18.9332 8.07609 18.9402C8.11809 18.9492 8.15609 18.9487 8.20059 18.9487C8.22909 18.9487 8.26209 18.9542 8.28759 18.9427C8.32409 18.9267 8.34759 18.8947 8.35909 18.8582C8.38009 18.7892 8.42409 18.7042 8.48009 18.6572C8.50709 18.6342 8.53309 18.6192 8.56659 18.6067C8.59259 18.5972 8.6226 18.6017 8.6501 18.6017C8.6821 18.6012 8.7236 18.5967 8.7286 18.6412C8.7321 18.6712 8.6861 18.7057 8.6721 18.7307C8.6541 18.7622 8.6656 18.7927 8.6976 18.8127C8.7101 18.8207 8.7266 18.8267 8.7401 18.8347C8.7596 18.8467 8.7726 18.8442 8.7936 18.8482C8.8281 18.8547 8.8696 18.8597 8.9011 18.8772C8.9351 18.8967 8.9616 18.9367 9.0001 18.9467C9.0321 18.9552 9.0736 18.9487 9.1066 18.9487C9.1451 18.9487 9.1836 18.9487 9.2216 18.9487H9.2326C9.2631 18.9542 9.3061 18.9352 9.3336 18.9232C9.3641 18.9102 9.3991 18.9107 9.4311 18.9012C9.4621 18.8922 9.4936 18.8812 9.52361 18.8702C9.55061 18.8602 9.58961 18.8492 9.61411 18.8342C9.65011 18.8122 9.68461 18.7772 9.71461 18.7492C9.72711 18.7372 9.74261 18.7302 9.75411 18.7167C9.76911 18.6992 9.78011 18.6737 9.79261 18.6547C9.81511 18.6207 9.84411 18.5897 9.86261 18.5542C9.88261 18.5162 9.88861 18.4657 9.92861 18.4412C9.94061 18.4577 9.92811 18.4747 9.92661 18.4927C9.92511 18.5117 9.92711 18.5312 9.92711 18.5502C9.92711 18.5817 9.92961 18.6142 9.92761 18.6452C9.92561 18.6752 9.91911 18.7327 9.90261 18.7592C9.88461 18.7887 9.85561 18.8162 9.82911 18.8372C9.79911 18.8612 9.76861 18.8747 9.73611 18.8932C9.70811 18.9087 9.68411 18.9312 9.65811 18.9497C9.63161 18.9687 9.4851 19.0372 9.54211 19.0847C9.58761 19.1232 9.67361 19.0617 9.71411 19.0417C9.74761 19.0252 9.77561 19.0042 9.80661 18.9827C9.82161 18.9722 9.83561 18.9622 9.84911 18.9492C9.85761 18.9407 9.86561 18.9217 9.87311 18.9147C9.89861 18.8912 9.93011 18.9227 9.93611 18.9517C9.94311 18.9867 9.90861 19.0057 9.88211 19.0252C9.86361 19.0387 9.82311 19.0597 9.81611 19.0837C9.80561 19.1192 9.86361 19.1292 9.88161 19.1502C9.88161 19.1902 9.82961 19.1857 9.80311 19.1927C9.77511 19.2002 9.75311 19.2072 9.72361 19.2072C9.67111 19.2067 9.61811 19.2067 9.56561 19.2072C9.53261 19.2072 9.51011 19.2047 9.47911 19.1937C9.4601 19.1867 9.4421 19.1782 9.4221 19.1747C9.4011 19.1712 9.3856 19.1732 9.3656 19.1632C9.3131 19.1367 9.2636 19.1117 9.2036 19.1067C9.1791 19.1047 9.1531 19.1007 9.1291 19.0937C9.0951 19.0837 9.0651 19.0607 9.0296 19.0532C8.9686 19.0402 8.9076 19.0397 8.8451 19.0397C8.7826 19.0397 8.7201 19.0392 8.6581 19.0397C8.6236 19.0397 8.5961 19.0307 8.56259 19.0282C8.53959 19.0262 8.50959 19.0387 8.49259 19.0177H8.47009C8.44709 19.0182 8.42409 19.0137 8.40309 19.0237C8.37709 19.0362 8.36159 19.0497 8.33259 19.0597C8.31259 19.0667 8.29059 19.0732 8.27109 19.0817C8.24709 19.0922 8.22759 19.1102 8.20109 19.1162C8.16909 19.1232 8.11809 19.1387 8.08459 19.1292C8.05559 19.1207 8.05609 19.0952 8.04209 19.0727C8.03059 19.0552 8.01159 19.0372 7.99309 19.0282C7.92559 18.9947 7.82509 18.9917 7.76459 19.0392C7.72359 19.0717 7.68558 19.1037 7.64108 19.1322C7.60358 19.1562 7.56708 19.1937 7.52658 19.2107C7.48908 19.2267 7.45808 19.2322 7.41758 19.2307C7.39108 19.2297 7.36808 19.2187 7.34108 19.2187C7.30208 19.2187 7.30858 19.2312 7.31358 19.2642C7.31608 19.2802 7.32158 19.3042 7.31758 19.3202C7.31208 19.3432 7.28908 19.3507 7.27158 19.3652C7.25208 19.3812 7.22858 19.3872 7.21008 19.4037C7.18708 19.4242 7.17658 19.4407 7.14258 19.4437C7.11708 19.4462 7.10708 19.4372 7.11408 19.4682C7.11858 19.4892 7.13558 19.5077 7.14858 19.5242C7.16408 19.5447 7.18058 19.5647 7.19408 19.5862C7.20758 19.6082 7.21558 19.6357 7.22958 19.6567C7.25258 19.6912 7.30858 19.7027 7.34608 19.7177C7.39708 19.7382 7.43258 19.7572 7.45458 19.8102C7.47358 19.8562 7.48508 19.8882 7.48508 19.9377C7.48508 19.9667 7.49058 19.9972 7.47458 20.0227C7.45808 20.0492 7.43858 20.0592 7.43108 20.0927C7.42058 20.1402 7.44608 20.1712 7.46908 20.2112C7.50508 20.2727 7.54558 20.3152 7.60808 20.3502H7.61908C7.67208 20.3922 7.74509 20.3847 7.80859 20.3837C7.83609 20.3832 7.86309 20.3777 7.88609 20.3967C7.90059 20.4087 7.92509 20.4412 7.93059 20.4597C7.94359 20.5007 7.90909 20.5037 7.87559 20.4962C7.84609 20.4897 7.81909 20.4782 7.78709 20.4837C7.72109 20.4942 7.78159 20.5302 7.79859 20.5607C7.81709 20.5942 7.80259 20.6552 7.84509 20.6737C7.87509 20.6867 7.91909 20.6657 7.94959 20.6637C7.96409 20.6627 7.98159 20.6587 7.99459 20.6672C8.00709 20.6757 8.01659 20.7162 8.02209 20.7312C8.03459 20.7627 8.04609 20.7952 8.05559 20.8267C8.06609 20.8617 8.06959 20.8987 8.07809 20.9357C8.08709 20.9757 8.10009 21.0162 8.10009 21.0567C8.10009 21.0812 8.10909 21.1017 8.11209 21.1257C8.11559 21.1537 8.11059 21.1772 8.11959 21.2052C8.13159 21.2437 8.14509 21.2832 8.16159 21.3197C8.16959 21.3367 8.17459 21.3517 8.18059 21.3692C8.19109 21.4002 8.20859 21.4212 8.22359 21.4487C8.23459 21.4692 8.24409 21.4857 8.25709 21.5047C8.26909 21.5222 8.27659 21.5392 8.27909 21.5607H8.29009C8.29059 21.6302 8.37909 21.6202 8.42409 21.6412C8.45859 21.6572 8.48009 21.6692 8.48109 21.7062C8.48209 21.7337 8.47459 21.7687 8.48209 21.7952C8.52159 21.8047 8.56009 21.7877 8.59809 21.8072C8.6151 21.8157 8.6511 21.8297 8.6511 21.8527C8.6511 21.8727 8.6191 21.8877 8.6041 21.8952C8.5706 21.9117 8.51859 21.9197 8.48109 21.9202C8.43259 21.9207 8.39159 21.9242 8.35209 21.8927C8.31509 21.8632 8.27409 21.8237 8.25859 21.7772C8.25109 21.7552 8.25059 21.7312 8.24209 21.7092C8.23409 21.6867 8.21759 21.6722 8.20709 21.6512C8.19509 21.6277 8.19309 21.6122 8.16209 21.6222C8.14109 21.6292 8.12359 21.6367 8.10209 21.6427C8.08659 21.6467 8.06359 21.6622 8.04809 21.6467C8.04009 21.6387 8.04359 21.6207 8.03759 21.6112C8.03109 21.6007 8.02159 21.5922 8.01059 21.5872C7.98859 21.5987 7.97559 21.6187 7.94859 21.6187C7.92259 21.6187 7.90459 21.6072 7.91059 21.5817C7.91709 21.5547 7.93959 21.5457 7.94309 21.5172C7.94609 21.4942 7.94609 21.4702 7.91659 21.4707C7.89359 21.4712 7.88409 21.4917 7.86209 21.4957C7.83459 21.5007 7.81459 21.4862 7.80359 21.4612C7.79309 21.4367 7.79409 21.4157 7.77509 21.3932C7.75759 21.3722 7.73709 21.3547 7.70758 21.3602C7.68108 21.3617 7.65909 21.3417 7.63358 21.3377C7.61358 21.3347 7.60708 21.3307 7.58958 21.3217C7.57758 21.3157 7.56458 21.3182 7.55308 21.3132C7.49158 21.2877 7.50758 21.1942 7.45008 21.1712C7.39958 21.1512 7.31458 21.2022 7.31508 21.1162C7.31508 21.0922 7.32158 21.0672 7.29808 21.0527C7.27558 21.0387 7.23708 21.0597 7.21858 21.0427C7.20058 21.0262 7.21858 20.9927 7.22558 20.9772C7.23858 20.9472 7.25258 20.9187 7.26758 20.8897C7.29358 20.8392 7.28058 20.7752 7.28158 20.7192C7.28208 20.6857 7.29258 20.6607 7.31508 20.6347C7.33758 20.6087 7.35708 20.5962 7.34858 20.5582C7.34258 20.5322 7.31858 20.5067 7.30458 20.4837C7.29208 20.4627 7.24758 20.4322 7.24808 20.4077C7.24808 20.3662 7.24858 20.3232 7.23758 20.2837C7.22708 20.2462 7.18508 20.2207 7.14808 20.2167C7.11058 20.2127 7.07058 20.2172 7.03308 20.2172C7.00008 20.2172 6.96508 20.2127 6.93408 20.2252C6.89858 20.2397 6.86908 20.2632 6.83608 20.2817C6.81708 20.2927 6.80408 20.3007 6.78858 20.3177C6.76707 20.3412 6.76558 20.3457 6.77408 20.3762C6.78458 20.4152 6.80508 20.4562 6.81958 20.4947C6.82908 20.5197 6.83158 20.5357 6.83358 20.5627C6.83508 20.5817 6.84208 20.5932 6.84558 20.6117C6.84908 20.6317 6.84858 20.6467 6.85358 20.6667C6.86008 20.6922 6.85608 20.7207 6.85608 20.7467C6.85608 20.7862 6.85608 20.8257 6.85608 20.8652C6.85608 20.9292 6.85558 20.9932 6.85608 21.0572C6.85608 21.0897 6.85708 21.1212 6.83458 21.1472C6.80158 21.1857 6.75708 21.1717 6.75508 21.2337C6.75357 21.2747 6.76257 21.3097 6.76657 21.3487C6.76957 21.3787 6.75007 21.4417 6.77758 21.4607V21.4717C6.77758 21.5142 6.77908 21.5467 6.79658 21.5867C6.81258 21.6232 6.85158 21.6537 6.88908 21.6707C6.93708 21.6922 6.95058 21.7157 6.96858 21.7642C6.97958 21.7947 6.97808 21.8227 6.98508 21.8542C6.99308 21.8877 6.99108 21.9217 6.99058 21.9562C6.99008 22.0087 7.00508 22.0377 7.03558 22.0802C7.04758 22.0977 7.05958 22.1162 7.07158 22.1332C7.08408 22.1502 7.10158 22.1617 7.11158 22.1802C7.13358 22.2207 7.12308 22.2757 7.14758 22.3122L7.15858 22.3457C7.15808 22.3857 7.17258 22.4107 7.18108 22.4487C7.18908 22.4847 7.19708 22.5218 7.20408 22.5578C7.21058 22.5893 7.20358 22.6318 7.20358 22.6643C7.20358 22.7038 7.20308 22.7433 7.20358 22.7833C7.20358 22.8088 7.19808 22.8258 7.19208 22.8498C7.18308 22.8878 7.18108 22.9213 7.18108 22.9623C7.18108 23.0168 7.17008 23.0858 7.19158 23.1363C7.20658 23.1708 7.23258 23.1963 7.26158 23.2193C7.29258 23.2438 7.31558 23.2658 7.33808 23.2983C7.37158 23.3463 7.39058 23.4138 7.41308 23.4683C7.42458 23.4963 7.43958 23.5258 7.47208 23.5338C7.50008 23.5408 7.53458 23.5233 7.56208 23.5348C7.58908 23.5458 7.61558 23.5873 7.62908 23.6118C7.63808 23.6283 7.65058 23.6403 7.66008 23.6563C7.67258 23.6773 7.67559 23.6963 7.69609 23.7128V23.7238C7.72759 23.7558 7.75309 23.7938 7.78509 23.8248C7.82159 23.8593 7.85959 23.8933 7.89809 23.9258C7.96659 23.9843 8.04009 24.0363 8.09959 24.1028C8.15309 24.1628 8.22409 24.2058 8.29059 24.2513C8.33809 24.2838 8.40709 24.3103 8.46459 24.3073C8.49759 24.3058 8.52659 24.2843 8.54759 24.2598C8.57859 24.2233 8.58459 24.2043 8.6346 24.2058C8.6846 24.2078 8.6906 24.2388 8.7266 24.2628C8.7521 24.2803 8.7921 24.2778 8.8166 24.2623C8.8806 24.2228 8.9061 24.1243 8.9986 24.1378C9.0391 24.1438 9.0826 24.1868 9.1051 24.2193C9.1296 24.2548 9.1531 24.3013 9.1866 24.3293C9.1811 24.3553 9.2106 24.3758 9.2201 24.3963C9.2306 24.4188 9.2451 24.4368 9.2591 24.4578C9.2896 24.5038 9.3201 24.5538 9.3596 24.5923C9.3991 24.6308 9.4196 24.6793 9.4556 24.7218C9.4881 24.7608 9.50161 24.8073 9.52261 24.8533C9.53961 24.8918 9.54461 24.9183 9.54461 24.9608C9.54461 24.9973 9.55411 25.0533 9.53811 25.0853C9.52011 25.1223 9.49061 25.1553 9.47711 25.1938C9.46161 25.2368 9.4656 25.2828 9.4661 25.3283C9.4666 25.3748 9.4436 25.4058 9.4346 25.4493C9.4261 25.4918 9.4206 25.5363 9.4211 25.5803C9.4216 25.6038 9.4226 25.6238 9.4106 25.6453C9.4001 25.6643 9.3846 25.6748 9.3761 25.6953C9.3556 25.7443 9.3451 25.7898 9.3091 25.8303C9.2961 25.8448 9.2871 25.8613 9.2741 25.8748C9.2566 25.8923 9.2356 25.9013 9.2201 25.9218C9.2026 25.9453 9.2026 25.9623 9.1726 25.9538C9.1461 25.9463 9.1171 25.9258 9.0966 25.9078C9.0636 25.8793 9.0301 25.8463 8.9896 25.8293C8.9676 25.8203 8.9521 25.8183 8.9286 25.8178C8.8901 25.8173 8.8896 25.8228 8.8726 25.8558C8.8376 25.9233 8.7906 26.0438 8.8551 26.1093C8.9011 26.1558 8.9831 26.1733 9.0051 26.2438C9.0261 26.3113 8.9671 26.3103 8.9176 26.3108H8.9066C8.9066 26.3643 8.9046 26.4158 8.9151 26.4678C8.9261 26.5223 8.9466 26.5718 8.9656 26.6243C9.0076 26.7438 9.0496 26.8618 9.0866 26.9838C9.1016 27.0328 9.1026 27.0853 9.1141 27.1343C9.1201 27.1588 9.1181 27.1793 9.1196 27.2048C9.1206 27.2298 9.1386 27.2538 9.1316 27.2798C9.1246 27.3063 9.0956 27.3058 9.0881 27.3393C9.0836 27.3583 9.0811 27.3948 9.0866 27.4138C9.0941 27.4408 9.1296 27.4613 9.1536 27.4738C9.1731 27.4838 9.2191 27.4933 9.2321 27.5098L9.2546 27.5323C9.2966 27.5323 9.3221 27.5793 9.3441 27.6083C9.3686 27.6403 9.4001 27.6708 9.4311 27.6953C9.4606 27.7183 9.49011 27.7358 9.52261 27.7538C9.53911 27.7628 9.56161 27.7713 9.57911 27.7763C9.61111 27.7858 9.63011 27.7973 9.65811 27.8133C9.69561 27.8343 9.73511 27.8468 9.77011 27.8738C9.80611 27.9013 9.83561 27.9323 9.87311 27.9573C9.92211 27.9903 9.96611 28.0388 10.0061 28.0818C10.0416 28.1198 10.0786 28.1628 10.1096 28.2043C10.1251 28.2253 10.1366 28.2483 10.1511 28.2698C10.1641 28.2883 10.1831 28.2988 10.1936 28.3188C10.2126 28.3563 10.2181 28.3993 10.2461 28.4333C10.2586 28.4483 10.2736 28.4578 10.2831 28.4753C10.2901 28.4878 10.2926 28.5038 10.2991 28.5173C10.3096 28.5388 10.3216 28.5598 10.3306 28.5818C10.3376 28.5988 10.3381 28.6123 10.3436 28.6293C10.3506 28.6503 10.3611 28.6658 10.3666 28.6878C10.3706 28.7053 10.3771 28.7233 10.3861 28.7388C10.4046 28.7703 10.4291 28.7913 10.4646 28.7978C10.4771 28.8003 10.4946 28.7963 10.5071 28.7968C10.5286 28.7973 10.5451 28.8053 10.5661 28.8088C10.6046 28.8148 10.6401 28.8328 10.6666 28.8643V28.8753C10.6656 28.9613 10.7216 29.0383 10.7446 29.1188C10.7641 29.1853 10.7996 29.2483 10.8206 29.3148C10.8441 29.3873 10.8501 29.4623 10.9151 29.5138C10.9471 29.5388 10.9776 29.5628 11.0136 29.5808C11.0351 29.5918 11.0386 29.6048 11.0551 29.6233C11.0701 29.6398 11.0876 29.6548 11.1031 29.6708C11.1346 29.7028 11.1666 29.7278 11.1951 29.7628C11.2366 29.8138 11.2766 29.8653 11.3166 29.9168C11.3336 29.9388 11.3356 29.9608 11.3466 29.9853C11.3531 29.9998 11.3636 30.0118 11.3696 30.0263C11.3881 30.0698 11.4011 30.1198 11.4171 30.1638C11.4296 30.1978 11.4411 30.2333 11.4531 30.2683C11.4701 30.3163 11.4806 30.3668 11.5066 30.4113C11.5276 30.4473 11.5501 30.4848 11.5966 30.4903C11.6181 30.4928 11.6341 30.4903 11.6556 30.4978C11.6781 30.5053 11.6951 30.5163 11.7196 30.5123V30.5233C11.7581 30.5188 11.7971 30.5393 11.8311 30.5538C11.8786 30.5743 11.9236 30.5963 11.9656 30.6258C12.0031 30.6523 12.0386 30.6938 12.0621 30.7333C12.0761 30.7568 12.0851 30.7803 12.1006 30.8033C12.1181 30.8288 12.1316 30.8538 12.1456 30.8818C12.1686 30.9288 12.2031 30.9708 12.2241 31.0183C12.2386 31.0513 12.2506 31.0833 12.2691 31.1148C12.2831 31.1383 12.2916 31.1658 12.3046 31.1878C12.3166 31.2078 12.3361 31.2223 12.3501 31.2403C12.3631 31.2573 12.3751 31.2698 12.3921 31.2828C12.4141 31.2998 12.4396 31.3118 12.4601 31.3303C12.4786 31.3468 12.4901 31.3618 12.5126 31.3728C12.5761 31.4033 12.6566 31.4358 12.7256 31.4423C12.7446 31.4438 12.7566 31.4508 12.7756 31.4543C12.7931 31.4573 12.8141 31.4528 12.8316 31.4533C12.8601 31.4543 12.8941 31.4623 12.9211 31.4728C12.9686 31.4908 12.9931 31.5149 13.0216 31.5544C13.0341 31.5714 13.0456 31.5829 13.0556 31.6019C13.0631 31.6159 13.0696 31.6309 13.0781 31.6444C13.1026 31.6839 13.1201 31.7314 13.1346 31.7759C13.1466 31.8114 13.1541 31.8534 13.1536 31.8909L13.1646 31.9019C13.1681 31.9249 13.1871 31.9539 13.1981 31.9739C13.2041 31.9844 13.2081 31.9954 13.2201 32.0009C13.2376 32.0089 13.2401 31.9959 13.2521 32.0159C13.2631 32.0329 13.2541 32.0674 13.2436 32.0814C13.2321 32.0964 13.1926 32.1419 13.1746 32.1429C13.1451 32.1159 13.1821 32.0724 13.1481 32.0489C13.1401 32.0434 13.1071 32.0339 13.0986 32.0379C13.0801 32.0464 13.0861 32.0609 13.0856 32.0769C13.0851 32.1149 13.0876 32.1469 13.0746 32.1824C13.0626 32.2144 13.0461 32.2414 13.0381 32.2749C13.0301 32.3089 13.0296 32.3379 13.0296 32.3729C13.0296 32.3864 13.0276 32.4014 13.0286 32.4144C13.0311 32.4424 13.0481 32.4639 13.0606 32.4884C13.0781 32.5234 13.0926 32.5564 13.1191 32.5859C13.1456 32.6149 13.1661 32.6399 13.1966 32.6639C13.2301 32.6904 13.2706 32.7019 13.3091 32.7199C13.3576 32.7419 13.4041 32.7764 13.4446 32.8104C13.4671 32.8294 13.5031 32.8669 13.5366 32.8674C13.5741 32.8679 13.5912 32.8139 13.6322 32.8094C13.7002 32.8014 13.7682 32.8129 13.8272 32.8429C13.9227 32.8914 13.9487 32.9934 14.0152 33.0679V33.0904C14.0157 33.1119 14.0257 33.1304 14.0267 33.1514C14.0277 33.1719 14.0267 33.1929 14.0267 33.2139C14.0267 33.2489 14.0217 33.2869 14.0277 33.3209C14.0352 33.3664 14.0472 33.4139 14.0497 33.4604C14.0522 33.5079 14.0492 33.5569 14.0492 33.6044C14.0492 33.6529 14.0467 33.6919 14.0297 33.7384C14.0142 33.7799 13.9962 33.8204 13.9787 33.8614C13.9612 33.9024 13.9417 33.9359 13.9312 33.9804C13.9227 34.0159 13.9182 34.0724 13.9267 34.1094C13.9672 34.1219 13.9877 34.0814 14.0157 34.1239C14.0362 34.1549 14.0407 34.1944 14.0627 34.2259C14.0847 34.2574 14.1207 34.2794 14.1392 34.3149C14.1522 34.3399 14.1602 34.3699 14.1612 34.3974C14.1627 34.4359 14.1587 34.4599 14.1387 34.4914C14.1182 34.5239 14.1067 34.5674 14.0937 34.6044C14.0837 34.6329 14.0712 34.6529 14.0717 34.6844C14.0722 34.7209 14.0717 34.7579 14.0717 34.7944V34.8004C14.0727 34.8374 14.0997 34.8619 14.1192 34.8899C14.1412 34.9214 14.1627 34.9524 14.1762 34.9884C14.1997 35.0519 14.2012 35.1094 14.1757 35.1724C14.1497 35.2374 14.1152 35.3029 14.1062 35.3719C14.0957 35.4474 14.0522 35.5169 14.0397 35.5909C14.0322 35.6359 14.0207 35.7614 14.0942 35.7524C14.1627 35.7444 14.2322 35.7199 14.3027 35.7314C14.3962 35.7464 14.4507 35.8349 14.5037 35.9029C14.5297 35.9359 14.5382 35.9749 14.5652 36.0084C14.5787 36.0249 14.5892 36.0364 14.5982 36.0554C14.6112 36.0819 14.6307 36.0959 14.6497 36.1189C14.6772 36.1524 14.7017 36.1849 14.7357 36.2124C14.7732 36.2424 14.7962 36.2754 14.8482 36.2804C14.8907 36.2844 14.9282 36.2729 14.9682 36.2689C15.0037 36.2649 15.0822 36.2594 15.1032 36.2239C15.1597 36.2239 15.2167 36.2234 15.2737 36.2239C15.3382 36.2244 15.3982 36.1969 15.4617 36.1899C15.4792 36.1879 15.4977 36.1929 15.5152 36.1909C15.5357 36.1889 15.5537 36.1799 15.5742 36.1784C15.6117 36.1759 15.6507 36.1789 15.6887 36.1789C15.7502 36.1789 15.8102 36.1759 15.8697 36.1889C15.9057 36.1969 15.9437 36.2009 15.9802 36.2094C16.0092 36.2164 16.0372 36.2224 16.0667 36.2234C16.1372 36.2254 16.2027 36.2259 16.2692 36.2434C16.4052 36.2789 16.5432 36.2909 16.6837 36.2909H16.6947C16.7667 36.2909 16.8362 36.3049 16.9047 36.3269C16.9472 36.3404 16.9877 36.3644 17.0312 36.3779C17.0782 36.3924 17.1162 36.4144 17.1657 36.4144C17.2457 36.4144 17.3197 36.3804 17.4007 36.3809C17.4497 36.3814 17.5002 36.3739 17.5462 36.3919C17.5827 36.4059 17.6157 36.4264 17.6537 36.4354C17.7277 36.4534 17.8247 36.4624 17.8942 36.4284C17.9667 36.3929 18.0402 36.3479 18.1187 36.3269C18.1952 36.3064 18.2627 36.3069 18.3287 36.3579C18.3682 36.3884 18.4032 36.4309 18.4457 36.4564C18.4842 36.4799 18.5107 36.4814 18.5552 36.4814L18.5887 36.4909C18.6877 36.4909 18.7612 36.4819 18.8357 36.5569C18.8747 36.5964 18.9092 36.6359 18.9507 36.6714C18.9907 36.7054 19.0132 36.7514 19.0492 36.7879C19.0922 36.8319 19.1377 36.8744 19.1817 36.9189C19.2177 36.9554 19.2437 36.9809 19.2967 36.9849C19.3487 36.9884 19.4037 36.9979 19.4457 37.0334C19.4897 37.0704 19.4977 37.1109 19.5087 37.1659C19.5332 37.2874 19.5392 37.3954 19.6172 37.5014C19.6532 37.5504 19.6897 37.6049 19.7372 37.6434C19.7822 37.6799 19.8042 37.7269 19.8562 37.7519C19.9052 37.7754 19.9337 37.7744 19.9877 37.7744C20.0092 37.7744 20.0327 37.7774 20.0542 37.7749C20.0747 37.7724 20.0912 37.7614 20.1102 37.7589C20.1607 37.7524 20.2252 37.7964 20.2677 37.8199C20.3202 37.8489 20.3747 37.9079 20.4317 37.9229C20.4762 37.9174 20.5092 37.9419 20.5512 37.9519C20.5892 37.9609 20.6257 37.9669 20.6627 37.9804C20.7232 38.0024 20.7812 38.0354 20.8432 38.0509C20.9077 38.0669 20.9757 38.0479 21.0397 38.0669C21.1177 38.0899 21.1797 38.1159 21.2302 38.1864C21.2482 38.2114 21.2692 38.2524 21.3042 38.2499C21.3437 38.2469 21.3657 38.1959 21.3827 38.1684C21.4212 38.1079 21.4927 38.1199 21.5577 38.1204C21.6327 38.1209 21.7127 38.1009 21.7862 38.0879C21.8522 38.0764 21.9282 38.0294 21.9952 38.0379H22.0117C22.0667 38.0379 22.1222 38.0374 22.1772 38.0379C22.2352 38.0384 22.2867 38.0649 22.3417 38.0834C22.3877 38.0989 22.4482 38.1144 22.4897 38.1399C22.5633 38.1844 22.6083 38.2594 22.6453 38.3344C22.6633 38.3709 22.6793 38.4134 22.7028 38.4469C22.7208 38.4724 22.7488 38.4879 22.7648 38.5144C22.7818 38.5424 22.7953 38.5699 22.8143 38.5979C22.8323 38.6239 22.8583 38.6469 22.8743 38.6729C22.9008 38.7159 22.9303 38.7704 22.9478 38.8189C22.9688 38.8764 22.9633 38.9359 22.9788 38.9924C22.9918 39.0384 22.9623 39.0999 22.9403 39.1409C22.9253 39.1689 22.8998 39.1874 22.8833 39.2144C22.8663 39.2419 22.8583 39.2749 22.8468 39.3049C22.8398 39.3229 22.8103 39.3694 22.8188 39.3889C22.8288 39.4124 22.8728 39.4034 22.8928 39.4039C22.9378 39.4044 23.0068 39.3889 23.0478 39.4054C23.0798 39.4184 23.0973 39.4599 23.1303 39.4749C23.1558 39.4864 23.1898 39.4919 23.2173 39.4984C23.2703 39.5109 23.3268 39.5344 23.3818 39.5359C23.4593 39.5379 23.4483 39.4794 23.4588 39.4194C23.4708 39.3499 23.5718 39.3369 23.6313 39.3374C23.6573 39.3374 23.6848 39.3404 23.7103 39.3344C23.7493 39.3254 23.7678 39.2869 23.8048 39.2799C23.8778 39.2659 23.9348 39.3394 23.9948 39.3629C24.0468 39.3834 24.1103 39.3539 24.1588 39.3794C24.2253 39.4144 24.2798 39.4824 24.3323 39.5349L24.3653 39.5844C24.4168 39.5849 24.4563 39.6419 24.4888 39.6749C24.5248 39.7114 24.5723 39.7349 24.6043 39.7749C24.6683 39.8549 24.7458 39.9619 24.8393 40.0089C24.8743 40.0264 24.9063 40.0424 24.9448 40.0449C25.0103 40.0489 25.0583 40.0729 25.1208 40.0909C25.1578 40.1014 25.1858 40.1159 25.2213 40.1314C25.2738 40.1544 25.3108 40.1819 25.3608 40.2094C25.4058 40.2344 25.4418 40.2804 25.4778 40.3169C25.5193 40.3584 25.5643 40.3979 25.6008 40.4439C25.6308 40.4814 25.6678 40.5164 25.6953 40.555C25.7163 40.5845 25.7438 40.636 25.7803 40.6515C25.8543 40.682 25.9548 40.6319 26.0313 40.6554C26.0723 40.6679 26.1243 40.735 26.1468 40.7685C26.1803 40.8185 26.2193 40.872 26.2583 40.917V40.9335C26.2933 40.952 26.3128 40.9775 26.3408 41.004C26.3648 41.027 26.3938 41.0445 26.4193 41.0655C26.4683 41.1055 26.5183 41.141 26.5673 41.181C26.6268 41.2285 26.6783 41.2885 26.7323 41.3425C26.7743 41.3845 26.8228 41.422 26.8638 41.4645C26.9128 41.515 26.9553 41.583 26.9828 41.647C27.0083 41.707 27.0473 41.754 27.0818 41.806C27.1128 41.8525 27.1303 41.909 27.1628 41.955C27.2028 42.012 27.2458 42.067 27.2753 42.132C27.3218 42.2335 27.3788 42.324 27.4433 42.4155C27.4638 42.445 27.4758 42.469 27.4928 42.5015C27.5128 42.5395 27.5213 42.5815 27.5418 42.6185C27.5613 42.6535 27.5808 42.67 27.5923 42.7085C27.6013 42.7375 27.6078 42.7675 27.6208 42.796C27.6403 42.838 27.6518 42.8815 27.6578 42.9265C27.6648 42.9795 27.6828 43.033 27.6948 43.0865C27.7198 43.1975 27.7238 43.3045 27.7238 43.4205V43.437C27.6803 43.4425 27.6008 43.471 27.5908 43.515C27.5848 43.54 27.5868 43.592 27.5948 43.6175C27.6088 43.662 27.6553 43.701 27.6753 43.743C27.6943 43.7835 27.7073 43.8205 27.7078 43.864C27.7088 43.95 27.6963 44.0435 27.7073 44.128C27.7213 44.2295 27.7863 44.2605 27.8803 44.2595C28.0723 44.258 28.2588 44.338 28.3453 44.5225C28.3863 44.61 28.4323 44.6885 28.3493 44.767C28.3163 44.798 28.2853 44.802 28.2833 44.852C28.2813 44.9005 28.2698 44.9705 28.3163 45L37.8919 43.3955C37.9559 43.3475 37.9599 43.283 38.0494 43.266C38.1099 43.2545 38.1254 43.2785 38.1774 43.307C38.2799 43.363 38.3544 43.2725 38.4494 43.288C38.4914 43.295 38.5649 43.3295 38.6089 43.303C38.6474 43.28 38.6319 43.2025 38.6249 43.166C38.6139 43.11 38.5944 43.0575 38.6109 42.9985C38.6299 42.9305 38.7039 42.873 38.7514 42.8265C38.8194 42.76 38.8714 42.6545 38.8549 42.556C38.8434 42.4865 38.7659 42.4845 38.7449 42.4155C38.7274 42.3595 38.7559 42.316 38.7629 42.264C38.7729 42.1905 38.7229 42.2105 38.6784 42.1655C38.6344 42.1205 38.6629 42.0725 38.6519 42.017C38.6224 41.8655 38.4419 41.9385 38.3399 41.8735C38.2729 41.8735 38.2059 41.8735 38.1384 41.8735C38.0899 41.8735 38.0014 41.89 37.9579 41.8755C37.9064 41.8585 37.8859 41.7675 37.8639 41.717C37.8424 41.6675 37.8339 41.617 37.8199 41.5655C37.8094 41.5265 37.7974 41.5125 37.8074 41.4715C37.8144 41.4435 37.8349 41.415 37.8424 41.3865C37.8604 41.321 37.8889 41.262 37.9094 41.1975C37.9259 41.145 37.9519 41.0555 37.9384 41.0015C37.9209 40.932 37.8394 40.939 37.8259 40.8675C37.8184 40.8285 37.8304 40.8115 37.8039 40.7775C37.7824 40.7495 37.7654 40.744 37.7359 40.7325C37.6789 40.7104 37.5884 40.7064 37.5989 40.6214C37.6079 40.5509 37.6884 40.509 37.7084 40.4419C37.7284 40.3749 37.6964 40.3319 37.6674 40.2739C37.6414 40.2224 37.6224 40.1379 37.6719 40.1044C37.6944 40.1049 37.7154 40.0999 37.7359 40.0904C37.7569 40.0819 37.7769 40.0724 37.7969 40.0614C37.8289 40.0474 37.8649 40.0379 37.8934 40.0179C38.0189 39.9299 37.9999 39.7499 38.1159 39.6589L38.1384 39.6364C38.1444 39.5944 38.1719 39.5239 38.1959 39.4904C38.2299 39.4424 38.3004 39.4154 38.3314 39.3699C38.3589 39.3289 38.3399 39.2374 38.3399 39.1879C38.3399 39.1434 38.3399 39.0989 38.3399 39.0544C38.3399 38.9709 38.3219 38.8679 38.3384 38.7869C38.3489 38.7359 38.4039 38.6949 38.4309 38.6514C38.4634 38.5994 38.4459 38.5589 38.4164 38.5044C38.3624 38.4054 38.2409 38.3519 38.2269 38.2339C38.2199 38.1744 38.2309 38.1434 38.2054 38.0889C38.1749 38.0229 38.1764 37.9989 38.2164 37.9374C38.2429 37.8964 38.2879 37.8314 38.2699 37.7799C38.2534 37.7339 38.1844 37.7149 38.1644 37.6699C38.1104 37.5479 38.2219 37.4304 38.3174 37.3779V37.4004C38.3479 37.3444 38.3804 37.3154 38.4294 37.2784C38.4789 37.2409 38.4984 37.1974 38.5134 37.1374C38.5369 37.0449 38.5409 36.9654 38.5409 36.8694C38.5409 36.7724 38.5239 36.7044 38.6079 36.6389C38.6764 36.5859 38.7669 36.6079 38.8324 36.5519C38.9004 36.4939 38.9029 36.3694 38.9964 36.3359C39.0314 36.3234 39.0644 36.3334 39.0984 36.3229C39.1319 36.3124 39.1934 36.2809 39.2229 36.2584C39.3004 36.1994 39.3169 36.1059 39.3569 36.0239C39.3994 35.9364 39.4704 35.8904 39.5659 35.8764C39.5924 35.7874 39.5379 35.7184 39.4779 35.6569Z" fill="white"/>
</svg>
