<svg width="62" height="45" viewBox="0 0 62 45" fill="none" xmlns="http://www.w3.org/2000/svg">
<path d="M61.4568 15.8422L61.2519 9.76479L61.047 1.77542V1.09256H57.9059L56.1988 1.02428H55.9939H55.5159H55.3794H52.4431H52.3748L51.5554 0.955994L50.258 0.887708L37.8983 0.682853C37.83 0.682853 37.7618 0.682853 37.7618 0.751138C37.6935 0.751138 37.6252 0.751138 37.4886 0.751138C37.352 0.751138 37.2838 0.751138 37.1472 0.751138C36.9423 0.819424 36.8058 0.819424 36.6009 0.819424L36.3278 1.02428H35.5766L35.5083 0.819424L34.4841 0.751138L32.6404 0.546282H30.7967L30.7284 0.682853V0.751138C30.7284 0.751138 30.7284 0.751138 30.7967 0.751138H30.8649C30.8649 0.751138 30.8649 0.751138 30.9332 0.751138V0.819424C30.8649 0.887709 30.8649 1.02428 30.7967 1.02428C30.7284 1.02428 30.5235 1.16085 30.5235 1.22913C30.5918 1.22913 30.5918 1.22913 30.5918 1.22913L30.6601 1.29742C30.6601 1.43399 30.4552 1.36571 30.5918 1.57056C30.6601 1.63885 30.4552 1.63885 30.4552 1.70713C30.4552 1.77542 30.5235 1.8437 30.4552 1.91199C30.3869 1.98027 30.2504 1.91199 30.1138 1.91199L28.8164 2.11684L28.953 0.477997L20.4173 0.273141L9.76479 0H7.57967L5.66768 31.2747L5.59939 31.9575L7.78452 35.3718L0 40.22L2.3217 43.9757L2.25341 44.044C2.25341 44.044 2.18513 44.1123 2.18513 44.1806V44.2489V44.3171V44.3854C2.18513 44.4537 2.18513 44.522 2.18513 44.6586V44.8634C2.18513 44.8634 2.18513 44.9317 2.18513 45C2.18513 45 2.25341 44.9317 2.3217 44.8634C2.3217 44.7951 2.38998 44.7269 2.38998 44.6586C2.45827 44.5903 2.45827 44.522 2.52656 44.4537C2.52656 44.4537 2.52656 44.4537 2.59484 44.4537H2.66313C2.73141 44.4537 2.66313 44.3171 2.66313 44.2489C2.66313 44.1806 2.73141 44.1123 2.73141 44.044C2.73141 44.044 2.7997 44.1123 2.7997 44.1806C2.7997 44.2489 2.93627 44.3854 3.00455 44.3171C3.00455 44.3171 3.00455 44.2489 3.07284 44.2489C3.14112 44.2489 3.14112 44.3171 3.20941 44.3854C3.27769 44.522 3.34598 44.1806 3.34598 44.1123C3.34598 44.044 3.34598 43.9757 3.34598 43.9757C3.34598 43.9074 3.20941 43.9074 3.20941 43.8391C3.27769 43.8391 3.34598 43.8391 3.34598 43.7709C3.27769 43.7709 3.27769 43.7026 3.27769 43.6343C3.20941 43.566 3.41426 43.6343 3.41426 43.7026C3.41426 43.7026 3.41426 43.9074 3.48255 43.9074L3.55083 43.8391C3.55083 43.9074 3.61912 44.044 3.6874 43.9074C3.6874 43.8392 3.68741 43.7026 3.75569 43.7026V43.7709L3.6874 43.9074V43.9757C3.6874 44.044 3.75569 43.9757 3.75569 43.9757C3.82398 43.9757 3.89226 43.8391 3.89226 43.8391H3.96055C4.02883 43.7709 3.96055 43.7026 4.02883 43.7026C4.02883 43.7026 4.09712 43.7026 4.09712 43.6343V43.566C4.09712 43.4977 4.09712 43.4294 4.09712 43.4294V43.3612L4.1654 43.2929C4.23369 43.2929 4.23369 43.2929 4.30197 43.2246C4.30197 43.1563 4.37026 43.0197 4.37026 42.9514C4.37026 43.0197 4.37026 43.088 4.37026 43.088V43.3612C4.37026 43.4294 4.30197 43.4977 4.37026 43.4977C4.43854 43.4977 4.50683 43.4294 4.43854 43.4977C4.43854 43.566 4.30197 43.566 4.30197 43.6343L4.37026 43.7026C4.37026 43.7709 4.37026 43.7709 4.37026 43.8391C4.43854 43.9074 4.43854 43.8391 4.50683 43.8391C4.57511 43.8391 4.57511 43.9074 4.57511 43.9074C4.57511 43.8392 4.57511 43.8391 4.57511 43.8391C4.57511 43.8391 4.6434 43.8391 4.6434 43.7709C4.6434 43.7709 4.71168 43.9074 4.71168 43.7709L4.77997 43.6343C4.77997 43.566 4.91654 43.566 4.91654 43.4294C4.91654 43.4294 4.98483 43.2929 4.98483 43.3612C4.98483 43.4294 4.98483 43.4294 5.05311 43.4294C5.18968 43.4294 5.05311 43.4294 5.1214 43.566C5.1214 43.6343 5.25797 43.7026 5.1214 43.7026V43.7709C5.1214 43.7709 5.05311 43.7709 5.05311 43.8391C5.1214 43.8391 5.1214 43.8391 5.18968 43.8391C5.18968 43.8391 5.1214 43.9757 5.05311 44.044C4.98483 44.1123 4.98483 44.3171 4.84826 44.1806C4.77997 44.1123 4.77997 43.9757 4.6434 43.9757C4.6434 44.044 4.71168 44.044 4.6434 44.1123C4.6434 44.1806 4.6434 44.2489 4.6434 44.3171C4.6434 44.3854 4.77997 44.3854 4.84826 44.3171C4.91654 44.3171 4.98483 44.3171 5.05311 44.3171C5.1214 44.3171 5.1214 44.2489 5.1214 44.1806C5.1214 44.1123 5.18968 43.9074 5.18968 43.8391C5.18968 43.7709 5.25797 43.7709 5.32625 43.7026C5.32625 43.566 5.46282 43.7026 5.53111 43.6343L5.59939 43.4977C5.66768 43.4294 5.59939 43.4294 5.59939 43.3612C5.59939 43.3612 5.66768 43.4294 5.66768 43.3612C5.73596 43.2246 5.80425 43.3612 5.80425 43.4294C5.94082 43.4294 5.80425 43.3612 5.87253 43.2929C6.0091 43.2929 5.94082 43.1563 5.94082 43.088C5.94082 43.0197 5.87253 42.9514 5.94082 42.8832C5.94082 42.9514 6.0091 43.088 6.07739 43.088C6.21396 43.0197 6.14568 43.2246 6.21396 43.1563C6.41882 43.0197 6.35053 43.6343 6.35053 43.7026C6.35053 43.8392 6.41882 43.6343 6.55539 43.6343C6.69196 43.6343 6.69196 43.566 6.69196 43.4977L6.76024 43.2246C6.76024 43.1563 6.4871 43.0197 6.62367 42.8832C6.69196 42.8149 6.89681 42.8149 6.9651 42.8149C7.03338 42.8149 7.03338 42.9514 7.03338 42.8832C7.03338 42.8832 7.10167 42.61 7.16995 42.6783C7.23824 42.7466 7.23824 42.5417 7.30652 42.5417C7.30652 42.5417 7.37481 42.5417 7.37481 42.4734V42.4052C7.30653 42.4052 7.30653 42.4052 7.23824 42.3369C7.16995 42.2686 7.16995 42.2686 7.16995 42.2003C7.16995 42.132 7.16995 42.132 7.16995 42.0637V41.9954L7.10167 41.9272L7.16995 41.9954C7.16995 42.0637 7.23824 42.0637 7.30652 42.0637C7.37481 42.0637 7.4431 42.132 7.51138 42.132L7.57967 42.2003V42.2686C7.57967 42.2686 7.51138 42.2003 7.51138 42.2686C7.51138 42.2686 7.51138 42.2686 7.4431 42.2686C7.37481 42.2686 7.37481 42.2686 7.4431 42.3369L7.51138 42.4052C7.51138 42.4734 7.51138 42.4052 7.57967 42.4734C7.57967 42.4734 7.57967 42.4734 7.57967 42.5417V42.61C7.57967 42.6783 7.57967 42.6783 7.64795 42.6783H7.71624C7.71624 42.61 7.71624 42.61 7.71624 42.5417C7.78452 42.5417 7.71624 42.4734 7.78452 42.4734C7.78452 42.5417 7.85281 42.61 7.85281 42.6783C7.85281 42.6783 7.92109 42.7466 7.92109 42.8149C7.92109 42.8832 7.92109 42.8832 7.92109 42.9514C7.98938 43.0197 7.98938 42.8149 7.98938 42.7466C7.98938 42.6783 7.98938 42.6783 7.98938 42.61C7.98938 42.61 8.05766 42.5417 8.05766 42.4734C8.12595 42.4734 8.26252 42.3369 8.12595 42.3369C8.05766 42.3369 8.05766 42.2686 8.05766 42.2686C8.12595 42.2686 8.12595 42.2686 8.19423 42.2686C8.19423 42.2686 8.26252 42.132 8.26252 42.0637C8.26252 41.9954 8.05766 42.0637 8.19423 41.9272L8.26252 41.7906V41.8589C8.26252 41.9272 8.39909 41.7906 8.46737 41.7906C8.60395 41.7223 8.39909 41.7906 8.46737 41.8589C8.67223 41.9954 8.46737 41.9272 8.39909 41.9954C8.3308 42.0637 8.46737 42.132 8.46737 42.132C8.39909 42.2003 8.53566 42.2686 8.53566 42.2686C8.53566 42.2003 8.53566 42.132 8.60395 42.0637C8.67223 42.0637 8.74052 41.9954 8.74052 41.9272C8.74052 41.8589 8.8088 41.9954 8.87709 41.9272C8.94537 41.8589 8.87709 41.7906 9.01366 41.8589C9.01366 41.8589 9.15023 41.8589 9.15023 41.9272C9.15023 41.9954 9.21851 41.9954 9.21851 41.9272C9.21851 41.8589 9.35508 41.9954 9.35508 41.9272C9.35508 41.8589 9.35508 41.7223 9.2868 41.7223C9.2868 41.7223 9.35508 41.5857 9.35508 41.5175C9.42337 41.3809 9.35508 41.3126 9.42337 41.5175C9.49165 41.7223 9.55994 41.5857 9.62822 41.4492C9.62822 41.3809 9.62822 41.3809 9.62822 41.3126C9.62822 41.2443 9.62823 41.2443 9.69651 41.176C9.7648 41.0395 9.69651 41.2443 9.83308 41.1077C9.90137 41.0395 9.96965 41.1077 9.96965 41.176C10.0379 41.3126 10.0379 41.2443 10.1745 41.2443C10.2428 41.2443 10.1745 40.9712 10.1745 40.9029C10.1745 40.8346 10.1745 40.8346 10.1745 40.7663C10.1745 40.698 10.3111 40.6297 10.1745 40.6297C10.1745 40.6297 10.1062 40.698 10.1062 40.7663C10.1062 40.7663 10.0379 40.8346 10.0379 40.7663C10.0379 40.698 10.1745 40.6297 10.1062 40.6297L10.0379 40.5615C10.0379 40.5615 10.1062 40.4932 10.0379 40.4932C10.0379 40.4932 10.1062 40.3566 10.0379 40.3566C10.0379 40.3566 10.0379 40.3566 9.96965 40.3566L9.83308 40.1517C9.90137 40.1517 9.90137 40.2883 9.96965 40.2883H10.0379C10.0379 40.2883 10.0379 40.22 10.1062 40.22C10.1062 40.22 10.1745 40.2883 10.1745 40.3566V40.4932C10.1745 40.4932 10.3111 40.4932 10.3111 40.5615V40.698V40.7663H10.3794C10.3794 40.7663 10.3794 40.8346 10.3794 40.9029C10.3794 40.9029 10.3794 40.9029 10.4476 40.9029C10.5159 40.9029 10.5159 40.8346 10.5842 40.8346C10.5842 40.8346 10.5842 40.698 10.6525 40.6297L10.7208 40.4932C10.7891 40.4249 10.6525 40.3566 10.7891 40.2883C10.8574 40.22 10.7208 40.5615 10.8574 40.4249L10.9939 40.2883C10.9256 40.2883 10.9256 40.1517 10.9256 40.0835C10.9939 40.0152 11.1305 40.0835 11.1305 40.1517H11.0622C10.9256 40.0152 11.0622 40.22 11.0622 40.22H11.1988C11.2671 40.22 11.3354 40.3566 11.4036 40.22C11.4036 40.1517 11.4719 40.22 11.4719 40.1517C11.4719 40.0835 11.4719 40.0835 11.4719 40.0152C11.4719 39.9469 11.4719 40.0835 11.4719 40.0835C11.4719 40.1517 11.0622 39.9469 11.1305 39.8786C11.1305 39.8103 10.9939 39.8103 11.1305 39.742C11.1988 39.742 11.2671 39.5372 11.2671 39.5372C11.4036 39.6737 11.3354 39.4689 11.4719 39.4006C11.4719 39.4689 11.4719 39.5372 11.4036 39.6055C11.4036 39.6737 11.3354 39.742 11.3354 39.742H11.4036C11.4719 39.742 11.5402 39.8786 11.6085 39.8786C11.6768 39.8786 11.8134 39.8786 11.8134 39.8786C11.8134 39.8786 11.8134 39.9469 11.8816 39.9469C11.9499 40.0152 12.0182 40.0835 12.0182 40.0152C12.0182 39.9469 12.0865 39.8786 12.1548 39.8103C12.2231 39.8103 12.2914 39.8103 12.2914 39.742C12.2914 39.6737 12.2914 39.6737 12.2914 39.6055C12.2231 39.6055 12.2914 39.4006 12.3596 39.3323C12.3596 39.264 12.4279 39.264 12.4279 39.1958C12.4962 39.1275 12.4962 39.1958 12.4962 39.1958C12.4962 39.1958 12.5645 39.1275 12.6328 39.1275C12.6328 39.1958 12.4279 39.3323 12.3596 39.4006C12.3596 39.4689 12.2914 39.5372 12.3596 39.5372C12.4279 39.5372 12.4962 39.5372 12.4962 39.6055C12.5645 39.6055 12.7011 39.5372 12.7011 39.6055C12.7693 39.4689 13.1791 39.3323 13.3156 39.3323C13.3156 39.3323 13.3156 39.4006 13.3839 39.4006L13.5888 39.264L13.7253 39.1958C13.7253 39.1275 13.6571 38.9909 13.7936 38.9909C13.8619 38.9909 13.9985 38.9909 13.9985 38.9226C14.0668 38.8543 14.0668 38.786 14.1351 38.7178C14.2033 38.7178 14.2716 38.5129 14.3399 38.5129C14.3399 38.6495 14.2033 38.6495 14.2033 38.6495L14.1351 38.7178C14.0668 38.786 14.2033 38.786 14.2033 38.786C14.0668 38.786 14.1351 38.8543 13.9985 38.8543H14.1351C14.2716 38.9226 14.3399 38.9909 14.3399 39.1275C14.4082 39.1275 14.4765 39.1275 14.5448 39.1275C14.6813 39.1275 14.6131 39.3323 14.8179 39.1958C14.9545 39.0592 15.1593 38.786 15.3642 38.8543C15.3642 38.8543 15.3642 38.7178 15.4325 38.7178C15.4325 38.6495 15.569 38.2398 15.7056 38.2398C15.6373 38.1715 15.6373 38.1715 15.7056 38.0349C15.7056 38.0349 15.7056 37.9666 15.7056 37.8983C15.7056 37.83 15.7056 37.83 15.6373 37.83C15.569 37.83 15.6373 37.7618 15.569 37.6935C15.569 37.6935 15.5008 37.6935 15.5008 37.6252C15.5008 37.5569 15.569 37.5569 15.569 37.5569C15.569 37.6252 15.569 37.6935 15.569 37.6935C15.569 37.7618 15.6373 37.6935 15.7056 37.7618L15.7739 37.9666C15.7739 38.0349 15.7056 38.0349 15.7056 38.1032C15.6373 38.1715 15.7739 38.1715 15.7739 38.1715C15.8422 38.1715 15.9105 38.1715 15.9105 38.1032C15.9788 38.0349 16.047 38.0349 16.047 37.9666C16.047 37.9666 15.9788 37.8983 16.047 37.83C16.1153 37.83 16.1153 37.7618 16.1153 37.7618C16.1836 37.7618 16.1836 37.7618 16.1836 37.6935V37.6252C16.047 37.6935 16.1153 37.6252 16.1836 37.4886C16.2519 37.4203 16.2519 37.4886 16.2519 37.4886C16.2519 37.5569 16.3885 37.4203 16.3885 37.352C16.4568 37.2838 16.525 37.2155 16.5933 37.1472V37.2155L16.525 37.2838C16.525 37.2838 16.525 37.352 16.4568 37.352L16.3885 37.4203L16.3202 37.4886C16.3202 37.4886 16.3202 37.4886 16.2519 37.5569V37.6252V37.6935C16.2519 37.6935 16.2519 37.6935 16.2519 37.7618V37.83C16.1836 37.8983 16.1836 37.9666 16.2519 37.9666C16.3202 37.9666 16.3202 37.83 16.3202 37.83C16.3202 37.6935 16.3202 37.6252 16.3885 37.5569C16.4568 37.4886 16.4568 37.4203 16.525 37.4203C16.5933 37.3521 16.6616 37.2838 16.7299 37.2838C16.7982 37.2838 17.0713 37.1472 17.0713 37.2838H17.1396C17.2079 37.2155 17.1396 37.1472 17.2079 37.0789C17.2762 37.0789 17.3445 37.0789 17.4127 37.0106C17.481 37.0106 17.2762 36.8058 17.2079 36.8058C17.1396 36.7375 17.0713 36.6692 17.1396 36.5326C17.1396 36.5326 17.2762 36.7375 17.3445 36.7375C17.3445 36.7375 17.4127 36.6692 17.4127 36.6009C17.5493 36.3961 17.4127 36.8058 17.481 36.8058C17.5493 36.8741 17.6859 36.9423 17.7542 37.0106C17.8907 37.0106 17.8225 36.9423 17.8225 36.8741V36.8058C17.8225 36.8058 17.8225 36.8741 17.8907 36.8058L17.959 36.7375C17.959 36.8058 17.8907 36.8741 17.8907 36.9423C17.8907 37.0789 17.8907 37.0106 18.0273 37.0106C18.0273 37.0789 17.8907 37.0789 17.8907 37.1472C18.0273 37.1472 18.0273 37.2155 18.0956 37.2838C18.1639 37.352 18.1639 37.352 18.2322 37.352C18.437 37.4886 18.3687 37.2838 18.5053 37.2155C18.5736 37.2155 18.7102 37.1472 18.7102 37.1472C18.7102 37.2155 18.5736 37.4203 18.7102 37.4203C18.7785 37.4203 18.7102 37.5569 18.7102 37.5569C18.7102 37.6252 18.2322 37.4203 18.1639 37.4203C18.0273 37.3521 17.8225 37.1472 17.7542 37.0106L17.6859 37.1472C17.6859 37.2155 17.5493 37.352 17.6859 37.352C17.7542 37.352 17.8225 37.3521 17.959 37.4203L18.3005 37.5569C18.437 37.6252 18.5053 37.6252 18.6419 37.6935C18.7102 37.7618 18.9833 37.7618 19.0516 37.7618C19.1882 37.6935 19.2564 37.6935 19.3247 37.6252C19.393 37.5569 19.393 37.5569 19.4613 37.6252C19.5296 37.6935 19.5979 37.5569 19.6662 37.5569C19.7344 37.5569 19.871 37.6935 19.871 37.6252V37.5569C19.871 37.4886 19.871 37.4886 19.871 37.4203H19.7344C19.6662 37.4203 19.6662 37.352 19.5979 37.352C19.5979 37.2155 19.7344 37.0106 19.6662 36.8741L19.5979 36.8058C19.5979 36.8058 19.5296 36.6692 19.4613 36.7375C19.4613 36.7375 19.3247 36.8058 19.3247 36.7375C19.3247 36.7375 19.393 36.6692 19.3247 36.6692C19.2564 36.6692 19.2564 36.7375 19.1882 36.7375L19.1199 36.6692C19.1199 36.6009 19.1882 36.6009 19.1882 36.6009C19.1882 36.6009 19.1882 36.4643 19.1882 36.3961C19.1882 36.3278 19.1882 36.2595 19.2564 36.2595C19.2564 36.1912 19.3247 36.1912 19.3247 36.1229C19.3247 36.0546 19.393 36.1229 19.393 36.0546C19.393 35.9863 19.393 35.9181 19.393 35.9181C19.4613 35.8498 19.5296 35.7132 19.5979 35.6449L19.6662 35.5766C19.6662 35.8498 19.7344 36.0546 19.4613 36.1229C19.2564 36.1912 19.393 36.3961 19.393 36.5326C19.393 36.6009 19.5296 36.4643 19.5296 36.4643C19.5979 36.3961 19.6662 36.3278 19.7344 36.2595C19.8027 36.2595 19.871 36.3278 19.9393 36.3278C20.0759 36.3278 20.0076 36.6009 19.9393 36.6692C19.9393 36.7375 19.871 36.7375 19.8027 36.7375C19.7344 36.7375 19.7344 36.6692 19.6662 36.7375C19.6662 36.8741 20.0076 36.7375 20.0076 36.6692V36.7375C20.0759 36.5326 20.2124 36.3961 20.2807 36.2595C20.349 36.1229 20.4173 36.0546 20.4856 35.9863C20.5539 35.9181 20.827 35.7815 20.827 35.7815C20.8953 35.7815 20.9636 35.7815 21.0319 35.7815L21.1002 35.6449C21.1684 35.4401 21.3733 35.2352 21.5781 35.2352C21.5781 35.2352 21.4416 35.1669 21.5099 35.1669C21.5781 35.1669 21.5781 35.1669 21.6464 35.2352C21.7147 35.3035 21.7147 35.1669 21.7147 35.0986C21.7147 35.0303 21.8513 34.9621 21.9196 34.9621L21.8513 35.1669C21.8513 35.2352 21.783 35.2352 21.7147 35.3035C21.7147 35.3035 21.8513 35.4401 21.8513 35.5083C21.8513 35.5083 21.9196 35.7132 21.9879 35.7132C21.9879 35.6449 21.9879 35.6449 22.0561 35.5766C22.1927 35.5083 22.261 35.4401 22.3976 35.4401C22.5341 35.4401 22.6024 35.4401 22.6024 35.5766C23.0121 35.6449 22.9439 35.0303 23.1487 34.8255C23.217 34.7572 23.3536 34.8255 23.4219 34.8255C23.4219 34.6889 23.4901 34.6206 23.4901 34.5524L23.5584 34.4158C23.5584 34.3475 23.5584 34.3475 23.5584 34.2792C23.695 34.2792 23.7633 34.4158 23.8998 34.3475C24.1047 34.2792 23.9681 34.0061 24.1047 33.9378C24.2413 33.8695 24.3096 33.8695 24.3096 33.7329C24.3096 33.6646 24.3778 33.5964 24.3778 33.5964C24.4461 33.5964 24.4461 33.5964 24.4461 33.5964C24.5144 33.5281 24.651 33.4598 24.7193 33.4598C24.9241 33.3915 25.0607 33.3915 25.1973 33.2549C25.2656 33.1866 25.4704 32.9818 25.4704 32.9135C25.4021 32.9135 25.3338 33.0501 25.2656 32.9135C25.2656 32.8452 25.1973 32.8452 25.129 32.7769C25.129 32.7769 25.129 32.7769 25.129 32.7087L25.0607 32.6404C25.0607 32.5721 25.0607 32.5721 25.0607 32.5038C25.0607 32.4355 24.9924 32.3672 24.9924 32.3672H25.129C25.1973 32.3672 25.1973 32.5038 25.2656 32.4355C25.3338 32.3672 25.4021 32.2307 25.4021 32.1624C25.4704 32.0258 25.607 31.7527 25.7436 31.7527C25.8118 31.7527 25.8801 31.7527 25.9484 31.6844C26.0167 31.6844 25.9484 31.4795 25.9484 31.4795C26.0167 31.4795 26.0167 31.6161 26.085 31.6161C26.1533 31.6161 26.2898 31.5478 26.2898 31.5478C26.2898 31.6161 26.1533 31.6844 26.085 31.6844C26.0167 31.7527 26.0167 31.7527 25.9484 31.8209C25.8801 31.8892 25.9484 32.0258 25.9484 32.1624C25.9484 32.2307 25.9484 32.2307 25.9484 32.2989C25.9484 32.3672 25.9484 32.3672 26.0167 32.4355C26.0167 32.5038 26.0167 32.5038 26.085 32.5721C26.085 32.6404 26.1533 32.7086 26.085 32.7769C26.085 32.7769 26.085 32.7769 26.0167 32.8452C26.0167 32.8452 26.0167 32.9135 25.9484 32.9135C25.9484 32.9135 25.9484 32.9135 25.9484 32.9818C26.0167 32.9818 26.085 33.0501 26.085 33.0501C26.2215 33.1184 26.2898 33.3232 26.2898 33.4598C26.2898 33.5281 26.2215 33.5964 26.1533 33.5964C26.085 33.5964 26.085 33.6646 26.0167 33.7329C25.9484 33.8012 25.9484 33.8695 25.9484 33.9378H26.0167L26.1533 34.0061C26.1533 34.0061 26.1533 34.0061 26.2215 34.0061C26.2898 34.0061 26.2898 34.0744 26.2898 34.0744L26.3581 34.0061C26.4264 33.9378 26.4947 33.9378 26.563 33.9378C26.6313 33.9378 26.6313 34.0061 26.6995 34.0061C26.7678 33.9378 26.9044 33.9378 26.9727 33.9378H27.1093C27.1775 33.9378 27.2458 33.9378 27.2458 33.9378C27.3141 33.8695 27.3141 33.8695 27.3824 33.8695C27.4507 33.8695 27.5873 33.8012 27.5873 33.7329H27.519L27.4507 33.6646C27.519 33.6646 27.5873 33.7329 27.5873 33.5964C27.5873 33.3915 27.7238 33.5281 27.7921 33.4598C27.7921 33.3915 27.9287 33.3915 27.9287 33.4598C27.9287 33.5281 27.997 33.5281 27.997 33.5281C27.9287 33.5964 27.997 33.6646 27.997 33.7329L28.0652 33.8012V33.8695L28.1335 33.8012C28.1335 33.7329 28.1335 33.7329 28.1335 33.6646C28.1335 33.5964 28.1335 33.5964 28.2018 33.5964C28.2018 33.5964 28.2018 33.5281 28.2018 33.4598C28.2018 33.3915 28.2018 33.3915 28.2018 33.3915L28.2701 33.3232L28.3384 33.1866C28.3384 33.2549 28.4067 33.2549 28.475 33.3232C28.5432 33.3232 28.5432 33.3915 28.5432 33.3232C28.6115 33.2549 28.6115 33.2549 28.6798 33.3232C28.7481 33.3232 28.8164 33.2549 28.8164 33.2549C28.8164 33.2549 28.8164 33.3232 28.8847 33.3232C28.953 33.3232 28.953 33.3232 28.8847 33.3915C28.8164 33.4598 28.8164 33.5281 28.8164 33.5964C28.7481 33.5964 28.6798 33.3915 28.6115 33.4598C28.6115 33.5281 28.5432 33.5281 28.5432 33.5281L28.475 33.5964C28.5432 33.6646 28.6115 33.5964 28.6798 33.6646C28.7481 33.7329 28.6798 33.8012 28.6798 33.8695C28.6798 33.8695 28.7481 33.8695 28.7481 33.8012C28.8164 33.8012 28.8847 33.8012 28.953 33.7329C29.0212 33.6646 29.0212 33.4598 29.1578 33.4598C29.2261 33.4598 29.2261 33.4598 29.2944 33.3915C29.3627 33.3915 29.431 33.2549 29.4992 33.3232C29.4992 33.3232 29.4992 33.3232 29.4992 33.3915L29.6358 33.1866L29.7041 33.1184C29.7041 33.1184 29.7041 33.1184 29.7724 33.1184C29.8407 33.1184 29.909 33.1184 29.9772 33.1184C30.0455 33.1184 30.0455 33.1866 30.0455 33.1866C30.1138 33.1866 30.1138 33.1184 30.1138 33.1184C30.1821 33.0501 30.1821 33.1184 30.2504 33.1184C30.3187 33.1184 30.3187 33.0501 30.3869 33.0501C30.3869 33.0501 30.4552 33.1184 30.5235 33.1184C30.6601 33.0501 30.5235 32.9135 30.6601 33.0501C30.7284 33.1184 30.7284 33.1184 30.7284 33.1866C30.7284 33.2549 30.7967 33.2549 30.7967 33.3232C30.7967 33.4598 30.7967 33.4598 30.9332 33.3915C31.0015 33.3915 31.0698 33.2549 31.1381 33.2549C31.2064 33.3232 31.2747 33.2549 31.2064 33.3232C31.2064 33.3915 31.1381 33.3915 31.1381 33.4598C31.1381 33.5281 31.2747 33.4598 31.2064 33.5964C31.2064 33.8012 31.3429 33.5281 31.3429 33.5281C31.4112 33.4598 31.4112 33.4598 31.4112 33.4598C31.4795 33.4598 31.4795 33.3915 31.4795 33.3915C31.4795 33.3915 31.4795 33.3915 31.4795 33.4598C31.5478 33.4598 31.6161 33.3232 31.6844 33.3232C31.7527 33.3232 31.7527 33.3915 31.7527 33.4598C31.7527 33.5281 31.6844 33.5281 31.6161 33.5964C31.6161 33.6646 31.6161 33.6646 31.6844 33.6646C31.8209 33.5964 31.8892 33.5281 32.0258 33.4598C32.0258 33.4598 32.0941 33.5281 32.0941 33.5964C32.1624 33.7329 31.7527 33.8695 31.7527 34.0061C31.8209 34.0061 31.8892 34.0061 31.9575 34.0061C32.0258 34.0744 31.8209 34.0744 31.8209 34.1426C31.8892 34.1426 31.9575 34.2109 32.0941 34.1426C32.1624 34.0744 32.2307 34.0061 32.2989 34.0061C32.2989 34.0744 32.2989 34.0744 32.3672 34.1426C32.4355 34.1426 32.4355 34.0744 32.4355 34.0061L32.5721 33.8012C32.5721 33.7329 32.5721 33.5964 32.6404 33.5281L32.7769 33.5964L32.8452 33.6646C32.8452 33.5964 32.8452 33.5281 32.8452 33.4598C32.8452 33.3915 32.7769 33.3915 32.8452 33.3232C32.9135 33.3232 32.8452 33.2549 32.8452 33.2549C32.8452 33.2549 32.9135 33.2549 32.9135 33.1866C32.9135 33.1184 32.9818 33.1184 32.9818 33.1184C33.0501 33.1184 33.0501 33.1184 33.0501 33.1866C33.0501 33.2549 33.1184 33.1184 33.1184 33.1184C33.1184 33.1184 33.1866 32.9818 33.2549 32.9818C33.2549 33.0501 33.3232 33.1184 33.3915 33.1866C33.3915 33.2549 33.4598 33.2549 33.4598 33.2549C33.5281 33.2549 33.5964 33.2549 33.7329 33.2549C33.8012 33.2549 33.9378 33.1866 34.0061 33.1866C34.0744 33.1866 34.2792 33.1866 34.2792 33.1184C34.3475 33.1184 34.3475 33.0501 34.4158 33.0501C34.5524 32.9818 34.8938 32.9818 35.0303 33.1184C35.0986 33.1184 35.0986 33.0501 35.1669 33.0501C35.2352 33.0501 35.3035 33.1184 35.3035 33.1184C35.4401 33.1184 35.5766 33.0501 35.7132 33.0501C35.7815 33.0501 35.8498 33.0501 35.9181 33.0501C35.9863 33.0501 36.0546 33.1184 36.1229 33.1184C36.1912 33.1866 36.2595 33.2549 36.3278 33.2549C36.3961 33.3232 36.4643 33.3915 36.5326 33.4598C36.7375 33.5964 36.9423 33.8012 37.0789 34.0061C37.0789 33.9378 37.1472 33.9378 37.2155 33.9378H37.2838V33.8695C37.2838 33.8012 37.2838 33.8012 37.2838 33.7329C37.2155 33.6646 37.2838 33.5964 37.352 33.5281C37.352 33.4598 37.4203 33.4598 37.4203 33.4598L37.4886 33.3915C37.4203 33.3915 37.352 33.4598 37.2838 33.5281C37.2155 33.5964 37.1472 33.6646 37.1472 33.7329L37.0789 33.6646C37.0789 33.6646 37.0106 33.6646 37.0106 33.5964C37.0106 33.5964 36.8741 33.4598 36.9423 33.4598H37.0106C37.0789 33.4598 37.1472 33.3232 37.2155 33.3232C37.2838 33.3232 37.2838 33.3232 37.2838 33.3232C37.352 33.3232 37.2838 33.2549 37.352 33.2549C37.4203 33.2549 37.4886 33.2549 37.5569 33.1866C37.6252 33.1866 37.6935 33.1184 37.6935 33.1866L37.7618 33.5964C37.7618 33.5964 38.0349 33.4598 37.9666 33.5281C37.8983 33.5964 37.7618 33.5964 37.7618 33.6646C37.83 33.6646 37.9666 33.5964 38.0349 33.6646H38.1032C38.1715 33.6646 38.1032 33.5964 38.1032 33.5964C38.1032 33.4598 38.308 33.3232 38.4446 33.1866C38.5129 33.1866 38.5812 33.1184 38.6495 33.0501C38.786 32.9818 38.8543 33.0501 38.9909 33.0501C39.0592 33.0501 39.0592 33.0501 39.1275 33.0501C39.1958 33.0501 39.1958 33.0501 39.1958 32.9818C39.264 33.0501 39.3323 33.0501 39.3323 32.9818C39.3323 32.9135 39.4689 32.8452 39.5372 32.7769C39.6737 32.6404 39.8103 32.6404 40.0152 32.6404C40.1517 32.6404 40.4249 32.7086 40.5615 32.8452L40.6297 32.9135C40.6297 32.9135 40.698 32.9135 40.7663 32.9135C40.8346 32.8452 40.8346 32.8452 40.9029 32.7769C40.9712 32.7086 41.0395 32.7086 41.1077 32.7769H41.176C41.2443 32.8452 41.2443 32.8452 41.3126 32.7769C41.3809 32.7086 41.4492 32.7769 41.5175 32.7769C41.5857 32.7769 41.5857 32.7769 41.5857 32.7087C41.5857 32.7087 41.5857 32.5721 41.654 32.5721C41.654 32.6404 41.654 32.7087 41.654 32.7087C41.7223 32.7087 41.7906 32.6404 41.7906 32.7087C41.7906 32.7769 41.7906 32.9135 41.7906 32.9818C41.7906 33.0501 41.7906 33.1866 41.7906 33.2549C41.7223 33.2549 41.7223 33.0501 41.7223 32.9818C41.7223 32.9135 41.7223 32.8452 41.654 32.8452L41.5175 32.7769C41.5175 32.8452 41.5857 32.9135 41.5857 32.9818C41.5857 33.0501 41.654 33.1184 41.654 33.1866L41.7223 33.2549C41.7223 33.2549 41.7223 33.2549 41.7223 33.3232C41.7223 33.3915 41.7223 33.3915 41.7223 33.4598C41.7906 33.4598 41.8589 33.3915 41.9272 33.3232C42.0637 33.2549 42.2003 33.3915 42.3369 33.3232C42.4052 33.3232 42.4734 33.1866 42.5417 33.1866C42.61 33.1184 42.7466 33.1184 42.8149 33.1184C42.8832 33.1184 42.9514 33.1184 43.0197 33.1184C43.088 33.1184 43.1563 33.1866 43.1563 33.1866V33.1184V33.0501C43.1563 33.0501 43.088 33.0501 43.088 32.9818V32.8452C43.088 32.8452 43.0197 32.9135 42.9514 32.9818C42.8832 33.0501 42.7466 32.8452 42.6783 32.9818C42.61 33.1184 42.5417 33.0501 42.4052 33.0501C42.3369 33.0501 42.2003 33.1184 42.2003 33.0501C42.2003 32.9135 42.2686 32.8452 42.3369 32.7769C42.4052 32.7086 42.4052 32.7769 42.5417 32.7769C42.5417 32.7769 42.61 32.7769 42.6783 32.7769C42.7466 32.8452 42.7466 32.7769 42.8832 32.7769C42.9514 32.7769 43.0197 32.7769 43.088 32.7769C43.1563 32.7769 43.088 32.7087 43.088 32.7087C43.0197 32.6404 43.0197 32.5038 42.9514 32.4355C42.8832 32.2989 42.7466 32.5038 42.61 32.5721C42.4052 32.7086 42.4734 32.5038 42.4734 32.3672C42.4734 32.2989 42.4734 32.2989 42.4734 32.2989C42.4734 32.2307 42.5417 32.2307 42.5417 32.1624C42.5417 32.0941 42.61 32.0941 42.61 32.0941C42.6783 32.1624 42.61 32.2307 42.6783 32.2307L42.7466 32.2989L42.8149 32.3672C42.8149 32.2307 42.8149 32.0941 42.8832 32.0258C42.8832 31.9575 42.8832 31.8892 42.9514 31.8209C42.9514 31.7527 42.9514 31.6844 43.0197 31.6161C43.088 31.4795 43.1563 31.2747 43.1563 31.0698L43.3612 31.1381L43.2929 31.2064C43.3612 31.2747 43.2929 31.4112 43.2929 31.4795C43.2929 31.5478 43.2929 31.5478 43.2929 31.6161C43.2929 31.6844 43.2929 31.6844 43.2929 31.7527C43.2929 31.8209 43.3612 31.9575 43.4294 32.0258C43.4294 32.0258 43.4294 32.0941 43.4977 32.0941C43.4977 32.0941 43.566 32.1624 43.6343 32.1624C43.566 32.1624 43.4977 32.0941 43.4977 32.0941C43.4977 32.1624 43.566 32.3672 43.566 32.4355C43.566 32.5038 43.6343 32.5721 43.6343 32.5721C43.6343 32.6404 43.7709 32.7087 43.7709 32.7087C43.7709 32.7087 43.8391 32.7769 43.8391 32.8452C43.9074 32.8452 43.9074 32.9135 43.9757 32.8452C44.044 32.7769 44.044 32.6404 44.044 32.5721C44.044 32.5038 44.044 32.4355 43.9757 32.3672C43.9757 32.2989 43.9074 32.2989 43.9074 32.2307C43.9074 32.1624 43.9074 32.1624 43.9074 32.0941C43.9074 32.0941 43.8391 32.0258 43.7709 31.9575C43.7026 31.8892 43.7026 31.8892 43.6343 31.8209V31.7527L43.7026 31.8209C43.7026 31.8209 43.8391 31.6844 43.8391 31.7527C43.7709 31.8892 43.9074 31.9575 43.9757 32.0941C43.9757 32.1624 43.9757 32.2307 44.044 32.2989L44.1123 32.4355C44.1806 32.4355 44.2489 32.3672 44.3171 32.3672C44.3854 32.3672 44.3854 32.2989 44.4537 32.2989C44.522 32.2989 44.4537 32.3672 44.3854 32.4355C44.3171 32.5038 44.2489 32.5038 44.1806 32.5721C44.1123 32.6404 44.2489 32.6404 44.2489 32.7087C44.2489 32.7087 44.3171 32.7086 44.3171 32.7769C44.3171 32.7769 44.3171 32.8452 44.3854 32.8452C44.3854 32.8452 44.1123 32.7769 44.1806 32.8452C44.2489 32.8452 44.3171 32.9135 44.3854 32.9135C44.4537 32.9135 44.4537 32.8452 44.522 32.8452C44.5903 32.8452 44.6586 32.8452 44.7269 32.8452H44.7951C44.7951 32.8452 44.8634 32.8452 44.9317 32.8452C45 32.8452 45.0683 32.8452 45.2049 32.7769C45.2731 32.7769 45.3414 32.7087 45.3414 32.7087C45.4097 32.6404 45.6146 32.6404 45.6829 32.6404C45.7511 32.6404 45.7511 32.6404 45.8194 32.6404L45.8877 32.7087C45.8877 32.7087 45.956 32.6404 46.0243 32.6404C46.0243 32.6404 46.0926 32.6404 46.0926 32.5721C46.1608 32.5721 46.1608 32.4355 46.1608 32.4355C46.1608 32.4355 46.2291 32.4355 46.2974 32.3672C46.2974 32.2989 46.2974 32.1624 46.2291 32.1624C46.1608 32.0941 46.2974 32.0258 46.2974 31.9575C46.2974 31.9575 46.3657 32.0941 46.434 32.1624C46.434 32.1624 46.434 32.0941 46.5023 32.0941C46.5706 32.0258 46.7071 31.9575 46.7754 32.0258C46.8437 32.0258 46.8437 32.0258 46.912 32.0941C46.912 32.0941 46.912 32.1624 46.912 32.2307C46.912 32.0941 47.0486 32.1624 47.1168 32.0941C47.1168 32.0258 47.1851 32.0258 47.1851 31.9575C47.1851 31.8892 47.2534 31.8892 47.2534 31.8209V31.7527C47.2534 31.6844 47.2534 31.6844 47.2534 31.6161C47.7997 31.4112 47.7997 31.4112 47.7997 31.3429C47.7997 31.4795 47.7997 31.5478 47.7997 31.6844C47.7997 31.8209 47.868 31.8892 47.868 32.0258C47.868 32.0258 47.9363 32.0941 47.9363 32.1624C47.868 32.1624 47.868 32.1624 47.7997 32.1624C47.7997 32.1624 47.868 32.1624 47.868 32.2307C48.0046 32.2989 47.9363 32.3672 48.0046 32.4355C48.0046 32.5038 48.1411 32.5038 48.2094 32.5038C48.346 32.5038 48.346 32.2307 48.346 32.1624C48.346 32.0941 48.346 32.0258 48.2777 31.9575C48.2777 31.8892 48.2777 31.8209 48.2777 31.6844C48.2777 31.6161 48.2777 31.5478 48.2777 31.5478C48.2777 31.5478 48.346 31.4795 48.346 31.4112C48.2777 31.4112 48.346 31.2747 48.346 31.2064C48.4143 31.1381 48.4143 31.1381 48.4825 31.0698V31.0015C48.5508 30.8649 48.7557 30.7967 48.824 30.7967H48.8923C48.8923 30.7967 48.9605 30.7967 48.9605 30.8649C49.0288 30.8649 48.9605 30.8649 49.0288 30.7967C48.9605 30.7967 48.8923 30.7967 48.8923 30.7284C48.8923 30.7284 48.824 30.7284 48.8923 30.6601C48.8923 30.5918 48.824 30.6601 48.824 30.5918C48.824 30.5235 48.8923 30.5235 48.8923 30.5235C48.9605 30.4552 48.8923 30.3187 48.824 30.1821H48.7557C48.7557 30.2504 48.7557 30.3187 48.6874 30.3187H48.6191V30.1138H48.6874C48.7557 30.1138 48.7557 30.1138 48.7557 30.0455C48.7557 29.9772 48.6874 29.909 48.6874 29.909C48.6191 29.909 48.6191 29.909 48.6191 29.8407C48.6191 29.7041 48.6191 29.6358 48.6191 29.4992C48.6191 29.431 48.6191 29.3627 48.6191 29.3627C48.6191 29.2944 48.5508 29.2261 48.5508 29.2261C48.5508 29.1578 48.5508 29.1578 48.5508 29.1578C48.5508 29.0895 48.4825 29.0895 48.4825 29.0212L48.5508 28.953V29.0212C48.5508 29.0212 48.6191 29.0895 48.6191 29.1578C48.6191 29.2261 48.6191 29.2261 48.6191 29.2261C48.6874 29.2944 48.6191 29.3627 48.6874 29.431V29.4992C48.6874 29.5675 48.6874 29.4992 48.6874 29.5675V29.6358C48.6874 29.7041 48.7557 29.7041 48.7557 29.7724C48.7557 29.7724 48.6874 29.8407 48.7557 29.8407C48.7557 29.8407 48.824 29.8407 48.8923 29.8407C48.9605 29.8407 48.9605 29.7724 48.9605 29.7041C48.9605 29.7041 49.0288 29.6358 49.0971 29.6358C49.0971 29.7041 49.0971 29.7041 49.0971 29.7724C49.0971 29.8407 49.1654 29.909 49.1654 29.9772C49.1654 30.0455 49.2337 30.0455 49.2337 30.1138C49.2337 30.1821 49.1654 30.1821 49.1654 30.2504C49.1654 30.3187 49.1654 30.3869 49.1654 30.4552C49.1654 30.5235 49.0971 30.5235 49.0971 30.5235C49.0288 30.5918 49.0971 30.5918 49.0971 30.5918C49.0971 30.5918 49.1654 30.6601 49.1654 30.7284C49.1654 30.7967 49.0288 30.7284 49.0288 30.7967V30.8649V30.9332C49.0288 30.9332 49.0288 31.0015 49.0288 31.0698C49.0288 31.1381 49.0971 31.1381 49.0971 31.1381C49.1654 31.2064 49.1654 31.2747 49.1654 31.3429C49.1654 31.4112 49.0971 31.4795 49.1654 31.4795C49.2337 31.4795 49.2337 31.4795 49.302 31.5478C49.302 31.6161 49.302 31.6161 49.3703 31.6161C49.4385 31.6161 49.3703 31.6844 49.4385 31.6844C49.4385 31.6844 49.5068 31.6844 49.5068 31.6161C49.5068 31.6161 49.5751 31.6161 49.5751 31.5478C49.5751 31.5478 49.5068 31.5478 49.5068 31.4795C49.5068 31.4112 49.4385 31.4112 49.4385 31.3429C49.4385 31.2747 49.5068 31.3429 49.5068 31.2747C49.5751 31.2747 49.5751 31.2064 49.5751 31.1381L49.7117 31.0698C49.6434 31.0698 49.5751 31.0015 49.7117 31.0015C49.78 31.0015 49.78 31.0698 49.8483 31.0015C49.9165 30.9332 49.8483 30.8649 49.9165 30.7967C49.9848 30.7284 49.9165 30.7967 49.9165 30.8649C49.9165 30.9332 49.9165 31.0015 49.9165 31.1381L49.8483 31.2064L49.9165 31.2747C49.9165 31.3429 49.9165 31.3429 49.9165 31.4112C49.9165 31.4795 49.9848 31.4795 49.9848 31.5478C50.0531 31.6161 49.9848 31.6161 50.0531 31.6844C50.0531 31.6844 50.1214 31.6844 50.1897 31.6844C50.1897 31.6844 50.1897 31.7527 50.258 31.7527H50.3262H50.3945C50.4628 31.7527 50.5311 31.6844 50.5311 31.6844C50.5994 31.6844 50.736 31.6844 50.8042 31.6844C50.8725 31.6844 50.9408 31.7527 51.0091 31.7527L51.1457 31.6161C51.214 31.6161 51.214 31.5478 51.2822 31.5478C51.4188 31.5478 51.3505 31.4795 51.4188 31.4112L51.4871 31.3429H51.5554C51.5554 31.3429 51.5554 31.2064 51.5554 31.1381C51.6237 31.0698 51.692 31.0698 51.692 31.0015C51.692 30.8649 51.7602 30.7967 51.692 30.7284C51.692 30.6601 51.6237 30.6601 51.6237 30.5918C51.5554 30.5235 51.5554 30.4552 51.4871 30.3869C51.4871 30.3869 51.4871 30.3187 51.4188 30.2504C51.3505 30.2504 51.3505 30.1821 51.3505 30.1821C51.4188 30.1138 51.4188 30.1138 51.4871 30.1138L51.5554 30.0455C51.5554 30.0455 51.6237 29.8407 51.5554 29.8407C51.4871 29.8407 51.4871 29.7724 51.4188 29.7041L51.4871 29.6358C51.5554 29.5675 51.6237 29.5675 51.6237 29.431C51.6237 29.3627 51.5554 29.2944 51.5554 29.2944C51.5554 29.2944 51.7602 29.431 51.692 29.2944C51.692 29.2944 51.692 29.2261 51.692 29.1578V29.0895L51.8285 29.0212C51.8285 29.0895 51.8285 29.1578 51.8285 29.2261V29.4992C51.8285 29.5675 51.8285 29.5675 51.8968 29.6358L51.9651 29.7041H51.8968V29.7724C51.9651 29.8407 51.8968 29.7724 51.8968 29.8407C51.8968 29.8407 51.8968 29.909 51.9651 29.909C52.0334 29.9772 52.0334 30.0455 52.0334 30.1138C52.0334 30.1821 52.0334 30.3187 52.0334 30.3869C52.0334 30.4552 52.0334 30.4552 52.1017 30.5235C52.1017 30.5235 52.1017 30.6601 52.17 30.6601V30.7284C52.3065 30.7967 52.17 30.8649 52.2382 30.9332C52.2382 30.9332 52.3065 30.9332 52.3748 30.9332C52.4431 30.9332 52.5114 30.9332 52.5797 31.0015V31.1381L52.7845 31.0698V31.0015C52.7845 30.9332 52.7845 30.9332 52.8528 30.9332C52.8528 30.9332 52.8528 31.0698 52.9211 31.0698V30.9332V30.7284C52.9211 30.6601 52.9211 30.5918 52.9211 30.6601C52.9211 30.6601 53.0577 30.7284 52.9894 30.7284C52.9211 30.7967 52.9894 30.7967 52.9211 30.8649C52.9211 30.9332 53.0577 30.7967 53.0577 30.7967C53.0577 30.7967 53.0577 30.8649 53.0577 30.9332C53.0577 31.0015 53.126 30.9332 53.126 30.9332C53.126 30.9332 53.1259 30.8649 53.1942 30.8649C53.2625 30.8649 53.2625 30.7284 53.2625 30.6601C53.2625 30.5918 53.3991 30.6601 53.3991 30.5918C53.4674 30.5235 53.3991 30.5235 53.4674 30.4552C53.5357 30.3869 53.4674 30.3187 53.4674 30.2504C53.4674 30.1821 53.3991 29.9772 53.3991 29.909L53.5357 30.1821C53.5357 30.2504 53.4674 30.2504 53.5357 30.3187C53.6039 30.387 53.6039 30.4552 53.5357 30.5235C53.4674 30.7284 53.3991 30.7967 53.2625 30.9332C53.1259 31.0015 53.3991 31.0698 53.3991 31.1381C53.3991 31.2064 53.3991 31.2747 53.5357 31.2747C53.6039 31.2747 53.6039 31.3429 53.6722 31.2747C53.6722 31.2064 53.6722 31.2064 53.7405 31.1381C53.7405 31.0698 53.8088 31.1381 53.8771 31.0698C53.8771 31.0698 53.9454 31.0015 54.0137 31.0015C54.0137 31.0015 54.0137 31.0015 53.9454 30.9332V30.7967C53.8771 30.7967 53.9454 30.6601 53.9454 30.5918C53.9454 30.5235 53.9454 30.5235 53.9454 30.4552C53.9454 30.3869 53.9454 30.387 53.9454 30.3187C54.0137 30.3187 54.0137 30.3869 54.0137 30.3869C54.0137 30.4552 54.0137 30.5235 54.0137 30.5235C54.0137 30.5918 54.1502 30.5235 54.1502 30.5918C54.1502 30.6601 54.2185 30.7284 54.2185 30.7284C54.2185 30.7967 54.2185 30.7967 54.2868 30.7967C54.3551 30.7967 54.2868 30.9332 54.2868 30.9332L54.1502 31.0015C54.2185 31.0015 54.2185 31.0015 54.2185 31.0698C54.2868 31.0698 54.3551 31.0698 54.3551 31.1381C54.3551 31.2064 54.3551 31.2747 54.3551 31.3429C54.4234 31.3429 54.4234 31.2747 54.4917 31.2747L54.5599 31.3429V31.2747C54.6282 31.1381 54.5599 31.0015 54.6282 30.8649V30.7967C54.6282 30.7284 54.6965 30.7967 54.6282 30.7284C54.6282 30.6601 54.6282 30.6601 54.5599 30.5918L54.4917 30.6601L54.4234 30.5918C54.4917 30.5918 54.4917 30.5918 54.4917 30.5235C54.5599 30.5235 54.5599 30.5235 54.5599 30.4552C54.6282 30.5235 54.6965 30.7967 54.6965 30.9332C54.6965 30.9332 54.6965 30.7284 54.7648 30.7967C54.7648 30.7967 54.7648 30.7967 54.8331 30.8649L54.9014 30.7967C54.9014 30.7967 54.9697 30.9332 54.9697 31.0015V31.0698C55.0379 31.1381 55.0379 31.0015 55.0379 30.9332C55.0379 30.8649 55.0379 30.7967 55.1062 30.7284C55.1062 30.7284 55.2428 30.6601 55.1745 30.5918C55.1062 30.5235 55.1745 30.5235 55.1745 30.4552L55.1062 30.5235C55.1062 30.5235 54.9697 30.4552 54.9697 30.3869C54.9697 30.3869 55.0379 30.1138 55.1062 30.1821C55.1062 30.2504 55.1062 30.3187 55.1745 30.3187C55.1745 30.3187 55.2428 30.2504 55.3111 30.2504V30.1821V30.1138C55.3794 30.1138 55.3794 29.909 55.4476 29.9772C55.4476 30.0455 55.5159 29.9772 55.5159 29.9772L55.5842 29.909C55.5159 29.909 55.5159 29.8407 55.5159 29.8407C55.5159 29.7724 55.5842 29.7724 55.5842 29.7724C55.5842 29.7724 55.6525 29.7041 55.7208 29.7041C55.7208 29.7041 55.6525 29.8407 55.7208 29.909C55.7891 29.909 55.7891 29.8407 55.8574 29.8407H55.9256L55.9939 29.7724C55.9939 29.8407 55.9939 29.8407 55.9256 29.8407C55.9256 29.909 55.9939 29.9772 55.9939 30.0455V30.1138C55.9939 30.1138 55.9256 29.9772 55.9256 30.0455C55.9256 30.1138 55.8574 30.1821 55.7891 30.1138C55.7891 30.1138 55.7208 30.1138 55.7208 30.1821C55.6525 30.1821 55.6525 30.1138 55.6525 30.1138C55.6525 30.1821 55.6525 30.1821 55.5842 30.2504C55.5159 30.3187 55.5842 30.3187 55.5842 30.3187C55.6525 30.387 55.5842 30.4552 55.5842 30.5235C55.5159 30.5918 55.5159 30.5918 55.5159 30.6601C55.5159 30.6601 55.6525 30.4552 55.6525 30.5235C55.6525 30.5918 55.5842 30.6601 55.5842 30.7284L55.6525 30.6601C55.6525 30.7284 55.6525 30.7967 55.6525 30.8649C55.6525 30.8649 55.6525 30.9332 55.6525 31.0015L55.7208 30.8649C55.8574 30.7284 55.7891 30.9332 55.8574 31.0015L55.9256 30.9332C55.9256 30.9332 55.9256 30.8649 55.8574 30.8649C55.7891 30.7284 55.9256 30.5235 55.8574 30.3187C55.8574 30.2504 55.8574 30.2504 55.8574 30.1821C55.8574 30.1821 55.8574 30.1138 55.9256 30.1138C55.9256 30.1138 55.9256 30.1821 55.9939 30.1821C56.0622 30.1821 56.0622 30.1821 56.1305 30.1138C56.1988 30.0455 56.1305 30.1138 56.1988 30.1138C56.1988 30.1138 56.2671 30.1138 56.3354 30.1138C56.4036 30.1821 56.3354 30.1821 56.2671 30.2504C56.2671 30.2504 56.2671 30.3187 56.1988 30.3187L56.1305 30.2504L56.0622 30.3869C56.0622 30.4552 56.1305 30.3187 56.1305 30.3869C56.1305 30.4552 56.1305 30.4552 56.1305 30.5235C56.1305 30.5918 56.1988 30.4552 56.1988 30.4552C56.1988 30.4552 56.1305 30.3869 56.1988 30.3869C56.2671 30.3187 56.3354 30.387 56.4036 30.3187C56.4036 30.2504 56.4719 30.1821 56.4719 30.1821C56.4719 30.1821 56.4719 30.1821 56.4719 30.2504C56.5402 30.2504 56.5402 30.2504 56.5402 30.1821C56.5402 30.1821 56.5402 30.1821 56.6085 30.1821C56.6085 30.1821 56.6085 30.1821 56.6768 30.1821C56.7451 30.1821 56.7451 30.1821 56.7451 30.1138C56.7451 30.1138 56.7451 29.9772 56.8134 29.9772C56.8134 29.9772 56.8134 30.0455 56.8134 30.1138C56.8134 30.1821 56.8816 30.1138 56.8816 30.1821V30.3187L56.9499 30.2504C56.9499 30.2504 56.9499 30.3869 57.0182 30.3869C57.0865 30.3187 57.0865 30.3187 57.1548 30.3187C57.1548 30.387 57.0865 30.3869 57.0865 30.3869V30.4552L57.1548 30.3869C57.1548 30.4552 57.1548 30.4552 57.1548 30.5235C57.1548 30.5235 57.2231 30.4552 57.2914 30.3869C57.3596 30.3187 57.2914 30.1821 57.2914 30.1138C57.2914 30.0455 57.2914 29.9772 57.2914 29.909C57.2231 29.909 57.1548 29.909 57.1548 29.909C57.1548 29.909 57.2231 29.8407 57.2231 29.7724L57.2914 29.7041C57.3596 29.6358 57.3596 29.6358 57.3596 29.7041V29.7724H57.2914C57.3596 29.7724 57.3596 29.7724 57.3596 29.8407C57.4279 29.8407 57.4962 29.7724 57.4962 29.7724C57.4962 29.7724 57.4962 29.6358 57.5645 29.6358C57.5645 29.7041 57.5645 29.7041 57.5645 29.7724V29.909C57.4962 29.909 57.4962 29.909 57.4962 29.909C57.4962 29.9772 57.4962 29.9772 57.4279 29.9772C57.4279 30.0455 57.3596 29.9772 57.4279 30.0455C57.4962 30.1138 57.4279 30.1821 57.4279 30.2504C57.4279 30.3187 57.3596 30.3187 57.4279 30.3187C57.4962 30.387 57.4962 30.3869 57.4962 30.4552C57.4962 30.5235 57.5645 30.5235 57.5645 30.5918C57.5645 30.5235 57.5645 30.4552 57.6328 30.3869C57.7011 30.3187 57.7011 30.3187 57.7693 30.2504C57.8376 30.2504 57.8376 30.2504 57.8376 30.2504H57.9059C57.9742 30.2504 58.0425 30.1138 58.0425 30.0455C58.0425 30.0455 58.1108 30.1138 58.1108 30.0455C58.1108 29.9772 58.1108 29.9772 58.1791 29.9772C58.3156 29.909 58.2473 29.8407 58.3156 29.7724V29.6358C58.3156 29.5675 58.3156 29.5675 58.3839 29.5675C58.3839 29.5675 58.3839 29.6358 58.3839 29.7041C58.3839 29.7724 58.3839 29.7724 58.3839 29.8407C58.4522 29.8407 58.4522 29.8407 58.4522 29.8407C58.4522 29.909 58.4522 29.9772 58.4522 30.0455C58.4522 30.1138 58.4522 30.1138 58.4522 30.1821C58.5205 30.2504 58.5205 30.3187 58.5888 30.1821C58.5888 30.1138 58.5888 30.1821 58.6571 30.1821H58.7253C58.7253 30.1821 58.7253 30.2504 58.6571 30.2504C58.6571 30.3187 58.7253 30.2504 58.7253 30.3187C58.7253 30.3187 58.7253 30.3187 58.7253 30.3869L58.7936 30.3187C58.7936 30.3187 58.8619 30.3869 58.9302 30.3869H58.8619L58.7253 30.5235C58.7253 30.5235 58.6571 30.6601 58.7253 30.5918C58.7936 30.5235 58.8619 30.4552 58.7936 30.5918C58.8619 30.5918 58.7936 30.5918 58.7936 30.5235C58.7936 30.5235 58.7936 30.4552 58.8619 30.4552L58.9302 30.6601L58.9985 30.7967L59.0668 30.7284C59.0668 30.6601 59.0668 30.6601 59.1351 30.6601C59.2033 30.6601 59.2033 30.5235 59.2716 30.5235H59.3399C59.5448 30.4552 59.8179 30.2504 59.8862 30.1138C59.9545 30.0455 59.9545 30.0455 59.9545 29.9772V29.909C59.9545 29.7724 59.9545 29.8407 59.8862 29.8407C59.8179 29.8407 59.8862 29.7041 59.8862 29.7041C59.8862 29.7041 59.8179 29.7041 59.7496 29.7041C59.7496 29.7041 59.7496 29.6358 59.7496 29.5675C59.7496 29.4992 59.6131 29.4992 59.6813 29.431C59.6813 29.3627 59.7496 29.2944 59.8179 29.2944V29.0895C59.8862 29.0212 60.0228 28.953 59.9545 28.8164C59.9545 28.7481 59.8862 28.6798 59.8862 28.6115C59.9545 28.475 59.8862 28.475 59.8862 28.3384C59.8862 28.2701 59.8862 28.0652 59.8179 28.0652C59.7496 28.0652 59.7496 27.997 59.6813 27.997C59.6813 27.8604 59.5448 27.8604 59.6131 27.7238C59.6813 27.5873 59.4765 27.3824 59.6131 27.1775C59.6813 27.1093 59.8179 27.1093 59.9545 27.1093C60.0228 27.041 60.091 27.041 60.2276 26.9727C60.4325 26.8361 60.5008 26.7678 60.7056 26.9044C60.8422 26.9727 61.1153 27.1093 61.047 26.8361L61.4568 17.481V15.8422Z" fill="white"/>
</svg>
