<svg width="37" height="45" viewBox="0 0 37 45" fill="none" xmlns="http://www.w3.org/2000/svg">
<path d="M0.764404 13.4095L14.12 0L36.4409 22.4995L21.0795 38.186L14.4183 45L14.3176 44.2451V43.7378L14.3983 43.3433L14.3684 43.0051L14.4378 42.442L14.689 41.7655L14.771 41.3148V40.8075L14.8685 39.6808L14.3176 39.5679V39.2301L14.3036 38.8357L14.3176 38.5537V38.2159L14.4264 37.8777L14.372 37.5957L14.3176 37.2579V36.9197L14.4546 36.469L14.3403 36.0745L14.0855 35.6801L13.6484 35.7363L13.4861 35.3419L13.3768 34.8912L13.4349 34.553L13.5487 34.2147L14.0003 34.1018H14.2818L14.62 33.9753L15.0707 33.9259L15.2602 33.7609L15.2244 33.2572V32.9189L15.3808 32.5245L15.6778 32.0738V31.7356L14.4024 28.9182L14.4546 28.6743L14.528 28.4489L14.4518 28.2236L14.4138 27.923L14.3009 27.66L14.1503 27.3218L13.9626 27.0589L13.7749 26.8335L13.5868 26.6458L13.3238 26.4953L13.1361 26.7206L13.2866 27.0589L13.249 27.2466L12.986 27.3971L12.6854 27.4347L12.5725 27.2466L12.4225 26.946L12.3472 26.6458L12.3848 26.4205L12.2719 26.1947L12.1219 25.9317L11.9342 25.6688L11.7836 25.4842L11.5207 25.4874H11.2953L11.1453 25.4139L11.07 25.0907L10.9199 24.854L10.7694 24.5475L10.657 24.2818L10.5064 23.9422L10.3187 23.6036L10.2435 23.2277L10.0934 22.8142L10.0558 22.495L9.94331 22.1001L9.83042 21.8371L9.79279 21.6118L9.71752 21.3488L9.64271 21.1988L9.45456 21.0111L9.22922 20.9635L8.92862 20.9535H8.53463H8.29025H8.0835L7.61424 20.7522L7.20075 20.6184L6.82534 20.4389L6.44948 20.199L6.03644 20.1542L5.69821 19.9628L5.24754 19.698L4.83405 19.3965L4.64634 19.0579L4.27093 18.7949L4.00797 18.5319L3.745 18.3061L3.55684 18.1184L3.4444 17.8178L3.33151 17.5549L3.2567 17.3295L3.18143 17.0666L3.06854 16.8036L2.88084 16.5406L2.61787 16.3153L2.43016 16.1276L2.24246 15.9022L2.01667 15.6393L1.82897 15.3011L1.52837 15.0005L1.41593 14.6622L1.2654 14.3621L1.19059 14.1739L1.11533 13.911L0.863243 13.5355L0.764404 13.4095Z" fill="white"/>
</svg>
