<svg width="22" height="45" viewBox="0 0 22 45" fill="none" xmlns="http://www.w3.org/2000/svg">
<path d="M21.364 41.6501C21.314 40.7501 21.0641 39.8001 20.9141 38.9001C20.7641 38.9501 20.6141 39.0501 20.5141 39.1501C20.6641 39.4001 20.7641 39.7001 20.7141 40.0001C20.6141 39.9501 20.4141 39.9501 20.3141 39.9001C20.2141 40.2001 20.2141 40.6001 20.1141 40.8501C20.0141 40.7501 19.8641 40.6001 19.8141 40.5501C19.8141 40.4501 19.8641 40.3001 19.8641 40.2001L19.6141 40.2501C19.9141 39.1501 17.5141 40.5001 17.5641 41.5001C17.4641 41.3001 17.3641 40.7501 17.4141 40.6001C17.5641 40.3001 18.0641 40.6501 17.7641 40.0501C17.4141 40.2501 16.7141 40.1501 16.3641 40.1501C15.9641 40.1501 15.5141 40.5001 15.3642 39.9001C16.3641 40.2501 18.3141 39.9001 18.5141 39.0501C18.8141 39.2501 19.5141 38.9501 19.8641 38.9001L19.7641 38.7001H20.1141C19.8641 38.3501 19.5641 38.3001 19.2641 38.5501C19.2141 38.3001 19.0141 38.2501 18.7641 38.3501C18.7141 37.9001 18.2641 37.7501 17.8141 37.7501C17.9641 37.5501 17.7641 37.5001 17.7641 37.3501C18.2141 37.3501 18.4141 37.8001 18.8641 37.6001C18.8141 38.0001 19.0141 37.9001 19.2141 38.0001C19.1641 37.6001 19.0141 36.7501 18.5141 36.6001L18.8641 36.4001C18.9641 36.7001 19.1141 36.7501 19.2641 36.4501C19.5641 36.5001 20.1141 36.8501 19.9641 36.3501C20.9641 36.5001 19.9141 38.1001 20.5641 38.5501C20.4141 38.5501 20.3641 38.6001 20.3641 38.7501C21.364 38.7501 20.5641 36.4501 20.4141 35.9002C20.2141 35.0502 20.4641 33.4502 19.8141 32.9002C19.7141 34.3002 18.0141 33.0502 17.3641 32.8502C16.5141 32.6002 16.0141 31.1002 15.5141 30.5003C14.5642 29.3003 13.8642 29.4503 14.1642 27.7503C14.2642 27.3003 13.5642 26.9503 13.5642 26.5003C13.5142 26.1003 13.0142 25.7003 12.7142 25.4003C12.3642 25.1003 11.7142 24.9503 11.6142 24.4504C11.5142 24.0004 11.5142 23.6004 11.4642 23.1504C11.4142 22.7504 11.1142 22.3004 11.1142 21.8504C11.1142 21.3504 11.4142 20.7004 11.5642 20.2004C11.6642 19.8504 11.3142 19.8004 11.2642 19.6504C11.2142 19.4504 11.5142 19.3504 11.3642 19.1504C11.1142 18.7005 11.0142 18.3505 10.7142 17.9005C10.1142 17.0505 10.0142 16.4005 9.06426 15.9505C9.01426 16.0505 9.01426 16.2505 9.01426 16.4005C8.76427 16.3005 8.81426 16.1005 8.51427 16.1505C8.51427 16.1005 8.51427 15.8005 8.51427 15.7005C8.56427 15.7005 8.66427 15.7005 8.71427 15.7005C8.61427 15.4005 8.46427 15.2505 8.16428 15.2505C8.31427 14.7505 7.96428 14.2505 7.41429 14.2505C7.56429 14.2505 7.71428 14.1505 7.86428 14.1005C7.56429 13.8005 7.0143 13.2006 6.9143 12.8006C6.6143 12.6006 6.31431 12.3506 6.26431 12.1006C6.16431 11.8006 6.41431 11.5006 6.5143 11.2006L6.9643 9.35062C6.8643 8.60063 5.76432 8.00064 5.61432 7.25065C5.31433 5.95068 7.86428 4.8507 8.36427 3.85071C8.66427 3.25072 8.31427 2.20074 8.66427 1.65075C8.76427 1.55075 9.06426 1.20076 9.46425 0.800767C7.86428 0.0507802 6.21431 -0.349213 4.46434 0.400774C3.56436 0.750768 2.91437 1.30076 2.21438 1.95075C1.76439 2.40074 1.1644 3.35072 0.764404 4.10071L0.864403 6.45067L4.96433 45L20.3141 44.4C20.3141 44.2 20.2141 43.85 20.3141 43.8C20.4141 43.75 20.9641 44.35 20.9641 44.35H21.514C21.564 43.55 21.364 42.45 21.364 41.6501Z" fill="white"/>
</svg>
