<svg xmlns="http://www.w3.org/2000/svg" viewBox="0 0 198.46 198.86"><defs><style>.cls-1{fill:#231f20;}</style></defs><path class="cls-1" d="M189.94,40.09c.32,6.85-5.1,11.08-9.21,15.1L138.62,90.63c-3.79,3.53-9.25,6.44-11.38,11.72-2.79,7-3.83,14.73-5,22.44-.68,5.56-5.87,10.39-10.7,12.43-3.75,1.31-8.26.69-12.36,1l-14.68.1a4.61,4.61,0,0,0-2.95,2L81,141.74c-1.57.23-1-1.14-1.27-2.1,0-3.23.76-6.6,3.14-8.51,1.27-1.29,3.06-1.6,4.84-1.89l21.4-.31a5.42,5.42,0,0,0,3-1.39l.86-1.66c1.71-10.67,2.7-21.71,8-30.77,4.92-5.75,11.13-9.71,16.61-14.77,12.71-10.78,25.87-21.75,38.42-32.69,3.55-3.36,7.31-7.79,8.18-13.11l.47-1.42a8.11,8.11,0,0,1,5.37,7" transform="translate(-12.36 -7.13)"/><path class="cls-1" d="M202.29,52.12c.63,6.65-4.59,9.81-8.75,13.92L176.36,80.8l-30.54,25.93c-4.33,4.89-4.55,11.81-5.66,18.06.18,2,2.24,2.87,1.84,5l-4.25,7.65c.23,3.05,4,1.28,5.16,3.19,0,1.1-.69,2.47.17,3.38.6,1,3-.36,1.77,1.32-.35.28-.22,1-.12,1.32.51.67,1.46.73,1.55,1.73a4.94,4.94,0,0,0,.3,4.16c5.3,5.78,14.42-1.38,19.95,4,1.39,1.23,1.35,3.52,1,5.25-2.95,8.65-20.41,9.28-14.43,21.55a7,7,0,0,0,5.68,3.52c2,.32,3.48-.51,5.11-1,.51,0,.55.5.76.78V187c-5,3.59-11.55,8.87-18.26,5a10.43,10.43,0,0,1-4.24-10.75c2.05-6.79,9.86-8.52,13.76-14.22a5.74,5.74,0,0,0-.22-5.48c-1.25-2.23-4.13-2.82-6.66-3.28-4.19-.09-10.62,2.56-12.48-2.37-.55-1.87,1.36-5.19-1.64-5.62-.41-.53-1.37-1-.87-1.85.14-.5,1-.56.56-1.2-.6-.17-1.39,0-1.87-.54-1.71-1.86,3-3.88-.19-5.15-1.61-.22-3.8,1-4.84-.87-.5-1.72.78-2.95,1.42-4.36,1.08-2.41,4.23-4,3.42-7.13L131,126.6a97.7,97.7,0,0,1,3.06-18c2.1-6.47,8.34-10.08,13.12-14.53l25.62-21.66,18.14-16c3.14-2.92,5.88-6.2,5.78-10.62,1-.33,1.6.83,2.44,1.19,1.5,1.73,2.8,3,3.17,5.14" transform="translate(-12.36 -7.13)"/><path class="cls-1" d="M195.41,84.4c-3.37,5.38-9,9.43-14,13.68l-19.7,16.51c-3.61,3.27-4.57,8.93-2.92,13.34.18,2.23-1.55,3.65-2.09,5.61.06.58.17,1.33.77,1.5.82.32,2.06-.1,2.52,1,.12,1.16-.41,2.39.86,2.84.51.28,1.26-.6,1.31.32a2.41,2.41,0,0,0-.45,1.64c.65,1.14,2,.51,2.63,1.46.25,1.33.25,3.05,1.75,3.6,5.11.86,9-2.6,13.59-3.6,7.29-2.28,14.35.58,20.86,2.51a35.1,35.1,0,0,0,10.08,0l.23.22c-4.15,5.06-9.25,10-16.51,9.48-7.61-.28-12.52-7.38-20.68-6-5.52,1.1-11,4.42-17,2.19a5.36,5.36,0,0,1-1.56-5.58c-.28-1.31-3.45-1.63-1.48-3.36-.61-.4-1.64,0-2-.91s.82-2.6-.56-3.29c-1.22-.18-2.81.5-3.73-.53a2.65,2.65,0,0,1-.22-2.29c.87-2.09,3.24-3.74,2.73-6.24-1.59-1.5-1.06-4-.87-6.11.91-4.83,1.28-9.94,5.77-13.14L179,88.77c5.1-4.87,11.41-8,15.1-14.44,1.9,2.63,2.81,6.89,1.31,10.07" transform="translate(-12.36 -7.13)"/><path class="cls-1" d="M121.35,156.05c6.88,2.91,14.09,5.8,20.22,9.85a6.1,6.1,0,0,1,2.61,5.36c-2.1,8.71-14.22,9.63-12.44,19.9a9.75,9.75,0,0,0,6.79,8.21,11,11,0,0,0,5.65,0c.28.67,1.46,1.31.13,1.76-5,3.17-11.34,6.75-17.4,3.7-3-1.37-4.71-4.57-5.48-7.65-1.23-9.31,7.44-12.24,11.82-18.47a6.06,6.06,0,0,0,.67-4.15,9.11,9.11,0,0,0-3.74-3.84c-16.32-9.14-34.05-15.32-52.27-20-3-.29-7.71-2.06-9.72,1.46v.16c-1.63.35-1-1.62-1-2.49a8.5,8.5,0,0,1,5-6.58c4.74-1.4,9.75.28,14.35,1.1a308.38,308.38,0,0,1,34.79,11.72" transform="translate(-12.36 -7.13)"/><path class="cls-1" d="M117.44,194.13c-1.47.12-1.52.16-1.57.54s0,1.54,0,3.63.07,3.15.13,3.62.13.41,1.59.48V203l-4.62.09a4.47,4.47,0,0,1-3.66-1.17,4.54,4.54,0,0,1-1.4-3.4c0-2.37,1.39-4.76,5.07-4.83l4.41-.09Zm-3.2.73c0-.53-.1-.57-1-.57-2.59.05-3.64,1.27-3.57,4.18s1.16,4.07,3.74,4c.87,0,1-.08,1-.35Z" transform="translate(-12.36 -7.13)"/><path class="cls-1" d="M107.09,194.27c-1.27,0-1.33,0-1.41.4s-.2,1.52-.36,3.63-.27,3.12-.25,3.59.07.42,1.31.62l0,.57-5.06-.43a12.33,12.33,0,0,0-2.11,0,21.77,21.77,0,0,0,0-2.59l.59-.05c.22,1.78.49,2,2.37,2.14l1.21.1c.15,0,.24-.05.26-.24l.27-3.07c0-.18,0-.23-.43-.28l-.38,0c-1.45-.14-1.57.1-1.79,1l-.57,0c0-.44.12-.87.17-1.51s.05-1.14.07-1.53l.62,0c0,1,.16,1.23,1.19,1.32l.94.09a.22.22,0,0,0,.26-.23l.29-3.43c0-.18-.06-.27-.22-.27l-2.29-.2c-1.07-.1-1.39.18-1.73,1l-.38.9-.61-.23a16.74,16.74,0,0,0,.59-2.55l7.55.64Z" transform="translate(-12.36 -7.13)"/><path class="cls-1" d="M98.41,193.53c-1.37-.15-1.45-.13-1.56.21s-.35,1.52-.73,3.57-.58,3.11-.61,3.58.06.41,1.4.78l-.11.55-4.87-.9a3.57,3.57,0,0,1-2.2-1.16,2.15,2.15,0,0,1-.48-1.81c.37-1.86,2.12-2.36,4.49-1.92.35.07.73.18.93.2l.58-3.17c.07-.36-.06-.43-1.57-.82l.09-.55,4.74.88Zm-3.86,3.75a5.56,5.56,0,0,0-.63-.14c-1.33-.24-2.6-.24-2.93,1.54s.72,2.1,2.16,2.37c.62.11.68,0,.74-.2Z" transform="translate(-12.36 -7.13)"/><path class="cls-1" d="M91.21,192.28c-1.06-.22-1.32.06-2,1l-3.83,5a14.26,14.26,0,0,0-1.07,1.51l-.69-.21a9.35,9.35,0,0,0,0-1.66l-.81-7c-.09-.95-.15-1.11-1.24-1.4l.16-.57,4.44,1.26-.16.54c-1.31-.31-1.46-.21-1.54.12a13.39,13.39,0,0,0,.09,2,.31.31,0,0,0,.15.15c.33.13,1,.34,2.26.7.83.23.88.18,1.08,0a11.38,11.38,0,0,0,1-1.46c.11-.42,0-.54-1.22-1l.17-.55,3.47,1Zm-6.48,1.6c-.11,0-.16,0-.17,0a2.91,2.91,0,0,0,0,.31l.34,3.6,2.22-3c0-.08.11-.13.12-.18s0-.1-.12-.14Z" transform="translate(-12.36 -7.13)"/><path class="cls-1" d="M81.16,189.42c-1.27-.41-1.34-.41-1.52-.08a35.3,35.3,0,0,0-1.42,3.32c-.8,2-1.2,2.93-1.32,3.38s-.05.43,1.12,1l-.22.53-4.62-1.9a3.22,3.22,0,0,1-1.75-1.29,2,2,0,0,1-.09-2c.73-1.83,2.87-1.34,2.91-1.44a.7.7,0,0,0,0-.38l-.88-3.5c-.22-.9-.31-1-.89-1.3l.2-.53,2.06.85,1.07,5c0,.16.12.23.64.42s.53.21.58.09a27.25,27.25,0,0,0,1.15-3c.11-.34.06-.42-1.12-1l.22-.53,4.15,1.7Zm-4.59,3.3c.08-.23.08-.31-.69-.63-1.84-.76-2.65.15-2.93.86-.42,1,.06,2,1.38,2.6.87.34.93.34,1.06,0Z" transform="translate(-12.36 -7.13)"/><path class="cls-1" d="M71.64,185.36c-1.33-.6-1.42-.6-1.64-.3s-.39.65-.75,1.35l-2.87,5.5,1.38.73c.4.21.76,0,2-1.18l.5.41a12.21,12.21,0,0,0-1.4,2.13c-.23-.17-.43-.3-.67-.46a3.67,3.67,0,0,0-.67-.39L63.36,191a12.76,12.76,0,0,0-1.47-.61,14.35,14.35,0,0,0,.94-2.37l.61.16c-.23,1.65-.24,2.1.17,2.31l1.37.71,2.88-5.51c.36-.7.56-1.14.68-1.4s0-.42-1.18-1.17l.26-.51,4.29,2.23Z" transform="translate(-12.36 -7.13)"/><path class="cls-1" d="M65.47,182.26c-1.26-.74-1.34-.74-1.59-.48s-.91,1.25-2.09,3-1.78,2.62-2,3-.12.42,1,1.32l-.32.47-3-2.05c0-.08.11-.24.15-.37l1.93-7.19,0,0-6.39,4.63-3-2,.34-.48c1.26.75,1.34.77,1.58.48s.92-1.25,2.09-3,1.8-2.61,2-3,.15-.4-1-1.31l.3-.47,3.89,2.66-.31.47c-1.22-.71-1.34-.71-1.52-.43l-4.23,6.19h0l6.6-4.76c.19-.14.37-.27.57-.44l.84.57a4.54,4.54,0,0,0-.2.55l-2.13,8v0l3.55-5.18a9.24,9.24,0,0,0,.6-1.08c.16-.33.14-.39-.89-1.21l.32-.47,3.2,2.17Z" transform="translate(-12.36 -7.13)"/><path class="cls-1" d="M55.07,175c-1-.77-1.09-.77-1.36-.53s-1.05,1.13-2.42,2.7-2.1,2.4-2.36,2.77-.18.37.71,1.28l-.39.43-3.82-3.36a16.34,16.34,0,0,0-1.7-1.23,20.9,20.9,0,0,0,1.51-2.09l.5.28c-.86,1.58-.76,1.91.66,3.15l.91.8c.13.1.22.09.36,0l2-2.31c.12-.14.14-.22-.19-.47l-.25-.25c-1.11-1-1.34-.85-2.06-.23l-.46-.38c.31-.33.6-.62,1-1.13s.74-.89,1-1.18l.46.4c-.59.79-.61,1.08.19,1.77l.69.63c.13.09.23.12.35,0l2.26-2.58a.23.23,0,0,0,0-.37L51,171.49a1.35,1.35,0,0,0-2-.19l-.8.53-.38-.57a24.48,24.48,0,0,0,2-1.72l5.69,5Z" transform="translate(-12.36 -7.13)"/><path class="cls-1" d="M48.6,169.33c-1-.89-1-.91-1.33-.7s-1.17,1-2.71,2.44-2.32,2.16-2.61,2.51-.22.38.59,1.39l-.42.37-1.9-2a5.1,5.1,0,0,0,.18-.71l1.66-7.3h0l-1.54,1.42c-1.52,1.42-2.32,2.15-2.62,2.51s-.23.39.71,1.5l-.43.39-2.6-2.79.43-.39c.85.91,1,.95,1.55.49s1.19-1,1.73-1.52c1.91-1.79,3.52-3.3,4.24-4.11l.67.73a20.85,20.85,0,0,0-.89,3.24l-1.23,5.63h0l2-1.84c1.53-1.42,2.32-2.14,2.64-2.51s.21-.37-.84-1.64l.43-.39L49,169Z" transform="translate(-12.36 -7.13)"/><path class="cls-1" d="M40.66,160.42c-1-1.12-1-1.14-1.35-1s-.64.41-1.27.89l-5,3.74.92,1.23c.28.36.71.28,2.3-.21l.27.57a16.27,16.27,0,0,0-2.2,1.31c-.14-.23-.26-.48-.39-.69s-.29-.45-.45-.66l-2.76-3.7a9.91,9.91,0,0,0-1.08-1.2A13.26,13.26,0,0,0,31.56,159l.47.41c-.93,1.4-1.11,1.77-.85,2.16l.93,1.23,5-3.73c.62-.47,1-.79,1.2-1s.26-.34-.55-1.57l.47-.34,2.89,3.85Z" transform="translate(-12.36 -7.13)"/><path class="cls-1" d="M23.79,151c-1.18-2.22-.33-4.85,2.27-6.21s5.25-.61,6.43,1.59.3,4.86-2.29,6.25-5.26.57-6.41-1.63m8.11-4.3c-.66-1.28-2.47-1.72-5-.36s-3.2,3.07-2.52,4.36,2.47,1.71,5,.36,3.2-3.09,2.52-4.36" transform="translate(-12.36 -7.13)"/><path class="cls-1" d="M29.34,142c-.55-1.12-.6-1.16-1-1.07A35,35,0,0,0,25,142.24c-1.95.77-2.94,1.18-3.37,1.42s-.33.24,0,1.44l-.5.2-1.92-4.7a19.88,19.88,0,0,0-.92-1.89,18.06,18.06,0,0,0,2.27-1.18l.32.48c-1.48,1-1.54,1.36-.83,3.1l.44,1.13c.07.15.17.19.36.12l2.84-1.14c.15-.07.21-.14.06-.5l-.14-.37c-.55-1.33-.8-1.33-1.73-1.1l-.23-.56c.41-.16.82-.29,1.42-.54s1.07-.43,1.41-.58l.23.55c-.88.43-1,.69-.64,1.66l.36.86c.05.15.13.22.33.14l3-1.23c.34-.12.33-.24-.14-1.68l.52-.21,1.68,4.11Z" transform="translate(-12.36 -7.13)"/><path class="cls-1" d="M25,130.7c-.4-1.34-.47-1.39-.85-1.35s-1.49.3-3.53.77-3.07.73-3.52.88-.38.21-.13,1.58l-.59.12-1.06-4.54.57-.14c.4,1.33.45,1.4.83,1.34a16.5,16.5,0,0,0,1.7-.33l.87-.2c.4-.1.43-.14.35-.49l-.8-3.46c-.09-.34-.16-.36-.54-.27l-.88.19c-.62.17-1.4.36-1.66.44s-.38.22-.16,1.58l-.55.14L14,122.42l.58-.15c.4,1.32.45,1.41.8,1.35s1.54-.3,3.57-.77,3.08-.72,3.52-.88.37-.21.15-1.57l.56-.13,1,4.55-.55.14c-.41-1.34-.45-1.4-.82-1.35s-1.46.27-3,.64c-.38.09-.43.14-.34.48l.8,3.46c.08.35.13.38.53.29,1.53-.36,2.6-.63,3-.76s.37-.22.14-1.59l.58-.12,1.06,4.57Z" transform="translate(-12.36 -7.13)"/><path class="cls-1" d="M22.62,120c-.25-1.24-.29-1.28-.67-1.28s-1.54.12-3.61.36-3.15.38-3.59.5-.41.14-.34,1.41l-.58.07-.61-5a15.23,15.23,0,0,0-.39-2.06c.63-.11,2.16-.42,2.51-.54l.17.54c-1.7.59-1.85.87-1.61,2.75l.13,1.22c0,.16.13.23.31.21l3.06-.38c.19,0,.23,0,.19-.45l-.05-.37c-.17-1.45-.42-1.53-1.39-1.55l-.06-.57c.44-.06.85-.07,1.52-.16s1.14-.16,1.51-.23l.06.6c-1,.22-1.17.43-1,1.46l.11.93c0,.17.08.23.27.22l3.4-.42c.18,0,.26-.1.25-.27l-.27-2.29c-.13-1.07-.45-1.31-1.38-1.49l-.95-.16.1-.65a18,18,0,0,0,2.62,0l.9,7.5Z" transform="translate(-12.36 -7.13)"/><path class="cls-1" d="M21.59,111.68c-.1-1.05-.42-1.23-1.59-1.66l-5.87-2.22a15.18,15.18,0,0,0-1.76-.61v-.71A7.55,7.55,0,0,0,14,106l6.48-2.79c.87-.35,1-.45,1-1.59H22l.08,4.6h-.58c-.06-1.35-.2-1.45-.54-1.45a10.52,10.52,0,0,0-1.92.7.23.23,0,0,0-.12.17c0,.34,0,1,0,2.39,0,.85.08.88.37,1a9,9,0,0,0,1.69.51c.4,0,.5-.16.58-1.44h.56l.07,3.61ZM18.19,106c0-.12,0-.17-.07-.17a1.34,1.34,0,0,0-.31.09l-3.34,1.34,3.47,1.29a.65.65,0,0,0,.23.06s.06-.07.06-.16Z" transform="translate(-12.36 -7.13)"/><path class="cls-1" d="M21.49,101.26c0-1.3,0-1.38-.4-1.43s-1.52-.17-3.59-.37-3.16-.27-3.63-.26-.41.08-.62,1.34l-.59-.05.39-4.31.56,0c0,1.3,0,1.37.4,1.44s1.08.14,1.72.21l5.36.46c.47,0,.57-.09.62-.49l.12-1.55c.12-1.3-.26-1.54-2.07-2.45l.24-.59a15.63,15.63,0,0,0,2.7.61l-.64,7.44Z" transform="translate(-12.36 -7.13)"/><path class="cls-1" d="M22.37,92.37c.15-1.46.13-1.53-.24-1.64a13.85,13.85,0,0,0-1.5-.33l-6.14-1.05-.24,1.53c-.09.47.25.71,1.71,1.51l-.23.61a16.06,16.06,0,0,0-2.45-.69c.07-.26.15-.5.21-.77s.12-.51.17-.76l.78-4.58a8.24,8.24,0,0,0,.15-1.58,15.68,15.68,0,0,0,2.53.18l0,.63c-1.64.29-2.06.39-2.14.84l-.27,1.54,6.14,1.07a12.86,12.86,0,0,0,1.52.19c.37,0,.44,0,.78-1.46l.56.09-.84,4.75Z" transform="translate(-12.36 -7.13)"/><path class="cls-1" d="M23.41,85.92c.28-1.35.27-1.45-.07-1.59s-1.48-.47-3.48-1-3.05-.85-3.5-.93-.44,0-.91,1.31l-.55-.16L16.17,79l.55.15c-.28,1.35-.25,1.44.09,1.57s1,.36,1.65.54l.87.24c.36.11.43.09.54-.25l1-3.42c.08-.34.06-.39-.33-.5l-.88-.25c-.59-.18-1.38-.36-1.66-.43s-.44,0-.9,1.32l-.55-.17,1.27-4.49.55.15c-.27,1.37-.26,1.45.08,1.59s1.48.46,3.48,1,3,.85,3.51.94.41,0,.9-1.3l.55.14L25.58,80.4,25,80.24c.29-1.34.27-1.44-.07-1.57s-1.41-.47-2.93-.9c-.38-.1-.44-.07-.54.24l-1,3.43c-.1.33-.06.39.33.51,1.51.42,2.58.7,3,.78s.42,0,.9-1.31l.53.15L24,86.07Z" transform="translate(-12.36 -7.13)"/><path class="cls-1" d="M32.24,62.46A3.81,3.81,0,0,1,32,64.68c-.29.61-.79.93-1.79,1.28a4,4,0,0,1-.2,2.87,2.71,2.71,0,0,1-3.72,1.42c-1.17-.56-1.76-1.6-1.81-3.55a4.64,4.64,0,0,1-2.38-.14c-.8-.39-1.3-1.25-.66-2.61.55-1.16,1.43-1.7,2.45-1.21a2.37,2.37,0,0,1,1.14,2.48c1.45-.09,2.82-.21,4.19-.42A3.69,3.69,0,0,0,27.94,63c-.36-.17-.61,0-.92.46l-.51-.25,1.32-2.82.54.24a1.71,1.71,0,0,0,.33,2,9.89,9.89,0,0,1,1.16,2c1.13-.24,1.43-.38,1.68-.9a3,3,0,0,0,.13-1.58Zm-7.72,2.85a1.59,1.59,0,0,0-1-1.51,1,1,0,0,0-1.45.32.89.89,0,0,0,.58,1.21,2.42,2.42,0,0,0,1.84,0m5,2.49a2.65,2.65,0,0,0,.13-1.67,24.39,24.39,0,0,1-4.58.5,2,2,0,0,0,1.17,2c1,.45,2.72.36,3.28-.85" transform="translate(-12.36 -7.13)"/><path class="cls-1" d="M34.52,58.43c.72-1.18.73-1.27.45-1.53S33.74,56,32,54.8s-2.59-1.82-3-2-.43-.15-1.28.93l-.48-.34L30,49.53l.46.32c-.71,1.2-.72,1.29-.45,1.53s.88.67,1.42,1l.72.5c.3.22.39.22.6,0l2-2.91c.19-.3.18-.35-.16-.59l-.75-.52c-.51-.37-1.18-.8-1.44-1s-.4-.12-1.27.94l-.46-.32,2.66-3.82.49.31c-.71,1.18-.71,1.28-.46,1.52s1.23.93,3,2.13,2.58,1.81,3,2,.41.14,1.27-1l.48.34-2.67,3.83-.49-.33c.72-1.18.74-1.29.46-1.52s-1.2-.89-2.5-1.8c-.31-.23-.39-.23-.58.06l-2,2.91c-.2.28-.18.35.15.57,1.29.92,2.21,1.54,2.53,1.72s.42.14,1.3-.94l.44.34L35,58.76Z" transform="translate(-12.36 -7.13)"/><path class="cls-1" d="M34.36,43.43,37.5,40l.42.37c-.85,1.09-.88,1.17-.65,1.47s1.11,1.06,3.65,3.34c.81.73,2.26,1.61,3.67.08,1.58-1.77.91-2.79-1.14-4.66-1.64-1.49-2.45-2.19-2.83-2.48s-.37-.19-1.43.85l-.42-.41,2.6-2.86.44.36c-.86,1.1-.89,1.19-.64,1.48s1.11,1.05,3.28,3C46,41.94,47.29,43.48,45,46a3.3,3.3,0,0,1-5.14.26c-2.5-2.25-3.3-3-3.68-3.23s-.38-.2-1.38.76Z" transform="translate(-12.36 -7.13)"/><path class="cls-1" d="M47.76,41.67c1.06-1,1.07-1.11.88-1.41s-1-1.23-2.32-2.79-2.07-2.4-2.42-2.71-.36-.24-1.52.64L42,35l2.76-2.38a1.88,1.88,0,0,0,.32.25l6.44,3.72,0,0-2.82-7.37,2.7-2.32.38.43c-1,1-1.09,1.12-.87,1.42s1,1.19,2.31,2.79,2.08,2.4,2.44,2.71.34.24,1.52-.66l.37.44L54,37l-.39-.43c1-1,1-1.11.83-1.36l-4.88-5.7,0,0,2.92,7.57a4.32,4.32,0,0,0,.28.67L52,38.5a3.48,3.48,0,0,0-.49-.32l-7.13-4.12,0,0,4.09,4.74a12,12,0,0,0,.88.88c.3.24.35.22,1.41-.55l.37.42-2.92,2.52Z" transform="translate(-12.36 -7.13)"/><path class="cls-1" d="M57.82,33.18c.84-.64.81-1,.57-2.22l-1.26-6.17A16.62,16.62,0,0,0,56.72,23l.58-.36a11.18,11.18,0,0,0,1.3,1l5.81,4c.77.54.94.62,1.88,0l.31.48-3.86,2.51-.32-.5c1.12-.77,1.14-.92.94-1.21a11.41,11.41,0,0,0-1.6-1.27.22.22,0,0,0-.21,0c-.29.16-.89.5-2,1.24-.71.45-.7.55-.66.86a8.52,8.52,0,0,0,.48,1.69c.22.35.4.35,1.52-.29l.31.51-3,1.95Zm3.06-5.91c.09-.07.11-.13.08-.17s-.17-.13-.22-.19l-2.92-2.13.74,3.64a1.27,1.27,0,0,0,.07.21c0,.05.12,0,.17,0Z" transform="translate(-12.36 -7.13)"/><path class="cls-1" d="M66.7,27.45c1.13-.66,1.18-.74,1-1.09S67.1,25,66.17,23.09s-1.4-2.83-1.67-3.22-.29-.32-1.48.18l-.25-.52,2.5-1.23.61.37,6.53,3.66h0l-.93-1.88c-.93-1.86-1.41-2.83-1.67-3.22s-.27-.32-1.64.24L68,17l3.42-1.7.25.51c-1.13.56-1.19.69-.9,1.37s.63,1.41,1,2.06c1.18,2.35,2.16,4.32,2.74,5.25l-.89.43a18.78,18.78,0,0,0-2.86-1.77l-5-2.79,0,0,1.21,2.43c.93,1.86,1.42,2.84,1.66,3.23s.29.31,1.8-.33l.25.51L66.94,28Z" transform="translate(-12.36 -7.13)"/><path class="cls-1" d="M80.84,18.37c.89,1.41,1.91,2.24,3.28,1.82S86,18.71,85.76,17.9s-1-.94-2-1l-1.11,0c-2.54,0-3-.77-3.36-1.78-.51-1.67.52-3.2,2.51-3.82a10.12,10.12,0,0,1,2.62-.46c0,.14.1.38.17.57.19.61.41,1.23.67,1.85l-.61.19c-.71-1.53-1.65-1.84-2.9-1.46a1.89,1.89,0,0,0-1.49,2.13c.18.57.59.87,1.64.92l2.38.09c1.53.06,2.29.6,2.66,1.83.54,1.73-.55,3.23-2.65,3.88-.94.29-2,.2-3,.48-.22-.66-.68-1.81-1-2.63Z" transform="translate(-12.36 -7.13)"/><path class="cls-1" d="M88.31,18.76c1.2-.34,1.24-.4,1.23-.75s-.29-1.53-.7-3.58-.64-3.09-.79-3.53-.2-.38-1.43-.23l-.11-.54,5-1.05a13.47,13.47,0,0,0,2-.58A18.81,18.81,0,0,0,94.26,11l-.54.2c-.74-1.63-1-1.74-2.9-1.35L89.63,10a.23.23,0,0,0-.18.32l.63,3c0,.19.07.23.45.17l.39-.07c1.44-.29,1.48-.54,1.41-1.51l.58-.12c.08.43.15.86.27,1.49s.27,1.12.35,1.48l-.57.14c-.29-.94-.5-1.13-1.56-.91l-.9.17c-.16.05-.23.12-.19.3L91,17.85a.23.23,0,0,0,.31.2l2.24-.45c1.08-.24,1.28-.57,1.37-1.5l.09-1,.65,0a20.19,20.19,0,0,0,.18,2.61l-7.42,1.55Z" transform="translate(-12.36 -7.13)"/><path class="cls-1" d="M96.85,17c1.36-.22,1.43-.28,1.43-.65s-.08-1.54-.3-3.61-.3-3.15-.4-3.61-.16-.39-1.55-.35l0-.56,5.19-.52a3.44,3.44,0,0,1,2.24.31,2,2,0,0,1,1,1.67c.19,2-2,2.53-2,2.64s.06.15.22.34l2.51,2.65c.61.68.78.79,1.45.73l.05.56-2.3.23L101,12.87c-.11-.12-.21-.13-.8-.09s-.58.09-.57.23c.24,2.41.3,2.79.37,3.15s.16.4,1.54.35l0,.58-4.64.45Zm2.63-5.08c0,.24.07.3.94.22,2.09-.19,2.37-1.38,2.3-2.13-.12-1.11-1-1.78-2.53-1.64-1,.09-1,.14-1,.47Z" transform="translate(-12.36 -7.13)"/><path class="cls-1" d="M104.88,7.3l4.62-.08v.57h-.64c-.62,0-.75.21-.75.43s.71,2,1.42,3.83l1,2.54,1-2.73a28.74,28.74,0,0,0,1.25-3.74c0-.37-.22-.38-1.42-.37V7.18l3.63,0,0,.57h-.39c-.62,0-.86.28-1.48,1.9-2.08,5.44-2.31,6.07-2.51,7.24h-.89A72.41,72.41,0,0,0,106.6,9c-.55-1.15-.64-1.16-1.71-1.17Z" transform="translate(-12.36 -7.13)"/><path class="cls-1" d="M115.36,16.15c1.46,0,1.54,0,1.61-.38s.18-1.53.34-3.6.26-3.16.24-3.63-.09-.41-1.54-.63l.06-.58,4.82.4-.06.57c-1.45,0-1.55,0-1.6.37a33.79,33.79,0,0,0-.35,3.62c-.17,2.08-.27,3.15-.24,3.6s.09.43,1.53.64l0,.57-4.83-.38Z" transform="translate(-12.36 -7.13)"/><path class="cls-1" d="M129.78,16.41a4.81,4.81,0,0,1-4.49,1.66c-2.13-.35-4.2-2.2-3.65-5.56a4.68,4.68,0,0,1,5.63-4.11,12.82,12.82,0,0,1,2.75.89,21.11,21.11,0,0,0-.08,2.6l-.66,0c-.22-1.64-.89-2.66-2.41-2.91-1.68-.27-3.07,1.16-3.48,3.71-.44,2.71.78,4.32,2.33,4.56A3.83,3.83,0,0,0,129.25,16Z" transform="translate(-12.36 -7.13)"/><path class="cls-1" d="M129.89,18.05c1.24.24,1.31.22,1.44-.13s.47-1.46,1-3.49.82-3,.9-3.52,0-.42-1.2-.84l.15-.57,4.9,1.34a14.49,14.49,0,0,0,2.08.39c-.16.64-.42,2.16-.45,2.54l-.56,0c.08-1.8-.15-2.05-2-2.53L135,10.88c-.17,0-.27,0-.32.2l-.8,3c0,.16,0,.25.35.35l.38.1c1.4.38,1.57.18,1.93-.71l.59.16c-.14.43-.28.81-.44,1.46s-.28,1.11-.36,1.49l-.6-.15c.19-1,.09-1.25-.94-1.51L133.9,15a.22.22,0,0,0-.3.19l-.89,3.32c0,.17,0,.26.17.31l2.23.59a1.36,1.36,0,0,0,1.89-.71l.5-.83.56.35a20.94,20.94,0,0,0-1,2.4l-7.32-2Z" transform="translate(-12.36 -7.13)"/><path class="cls-1" d="M140.12,18.3c-.17,1.66.14,2.93,1.49,3.45s2.39,0,2.68-.82-.21-1.36-1-2l-.88-.7c-2-1.58-1.93-2.46-1.56-3.46.63-1.64,2.4-2.22,4.33-1.49a11,11,0,0,1,2.34,1.21,4.37,4.37,0,0,1-.21.57c-.23.62-.4,1.23-.6,1.87l-.61-.21c.38-1.65-.18-2.46-1.38-2.91a1.85,1.85,0,0,0-2.49.77c-.2.56-.06,1,.75,1.71l1.82,1.52c1.17,1,1.44,1.87,1,3.09-.64,1.72-2.41,2.22-4.46,1.45-.93-.33-1.75-1.11-2.65-1.43.24-.66.59-1.84.8-2.72Z" transform="translate(-12.36 -7.13)"/><path class="cls-1" d="M151,20.19a.94.94,0,0,1-.82,1.69.9.9,0,0,1-.43-1.24.92.92,0,0,1,1.25-.45" transform="translate(-12.36 -7.13)"/><path class="cls-1" d="M155.38,17.89l4,2.35-.3.48c-1.25-.6-1.31-.6-1.55-.3s-.81,1.31-2.55,4.24c-.52.92-1.11,2.54.71,3.6,2,1.18,2.9.34,4.31-2.07,1.11-1.9,1.65-2.84,1.85-3.26s.1-.42-1.13-1.24l.29-.5,3.38,2-.3.48c-1.24-.61-1.32-.62-1.55-.32s-.83,1.29-2.31,3.82C159.21,29,158,30.53,155,28.82a3.3,3.3,0,0,1-1.31-5c1.7-2.91,2.24-3.84,2.42-4.27s.1-.41-1-1.19Z" transform="translate(-12.36 -7.13)"/><path class="cls-1" d="M162.69,29.68c-.62,1.54-.66,2.85.47,3.72s2.33.63,2.83,0,.15-1.38-.43-2.21l-.63-.9c-1.47-2.08-1.2-2.89-.55-3.76,1-1.39,2.89-1.49,4.57-.26A12.23,12.23,0,0,1,170.87,28c-.1.14-.26.33-.37.47-.38.53-.73,1.08-1.09,1.65l-.52-.37c.82-1.49.5-2.43-.53-3.18a1.89,1.89,0,0,0-2.61,0c-.34.49-.34,1,.24,1.86l1.34,2c.86,1.27.87,2.19.11,3.23-1.07,1.45-2.93,1.47-4.69.18-.81-.6-1.37-1.53-2.16-2.1.39-.58,1.07-1.62,1.49-2.42Z" transform="translate(-12.36 -7.13)"/><path class="cls-1" d="M166.77,35.81c.82.66,1.18.53,2.28,0l5.65-2.76c1-.5,1.2-.61,1.64-.88l.52.47a8.48,8.48,0,0,0-.7,1.52l-2.42,6.65c-.32.89-.35,1,.49,1.8l-.37.41-3.41-3.08.37-.43c1.05.87,1.22.87,1.44.6a14.21,14.21,0,0,0,.82-1.87A.26.26,0,0,0,173,38c-.23-.26-.73-.74-1.72-1.65-.63-.57-.7-.55-1-.41a9.37,9.37,0,0,0-1.53.87c-.27.31-.22.47.66,1.42l-.4.42-2.67-2.44Zm6.48,1.45c.09.09.14.08.18.07a1,1,0,0,0,.13-.28l1.32-3.37-3.31,1.65-.2.11a.13.13,0,0,0,.06.17Z" transform="translate(-12.36 -7.13)"/></svg>