<svg width="52" height="53" viewBox="0 0 52 53" fill="none" xmlns="http://www.w3.org/2000/svg">
<path d="M48.4676 10.8828V10.8899L48.4606 10.904L48.4464 10.9252L48.4323 10.9535L48.4111 10.996L48.3828 11.0384L48.3474 11.095L48.312 11.1515L48.2694 11.2223L48.2199 11.293L48.1633 11.3708L48.1068 11.4629L48.0431 11.5478L47.9724 11.6468L47.9017 11.7458L47.8239 11.8519L47.739 11.965L47.6469 12.0784L47.5549 12.1916L47.4559 12.3118L47.3498 12.432L47.2438 12.5593L47.1306 12.6868L47.0102 12.8212L46.8829 12.9485L46.7556 13.0828L46.6212 13.2174L46.4798 13.3518L46.3383 13.4862L46.1896 13.6205L46.034 13.748L45.8712 13.8824C44.6331 14.8939 30.47 23.5885 29.7767 24.1404C29.0763 24.6851 27.8028 26.1497 26.763 30.465C25.9212 33.9457 25.3764 32.6439 22.5961 32.5378C20.9689 32.4741 16.4555 31.2856 16.802 34.7734C16.802 34.7734 17.3609 33.9952 23.5229 34.8229C25.9495 35.1555 27.9305 34.3632 28.5033 32.5378C29.0763 30.6845 29.9111 27.5362 31.1634 25.8807C31.7435 25.1167 43.091 18.141 46.2179 16.2806C47.3569 15.6086 51.0215 13.3942 48.4676 10.8828ZM12.8687 37.1148L12.8829 37.1078L12.897 37.1007L12.9111 37.0865L12.9394 37.0724L12.9677 37.0512L13.0102 37.03L13.0526 37.0158L13.1021 36.9946L13.1587 36.9663L13.2223 36.9451L13.293 36.9239L13.3638 36.9097L13.4488 36.8885L13.5408 36.8744L13.6327 36.86L13.7388 36.8459L13.8519 36.8388L13.9724 36.8317H14.0926L14.227 36.8388L14.3684 36.8459L14.5169 36.86L14.5949 36.8744L14.6798 36.8885L14.7576 36.8956L14.8424 36.9168L14.9273 36.931L15.0122 36.9451L15.1041 36.9663L15.1962 36.9946L15.2882 37.0158L15.3872 37.0441L15.4791 37.0724L15.5852 37.1007L15.6842 37.136L15.7903 37.1714L15.8964 37.2068L16.0027 37.2492L16.1158 37.2846L16.229 37.3341C18.6555 38.3175 25.0651 41.211 26.763 42.4561C27.803 43.2201 30.7035 44.5288 29.8898 45.9509C29.0763 47.3657 25.1428 48.0236 25.9495 51.0727C26.763 54.1291 31.0501 52.8201 31.6302 52.0561C32.2032 51.2922 29.7201 52.5019 28.85 50.3158C28.1568 48.5686 29.3665 47.4082 31.0501 46.2764C31.8567 45.7315 32.9533 45.293 32.7833 43.8782C32.6702 42.8948 30.9369 42.1306 29.1966 41.1544C27.4562 40.171 20.7426 37.0088 18.0754 35.8061C15.4155 34.6105 12.522 35.0419 12.8687 37.1148Z" fill="black"/>
<path d="M51.0779 14.5765L51.0213 14.6897L50.9577 14.8028L50.894 14.9231L50.8304 15.0506L50.7597 15.1849L50.7243 15.2486L50.6817 15.3193L50.6392 15.39L50.5968 15.4607L50.5473 15.5315L50.4978 15.6022L50.4483 15.6802L50.3917 15.7509L50.3281 15.8287L50.2715 15.9065L50.2008 15.9772L50.1301 16.0621L50.0521 16.1401L49.9743 16.2179L49.8894 16.2957L49.8045 16.3805L49.7055 16.4583L49.6065 16.5432L49.5004 16.6281L49.3944 16.7131L49.2739 16.7909L49.1537 16.8758C46.6211 18.5737 36.8369 24.6436 34.5801 25.9947C33.3067 26.7519 32.288 28.1808 31.9768 28.8246C31.6301 29.5391 31.1136 31.3148 30.8802 34.3639C30.8378 34.951 29.2955 35.9203 29.4866 36.3519C29.6705 36.7692 30.8449 36.5641 30.8024 36.8896C30.76 37.1725 30.4135 37.6041 30.4135 37.8799C30.4135 38.2054 31.1065 37.9082 30.9368 38.262C30.6468 38.8421 31.1065 38.9694 31.2765 39.4081C31.4533 39.8397 31.2199 40.3347 31.3755 40.7027C31.6583 41.3394 32.663 41.4598 34.2688 41.4244C35.882 41.396 36.6106 42.5067 36.2568 43.4972C35.7971 44.8059 34.7218 44.7847 33.0522 45.9096C31.3755 47.0274 31.3047 48.4493 32.2809 49.659C33.0239 50.5788 35.8181 51.0243 37.5726 49.2415C37.9335 48.8384 36.7804 49.383 35.1037 48.5058C35.1037 48.5058 34.0142 47.7206 34.5943 46.6665C35.1673 45.6053 36.1012 45.1454 37.134 44.544C38.1598 43.9356 39.5112 43.6033 39.4476 42.3016C39.3837 41.007 38.0325 40.8229 37.4878 40.7876C36.9359 40.7593 36.0871 40.8088 35.3302 40.7734C34.1841 40.7168 33.8374 40.1723 33.7666 37.9862C33.7454 37.2856 32.762 37.6607 33.307 36.734C33.5969 36.2527 32.762 36.4439 32.1962 36.2032C31.7149 35.984 32.7549 34.9723 33.4765 34.0103C33.703 33.706 33.3492 33.317 33.4765 31.8808C33.5969 30.6286 34.177 28.9943 35.8535 27.8482C36.6743 27.2893 40.254 25.061 41.294 24.4668C42.7512 23.6248 49.8045 19.0617 51.0143 18.1492C53.2994 16.423 50.8587 14.428 51.0779 14.5765ZM25.1498 49.1991L25.1427 49.2698L25.0508 49.2557C24.9447 49.2415 24.8598 49.2698 24.8103 49.3264C24.782 49.3618 24.7538 49.4468 24.7325 49.5812L24.5272 51.1306C24.506 51.2791 24.5131 51.3781 24.5414 51.4135C24.5838 51.4771 24.6547 51.5054 24.7467 51.5196L24.8386 51.5266L24.8316 51.5974L23.7986 51.4771C23.4165 51.4276 23.1336 51.3498 22.9498 51.2508C22.7657 51.1447 22.6242 50.9889 22.5252 50.7839C22.4333 50.5788 22.3979 50.3595 22.4333 50.1047C22.4757 49.7721 22.6242 49.5105 22.8649 49.3123C23.1407 49.093 23.5228 49.0082 24.0181 49.0647L25.1498 49.1991ZM24.4072 49.291L24.3787 49.284L24.3504 49.2698L24.3222 49.2628L24.2939 49.2557L24.2727 49.2486L24.2444 49.2415L24.2161 49.2345L24.1949 49.2274H24.1666L24.1454 49.2203L24.1241 49.2132H24.1029L24.0746 49.2062H24.0534L24.0322 49.1991H24.0108C23.7279 49.1637 23.4733 49.2274 23.2539 49.3973C23.0417 49.5671 22.9073 49.8146 22.8649 50.1472C22.8225 50.4796 22.879 50.7483 23.0488 50.9607C23.2114 51.1728 23.445 51.3003 23.7491 51.3357C23.8552 51.3498 23.9896 51.3428 24.1381 51.3286L24.4072 49.291ZM21.0892 50.9114L21.3226 49.9845L20.7778 49.857C20.6364 49.8287 20.5374 49.8217 20.4737 49.8499C20.403 49.8924 20.3391 49.9774 20.2969 50.1047L20.2331 50.0906L20.4382 49.2769L20.5089 49.291C20.4949 49.4115 20.4949 49.4893 20.502 49.5246C20.5162 49.5671 20.5444 49.6095 20.5869 49.6448C20.6293 49.6802 20.7071 49.7085 20.8061 49.7297L21.3579 49.8499L21.556 49.0859C21.5772 48.9728 21.5913 48.9162 21.5842 48.8879C21.5842 48.8667 21.5701 48.8455 21.5489 48.8243C21.5277 48.8031 21.4852 48.7889 21.4145 48.7748L20.9971 48.6756C20.8556 48.6473 20.7495 48.6331 20.6859 48.6331C20.6152 48.6402 20.5444 48.6614 20.4737 48.7038C20.3816 48.7606 20.2755 48.8453 20.1623 48.9728L20.0775 48.9516L20.4452 48.4139L22.3626 48.8526L22.3484 48.9162L22.2565 48.895C22.1982 48.8798 22.1366 48.8822 22.0797 48.9021C22.0371 48.9091 22.0017 48.9233 21.9805 48.9657C21.9593 48.994 21.931 49.0718 21.9027 49.1779L21.5137 50.7061C21.4711 50.8546 21.4711 50.9536 21.4923 50.996C21.5206 51.0455 21.5913 51.0882 21.6905 51.1094L21.7754 51.1306L21.7612 51.1942L19.8439 50.7626L19.9431 50.2391L20.0209 50.2533C20.0138 50.3876 20.0209 50.4796 20.0421 50.5293C20.0563 50.5788 20.0987 50.6283 20.1553 50.6707C20.1977 50.6919 20.2826 50.7202 20.4028 50.7556L21.0892 50.9112V50.9114ZM18.9809 49.1637L19.2284 48.4988C19.2781 48.3503 19.2923 48.2583 19.2781 48.2159C19.2496 48.1522 19.186 48.1025 19.1013 48.0744L19.0092 48.0459L19.0304 47.9823L20.0633 48.322L20.0351 48.3785L19.9431 48.3503C19.8439 48.322 19.759 48.329 19.6956 48.3715C19.6602 48.3998 19.6176 48.4775 19.5681 48.6048L19.0304 50.0906C18.9738 50.225 18.9597 50.324 18.9809 50.3664C19.0092 50.4301 19.0658 50.4796 19.1577 50.5078L19.2496 50.5363L19.2284 50.6L18.3442 50.3098C18.125 50.2391 17.9621 50.1613 17.856 50.0835C17.75 49.9987 17.6651 49.8924 17.6156 49.7653C17.5732 49.6378 17.5732 49.5105 17.6227 49.369C17.6521 49.2816 17.6993 49.2013 17.7614 49.1331C17.8235 49.0649 17.8991 49.0103 17.9833 48.9728C18.1533 48.9021 18.3584 48.9021 18.5917 48.9799C18.6554 49.0011 18.7122 49.0294 18.7829 49.0506C18.8465 49.0859 18.9102 49.1213 18.9809 49.1637ZM18.9455 49.2557L18.9385 49.2486H18.9243L18.9173 49.2415L18.9031 49.2345L18.896 49.2274H18.8819L18.8748 49.2203L18.8607 49.2132H18.8536L18.8465 49.2062L18.8324 49.1991H18.8253L18.8182 49.192L18.8112 49.185H18.797L18.79 49.1779C18.7475 49.1567 18.7051 49.1425 18.6695 49.1284C18.5493 49.093 18.4291 49.1001 18.3018 49.1637C18.1816 49.2274 18.0967 49.3266 18.0399 49.468C18.0045 49.5671 17.9904 49.6661 18.0045 49.7651C18.0187 49.8641 18.0541 49.9492 18.1179 50.0126C18.1745 50.0833 18.2593 50.133 18.3584 50.1613C18.4149 50.1825 18.4927 50.1967 18.5988 50.2108L18.9455 49.2557ZM16.42 47.8479L17.3325 48.23L17.6507 47.9611C17.7287 47.8904 17.7782 47.8338 17.7995 47.7914C17.807 47.7732 17.8102 47.7536 17.809 47.734C17.8078 47.7143 17.8021 47.6953 17.7924 47.6782C17.7712 47.6428 17.7075 47.5933 17.5944 47.5368L17.6227 47.48L18.3584 47.7914L18.3301 47.855C18.224 47.8267 18.1533 47.8196 18.1108 47.8338C18.0328 47.8621 17.9126 47.9399 17.7641 48.0742L16.0733 49.5317L16.0167 49.5105L16.0803 47.3315C16.0803 47.1547 16.0662 47.0344 16.0308 46.9708C16.0025 46.9001 15.9389 46.8433 15.847 46.8009L15.8752 46.7372L16.7948 47.1334L16.7665 47.19C16.6746 47.1547 16.6039 47.1405 16.5614 47.1547C16.5119 47.1617 16.4836 47.19 16.4624 47.2254C16.4412 47.2678 16.4341 47.3527 16.4271 47.48L16.42 47.8479ZM16.4129 47.9894L16.3846 49.0506L17.2193 48.3288L16.4129 47.9894ZM13.5758 45.4638L14.1703 45.7893L14.3117 47.1759C14.3612 47.2042 14.4107 47.2325 14.439 47.2466C14.4528 47.2601 14.4699 47.2698 14.4885 47.2749C14.5026 47.282 14.5168 47.2961 14.5311 47.3032L14.913 46.6948C14.9908 46.5675 15.0333 46.4755 15.0191 46.426C15.005 46.3624 14.9625 46.3056 14.8777 46.2632L14.7928 46.2137L14.8282 46.1571L15.7692 46.6806L15.7338 46.7372L15.6487 46.6877C15.5639 46.6382 15.479 46.6311 15.4012 46.6665C15.3588 46.6877 15.3022 46.7514 15.2244 46.8716L14.3824 48.2159C14.2976 48.3432 14.2693 48.4351 14.2763 48.4846C14.2905 48.5483 14.3329 48.6119 14.4249 48.6544L14.5026 48.6968L14.4673 48.7606L13.6679 48.3078C13.4346 48.1805 13.2717 48.0672 13.1798 47.9752C13.0894 47.8852 13.03 47.7688 13.01 47.6428C12.9817 47.5083 13.01 47.388 13.0878 47.2678C13.1656 47.1405 13.2788 47.0557 13.4275 47.0132C13.576 46.9708 13.7528 46.9779 13.9652 47.0415L13.8801 46.1854C13.8589 45.9944 13.8306 45.853 13.7811 45.7681C13.7387 45.676 13.6538 45.5982 13.5406 45.5206L13.5758 45.4638ZM14.4744 47.4024H14.4673V47.3951H14.4602L14.4531 47.388H14.4461L14.439 47.381L14.4319 47.3739H14.4249C14.4036 47.3598 14.3966 47.3527 14.3824 47.3456C14.1773 47.2325 13.9935 47.19 13.8377 47.2183C13.675 47.2466 13.5548 47.3244 13.4699 47.4588C13.3921 47.5863 13.3638 47.7136 13.3992 47.8479C13.4346 47.9752 13.5194 48.0742 13.6609 48.1522C13.7245 48.1876 13.8165 48.223 13.9296 48.2583L14.4746 47.4022L14.4744 47.4024ZM10.4703 46.2985L10.7957 45.8176L10.8522 45.8601C10.8027 45.952 10.7744 46.0157 10.7674 46.0652C10.7603 46.1429 10.7674 46.2137 10.7957 46.2702C10.831 46.3339 10.8876 46.3977 10.9725 46.4543L11.2697 46.6523L12.4158 45.1595C12.5077 45.0464 12.5501 44.9615 12.5501 44.912C12.536 44.8413 12.4936 44.7847 12.4158 44.7281L12.338 44.6786L12.3804 44.622L13.2646 45.2232L13.2222 45.2799L13.1515 45.2304C13.0595 45.1668 12.9817 45.1524 12.904 45.1739C12.8615 45.1951 12.7979 45.2517 12.7128 45.3648L11.5667 46.8504L11.8142 47.0272C11.9135 47.091 11.9842 47.1332 12.0337 47.1476C12.0973 47.1617 12.1751 47.1617 12.2531 47.1334C12.3309 47.1052 12.4016 47.0557 12.4794 46.9708L12.536 47.0061L12.1612 47.4517L10.4703 46.2985ZM10.6825 43.2848L9.93973 45.4002L11.1 44.2187C11.206 44.1056 11.2626 44.0278 11.2626 43.9854C11.2626 43.9146 11.2273 43.8508 11.1565 43.7871L11.0929 43.7306L11.1353 43.681L11.7932 44.2541L11.7437 44.2965L11.6801 44.2399C11.6023 44.1692 11.5172 44.1409 11.4465 44.1622C11.397 44.1692 11.3263 44.2258 11.2273 44.3248L10.0882 45.485C10.0175 45.5628 9.96802 45.6265 9.95388 45.676C9.93973 45.7113 9.94681 45.754 9.96095 45.8035C9.98217 45.853 10.0317 45.9096 10.1024 45.9732L10.06 46.0227L9.52227 45.5558L10.2014 43.5891L8.1711 44.3885L7.64049 43.9215L7.69 43.872L7.75364 43.9286C7.83144 43.9993 7.9163 44.0278 7.99409 44.0136C8.03673 43.9995 8.11453 43.9498 8.20625 43.8508L9.34548 42.6906C9.45156 42.5774 9.50106 42.4996 9.50106 42.4501C9.50813 42.3794 9.47277 42.3157 9.39498 42.2521L9.33133 42.1953L9.38083 42.1529L10.1802 42.8463L10.1307 42.8958L10.067 42.8393C9.98217 42.7686 9.90437 42.7401 9.82658 42.7613C9.77687 42.7683 9.70615 42.8251 9.61442 42.9241L8.44691 44.1056L10.6401 43.2424L10.6825 43.2848ZM6.96844 42.9736L7.7395 42.358L7.37155 41.9549C7.27254 41.8488 7.19475 41.7851 7.1311 41.778C7.04623 41.771 6.94723 41.8063 6.83407 41.8841L6.78436 41.8346L7.45662 41.2969L7.50612 41.3465C7.42126 41.4313 7.37155 41.495 7.3574 41.5303C7.33619 41.5728 7.33619 41.6225 7.35033 41.6718C7.36448 41.7215 7.40712 41.7851 7.47784 41.8629L7.84558 42.2662L8.48227 41.7498C8.56714 41.6861 8.61685 41.6366 8.63099 41.6154C8.63728 41.6048 8.64117 41.593 8.6424 41.5808C8.64362 41.5686 8.64214 41.5563 8.63806 41.5447C8.63806 41.5162 8.60978 41.474 8.56734 41.4242L8.28426 41.1201C8.19232 41.0141 8.11453 40.9433 8.05795 40.908C8.00117 40.8795 7.93045 40.8512 7.84579 40.8512C7.73243 40.8371 7.59099 40.8512 7.42126 40.8936L7.37155 40.8371L8.00117 40.6037L9.28183 42.0114L9.23232 42.0539L9.16847 41.9902C9.13057 41.9456 9.08187 41.9116 9.02703 41.8912C8.9882 41.877 8.94562 41.877 8.9068 41.8912C8.86437 41.9053 8.80072 41.9549 8.70171 42.0256L7.4354 43.0514C7.31497 43.1434 7.25132 43.2212 7.23718 43.2636C7.23011 43.3272 7.2584 43.3982 7.32912 43.4689L7.38569 43.5396L7.33619 43.582L6.04866 42.167L6.46612 41.7993L6.50855 41.8558C6.42369 41.9549 6.37418 42.0326 6.35297 42.0892C6.3377 42.1452 6.34017 42.2046 6.36004 42.2592C6.38126 42.3087 6.43076 42.3794 6.51562 42.4713L6.96844 42.9736ZM5.70213 41.778L5.30589 41.2404L5.99916 39.0118L4.78235 39.79C4.66213 39.875 4.58434 39.9458 4.57019 39.9953C4.55605 40.0589 4.57727 40.1296 4.63384 40.2074L4.68335 40.2711L4.62677 40.3135L4.11717 39.6132L4.18102 39.5778L4.23053 39.6485C4.29418 39.7334 4.35782 39.7758 4.44269 39.7758C4.4924 39.7758 4.57019 39.7405 4.69021 39.6627L6.47319 38.5095L6.50855 38.5661L5.76578 40.9714L7.06038 40.1296C7.19475 40.0448 7.26547 39.9811 7.27254 39.9316C7.29376 39.868 7.27254 39.7971 7.21596 39.7195L7.16646 39.6487L7.22304 39.6061L7.73243 40.3064L7.67585 40.3418L7.61928 40.2711C7.5627 40.1862 7.49198 40.1438 7.40712 40.1438C7.36448 40.1438 7.27254 40.1862 7.1596 40.2569L5.68799 41.2121C5.6597 41.3111 5.64556 41.3889 5.64556 41.4313C5.64556 41.4808 5.6597 41.5374 5.67385 41.6081C5.68799 41.6366 5.71628 41.6861 5.75871 41.7427L5.70213 41.778ZM2.87935 37.4839L3.39582 37.1866L3.42411 37.2503C3.33924 37.3069 3.28267 37.3564 3.25417 37.3988C3.20467 37.4624 3.18345 37.5334 3.19052 37.597C3.19052 37.6677 3.21174 37.7455 3.26124 37.8375L3.43804 38.1347L5.15031 37.2503C5.29175 37.1796 5.36954 37.123 5.39076 37.0806C5.41197 37.0169 5.39783 36.9391 5.3554 36.8611L5.30589 36.7833L5.36954 36.748L5.89308 37.6536L5.82943 37.689L5.787 37.6112C5.73042 37.5192 5.66677 37.4697 5.58877 37.4624C5.53927 37.4624 5.4544 37.4909 5.32711 37.5546L3.60798 38.4317L3.75649 38.6865C3.81307 38.7855 3.86257 38.8563 3.89793 38.8846C3.95472 38.9341 4.01837 38.9553 4.10323 38.9623C4.1881 38.9694 4.28003 38.9553 4.38611 38.9058L4.42147 38.9694L3.87693 39.2169L2.87935 37.4839ZM1.69791 35.0076L1.69084 34.9793L1.67669 34.951L1.66962 34.9228L1.66255 34.8945L1.65548 34.8662L1.64841 34.845L1.64133 34.8167L1.63426 34.7884V34.7601L1.62719 34.7318V34.647L1.62012 34.6187L1.62719 34.5904V34.5126L1.63426 34.4841V34.4558L1.64133 34.4275L1.64841 34.3992L1.65548 34.3709L1.66255 34.3426L1.66962 34.3144L1.68377 34.2861L1.69084 34.2578L1.69791 34.2295L1.71205 34.2012L1.7262 34.1729L1.74034 34.1446L1.75449 34.1163C1.903 33.8262 2.1578 33.614 2.51161 33.4867C2.87935 33.3594 3.21881 33.3594 3.54433 33.4938C3.87693 33.6282 4.10323 33.8474 4.22346 34.1517C4.34368 34.4629 4.32954 34.7672 4.18102 35.0571C4.02544 35.3473 3.76357 35.5667 3.38854 35.694C3.00665 35.8284 2.65284 35.8143 2.31318 35.6587C2.01615 35.5172 1.81813 35.3049 1.69791 35.0076ZM1.83935 34.9935L1.84642 35.0147L1.8535 35.0288L1.86057 35.0501L1.86764 35.0642L1.88178 35.0856L1.88886 35.0998L1.89593 35.1139L1.91007 35.1351L1.91714 35.1493L1.93129 35.1634L1.94543 35.1776L1.9525 35.1917L1.96665 35.2058L1.98079 35.22L1.99494 35.2341L2.00201 35.2412L2.01615 35.2554L2.0303 35.2695L2.04444 35.2766L2.05858 35.2907L2.0798 35.3049L2.09415 35.3119L2.1083 35.319L2.12244 35.3331L2.14366 35.3402L2.1578 35.3473L2.17902 35.3614L2.19316 35.3685L2.21438 35.3756L2.22852 35.3827L2.24974 35.3897L2.27095 35.3968C2.52555 35.4746 2.85107 35.4463 3.23296 35.3119C3.62213 35.1776 3.89107 34.9937 4.03958 34.7601C4.15274 34.5833 4.17395 34.3992 4.09616 34.2012C4.0113 33.989 3.85571 33.8476 3.62213 33.7696C3.39582 33.6918 3.09172 33.7201 2.70963 33.8545C2.29924 33.9959 2.01615 34.18 1.88178 34.4063C1.76863 34.5831 1.75449 34.7813 1.83935 34.9935ZM1.13194 32.7367L2.10122 32.4962L1.98079 32.0719C1.9525 31.9727 1.91007 31.909 1.8535 31.8737C1.79692 31.8454 1.69791 31.8383 1.55647 31.8595L1.54233 31.7888L2.37703 31.5837L2.39825 31.6474C2.29924 31.6686 2.23559 31.6969 2.19316 31.7322C2.1578 31.7676 2.12951 31.803 2.12244 31.8525C2.1083 31.8949 2.1083 31.9585 2.12951 32.0363L2.24974 32.4609L3.03494 32.2628C3.15516 32.2346 3.24003 32.2063 3.2756 32.1851C3.30388 32.1638 3.31803 32.1355 3.33217 32.0929C3.34631 32.0372 3.34631 31.9789 3.33217 31.9232L3.31096 31.8383L3.3746 31.8242L3.65749 32.8217L3.58677 32.8359L3.56555 32.7581C3.53726 32.6589 3.48776 32.5952 3.41704 32.5669C3.36753 32.5528 3.2756 32.5599 3.12688 32.5952L1.52111 32.9985C1.40068 33.0268 1.31581 33.0551 1.28045 33.0763C1.25216 33.0976 1.23802 33.1258 1.22388 33.1683C1.2097 33.224 1.2097 33.2825 1.22388 33.3382L1.24509 33.416L1.18144 33.4372L0.693267 31.7039L1.23095 31.5413L1.24509 31.6049C1.13901 31.6615 1.06829 31.7181 1.01879 31.7747C0.983428 31.8242 0.95514 31.8808 0.948068 31.9444C0.940996 32.008 0.95514 32.1071 0.983428 32.2273L1.13194 32.7369V32.7367ZM1.44311 29.3198L1.30167 28.2162L0.573042 28.294C0.445746 28.3081 0.360881 28.3293 0.318449 28.3435C0.289953 28.3576 0.268737 28.393 0.247729 28.4284C0.226305 28.4849 0.219233 28.5344 0.226305 28.5983L0.240449 28.6761L0.162657 28.6902L0.0353601 27.6644L0.10608 27.6573L0.120224 27.7422C0.127296 27.7987 0.148513 27.8482 0.183873 27.8977C0.205089 27.9331 0.240449 27.9543 0.282881 27.9614C0.325521 27.9685 0.403313 27.9685 0.530402 27.9543L2.17902 27.7775C2.30631 27.7634 2.39118 27.7422 2.42654 27.7209C2.4619 27.7068 2.48311 27.6785 2.49726 27.6431C2.52555 27.5866 2.53262 27.53 2.52555 27.4734L2.5114 27.3956L2.58212 27.3886L2.70963 28.4071L2.63891 28.4142L2.63163 28.3293C2.61748 28.2303 2.57505 28.1667 2.5114 28.1243C2.46897 28.103 2.36996 28.096 2.22145 28.1172L1.44311 28.202L1.58455 29.3057L2.36289 29.2208C2.48311 29.2067 2.56798 29.1925 2.61041 29.1713C2.6387 29.1572 2.66012 29.1287 2.68113 29.0933C2.70255 29.0368 2.70963 28.9802 2.70255 28.9236L2.69548 28.8387L2.7662 28.8317L2.8935 29.8505L2.82278 29.8646L2.80863 29.7727C2.79449 29.6805 2.75913 29.6098 2.68841 29.5744C2.65305 29.5461 2.54697 29.5461 2.39825 29.5603L0.749843 29.7442C0.622546 29.7585 0.537682 29.7727 0.502322 29.7939C0.470316 29.8107 0.445268 29.8382 0.431602 29.8717C0.403314 29.9282 0.396241 29.9848 0.403313 30.0414L0.417458 30.1263L0.346737 30.1333L0.219233 29.1145L0.289953 29.1075L0.297025 29.1925C0.304305 29.2491 0.325521 29.2986 0.360881 29.3481C0.389169 29.3764 0.417458 29.3976 0.45989 29.4118C0.502322 29.4189 0.587186 29.4189 0.707411 29.4047L1.44311 29.3198ZM0.155585 26.5536L1.16023 26.5395V26.0091C1.15316 25.8745 1.13194 25.7824 1.08951 25.7331C1.03293 25.6765 0.933924 25.6411 0.785203 25.6411V25.5704L1.66962 25.5631V25.627C1.5494 25.6411 1.4714 25.6624 1.43604 25.6836C1.38653 25.7048 1.35825 25.7331 1.32996 25.7826C1.30874 25.8321 1.2946 25.9099 1.30167 26.0089V26.5395L2.14366 26.5324C2.25681 26.5324 2.32753 26.5254 2.34874 26.5183C2.37703 26.5041 2.39825 26.49 2.41239 26.4617C2.42654 26.4405 2.43361 26.3981 2.43361 26.3273L2.42654 25.924C2.41947 25.7897 2.41239 25.6906 2.39118 25.627C2.36632 25.559 2.32502 25.4983 2.27095 25.4502C2.19316 25.3795 2.07273 25.3085 1.91735 25.2308V25.153L2.56091 25.351L2.58212 27.2115H2.5114V27.1267C2.5114 27.0701 2.49726 27.0206 2.46897 26.9711C2.44775 26.9287 2.41239 26.9074 2.36996 26.8933C2.3346 26.8792 2.24974 26.8721 2.12951 26.8721L0.45989 26.8933C0.297025 26.8933 0.198017 26.9145 0.162657 26.9428C0.113152 26.9852 0.0919363 27.056 0.0919363 27.155V27.2398H0.0212161L0 25.3793L0.558898 25.351L0.56597 25.4217C0.42453 25.4429 0.332593 25.4783 0.283089 25.5066C0.233377 25.5349 0.198017 25.5773 0.169729 25.6411C0.148513 25.6906 0.141441 25.7684 0.148513 25.8957L0.155585 26.5536ZM1.86057 23.3065L1.76863 24.2405L2.15073 24.4385C2.24974 24.488 2.32046 24.5163 2.36289 24.5163C2.40532 24.5233 2.44068 24.5092 2.47604 24.4738C2.50433 24.4456 2.53262 24.3678 2.55383 24.2544L2.62455 24.2615L2.54676 25.0186L2.47604 25.0113C2.46897 24.9123 2.44775 24.8487 2.41947 24.8133C2.36996 24.7496 2.24974 24.6719 2.07273 24.5799L0.0636482 23.547V23.4904L2.27095 22.8325C2.44775 22.783 2.56798 22.7264 2.62455 22.6769C2.68134 22.6274 2.7167 22.5565 2.73063 22.4575L2.80135 22.4646L2.70963 23.4126L2.63891 23.4055C2.63891 23.3065 2.63163 23.2429 2.60355 23.2073C2.59276 23.19 2.57826 23.1753 2.5611 23.1643C2.54394 23.1533 2.52455 23.1463 2.50433 23.1437C2.44775 23.1437 2.36289 23.1578 2.23559 23.1932L1.86057 23.3065ZM1.71205 23.349L0.643762 23.6601L1.63426 24.1766L1.71205 23.349ZM2.56091 20.229L2.58919 20.1795L3.22588 20.512L2.83692 22.3373L2.7662 22.3231L2.78742 22.2382C2.80156 22.1392 2.78742 22.0614 2.72377 22.0047C2.69548 21.9764 2.60334 21.941 2.4619 21.9198L0.834707 21.6086C0.679123 21.5803 0.580114 21.5733 0.537682 21.6016C0.474034 21.6369 0.431602 21.7006 0.410386 21.7854L0.389169 21.8774L0.325521 21.8632L0.551826 20.7949L0.615474 20.8091C0.594258 20.9366 0.587186 21.0212 0.60133 21.078C0.615474 21.1346 0.643762 21.17 0.679123 21.1982C0.714483 21.2265 0.806419 21.2548 0.948068 21.2831L2.53262 21.5803C2.63163 21.6016 2.70255 21.6016 2.75206 21.5945C2.78041 21.5825 2.80489 21.5629 2.82278 21.5379C2.83692 21.5096 2.86521 21.4245 2.8935 21.269L2.93593 21.0992C2.97129 20.9154 2.98544 20.7879 2.97129 20.703C2.96422 20.6252 2.92886 20.5545 2.86521 20.4767C2.80863 20.406 2.70963 20.3209 2.56091 20.229ZM1.37239 17.8236L1.95958 17.9582L1.93836 18.0219C1.83228 18.0077 1.75449 18.0077 1.70498 18.0148C1.62719 18.036 1.55647 18.0643 1.50697 18.1138C1.45725 18.1633 1.41482 18.2411 1.38653 18.333L1.28752 18.6586L3.16224 19.175C3.31096 19.2104 3.40976 19.2245 3.45947 19.2033C3.52312 19.175 3.57262 19.1114 3.60091 19.0192L3.62213 18.9414L3.69285 18.9627L3.38875 19.9461L3.31803 19.9249L3.34632 19.8471C3.3746 19.7481 3.36753 19.6703 3.31803 19.6135C3.28267 19.5781 3.1976 19.5357 3.06323 19.5003L1.18852 18.9839L1.09658 19.2667C1.06829 19.373 1.04708 19.4508 1.05415 19.5003C1.06122 19.5711 1.08244 19.6276 1.13901 19.6915C1.18852 19.7551 1.27338 19.7976 1.37946 19.84L1.35825 19.9036L0.792483 19.7198L1.37239 17.8236ZM2.8935 17.1872L3.33924 16.1542L2.66012 15.8924C2.53969 15.8428 2.45483 15.8216 2.4126 15.8216C2.37703 15.8216 2.34167 15.8287 2.30631 15.857C2.25681 15.8924 2.22145 15.9419 2.20023 15.9914L2.17194 16.0692L2.10122 16.0409L2.5114 15.093L2.58212 15.1213L2.54676 15.1991C2.52555 15.2486 2.5114 15.3052 2.52555 15.3617C2.52555 15.4042 2.53969 15.4395 2.57505 15.4678C2.60334 15.489 2.68113 15.5244 2.79449 15.5739L4.32954 16.1613C4.44976 16.2108 4.53483 16.232 4.57706 16.232C4.61242 16.232 4.64778 16.2179 4.68314 16.1967C4.72578 16.1542 4.76114 16.1118 4.78235 16.0621L4.82479 15.9843L4.88843 16.0055L4.47118 16.9606L4.40733 16.9324L4.44269 16.8546C4.48533 16.7626 4.48533 16.6846 4.44269 16.621C4.42147 16.5856 4.33661 16.5361 4.19517 16.4795L3.4734 16.2037L3.0208 17.2365L3.74942 17.5125C3.86278 17.5549 3.94765 17.5832 3.99008 17.5832C4.02544 17.5832 4.0608 17.569 4.09616 17.5408C4.13859 17.5054 4.18102 17.463 4.20224 17.4135L4.2376 17.3286L4.30125 17.3569L3.89107 18.3047L3.82035 18.2835L3.85571 18.2057C3.89814 18.1138 3.89814 18.036 3.85571 17.9724C3.83429 17.9299 3.74963 17.8873 3.60819 17.8309L2.07273 17.2365C1.9525 17.194 1.86764 17.1657 1.82521 17.1657C1.78985 17.1657 1.75449 17.1799 1.71913 17.2082C1.67669 17.2435 1.64133 17.286 1.61305 17.3427L1.57769 17.4205L1.51404 17.3922L1.93129 16.4442L1.99494 16.4725L1.95958 16.5503C1.93836 16.5998 1.93129 16.6563 1.93836 16.7131C1.93836 16.7485 1.95958 16.7838 1.98786 16.8121C2.01615 16.8404 2.09394 16.8758 2.2073 16.9182L2.8935 17.1872ZM5.01573 12.6523L5.42612 12.0227L5.48976 12.051C5.44026 12.1429 5.41904 12.2278 5.42612 12.2844C5.43319 12.348 5.48976 12.4682 5.59584 12.6594C5.70921 12.8503 5.80114 13.0413 5.87186 13.2466C6.04866 13.2183 6.17596 13.1829 6.2681 13.1405C6.36004 13.0908 6.43076 13.0344 6.47319 12.9637C6.51562 12.893 6.53684 12.8221 6.52977 12.7513C6.5227 12.6806 6.48734 12.6099 6.41662 12.546L6.50148 12.5107C6.62878 12.6382 6.6995 12.7655 6.72071 12.8857C6.73587 13.0099 6.70574 13.1355 6.63585 13.2393C6.57581 13.3274 6.49586 13.4002 6.40247 13.4517C6.29639 13.5082 6.15495 13.5578 5.97087 13.5931C6.0133 13.7843 6.02037 13.9467 5.99916 14.0742C5.97708 14.2029 5.92895 14.3257 5.85772 14.4351C5.75164 14.5978 5.61706 14.7038 5.46148 14.7463C5.29882 14.7887 5.15738 14.7746 5.0228 14.6968C4.89551 14.619 4.7965 14.4987 4.72578 14.3361C4.64799 14.1732 4.6197 13.9326 4.64091 13.6143C4.49947 13.5931 4.38611 13.5719 4.30832 13.5507C4.22346 13.5224 4.14566 13.4941 4.08202 13.4517C3.89814 13.3527 3.79913 13.2042 3.78478 13.0201C3.77707 12.8769 3.81692 12.7351 3.89814 12.617C3.97593 12.4965 4.07494 12.4187 4.20224 12.3905C4.32954 12.3551 4.44269 12.3763 4.55584 12.44C4.6692 12.5036 4.74699 12.5957 4.78256 12.7228C4.81792 12.8433 4.82479 13.0271 4.81064 13.2749C5.13616 13.289 5.44026 13.2819 5.73749 13.2607C5.63141 12.9493 5.50391 12.7443 5.34832 12.6594C5.29882 12.624 5.24224 12.617 5.18567 12.624C5.14147 12.6308 5.10124 12.6534 5.07252 12.6877L5.01573 12.6523ZM5.82943 13.6143H5.80114L5.77993 13.6214H5.68092L5.6597 13.6285H5.56756L5.54634 13.6355H5.44733L5.43319 13.6426H5.2281C5.1008 13.6426 4.95915 13.6355 4.78235 13.6214C4.78235 13.7843 4.80357 13.9257 4.846 14.0389C4.89381 14.1489 4.97569 14.2406 5.07959 14.3005C5.1937 14.3636 5.32584 14.3861 5.4544 14.3644C5.5817 14.3502 5.68799 14.2793 5.76578 14.1591C5.80821 14.0954 5.8365 14.0318 5.84357 13.954C5.85772 13.8833 5.85065 13.7701 5.82943 13.6143ZM4.6692 13.2678L4.67627 13.2395V13.1474L4.68335 13.1191V13.0908L4.67627 13.0696V13.013L4.6692 12.9918V12.9706L4.66213 12.9423L4.65506 12.9211V12.8998L4.64799 12.8786L4.64091 12.8574C4.6035 12.7496 4.52807 12.6591 4.42875 12.6028C4.35854 12.561 4.27562 12.5459 4.19517 12.5602C4.11738 12.5816 4.05373 12.617 4.01129 12.6877C3.95472 12.7725 3.94057 12.8645 3.97593 12.9493C4.01129 13.0271 4.0608 13.0837 4.12445 13.1262C4.17395 13.1546 4.2376 13.1759 4.31539 13.1969C4.39318 13.2183 4.51362 13.2395 4.66899 13.2676L4.6692 13.2678ZM7.06745 10.445L7.84558 9.61031L7.28668 9.15042C7.18767 9.07263 7.12403 9.02313 7.08159 9.00898C7.04394 9.00093 7.0048 9.00337 6.96844 9.01605C6.91195 9.03377 6.86082 9.06538 6.81972 9.10799L6.76314 9.17164L6.70657 9.12921L7.42833 8.35794L7.47784 8.40037L7.42126 8.46423C7.37862 8.50666 7.35054 8.55617 7.34326 8.61274C7.32912 8.6481 7.33619 8.69053 7.3574 8.72589C7.37155 8.76125 7.4354 8.81783 7.52734 8.88855L8.7795 9.92148C8.87851 9.99927 8.94216 10.0488 8.98459 10.0629C9.01995 10.07 9.05531 10.07 9.09775 10.0559C9.15432 10.0346 9.20383 10.0063 9.24647 9.96391L9.30304 9.90027L9.35962 9.9427L8.63786 10.7138L8.58835 10.6713L8.64514 10.6077C8.71586 10.537 8.73707 10.4592 8.73 10.3884C8.71586 10.346 8.65221 10.2753 8.53885 10.1831L7.95166 9.69518L7.17374 10.537L7.76072 11.0181C7.85265 11.1029 7.93045 11.1454 7.96581 11.1595C8.00117 11.1666 8.03653 11.1666 8.07917 11.1524C8.13574 11.1383 8.18525 11.1029 8.22768 11.0605L8.28426 10.9968L8.34083 11.0393L7.61907 11.8103L7.56977 11.775L7.62635 11.7113C7.69707 11.6335 7.72536 11.5557 7.71121 11.485C7.69707 11.4426 7.64049 11.3719 7.52027 11.2797L6.2681 10.247C6.17596 10.169 6.10524 10.1195 6.06281 10.1056C6.02517 10.0974 5.98603 10.0998 5.94965 10.1124C5.89308 10.1336 5.84357 10.169 5.80821 10.2046L5.74457 10.2682L5.69506 10.2258L6.40954 9.45452L6.46612 9.49695L6.40247 9.5606C6.36562 9.60365 6.33902 9.6545 6.32468 9.70932C6.31808 9.72798 6.31592 9.74793 6.31837 9.76757C6.32083 9.78721 6.32783 9.80601 6.33882 9.82247C6.36004 9.85783 6.41662 9.91441 6.50855 9.9922L7.06745 10.445ZM9.11896 6.97141L9.07653 6.9219L9.74151 6.35593L9.79122 6.40544L9.71322 6.46909C9.6425 6.52566 9.61421 6.60345 9.62836 6.6956C9.63543 6.7451 9.68493 6.81582 9.78415 6.91483L10.4774 7.64346C10.6471 7.82026 10.7603 7.97605 10.8239 8.11042C10.8805 8.23772 10.8876 8.38623 10.8381 8.54909C10.7957 8.71175 10.6825 8.88148 10.4916 9.04414C10.2863 9.21407 10.0953 9.31308 9.92559 9.34158C9.74879 9.36258 9.58592 9.3343 9.43741 9.2563C9.32426 9.207 9.16847 9.07263 8.96338 8.85319L8.2984 8.15285C8.19232 8.04677 8.10745 7.98312 8.04381 7.97605C7.97995 7.96898 7.90923 7.99727 7.83851 8.06092L7.76779 8.11749L7.72536 8.06799L8.53178 7.38158L8.58128 7.42422L8.51056 7.48787C8.43277 7.55152 8.39741 7.62224 8.41155 7.70003C8.41862 7.74954 8.46813 7.82026 8.56714 7.92655L9.31011 8.70468C9.38083 8.7754 9.45863 8.85319 9.55764 8.93098C9.66372 9.0017 9.74858 9.05849 9.84052 9.0797C9.92977 9.09484 10.0211 9.09244 10.1095 9.07263C10.2178 9.04222 10.3173 8.98639 10.3996 8.90977C10.5269 8.80369 10.6118 8.68346 10.6613 8.54909C10.7108 8.41472 10.7108 8.29429 10.6754 8.18114C10.633 8.07506 10.5198 7.92655 10.3428 7.73539L9.64957 7.00677C9.53642 6.89361 9.45863 6.83704 9.40912 6.82997C9.33133 6.82289 9.26061 6.85118 9.18989 6.90776L9.11896 6.97141ZM12.7837 7.26157L10.7603 6.10841L11.7225 7.43837C11.8074 7.55859 11.8781 7.62931 11.9276 7.64346C11.9983 7.6576 12.0761 7.63639 12.1541 7.58688L12.2319 7.53738L12.2743 7.58688L11.5314 8.06799L11.4889 8.01141L11.5669 7.96191C11.6589 7.90533 11.7013 7.84168 11.7013 7.76368C11.7013 7.71418 11.6589 7.64346 11.5811 7.53031L10.6401 6.22864C10.5764 6.1367 10.5198 6.08012 10.4703 6.05184C10.435 6.03748 10.3926 6.03041 10.3358 6.03748C10.2863 6.03748 10.2155 6.07284 10.1307 6.12963L10.0882 6.07305L10.6966 5.68388L12.5784 6.75217L12.2107 4.7146L12.8049 4.33271L12.8474 4.38221L12.7767 4.43172C12.6845 4.48829 12.6352 4.55901 12.6352 4.62973C12.6352 4.67924 12.6774 4.75703 12.7554 4.87039L13.6962 6.17206C13.7882 6.29228 13.8589 6.363 13.9084 6.37008C13.9791 6.39129 14.0571 6.37008 14.1349 6.3135L14.2127 6.27107L14.2481 6.32057L13.3495 6.90069L13.3071 6.84411L13.3851 6.79461C13.477 6.73803 13.5194 6.67438 13.5194 6.59638C13.5194 6.55395 13.477 6.47616 13.3992 6.363L12.437 5.03305L12.8332 7.23328L12.7837 7.26157ZM15.5356 4.83482L14.637 5.25228L14.6655 5.66267C14.6726 5.76167 14.6867 5.83239 14.7079 5.87483C14.7221 5.91019 14.7574 5.9314 14.7999 5.93848C14.8494 5.95262 14.9272 5.9314 15.0403 5.88897L15.0757 5.94555L14.3471 6.29228L14.3188 6.22864C14.4036 6.16499 14.4602 6.11548 14.4744 6.08012C14.5026 6.00212 14.5097 5.86796 14.4956 5.6766L14.3753 3.51901L14.4249 3.49779L16.1793 4.91282C16.3208 5.02598 16.4269 5.0967 16.5049 5.11084C16.5756 5.13206 16.6604 5.12498 16.7595 5.08255L16.7877 5.13913L15.8892 5.57073L15.8538 5.50708C15.946 5.45758 15.9955 5.41494 16.0167 5.37958C16.0379 5.33714 16.0379 5.30178 16.0167 5.26642C15.9955 5.21692 15.9318 5.15327 15.8328 5.07548L15.5356 4.83482ZM15.4224 4.74289L14.5736 4.04962L14.6302 5.11084L15.4224 4.74289ZM15.9247 2.86818L16.5827 2.64894L18.691 3.8516L18.2028 2.54993C18.1462 2.40849 18.0967 2.33049 18.047 2.30928C17.9904 2.27392 17.9126 2.27392 17.8136 2.30928L17.7358 2.33757L17.7075 2.27392L18.5564 1.99104L18.5776 2.04761L18.4927 2.08297C18.3866 2.11833 18.3301 2.16784 18.3018 2.23856C18.2876 2.28099 18.3089 2.37293 18.3584 2.50043L19.0801 4.41757L19.0163 4.43172L16.7382 3.13712L17.2688 4.53073C17.3184 4.67217 17.3679 4.75703 17.4103 4.77825C17.4739 4.81361 17.5517 4.81361 17.6439 4.77825L17.7358 4.74996L17.757 4.81361L16.9152 5.09649L16.8868 5.03305L16.9718 5.00476C17.0779 4.97647 17.1416 4.9199 17.1628 4.84897C17.1698 4.79946 17.1557 4.7146 17.1062 4.5873L16.5119 3.00962C16.4129 2.95304 16.3422 2.91768 16.2925 2.91061C16.2501 2.89646 16.1864 2.88939 16.1086 2.88939C16.0733 2.89646 16.0167 2.90354 15.946 2.93182L15.9247 2.86818ZM21.733 1.26927L21.8956 2.08297L21.8249 2.09712C21.7754 1.94153 21.7117 1.82817 21.634 1.74352C21.5514 1.66041 21.4491 1.59952 21.3367 1.56651C21.227 1.53134 21.1103 1.52405 20.9971 1.54529C20.8781 1.56198 20.7696 1.62252 20.693 1.71502C20.6222 1.80696 20.601 1.8991 20.6222 1.99104C20.6364 2.06176 20.6717 2.1254 20.7425 2.17491C20.8344 2.24563 21.0395 2.33049 21.3579 2.42243C21.6196 2.50043 21.7966 2.56387 21.8956 2.61358C21.9946 2.66309 22.0795 2.71966 22.1431 2.80453C22.2068 2.87525 22.2492 2.96718 22.2706 3.05912C22.306 3.23592 22.2636 3.40586 22.1431 3.56144C22.0158 3.71723 21.839 3.81624 21.6127 3.85868C21.5347 3.87282 21.4713 3.87989 21.4006 3.87989C21.3579 3.88696 21.2799 3.87989 21.1458 3.85868C21.0183 3.84453 20.9405 3.83746 20.9051 3.84453C20.8792 3.84998 20.8564 3.86517 20.8415 3.88696C20.8273 3.90818 20.8203 3.94354 20.8273 4.00012L20.7566 4.01426L20.5869 3.20077L20.6576 3.18662C20.7283 3.35635 20.792 3.46951 20.8698 3.5473C20.9405 3.62509 21.0324 3.68187 21.1599 3.71016C21.2801 3.75259 21.4074 3.75259 21.5418 3.73138C21.6976 3.70309 21.8108 3.64631 21.8885 3.5473C21.9593 3.45536 21.9876 3.35635 21.9663 3.25027C21.9499 3.1871 21.9183 3.12885 21.8744 3.08054C21.8221 3.02147 21.7567 2.9754 21.6835 2.94597C21.6267 2.91768 21.4852 2.86818 21.2446 2.79746C21.0041 2.71966 20.8273 2.65601 20.7283 2.60651C20.632 2.56286 20.5454 2.50025 20.4737 2.42243C20.4105 2.34691 20.3668 2.25708 20.3462 2.16076C20.3179 1.99104 20.3533 1.83524 20.4667 1.68673C20.5798 1.53822 20.7495 1.44628 20.9617 1.40385C21.0963 1.38263 21.2446 1.38971 21.4074 1.42507C21.4782 1.43921 21.5347 1.44628 21.563 1.43921C21.5924 1.4323 21.6193 1.41764 21.641 1.39678C21.6481 1.37556 21.6622 1.3402 21.6622 1.27635L21.733 1.26927ZM23.2044 1.27635L23.2892 2.22441L23.8552 2.17491C24.0037 2.16784 24.0958 2.13248 24.1381 2.09004C24.2019 2.03347 24.2302 1.93446 24.2231 1.80716L24.2939 1.79988L24.3717 2.62773L24.3009 2.6348C24.2797 2.51457 24.2514 2.44365 24.2302 2.41536C24.2016 2.37204 24.1593 2.33964 24.11 2.32342C24.0534 2.30928 23.9754 2.30221 23.8693 2.30928L23.3036 2.35878L23.3812 3.15126C23.3953 3.25734 23.4024 3.32099 23.4165 3.34221C23.4302 3.36391 23.4499 3.38113 23.4733 3.39171C23.5016 3.39879 23.544 3.40586 23.6218 3.39879L24.0534 3.36343C24.1949 3.34928 24.2939 3.33514 24.3575 3.30685C24.4212 3.28563 24.4777 3.2432 24.5343 3.17955C24.605 3.10176 24.6758 2.9884 24.7465 2.83282L24.8245 2.82574L24.6618 3.44829L22.695 3.61095L22.6879 3.5473L22.7798 3.53315C22.8366 3.53315 22.8932 3.51194 22.9498 3.48365C22.9851 3.46243 23.0063 3.42707 23.0205 3.39171C23.0276 3.34928 23.0276 3.27149 23.0205 3.15834L22.872 1.59479C22.8508 1.43921 22.8295 1.34727 22.794 1.31899C22.7445 1.27635 22.6667 1.25513 22.5606 1.26927L22.4687 1.27635V1.20563L24.4353 1.04297L24.5131 1.56651L24.4353 1.57358C24.3999 1.45335 24.3646 1.36142 24.3222 1.31899C24.2829 1.27266 24.2315 1.23828 24.1736 1.21977C24.1171 1.2127 24.0322 1.2127 23.9047 1.21977L23.2044 1.27635Z" fill="black"/>
<path fill-rule="evenodd" clip-rule="evenodd" d="M27.5975 3.45483L26.9114 3.44775L26.0625 2.30167H25.8645C25.8433 2.2946 25.8221 2.2946 25.8079 2.2946L25.7938 3.00201C25.7867 3.15073 25.8008 3.24266 25.8362 3.28489C25.8857 3.3346 25.9564 3.36289 26.0484 3.36289H26.1474V3.43361L25.0579 3.41239V3.34167L25.1498 3.34874C25.2559 3.34874 25.3339 3.32046 25.3834 3.25681C25.4117 3.22145 25.4258 3.12951 25.4258 2.99494L25.4541 1.4316C25.4612 1.28288 25.447 1.18408 25.4117 1.14872C25.3622 1.09901 25.2914 1.07072 25.1995 1.07072L25.1003 1.06365V1L26.0342 1.01414C26.303 1.02122 26.5012 1.04243 26.6285 1.08486C26.7558 1.12022 26.8689 1.19094 26.9538 1.29703C27.0459 1.39624 27.0813 1.51647 27.0813 1.65083C27.0813 1.80642 27.0247 1.92685 26.9184 2.0398C26.8194 2.14588 26.6568 2.2168 26.4375 2.25924L26.9538 2.95958C27.0742 3.12244 27.1732 3.22852 27.2581 3.2851C27.35 3.34167 27.4632 3.36996 27.5978 3.39118V3.45483H27.5975ZM25.8079 2.18144H25.8716C25.8826 2.18657 25.8947 2.18899 25.9069 2.18852C26.1474 2.18852 26.3312 2.14608 26.4587 2.04708C26.579 1.94807 26.6426 1.82056 26.6497 1.67205C26.6497 1.51647 26.6002 1.39624 26.5082 1.29703C26.4092 1.20509 26.2817 1.15558 26.1193 1.14851C26.0484 1.14851 25.9494 1.16266 25.8291 1.18387L25.8079 2.18144Z" fill="black"/>
<path d="M30.3071 1.35414L30.3 1.41799C30.2081 1.42507 30.1374 1.44628 30.0879 1.47457C30.0101 1.52407 29.9391 1.60894 29.8757 1.72209L28.7223 3.66066L28.6516 3.64631L27.9725 1.47457C27.9519 1.40424 27.9259 1.33561 27.8947 1.26927C27.8664 1.22684 27.8311 1.19855 27.7886 1.17027C27.7462 1.14198 27.6896 1.12076 27.6118 1.10662L27.6189 1.04297L28.6589 1.16319L28.6516 1.22684C28.5385 1.22684 28.4607 1.23391 28.4182 1.2622C28.4012 1.27153 28.3865 1.28472 28.3755 1.30072C28.3644 1.31672 28.3573 1.33509 28.3546 1.35435C28.3475 1.41799 28.3617 1.50993 28.4041 1.6443L28.8638 3.1159L29.6421 1.80696C29.7199 1.67259 29.7623 1.58065 29.7694 1.53115C29.7765 1.49579 29.7623 1.46043 29.727 1.42507C29.6987 1.38971 29.635 1.36142 29.5573 1.3402C29.5431 1.3402 29.536 1.33313 29.5219 1.32606L29.529 1.2622L30.3071 1.35414ZM31.2481 3.95768L31.2269 4.0284L30.1656 3.80917L30.1798 3.74552L30.2647 3.75967C30.3707 3.78088 30.4485 3.76674 30.5122 3.72431C30.5475 3.68895 30.5829 3.60387 30.6114 3.46243L30.9579 1.93446C30.9862 1.81403 31.0004 1.73624 30.9933 1.6938C30.9862 1.66552 30.965 1.63723 30.9367 1.60894C30.8872 1.56651 30.8306 1.54529 30.7741 1.53115L30.6821 1.517L30.7033 1.45335L31.7716 1.66552L31.7504 1.72916L31.6653 1.71502C31.5593 1.6938 31.4815 1.70088 31.4249 1.75038C31.3825 1.77867 31.3471 1.8706 31.3188 2.00518L30.9721 3.54023C30.9438 3.65338 30.9367 3.73845 30.9367 3.77381C30.9438 3.80917 30.965 3.83746 31.0004 3.86575C31.0428 3.90111 31.0994 3.9294 31.1562 3.94354L31.2481 3.95768ZM34.3537 2.30221L34.1557 3.10176L34.0992 3.08054C34.0992 2.82574 34.0494 2.62773 33.9434 2.48629C33.8444 2.34485 33.6888 2.24563 33.4978 2.18905C33.335 2.14662 33.1794 2.13955 33.0236 2.18198C32.868 2.22441 32.7266 2.31635 32.5922 2.46486C32.4649 2.61358 32.3588 2.81867 32.2739 3.06619C32.2101 3.27835 32.1889 3.46971 32.2101 3.63923C32.2313 3.81604 32.3022 3.96476 32.4154 4.08498C32.5364 4.21233 32.6908 4.30307 32.8609 4.34685C33.0238 4.39636 33.1723 4.40343 33.3137 4.36807C33.4552 4.33978 33.6251 4.25471 33.8302 4.1062L33.8797 4.1557C33.6888 4.32564 33.4978 4.43172 33.2996 4.48122C33.1087 4.53073 32.8963 4.52365 32.6771 4.46001C32.2667 4.34685 32.005 4.11327 31.8706 3.76674C31.7716 3.50487 31.7716 3.22906 31.8636 2.94597C31.9343 2.71259 32.0616 2.52165 32.2313 2.35878C32.3956 2.19905 32.6015 2.08876 32.8256 2.04054C33.0521 1.98396 33.2784 1.99104 33.5049 2.05468C33.6817 2.11126 33.8444 2.19613 33.9858 2.33049C34.0282 2.37293 34.0565 2.39414 34.085 2.40121C34.1133 2.40829 34.1416 2.40121 34.1769 2.38707C34.2194 2.36585 34.2547 2.33049 34.283 2.28099L34.3537 2.30221ZM35.5352 2.9389L35.1462 3.81624L35.6625 4.02133C35.7969 4.07791 35.8961 4.09205 35.9597 4.07084C36.0375 4.04962 36.1153 3.97183 36.179 3.8516L36.2426 3.87989L35.8961 4.64388L35.8322 4.62266C35.8605 4.50951 35.8749 4.43172 35.8749 4.39636C35.8678 4.34685 35.8534 4.30442 35.811 4.26199C35.7756 4.22663 35.7049 4.18399 35.613 4.14156L35.0894 3.93647L34.7641 4.67217C34.7146 4.7641 34.7005 4.82775 34.6934 4.85625C34.6934 4.87746 34.7005 4.89868 34.7217 4.92697C34.7358 4.94818 34.7783 4.9694 34.8419 4.99769L35.245 5.15327C35.3725 5.20278 35.4786 5.23106 35.5423 5.23814C35.613 5.24521 35.6837 5.23814 35.7615 5.20985C35.8605 5.16742 35.9809 5.0967 36.1224 4.99062L36.1931 5.0189L35.7403 5.49294L33.9224 4.77117L33.9504 4.70753L34.0353 4.74996C34.0921 4.7641 34.1487 4.77117 34.2121 4.77117C34.2547 4.77117 34.2901 4.74996 34.3182 4.72167C34.3467 4.69338 34.382 4.62266 34.4388 4.51658L35.0824 3.06619C35.146 2.93182 35.1672 2.83989 35.1531 2.79038C35.1319 2.73381 35.0753 2.6843 34.9763 2.64187L34.8914 2.61358L34.9197 2.54993L36.7379 3.27149L36.5469 3.77381L36.4762 3.74552C36.5045 3.61802 36.5115 3.52608 36.5045 3.46951C36.4974 3.41293 36.4691 3.36343 36.4194 3.32099C36.377 3.28563 36.2992 3.2432 36.186 3.1937L35.5352 2.9389ZM38.8532 4.24056L38.4358 4.97647L38.3721 4.94111C38.4287 4.79239 38.457 4.65823 38.457 4.55194C38.4493 4.43957 38.4101 4.33164 38.3438 4.24056C38.2802 4.14156 38.1951 4.07084 38.089 4.01426C37.9824 3.95878 37.8593 3.94371 37.7425 3.97183C37.6291 4.00012 37.5513 4.05669 37.5018 4.14156C37.4665 4.2052 37.4594 4.27613 37.4735 4.35372C37.5018 4.46708 37.6008 4.65802 37.7849 4.91989C37.9405 5.13206 38.0324 5.28764 38.082 5.37958C38.1244 5.47879 38.1456 5.5778 38.1456 5.66974C38.1385 5.76875 38.1173 5.86775 38.0678 5.94555C37.9759 6.10841 37.8344 6.21449 37.6291 6.26379C37.4311 6.3135 37.226 6.28521 37.0207 6.17913C36.9585 6.14958 36.8993 6.11405 36.8439 6.07305C36.8086 6.05184 36.752 5.99505 36.6601 5.90311C36.5752 5.81825 36.5115 5.76875 36.4833 5.7546C36.4548 5.74046 36.4335 5.73339 36.4053 5.74753C36.377 5.74753 36.3558 5.77582 36.3133 5.81825L36.2497 5.78996L36.674 5.06134L36.7308 5.08962C36.6742 5.25935 36.6459 5.39372 36.653 5.49294C36.6601 5.59195 36.6954 5.69803 36.7661 5.79703C36.8369 5.89604 36.9359 5.98091 37.0563 6.03748C37.1907 6.1082 37.325 6.12963 37.4382 6.10134C37.5584 6.07305 37.6504 6.00919 37.7071 5.91726C37.7354 5.86775 37.7496 5.80411 37.7496 5.73339C37.7496 5.66974 37.7284 5.59195 37.693 5.51415C37.6647 5.46465 37.5869 5.33735 37.4523 5.13913C37.318 4.93404 37.219 4.78553 37.1765 4.68631C37.1313 4.59373 37.1072 4.4923 37.1058 4.38928C37.1058 4.29028 37.127 4.2052 37.1765 4.11327C37.2685 3.96476 37.4028 3.86575 37.5938 3.81624C37.7779 3.76674 37.9688 3.79503 38.1597 3.88696C38.2802 3.95061 38.3933 4.04255 38.4994 4.16984C38.5418 4.22642 38.5772 4.26199 38.6055 4.26906C38.6338 4.29028 38.6621 4.29028 38.6904 4.2832C38.7186 4.27613 38.754 4.25471 38.7894 4.21248L38.8532 4.24056ZM42.7158 6.93605L42.7582 6.87947L43.4515 7.40987L43.4091 7.46666L43.3383 7.41008C43.2605 7.34643 43.1757 7.33229 43.0767 7.36058C43.0342 7.37472 42.9633 7.4313 42.8714 7.53738L42.2205 8.2945C42.0579 8.48544 41.9164 8.61274 41.7889 8.69053C41.6546 8.76125 41.5061 8.78954 41.3222 8.7754C41.1454 8.76833 40.9542 8.68346 40.7562 8.52788C40.5368 8.36501 40.4026 8.20236 40.3529 8.04677C40.3022 7.89483 40.3046 7.73014 40.36 7.57981C40.4024 7.47373 40.5156 7.304 40.7136 7.07749L41.3434 6.34886C41.4424 6.23571 41.4919 6.14377 41.4848 6.0872C41.4848 6.02334 41.4495 5.96676 41.3717 5.91039L41.301 5.85361L41.3434 5.80411L42.1923 6.44787L42.1498 6.49737L42.072 6.4408C41.9942 6.38422 41.9164 6.363 41.8387 6.38422C41.7889 6.39836 41.7182 6.46201 41.6265 6.56102L40.9189 7.38179C40.8623 7.45251 40.7916 7.53738 40.7279 7.64346C40.6643 7.74954 40.6219 7.84168 40.6148 7.92634C40.6077 8.00434 40.6219 8.0892 40.6643 8.18114C40.6996 8.266 40.7774 8.35087 40.8764 8.4218C41.0037 8.52788 41.1452 8.58445 41.2939 8.61274C41.4424 8.63396 41.5697 8.61981 41.6829 8.56324C41.7889 8.51373 41.9304 8.38644 42.1003 8.18114L42.7582 7.42402C42.8572 7.31107 42.9067 7.22621 42.8997 7.1765C42.8997 7.10577 42.8643 7.0492 42.7865 6.98555L42.7158 6.93605ZM44.9938 8.76853L44.3642 9.35551L44.3147 9.31308C44.4208 9.18578 44.4844 9.06556 44.5127 8.95948C44.5422 8.85261 44.5397 8.73945 44.5056 8.63396C44.4735 8.52533 44.4124 8.42752 44.3288 8.35108C44.2369 8.25893 44.1306 8.2165 44.0106 8.2165C43.8972 8.20943 43.7982 8.24479 43.7275 8.30844C43.6735 8.36091 43.6407 8.43151 43.6356 8.50666C43.6214 8.61981 43.6709 8.83197 43.7629 9.12921C43.8477 9.37673 43.8902 9.55353 43.9043 9.65274C43.9185 9.75883 43.9114 9.85783 43.876 9.94977C43.8477 10.0488 43.7912 10.1266 43.7204 10.1973C43.579 10.3248 43.4091 10.3884 43.204 10.3814C42.9989 10.3743 42.815 10.2965 42.6451 10.1339C42.5956 10.0841 42.5461 10.0346 42.5107 9.98513C42.4895 9.95684 42.4471 9.88612 42.3905 9.77297C42.3266 9.66689 42.2844 9.60324 42.263 9.58182C42.2539 9.57227 42.2429 9.56479 42.2307 9.55991C42.2185 9.55502 42.2054 9.55285 42.1923 9.55353C42.164 9.55353 42.1286 9.56767 42.0791 9.60324L42.0296 9.55353L42.6451 8.96634L42.6946 9.01605C42.5956 9.16457 42.5248 9.28479 42.5036 9.3838C42.4753 9.47574 42.4824 9.58889 42.5178 9.70204C42.5605 9.82059 42.6308 9.92731 42.7229 10.0134C42.836 10.1195 42.9492 10.169 43.0765 10.1761C43.1323 10.1802 43.1885 10.1722 43.241 10.1527C43.2935 10.1332 43.3412 10.1026 43.3808 10.0629C43.4232 10.0276 43.4586 9.97099 43.4798 9.90734C43.501 9.83662 43.501 9.7659 43.4939 9.67396C43.4869 9.61738 43.4444 9.47574 43.3737 9.24943C43.303 9.02313 43.2605 8.85319 43.2464 8.74004C43.2323 8.63396 43.2393 8.52788 43.2676 8.44301C43.2959 8.35087 43.3525 8.27308 43.4232 8.19549C43.5576 8.07485 43.7134 8.01848 43.9114 8.01848C44.1023 8.02556 44.2793 8.10335 44.4349 8.24479C44.5269 8.33672 44.6117 8.45695 44.6683 8.59839C44.6966 8.66911 44.7249 8.71175 44.7461 8.73296C44.7675 8.75418 44.7958 8.76833 44.8241 8.76833C44.8453 8.76833 44.8877 8.75418 44.9372 8.71882L44.9938 8.76853ZM45.2201 11.5557L44.5836 10.8271L44.1662 10.9403C44.0601 10.9686 43.9894 10.9968 43.954 11.0251C43.94 11.039 43.9291 11.0555 43.9217 11.0738C43.9144 11.092 43.9109 11.1116 43.9114 11.1312C43.9114 11.1736 43.9467 11.2444 44.0175 11.3434L43.9609 11.3787L43.4515 10.7918L43.5081 10.7491C43.5861 10.8198 43.6495 10.8483 43.6922 10.8552C43.7841 10.8695 43.9255 10.8483 44.1165 10.7918L46.3238 10.1975L46.3591 10.2399L45.2767 12.1639C45.1918 12.3199 45.1494 12.4329 45.1494 12.5036C45.1423 12.5816 45.1706 12.6594 45.2343 12.7372L45.1777 12.7796L44.5412 12.0439L44.5905 12.0015C44.6612 12.0722 44.7178 12.1146 44.7673 12.1217C44.8099 12.1288 44.8453 12.1217 44.8807 12.1005C44.9231 12.0651 44.9726 11.9944 45.0363 11.8883L45.2201 11.5557ZM45.2908 11.4284L45.8144 10.4945L44.7319 10.7918L45.2908 11.4284ZM49.2314 21.7359L49.2243 21.743L49.2173 21.7501L49.2102 21.7571L49.1961 21.7642L49.1819 21.7784L49.1678 21.7925L49.1466 21.8066L49.1041 21.842L49.0546 21.8915L48.991 21.941L48.9273 21.9976L48.8493 22.0614L48.7715 22.1251L48.6796 22.2029L48.5877 22.2807L48.4886 22.3585L48.3826 22.4433L48.2765 22.5353L48.1631 22.6272L48.0429 22.7194L47.9227 22.8184L47.7954 22.9174L47.6749 23.0164L47.4133 23.2144L47.1445 23.4126L46.8827 23.6106L46.6139 23.7945L46.4864 23.8867L46.3521 23.9715L46.2248 24.0564L46.1045 24.1412C44.7109 25.0113 38.457 28.3366 37.0704 29.4827C35.6768 30.6286 35.7332 31.6049 35.7332 31.6049L35.5069 34.4417C35.5069 34.4417 34.6366 35.319 34.5235 35.6443C34.4103 35.9698 35.1038 36.0264 35.6201 36.2954C36.1436 36.5712 35.521 36.8187 35.7332 37.0664C36.1436 37.5261 36.4618 37.1513 36.186 37.9365C36.1436 38.0569 36.5328 38.4247 36.4903 38.6297C36.4196 38.9553 36.2428 39.1747 36.5469 39.4647C36.8934 39.79 38.0112 40.3418 40.5721 39.8183C43.3525 39.2454 45.1777 41.4101 46.5644 41.778C47.0383 41.8983 48.6089 42.3935 51.0849 40.4693C52.1532 39.6415 50.427 40.3913 47.951 39.3515C45.3121 38.2479 44.5198 38.1771 42.7441 38.5095C41.2232 38.7924 40.0983 39.0401 39.5041 38.8631C38.9945 38.7077 39.419 37.9506 39.0371 37.8233C38.2731 37.5687 38.7964 37.2008 38.3438 36.9533C37.8839 36.6985 38.1527 36.5995 38.1385 36.0901C38.1315 35.7365 37.7425 35.8355 37.1836 35.5243C36.752 35.2766 37.7779 34.8237 37.9264 34.4629C38.0961 34.0173 37.8839 33.3948 37.9971 32.4821C38.2022 30.8763 40.6006 29.7512 41.874 29.0438C43.2676 28.2869 47.2436 25.8604 48.1843 25.2308C50.3846 23.7591 49.2314 21.7359 49.2314 21.7359ZM39.2848 6.39836H39.3202L39.3412 6.39129H39.3553L39.3765 6.38422H39.3978L39.4119 6.37715L39.4263 6.37008L39.4475 6.363L39.4616 6.35593L39.4758 6.34886L39.497 6.33472L39.5111 6.32764L39.5253 6.3135L39.5394 6.30643L39.5465 6.29228L39.5606 6.27814L39.5748 6.27107L39.5818 6.25692L39.596 6.24278L39.6031 6.22864L39.6101 6.21449L39.6243 6.20035L39.6314 6.17913L39.6384 6.16499V6.15084L39.6455 6.12963L39.6526 6.11548V6.09427L39.6596 6.08012V6.04476C39.6596 5.84654 39.4899 5.69095 39.2846 5.69095C39.0725 5.69095 38.9098 5.84654 38.9098 6.04456C38.9098 6.23571 39.0725 6.39836 39.2846 6.39836H39.2848Z" fill="black"/>
</svg>
