<svg width="54" height="45" viewBox="0 0 54 45" fill="none" xmlns="http://www.w3.org/2000/svg">
<path d="M53.5569 37.2075L53.2059 30.468L48.9937 21.3417L48.7831 18.1123L45.3432 12.9875L41.7628 2.3869L42.0437 1.68487C42.0437 1.68487 42.0437 1.68487 42.0437 1.61466C42.0437 1.54446 42.0437 1.61466 42.0437 1.61466L38.9547 0.982839H38.8845L38.3931 1.61466C38.3931 1.61466 38.3931 1.61466 38.3931 1.68487L38.6739 2.94852L38.5335 4.42278L37.7613 4.49298L37.4805 4.14197L37.2699 3.01872C37.2699 3.01872 37.2699 2.94852 37.1997 2.94852L19.4384 2.24649L18.8767 1.40406L18.5257 0.0702031C18.5257 0.0702031 18.5257 0.0702031 18.4555 0.0702031L0.975013 0C0.975013 0 0.90481 2.66756e-07 0.90481 0.0702031L0.764404 1.19345C0.764404 1.19345 0.764404 1.19345 0.764404 1.26365L2.23866 2.87832L1.95785 3.79095L2.09826 5.0546C2.09826 5.0546 2.09826 5.0546 2.09826 5.1248C2.09826 5.1248 2.09826 5.1248 2.16846 5.1248L3.2215 4.14197L3.85333 4.07176L4.48515 3.58034H4.62556V3.86115L4.27454 4.77379C4.27454 4.77379 4.27454 4.77379 4.27454 4.84399C4.27454 4.9142 4.27454 4.84399 4.34475 4.84399L9.32915 4.21217L9.82057 4.42278L9.75036 4.77379L9.39935 4.9142C9.39935 4.9142 9.39935 4.9142 9.39935 4.9844L9.46955 5.19501L14.805 7.93292L15.9984 9.75819L16.4898 10.1794C16.4898 10.1794 16.4898 10.1794 16.56 10.1794L20.0702 9.47738L21.8252 8.56474H22.5975L22.7379 8.49454L22.8081 7.86271L23.4399 7.37129H25.1248L26.3182 7.79251L28.4243 10.039L29.0561 10.3198L29.1263 11.5133C29.1263 11.5133 29.1263 11.5133 29.1263 11.5835L29.7582 11.8643L31.092 13.4087L33.4087 14.4618L33.6895 14.883L33.9703 24.5008L34.0405 24.6412C34.0405 24.6412 34.0405 24.6412 34.1107 24.6412H34.6724C34.6724 24.6412 34.7426 24.6412 34.7426 24.571L34.8128 23.4477L35.3042 23.5881L35.7956 24.0094L35.0936 26.7473L35.3042 28.0811L37.9017 31.8019L38.1825 31.9423C38.1825 31.9423 38.1825 31.9423 38.2527 31.9423L39.1653 31.5913L39.5866 33.6973C39.5866 33.6973 39.5866 33.6973 39.6568 33.6973L40.2184 33.4867L40.2886 33.5569L39.9376 34.1186L39.8674 34.61C39.8674 34.61 39.8674 34.61 39.8674 34.6802L41.0608 36.2246L42.0437 38.6817L42.7457 39.3838H43.8689L44.571 40.0156L45.975 42.6833V44.298L46.1154 44.5788L46.677 45L49.6256 44.5086L51.17 43.6661L52.1529 44.0874H52.2231L52.7847 43.1045V43.0343L52.2231 42.6131L53.5569 37.2075Z" fill="white"/>
</svg>
