<svg width="53" height="45" viewBox="0 0 53 45" fill="none" xmlns="http://www.w3.org/2000/svg">
<path d="M52.7925 37.2075L52.4415 30.468L48.2293 21.3417L48.0187 18.1123L44.5788 12.9875L40.9984 2.3869L41.2792 1.68487C41.2792 1.68487 41.2792 1.68487 41.2792 1.61466C41.2792 1.54446 41.2792 1.61466 41.2792 1.61466L38.1903 0.982839H38.1201L37.6287 1.61466C37.6287 1.61466 37.6287 1.61466 37.6287 1.68487L37.9095 2.94852L37.7691 4.42278L36.9969 4.49298L36.7161 4.14197L36.5055 3.01872C36.5055 3.01872 36.5055 2.94852 36.4353 2.94852L18.6739 2.24649L18.1123 1.40406L17.7613 0.0702031C17.7613 0.0702031 17.7613 0.0702031 17.6911 0.0702031L0.210609 0C0.210609 0 0.140406 2.66756e-07 0.140406 0.0702031L0 1.19345C0 1.19345 0 1.19345 0 1.26365L1.47426 2.87832L1.19345 3.79095L1.33385 5.0546C1.33385 5.0546 1.33385 5.0546 1.33385 5.1248C1.33385 5.1248 1.33385 5.1248 1.40406 5.1248L2.4571 4.14197L3.08892 4.07176L3.72075 3.58034H3.86115V3.86115L3.51014 4.77379C3.51014 4.77379 3.51014 4.77379 3.51014 4.84399C3.51014 4.9142 3.51014 4.84399 3.58034 4.84399L8.56474 4.21217L9.05616 4.42278L8.98596 4.77379L8.63495 4.9142C8.63495 4.9142 8.63495 4.9142 8.63495 4.9844L8.70515 5.19501L14.0406 7.93292L15.234 9.75819L15.7254 10.1794C15.7254 10.1794 15.7254 10.1794 15.7956 10.1794L19.3058 9.47738L21.0608 8.56474H21.8331L21.9735 8.49454L22.0437 7.86271L22.6755 7.3713H24.3604L25.5538 7.79251L27.6599 10.039L28.2917 10.3198L28.3619 11.5133C28.3619 11.5133 28.3619 11.5133 28.3619 11.5835L28.9938 11.8643L30.3276 13.4087L32.6443 14.4618L32.9251 14.883L33.2059 24.5008L33.2761 24.6412C33.2761 24.6412 33.2761 24.6412 33.3463 24.6412H33.908C33.908 24.6412 33.9782 24.6412 33.9782 24.571L34.0484 23.4477L34.5398 23.5881L35.0312 24.0094L34.3292 26.7473L34.5398 28.0811L37.1373 31.8019L37.4181 31.9423C37.4181 31.9423 37.4181 31.9423 37.4883 31.9423L38.4009 31.5913L38.8222 33.6973C38.8222 33.6973 38.8222 33.6973 38.8924 33.6973L39.454 33.4867L39.5242 33.5569L39.1732 34.1186L39.103 34.61C39.103 34.61 39.103 34.61 39.103 34.6802L40.2964 36.2246L41.2792 38.6817L41.9813 39.3838H43.1045L43.8066 40.0156L45.2106 42.6833V44.298L45.351 44.5788L45.9126 45L48.8612 44.5086L50.4056 43.6662L51.3885 44.0874H51.4587L52.0203 43.1045V43.0343L51.4587 42.6131L52.7925 37.2075Z" fill="white"/>
</svg>
