<svg width="41" height="45" viewBox="0 0 41 45" fill="none" xmlns="http://www.w3.org/2000/svg">
<path d="M37.1947 38.9416C37.1802 38.9396 37.1672 38.9351 37.1547 38.9276C37.1427 38.9241 37.1057 38.9261 37.0977 38.9196C37.0832 38.9081 37.0917 38.8901 37.0937 38.8741C37.0992 38.8331 37.1147 38.7976 37.1192 38.7566C37.1222 38.7316 37.1252 38.7181 37.1167 38.6936C37.1082 38.6701 37.0912 38.6521 37.0792 38.6311C37.0587 38.5956 37.0542 38.5556 37.0527 38.5156C37.0512 38.4781 37.0597 38.4396 37.0642 38.4021C37.0687 38.3671 37.0632 38.3391 37.0642 38.3041C37.0322 38.2821 36.9852 38.3681 36.9677 38.3856C36.9297 38.4236 36.8887 38.4431 36.8682 38.4966C36.8612 38.5156 36.8612 38.5376 36.8587 38.5576C36.8562 38.5801 36.8507 38.5931 36.8432 38.6131C36.8297 38.6491 36.8352 38.6846 36.8167 38.7196C36.7922 38.7656 36.7577 38.7771 36.7177 38.8056C36.6852 38.8291 36.6577 38.8646 36.6307 38.8936C36.5967 38.9301 36.5572 38.9562 36.5207 38.9892C36.4901 39.0162 36.4607 39.0487 36.4326 39.0777C36.3816 39.1297 36.3341 39.1942 36.2931 39.2557C36.2756 39.2817 36.2676 39.3132 36.2706 39.3452C36.2731 39.3682 36.2841 39.3972 36.2921 39.4192C36.3006 39.4422 36.3061 39.4677 36.3151 39.4907C36.3341 39.5402 36.3976 39.5527 36.4401 39.5742C36.4827 39.5957 36.5297 39.6277 36.5467 39.6747C36.5602 39.7132 36.5462 39.7602 36.5412 39.7997C36.5377 39.8277 36.5137 39.9002 36.5372 39.9227L36.5357 39.9337C36.5292 39.9887 36.5387 40.0347 36.5467 40.0887C36.5542 40.1392 36.5907 40.1782 36.6007 40.2292C36.6102 40.2767 36.5967 40.3287 36.5907 40.3762C36.5842 40.4292 36.5617 40.5017 36.5792 40.5532C36.5962 40.6032 36.6437 40.6282 36.6492 40.6832C36.6522 40.7112 36.6407 40.7377 36.6412 40.7653C36.6417 40.7873 36.6467 40.8063 36.6447 40.8288C36.6402 40.8868 36.6717 40.9353 36.7082 40.9793C36.7282 41.0033 36.7442 41.0128 36.7752 41.0148C36.7992 41.0168 36.8362 40.9963 36.8357 40.9668L36.8637 40.9153C36.8742 40.8283 36.8707 40.7482 36.8542 40.6622C36.8417 40.5962 36.8267 40.5257 36.8207 40.4592C36.8182 40.4312 36.8317 40.4022 36.8292 40.3737C36.8277 40.3537 36.8252 40.3397 36.8272 40.3197C36.8322 40.2692 36.8397 40.2192 36.8457 40.1692C36.8542 40.0987 36.8597 40.0262 36.8712 39.9562C36.8777 39.9172 36.8952 39.8817 36.9052 39.8442C36.9137 39.8122 36.9192 39.7877 36.9347 39.7577C36.9642 39.7012 36.9877 39.6422 37.0157 39.5852C37.0512 39.5132 37.0757 39.4412 37.1062 39.3672C37.1212 39.3312 37.1452 39.2992 37.1542 39.2627C37.1652 39.2197 37.1817 39.1787 37.1972 39.1372C37.2137 39.0927 37.2332 39.0477 37.2417 39.0012C37.2452 38.9812 37.2527 38.9617 37.2362 38.9471C37.2227 38.9441 37.2087 38.9421 37.1947 38.9416Z" fill="white"/>
<path d="M36.8451 37.8261C36.8631 37.8356 36.8776 37.8526 36.8991 37.8521C36.9191 37.8516 36.9396 37.8361 36.9476 37.8186C36.9576 37.7961 36.9556 37.7651 36.9586 37.7416C36.9641 37.6981 36.9691 37.6546 36.9746 37.6111C36.9786 37.5765 36.9781 37.5335 36.9876 37.5005C36.9996 37.4595 37.0461 37.461 37.0536 37.4215C37.0611 37.3815 37.0421 37.351 37.0216 37.319C37.0011 37.2865 36.9856 37.2595 36.9776 37.2225C36.9726 37.199 36.9631 37.1765 36.9646 37.152C36.9656 37.1335 36.9741 37.116 36.9706 37.097C36.9266 37.083 36.8991 37.093 36.8601 37.1155C36.8341 37.1305 36.8261 37.133 36.8211 37.163C36.8186 37.178 36.8181 37.1935 36.8161 37.2085C36.8116 37.2435 36.8116 37.2825 36.8036 37.317C36.7916 37.3675 36.7401 37.3755 36.6956 37.369C36.6551 37.3635 36.6176 37.363 36.5811 37.344C36.5431 37.3245 36.5201 37.29 36.4831 37.268C36.4106 37.225 36.3286 37.225 36.2461 37.215L36.2541 37.238C36.2386 37.2855 36.2876 37.338 36.3036 37.378C36.3211 37.422 36.2731 37.418 36.2701 37.458C36.2666 37.5025 36.3271 37.527 36.3591 37.547C36.3926 37.5675 36.4176 37.589 36.4486 37.6121C36.5176 37.6631 36.5776 37.7366 36.6596 37.7671C36.7211 37.7896 36.7866 37.7951 36.8451 37.8261Z" fill="white"/>
<path d="M36.2911 38.0746C36.2611 38.0706 36.2311 38.0671 36.2016 38.0636C36.1396 38.0561 36.0961 38.0526 36.0441 38.0946C36.0156 38.1176 35.9801 38.1591 35.9406 38.1531C35.9066 38.1476 35.8666 38.1236 35.8376 38.1066C35.78 38.0726 35.7185 38.1046 35.656 38.0956L35.633 38.1036C35.612 38.1166 35.5945 38.1191 35.596 38.1451C35.597 38.1611 35.6165 38.1916 35.6315 38.2001C35.66 38.2161 35.7125 38.2116 35.745 38.2156C35.7755 38.2191 35.8151 38.2171 35.8436 38.2276C35.8831 38.2421 35.8926 38.3021 35.9231 38.3286C35.9516 38.3536 35.9856 38.3486 36.0181 38.3581C36.0321 38.3621 36.0426 38.3711 36.0571 38.3751C36.0751 38.3796 36.0961 38.3791 36.1151 38.3816C36.1446 38.3851 36.1936 38.4011 36.2226 38.3931C36.2546 38.3846 36.2766 38.3466 36.2926 38.3221C36.3151 38.2881 36.3451 38.2606 36.3681 38.2266C36.3921 38.1921 36.4296 38.1501 36.4651 38.1281C36.4791 38.1196 36.5136 38.1131 36.5096 38.0906C36.5066 38.0746 36.4881 38.0751 36.4736 38.0741C36.4451 38.0716 36.4196 38.0781 36.3901 38.0751C36.3561 38.0721 36.3251 38.0791 36.2911 38.0746Z" fill="white"/>
<path d="M38.1918 33.0403C38.1483 33.0348 38.1303 33.0508 38.0918 33.0698C38.0313 33.0988 37.9663 33.0488 37.9033 33.0838C37.8663 33.1043 37.8798 33.1453 37.8708 33.1809C37.8633 33.2104 37.8113 33.2574 37.7848 33.2739C37.7593 33.2894 37.7248 33.2884 37.6963 33.3014C37.6718 33.3124 37.6193 33.3159 37.6128 33.3474C37.6088 33.3679 37.6303 33.3669 37.6433 33.3834C37.6598 33.4049 37.6633 33.4364 37.6613 33.4619C37.6578 33.4994 37.6558 33.5419 37.6443 33.5779C37.6318 33.6174 37.6123 33.6539 37.5993 33.6919C37.5933 33.7094 37.5883 33.7304 37.5828 33.7484C37.5763 33.7694 37.5713 33.8029 37.5743 33.8249C37.6048 33.8219 37.6278 33.7589 37.6473 33.7394C37.6738 33.7129 37.7058 33.6864 37.7353 33.6624C37.7458 33.6539 37.7568 33.6389 37.7708 33.6479C37.7833 33.6559 37.7758 33.6889 37.7748 33.7004C37.7703 33.7414 37.7643 33.7829 37.7593 33.8239C37.7518 33.8859 37.7408 33.9589 37.7698 34.0179C37.7853 34.0499 37.8248 34.0839 37.8533 34.1054C37.8943 34.1364 37.8998 34.1049 37.9353 34.0819L37.9488 34.0619C37.9668 33.9144 37.9853 33.7669 38.0033 33.6189C38.0053 33.6019 38.0053 33.5829 38.0093 33.5664C38.0128 33.5519 38.0213 33.5394 38.0248 33.5249C38.0283 33.5114 38.0263 33.4959 38.0303 33.4829C38.0368 33.4614 38.0503 33.4394 38.0603 33.4189C38.0693 33.4009 38.0803 33.3559 38.1018 33.3499C38.1298 33.3674 38.0908 33.4904 38.0903 33.5229C38.0903 33.5409 38.0948 33.5544 38.1073 33.5674C38.1243 33.5849 38.1268 33.5804 38.1453 33.5719C38.1793 33.5559 38.2033 33.5239 38.2313 33.4999C38.2613 33.4739 38.2878 33.4239 38.3053 33.3884C38.3233 33.3514 38.3363 33.3134 38.3413 33.2724C38.3448 33.2419 38.3538 33.2088 38.3538 33.1778C38.3533 33.1393 38.3073 33.1083 38.2833 33.0788C38.2568 33.0463 38.2308 33.0458 38.1918 33.0403Z" fill="white"/>
<path d="M37.6497 34.7799C37.6297 34.7959 37.6032 34.7904 37.5867 34.7744C37.5482 34.7364 37.5347 34.6584 37.4672 34.6594C37.4472 34.6599 37.4102 34.6724 37.3922 34.6829C37.3647 34.6989 37.3627 34.7234 37.3597 34.7514C37.3562 34.7814 37.3527 34.8039 37.3602 34.8339C37.3697 34.8714 37.3837 34.8919 37.4047 34.9244C37.4392 34.9775 37.4822 35.0145 37.5312 35.0515C37.5517 35.067 37.5672 35.082 37.5957 35.0825C37.6362 35.083 37.6457 35.0455 37.6762 35.0255L37.6882 35.016C37.6892 34.9599 37.7382 34.9279 37.7577 34.8794C37.7677 34.8549 37.7667 34.8319 37.7582 34.8079C37.7497 34.7844 37.7322 34.7449 37.7127 34.7294C37.6747 34.6989 37.6707 34.7629 37.6497 34.7799Z" fill="white"/>
<path d="M38.1838 32.0618C38.1778 32.0433 38.1648 32.0248 38.1573 32.0068C38.1483 31.9868 38.1423 31.9658 38.1323 31.9458C38.1128 31.9063 38.0818 31.8588 38.0363 31.8483C37.9693 31.8333 37.9043 31.8533 37.8398 31.8338C37.7938 31.8198 37.7498 31.7933 37.7063 31.7728C37.6878 31.7643 37.6047 31.7428 37.6147 31.7203C37.6658 31.6838 37.8198 31.7828 37.8348 31.6933C37.8423 31.6463 37.8488 31.6138 37.8033 31.5878C37.7718 31.5698 37.7368 31.5823 37.7008 31.5783C37.6627 31.5743 37.6252 31.5908 37.5882 31.5963C37.5487 31.6018 37.5037 31.6078 37.4652 31.6208C37.4437 31.6283 37.4317 31.6403 37.4132 31.6528C37.3917 31.6678 37.3652 31.6753 37.3422 31.6878C37.3147 31.7028 37.2982 31.7173 37.2762 31.7388C37.2587 31.7558 37.2242 31.7678 37.2197 31.7933L37.2292 31.8053C37.3147 31.8158 37.4042 31.8193 37.4882 31.8368C37.5397 31.8478 37.5932 31.8843 37.6312 31.9203C37.6703 31.9568 37.7153 31.9828 37.7523 32.0223C37.7838 32.0558 37.8128 32.1223 37.8553 32.1433C37.8883 32.1598 37.9438 32.1558 37.9808 32.1603C38.0208 32.1653 38.0598 32.1658 38.0953 32.1853C38.1123 32.1948 38.1333 32.1978 38.1483 32.2088C38.1678 32.2228 38.1833 32.2443 38.2008 32.2608C38.2098 32.2453 38.2008 32.2338 38.1988 32.2183C38.1963 32.1963 38.2043 32.1763 38.2018 32.1548C38.1988 32.1268 38.1928 32.0883 38.1838 32.0618Z" fill="white"/>
<path d="M37.6017 33.1428C37.6217 33.1218 37.6377 33.0998 37.6432 33.0713C37.6507 33.0323 37.6522 33.0198 37.6117 33.0128C37.5902 33.0093 37.5592 33.0008 37.5387 33.0083C37.5322 33.0108 37.5012 33.0283 37.4937 33.0333C37.4772 33.0448 37.4762 33.0568 37.4647 33.0718C37.4452 33.0978 37.4222 33.1203 37.3957 33.1393C37.3697 33.1578 37.3512 33.1948 37.3187 33.2038C37.2977 33.1883 37.3197 33.1453 37.3182 33.1228C37.3162 33.0933 37.2957 33.0713 37.2692 33.0603C37.2477 33.0508 37.2207 33.0418 37.1977 33.0378C37.1837 33.0353 37.1677 33.0323 37.1532 33.0348C37.1417 33.0368 37.1382 33.0448 37.1262 33.0393C37.1147 33.0338 37.1097 33.0138 37.1007 33.0038C37.0892 32.9908 37.0682 32.9738 37.0522 32.9673C37.0162 32.9518 37.0087 32.9683 36.9837 32.9903C36.9597 33.0113 36.9416 33.0178 36.9311 33.0488C36.9216 33.0768 36.9086 33.1038 36.9132 33.1348C36.9207 33.1813 36.9462 33.2483 36.9992 33.2553C37.0242 33.2588 37.0442 33.2498 37.0692 33.2523C37.0912 33.2543 37.1072 33.2578 37.1267 33.2678C37.1517 33.2803 37.1667 33.2858 37.1937 33.2893C37.2337 33.2948 37.2372 33.3318 37.2667 33.3548C37.3132 33.3908 37.3997 33.3753 37.4247 33.3183L37.4487 33.2993C37.4792 33.2798 37.5007 33.2448 37.5242 33.2178C37.5497 33.1913 37.5777 33.1683 37.6017 33.1428Z" fill="white"/>
<path d="M37.3397 33.8888C37.3757 33.8893 37.4167 33.8468 37.4362 33.8183C37.4592 33.7838 37.4692 33.7453 37.4877 33.7093C37.5047 33.6763 37.5117 33.6378 37.5097 33.6003C37.5077 33.5658 37.5052 33.5053 37.4817 33.4783C37.4702 33.4653 37.4432 33.4583 37.4252 33.4613C37.4017 33.4658 37.3927 33.4918 37.3807 33.5108C37.3587 33.5453 37.3367 33.5933 37.3327 33.6358L37.3177 33.6668C37.2467 33.6983 37.2522 33.8878 37.3397 33.8888Z" fill="white"/>
<path d="M36.4752 35.0414C36.4572 35.0414 36.4427 35.0494 36.4252 35.0524C36.4022 35.0564 36.3817 35.0504 36.3592 35.0489C36.3427 35.0479 36.3312 35.0544 36.3152 35.0554C36.2982 35.0564 36.2777 35.0504 36.2612 35.0484L36.2502 35.0469C36.2092 35.0694 36.2132 35.1234 36.2427 35.1519C36.2682 35.177 36.3177 35.18 36.3542 35.181C36.3767 35.1815 36.3987 35.1774 36.4212 35.1774C36.4422 35.1779 36.4542 35.1674 36.4747 35.1639C36.5092 35.1584 36.5457 35.1604 36.5787 35.1429C36.6267 35.1179 36.6302 35.0604 36.5732 35.0534C36.5407 35.0494 36.5067 35.0414 36.4752 35.0414Z" fill="white"/>
<path d="M38.6357 31.3852C38.6047 31.3822 38.6092 31.4097 38.5987 31.4287C38.5907 31.4432 38.5747 31.4497 38.5642 31.4617C38.5567 31.4702 38.5512 31.4807 38.5447 31.4897C38.5337 31.5052 38.5207 31.5217 38.5082 31.5352C38.4762 31.5692 38.4367 31.6018 38.4002 31.6313C38.3807 31.6473 38.3662 31.6608 38.3432 31.6718C38.3212 31.6823 38.2982 31.6888 38.2757 31.6973C38.2497 31.7068 38.2312 31.7228 38.2082 31.7398C38.1787 31.7618 38.1822 31.7783 38.2032 31.8048C38.2182 31.8238 38.2362 31.8318 38.2537 31.8463C38.2737 31.8628 38.2927 31.8898 38.3062 31.9118C38.3367 31.9618 38.3497 32.0308 38.3612 32.0878C38.3722 32.1418 38.3747 32.1933 38.3787 32.2473C38.3807 32.2723 38.3702 32.2978 38.3697 32.3233C38.3692 32.3468 38.3752 32.3663 38.3727 32.3908C38.3682 32.4328 38.3542 32.4788 38.3617 32.5198C38.3672 32.5503 38.3892 32.6393 38.4292 32.6433L38.4722 32.6488C38.4787 32.5958 38.4832 32.5508 38.5042 32.5023C38.5217 32.4623 38.5417 32.4238 38.5572 32.3828C38.5892 32.2973 38.6107 32.2068 38.6472 32.1223C38.6657 32.0788 38.6692 32.0318 38.6747 31.9838C38.6822 31.9228 38.6897 31.8618 38.6972 31.8008C38.7017 31.7658 38.7057 31.7308 38.7102 31.6958C38.7162 31.6488 38.7307 31.5943 38.7277 31.5472C38.7247 31.5012 38.7052 31.4612 38.6777 31.4257C38.6667 31.4107 38.6557 31.3867 38.6357 31.3852Z" fill="white"/>
<path d="M39.1282 29.8542C39.0917 29.8342 39.0712 29.8002 39.0427 29.7722C39.0172 29.7467 38.9967 29.7182 38.9717 29.6922C38.9462 29.6657 38.9102 29.6422 38.8802 29.6207C38.8507 29.5997 38.8242 29.5922 38.7892 29.5877C38.7757 29.5862 38.7617 29.5837 38.7482 29.5822C38.7267 29.5802 38.7087 29.5857 38.6877 29.5862C38.6117 29.5872 38.5432 29.6007 38.4717 29.6277C38.4557 29.6337 38.4287 29.6417 38.4247 29.6587C38.4207 29.6737 38.4362 29.6952 38.4467 29.7037C38.4772 29.7282 38.5122 29.7347 38.5477 29.7462C38.5752 29.7552 38.6102 29.7677 38.6347 29.7822C38.6792 29.8087 38.6852 29.8557 38.6787 29.9022C38.6742 29.9342 38.6677 29.9582 38.6582 29.9882C38.6457 30.0282 38.6417 30.0747 38.6232 30.1122C38.6097 30.1397 38.5932 30.1662 38.5597 30.1622C38.5192 30.1572 38.4877 30.1067 38.4722 30.0722C38.4547 30.0322 38.4427 29.9832 38.3972 29.9667C38.3672 29.9557 38.3122 29.9512 38.2807 29.9542C38.2512 29.9572 38.2202 29.9552 38.1907 29.9622C38.1367 29.9747 38.1282 30.0147 38.1227 30.0637C38.1177 30.1042 38.1142 30.1397 38.1182 30.1797C38.1217 30.2167 38.1317 30.2492 38.1422 30.2847C38.1522 30.3172 38.1577 30.3557 38.1787 30.3837C38.2162 30.4342 38.2262 30.3582 38.2347 30.3327C38.2497 30.2867 38.2547 30.2407 38.2607 30.1917C38.2637 30.1667 38.2622 30.1332 38.2702 30.1092C38.2797 30.0812 38.2927 30.0852 38.3137 30.1077C38.3347 30.1297 38.3452 30.1582 38.3542 30.1867C38.3637 30.2152 38.3797 30.2422 38.3867 30.2712C38.3992 30.3217 38.4012 30.3767 38.4097 30.4282C38.4162 30.4697 38.4182 30.5182 38.4122 30.5597C38.4052 30.6127 38.4077 30.6512 38.4187 30.7037C38.4242 30.7292 38.4377 30.7432 38.4552 30.7617C38.4712 30.7782 38.4797 30.8002 38.4952 30.8162C38.5077 30.8287 38.5317 30.8447 38.5467 30.8552C38.5752 30.8752 38.5907 30.8617 38.6082 30.8357L38.6242 30.7937C38.6332 30.7522 38.6657 30.7117 38.6922 30.6802C38.7447 30.6192 38.7877 30.5502 38.8392 30.4882C38.8742 30.4462 38.9117 30.4047 38.9497 30.3657C38.9777 30.3367 39.0122 30.3162 39.0392 30.2862C39.0907 30.2282 39.1327 30.1632 39.1677 30.0932C39.1858 30.0567 39.2078 30.0257 39.2298 29.9927C39.2533 29.9572 39.2313 29.9242 39.2058 29.8952C39.1853 29.8722 39.1538 29.8682 39.1282 29.8542Z" fill="white"/>
<path d="M40.0179 28.8106C39.9779 28.7926 39.9419 28.7761 39.8979 28.7711C39.8624 28.7671 39.8294 28.7566 39.7959 28.7451C39.7749 28.7376 39.7529 28.7276 39.7314 28.7201C39.7074 28.7116 39.6814 28.7156 39.6579 28.7091C39.6339 28.7026 39.6164 28.6921 39.5909 28.6891C39.5669 28.6866 39.5394 28.6866 39.5164 28.6806C39.5014 28.6766 39.4684 28.6646 39.4644 28.6466C39.4589 28.6211 39.4889 28.6246 39.5054 28.6216C39.5284 28.6166 39.5279 28.6071 39.5314 28.5861C39.5359 28.5601 39.5364 28.5521 39.5164 28.5321C39.4969 28.5126 39.4764 28.5006 39.4559 28.4841C39.4394 28.4711 39.4149 28.4541 39.4009 28.4396C39.3794 28.4176 39.3714 28.3631 39.3674 28.3331C39.3619 28.2901 39.3804 28.245 39.3789 28.201C39.3779 28.176 39.3769 28.15 39.3744 28.125C39.3724 28.106 39.3879 28.0525 39.3694 28.04C39.3449 28.048 39.3154 28.0765 39.2959 28.0935C39.2734 28.1135 39.2604 28.144 39.2484 28.171C39.2279 28.2175 39.2079 28.2606 39.1729 28.3011C39.1359 28.3436 39.0939 28.3671 39.0674 28.4186C39.0458 28.4601 39.0428 28.5096 39.0323 28.5541C39.0223 28.5956 38.9933 28.6456 38.9673 28.6781C38.9518 28.6976 38.9438 28.7181 38.9303 28.7391C38.9158 28.7616 38.8938 28.7791 38.8763 28.7991C38.8558 28.8226 38.8383 28.8486 38.8183 28.8716C38.7978 28.8946 38.7788 28.8851 38.7508 28.8816C38.7063 28.8761 38.6648 28.8661 38.6283 28.8996L38.6268 28.9106C38.6028 28.9101 38.5573 28.9286 38.5353 28.9366C38.4813 28.9571 38.4908 28.9996 38.5288 29.0351C38.5583 29.0626 38.6078 29.0666 38.6468 29.0616C38.6728 29.0581 38.7128 29.0326 38.7373 29.0356C38.7643 29.0386 38.7893 29.0766 38.8123 29.0901C38.8408 29.1071 38.8808 29.1016 38.9128 29.0971C38.9313 29.0946 38.9518 29.0871 38.9678 29.0786C38.9813 29.0716 38.9833 29.0591 39.0013 29.0671C39.0228 29.0766 39.0363 29.1471 39.0454 29.1701C39.0724 29.1771 39.1004 29.1446 39.1204 29.1311C39.1559 29.1076 39.1864 29.0801 39.2164 29.0496C39.2559 29.0101 39.3144 28.9421 39.3709 28.9276C39.3954 28.9211 39.4379 28.9331 39.4634 28.9371C39.4924 28.9416 39.5159 28.9486 39.5399 28.9656C39.5864 28.9986 39.6259 29.0636 39.6539 29.1121C39.6714 29.1426 39.6694 29.1601 39.6649 29.1956C39.6619 29.2176 39.6624 29.2371 39.6509 29.2561C39.6364 29.2796 39.6014 29.3511 39.6599 29.3436C39.7069 29.3371 39.7434 29.2696 39.7714 29.2381C39.7919 29.2151 39.8034 29.1911 39.8224 29.1686C39.8469 29.1401 39.8784 29.1201 39.9014 29.0896C39.9339 29.0461 39.9749 29.0131 40.0104 28.9726C40.0329 28.9471 40.0589 28.9306 40.0819 28.9076C40.1264 28.8606 40.0539 28.8266 40.0179 28.8106Z" fill="white"/>
<path d="M39.4663 29.1106C39.4378 29.1066 39.3928 29.1621 39.3703 29.1776C39.3383 29.1996 39.2688 29.2176 39.2538 29.2576C39.2628 29.2706 39.2903 29.2646 39.3048 29.2676C39.3248 29.2716 39.3338 29.2816 39.3518 29.2901C39.3878 29.3081 39.4228 29.3146 39.4623 29.3196L39.4733 29.3211C39.4943 29.3081 39.4853 29.2806 39.4938 29.2601C39.5033 29.2361 39.5243 29.2181 39.5323 29.1926C39.5393 29.1691 39.5388 29.1576 39.5173 29.1456C39.5043 29.1381 39.4798 29.1121 39.4663 29.1106Z" fill="white"/>
<path d="M38.3418 29.1706C38.3073 29.1671 38.2998 29.1766 38.2818 29.2076C38.2568 29.2516 38.2563 29.2851 38.2978 29.3146C38.3283 29.3366 38.3608 29.3581 38.3933 29.3771C38.4238 29.3956 38.4648 29.3941 38.5003 29.3981L38.5233 29.3901C38.5613 29.3991 38.6083 29.3756 38.6418 29.3611C38.6618 29.3521 38.6773 29.3491 38.6853 29.3281C38.6953 29.3026 38.6838 29.2861 38.6608 29.2776C38.6168 29.2606 38.5638 29.2726 38.5193 29.2576C38.4958 29.2496 38.4758 29.2316 38.4523 29.2221C38.4258 29.2116 38.4158 29.2066 38.3948 29.1876C38.3783 29.1731 38.3638 29.1726 38.3418 29.1706Z" fill="white"/>
<path d="M39.0643 27.6575C39.0738 27.7125 39.1043 27.71 39.1538 27.7155C39.1973 27.7205 39.2403 27.726 39.2838 27.7315C39.3498 27.7395 39.4113 27.755 39.4768 27.766C39.5463 27.7775 39.5083 27.882 39.5023 27.931C39.4948 27.99 39.4798 28.055 39.4823 28.1145C39.4858 28.187 39.5053 28.2555 39.5418 28.3185C39.5783 28.3816 39.6343 28.4611 39.7113 28.4741C39.7473 28.4801 39.8633 28.5116 39.8758 28.4641C39.8919 28.4061 39.8288 28.3566 39.7958 28.3201C39.7523 28.271 39.8248 28.283 39.8453 28.25C39.8599 28.227 39.8399 28.1955 39.8223 28.1805C39.8003 28.1615 39.7688 28.1415 39.7403 28.1375C39.7053 28.133 39.6908 28.131 39.7088 28.093C39.7223 28.064 39.7343 28.0355 39.7448 28.0045C39.7553 27.973 39.7733 27.943 39.7788 27.91C39.7893 27.843 39.7948 27.7745 39.8033 27.707C39.8103 27.654 39.7918 27.593 39.8203 27.545C39.8353 27.5195 39.8493 27.5055 39.8538 27.475C39.8563 27.459 39.8618 27.435 39.8613 27.4185C39.8603 27.4 39.8564 27.385 39.8564 27.3655C39.8564 27.343 39.8608 27.3465 39.8418 27.3305C39.8228 27.3145 39.8013 27.3125 39.7778 27.3095C39.7278 27.303 39.6768 27.3175 39.6318 27.3375C39.6128 27.346 39.5998 27.358 39.5798 27.3645C39.5698 27.3675 39.5583 27.3685 39.5483 27.3715C39.5168 27.3805 39.4923 27.384 39.4598 27.38C39.4133 27.3735 39.3663 27.3685 39.3198 27.363L39.3033 27.317C39.2718 27.342 39.2483 27.3645 39.2253 27.3975C39.2033 27.4285 39.1878 27.463 39.1598 27.4875C39.1373 27.5075 39.1203 27.5315 39.0993 27.5525C39.0903 27.5615 39.0768 27.5685 39.0693 27.5785C39.0523 27.6005 39.0598 27.633 39.0643 27.6575Z" fill="white"/>
<path d="M40.7319 27.46C40.6449 27.466 40.6179 27.5545 40.5759 27.615C40.5504 27.6525 40.5374 27.697 40.4859 27.7015C40.4634 27.7035 40.4404 27.698 40.4184 27.6955C40.4029 27.6935 40.3694 27.6965 40.3599 27.6825C40.3449 27.661 40.3659 27.6095 40.3789 27.5915C40.3984 27.5655 40.4264 27.5475 40.4179 27.509C40.4089 27.4695 40.3534 27.442 40.3213 27.4235C40.2868 27.4035 40.2553 27.3855 40.2178 27.373C40.2168 27.3495 40.2598 27.338 40.2588 27.307C40.2573 27.279 40.2258 27.2685 40.2038 27.258C40.1723 27.243 40.1103 27.212 40.0763 27.232C40.0553 27.2445 40.0548 27.28 40.0483 27.3C40.0408 27.3225 40.0348 27.3395 40.0323 27.363C40.0293 27.39 40.0208 27.41 40.0098 27.4345C39.9983 27.4595 39.9933 27.486 39.9838 27.511C39.9763 27.5315 39.9738 27.5545 39.9628 27.574C39.9568 27.5845 39.9508 27.5895 39.9438 27.5995C39.9348 27.612 39.9363 27.6225 39.9328 27.636C39.9223 27.6755 39.9008 27.709 39.8968 27.7515C39.8928 27.789 39.8723 27.8215 39.8613 27.8565C39.8493 27.8955 39.8508 27.9455 39.8458 27.986L39.8553 27.998C39.8523 28.025 39.8448 28.0545 39.8668 28.0775C39.8828 28.094 39.9208 28.098 39.9428 28.094C40.0038 28.083 40.0213 28.006 40.0758 27.9885C40.1678 27.959 40.1688 28.1285 40.1623 28.1785C40.1573 28.214 40.1533 28.25 40.1488 28.286C40.1458 28.309 40.1368 28.338 40.1408 28.3605C40.1913 28.3845 40.2368 28.3145 40.2713 28.2905C40.3204 28.256 40.3639 28.215 40.4119 28.178C40.4354 28.16 40.4554 28.1415 40.4764 28.1205C40.4959 28.1005 40.5269 28.087 40.5434 28.065C40.5709 28.0275 40.5064 27.9945 40.4959 27.957C40.4849 27.9175 40.4834 27.8475 40.5364 27.841C40.5659 27.8375 40.6124 27.847 40.6394 27.8585C40.6619 27.8685 40.6869 27.8765 40.7074 27.89C40.7239 27.901 40.7384 27.9255 40.7614 27.9225C40.7949 27.918 40.8094 27.8565 40.8184 27.832C40.8444 27.762 40.8569 27.671 40.8589 27.5955C40.8594 27.529 40.8054 27.455 40.7319 27.46Z" fill="white"/>
<path d="M37.1208 33.9839C37.1078 33.9874 37.0938 34.0024 37.0833 34.0109C37.0693 34.0224 37.0603 34.0329 37.0528 34.0479C37.0423 34.0689 37.0203 34.0969 37.0248 34.1229C37.0273 34.1374 37.0398 34.1489 37.0488 34.1604C37.0603 34.1754 37.0638 34.1784 37.0823 34.1809L37.0978 34.2154C37.1298 34.2194 37.1623 34.2274 37.1943 34.2189C37.2293 34.2099 37.2553 34.1939 37.2703 34.1594C37.2813 34.1339 37.2903 34.0904 37.2768 34.0639C37.2593 34.0294 37.2193 34.0134 37.1868 33.9979C37.1688 33.9899 37.1408 33.9784 37.1208 33.9839Z" fill="white"/>
<path d="M37.3723 34.4259C37.3948 34.4289 37.4093 34.4324 37.4288 34.4459C37.4433 34.4559 37.4658 34.4714 37.4853 34.4654C37.5063 34.4594 37.5108 34.4224 37.5123 34.4054C37.5138 34.3829 37.5003 34.3729 37.4813 34.3609C37.4668 34.3514 37.4483 34.3484 37.4318 34.3429C37.4173 34.3379 37.4018 34.3329 37.3868 34.3304C37.3688 34.3269 37.3573 34.3289 37.3488 34.3489C37.3438 34.3614 37.3418 34.3954 37.3628 34.3929L37.3723 34.4259Z" fill="white"/>
<path d="M38.2683 31.5547C38.2803 31.5462 38.2933 31.5422 38.3038 31.5317C38.3188 31.5172 38.3318 31.5007 38.3458 31.4852C38.3608 31.4682 38.3828 31.4587 38.3883 31.4352C38.3943 31.4087 38.3958 31.3827 38.3793 31.3597C38.3588 31.3322 38.3428 31.3297 38.3138 31.3472C38.3008 31.3552 38.2928 31.3677 38.2803 31.3762C38.2688 31.3837 38.2563 31.3897 38.2448 31.3977C38.2188 31.4152 38.1873 31.4387 38.1698 31.4652C38.1638 31.4742 38.1558 31.4907 38.1568 31.5017C38.1578 31.5147 38.1693 31.5167 38.1793 31.5237C38.2013 31.5387 38.2228 31.5487 38.2493 31.5517L38.2683 31.5547Z" fill="white"/>
<path d="M39.4044 27.186C39.4269 27.1985 39.4509 27.209 39.4744 27.219C39.4969 27.2285 39.5244 27.2325 39.5489 27.23C39.5614 27.2285 39.5709 27.225 39.5814 27.2175C39.6019 27.2035 39.5944 27.192 39.5799 27.1725C39.5709 27.1605 39.5614 27.1455 39.5504 27.1355C39.5399 27.126 39.5264 27.1215 39.5134 27.116C39.5004 27.11 39.4894 27.1005 39.4769 27.095C39.4659 27.09 39.4529 27.0905 39.4414 27.0895C39.4199 27.087 39.4009 27.0835 39.3804 27.087C39.3724 27.0885 39.3649 27.0875 39.3574 27.0895C39.3509 27.0915 39.3464 27.096 39.3399 27.0985C39.3219 27.1045 39.3079 27.1005 39.3099 27.1255L39.3259 27.1535C39.3569 27.157 39.3774 27.1715 39.4044 27.186Z" fill="white"/>
<path d="M37.3858 31.5557C37.3888 31.5392 37.3758 31.5197 37.3733 31.5032C37.3708 31.4872 37.3708 31.4697 37.3638 31.4542C37.3443 31.4127 37.2778 31.4762 37.2673 31.5012C37.2603 31.5177 37.2518 31.5337 37.2447 31.5502C37.2362 31.5687 37.2513 31.5842 37.2698 31.5887L37.3013 31.5992C37.3358 31.6042 37.3793 31.5957 37.3858 31.5557Z" fill="white"/>
<path d="M37.4992 35.3469C37.4352 35.3114 37.3737 35.2684 37.3077 35.2379C37.2312 35.2024 37.1532 35.1789 37.0742 35.1544C37.0087 35.1344 36.9307 35.1354 36.8627 35.1269C36.7882 35.1174 36.7382 35.1199 36.7107 35.2014C36.6897 35.2649 36.6777 35.3609 36.7102 35.4209C36.7512 35.496 36.8247 35.5525 36.8457 35.639C36.8642 35.716 36.8862 35.7955 36.8637 35.874C36.7977 35.888 36.7632 35.8095 36.7467 35.762C36.7267 35.7035 36.7122 35.644 36.6897 35.5855C36.6637 35.517 36.6237 35.4495 36.5787 35.3919C36.5332 35.3334 36.4856 35.3099 36.4161 35.2859C36.3486 35.2629 36.2756 35.2589 36.2116 35.2309C36.1651 35.2104 36.1301 35.1879 36.0941 35.1524C36.0696 35.1284 36.0411 35.1069 36.0201 35.0799C36.0011 35.0559 35.9901 35.0279 35.9696 35.0044C35.9276 34.9564 35.8761 34.9299 35.9216 34.8644C35.9616 34.8064 35.9971 34.8249 36.0591 34.8324C36.0896 34.8359 36.1201 34.8379 36.1491 34.8469C36.2471 34.8764 36.3531 34.8839 36.4566 34.8964C36.5067 34.9024 36.5607 34.9159 36.6112 34.9159C36.6562 34.9164 36.7022 34.9024 36.7447 34.8904C36.7897 34.8779 36.8392 34.8794 36.8852 34.8774C36.9387 34.8749 36.9982 34.8744 37.0517 34.8794C37.0847 34.8824 37.1547 34.9079 37.1802 34.8829C37.2127 34.8509 37.1827 34.7809 37.1567 34.7569C37.1107 34.7139 37.0227 34.6959 36.9627 34.7144C36.8747 34.7419 36.8067 34.8054 36.7097 34.7924C36.6367 34.7824 36.5637 34.7744 36.4907 34.7654C36.4626 34.7619 36.3766 34.7654 36.3561 34.7464C36.3206 34.7139 36.3711 34.6809 36.3976 34.6669C36.4396 34.6449 36.4717 34.6464 36.5167 34.6449C36.5572 34.6434 36.5982 34.6324 36.6387 34.6324C36.6837 34.6324 36.7307 34.6459 36.7752 34.6504C36.8267 34.6554 36.8567 34.6314 36.9007 34.6059C36.9442 34.5804 36.9782 34.5524 36.9897 34.5004C36.9952 34.4749 36.9867 34.4594 36.9852 34.4354C36.9837 34.4154 36.9927 34.3939 36.9902 34.3749C36.9847 34.3309 36.9432 34.2864 36.9262 34.2444C36.9112 34.2064 36.8917 34.1639 36.8877 34.1229C36.8802 34.0424 36.9167 33.9729 36.9452 33.9009C36.9637 33.8549 36.9962 33.8174 37.0312 33.7834C37.0467 33.7684 37.0627 33.7534 37.0807 33.7414C37.1002 33.7284 37.1302 33.7224 37.1472 33.7084C37.1792 33.6819 37.1837 33.6434 37.1882 33.6044C37.1932 33.5643 37.1767 33.5213 37.1882 33.4843L37.1772 33.4528C37.1537 33.4543 37.1267 33.4343 37.1042 33.4268C37.0722 33.4163 37.0427 33.4083 37.0102 33.4008C36.9707 33.3913 36.9352 33.3808 36.8952 33.3738C36.8642 33.3683 36.8172 33.3558 36.7887 33.3423C36.7172 33.3083 36.7352 33.2108 36.7047 33.1498C36.6767 33.0943 36.5662 33.0348 36.6097 32.9623C36.6497 32.8953 36.7382 32.9018 36.8017 32.9113C36.8392 32.9168 36.8672 32.9203 36.8982 32.8943C36.9262 32.8713 36.9427 32.8358 36.9702 32.8103C37.0257 32.7593 37.1007 32.7373 37.1522 32.6823C37.2072 32.6233 37.1832 32.5538 37.2077 32.4853C37.2652 32.4658 37.2962 32.5788 37.3002 32.6128C37.3047 32.6523 37.2897 32.7148 37.3232 32.7443C37.3597 32.7763 37.4382 32.7798 37.4842 32.7853C37.5077 32.7878 37.5372 32.7858 37.5587 32.7968C37.5777 32.8068 37.6007 32.8328 37.6162 32.8468C37.6322 32.8613 37.6452 32.8803 37.6677 32.8818C37.6977 32.8833 37.7177 32.8518 37.7197 32.8278C37.7217 32.8018 37.7122 32.7763 37.7142 32.7498C37.7157 32.7313 37.7192 32.7128 37.7212 32.6948C37.7322 32.6043 37.7467 32.5173 37.7862 32.4358C37.8262 32.4323 37.8292 32.5323 37.8322 32.5573C37.8357 32.5873 37.8387 32.6013 37.8342 32.6333C37.8307 32.6598 37.8252 32.6803 37.8382 32.7058C37.8632 32.7538 38.0732 32.8498 38.0597 32.7388C38.0572 32.7183 38.0307 32.6968 38.0192 32.6823C38.0007 32.6598 37.9947 32.6448 37.9817 32.6208C37.9562 32.5738 37.9402 32.5388 37.9272 32.4868C37.9202 32.4593 37.9132 32.4318 37.9067 32.4048C37.9017 32.3833 37.9042 32.3738 37.8842 32.3568C37.8462 32.3253 37.8022 32.3368 37.7702 32.2953C37.7072 32.2128 37.6712 32.0998 37.5892 32.0313C37.5517 31.9998 37.5162 31.9778 37.4677 31.9718C37.4167 31.9653 37.3657 31.9598 37.3152 31.9533C37.2342 31.9433 37.1607 31.9493 37.0792 31.9393C37.0447 31.9353 37.0102 31.9308 36.9762 31.9268C36.9262 31.9208 36.8922 31.9063 36.8452 31.8928C36.8457 31.8693 36.9072 31.8338 36.9287 31.8188C36.9587 31.7978 36.9902 31.7757 37.0247 31.7592C37.0852 31.7307 37.1247 31.6662 37.1137 31.5982C37.1007 31.5167 37.0647 31.4522 37.0272 31.3797C37.0122 31.3502 36.9877 31.3232 36.9617 31.3037C36.9447 31.2907 36.8907 31.2552 36.9227 31.2302C36.9507 31.2297 36.9757 31.2577 36.9997 31.2692C37.0222 31.2802 37.0462 31.2947 37.0692 31.3047C37.0907 31.3142 37.1217 31.3172 37.1432 31.3067C37.1747 31.2912 37.1642 31.2652 37.1852 31.2452C37.2097 31.2222 37.3052 31.2407 37.3297 31.2487C37.3707 31.2617 37.4182 31.2852 37.4562 31.3057C37.5187 31.3392 37.5272 31.3827 37.5607 31.4402C37.5922 31.4937 37.6207 31.5047 37.6787 31.4847C37.7377 31.4642 37.8007 31.4492 37.8432 31.4027C37.8767 31.3667 37.9487 31.3342 37.9557 31.2812L37.9407 31.2792C37.8932 31.2202 37.7957 31.2187 37.7362 31.1722C37.6657 31.1172 37.6482 31.0297 37.6272 30.9477C37.6037 30.8552 37.5542 30.7807 37.4672 30.7402C37.3867 30.7027 37.2942 30.6882 37.2257 30.6287C37.1887 30.5962 37.2062 30.5682 37.2042 30.5252C37.2027 30.4837 37.2002 30.4507 37.1772 30.4162C37.1457 30.3682 37.1042 30.3452 37.0507 30.3247C37.0222 30.3137 36.9747 30.3107 36.9532 30.2882C36.9292 30.2627 36.9432 30.2287 36.9472 30.1972C36.9547 30.1452 36.9392 30.1227 36.9202 30.0762C36.9067 30.0442 36.8822 30.0172 36.8822 29.9812C36.8822 29.9541 36.8862 29.8946 36.9097 29.8791C36.9412 29.8971 36.9577 29.9321 36.9927 29.9507C37.0237 29.9672 37.0507 29.9687 37.0862 29.9727C37.1562 29.9807 37.2127 29.9902 37.2602 30.0462C37.3112 30.1057 37.3177 30.1877 37.3447 30.2597C37.3707 30.3302 37.3777 30.4072 37.3962 30.4802C37.4122 30.5427 37.4362 30.6007 37.5052 30.6107C37.5607 30.6187 37.6092 30.6222 37.6602 30.6412C37.6987 30.6557 37.7367 30.6542 37.7747 30.6732C37.8017 30.6867 37.8252 30.7027 37.8512 30.7182C37.9072 30.7522 37.9652 30.7837 38.0237 30.8132C38.0572 30.8302 38.0902 30.8547 38.1252 30.8662C38.1627 30.8782 38.1677 30.8727 38.1757 30.8372C38.1857 30.7927 38.1852 30.7487 38.1802 30.7047C38.1752 30.6637 38.1737 30.6512 38.1502 30.6137C38.1357 30.5907 38.1192 30.5722 38.0957 30.5567C38.0747 30.5427 38.0472 30.5367 38.0372 30.5107C38.0302 30.4922 38.0282 30.4532 38.0287 30.4337C38.0292 30.3847 38.0542 30.3372 38.0317 30.2902C38.0192 30.2647 37.9892 30.2497 37.9827 30.2222C37.9772 30.1997 37.9877 30.1702 37.9902 30.1482C38.0017 30.0477 38.0602 29.9627 38.1022 29.8736C38.1242 29.8266 38.1562 29.7811 38.1732 29.7326C38.1937 29.6741 38.1927 29.6006 38.2002 29.5386C38.2127 29.4366 38.2287 29.3281 38.1107 29.2881C38.0607 29.2131 37.9292 29.2246 37.8522 29.2116C37.8242 29.2071 37.8192 29.2041 37.8007 29.1826C37.7907 29.1711 37.7842 29.1566 37.7672 29.1536C37.7467 29.1501 37.7272 29.1731 37.7077 29.1761C37.6922 29.1786 37.6847 29.1756 37.6707 29.1746C37.6027 29.1691 37.5302 29.1616 37.4692 29.1351C37.4312 29.1186 37.3877 29.1166 37.3522 29.0976C37.3007 29.0701 37.3062 29.0276 37.3627 29.0191C37.3937 29.0146 37.4242 29.0251 37.4552 29.0241C37.4972 29.0226 37.5297 29.0211 37.5717 29.0266C37.6137 29.0326 37.6532 29.0406 37.6927 29.0186C37.7242 29.0011 37.7472 28.9386 37.7822 28.9331C37.8102 28.9291 37.8717 28.9701 37.8967 28.9806C37.9277 28.9936 37.9607 29.0051 37.9927 29.0151C38.0327 29.0276 38.1717 29.0656 38.1907 29.0076C38.2212 28.9141 38.0697 28.8656 38.0207 28.8266C37.9972 28.8081 37.9742 28.7856 37.9452 28.7751C37.9252 28.7681 37.8652 28.7711 37.8687 28.7331C37.8697 28.7221 37.8962 28.7011 37.9007 28.6886C37.9042 28.6781 37.9032 28.6591 37.9047 28.6466C37.9072 28.6226 37.9117 28.5986 37.9137 28.5746C37.9172 28.5376 37.9097 28.5021 37.9117 28.4656C37.9137 28.4276 37.9122 28.3956 37.9057 28.3581C37.9012 28.3326 37.8887 28.2606 37.9227 28.2461C37.9382 28.2391 37.9657 28.2496 37.9822 28.2521C38.0167 28.2571 38.0537 28.2556 38.0862 28.2681C38.1132 28.2781 38.1757 28.3076 38.1822 28.3371C38.1902 28.3741 38.1402 28.3866 38.1442 28.4231C38.1472 28.4531 38.2017 28.4846 38.2237 28.4961C38.2857 28.5291 38.3488 28.5496 38.3943 28.6056C38.4288 28.6481 38.4363 28.7086 38.4708 28.7476C38.4903 28.7696 38.5268 28.7801 38.5543 28.7586C38.5953 28.7266 38.5963 28.6456 38.6023 28.5986C38.6053 28.5721 38.6073 28.4641 38.6493 28.4576C38.6823 28.4526 38.6908 28.4921 38.6953 28.5191C38.7008 28.5506 38.6648 28.6811 38.6943 28.6951C38.7308 28.6881 38.7323 28.6591 38.7513 28.6351C38.7708 28.6101 38.7993 28.5971 38.8138 28.5676C38.8323 28.5301 38.8543 28.4956 38.8748 28.4581C38.8873 28.4356 38.9003 28.4146 38.9133 28.3931C38.9293 28.3661 38.9333 28.3371 38.9488 28.3101C38.9723 28.2691 39.0033 28.2281 39.0353 28.1941C39.0743 28.1525 39.1018 28.1015 39.1483 28.064C39.1668 28.049 39.2073 28.0405 39.2133 28.0125C39.2178 27.9925 39.1923 27.9505 39.1798 27.936C39.1453 27.8955 39.0903 27.875 39.0378 27.8705C39.0028 27.8675 38.9793 27.8695 38.9478 27.889C38.9308 27.8995 38.8993 27.9445 38.8808 27.938C38.8758 27.8985 38.8898 27.8485 38.8943 27.809C38.8993 27.77 38.9003 27.7285 38.9123 27.691C38.9228 27.6575 38.9283 27.6215 38.9398 27.589C38.9483 27.566 38.9553 27.5615 38.9588 27.534C38.9608 27.5185 38.9583 27.501 38.9668 27.4865C38.9768 27.4695 38.9913 27.46 39.0003 27.442C39.0093 27.424 39.0143 27.406 39.0253 27.3885C39.0448 27.357 39.0678 27.318 39.0783 27.283C39.1058 27.194 38.9603 27.185 38.8973 27.1775L38.8823 27.1755C38.8328 27.123 38.7448 27.122 38.6813 27.1025C38.6178 27.0825 38.5573 27.056 38.5028 27.0155C38.4248 26.958 38.3643 26.8785 38.3093 26.8005C38.2637 26.736 38.2252 26.683 38.1937 26.61C38.1262 26.453 38.0812 26.2854 38.0552 26.1159C38.0342 25.9784 38.0402 25.8459 38.0572 25.7074C38.0652 25.6409 38.0777 25.5804 38.0957 25.5159C38.1037 25.4874 38.1142 25.4714 38.1302 25.4469C38.1457 25.4229 38.1727 25.4009 38.1857 25.3774C38.2002 25.3509 38.2057 25.2889 38.2032 25.2599C38.1992 25.2109 38.1722 25.1644 38.1557 25.1199C38.1182 25.0189 38.1057 24.9094 38.0672 24.8084C38.0477 24.7574 38.0332 24.7029 38.0077 24.6544C37.9892 24.6194 37.9812 24.5954 37.9377 24.5994C37.9147 24.6019 37.8897 24.6129 37.8657 24.6144C37.8122 24.6174 37.7522 24.6094 37.7497 24.5439C37.7492 24.5264 37.7562 24.5048 37.7577 24.4878C37.7607 24.4553 37.7522 24.4508 37.7387 24.4223C37.7132 24.3673 37.7007 24.3178 37.6512 24.2793C37.6167 24.2528 37.5697 24.2293 37.5377 24.2003C37.4712 24.1398 37.4802 24.0038 37.4697 23.9248C37.4662 23.8988 37.4757 23.8758 37.4762 23.8503C37.4772 23.8203 37.4647 23.7958 37.4557 23.7688C37.4372 23.7138 37.4077 23.6673 37.3847 23.6138L37.3697 23.6118C37.3432 23.6093 37.3347 23.5788 37.3167 23.5633C37.2972 23.5468 37.2697 23.5383 37.2487 23.5218C37.2097 23.4908 37.1712 23.4553 37.1457 23.4133C37.1192 23.3703 37.1287 23.3273 37.1107 23.2833C37.0857 23.2218 37.0427 23.1908 36.9917 23.1523C36.9137 23.0933 36.8312 23.0453 36.7482 22.9943C36.6542 22.9363 36.5642 22.8748 36.4656 22.8248C36.4251 22.8043 36.3861 22.7848 36.3476 22.7613C36.3116 22.7393 36.2691 22.7408 36.2271 22.7353C36.1841 22.7298 36.1396 22.7273 36.0971 22.7198C36.0791 22.7168 36.0701 22.7123 36.0546 22.7032C36.0321 22.6902 36.0036 22.6857 35.9826 22.6727C35.9631 22.6607 35.9491 22.6372 35.9296 22.6232C35.9051 22.6057 35.8801 22.5962 35.8551 22.5812C35.8041 22.5502 35.7506 22.5047 35.7131 22.4587C35.6766 22.4142 35.6521 22.3637 35.6181 22.3182C35.5821 22.2697 35.5411 22.2412 35.5181 22.1827C35.4766 22.1572 35.4176 22.1212 35.4436 22.0607C35.4501 22.0457 35.4711 22.0222 35.4821 22.0097C35.5056 21.9822 35.5401 21.9737 35.5636 21.9482C35.6386 21.8677 35.5256 21.7427 35.4921 21.6687C35.4776 21.6367 35.4516 21.6197 35.4326 21.5922C35.4186 21.5717 35.4111 21.5487 35.3956 21.5287C35.3656 21.4897 35.3451 21.4342 35.3446 21.3842C35.3436 21.3037 35.3791 21.2232 35.3681 21.1427C35.3611 21.0912 35.3656 21.0487 35.3331 21.0022C35.3226 20.9872 35.3016 20.9727 35.2961 20.9547C35.2891 20.9307 35.3011 20.8962 35.3041 20.8726C35.3136 20.7891 35.3861 20.7121 35.3466 20.6251C35.3271 20.5821 35.2901 20.5426 35.2671 20.4991C35.2466 20.4616 35.2476 20.4081 35.2606 20.3666C35.2746 20.3206 35.3281 20.3041 35.3366 20.2526C35.3431 20.2121 35.3511 20.1656 35.3126 20.1376C35.2856 20.1176 35.2396 20.1206 35.2066 20.1166C35.1656 20.1116 35.1251 20.1066 35.0841 20.1016C35.0381 20.0961 34.9991 20.0946 34.9696 20.0551C34.9481 20.0266 34.9096 19.9666 34.9101 19.9301L34.8896 19.8526C34.8661 19.8231 34.8831 19.7776 34.8586 19.7426C34.8411 19.7176 34.8176 19.7106 34.7966 19.6916C34.7591 19.6581 34.7676 19.5956 34.7591 19.5486C34.7546 19.5251 34.7441 19.5051 34.7416 19.4816C34.7396 19.4636 34.7421 19.4476 34.7376 19.4296C34.7301 19.4001 34.7241 19.3671 34.7136 19.3391C34.7066 19.3206 34.6945 19.3061 34.689 19.2861C34.684 19.2681 34.6831 19.2506 34.6735 19.2336C34.6555 19.2011 34.623 19.1796 34.5955 19.1556C34.5435 19.1106 34.533 19.0911 34.5405 19.0255C34.5475 18.9675 34.58 18.9295 34.6125 18.881C34.6445 18.834 34.6861 18.811 34.6946 18.751C34.7011 18.7075 34.7126 18.662 34.696 18.62C34.674 18.564 34.6365 18.533 34.59 18.5C34.5475 18.47 34.513 18.44 34.466 18.4145C34.417 18.388 34.3655 18.393 34.319 18.356C34.2755 18.3215 34.2355 18.2505 34.185 18.2325C34.16 18.2235 34.126 18.227 34.0995 18.2235C34.0605 18.218 34.031 18.2045 33.9985 18.181C33.97 18.1605 33.942 18.137 33.918 18.111C33.8985 18.09 33.884 18.0635 33.8575 18.0495C33.807 18.022 33.7545 18.041 33.7015 18.04C33.6365 18.0385 33.619 18.014 33.575 17.971C33.5465 17.943 33.5345 17.929 33.494 17.9235C33.4735 17.9205 33.452 17.916 33.4315 17.9175C33.3835 17.9205 33.3475 17.939 33.298 17.93C33.25 17.921 33.2025 17.889 33.1695 17.854C33.1485 17.832 33.125 17.8035 33.1025 17.7845C33.0785 17.7645 33.0615 17.7655 33.03 17.7615L33.015 17.7595C32.9475 17.671 32.8164 17.642 32.7089 17.6575C32.6579 17.665 32.6119 17.673 32.5619 17.655C32.5214 17.6405 32.4874 17.618 32.4504 17.596C32.3554 17.539 32.2519 17.492 32.2214 17.3765C32.2084 17.327 32.1914 17.274 32.1949 17.2224C32.1979 17.1764 32.2094 17.1319 32.2084 17.0859C32.2079 17.0599 32.2079 17.0214 32.1999 16.9969C32.1884 16.9634 32.1719 16.9649 32.1409 16.9609C32.1044 16.9559 32.0674 16.9529 32.0309 16.9479C31.9599 16.9379 31.9729 16.9044 31.9539 16.8439C31.9384 16.7944 31.8989 16.7559 31.8489 16.7449C31.8109 16.7364 31.7689 16.7349 31.7299 16.7304C31.7184 16.7289 31.6959 16.7299 31.6859 16.7264C31.6569 16.7164 31.6479 16.6854 31.6374 16.6579C31.6059 16.5769 31.5754 16.4479 31.6669 16.3924L31.6834 16.3794C31.6859 16.3549 31.7024 16.3114 31.6804 16.2914C31.6609 16.2744 31.6139 16.2639 31.5899 16.2519C31.5629 16.2379 31.5114 16.2074 31.4994 16.1774C31.4914 16.1569 31.5029 16.0954 31.5159 16.0769C31.5379 16.0459 31.5799 16.0384 31.6014 16.0014C31.6219 15.9664 31.6184 15.9359 31.5819 15.9179C31.5429 15.8984 31.4994 15.9004 31.4759 15.8549C31.4594 15.8234 31.4624 15.7879 31.4569 15.7544C31.4429 15.6734 31.3804 15.6824 31.3154 15.6734C31.2834 15.6689 31.2594 15.6609 31.2374 15.6344C31.2139 15.6069 31.2169 15.5789 31.2004 15.5489C31.1729 15.4994 31.0814 15.5089 31.0283 15.5024C30.9663 15.4949 30.9153 15.5009 30.8918 15.4313C30.8758 15.3848 30.8948 15.2988 30.9123 15.2543C30.9243 15.2238 30.9488 15.1988 30.9603 15.1698C30.9688 15.1483 30.9748 15.0983 30.9733 15.0753C30.9698 15.0053 30.9248 14.9473 30.9213 14.8778C30.9203 14.8553 30.9153 14.8358 30.9138 14.8138C30.9123 14.7893 30.9258 14.7638 30.9243 14.7393C30.9228 14.7018 30.9163 14.6718 30.9218 14.6333C30.9243 14.6153 30.9303 14.5933 30.9298 14.5753C30.9273 14.5293 30.9058 14.4753 30.8838 14.4353C30.8503 14.3753 30.7958 14.3298 30.7398 14.2923C30.6868 14.2573 30.6303 14.2643 30.6078 14.1983C30.5798 14.1153 30.5678 14.0498 30.4933 13.9953C30.4513 13.9643 30.3983 13.9343 30.3493 13.9163C30.2893 13.8943 30.2433 13.8448 30.1983 13.8018C30.1733 13.7778 30.1568 13.7508 30.1333 13.7258C30.1128 13.7038 30.0823 13.6953 30.0638 13.6728L30.0398 13.6248C30.0218 13.6017 30.0048 13.5767 29.9858 13.5542C29.9618 13.5252 29.9318 13.5132 29.9058 13.4887C29.8848 13.4687 29.8753 13.4497 29.8508 13.4327C29.8173 13.4102 29.7828 13.3857 29.7428 13.3767C29.6938 13.3657 29.6418 13.3757 29.5963 13.3492C29.5693 13.3332 29.5523 13.3102 29.5248 13.2937C29.4993 13.2782 29.4698 13.2722 29.4423 13.2617C29.3423 13.2237 29.2213 13.2232 29.1142 13.2102C29.0917 13.2072 29.0617 13.2092 29.0402 13.2022C29.0092 13.1917 28.9882 13.1622 28.9567 13.1492C28.8957 13.1237 28.8402 13.0817 28.7902 13.0387C28.6692 12.9342 28.5202 12.8592 28.4347 12.7212C28.4022 12.6682 28.3702 12.6157 28.3382 12.5627C28.3202 12.5332 28.3082 12.5167 28.2987 12.4827C28.2907 12.4542 28.2782 12.4412 28.2657 12.4162C28.2377 12.3607 28.2227 12.3002 28.1977 12.2417C28.1742 12.1872 28.1567 12.1337 28.1267 12.0837C28.1112 12.0577 28.1047 12.0307 28.0922 12.0042C28.0787 11.9747 28.0582 11.9472 28.0417 11.9187C28.0202 11.8817 27.9712 11.7761 27.9247 11.7726L27.9117 11.7561C27.8832 11.7231 27.8462 11.7031 27.8177 11.6701C27.7797 11.6256 27.7342 11.5956 27.6977 11.5496C27.6357 11.4721 27.5417 11.4221 27.4682 11.3566C27.4326 11.3246 27.4076 11.2841 27.3691 11.2536C27.3291 11.2226 27.2921 11.1921 27.2556 11.1571C27.2231 11.1261 27.1816 11.1116 27.1461 11.0846C27.1096 11.0561 27.0711 11.0336 27.0326 11.0081C26.8876 10.9121 26.7331 10.8406 26.5811 10.7556C26.5221 10.7226 26.4591 10.6911 26.4026 10.6551C26.3336 10.6111 26.2766 10.5801 26.1956 10.5696L26.1826 10.5531C26.1611 10.5491 26.1491 10.5286 26.1301 10.5196C26.1166 10.5131 26.1041 10.5116 26.0916 10.5031C26.0591 10.4811 26.0281 10.4571 25.9961 10.4341C25.9636 10.4106 25.9241 10.3976 25.8906 10.3746C25.8506 10.3476 25.8146 10.3256 25.7786 10.2931C25.7501 10.2671 25.7151 10.2376 25.6831 10.2156C25.6461 10.1896 25.6236 10.1596 25.59 10.1286C25.56 10.1011 25.5235 10.0891 25.5 10.0556C25.4675 10.0091 25.4275 9.98005 25.387 9.93955C25.3325 9.88504 25.33 9.80554 25.295 9.73954C25.256 9.66553 25.2175 9.59453 25.183 9.51802C25.166 9.48002 25.148 9.43502 25.123 9.40202C25.096 9.36602 25.06 9.33451 25.03 9.30101C24.995 9.26251 24.961 9.21301 24.92 9.18051C24.9005 9.16501 24.852 9.1235 24.826 9.1255C24.7855 9.0745 24.7555 9.043 24.701 9.0085C24.6595 8.9825 24.6185 8.95399 24.577 8.92649C24.536 8.89899 24.4915 8.85049 24.49 8.79848C24.4885 8.75648 24.505 8.71098 24.5075 8.66898C24.5105 8.62297 24.5085 8.55147 24.479 8.51447C24.4615 8.49297 24.433 8.47647 24.4125 8.45847C24.3925 8.44147 24.374 8.42296 24.3525 8.40796C24.309 8.37796 24.2665 8.34996 24.2195 8.32596C24.175 8.30346 24.0945 8.29246 24.062 8.25145C24.0275 8.20695 24.049 8.13995 24.0085 8.09245C23.97 8.04794 23.897 8.04394 23.856 8.00044C23.7844 7.92394 23.8295 7.83893 23.821 7.75093C23.8079 7.61792 23.6914 7.54692 23.6244 7.44541C23.5949 7.40041 23.5934 7.37291 23.5924 7.3219C23.5914 7.2814 23.5799 7.2074 23.5489 7.1809L23.4454 7.16839C23.4499 7.13989 23.4179 7.12389 23.4074 7.10089C23.3944 7.07139 23.4024 7.04189 23.3939 7.01139C23.3769 6.95038 23.3739 6.89488 23.3669 6.83188C23.3639 6.80387 23.3599 6.77787 23.3619 6.74937C23.3639 6.72237 23.3764 6.68987 23.3739 6.66337C23.3659 6.58886 23.2799 6.60486 23.2339 6.56936C23.1544 6.50886 23.2254 6.35135 23.2269 6.26685C23.2274 6.23784 23.2179 6.20884 23.2074 6.18184C23.1994 6.16534 23.1914 6.14834 23.1834 6.13184C23.1739 6.11784 23.1604 6.10934 23.1439 6.10584C23.1184 6.08484 23.1024 6.05833 23.0739 6.03983C23.0419 6.01933 23.0269 6.01633 23.0059 5.98433C22.9914 5.96233 22.9739 5.93333 22.9659 5.90783C22.9574 5.88232 22.9619 5.85632 22.9544 5.83032C22.9464 5.80282 22.9309 5.78232 22.9289 5.75232C22.9269 5.72682 22.9284 5.70331 22.9239 5.67681C22.9129 5.61531 22.8889 5.57381 22.8679 5.5158C22.8569 5.4853 22.8609 5.4533 22.8434 5.4258C22.8229 5.3938 22.7999 5.3823 22.7849 5.34429C22.7544 5.26629 22.7039 5.23279 22.6394 5.18329C22.6124 5.16278 22.5934 5.13628 22.5689 5.11428C22.5449 5.09228 22.5174 5.07578 22.4934 5.05228C22.4124 4.97277 22.2989 4.95377 22.1884 4.94027L22.1734 4.93827C22.0814 4.92827 21.9784 4.93527 21.8883 4.95977C21.8493 4.97027 21.8113 4.98377 21.7728 4.99478C21.7268 5.00828 21.6843 4.99828 21.6373 4.99277C21.5673 4.98427 21.5008 4.96877 21.4378 4.94177C21.3978 4.92477 21.3533 4.89977 21.3108 4.89177C21.2708 4.88427 21.2293 4.88227 21.1888 4.87727C21.1213 4.86927 21.0263 4.85127 20.9733 4.80326C20.9548 4.78676 20.9483 4.75926 20.9378 4.73776C20.9203 4.70276 20.8968 4.67226 20.8728 4.64176C20.8368 4.59575 20.7978 4.55375 20.7443 4.52925C20.7003 4.50925 20.6753 4.48975 20.6408 4.45675C20.6033 4.42074 20.5873 4.38224 20.5558 4.34224C20.5258 4.30374 20.4828 4.27474 20.4573 4.23123C20.4423 4.20573 20.4093 4.15023 20.4118 4.12073L20.3968 4.11873C20.4188 4.05322 20.2988 4.00622 20.2643 3.96722C20.2248 3.92272 20.1913 3.87321 20.1337 3.84871C20.0902 3.83021 20.0172 3.82571 19.9722 3.83321C19.9132 3.84321 19.8567 3.84421 19.7982 3.84971C19.7587 3.85321 19.7252 3.87021 19.6847 3.86621C19.6387 3.86171 19.5932 3.85421 19.5472 3.84921C19.5152 3.84571 19.4972 3.84571 19.4722 3.82621C19.4537 3.81171 19.4332 3.79121 19.4172 3.77321C19.3837 3.73571 19.3652 3.6897 19.3357 3.6497C19.2987 3.5997 19.2732 3.5532 19.2282 3.50919C19.2082 3.48969 19.1942 3.46569 19.1742 3.44619C19.1457 3.41919 19.1087 3.39969 19.0762 3.37819C18.9902 3.32168 18.9012 3.28318 18.8302 3.20568C18.7737 3.14417 18.7787 3.02117 18.7692 2.94316C18.7642 2.90266 18.7627 2.85916 18.7582 2.81816C18.7562 2.79815 18.7632 2.78115 18.7627 2.76215C18.7622 2.73865 18.7527 2.71915 18.7547 2.69465C18.7612 2.60864 18.7777 2.52314 18.7867 2.43763C18.7982 2.33613 18.8802 2.26112 18.9102 2.16462L18.9267 2.15162C18.9602 2.00861 19.1437 1.99011 19.1997 1.8666C19.2247 1.8106 19.1947 1.7306 19.2382 1.68159C19.2592 1.65759 19.2927 1.65209 19.3202 1.63759C19.3507 1.62109 19.3797 1.60059 19.4037 1.57559C19.4437 1.53458 19.4487 1.47858 19.4867 1.43608C19.5302 1.38708 19.5837 1.38508 19.6377 1.35257C19.6982 1.31607 19.7082 1.29407 19.7162 1.22607C19.7187 1.20457 19.7172 1.17656 19.7237 1.15656C19.7332 1.12556 19.7567 1.10756 19.7787 1.08456C19.8247 1.03606 19.8642 0.987054 19.9047 0.935051C19.9302 0.90255 19.9632 0.876548 19.9887 0.843046C20.0092 0.816545 20.0312 0.794044 20.0572 0.773043C20.0987 0.739041 20.1403 0.703539 20.1918 0.688038C20.2463 0.671537 20.3073 0.661537 20.3308 0.601033C20.3493 0.553031 20.3473 0.489527 20.3533 0.438024C20.3598 0.384021 20.3648 0.329518 20.3728 0.275515C20.3873 0.17901 20.4413 0.0960053 20.4663 0C10.8647 1.16106 5.71695 1.25007 0.456665 1.34357L4.23937 19.7081C4.22187 19.8431 4.26737 19.9906 4.29088 20.1246C4.30238 20.1896 4.30088 20.2556 4.30838 20.3206C4.31188 20.3506 4.32238 20.3761 4.32388 20.4061C4.32538 20.4421 4.31238 20.4776 4.31488 20.5146C4.31938 20.5876 4.33788 20.6616 4.33138 20.7356C4.32538 20.8016 4.32388 20.8626 4.33138 20.9277C4.33788 20.9832 4.32388 21.0612 4.34588 21.1107C4.38238 21.1917 4.47089 21.2447 4.50139 21.3247C4.51839 21.3697 4.50339 21.4082 4.50789 21.4517C4.51089 21.4817 4.52189 21.5062 4.52389 21.5362C4.52789 21.6052 4.49939 21.6922 4.54839 21.7467C4.57339 21.7527 4.59539 21.7642 4.61439 21.7812C4.6294 21.8047 4.6419 21.8297 4.6524 21.8557C4.6709 21.8867 4.6944 21.9117 4.7149 21.9407C4.7549 21.9967 4.7844 22.0957 4.7844 22.1667C4.7844 22.2477 4.7694 22.3232 4.7944 22.4042C4.82741 22.5112 4.91891 22.5642 4.98591 22.6457C5.01092 22.6762 5.02942 22.7037 5.05742 22.7318C5.11042 22.7853 5.12842 22.8158 5.15342 22.8888C5.17042 22.9378 5.18793 22.9858 5.20243 23.0353C5.21343 23.0723 5.24243 23.1278 5.24043 23.1658L5.23743 23.1898C5.23193 23.2443 5.27693 23.2928 5.29143 23.3438C5.30593 23.3963 5.32393 23.4418 5.34543 23.4918C5.38144 23.5753 5.41544 23.6818 5.43894 23.7703C5.46744 23.8788 5.48044 23.9888 5.51944 24.0943C5.55295 24.1853 5.58445 24.2768 5.61895 24.3673C5.65545 24.4623 5.70195 24.5559 5.77146 24.6309C5.85496 24.7209 5.92697 24.8214 6.00797 24.9149C6.04797 24.9609 6.05747 25.0124 6.09398 25.0589C6.11698 25.0884 6.14898 25.1049 6.16648 25.1399C6.17698 25.1614 6.18098 25.1834 6.18898 25.2059C6.21348 25.2724 6.25898 25.3209 6.29399 25.3799C6.30699 25.4019 6.30749 25.4289 6.31899 25.4494C6.33999 25.4874 6.38549 25.4984 6.37349 25.5519L6.39749 25.5549C6.42149 25.6364 6.4575 25.7029 6.4835 25.7839C6.5055 25.8529 6.527 25.9124 6.538 25.9839C6.5585 26.1174 6.599 26.2634 6.5835 26.3985C6.568 26.537 6.5615 26.679 6.509 26.8085C6.4515 26.949 6.4395 27.1195 6.42649 27.2725C6.41999 27.353 6.454 27.43 6.523 27.4755C6.553 27.4955 6.59 27.503 6.6205 27.521C6.65651 27.5425 6.68451 27.573 6.72001 27.5955C6.79301 27.642 7.04553 27.818 6.95452 27.9195C6.90602 27.9735 6.87402 27.972 6.86352 28.052C6.84602 28.1811 6.83602 28.1661 6.71051 28.1546C6.62 28.1465 6.616 28.1696 6.6 28.2436C6.5825 28.3246 6.4795 28.3801 6.40849 28.4081L6.32849 28.4706C6.32949 28.5336 6.23898 28.5906 6.20248 28.6361C6.15448 28.6956 6.13848 28.7381 6.11298 28.8061C6.06497 28.9326 6.01297 29.0646 5.99697 29.2026C5.98247 29.3246 5.94497 29.4636 5.96197 29.5856C5.98347 29.7381 5.96097 29.8891 5.94197 30.0427C5.92447 30.1857 5.91397 30.3282 5.87146 30.4637C5.82496 30.6107 5.76146 30.7497 5.68745 30.8862C5.62195 31.0067 5.53244 31.1192 5.48144 31.2417C5.45694 31.3007 5.43444 31.3612 5.41544 31.4217C5.40244 31.4632 5.40594 31.5062 5.39244 31.5472C5.38194 31.5802 5.35944 31.6027 5.35894 31.6387L5.35594 31.6627C5.34143 31.8008 5.35894 31.9098 5.39694 32.0433C5.41294 32.0993 5.44194 32.1443 5.46044 32.1968C5.48344 32.2643 5.48194 32.3388 5.50594 32.4068C5.52644 32.4648 5.55945 32.5183 5.57695 32.5773C5.59245 32.6298 5.59845 32.6818 5.61745 32.7338C5.65295 32.8308 5.66845 32.9293 5.71045 33.0253C5.74196 33.0968 5.75296 33.1648 5.77796 33.2383C5.80146 33.3068 5.82046 33.3518 5.82846 33.4228C5.83346 33.4688 5.82296 33.5123 5.82896 33.5578C5.83646 33.6119 5.84396 33.6674 5.84646 33.7239C5.84846 33.7774 5.85446 33.8239 5.85846 33.8759C5.86246 33.9269 5.84096 33.9674 5.85646 34.0214C5.88746 34.1294 5.99647 34.2524 5.96547 34.3724L5.98647 34.3994C5.96597 34.4599 6.01297 34.5449 6.02747 34.6039C6.04697 34.6809 6.04997 34.7579 6.06647 34.8354C6.08047 34.8999 6.05397 34.9574 6.05397 35.0219C6.05397 35.0869 6.06547 35.1364 6.05647 35.2059C6.03947 35.3389 6.02547 35.4725 6.00747 35.6055C5.99147 35.725 6.04497 35.8345 6.01447 35.955C5.99597 36.028 5.92497 36.078 5.89646 36.147C5.87546 36.198 5.85796 36.261 5.84696 36.315C5.83296 36.3825 5.81846 36.463 5.84396 36.528C5.86146 36.5725 5.87896 36.5835 5.88096 36.6325C5.88296 36.6735 5.89096 36.7155 5.89046 36.7565C5.88996 36.889 5.86346 37.0555 5.81296 37.1775C5.78746 37.2395 5.75346 37.2861 5.74296 37.3541C5.73546 37.4011 5.70645 37.4986 5.74496 37.5356L5.74196 37.5596C5.74196 37.6276 5.78896 37.6831 5.81146 37.7431C5.83046 37.7951 5.86096 37.8826 5.86696 37.9361C5.87396 37.9986 5.84696 38.0856 5.83896 38.1496C5.82896 38.2296 5.81946 38.3096 5.80946 38.3901C5.80246 38.4466 5.78696 38.4991 5.81196 38.5536C5.84546 38.6271 5.90547 38.6401 5.96747 38.6796C6.03547 38.7231 6.06847 38.7791 6.11598 38.8386C6.14148 38.8706 6.17998 38.8881 6.20498 38.9201C6.22898 38.9511 6.24248 38.9926 6.26298 39.0261C6.30049 39.0862 6.36299 39.1572 6.37899 39.2277C6.39399 39.2932 6.39399 39.3277 6.43599 39.3852C6.481 39.4472 6.5445 39.4897 6.5855 39.5532C6.63151 39.6247 6.64001 39.7002 6.65901 39.7802C6.67501 39.8482 6.69951 39.9142 6.71901 39.9812C6.73651 40.0397 6.76201 40.1122 6.79201 40.1642C6.82702 40.2252 6.90402 40.2742 6.96102 40.3107C6.99002 40.3292 7.00803 40.3527 7.04053 40.3667C7.08003 40.3837 7.12103 40.3882 7.15553 40.4162L7.16753 40.5142C7.14203 40.6137 7.22454 40.7302 7.27654 40.8062C7.34504 40.9063 7.47505 40.9573 7.53555 41.0658C7.56056 41.1108 7.56356 41.1688 7.58206 41.2178C7.60306 41.2738 7.59306 41.3073 7.59306 41.3643C7.59256 41.4298 7.60406 41.4858 7.59506 41.5533C7.58656 41.6183 7.57856 41.6733 7.59656 41.7378C7.60806 41.7798 7.62606 41.8338 7.65206 41.8683C7.69056 41.9198 7.72707 41.8978 7.78007 41.9203C7.84457 41.9473 7.82757 42.0023 7.82257 42.0573C7.81807 42.1058 7.82757 42.1608 7.84257 42.2068C7.86507 42.2763 7.91308 42.3163 7.96408 42.3643C8.01858 42.4158 8.04808 42.4593 8.08058 42.5248C8.10059 42.5658 8.11959 42.6173 8.14759 42.6538C8.17109 42.6849 8.25609 42.7764 8.2906 42.7794L30.3808 42.9149C30.3768 42.9394 30.3993 42.9509 30.4078 42.9709C30.4173 42.9944 30.4158 43.0104 30.4193 43.0344C30.4243 43.0684 30.4198 43.0994 30.4233 43.1334C30.4258 43.1574 30.4313 43.1694 30.4288 43.1959C30.4273 43.2124 30.4213 43.2304 30.4213 43.2469C30.4213 43.2909 30.4403 43.3359 30.4508 43.3784C30.4603 43.4169 30.4753 43.4494 30.4908 43.4854C30.5008 43.5084 30.5153 43.5329 30.5238 43.5559C30.5318 43.5764 30.5318 43.6059 30.5418 43.6244C30.5588 43.6559 30.6013 43.6764 30.6278 43.6989C30.6763 43.7399 30.6908 43.7624 30.6953 43.8224C30.6988 43.8684 30.7003 43.9079 30.6958 43.9539C30.6923 43.9889 30.7013 44.0189 30.7008 44.0534C30.7003 44.0949 30.6898 44.1394 30.6843 44.1809C30.6773 44.2359 30.6828 44.2879 30.6808 44.3429C30.6798 44.3744 30.6803 44.4149 30.6843 44.4459C30.6868 44.4649 30.6943 44.4794 30.6958 44.4989C30.6973 44.5245 30.6833 44.547 30.6888 44.5735C30.6918 44.5875 30.7058 44.603 30.7098 44.6155C30.7188 44.6425 30.7138 44.6735 30.7228 44.701C30.7313 44.728 30.7478 44.7445 30.7603 44.7695C30.7743 44.7975 30.7793 44.829 30.7983 44.854C30.8198 44.883 30.8678 44.9285 30.9023 44.944C30.9443 44.963 30.9753 44.934 31.0143 44.9425C31.0418 44.9485 31.0408 44.9685 31.0624 44.9805C31.0774 44.989 31.0944 44.9875 31.1109 44.9895C31.1624 44.995 31.1844 45.004 31.2279 44.9715C31.2959 44.9205 31.3534 44.885 31.4404 44.923C31.5284 44.9615 31.6169 45.001 31.7159 45C31.7894 44.9995 31.7764 44.9295 31.8269 44.8995C31.8574 44.8815 31.9024 44.8785 31.9364 44.878C32.0489 44.8765 32.1629 44.816 32.1809 44.695C32.1869 44.6565 32.1944 44.6155 32.1754 44.579C32.1534 44.5365 32.1249 44.5175 32.1259 44.465C32.1289 44.3444 32.1574 44.2219 32.1874 44.1064C32.2139 44.0044 32.2434 43.9034 32.2579 43.7974C32.2654 43.7414 32.2614 43.6914 32.2459 43.6359C32.2274 43.5704 32.1759 43.5329 32.1534 43.4734C32.1164 43.3769 32.1674 43.2389 32.1754 43.1384C32.1794 43.0874 32.1564 43.0594 32.1409 43.0134C32.1229 42.9599 32.1269 42.8519 32.1669 42.8054L32.1689 42.7894C32.1504 42.7674 32.1439 42.7284 32.1309 42.7029C32.1169 42.6754 32.1009 42.6528 32.0819 42.6303C32.0489 42.5918 31.9999 42.5548 31.9834 42.5038C31.9674 42.4548 31.9994 42.4083 31.9769 42.3588C31.9519 42.3033 31.9064 42.2678 31.8644 42.2268C31.8234 42.1873 31.7599 42.1358 31.7504 42.0768C31.7404 42.0153 31.7889 41.9888 31.7984 41.9358C31.8179 41.8243 31.8189 41.7188 31.8024 41.6073C31.7979 41.5768 31.7864 41.5478 31.7819 41.5168C31.7774 41.4868 31.7779 41.4568 31.7749 41.4268C31.7694 41.3773 31.7629 41.2988 31.7869 41.2513C31.8174 41.1913 31.8489 41.1958 31.9049 41.1978C31.9559 41.1998 32.0124 41.1768 32.0304 41.1273C32.0499 41.0738 32.0109 41.0138 32.0044 40.9603C31.9969 40.8978 31.9844 40.8202 32.0234 40.7672C32.1124 40.6462 32.2294 40.8217 32.3289 40.8222L32.3429 40.8403C32.4009 40.8032 32.3774 40.7692 32.3739 40.7132C32.3709 40.6632 32.3889 40.6052 32.3944 40.5547C32.4074 40.4372 32.5159 40.3732 32.6189 40.3312C32.6429 40.3212 32.6619 40.3252 32.6869 40.3207C32.7214 40.3147 32.7169 40.3042 32.7419 40.3317C32.7844 40.3787 32.7919 40.4372 32.87 40.4302C32.9205 40.4257 32.952 40.3782 32.94 40.3307C32.9265 40.2782 32.8489 40.2222 32.8529 40.1707C32.8585 40.1062 32.9955 40.1497 33.0345 40.1542C33.1 40.1622 33.168 40.1607 33.1965 40.2327C33.2145 40.2792 33.209 40.3472 33.2195 40.3972C33.224 40.4177 33.238 40.4322 33.2445 40.4522C33.2555 40.4852 33.254 40.5077 33.274 40.5367C33.301 40.5757 33.3335 40.6297 33.381 40.6412C33.432 40.6532 33.503 40.6622 33.5545 40.6602C33.6075 40.6577 33.653 40.6582 33.706 40.6637C33.7645 40.6697 33.794 40.7042 33.8285 40.7522C33.8635 40.8012 33.871 40.8813 33.946 40.8713C33.988 40.8658 34.025 40.8348 34.0675 40.8262C34.1 40.8197 34.1285 40.8147 34.1615 40.8177C34.227 40.8237 34.271 40.8353 34.3065 40.8948C34.323 40.9228 34.341 40.9608 34.3675 40.9823C34.3925 41.0018 34.424 41.0133 34.451 41.0343C34.4755 41.0833 34.541 41.0948 34.5895 41.1003C34.6525 41.1083 34.6731 41.0963 34.7256 41.0673C34.7481 41.0548 34.7836 41.0393 34.8111 41.0433C34.8491 41.0493 34.8571 41.0853 34.8861 41.1013C34.9436 41.1328 34.9776 41.0753 35.0286 41.0713C35.0791 41.0673 35.1431 41.0823 35.1841 41.1073C35.1981 41.1173 35.2126 41.1258 35.2286 41.1323C35.2381 41.1458 35.2421 41.1608 35.2416 41.1773C35.2581 41.2043 35.2696 41.2033 35.3011 41.2028C35.3526 41.2018 35.4256 41.1868 35.4756 41.2118C35.5046 41.2263 35.5236 41.2573 35.5546 41.2733C35.5786 41.2858 35.6136 41.2888 35.6316 41.3108L35.6721 41.2988C35.7116 41.3048 35.7791 41.2283 35.8046 41.2053C35.8511 41.1628 35.8791 41.1583 35.9411 41.1668C35.9901 41.1733 36.0156 41.1733 36.0536 41.1353C36.0821 41.1063 36.0866 41.0848 36.0931 41.0478C36.0976 41.0203 36.1051 40.9823 36.1346 40.9778C36.1546 40.9748 36.1896 41.0063 36.2031 41.0173C36.2301 41.0393 36.2371 41.0858 36.2671 41.0933C36.2816 41.0968 36.3346 41.0718 36.3471 41.0668C36.3971 41.0478 36.4436 41.0168 36.4321 40.9563C36.4241 40.9163 36.4041 40.8728 36.3896 40.8347C36.3701 40.7837 36.3711 40.7362 36.3786 40.6832C36.3851 40.6347 36.3916 40.5932 36.3531 40.5592C36.2766 40.4922 36.1911 40.4312 36.1136 40.3612C36.0781 40.3287 35.9326 40.1672 36.0531 40.1577C36.0676 40.1567 36.0826 40.1632 36.0961 40.1672C36.1126 40.1722 36.1441 40.1812 36.1586 40.1892C36.1946 40.2087 36.1986 40.2532 36.2381 40.2692C36.2901 40.2907 36.3301 40.2422 36.3166 40.1907C36.3116 40.1722 36.2926 40.1482 36.2846 40.1302C36.2761 40.1097 36.2706 40.0952 36.2586 40.0752C36.2266 40.0212 36.2086 40.0117 36.1466 40.0047C36.1106 40.0007 36.0751 39.9957 36.0391 39.9912C35.9516 39.9802 35.8636 39.9667 35.7756 39.9587C35.7266 39.9542 35.7366 39.9327 35.7251 39.8887C35.7151 39.8512 35.7081 39.8162 35.6606 39.8262C35.5626 39.8477 35.5941 40.0227 35.4991 40.0147C35.4656 40.0117 35.4226 39.9927 35.3931 40.0147C35.3691 40.0322 35.3576 40.0767 35.3351 40.0997C35.2861 40.1502 35.2646 40.0897 35.2231 40.0552C35.1911 40.0282 35.1506 40.0082 35.2051 39.9787C35.2346 39.9627 35.2686 39.9592 35.2986 39.9422C35.3176 39.9312 35.3666 39.9067 35.3816 39.8912C35.4076 39.8652 35.3956 39.8342 35.4051 39.8007C35.4181 39.7547 35.4631 39.7187 35.4951 39.6842C35.5121 39.6657 35.5301 39.6482 35.5471 39.6302C35.5591 39.6177 35.5761 39.5917 35.5896 39.5822C35.6166 39.5622 35.6751 39.5612 35.7041 39.5772C35.7391 39.5967 35.7296 39.6347 35.7696 39.6442C35.8036 39.6522 35.8711 39.6382 35.9046 39.6262C35.9301 39.6172 35.9401 39.6032 35.9696 39.6057C35.9891 39.6072 36.0416 39.6222 36.0556 39.6362C36.0776 39.6577 36.0826 39.7167 36.1226 39.7152C36.1531 39.7142 36.2086 39.6452 36.2241 39.6237L36.2146 39.5777C36.1816 39.5362 36.1281 39.5182 36.0901 39.4847C36.0566 39.4552 36.0416 39.4022 36.0456 39.3617C36.0501 39.3157 36.0541 39.2757 36.1036 39.2572C36.1436 39.2422 36.1656 39.2307 36.1561 39.1807C36.1456 39.1247 36.0866 39.1212 36.0646 39.0762C36.0486 39.0427 36.0531 38.9971 36.0726 38.9676C36.0976 38.9301 36.1121 38.9061 36.0931 38.8611C36.0741 38.8166 36.0391 38.7791 36.0126 38.7396C35.9871 38.7026 35.9806 38.6516 36.0361 38.6406C36.0671 38.6341 36.0941 38.6556 36.1196 38.6691C36.1811 38.7021 36.2326 38.7606 36.2961 38.7896C36.3366 38.8081 36.3661 38.7751 36.4036 38.7641C36.4341 38.7551 36.4666 38.7506 36.4972 38.7421C36.5307 38.7331 36.5732 38.7086 36.5812 38.6706C36.5877 38.6396 36.5637 38.6211 36.5457 38.5981C36.4862 38.5231 36.4386 38.4651 36.3361 38.4656C36.3016 38.4661 36.2646 38.4786 36.2316 38.4871C36.2051 38.4941 36.1826 38.5131 36.1576 38.5186C36.1211 38.5266 36.0691 38.5081 36.0306 38.5036C35.9956 38.4996 35.9711 38.4971 35.9401 38.4816C35.9066 38.4651 35.8786 38.4471 35.8486 38.4251C35.8246 38.4076 35.8031 38.3816 35.7721 38.3806C35.7121 38.3781 35.6356 38.4386 35.5816 38.4631C35.5421 38.4811 35.5086 38.5111 35.4681 38.5261C35.4326 38.5391 35.4076 38.5326 35.3711 38.5281C35.3216 38.5216 35.2676 38.5091 35.2181 38.5126C35.1811 38.5151 35.1511 38.5161 35.1141 38.5116C35.0796 38.5071 35.0546 38.4991 35.0231 38.4886C34.9936 38.4786 34.9546 38.4841 34.9441 38.4456C34.9361 38.4161 34.9526 38.3551 34.9661 38.3306C34.9866 38.2941 35.0136 38.2896 35.0541 38.2936C35.0836 38.2961 35.1131 38.3021 35.1426 38.3051C35.1781 38.3086 35.1931 38.3016 35.2241 38.2846C35.2546 38.2686 35.3006 38.2681 35.3276 38.2491C35.3506 38.2326 35.3516 38.1911 35.3521 38.1641C35.3531 38.1091 35.3321 38.0526 35.3271 37.9966L35.3421 37.9986C35.3886 37.9521 35.4906 37.9416 35.5531 37.9326C35.6136 37.9236 35.6816 37.9076 35.7431 37.9126C35.8196 37.9181 35.8986 37.9441 35.9746 37.9346C36.0136 37.9296 36.0746 37.9296 36.0666 37.8776C36.0591 37.8316 36.0091 37.8046 35.9701 37.7916C35.8671 37.7586 35.7696 37.7106 35.6646 37.6806C35.6266 37.6701 35.6011 37.6701 35.5676 37.6441C35.5401 37.6226 35.5241 37.5941 35.5011 37.5681C35.4481 37.5076 35.3891 37.4451 35.3901 37.3586C35.3906 37.3291 35.4041 37.2996 35.4016 37.2701C35.3976 37.2246 35.3521 37.2036 35.3306 37.1665C35.3456 37.102 35.4736 37.1735 35.5011 37.1915C35.5466 37.221 35.5916 37.2686 35.6026 37.3246C35.6136 37.3821 35.6051 37.4436 35.6471 37.4931C35.6866 37.5396 35.7601 37.5531 35.8131 37.5791C35.9081 37.6256 36.0046 37.6676 36.0961 37.7196C36.1351 37.7416 36.1811 37.7561 36.2251 37.7616C36.2451 37.7641 36.2871 37.7786 36.3021 37.7576C36.3161 37.7381 36.2891 37.7021 36.2791 37.6886C36.1626 37.5376 35.9111 37.5391 35.8421 37.3421C35.7961 37.212 35.9811 37.2506 36.0496 37.2586C36.0721 37.2616 36.1346 37.2811 36.1546 37.2691C36.1881 37.249 36.1381 37.1805 36.1181 37.1605C36.0891 37.1315 36.0436 37.1205 36.0076 37.1065C35.9741 37.093 35.9326 37.094 35.8966 37.0895C35.8621 37.0855 35.8181 37.0865 35.7856 37.0735C35.7481 37.0585 35.7426 37.0225 35.7211 36.9925C35.6641 36.914 35.5996 36.864 35.5016 36.8445C35.4706 36.8385 35.4321 36.8485 35.4101 36.82C35.3871 36.79 35.4096 36.7485 35.4066 36.714C35.4006 36.6545 35.3691 36.6175 35.3401 36.57C35.3206 36.538 35.3221 36.489 35.3396 36.452C35.3596 36.409 35.4061 36.398 35.4451 36.427C35.4756 36.4495 35.4891 36.497 35.5066 36.5295C35.5286 36.571 35.5456 36.583 35.5856 36.6045C35.6011 36.6125 35.6111 36.618 35.6241 36.6295C35.6611 36.663 35.6876 36.713 35.7196 36.7515C35.7411 36.7775 35.7766 36.827 35.8166 36.825C35.8786 36.8215 35.8266 36.765 35.8121 36.737C35.7686 36.6545 35.7271 36.5695 35.6766 36.4915C35.6306 36.4195 35.6141 36.325 35.5916 36.2435C35.5816 36.208 35.5711 36.142 35.5441 36.1165C35.5301 36.1035 35.5031 36.0985 35.4866 36.089C35.4601 36.0735 35.4486 36.058 35.4156 36.0525C35.3366 36.039 35.2431 36.048 35.1686 36.021C35.2286 35.951 35.3231 35.9545 35.3356 35.849C35.3406 35.806 35.3436 35.7455 35.4011 35.7675C35.4321 35.7795 35.4751 35.8405 35.4961 35.8655C35.5061 35.877 35.5151 35.89 35.5241 35.9025C35.5501 35.937 35.5791 35.9775 35.6216 35.9905C35.6731 36.0065 35.6991 35.984 35.7216 36.043C35.7376 36.0855 35.7311 36.11 35.7356 36.1525C35.7416 36.2125 35.7791 36.2455 35.8186 36.2835C35.8616 36.325 35.8921 36.359 35.9196 36.4135C35.9331 36.44 35.9531 36.4685 35.9581 36.4985C35.9641 36.536 35.9481 36.576 35.9496 36.614C35.9516 36.6645 35.9746 36.6925 36.0076 36.727C36.0486 36.77 36.1046 36.796 36.1461 36.8375C36.1876 36.879 36.1616 36.9145 36.1771 36.96C36.1946 37.0125 36.3196 37.006 36.3641 37.0115C36.3946 37.0155 36.4251 37.019 36.4556 37.023C36.4947 37.028 36.5327 37.048 36.5457 37.0045C36.5692 36.9275 36.5387 36.844 36.5127 36.774C36.4972 36.733 36.4616 36.7085 36.4656 36.664C36.4686 36.6285 36.4736 36.5895 36.5002 36.5625C36.5532 36.5085 36.6257 36.5345 36.6912 36.5415C36.7472 36.5475 36.7632 36.552 36.7737 36.6125C36.7752 36.6215 36.7677 36.6315 36.7712 36.6415C36.7802 36.6675 36.8067 36.6725 36.8207 36.693C36.8522 36.737 36.7992 36.8405 36.8607 36.8645C37.0047 36.9205 37.0717 36.6265 37.0817 36.5415C37.0862 36.504 37.0917 36.467 37.0957 36.4295C37.0967 36.419 37.0952 36.391 37.0992 36.384C37.1237 36.3415 37.1542 36.385 37.1727 36.4055C37.1992 36.435 37.2297 36.4495 37.2347 36.492C37.2382 36.5205 37.2137 36.581 37.2397 36.6025C37.2782 36.634 37.2872 36.584 37.2897 36.5555C37.2927 36.52 37.3032 36.496 37.3147 36.463C37.3377 36.3975 37.3642 36.32 37.3722 36.2505L37.3887 36.2375C37.4087 36.2085 37.4467 36.1545 37.4332 36.114C37.4207 36.076 37.3777 36.0865 37.3457 36.0895C37.3097 36.093 37.2427 36.102 37.2302 36.06C37.2187 36.022 37.2532 35.9825 37.2672 35.9505C37.2797 35.9215 37.2837 35.887 37.2867 35.8555C37.2907 35.809 37.2632 35.77 37.2507 35.7255C37.2227 35.625 37.1547 35.538 37.0882 35.46C37.0487 35.4135 36.9907 35.3269 37.0872 35.3014C37.1332 35.2894 37.2307 35.3149 37.2742 35.3294C37.3197 35.3449 37.3482 35.3529 37.3837 35.388C37.4152 35.419 37.4342 35.4425 37.4527 35.4825C37.4722 35.5245 37.4647 35.556 37.4677 35.599C37.4702 35.6325 37.4767 35.658 37.4717 35.6925C37.4632 35.757 37.4327 35.842 37.4917 35.8905C37.5247 35.918 37.6197 35.936 37.6512 35.895C37.6692 35.8715 37.6657 35.8245 37.6692 35.795C37.6732 35.764 37.6767 35.7325 37.6807 35.7015C37.6887 35.6385 37.7017 35.5515 37.6732 35.492C37.6362 35.4185 37.5742 35.3885 37.4992 35.3469Z" fill="white"/>
</svg>
