<svg width="68" height="45" viewBox="0 0 68 45" fill="none" xmlns="http://www.w3.org/2000/svg">
<path d="M67.3945 19.0067C66.8686 18.9316 65.892 18.3306 65.291 17.8798C64.5397 17.3539 64.9154 16.9783 64.69 16.3022C64.4646 15.626 63.7134 15.2504 63.1123 14.9499C62.7367 14.6494 62.1357 14.424 62.286 13.9733V14.0484C62.5865 13.5225 62.1357 13.0718 62.0606 12.9967C61.3093 10.6678 58.4546 12.0952 57.6282 9.8414C57.1775 8.6394 56.8018 7.36227 56.6516 6.01002C56.5013 4.65776 58.2292 3.30551 57.1775 2.25376C56.9521 2.02838 56.5013 2.10351 56.3511 1.87813C56.2008 1.65275 56.3511 1.5025 56.276 1.27713C56.0506 0.826376 55.9003 0.450751 56.0506 0L55.7501 0.0751241C55.7501 0.0751241 1.28431 0.0751241 0.833554 0.0751241C1.05893 0.45075 1.35943 1.42738 1.43456 1.87813C1.58481 2.77963 1.05893 2.62938 1.05893 3.15526C0.983805 4.20701 2.03556 3.83139 2.26093 4.88314C2.48631 5.93489 1.96043 5.55927 1.65993 6.31052C1.50968 6.76127 1.73506 7.13689 1.73506 7.58765C1.73506 8.18865 1.35943 8.9399 1.05893 9.46578C0.457928 9.99165 -0.0679483 10.5175 0.00717695 11.1185C0.157427 11.7195 0.983805 12.0952 1.20918 12.621C1.43456 13.0718 1.28431 13.5977 1.65993 14.0484C2.11068 14.5743 2.56143 14.1987 2.56143 15.1753C2.56143 15.9265 2.18581 16.0768 2.56143 16.9032C2.78681 17.5042 3.01219 17.7295 3.08731 18.4057C3.23756 19.2321 3.61319 20.5092 4.06394 21.2604C4.13906 21.1853 4.21419 21.1102 4.28931 20.9599C5.11569 21.8614 5.49132 23.4391 5.56644 24.7162C5.71669 25.8431 4.66494 27.2705 5.79182 28.3973C5.94207 28.3222 6.09232 28.172 6.16744 28.0968C6.54307 28.9232 6.99382 29.2237 7.06895 30.2003C6.99382 30.5008 6.9187 30.7262 6.84357 31.0267C6.99382 31.1018 7.06895 31.177 7.2192 31.177C7.44457 31.3272 7.5197 31.5526 7.5197 31.8531C7.29432 31.9282 7.2192 32.1536 7.2192 32.379C7.2192 32.6043 7.14407 32.7546 7.14407 32.98C7.29432 33.1302 7.44457 33.1302 7.66995 33.2053C7.8202 33.8063 7.59482 33.5058 7.59482 34.2571C7.59482 35.4591 7.97045 36.7362 8.04557 37.9382C7.74507 38.1636 7.59482 39.7412 7.74507 40.1169C7.97045 40.7179 9.17245 41.1686 8.7217 41.8447L51.2426 41.4691C51.5431 41.8447 51.8436 41.6945 51.8436 42.2204L52.4446 42.4457C52.5948 42.9716 52.7451 43.1219 53.1207 43.4975L53.5714 43.5726L53.4963 43.798L53.5714 44.2487L54.0222 44.399V44.5492H54.2476L54.4729 44.7746L54.6232 45V44.9249C55.5998 44.0985 55.2993 44.5492 55.3745 43.4975C55.3745 42.3706 54.6983 41.995 55.9755 41.3189C56.6516 41.0184 57.478 41.0184 57.9287 40.3422C58.5297 39.5159 58.1541 38.389 58.68 37.5626C59.2058 36.8114 59.5063 36.7362 59.5815 35.7596C59.6566 34.9332 59.6566 34.0317 59.1307 33.3556C58.7551 32.9048 57.9287 32.8297 57.8536 32.0785C57.8536 32.0033 58.3043 30.3506 58.3795 30.2755C59.0556 29.2237 61.0088 29.6745 62.1357 29.1486C62.7367 28.9232 63.2626 28.4725 63.8636 28.172C64.3895 27.8715 65.1407 27.7212 65.5164 27.1953C66.1174 26.4441 65.6666 25.3923 66.1174 24.6411C66.493 24.0401 67.0189 24.0401 67.3194 23.4391C67.9204 21.9366 67.4696 20.5092 67.3945 19.0067Z" fill="white"/>
</svg>
