<svg width="30" height="45" viewBox="0 0 30 45" fill="none" xmlns="http://www.w3.org/2000/svg">
<path d="M28.1759 28.7181C28.1259 28.4184 27.7763 28.2186 27.6265 27.9689C27.4267 27.6693 27.2769 27.4195 27.0271 27.1698C26.9772 27.4695 26.7774 27.4195 26.5776 27.4695C26.6775 27.8191 26.1781 28.2686 26.6775 28.5183C26.3779 28.5683 26.1281 28.4684 25.8285 28.5183C25.6287 28.5683 25.379 28.768 25.2291 28.768C24.8296 28.768 24.7796 28.5183 24.3301 28.6182C24.1803 28.6681 24.0305 28.7181 23.8307 28.7181C23.6309 28.7181 23.4811 28.5183 23.2813 28.5183C22.7819 28.5183 22.9816 28.7181 22.7319 28.9678C22.3823 29.3174 21.9827 29.0677 21.4833 29.0178C21.1836 29.0178 20.1847 28.9179 20.5344 29.5172C20.6842 30.1665 19.8851 29.2175 19.6853 29.2175C19.7352 29.1176 19.5854 28.768 19.5355 28.6681C19.3856 28.3685 19.4356 28.3685 19.3856 28.0688C19.3357 27.7691 19.3357 27.4695 19.086 27.2198C18.7863 26.9201 18.6864 27.1199 18.2869 27.0699C17.8873 27.02 17.4378 26.5205 17.4378 26.121C17.4378 25.9711 17.6875 25.9212 17.6376 25.6215C17.5876 25.3219 17.238 25.3219 17.3379 25.0222C16.7885 24.9723 16.4889 24.0733 16.339 23.6238C16.2891 23.424 16.1892 22.2752 15.8396 22.4251C15.8396 22.1754 16.0394 22.1254 15.8895 21.8757C15.8396 21.7758 15.6398 21.7758 15.5399 21.7259C15.49 21.6759 15.1903 21.3263 15.1903 21.2764C14.8407 21.3263 14.6409 22.0255 14.3912 22.1754C14.2414 22.3252 14.0416 22.4251 13.8917 22.525C13.4922 22.7747 13.5921 22.7747 13.1925 22.525C13.0926 22.475 13.0427 22.2753 12.9428 22.2253C12.8429 22.1754 12.5432 22.2753 12.4933 22.2253C12.2935 22.0755 12.6931 21.5261 12.6931 21.3263C12.6931 21.1265 12.5432 20.9267 12.5932 20.677C12.6931 20.3774 13.0427 20.4273 13.1925 20.0777V19.6282C13.0926 19.4284 12.9428 19.4284 12.8928 19.1787C12.793 18.879 12.9927 18.7791 12.793 18.4795C12.6931 18.1299 12.9428 18.3796 12.9927 18.2797C13.0427 18.1299 13.0427 17.9301 13.0427 17.8302C13.0926 17.5305 13.2425 17.081 13.2924 16.7314C13.3423 16.3818 13.8418 15.333 13.4422 15.0832C13.1426 14.9334 12.8429 15.4329 12.5432 15.283C12.2436 15.1332 12.4433 14.7836 12.1936 14.6337C12.0438 14.5339 11.9439 14.7336 11.894 14.7336C11.7941 14.6837 11.7441 14.6837 11.6442 14.6337C11.6442 14.6337 11.5943 14.434 11.5443 14.434C11.4445 14.3341 11.1947 14.2841 11.0948 14.1343C10.8451 13.8346 10.995 13.6349 10.8951 13.3851C10.6953 12.9356 10.046 12.3862 9.74634 12.0366C9.54656 11.8368 9.49662 11.6371 9.34679 11.4373C9.14701 11.1876 9.09707 11.2875 8.89729 11.0877C8.44779 10.788 7.99828 10.3385 7.49884 10.0888C7.49884 9.93896 7.99828 9.93896 7.99828 9.78912C7.99828 9.73918 7.69862 9.63929 7.64867 9.48946C7.59873 9.38957 7.69862 9.13984 7.69862 8.99001C7.69862 8.24084 6.9994 7.59157 6.59984 6.99223C6.45001 6.8424 6.45001 6.69256 6.25023 6.54273L6.35012 0.0998889C4.95167 0.0499444 3.60317 0.0499445 2.20472 0C2.20472 0.649279 2.20472 1.24861 2.15478 1.89789C2.00494 6.69256 1.75522 11.5372 1.65533 16.3319L1.70528 16.3818C1.70528 16.4317 1.80517 16.4317 1.80517 16.4817C1.80517 16.5316 1.75522 16.5816 1.70528 16.6315C1.65533 16.7314 1.65533 16.8313 1.65533 16.8313C2.10483 17.081 2.30461 18.1798 1.955 18.5794C2.15478 18.6792 2.15478 18.929 2.25467 19.1287C2.50439 19.4784 2.50439 19.9279 2.854 20.2275C3.05378 20.3774 3.45334 20.4772 3.70306 20.677C3.85289 20.8269 3.90284 20.9767 4.00273 21.1765C4.25245 21.7259 4.15256 21.8257 3.85289 22.3252C3.55322 22.8246 3.3035 23.3241 3.15367 23.8735C3.05378 24.2231 3.00384 24.5228 2.80406 24.8224C2.70417 25.0222 2.35456 25.2719 2.35456 25.5216L2.50439 25.4717C2.35456 25.7214 2.45445 25.9711 2.25467 26.2708C2.15478 26.4206 2.05489 26.7203 1.85511 26.9201C1.60539 27.1698 1.45556 27.1698 1.25578 27.5194C1.10594 27.8191 1.00605 28.5183 0.656443 28.6182C0.556554 28.6681 0.456665 29.1676 0.456665 29.3674C0.456665 29.2675 0.606498 29.8668 0.606498 29.8169C0.606498 29.7669 0.656443 30.2664 0.756332 30.1665L0.806277 30.0166C0.906166 30.0166 1.00605 30.0666 1.10594 30.1165C1.10594 30.1165 1.40561 30.1665 1.35567 30.1665C1.45555 30.2164 1.60539 30.3163 1.65533 30.3663C1.55544 30.3163 1.955 30.8158 1.90506 30.6659C2.00494 31.0155 1.90506 30.9656 1.75522 31.3152C1.75522 31.3651 1.65533 31.3652 1.60539 31.4151C1.55544 31.6149 1.85511 31.6648 1.75522 31.9645C1.60539 32.2142 1.70528 32.8135 1.40561 32.8635V32.9134L1.20583 32.9634C1.20583 32.9634 1.20583 33.0133 1.15589 33.1132L1.056 33.1632L1.10594 33.9123L0.806277 44.7503C5.50106 44.9001 10.1958 45 14.8906 45C19.6354 44.9501 24.3301 44.8502 29.0749 44.7503L28.5754 28.8679L28.1759 28.7181Z" fill="white"/>
</svg>
