<svg width="27" height="47" viewBox="0 0 27 47" fill="none" xmlns="http://www.w3.org/2000/svg">
<path d="M3.15964 15.0728C3.17169 14.9445 3.16488 14.811 3.11932 14.6884C3.10099 14.6392 3.05386 14.5858 3.02505 14.5386C2.9863 14.4753 2.99311 14.4674 3.035 14.4098C3.10151 14.3187 3.12037 14.1977 3.05491 14.1008C3.01353 14.0395 3.03081 14.0113 3.06328 13.9448C3.08476 13.9008 3.12246 13.8453 3.12299 13.795C3.15388 13.6641 3.24605 13.5567 3.34922 13.4771C3.45658 13.3944 3.56446 13.3111 3.66554 13.2173C3.69067 13.1938 3.70272 13.1644 3.72524 13.1383C3.74723 13.1126 3.77289 13.0901 3.79541 13.0649C3.83626 13.0189 3.86402 12.9681 3.8991 12.9194C3.91796 12.8932 3.92529 12.8638 3.94152 12.8377C3.95776 12.8115 3.9719 12.7879 3.98133 12.7575C4.0007 12.6978 4.01484 12.6465 4.02165 12.5837C4.02846 12.5182 4.03789 12.4527 4.04312 12.3868C4.04522 12.3595 4.03946 12.3381 4.03736 12.3113C4.03422 12.2736 4.04312 12.2391 4.03527 12.2014C4.02375 12.1453 4.01537 12.0547 3.98028 12.0071C3.94414 11.9578 3.88444 11.9353 3.83102 11.9133C3.78546 11.8945 3.742 11.8898 3.6912 11.8851C3.62364 11.8788 3.59693 11.8589 3.5608 11.8013C3.52676 11.7478 3.50424 11.6939 3.46863 11.6415C3.4503 11.6143 3.43773 11.5845 3.41678 11.5588C3.39583 11.5326 3.36755 11.5148 3.3466 11.4891C3.29423 11.4258 3.3288 11.3902 3.32094 11.321C3.31571 11.2744 3.27276 11.2289 3.25758 11.1843C3.24291 11.1425 3.256 11.0833 3.26281 11.0377C3.26805 11.0031 3.28847 10.9084 3.31466 10.8853L3.31675 10.868C3.3398 10.8366 3.36598 10.8052 3.38588 10.7717C3.39845 10.7512 3.40578 10.7282 3.42045 10.7088C3.43144 10.6936 3.4482 10.6884 3.45763 10.6706C3.47491 10.6376 3.48591 10.5219 3.48119 10.4836C3.47805 10.4543 3.47439 10.4297 3.47229 10.4004C3.4702 10.369 3.45134 10.3459 3.44715 10.3155C3.4372 10.2365 3.51838 10.2207 3.55661 10.171C3.59065 10.1265 3.57441 10.0375 3.59484 9.98403C3.61212 9.93795 3.60269 9.88034 3.62888 9.83792C3.66501 9.77979 3.72995 9.7269 3.77499 9.67505C3.8216 9.62163 3.8724 9.60173 3.93943 9.61011C4.00856 9.61849 4.08397 9.6164 4.15205 9.63211C4.21175 9.64572 4.25103 9.67086 4.31806 9.66458C4.39714 9.65725 4.46941 9.66301 4.54744 9.64154C4.61133 9.62373 4.67051 9.58759 4.73021 9.56036C4.82919 9.51532 4.94231 9.46662 5.0481 9.45091C5.15755 9.43467 5.26858 9.47552 5.37698 9.46034C5.42726 9.45353 5.47648 9.453 5.5278 9.44672C5.56132 9.44253 5.59274 9.42944 5.62626 9.42787C5.65663 9.42629 5.67601 9.42944 5.70482 9.42211C5.73257 9.4153 5.76871 9.41582 5.79489 9.40639C5.81113 9.40063 5.81741 9.38545 5.83155 9.37812C5.84883 9.36869 5.86454 9.37026 5.88235 9.36293C5.91168 9.35088 5.93315 9.32889 5.9609 9.3137C5.99023 9.29799 6.0206 9.29013 6.05203 9.28071L6.03684 9.26185C6.09968 9.25662 6.12063 9.19796 6.15205 9.15659C6.18662 9.11103 6.23584 9.07018 6.27983 9.03457C6.34477 8.9822 6.44428 8.93192 6.53016 8.93088C6.6239 8.92931 6.72602 8.95235 6.81924 8.96282C6.86847 8.96858 6.89885 8.96858 6.94598 8.95444C6.98002 8.94449 7.01563 8.92983 7.05019 8.92145C7.08842 8.91202 7.12927 8.91464 7.16593 8.9026C7.2073 8.88898 7.25182 8.86594 7.28638 8.83871C7.35865 8.78162 7.41102 8.70883 7.48067 8.6507C7.52205 8.61614 7.55766 8.59414 7.60374 8.56743C7.63935 8.54701 7.67287 8.52763 7.70534 8.50092C7.77499 8.44384 7.88235 8.38937 7.90277 8.29458L7.9431 8.2464C7.94991 8.18408 7.96248 8.11862 7.96405 8.05578C7.96457 8.03064 7.95724 8.00969 7.95514 7.98456C7.952 7.94894 7.96195 7.91019 7.96562 7.8751C7.97086 7.82483 7.97662 7.77403 7.98185 7.72375C7.98552 7.69076 7.98918 7.65777 7.99233 7.62477C7.99547 7.59178 8.00804 7.57031 8.01746 7.53941C8.0337 7.48599 8.03946 7.42996 8.05517 7.37707C8.06983 7.32784 8.09549 7.29537 8.10283 7.24248C8.11801 7.13355 8.21752 7.01938 8.31911 6.98167C8.38248 6.95811 8.44375 6.93245 8.50922 6.91516C8.56944 6.89893 8.61605 6.91569 8.6658 6.87641C8.75745 6.80466 8.81296 6.69574 8.91194 6.63027C8.95488 6.60199 9.03606 6.6308 9.04653 6.55853C9.04967 6.53706 9.03658 6.5093 9.03868 6.48416C9.04077 6.45798 9.04496 6.43232 9.04758 6.40613C9.05386 6.34748 9.06434 6.29825 9.08633 6.24431C9.10466 6.20032 9.14341 6.16994 9.16488 6.127C9.20311 6.05054 9.21254 5.94528 9.19578 5.86149C9.17903 5.77874 9.17798 5.69076 9.18636 5.60592L9.18845 5.58864C9.18793 5.56455 9.1785 5.5436 9.17798 5.51899C9.17745 5.47971 9.19526 5.43886 9.19212 5.40011C9.1874 5.33726 9.18531 5.28699 9.19264 5.22257C9.19893 5.16863 9.18898 5.11993 9.19264 5.06546C9.19474 5.0309 9.18426 4.99895 9.18479 4.96387C9.18531 4.92878 9.19316 4.89107 9.19735 4.85651C9.20469 4.79052 9.19316 4.7303 9.2005 4.66484C9.20573 4.61875 9.21621 4.57005 9.21673 4.52396C9.2183 4.37837 9.17536 4.19298 9.09785 4.06887C9.02035 3.94475 8.88628 3.85206 8.77473 3.76512C8.67209 3.685 8.59772 3.57502 8.47256 3.52632C8.44585 3.51584 8.42804 3.50642 8.40343 3.4928C8.37515 3.47709 8.34739 3.47709 8.31807 3.46714C8.29764 3.46033 8.27512 3.45352 8.25418 3.44724C8.22642 3.43834 8.21123 3.42053 8.18557 3.40849C8.15677 3.39435 8.12901 3.39068 8.10073 3.3734C8.07402 3.35716 8.06093 3.33726 8.03841 3.31841C7.98657 3.27494 7.9232 3.24928 7.87607 3.19691C7.76557 3.13616 7.6912 3.06389 7.64145 2.94554C7.59117 2.82509 7.56761 2.69887 7.53776 2.57109C7.52624 2.52134 7.51943 2.46478 7.52414 2.41294C7.52885 2.36109 7.52205 2.3171 7.52414 2.2663C7.52728 2.2045 7.50319 2.10919 7.47177 2.05368C7.44663 2.00864 7.41102 1.96936 7.36703 1.94266C7.33456 1.9238 7.3 1.90966 7.26753 1.89238C7.24239 1.87876 7.22302 1.85991 7.1984 1.84525C7.15493 1.81906 7.11618 1.78869 7.07219 1.7625C7.01982 1.73108 6.98054 1.69233 6.93079 1.66038C6.8779 1.62634 6.83914 1.58707 6.79515 1.54465C6.77525 1.52579 6.75378 1.51113 6.73022 1.49856C6.71398 1.49332 6.69879 1.48652 6.68413 1.47814C6.67366 1.46295 6.66213 1.44776 6.65061 1.4331C6.62809 1.41267 6.60976 1.40691 6.58934 1.38387C6.56473 1.35559 6.54168 1.3315 6.51498 1.30584C6.42228 1.21576 6.34634 1.10055 6.26517 1L23.3576 1.10055C23.3377 1.28542 23.3178 1.46976 23.2979 1.65462C23.2937 1.69442 23.2895 1.73475 23.2848 1.77455C23.2796 1.82482 23.2644 1.86829 23.255 1.91647C23.2351 2.01807 23.1885 2.11338 23.1785 2.21917C23.1764 2.24378 23.1727 2.2684 23.1707 2.29301C23.1675 2.32496 23.1748 2.34224 23.1827 2.37156C23.1879 2.39094 23.1932 2.41765 23.1953 2.43807C23.1989 2.46531 23.1885 2.49149 23.1911 2.5182C23.1958 2.5669 23.2005 2.61351 23.2215 2.6596C23.2524 2.72768 23.2885 2.79524 23.3241 2.8607C23.3566 2.9204 23.3754 2.98691 23.41 3.04504C23.4246 3.07018 23.4304 3.09584 23.4445 3.1215C23.4592 3.14821 23.4817 3.1723 23.4959 3.20005C23.5053 3.21891 23.5142 3.23671 23.5252 3.25452C23.544 3.28594 23.5498 3.3205 23.5676 3.3514C23.5802 3.37392 23.5975 3.39016 23.6069 3.41477C23.6174 3.442 23.6231 3.46609 23.6378 3.49123C23.6703 3.54726 23.7033 3.60749 23.7169 3.67086C23.7226 3.69809 23.7242 3.7248 23.7294 3.75203C23.7342 3.77717 23.7431 3.82378 23.7535 3.84682C23.775 3.89291 23.8263 3.93899 23.8666 3.96779C23.8934 3.98717 23.9211 4.00236 23.9489 4.02016C23.9709 4.0343 24.0149 4.0872 24.04 4.08929L24.0531 4.105C24.0955 4.10972 24.1447 4.17204 24.1746 4.19822C24.2018 4.22231 24.2568 4.2663 24.272 4.2972C24.284 4.32181 24.284 4.34171 24.3013 4.36528C24.3144 4.38309 24.328 4.39461 24.3369 4.41556C24.3526 4.45326 24.3563 4.5182 24.3542 4.558C24.3511 4.62713 24.3453 4.69469 24.3642 4.76224C24.3741 4.79681 24.3814 4.8387 24.3956 4.87117C24.415 4.91726 24.4506 4.95287 24.4668 5.00105C24.4789 5.03614 24.4893 5.07018 24.4987 5.10579C24.504 5.12621 24.5035 5.14559 24.5077 5.16549C24.5124 5.18644 24.5244 5.20163 24.5297 5.2231C24.5496 5.30637 24.5092 5.39016 24.5312 5.47133C24.5443 5.51899 24.5626 5.56088 24.5778 5.60749C24.5878 5.63891 24.6124 5.6562 24.6271 5.68343C24.637 5.70176 24.6412 5.72061 24.6485 5.73999C24.6606 5.77298 24.68 5.80231 24.6925 5.8353C24.7014 5.85834 24.7166 5.87981 24.725 5.90286C24.7328 5.9259 24.7239 5.95156 24.7402 5.97199C24.7381 6.03326 24.8161 6.08667 24.8355 6.14271C24.8549 6.19822 24.8748 6.25059 24.8858 6.3082C24.8957 6.36109 24.9119 6.41556 24.9271 6.46688C24.9444 6.52658 24.9648 6.58523 24.9879 6.64284C25.0031 6.68107 25.0193 6.69364 25.0455 6.72559C25.0675 6.75229 25.0837 6.78633 25.101 6.81566C25.1408 6.88322 25.1921 6.94135 25.2414 7.00262C25.2827 7.05394 25.3021 7.1037 25.3262 7.16392C25.3519 7.22834 25.3639 7.28489 25.4089 7.34093L25.7865 26.2029C25.7823 26.2517 25.7651 26.2962 25.7551 26.3428C25.7441 26.393 25.6891 26.4192 25.6404 26.4276C25.5901 26.4365 25.5372 26.4297 25.4864 26.4355C25.4147 26.4438 25.3817 26.4847 25.3487 26.5428C25.311 26.6093 25.3005 26.6638 25.2927 26.7387C25.2874 26.7895 25.2963 26.8769 25.2712 26.9194C25.2555 26.9456 25.2204 26.9419 25.212 26.9738C25.2068 26.9953 25.2283 27.032 25.2414 27.0471C25.2749 27.0869 25.3199 27.0953 25.3691 27.1C25.3901 27.1016 25.4278 27.0959 25.4425 27.1142C25.4514 27.1262 25.4404 27.1718 25.4356 27.1854C25.4178 27.2341 25.3728 27.2535 25.3707 27.31C25.3686 27.3629 25.3938 27.4137 25.3901 27.4677C25.3848 27.541 25.333 27.5646 25.2901 27.6138C25.2518 27.6578 25.2215 27.7138 25.1806 27.7547C25.1549 27.7803 25.1298 27.795 25.1094 27.8259C25.0874 27.8594 25.0743 27.8945 25.0439 27.9238C24.9957 27.9704 24.9392 28.0024 24.9088 28.0652C24.891 28.1019 24.8957 28.1595 24.8915 28.1993C24.946 28.1972 24.9811 28.2721 24.9847 28.3182C24.9874 28.3559 24.9685 28.3957 24.9696 28.4334C24.9716 28.4852 25.0146 28.5386 25.046 28.5784C25.0664 28.6041 25.0874 28.6172 25.1052 28.6449C25.122 28.6711 25.1277 28.6963 25.1534 28.7172C25.1727 28.7335 25.1963 28.7403 25.2152 28.757C25.233 28.7727 25.2471 28.7911 25.266 28.8068C25.3052 28.8398 25.3346 28.878 25.3613 28.9225C25.3791 28.9524 25.4089 29.0063 25.4116 29.0409C25.4142 29.0775 25.4016 29.1236 25.3974 29.1608C25.3917 29.2147 25.3859 29.2681 25.3801 29.3221C25.3744 29.3718 25.3592 29.4274 25.3985 29.4687C25.4278 29.5001 25.4765 29.5111 25.5152 29.5253C25.5383 29.5337 25.5577 29.5447 25.5823 29.5483C25.61 29.5525 25.6341 29.5478 25.6582 29.5656C25.6776 29.5797 25.6886 29.5996 25.708 29.6138C25.7258 29.6264 25.7509 29.6311 25.7609 29.6531C25.7734 29.6808 25.7698 29.7458 25.7671 29.7767C25.7614 29.8358 25.7734 29.8929 25.7661 29.9526C25.7609 29.9982 25.7556 30.0437 25.7509 30.0893L25.7488 30.1066C25.7415 30.1762 25.7342 30.2454 25.7263 30.315C25.7205 30.3637 25.7326 30.4056 25.7294 30.4533C25.7263 30.4946 25.7211 30.5324 25.7373 30.5727C25.7713 30.658 25.8447 30.7214 25.9065 30.7863C25.9405 30.8225 25.9682 30.8581 25.9955 30.9005C26.0222 30.9424 26.0279 30.9895 26.0505 31.0335C26.0746 31.0807 26.0787 31.1021 26.0725 31.154C26.0678 31.1917 26.0641 31.2294 26.0604 31.2671C26.0562 31.309 26.0374 31.3409 26.03 31.3818C26.0227 31.4211 26.0149 31.4499 25.9997 31.4871C25.9866 31.519 25.9798 31.5593 25.9557 31.5855C25.9274 31.6159 25.8834 31.6326 25.8452 31.6473C25.7635 31.6787 25.6797 31.6976 25.6069 31.7484L25.5687 31.7793C25.5357 31.807 25.498 31.8594 25.4728 31.8955C25.4566 31.9181 25.4456 31.9359 25.4273 31.9563C25.4137 31.9715 25.4006 31.9861 25.3917 32.0045C25.3539 32.083 25.3126 32.1584 25.2707 32.2354C25.2487 32.2763 25.2429 32.3145 25.266 32.3574C25.2953 32.4114 25.3293 32.3878 25.3801 32.4051C25.5032 32.4465 25.4184 32.558 25.3309 32.5695C25.2696 32.5779 25.2382 32.5779 25.2309 32.646C25.2272 32.679 25.2325 32.7382 25.2162 32.7664C25.1906 32.8125 25.123 32.8078 25.0801 32.8251C25.0617 32.8324 25.0424 32.8445 25.0251 32.8529C25.0005 32.8644 24.991 32.8502 24.979 32.8838C24.9732 32.8989 24.9648 32.9372 24.9711 32.9524C24.9811 32.9785 24.9942 32.9738 25.0151 32.9885C25.0628 33.022 25.0994 33.0503 25.0942 33.11C25.09 33.1603 25.0942 33.2242 25.0617 33.2645C25.0392 33.2922 24.9643 33.3441 24.9282 33.3504L24.9093 33.3656C24.8695 33.3954 24.814 33.3938 24.7721 33.4195C24.7229 33.4499 24.6951 33.4954 24.6684 33.5441C24.6449 33.5866 24.6176 33.6342 24.581 33.6662C24.5543 33.6897 24.5564 33.685 24.5218 33.6892C24.4956 33.6923 24.4715 33.6887 24.4553 33.7164C24.4411 33.7405 24.4375 33.8076 24.439 33.8369C24.4417 33.8819 24.4621 33.9228 24.4789 33.9626C24.5098 34.0354 24.4804 34.1642 24.4532 34.2359C24.416 34.3339 24.3553 34.4072 24.2526 34.4412C24.1919 34.4611 24.1379 34.4632 24.1185 34.536C24.1081 34.5748 24.1102 34.624 24.106 34.6638C24.1013 34.7088 24.0992 34.7502 24.0835 34.7926C24.0693 34.8303 24.0567 34.8644 24.0458 34.9016C24.0306 34.9539 24.0091 34.9953 23.9819 35.0424C23.9661 35.0697 23.9504 35.0943 23.9337 35.121C23.9174 35.1461 23.9075 35.1577 23.9096 35.1922C23.8604 35.198 23.8441 35.1393 23.8033 35.1283C23.7514 35.1142 23.7242 35.1613 23.6917 35.1912C23.664 35.2168 23.6163 35.2718 23.5744 35.2634C23.5273 35.254 23.542 35.2069 23.5461 35.1697C23.5498 35.1383 23.5592 35.1058 23.5205 35.0953C23.4781 35.0838 23.4419 35.1309 23.4246 35.1613C23.4042 35.1964 23.399 35.2425 23.3744 35.275C23.3498 35.3069 23.3094 35.3258 23.2817 35.3551C23.2251 35.4158 23.1686 35.4881 23.1534 35.5709C23.1398 35.6473 23.1497 35.7358 23.19 35.8018C23.2204 35.8515 23.2497 35.8987 23.2869 35.9437C23.3183 35.9825 23.3629 36.0207 23.3906 36.0605C23.4304 36.1176 23.4466 36.2428 23.4409 36.3103L23.4372 36.3292C23.3958 36.3684 23.4032 36.4543 23.3351 36.4727C23.2869 36.4852 23.245 36.4559 23.211 36.514C23.1822 36.5633 23.1989 36.6151 23.1277 36.6104C23.0874 36.6078 23.0465 36.6015 23.0062 36.5968C22.9706 36.5931 22.9188 36.5748 22.8936 36.6031C22.8669 36.6334 22.8643 36.7183 22.903 36.7408C22.9366 36.7602 22.9999 36.7534 23.0376 36.7575C23.0638 36.7607 23.0916 36.7675 23.1172 36.7649C23.1445 36.7623 23.1691 36.7445 23.1968 36.7586C23.2057 36.812 23.1879 36.8738 23.1481 36.9099C23.1204 36.9356 23.0842 36.9477 23.0533 36.9686C23.0293 36.9854 23.012 37.0026 22.9837 37.0142C22.9235 37.0398 22.8664 37.0414 22.8831 37.1252C22.8947 37.1844 22.9643 37.2058 22.9716 37.2556C22.9816 37.321 22.9261 37.3504 22.9051 37.4017C22.8889 37.4415 22.8842 37.5153 22.8889 37.5572C22.9004 37.6494 22.8821 37.7442 22.8721 37.8385C22.8522 37.8804 22.7763 37.8929 22.7344 37.9029C22.6999 37.9107 22.6705 37.9018 22.6354 37.8997C22.4909 37.8908 22.6077 38.0448 22.6868 38.0636C22.7721 38.0841 22.8868 38.1139 22.9601 38.1663C23.0031 38.1967 23.012 38.2558 23.0193 38.304C23.0293 38.3684 23.0156 38.3789 22.9549 38.3716C22.8591 38.3601 22.7695 38.3166 22.6721 38.3061C22.6234 38.3009 22.5831 38.2904 22.5585 38.347C22.5375 38.3957 22.5653 38.435 22.5946 38.4727C22.6265 38.514 22.6648 38.5564 22.7088 38.5853C22.7349 38.6025 22.7522 38.602 22.7705 38.6298C22.7847 38.6512 22.7852 38.6759 22.7962 38.6994C22.8151 38.7382 22.846 38.7727 22.8596 38.8146C22.8847 38.8895 22.8198 38.8832 22.7737 38.9105L22.7585 38.8916C22.7255 38.9162 22.6904 38.9178 22.6511 38.9152C22.6009 38.9115 22.5778 38.9068 22.5836 38.9607C22.5878 39 22.5883 39.0555 22.6187 39.0822C22.6454 39.1058 22.6941 39.1309 22.7255 39.1498C22.7721 39.177 22.8596 39.2174 22.8795 39.2697C22.9004 39.3247 22.8831 39.4279 22.8564 39.4782C22.8392 39.5106 22.8303 39.553 22.8077 39.5813C22.7805 39.6154 22.7328 39.6353 22.6993 39.6625C22.6611 39.6934 22.6255 39.7206 22.5831 39.7447C22.5485 39.7646 22.5092 39.7709 22.4768 39.7934C22.3553 39.8772 22.2636 40.0532 22.2505 40.1972L22.2432 40.2663C22.2306 40.3815 22.1934 40.5187 22.217 40.6313C22.2458 40.7701 22.3207 40.8859 22.4228 40.9838C22.4699 41.0288 22.5192 41.0482 22.5736 41.0828C22.6197 41.1121 22.6553 41.1519 22.6946 41.1891C22.7433 41.2357 22.78 41.2666 22.7737 41.3357C22.7685 41.3897 22.7674 41.4504 22.7559 41.5033C22.7459 41.5494 22.7145 41.5981 22.693 41.64C22.6658 41.6929 22.6202 41.7363 22.5694 41.7678C22.4935 41.8149 22.4008 41.8207 22.3175 41.8442C22.2228 41.8709 22.1212 41.9018 22.029 41.939C21.9572 41.9683 21.8886 41.9835 21.8138 42.0045C21.7933 42.0102 21.7729 42.0165 21.753 42.0233C21.7232 42.0333 21.6813 42.0595 21.6493 42.0516L21.632 42.0495C21.6085 42.0427 21.5807 42.0548 21.5577 42.0589C21.5231 42.0652 21.487 42.0631 21.4519 42.0684C21.3812 42.0794 21.312 42.1045 21.2471 42.1302C21.1811 42.1563 21.1329 42.1642 21.0743 42.2056C21.0073 42.2532 20.9455 42.2925 20.8842 42.3485C20.8522 42.3773 20.8172 42.403 20.7873 42.4339C20.7679 42.4538 20.7533 42.48 20.7287 42.4947C20.6747 42.5277 20.6517 42.4868 20.6119 42.4538C20.5176 42.3758 20.4165 42.3491 20.3013 42.402C20.1767 42.459 20.1264 42.5978 20.0814 42.7188C20.0573 42.7837 20.0285 42.8471 20.0201 42.9162C20.0138 42.9717 20.008 43.0273 20.0023 43.0828C19.9991 43.1131 19.9913 43.1461 19.9913 43.1765C19.9913 43.2043 20.0018 43.2294 20.0018 43.2572C20.0018 43.3111 19.9881 43.3483 20.0023 43.4027C20.03 43.5075 20.0772 43.608 20.1191 43.7075C20.1322 43.739 20.1542 43.7641 20.1652 43.7976C20.1767 43.8332 20.1798 43.8615 20.2044 43.8919C20.2249 43.917 20.2353 43.9312 20.2495 43.96C20.2626 43.9867 20.2835 44.0029 20.2971 44.0296C20.3212 44.0778 20.3406 44.127 20.3547 44.1804C20.3678 44.2297 20.3626 44.2695 20.3568 44.3203L20.3741 44.3224C20.3673 44.3842 20.3605 44.4465 20.3542 44.5083C20.3479 44.5654 20.3291 44.6141 20.3191 44.6691C20.306 44.7403 20.2631 44.7963 20.2091 44.8455C20.1531 44.8969 20.0976 44.9508 20.0395 45.0005C19.9735 45.0571 19.9248 45.1006 19.842 45.1278C19.7708 45.1514 19.7101 45.1603 19.6362 45.1708C19.5818 45.1786 19.5351 45.1728 19.4802 45.1671C19.433 45.1618 19.3691 45.165 19.3246 45.1514C19.212 45.1163 19.0947 45.0739 18.99 45.0142C18.88 44.9513 18.7999 44.8544 18.6978 44.7853C18.6611 44.7607 18.6103 44.7397 18.57 44.7204C18.5108 44.6921 18.4427 44.6764 18.3788 44.6649C18.251 44.6418 18.1693 44.5313 18.1322 44.4114L18.1149 44.4093C18.0855 44.3611 18.0285 44.3365 17.9855 44.304C17.9421 44.271 17.9164 44.2176 17.8735 44.1825C17.8211 44.1401 17.7771 44.0946 17.7085 44.0856C17.6598 44.0794 17.6111 44.0757 17.5624 44.0699C17.5006 44.0631 17.443 44.0637 17.3885 44.0301C17.3351 43.9971 17.2832 43.9647 17.2283 43.9338C17.1848 43.9092 17.1439 43.8667 17.0979 43.8479C17.0612 43.8332 16.9942 43.8285 16.9554 43.8332C16.8475 43.8463 16.7564 43.8767 16.6569 43.9275C16.6009 43.9563 16.5532 43.9893 16.4993 44.0207C16.4542 44.0469 16.4087 44.061 16.3694 44.0972C16.2814 44.1778 16.1851 44.2579 16.1348 44.369C16.1102 44.424 16.106 44.4601 16.0971 44.5182C16.0924 44.547 16.0892 44.5496 16.074 44.5716C16.0557 44.5978 16.0389 44.6334 16.0128 44.6528L16.0107 44.6701C15.9787 44.6963 15.9405 44.7188 15.9138 44.7507C15.8923 44.7764 15.8787 44.8057 15.8541 44.8288C15.8106 44.8696 15.7467 44.8969 15.7116 44.9445C15.6498 45.0273 15.6273 45.1676 15.6409 45.2671C15.6472 45.3121 15.6603 45.3577 15.6744 45.4012C15.6985 45.4734 15.7074 45.5489 15.7326 45.6211C15.7546 45.6845 15.7844 45.7468 15.8179 45.8044C15.8394 45.8406 15.8452 45.8563 15.8808 45.8788C15.918 45.9029 15.9599 45.9275 15.9808 45.9683C15.9153 46.0259 15.7902 45.9888 15.7158 45.9814C15.6566 45.9757 15.6132 45.9642 15.5587 45.9385C15.5152 45.9181 15.4943 45.8866 15.465 45.85C15.3319 45.6861 15.2979 45.4625 15.1382 45.3174C15.0984 45.2813 15.0664 45.2336 15.0245 45.1996C14.9931 45.1744 14.9565 45.1603 14.9208 45.1435C14.8627 45.1158 14.78 45.087 14.7538 45.1697C14.7307 45.242 14.7616 45.332 14.8093 45.3865C14.8795 45.4661 14.9208 45.5525 14.9764 45.641C15.0036 45.6845 15.0104 45.6976 15.0041 45.7489C15.0004 45.7772 15.0062 45.8285 14.991 45.8526C14.9627 45.8966 14.8292 45.8788 14.7857 45.8647C14.7203 45.8437 14.6621 45.8076 14.5956 45.7913C14.5532 45.7809 14.5139 45.7631 14.4741 45.7452C14.4406 45.7301 14.428 45.7133 14.4013 45.6876C14.3359 45.6248 14.3024 45.562 14.2788 45.4734C14.2626 45.4137 14.2652 45.3467 14.2699 45.286C14.2762 45.2027 14.2589 45.1184 14.2615 45.0351C14.2641 44.9607 14.2505 44.8728 14.2332 44.8C14.194 44.6366 14.0222 44.5931 13.9101 44.4952C13.864 44.4549 13.8604 44.4172 13.8415 44.3658C13.8284 44.3313 13.8132 44.3019 13.8038 44.2642C13.7949 44.227 13.775 44.1972 13.7656 44.1626C13.7577 44.1344 13.7703 44.0919 13.7734 44.0626L13.7582 44.0438C13.765 43.9799 13.7776 43.9207 13.763 43.8589C13.7588 43.8406 13.765 43.8332 13.754 43.818C13.7457 43.8065 13.73 43.8039 13.7195 43.7955C13.6891 43.7704 13.6828 43.7615 13.6467 43.7484C13.5922 43.7285 13.5425 43.7233 13.4843 43.7175C13.433 43.7123 13.3403 43.6845 13.3356 43.6148C13.3325 43.5656 13.3807 43.4834 13.4047 43.4425C13.4414 43.3808 13.4833 43.3462 13.5425 43.3048C13.5891 43.2723 13.6462 43.253 13.6912 43.2179C13.7205 43.1948 13.7436 43.1687 13.775 43.1467C13.8017 43.1278 13.8316 43.1116 13.8572 43.0911C13.9049 43.0534 13.9426 42.9932 13.962 42.9361C13.9782 42.8874 14.0028 42.8303 13.996 42.7785C13.9892 42.7261 13.9876 42.6743 13.9777 42.6209C13.9667 42.5606 13.9541 42.5119 13.9263 42.4564C13.9017 42.4082 13.8515 42.3643 13.8174 42.3328C13.7771 42.2962 13.7352 42.2454 13.7012 42.2035C13.6195 42.1029 13.5676 41.983 13.5283 41.861C13.5158 41.8222 13.5079 41.7976 13.4822 41.7641C13.465 41.7416 13.4477 41.7206 13.4367 41.6939C13.4236 41.663 13.4236 41.6342 13.4042 41.6065C13.3869 41.5819 13.3655 41.5651 13.3539 41.5368C13.3319 41.4829 13.3016 41.4347 13.2848 41.3766C13.2681 41.3195 13.2738 41.2771 13.2801 41.2184L13.3183 41.1875C13.3408 41.1446 13.3854 41.1137 13.4006 41.0655C13.4105 41.0341 13.4173 40.9775 13.4131 40.944C13.4026 40.8534 13.3026 40.7916 13.2686 40.7099C13.2544 40.6753 13.2455 40.6387 13.2372 40.6025C13.2267 40.5596 13.2356 40.5292 13.2377 40.4842C13.2403 40.4245 13.2356 40.3124 13.1874 40.2695C13.0759 40.171 12.902 40.2454 12.7863 40.171C12.7554 40.1511 12.7166 40.1317 12.6883 40.1087C12.6621 40.0877 12.6459 40.0626 12.6176 40.0438C12.559 40.004 12.4914 39.9851 12.4265 39.9532C12.3448 39.9128 12.3118 39.8662 12.2835 39.7814C12.2589 39.7081 12.284 39.6185 12.2924 39.541C12.2992 39.4797 12.3055 39.4279 12.2929 39.3666C12.2908 39.3561 12.2997 39.3446 12.2955 39.3331C12.2882 39.3132 12.2589 39.2964 12.2437 39.2828C12.2102 39.254 12.1924 39.2514 12.1489 39.2472C12.0918 39.242 12.0128 39.2446 11.9593 39.2231C11.8881 39.1943 11.841 39.1477 11.8007 39.0833C11.7729 39.0398 11.741 38.9995 11.7137 38.9555C11.6964 38.9278 11.6844 38.8859 11.6645 38.8623C11.6451 38.8387 11.6016 38.8183 11.5765 38.8015C11.5446 38.7801 11.521 38.7617 11.4833 38.756C11.3602 38.7382 11.2241 38.7026 11.1162 38.635C10.9727 38.5444 10.859 38.4266 10.7517 38.2941L10.7019 38.271C10.6401 38.2689 10.5548 38.348 10.5071 38.381C10.4427 38.4255 10.3799 38.4679 10.3181 38.5177C10.2065 38.6072 10.117 38.6612 9.97033 38.646C9.85564 38.6345 9.76609 38.5355 9.69696 38.4507C9.65559 38.3999 9.63412 38.3627 9.63464 38.2946C9.63464 38.2506 9.65769 38.1988 9.67968 38.1616C9.71058 38.1087 9.75666 38.0726 9.80327 38.0348C9.82527 38.017 9.84622 37.9945 9.8724 37.9825C9.90487 37.9678 9.91116 37.9757 9.91901 37.939C9.92896 37.8919 9.92006 37.8118 9.89335 37.773C9.86193 37.7274 9.81218 37.7075 9.76766 37.6777C9.71163 37.6405 9.67287 37.5813 9.61945 37.5436C9.56656 37.5059 9.52938 37.4577 9.47963 37.4143C9.42831 37.3698 9.36599 37.3284 9.30786 37.2912C9.26125 37.2613 9.21464 37.2257 9.16855 37.198C9.07429 37.1414 8.97688 37.0896 8.88366 37.033C8.78939 36.9759 8.69565 36.9021 8.58411 36.8911C8.54483 36.7963 8.47884 36.7141 8.42071 36.6329C8.37201 36.5654 8.28141 36.5282 8.2128 36.4842C8.18138 36.4638 8.15467 36.4381 8.12063 36.4213C8.07612 36.3993 8.04889 36.3931 8.0138 36.3585C7.95724 36.303 7.90906 36.2412 7.85355 36.1846C7.79803 36.1281 7.74619 36.0532 7.71791 35.9809C7.69434 35.9196 7.67235 35.861 7.65454 35.796C7.64354 35.7562 7.64878 35.7201 7.64197 35.6808C7.63569 35.6457 7.62364 35.6196 7.62521 35.5818C7.62783 35.5237 7.61998 35.4734 7.62626 35.4132C7.65192 35.1723 7.64407 34.8984 7.77813 34.6921C7.79961 34.6586 7.82422 34.6266 7.84203 34.591C7.85617 34.5627 7.85931 34.5313 7.8724 34.503C7.90016 34.4439 7.94834 34.4014 7.99337 34.3569C8.04731 34.3035 8.09811 34.2312 8.1442 34.17C8.16462 34.1427 8.19762 34.1186 8.21542 34.0904C8.22328 34.0778 8.22328 34.0542 8.23166 34.0427C8.24108 34.0296 8.25627 34.0249 8.26674 34.0134C8.29031 33.9877 8.30602 33.9516 8.32802 33.9238C8.35001 33.8955 8.35996 33.872 8.3741 33.8406C8.39662 33.7913 8.41757 33.7452 8.4228 33.6903C8.42857 33.6321 8.42909 33.5651 8.44637 33.5096C8.45475 33.4823 8.46208 33.4514 8.47256 33.4247C8.48355 33.3959 8.5066 33.3739 8.51288 33.342L8.51498 33.3247C8.53278 33.2451 8.59301 33.176 8.63071 33.1063C8.64957 33.0712 8.66371 33.0299 8.68884 32.9984C8.70298 32.9812 8.72341 32.9707 8.73859 32.955C8.75483 32.9382 8.76111 32.9178 8.77421 32.8989C8.79515 32.8691 8.8161 32.8361 8.84019 32.8083C8.87319 32.7712 8.90618 32.7424 8.91561 32.6916C8.9287 32.6245 8.93812 32.5428 8.92503 32.4768C8.9067 32.3857 8.89885 32.303 8.86585 32.2155C8.84124 32.1511 8.80825 32.0809 8.79987 32.0118C8.79306 31.9563 8.80929 31.8913 8.81558 31.8353C8.82343 31.7651 8.82501 31.6976 8.87109 31.64C8.92032 31.5792 8.98264 31.5227 9.04967 31.4813C9.10466 31.4473 9.17536 31.375 9.18793 31.308C9.20835 31.2006 9.20992 31.0854 9.22249 30.977C9.24135 30.8115 9.21464 30.6188 9.04339 30.547C9.00725 30.5318 8.97897 30.5062 8.94389 30.4878C8.9088 30.4695 8.86899 30.4622 8.83443 30.4444C8.76687 30.4098 8.72498 30.3674 8.67261 30.315C8.61605 30.2585 8.58253 30.1836 8.52021 30.1323C8.46627 30.0883 8.39034 30.0725 8.32016 30.0752C8.2835 30.0762 8.25679 30.0846 8.21961 30.082C8.19238 30.0799 8.16724 30.0877 8.14053 30.0935C8.10021 30.1024 8.05884 30.1082 8.01851 30.1176C7.98657 30.1249 7.95043 30.1432 7.91691 30.137L7.86716 30.1139C7.84569 30.0856 7.79803 30.0616 7.7708 30.038C7.74043 30.0118 7.70639 29.9846 7.67078 29.9657C7.60374 29.9301 7.53147 29.9207 7.45763 29.9123C7.33299 29.8987 7.18269 29.862 7.06119 29.9055C7.03396 29.9154 7.00934 29.9343 6.98316 29.9479C6.93969 29.971 6.88942 29.9835 6.85119 30.0155C6.81715 30.0437 6.79934 30.0856 6.76792 30.1171C6.74016 30.1448 6.7145 30.1652 6.69303 30.1998C6.67418 30.2297 6.64538 30.2627 6.62966 30.2935C6.61605 30.3203 6.61552 30.3522 6.59667 30.3779C6.56263 30.4234 6.49246 30.4444 6.44166 30.4648C6.38248 30.4889 6.33692 30.4884 6.27565 30.4816C6.22013 30.4753 6.15467 30.4768 6.1023 30.459C6.03684 30.4365 5.97766 30.415 5.93996 30.3543C5.92163 30.3244 5.89806 30.293 5.88392 30.2616C5.86716 30.2249 5.86402 30.1899 5.83941 30.1548C5.80694 30.1087 5.76766 30.0657 5.73152 30.0218C5.69172 29.973 5.67444 29.9202 5.66554 29.8573C5.65768 29.8039 5.65768 29.75 5.6404 29.6971C5.62417 29.6473 5.59222 29.5887 5.59222 29.5358L5.59432 29.5185C5.60008 29.4541 5.60007 29.3938 5.59327 29.3305C5.58855 29.2828 5.57075 29.2482 5.57651 29.199C5.5917 29.0744 5.60322 28.9492 5.61683 28.8241C5.62417 28.7581 5.63359 28.6999 5.61526 28.6345C5.6006 28.5821 5.56918 28.5376 5.55242 28.4852C5.53618 28.4334 5.53461 28.3752 5.52676 28.3213C5.51785 28.259 5.51786 28.1956 5.51419 28.1317C5.51 28.0553 5.49638 27.9778 5.49272 27.9023C5.49167 27.8793 5.49743 27.8563 5.49324 27.8332C5.48853 27.8044 5.47282 27.7735 5.46706 27.7431C5.44454 27.6279 5.36703 27.5122 5.31152 27.4132C5.278 27.3535 5.23349 27.298 5.19316 27.243C5.15074 27.1854 5.11827 27.1362 5.05543 27.1006C5.01301 27.0765 4.96326 27.0524 4.9245 27.0225C4.89518 27 4.87109 26.9775 4.84019 26.9565C4.81453 26.9393 4.79149 26.9042 4.75902 26.8995L4.7454 26.8633C4.6768 26.7764 4.61343 26.6717 4.52911 26.5994C4.48984 26.5653 4.46156 26.5172 4.41861 26.4863C4.38981 26.4653 4.37986 26.4622 4.35577 26.4381C4.33796 26.4203 4.3233 26.4093 4.29974 26.3983C4.23061 26.3669 4.15624 26.3705 4.08659 26.3433C3.98813 26.3045 3.89387 26.2427 3.80798 26.1783C3.76609 26.1469 3.73414 26.0935 3.69905 26.0537C3.66397 26.0134 3.62731 25.9751 3.5896 25.9369C3.51628 25.8625 3.46548 25.8023 3.41783 25.7091C3.33246 25.542 3.28114 25.3572 3.16174 25.2105C3.0968 25.1938 3.02663 25.166 2.96431 25.1419C2.8957 25.1152 2.81976 25.1137 2.75744 25.0754C2.64642 25.0068 2.65428 24.8885 2.59876 24.7843C2.55635 24.7046 2.47517 24.6586 2.40814 24.6025C2.35263 24.5559 2.32592 24.4836 2.2746 24.4334C2.24317 24.403 2.20337 24.3847 2.17247 24.3538C2.14524 24.3265 2.12534 24.3108 2.0934 24.2894C2.02846 24.2454 1.98342 24.1757 1.91848 24.1349C1.83993 24.0856 1.8017 23.9908 1.73309 23.9285C1.68334 23.8835 1.63411 23.8348 1.58908 23.7845C1.56551 23.7583 1.5278 23.7348 1.50843 23.706C1.49638 23.6882 1.49114 23.6662 1.48224 23.6468C1.46548 23.6101 1.45396 23.5976 1.45606 23.5583C1.45867 23.5143 1.46601 23.4692 1.47072 23.4253C1.47753 23.3645 1.48538 23.3085 1.47648 23.2498C1.46705 23.1885 1.45344 23.132 1.43982 23.0712C1.43144 23.0341 1.41992 23.0005 1.40264 22.9649C1.38483 22.9283 1.36493 22.9152 1.33613 22.8843C1.28952 22.834 1.23925 22.7837 1.19683 22.7298L1.14865 22.6895C1.12927 22.6628 1.10413 22.6591 1.07899 22.6434C1.05438 22.6282 1.04076 22.6109 1.01929 22.5921C0.98787 22.5648 0.951212 22.5339 0.925551 22.5004C0.892558 22.4569 0.923455 22.4276 0.938119 22.3836C0.951211 22.3433 0.95802 22.3087 0.980539 22.2695C1.02139 22.1972 1.01825 22.1129 1.0282 22.0306C1.04129 21.9212 0.982109 21.8254 0.938119 21.728C0.899889 21.6436 0.831809 21.5845 0.770012 21.5143C0.701408 21.4363 0.630185 21.3786 0.585147 21.2812C0.562628 21.2325 0.562105 21.1671 0.551631 21.1147C0.542204 21.0691 0.527016 21.0251 0.51759 20.9801C0.508687 20.9366 0.497166 20.8974 0.485121 20.8549C0.473599 20.8151 0.48355 20.7748 0.488263 20.7334L0.490358 20.7162C0.485121 20.6601 0.485644 20.6156 0.490358 20.5591C0.4935 20.5224 0.485121 20.5025 0.481455 20.4679C0.478836 20.4397 0.490357 20.4077 0.492452 20.3794C0.494023 20.3527 0.488263 20.3354 0.486168 20.3103C0.482502 20.2757 0.4935 20.2438 0.489311 20.2092C0.483026 20.1553 0.477789 20.0998 0.476218 20.0443C0.472552 19.9395 0.45946 19.8364 0.456841 19.7316C0.454223 19.6274 0.481455 19.5122 0.492452 19.408C0.497689 19.3577 0.503974 19.3069 0.508687 19.2566C0.5134 19.2058 0.533301 19.1545 0.546393 19.1047C0.562628 19.0435 0.594573 18.9911 0.614474 18.933C0.629137 18.89 0.63228 18.8398 0.644848 18.7963C0.658465 18.7497 0.693029 18.7067 0.708739 18.6596C0.720261 18.6266 0.724451 18.5941 0.743828 18.5638C0.762681 18.5339 0.782057 18.514 0.797768 18.481C0.829714 18.414 0.873181 18.3789 0.934977 18.3396C0.983681 18.3087 1.04967 18.2736 1.08999 18.2344L1.10727 18.2365C1.19997 18.2459 1.29161 18.104 1.30523 18.0291C1.31152 17.995 1.31309 17.9579 1.31571 17.9228C1.31937 17.8809 1.30471 17.8453 1.289 17.806C1.27329 17.7672 1.26491 17.7468 1.26072 17.7039C1.25653 17.662 1.26072 17.6232 1.26543 17.5813C1.26857 17.5525 1.26648 17.5174 1.27433 17.4902C1.28009 17.4698 1.29319 17.4572 1.29947 17.4378C1.30418 17.4226 1.29842 17.4043 1.30261 17.3886C1.31361 17.3493 1.32775 17.3273 1.33194 17.2844C1.33665 17.2383 1.3466 17.1906 1.34817 17.1446C1.35027 17.0754 1.31518 17.0231 1.26124 16.9833C1.22353 16.9555 1.17326 16.9293 1.15598 16.8796C1.1476 16.856 1.15388 16.8366 1.1565 16.8115C1.16017 16.7806 1.15755 16.7434 1.16802 16.7146C1.17902 16.6837 1.20468 16.6476 1.22092 16.6182C1.25443 16.5591 1.31204 16.5062 1.36022 16.459C1.41154 16.4088 1.46601 16.3464 1.52833 16.3098C1.67339 16.2244 1.81741 16.1537 1.98185 16.1097C2.01798 16.1003 2.05098 16.1092 2.08659 16.105C2.12063 16.1013 2.14262 16.0972 2.17876 16.1013C2.21751 16.1061 2.25627 16.1097 2.2945 16.1139C2.32958 16.1176 2.38248 16.1333 2.41704 16.1286C2.48722 16.1181 2.5443 16.0265 2.60138 15.9893C2.66056 15.9505 2.72026 15.9034 2.76844 15.8515C2.86899 15.7426 2.97792 15.6358 3.05072 15.5069C3.08266 15.4499 3.10675 15.3875 3.11356 15.3231C3.11932 15.2681 3.1256 15.2132 3.13137 15.1576L3.15964 15.0728Z" fill="white" stroke="black" stroke-width="0.025" stroke-miterlimit="10"/>
</svg>
