<svg width="30" height="45" viewBox="0 0 30 45" fill="none" xmlns="http://www.w3.org/2000/svg">
<path d="M29.244 32.5862L28.5278 32.3475L28.8859 31.6313V31.5716L28.4682 30.7361L29.065 30.2586V30.1989L28.9456 0.238727C28.9456 0.179045 28.9456 0.179045 28.8859 0.179045L11.2202 0C11.2202 0 11.2202 0 11.1605 0L9.19098 1.25332L7.93767 1.13395L6.32626 0.417772H6.26658C6.26658 0.417772 6.26658 0.477454 6.2069 0.477454L5.5504 26.8568L4.65517 27.5729V27.6326L4.95358 28.7069L4.2374 29.7215V29.7812L5.31167 31.5716L5.13263 32.5265C5.13263 32.5265 5.13263 32.5265 5.13263 32.5862L5.49072 33.9589L4.11804 35.9881V36.0477L4.2374 36.7042L3.34218 37.122C3.34218 37.122 3.34217 37.122 3.28249 37.1817L2.44695 39.0318L1.73077 38.9125H1.67109L1.19363 39.6286V39.6883L1.61141 40.6432L0.835544 41.1207L0.775863 41.1804C0.775863 41.1804 0.775862 41.2401 0.835544 41.2401L1.19363 41.3594L0.656499 41.6578L0.596817 41.7175L0.656499 43.3289L0.0596819 43.3886C0.0596819 43.3886 0 43.3886 0 43.4483V43.508L0.537135 44.0451L0.119364 44.2241L0.0596819 44.2838C0.0596819 44.2838 0.0596822 44.3435 0.119364 44.3435L0.537135 44.5225H0.596817L1.313 44.8806H1.37268L1.85013 44.4032V44.3435L1.61141 43.4483L1.90981 43.2692L2.62599 43.866H2.68568L3.64058 43.5676L3.87931 44.4032C3.87931 44.4032 3.87931 44.4629 3.93899 44.4629H3.99867L4.53581 44.1048C4.53581 44.1048 4.53581 44.0451 4.59549 44.0451V43.0902L4.71485 43.4483C4.71485 43.508 4.77454 43.508 4.77454 43.508L6.08753 43.2692L8.53448 45C8.53448 45 8.53448 45 8.59416 45C8.59416 45 8.65385 45 8.65385 44.9403L9.48939 43.5676L11.1605 42.7918L11.817 43.8064C11.817 43.8064 11.8767 43.866 11.8767 43.8064L12.6525 43.7467L12.7719 44.3435C12.7719 44.3435 12.7719 44.4032 12.8316 44.4032C12.8316 44.4032 12.8912 44.4032 12.8912 44.3435L13.309 43.5676L13.9058 43.3886L13.9655 43.3289V42.2546L14.6817 41.8965L14.7414 41.8369L14.5623 41.2401H15.6366C15.6366 41.2401 15.6963 41.2401 15.6963 41.1804V41.1207L15.5172 40.6432L15.9947 41.061L16.1141 41.9562C16.1141 41.9562 16.1141 42.0159 16.1737 42.0159L18.1432 43.0902H18.2029L19.3369 42.2546C19.3369 42.2546 19.3369 42.2546 19.3369 42.195L19.5159 40.6432L20.1127 39.569L21.4257 39.3899C21.4257 39.3899 21.4854 39.3899 21.4854 39.3302L22.0822 37.6591L23.6936 36.6446L23.7533 36.5849L23.634 34.496L24.9469 34.317L25.7825 34.9138H25.8422L27.5133 33.8992L29.0053 33.8395C29.065 33.8395 29.065 33.8395 29.065 33.7798L29.3037 32.6459C29.3037 32.6459 29.3037 32.5862 29.244 32.5862Z" fill="white"/>
</svg>
