<svg width="31" height="45" viewBox="0 0 31 45" fill="none" xmlns="http://www.w3.org/2000/svg">
<path d="M30.0084 32.5862L29.2923 32.3475L29.6503 31.6313V31.5716L29.2326 30.7361L29.8294 30.2586V30.1989L29.71 0.238727C29.71 0.179045 29.71 0.179045 29.6503 0.179045L11.9846 0C11.9846 0 11.9846 0 11.9249 0L9.95539 1.25332L8.70207 1.13395L7.09066 0.417772H7.03098C7.03098 0.417772 7.03098 0.477454 6.9713 0.477454L6.3148 26.8568L5.41958 27.5729V27.6326L5.71799 28.7069L5.0018 29.7215V29.7812L6.07608 31.5716L5.89703 32.5265C5.89703 32.5265 5.89703 32.5265 5.89703 32.5862L6.25512 33.9589L4.88244 35.9881V36.0477L5.0018 36.7042L4.10658 37.122C4.10658 37.122 4.10658 37.122 4.0469 37.1817L3.21135 39.0318L2.49517 38.9125H2.43549L1.95804 39.6286V39.6883L2.37581 40.6432L1.59995 41.1207L1.54027 41.1804C1.54027 41.1804 1.54027 41.2401 1.59995 41.2401L1.95804 41.3594L1.4209 41.6578L1.36122 41.7175L1.4209 43.3289L0.824086 43.3886C0.824086 43.3886 0.764404 43.3886 0.764404 43.4483V43.508L1.30154 44.0451L0.883768 44.2241L0.824086 44.2838C0.824086 44.2838 0.824086 44.3435 0.883768 44.3435L1.30154 44.5225H1.36122L2.0774 44.8806H2.13708L2.61454 44.4032V44.3435L2.37581 43.4483L2.67422 43.2692L3.3904 43.866H3.45008L4.40499 43.5676L4.64371 44.4032C4.64371 44.4032 4.64371 44.4629 4.7034 44.4629H4.76308L5.30021 44.1048C5.30021 44.1048 5.30021 44.0451 5.35989 44.0451V43.0902L5.47926 43.4483C5.47926 43.508 5.53894 43.508 5.53894 43.508L6.85194 43.2692L9.29889 45C9.29889 45 9.29889 45 9.35857 45C9.35857 45 9.41825 45 9.41825 44.9403L10.2538 43.5676L11.9249 42.7918L12.5814 43.8064C12.5814 43.8064 12.6411 43.866 12.6411 43.8064L13.4169 43.7467L13.5363 44.3435C13.5363 44.3435 13.5363 44.4032 13.596 44.4032C13.596 44.4032 13.6557 44.4032 13.6557 44.3435L14.0734 43.5676L14.6702 43.3886L14.7299 43.3289V42.2546L15.4461 41.8965L15.5058 41.8369L15.3267 41.2401H16.401C16.401 41.2401 16.4607 41.2401 16.4607 41.1804V41.1207L16.2816 40.6432L16.7591 41.061L16.8785 41.9562C16.8785 41.9562 16.8785 42.0159 16.9381 42.0159L18.9076 43.0902H18.9673L20.1013 42.2546C20.1013 42.2546 20.1013 42.2546 20.1013 42.195L20.2803 40.6432L20.8771 39.569L22.1901 39.3899C22.1901 39.3899 22.2498 39.3899 22.2498 39.3302L22.8466 37.6591L24.458 36.6446L24.5177 36.5849L24.3984 34.496L25.7113 34.317L26.5469 34.9138H26.6066L28.2777 33.8992L29.7697 33.8395C29.8294 33.8395 29.8294 33.8395 29.8294 33.7798L30.0681 32.6459C30.0681 32.6459 30.0681 32.5862 30.0084 32.5862Z" fill="white"/>
</svg>
