<svg width="88" height="45" viewBox="0 0 88 45" fill="none" xmlns="http://www.w3.org/2000/svg">
<path d="M83.0369 10.6693C83.082 10.7529 83.1704 10.8153 83.1858 10.9153C83.1954 10.9777 83.1839 11.0536 83.1839 11.117C83.1839 11.1978 83.181 11.2823 83.2137 11.3582C83.2415 11.4216 83.3261 11.4245 83.3809 11.4601C83.4606 11.512 83.5115 11.5898 83.5529 11.6705C83.5894 11.7426 83.6441 11.7906 83.6999 11.8483C83.7662 11.9155 83.8142 11.9376 83.9113 11.9203C83.9948 11.9049 84.0592 11.8588 84.1486 11.8713C84.2456 11.8848 84.2274 11.9828 84.2898 12.0414C84.3321 12.0817 84.434 12.0827 84.4926 12.0664C84.5742 12.0433 84.6059 11.9482 84.6838 11.9213C84.7626 11.8934 84.8423 11.878 84.9048 11.9453C84.9663 12.0116 84.9807 12.1144 85.0518 12.1701C85.1229 12.2259 85.2122 12.2191 85.2978 12.2172C85.3717 12.2153 85.4342 12.247 85.4659 12.321C85.4803 12.3556 85.4832 12.4065 85.4947 12.444C85.5053 12.4786 85.5226 12.5247 85.5197 12.5612L87.3617 42.9778C55.4539 45.3232 24.604 45.0859 0.764404 44.8706L2.0577 1.20976C17.5811 1.57584 47.5634 1.91022 76.0073 0.0519389C76.0813 0.148024 76.2226 0.164358 76.3273 0.125924C76.4359 0.0855682 76.505 -0.0153204 76.6348 0.00197483C76.7818 0.0221526 76.8721 0.122079 76.9672 0.22489C76.9864 0.246028 77.0105 0.262363 77.0287 0.284462C77.0518 0.311366 77.0537 0.338271 77.07 0.366135C77.1085 0.430512 77.1661 0.489124 77.2122 0.549657C77.3035 0.670724 77.4217 0.75816 77.5312 0.861931C77.636 0.960898 77.7292 1.11752 77.8695 1.16556C77.9367 1.18862 78.0001 1.17228 78.0674 1.18862C78.0924 1.19438 78.1106 1.20591 78.1366 1.2088C78.1644 1.21168 78.1952 1.20015 78.2211 1.21168C78.323 1.25588 78.3777 1.45477 78.3922 1.55182V1.5768C78.4431 1.64022 78.5584 1.69114 78.6391 1.70075C78.7169 1.71036 78.789 1.68153 78.8572 1.72285C79.0273 1.82566 79.0474 2.04666 79.2214 2.1437C79.2896 2.18214 79.3703 2.1658 79.4472 2.16676C79.5375 2.16772 79.6144 2.15427 79.6989 2.12448C79.7681 2.10046 79.8661 2.06683 79.9401 2.09662C80.0169 2.12833 80.0362 2.22537 80.1236 2.24171C80.2197 2.259 80.2783 2.21769 80.3331 2.14851C80.3657 2.10719 80.3782 2.0947 80.3821 2.04473C80.3859 2.0015 80.3677 1.95345 80.4042 1.9179C80.4685 1.85449 80.5637 1.91982 80.6328 1.92367C80.7126 1.92943 80.7952 1.79972 80.8615 1.76224C80.9259 1.72573 80.997 1.72381 81.07 1.72381C81.1748 1.72381 81.2334 1.72381 81.316 1.7978C81.4534 1.91886 81.4621 2.06587 81.4621 2.23979C81.4669 2.3474 81.5879 2.33395 81.659 2.33779C81.7455 2.3426 81.8358 2.41466 81.8752 2.49153C81.9165 2.57224 81.9175 2.65295 81.9348 2.73751C81.9511 2.81822 81.9703 2.91334 81.9492 2.99693C81.9194 3.10935 81.8281 3.08437 81.758 3.14971C81.6821 3.21889 81.5764 3.27173 81.5601 3.38319C81.5456 3.48312 81.6119 3.58689 81.7148 3.56287C81.8118 3.54077 81.9108 3.48985 82.0145 3.51963C82.0443 3.52828 82.101 3.57536 82.1145 3.60515C82.1347 3.64935 82.102 3.67433 82.0655 3.70412C82.0309 3.73294 81.9915 3.74159 81.98 3.78771C81.9684 3.83479 81.9809 3.89436 81.979 3.94337C81.9771 4.01447 81.9751 4.02792 81.905 4.0481C81.8647 4.05963 81.8329 4.05963 81.7926 4.05963C81.7071 4.05867 81.6216 4.06059 81.536 4.05963C81.3737 4.05867 81.1402 4.1461 81.1181 4.32867C81.1056 4.43148 81.1171 4.54582 81.1181 4.64959C81.119 4.74279 81.0835 4.81485 81.0441 4.8946C81.0201 4.94361 81.0153 4.97243 80.9595 4.99357C80.9355 5.00222 80.9096 5.0051 80.8865 5.01663C80.8606 5.03008 80.8481 5.05122 80.825 5.0666C80.801 5.08293 80.7722 5.08581 80.7491 5.10023C80.7049 5.12905 80.6809 5.17613 80.6453 5.21361C80.5925 5.2703 80.5368 5.32122 80.4897 5.3856C80.4099 5.49513 80.3686 5.63926 80.3542 5.77282C80.3484 5.82374 80.3571 5.87851 80.3561 5.9304C80.3552 5.99093 80.3206 6.06492 80.3311 6.12257L80.3062 6.14755C80.2927 6.27438 80.1284 6.35605 80.0342 6.41947C79.9314 6.48865 79.8699 6.56456 79.8142 6.67602C79.7671 6.77018 79.7393 6.87395 79.7825 6.97772C79.8075 7.03729 79.8613 7.08726 79.9007 7.1401C79.9478 7.20352 79.99 7.23427 80.0544 7.27751C80.1063 7.3121 80.1582 7.33804 80.2072 7.37551C80.2399 7.40049 80.2793 7.41875 80.3023 7.45334C80.3225 7.48505 80.3254 7.53789 80.3427 7.57344C80.3763 7.64263 80.3984 7.67529 80.4099 7.74832C80.4215 7.8223 80.4551 7.89437 80.4733 7.96739C80.5108 8.11344 80.6107 8.1759 80.7443 8.23067C80.7943 8.25084 80.851 8.26333 80.8971 8.2912C80.9509 8.32291 80.9932 8.37287 81.0441 8.40842C81.1017 8.46607 81.1632 8.52852 81.1988 8.60347C81.2305 8.66881 81.2017 8.73703 81.2334 8.80141C81.2488 8.83215 81.2737 8.85233 81.2901 8.88116C81.3343 8.95514 81.3035 8.93112 81.3813 8.94746C81.4678 8.96571 81.4947 9.05219 81.5351 9.12137C81.5716 9.18478 81.6216 9.23571 81.6975 9.24532C81.7695 9.25397 81.8204 9.21361 81.8848 9.19439C81.9636 9.17133 82.0309 9.14347 82.0991 9.09735C82.1702 9.0493 82.2307 8.98877 82.3211 9.03105C82.4431 9.0887 82.4075 9.32411 82.3701 9.42499C82.3134 9.57777 82.3211 9.73631 82.3211 9.90062C82.3211 9.94001 82.3095 9.99286 82.3249 10.0303C82.3345 10.0543 82.3624 10.0793 82.3758 10.1014C82.4219 10.1764 82.4508 10.2629 82.5161 10.3253C82.5901 10.3964 82.6814 10.4598 82.764 10.5213C82.8313 10.5722 82.9177 10.5934 82.985 10.6433L83.0369 10.6693Z" fill="white"/>
</svg>
