<svg width="100" height="46" viewBox="0 0 100 46" fill="none" xmlns="http://www.w3.org/2000/svg">
<path d="M99.98 25.631C99.98 25.729 99.98 25.826 99.98 25.924C99.371 26.505 98.769 27.091 98.152 27.664C97.779 28.012 97.355 28.31 97.006 28.682C96.436 29.289 95.924 29.954 95.352 30.56C95.155 30.767 94.85 30.874 94.59 31.017C93.776 31.464 92.945 31.888 92.145 32.358C91.608 32.672 91.108 33.049 90.477 33.476C90.495 33.37 90.459 33.445 90.473 33.508C90.715 34.529 90.317 35.152 89.334 35.494C89.102 35.575 88.826 35.892 88.795 36.131C88.584 37.671 88.607 37.689 87.074 38.055C86.422 38.21 85.754 38.288 85.564 39.093C85.517 39.29 85.494 39.5 85.408 39.679C85.332 39.835 85.209 40.029 85.062 40.081C84.414 40.313 83.759 40.545 83.087 40.693C82.304 40.865 81.821 41.7 80.892 41.572C79.947 41.441 79.175 42.036 78.531 42.573C78.105 42.927 77.738 43.151 77.23 43.16C73.757 43.218 70.283 43.31 66.808 43.294C64.39 43.283 61.974 43.05 59.556 43.039C57.675 43.031 55.792 43.282 53.911 43.294C51.239 43.311 48.569 43.213 45.899 43.164C45.802 43.162 45.705 43.158 45.607 43.152C44.017 43.059 42.429 42.949 40.838 42.887C40.531 42.875 40.105 43.234 39.926 43.119C39.475 42.832 39.08 42.981 38.635 43.002C36.892 43.086 35.146 43.13 33.402 43.159C31.965 43.182 30.527 43.164 29.09 43.164C27.03 43.164 24.971 43.164 22.854 43.164C22.804 43.089 22.703 42.773 22.562 42.756C21.745 42.652 20.918 42.616 20.271 42.57C20.333 43.607 20.389 44.56 20.445 45.513C17.764 45.513 15.084 45.513 12.404 45.513C12.332 45.462 12.26 45.369 12.188 45.368C9.25 45.31 6.313 45.253 3.375 45.22C2.942 45.215 2.508 45.325 2 45.392C2.243 44.592 2.428 43.93 2.655 43.285C2.695 43.171 2.906 43.077 3.052 43.048C3.545 42.95 3.61 43.351 3.782 43.671C3.89 43.871 4.13 44.108 4.325 44.121C4.508 44.135 4.776 43.916 4.89 43.728C5.119 43.351 5.269 42.925 5.475 42.466C5.422 42.335 5.345 42.109 5.243 41.894C4.91 41.189 4.998 41.046 5.785 40.982C5.899 40.972 6.005 40.868 6.115 40.807C6.011 40.715 5.92 40.59 5.799 40.536C5.254 40.295 5.039 39.807 5.425 39.61C6.385 39.12 6.148 38.173 6.456 37.426C5.418 37.123 5.02 36.512 5.696 35.531C6.113 34.926 6.623 34.384 7.082 33.806C7.693 33.036 8.42 32.841 9.272 33.287C9.91 33.62 10.493 34.066 11.147 34.36C12.036 34.759 13.026 34.92 13.676 35.801C13.793 35.96 14.608 35.867 14.84 35.633C15.492 34.972 15.355 34.171 14.716 33.381C14.274 32.835 13.918 32.229 14.443 31.496C14.569 31.319 14.57 31.045 14.605 30.811C14.703 30.158 15.343 29.827 15.955 30.093C16.074 30.146 16.324 30.118 16.393 30.032C17.156 29.083 18.277 29.303 19.268 29.169C19.769 29.102 20.089 29.01 20.046 28.518C19.667 27.967 19.331 27.405 19.088 26.804C18.73 25.919 18.877 25.499 19.694 24.976C20.086 24.724 20.379 24.458 20.464 23.969C20.547 23.484 20.871 23.495 21.218 23.72C21.355 23.809 21.471 23.93 21.584 24.025C22.145 23.553 22.442 23.1 21.835 22.453C21.757 22.369 22.035 21.79 22.275 21.612C22.551 21.408 22.817 21.551 22.949 21.973C23.083 22.403 23.451 22.445 23.885 22.265C25.263 21.695 25.285 21.718 25.282 23.034C25.282 23.052 25.31 23.069 25.418 23.199C25.633 23.108 25.943 23.054 26.127 22.872C26.245 22.756 26.278 22.344 26.176 22.246C25.506 21.608 26.046 21.164 26.371 20.539C26.517 20.819 26.609 20.994 26.7 21.17C27.019 21.785 27.343 21.912 27.867 21.529C28.342 21.183 28.68 21.267 29.223 21.488C30.177 21.876 30.722 23.017 31.922 22.911C31.993 22.905 32.083 23.125 32.166 23.238C32.324 23.452 32.483 23.665 32.642 23.878C32.844 23.634 33.073 23.407 33.238 23.14C33.345 22.965 33.422 22.728 33.405 22.528C33.33 21.641 34.032 21.62 34.583 21.388C34.918 21.247 35.209 21.002 35.521 20.804C35.814 20.618 36.092 20.366 36.412 20.284C36.523 20.256 36.758 20.644 36.907 20.863C36.999 20.997 37.046 21.166 37.095 21.325C37.26 21.862 37.553 21.976 38.067 21.752C38.242 21.676 38.47 21.717 38.705 21.702C38.663 22.137 38.629 22.482 38.595 22.828C38.675 22.849 38.755 22.871 38.835 22.892C38.946 22.656 39.152 22.416 39.147 22.182C39.137 21.641 39.38 21.498 39.859 21.537C40.01 21.55 40.168 21.492 40.263 21.476C40.231 20.796 40.203 20.178 40.175 19.574C40.618 19.462 40.982 19.369 41.334 19.279C41.405 18.45 41.736 18.119 42.547 17.846C42.715 17.717 42.883 17.588 43.051 17.459C43.208 17.743 43.499 18.029 43.495 18.312C43.485 19.01 44.211 20.023 44.864 19.908C45.6 19.778 46.069 19.989 46.301 20.489C46.614 20.34 46.869 20.152 47.151 20.096C47.627 20.002 47.837 19.812 47.993 19.298C48.306 18.27 47.727 16.961 48.924 16.205C48.953 16.186 48.949 16.115 48.959 16.068C49.161 15.143 49.464 15.019 50.274 15.531C51.259 14.88 51.513 14.532 51.595 13.713C51.691 12.762 51.943 12.645 52.818 12.288C53.412 12.047 53.857 11.436 54.357 10.977C54.408 10.931 54.388 10.785 54.367 10.693C54.211 10.025 54.084 9.346 53.869 8.697C53.695 8.165 53.863 7.809 54.342 7.69C54.873 7.557 55.44 7.512 55.987 7.531C56.229 7.539 56.516 7.752 56.692 7.951C57.04 8.345 57.663 8.492 58.001 8.151C59.091 7.047 60.364 6.41201 61.972 6.53901C61.954 6.15501 61.618 5.8 62.208 5.444C62.505 5.264 62.124 4.845 61.653 4.84C61.473 4.839 61.294 4.682 61.114 4.596C61.218 4.456 61.362 4.331 61.413 4.175C61.497 3.91 61.638 3.58 61.548 3.362C61.366 2.914 61.046 2.522 60.808 2.144C61.413 1.615 61.984 1.121 62.548 0.621004C62.571 0.600004 62.55 0.528004 62.552 0.479004C62.697 0.479004 62.843 0.479004 62.99 0.479004C63.164 0.681004 63.299 0.957004 63.517 1.07C64.05 1.346 64.517 2.065 65.281 1.316C65.402 1.197 65.892 1.109 66.195 0.911003C66.306 0.837003 66.748 0.998004 66.752 1.062C66.783 1.981 67.488 2.127 68.143 2.356C68.248 2.393 68.338 2.539 68.391 2.654C68.565 3.027 68.62 3.529 68.901 3.762C69.456 4.223 69.567 4.766 69.573 5.413C69.575 5.609 69.68 5.94801 69.798 5.97701C70.583 6.165 71.448 6.542 72.159 6.361C72.889 6.173 73.509 6.301 74.057 6.533C74.604 6.763 75.186 7.263 75.424 7.793C75.807 8.637 76.522 8.42001 77.1 8.72001C77.237 7.83701 78.518 6.988 78.971 7.439C79.428 7.894 79.94 7.834 80.45 7.973C80.805 8.07 81.096 8.409 81.405 8.654C81.52 8.747 81.604 8.88101 81.581 8.85101C82.024 8.70901 82.352 8.49401 82.649 8.53201C83.258 8.61101 83.639 8.557 83.94 7.903C84.165 7.411 84.692 7.056 85.088 6.645C85.113 6.619 85.186 6.64601 85.231 6.62901C85.635 6.48201 86.057 6.361 86.44 6.169C86.768 6.005 87.002 5.98101 87.092 6.38601C87.211 6.91801 87.321 7.455 87.389 7.995C87.508 8.921 87.797 9.171 88.705 9.281C89.051 9.323 89.398 9.55101 89.687 9.76801C89.974 9.98501 90.197 10.289 90.435 10.566C90.601 10.758 90.837 10.95 90.886 11.175C90.995 11.692 90.829 12.353 91.093 12.732C91.827 13.778 90.739 14.693 91.031 15.667C91.041 15.698 90.998 15.778 90.967 15.786C90.108 15.993 90.86 16.28 90.955 16.486C91.049 16.685 91.23 16.876 91.422 16.99C92.1 17.394 92.012 18.473 92.922 18.678C92.975 18.69 93.024 18.965 92.983 19.088C92.833 19.551 92.86 19.877 93.385 20.104C93.615 20.203 93.932 20.562 93.895 20.738C93.778 21.312 94.206 21.457 94.499 21.717C94.747 21.938 95.017 22.138 95.28 22.352C94.985 22.988 95.344 23.455 95.755 23.794C96.101 24.078 96.593 24.187 97.206 24.455C97.689 25.622 98.576 26.062 99.98 25.631Z" fill="white"/>
<path fill-rule="evenodd" clip-rule="evenodd" d="M0.0190125 44.275C0.237012 44.109 0.462012 43.799 0.672012 43.809C1.09301 43.828 1.58301 44.019 1.54601 44.55C1.52301 44.892 1.51601 45.404 0.876012 45.366C0.242012 45.33 0.191012 44.899 0.0190125 44.275Z" fill="white"/>
</svg>
