<svg width="77" height="45" viewBox="0 0 77 45" fill="none" xmlns="http://www.w3.org/2000/svg">
<path d="M76.201 34.3027C76.2179 34.2343 76.2238 34.1659 76.2382 34.0984C76.2491 34.0444 76.2787 33.9878 76.2821 33.9321C76.2829 33.9085 76.277 33.8924 76.2821 33.868C76.288 33.8401 76.2972 33.8131 76.3048 33.7852C76.3184 33.7354 76.3319 33.6848 76.3454 33.635C76.358 33.5869 76.3656 33.5261 76.3901 33.4831C76.4146 33.4408 76.4332 33.4037 76.4315 33.3505C76.4306 33.3244 76.4222 33.299 76.4205 33.2729C76.418 33.2433 76.4272 33.2121 76.4146 33.1834C76.4028 33.1555 76.3749 33.1319 76.3614 33.1024C76.3479 33.0728 76.3344 33.0391 76.3141 33.0129C76.3015 32.996 76.2846 32.985 76.2719 32.9682C76.2567 32.947 76.2559 32.9108 76.239 32.893C76.196 32.8458 76.1343 32.8736 76.0913 32.9006C76.0609 32.9192 75.9951 32.9741 76.0162 33.0146C76.0263 33.034 76.0609 33.0357 76.0769 33.0509C76.098 33.0711 76.1082 33.1041 76.1115 33.1328C76.1158 33.1817 76.093 33.2459 76.0778 33.2923C76.0592 33.3488 76.006 33.3894 75.9832 33.4459C75.9596 33.5033 75.9461 33.5666 75.9731 33.6266C75.9959 33.6764 76.0677 33.7202 76.0575 33.7734C76.0508 33.8114 76.0373 33.8789 76.0162 33.911C76.001 33.9355 75.9714 33.9541 75.9512 33.9752C75.925 34.003 75.8971 34.0326 75.8735 34.063C75.8473 34.0959 75.817 34.133 75.8034 34.1727C75.7849 34.2292 75.8195 34.301 75.8507 34.3491C75.8777 34.3905 75.8862 34.3947 75.8921 34.4479C75.8946 34.4715 75.9081 34.496 75.9081 34.5179C75.9081 34.5728 75.8752 34.6429 75.8608 34.696C75.8448 34.756 75.8279 34.8167 75.8127 34.8767C75.7942 34.9467 75.7612 34.994 75.7283 35.0573C75.6979 35.1172 75.6616 35.1746 75.6431 35.2396C75.622 35.3114 75.6599 35.3578 75.6625 35.427C75.665 35.4895 75.6228 35.5536 75.6161 35.6153C75.6085 35.6845 75.6194 35.7596 75.6296 35.8271C75.6363 35.8719 75.6464 35.9723 75.6996 35.9808C75.7798 35.9926 75.8043 35.9082 75.8203 35.8525L75.8246 35.8356C75.8372 35.7891 75.844 35.7368 75.8642 35.6929C75.887 35.644 75.9047 35.6034 75.9191 35.5503C75.9453 35.4515 75.9613 35.3359 76.0035 35.2439C76.0246 35.1983 76.0423 35.1459 76.0702 35.1046C76.1006 35.059 76.1411 35.0126 76.1656 34.9653C76.2137 34.8716 76.1985 34.7686 76.1791 34.6707C76.1689 34.6175 76.1774 34.5627 76.1774 34.5078C76.1774 34.4681 76.1892 34.4327 76.1934 34.3938C76.1968 34.3618 76.1934 34.3348 76.201 34.3027Z" fill="white"/>
<path d="M59.303 39.466C59.3258 39.3934 59.33 39.2964 59.3705 39.2305C59.4499 39.098 59.5849 38.979 59.7293 38.9267C59.7782 38.9089 59.8289 38.9081 59.877 38.887C59.9091 38.8726 59.9403 38.8557 59.9749 38.8465C60.0745 38.8203 60.1876 38.8254 60.283 38.7789C60.3548 38.7435 60.4324 38.7139 60.5 38.67C60.5692 38.6236 60.6021 38.535 60.6401 38.4641C60.6857 38.3771 60.5987 38.3527 60.5405 38.302C60.467 38.2379 60.4079 38.1813 60.31 38.1526C60.2754 38.1425 60.256 38.1391 60.2189 38.1475C60.1809 38.156 60.1277 38.1585 60.0922 38.172C60.0517 38.1872 60.0171 38.2311 59.9774 38.2522C59.9251 38.2809 59.9099 38.3155 59.8677 38.3518C59.8449 38.3721 59.8137 38.3746 59.7892 38.3932C59.769 38.4092 59.7504 38.4362 59.7344 38.4548C59.6981 38.4953 59.6542 38.5232 59.6111 38.5561C59.5757 38.5831 59.5512 38.6177 59.5149 38.6456C59.4718 38.6785 59.4288 38.7114 59.3883 38.7477C59.3131 38.8144 59.2228 38.86 59.1359 38.9081C59.0582 38.952 58.9806 39.0153 58.9139 39.0735C58.8708 39.1115 58.8514 39.1655 58.8101 39.2035C58.7771 39.2339 58.7375 39.2702 58.7147 39.3082C58.6775 39.3698 58.6294 39.4635 58.6421 39.5361C58.6505 39.5783 58.6514 39.6256 58.6927 39.6408C58.7299 39.6543 58.8117 39.6534 58.848 39.6492C58.9426 39.6391 59.0363 39.6222 59.1291 39.5986L59.1055 39.6121C59.1688 39.5741 59.2802 39.5386 59.303 39.466Z" fill="white"/>
<path d="M58.2706 40.0595C58.328 40.0375 58.3812 39.9962 58.3854 39.9303C58.3888 39.8687 58.3956 39.8138 58.3424 39.775C58.2909 39.737 58.2343 39.7134 58.1736 39.6965C58.0638 39.6653 57.9229 39.721 57.8933 39.8383C57.8629 39.959 57.9431 40.0704 58.0596 40.1008L58.0782 40.1059C58.1161 40.1143 58.155 40.0839 58.1904 40.0755C58.22 40.0687 58.2436 40.0696 58.2706 40.0595Z" fill="white"/>
<path d="M57.3844 40.1962C57.3413 40.1886 57.3059 40.1835 57.2611 40.1818C57.2046 40.1785 57.1632 40.1903 57.11 40.2122C57.0678 40.23 57.0222 40.2367 56.98 40.2553C56.91 40.2865 56.8264 40.3439 56.8045 40.4207C56.7783 40.5094 56.8222 40.5803 56.8998 40.6191C56.953 40.6453 57.0484 40.6731 57.1075 40.674C57.148 40.674 57.2079 40.6588 57.2425 40.636C57.2831 40.6098 57.2991 40.5608 57.3464 40.5431C57.4029 40.522 57.5253 40.4418 57.5473 40.3895C57.5734 40.3262 57.5895 40.246 57.5152 40.2114C57.473 40.1903 57.4282 40.2046 57.3844 40.1962Z" fill="white"/>
<path d="M56.2685 40.5871C56.1874 40.5634 56.1545 40.5643 56.0785 40.5955C56.0059 40.6259 55.9612 40.647 55.8835 40.6554C55.8076 40.6647 55.7536 40.7331 55.7071 40.793C55.6683 40.8437 55.6691 40.8698 55.7274 40.9011C55.7823 40.9306 55.8439 40.9627 55.9089 40.9509C55.9367 40.9458 55.9536 40.9331 55.9789 40.9205C56.0211 40.8985 56.0718 40.8884 56.1106 40.8605L56.1292 40.8656C56.1385 40.7905 56.4626 40.6453 56.2685 40.5871Z" fill="white"/>
<path d="M65.259 42.2862C65.2354 42.217 65.2489 42.152 65.2362 42.0819C65.2219 42.0102 65.2193 41.9511 65.2168 41.8793C65.2134 41.8067 65.2075 41.7367 65.2151 41.6649C65.2193 41.6117 65.2388 41.5594 65.2523 41.5079C65.27 41.4421 65.2852 41.4075 65.2582 41.3408C65.2253 41.2597 65.1603 41.1922 65.0944 41.1374C64.9897 41.0504 64.8505 41.0251 64.7475 40.9407C64.7247 40.9221 64.7078 40.9052 64.6884 40.885C64.6639 40.8596 64.631 40.8335 64.6099 40.8048C64.5939 40.7837 64.5854 40.7558 64.5711 40.7339C64.5466 40.6967 64.5154 40.6697 64.4943 40.6309C64.4504 40.549 64.4006 40.4722 64.3668 40.3861C64.333 40.3042 64.2959 40.2291 64.252 40.1514C64.2165 40.0907 64.1836 40.0307 64.1524 39.9683C64.1305 39.9244 64.0984 39.8881 64.0773 39.8433C64.0562 39.7986 64.0401 39.7556 64.014 39.7125L63.9954 39.7074C63.9566 39.6526 63.9473 39.58 63.9177 39.5201C63.9025 39.4905 63.8772 39.4702 63.8603 39.4415C63.8367 39.4002 63.8308 39.3656 63.8004 39.3276C63.781 39.304 63.7675 39.2778 63.7489 39.2542C63.7287 39.2271 63.6991 39.2136 63.6789 39.1875C63.6476 39.147 63.6029 39.0744 63.5413 39.1081C63.4974 39.1318 63.4645 39.2086 63.4349 39.2483C63.3952 39.3023 63.364 39.3445 63.3007 39.3732C63.2728 39.3858 63.2433 39.3901 63.2154 39.3993C63.1893 39.4086 63.1656 39.4255 63.1386 39.434C63.0829 39.4508 63.0137 39.4584 62.9588 39.4314C62.8702 39.3875 62.9605 39.206 62.9808 39.1335C62.9994 39.0651 63.0019 39.006 62.9951 38.9359C62.9926 38.9098 62.9943 38.8667 62.9816 38.8448C62.9631 38.8102 62.9335 38.8093 62.8997 38.8C62.8719 38.7924 62.8432 38.7798 62.8136 38.7806C62.7807 38.7815 62.7495 38.7958 62.7157 38.7958C62.6465 38.7967 62.579 38.7907 62.5132 38.8135C62.4406 38.8397 62.3815 38.8777 62.3173 38.9199C62.2405 38.9714 62.1603 39.0161 62.0801 39.0617C62.0092 39.1031 61.9349 39.1385 61.8758 39.1942C61.7897 39.2761 61.7045 39.3588 61.6184 39.4424C61.5509 39.5082 61.485 39.5774 61.4158 39.6416C61.3576 39.6965 61.3263 39.7868 61.2495 39.8189L61.2445 39.8374C61.2048 39.9354 61.0891 40.0079 61.0157 40.078C60.9819 40.1109 60.9431 40.132 60.9127 40.1675C60.8773 40.2072 60.8351 40.251 60.8047 40.2924C60.7431 40.376 60.7034 40.479 60.6553 40.571C60.6342 40.6115 60.6164 40.6545 60.5928 40.6934C60.5666 40.7364 60.5489 40.7854 60.5177 40.8267C60.4594 40.9027 60.4358 40.9854 60.3928 41.0698C60.3649 41.1255 60.348 41.1753 60.332 41.2378C60.3168 41.296 60.2847 41.3408 60.2695 41.3973C60.2476 41.4784 60.191 41.5391 60.1311 41.5982C60.0906 41.6388 60.0602 41.675 60.0129 41.7063C59.9437 41.7519 59.8694 41.7848 59.7926 41.8143C59.6761 41.8599 59.6094 41.9257 59.6111 42.0541C59.6128 42.1418 59.6229 42.2279 59.6246 42.314C59.6272 42.4086 59.6989 42.5192 59.7723 42.5774C59.8053 42.6036 59.8416 42.6297 59.8686 42.6618C59.8947 42.693 59.9462 42.7597 59.9572 42.7986C59.9943 42.9336 59.8643 42.9226 59.7774 42.9328C59.7107 42.9404 59.6424 42.9758 59.5799 42.9994C59.5174 43.0239 59.433 43.0729 59.3655 43.0729C59.314 43.0729 59.2667 43.0417 59.2152 43.04C59.1739 43.0383 59.1291 43.0526 59.1047 43.0087C59.0827 42.9682 59.1097 42.8711 59.1317 42.8348C59.1435 42.8154 59.1621 42.8036 59.1764 42.7876C59.2017 42.7572 59.2144 42.7243 59.2321 42.6897C59.2422 42.6694 59.2532 42.6559 59.2625 42.6331C59.2785 42.5951 59.3081 42.5479 59.3174 42.5082C59.3376 42.4263 59.2819 42.4221 59.2178 42.428C59.092 42.4398 58.9645 42.4187 58.8371 42.4238C58.702 42.4297 58.5703 42.4221 58.4378 42.455C58.4066 42.4626 58.3661 42.4601 58.3365 42.471C58.3112 42.4812 58.2833 42.504 58.2606 42.5208C58.2124 42.5563 58.1162 42.6162 58.1002 42.6762L58.0765 42.6897C58.101 42.7243 58.1069 42.7656 58.1255 42.8028C58.1415 42.8365 58.1635 42.8652 58.1787 42.8998C58.215 42.9826 58.2369 43.0509 58.2918 43.1244C58.3196 43.1615 58.3289 43.1961 58.3483 43.2383C58.3711 43.289 58.4133 43.3379 58.4454 43.3844C58.4935 43.4544 58.5307 43.5304 58.5712 43.6047C58.61 43.673 58.6649 43.7296 58.7113 43.7929C58.7375 43.8284 58.7577 43.8579 58.7628 43.901C58.767 43.9322 58.7679 43.9744 58.7679 44.0065C58.7679 44.0867 58.7687 44.1559 58.8295 44.2183C58.8557 44.2453 58.8827 44.2496 58.9156 44.2639C58.946 44.2774 58.9738 44.3061 59.0076 44.3095L59.0262 44.3146C59.0481 44.2192 59.1376 44.1491 59.2085 44.085C59.2448 44.052 59.2709 44.009 59.3081 43.9744C59.3596 43.9254 59.4237 43.8908 59.4727 43.8393C59.5529 43.7549 59.6381 43.6747 59.7183 43.5895C59.7546 43.5498 59.8095 43.5135 59.8314 43.4654C59.8475 43.4308 59.8584 43.3962 59.8795 43.3633C59.9369 43.2713 59.9969 43.2105 60.0973 43.1657C60.1522 43.1413 60.1969 43.1362 60.2569 43.1353C60.3176 43.1345 60.3691 43.1066 60.4274 43.0982C60.5379 43.0813 60.6536 43.078 60.7642 43.0594C60.8022 43.0526 60.8359 43.0476 60.8747 43.045C60.9288 43.0417 60.9912 43.007 61.0427 43.0146L61.0613 43.0197C61.1938 42.9859 61.3035 42.9024 61.4369 42.8737C61.5222 42.8551 61.5939 42.8036 61.6783 42.7842C61.7281 42.7724 61.7762 42.7589 61.826 42.7471C61.902 42.7293 61.9814 42.7167 62.0556 42.6947C62.1173 42.6762 62.178 42.6702 62.2388 42.6525C62.2979 42.6348 62.3621 42.6179 62.4228 42.6053C62.5452 42.5791 62.6803 42.5892 62.8052 42.5799C62.8719 42.5749 62.9386 42.574 63.0044 42.5706C63.0627 42.5664 63.1192 42.5825 63.1791 42.5833C63.2408 42.5841 63.299 42.5816 63.3589 42.5875C63.4366 42.5951 63.51 42.5698 63.5877 42.5766C63.6409 42.5808 63.6915 42.5656 63.7439 42.5757C63.797 42.5867 63.8553 42.5951 63.9093 42.596C63.9625 42.5977 64.0123 42.5934 64.0663 42.5985C64.16 42.6069 64.2537 42.5985 64.3465 42.5892C64.436 42.5799 64.5238 42.5968 64.6124 42.5926C64.6876 42.5884 64.7669 42.5816 64.8403 42.5951C64.9678 42.6171 65.1029 42.6086 65.2295 42.6213L65.248 42.6264C65.2675 42.6061 65.3232 42.5782 65.3308 42.5495C65.3384 42.5225 65.3147 42.5048 65.3054 42.4829C65.281 42.4162 65.281 42.3486 65.259 42.2862Z" fill="white"/>
<path d="M66.325 42.2373C66.3267 42.2136 66.3191 42.1925 66.3225 42.168C66.3309 42.0955 66.32 42.0321 66.3166 41.9587C66.3115 41.8827 66.2972 41.8093 66.2828 41.735C66.2752 41.6996 66.2778 41.6607 66.2685 41.627C66.2567 41.5856 66.2406 41.5535 66.2347 41.5096C66.2237 41.4345 66.2398 41.3797 66.26 41.3071C66.2803 41.2311 66.282 41.1551 66.3014 41.08C66.3149 41.0251 66.309 40.9753 66.3242 40.9213C66.3453 40.847 66.3377 40.7846 66.3377 40.7103C66.3369 40.652 66.3326 40.5904 66.325 40.5339C66.3141 40.4511 66.3149 40.3726 66.2271 40.3296C66.1613 40.2975 66.1106 40.306 66.0456 40.3245C65.9756 40.3439 65.9064 40.3541 65.8371 40.3777C65.7713 40.4005 65.7274 40.4157 65.7088 40.4866C65.6987 40.5271 65.6633 40.6571 65.7139 40.685C65.7629 40.7111 65.838 40.636 65.8878 40.6284C65.9216 40.6233 65.9545 40.6309 65.9882 40.6267C66.0313 40.6216 66.0558 40.62 66.0988 40.6309C66.1917 40.6546 66.2297 40.69 66.2271 40.7888C66.2254 40.8605 66.2069 40.9213 66.1866 40.9914C66.1739 41.0395 66.1081 41.3856 66.0617 41.3839C66.0026 41.2919 65.9823 41.1931 65.8633 41.1619C65.7933 41.1441 65.7823 41.1796 65.746 41.2302C65.708 41.2826 65.6396 41.2995 65.594 41.3467C65.5316 41.4117 65.4826 41.4928 65.4539 41.5763C65.4286 41.6515 65.4421 41.6861 65.4843 41.7544C65.5231 41.8161 65.5898 41.8886 65.6574 41.9182C65.7595 41.9621 65.8566 41.9452 65.9224 42.0507C65.9866 42.1537 65.9072 42.2381 65.8996 42.3428C65.8929 42.4542 66.0144 42.4745 66.098 42.4956C66.1393 42.5057 66.1917 42.5108 66.233 42.4939C66.2702 42.4787 66.3394 42.4036 66.3512 42.3647L66.3006 42.331C66.3056 42.3014 66.3217 42.266 66.325 42.2373Z" fill="white"/>
<path d="M76.9431 43.7094C76.9329 43.6427 76.9177 43.5794 76.9017 43.5135C76.8772 43.4207 76.8494 43.327 76.8232 43.235C76.8038 43.17 76.792 43.105 76.7666 43.0417C76.7396 42.9758 76.7337 42.9117 76.7084 42.8458C76.6653 42.7395 76.6282 42.6306 76.586 42.5242C76.5624 42.4643 76.5286 42.412 76.5016 42.3537C76.4661 42.2786 76.4366 42.2085 76.3843 42.1427C76.3159 42.0575 76.2484 41.9705 76.196 41.8751C76.1673 41.8236 76.1293 41.7882 76.0922 41.7434C76.0534 41.6979 76.039 41.6523 75.9909 41.6135C75.9554 41.5856 75.931 41.551 75.8955 41.5223C75.855 41.4894 75.8195 41.4142 75.7681 41.4033L75.7596 41.3611C75.6777 41.2226 75.6279 41.0597 75.5748 40.9069C75.5621 40.8715 75.5579 40.8377 75.5385 40.8048C75.5224 40.777 75.5013 40.7516 75.4853 40.7229C75.449 40.6546 75.4279 40.5777 75.395 40.5077C75.3367 40.387 75.2962 40.2713 75.2152 40.1641C75.1747 40.111 75.1443 40.0451 75.0835 40.0113C75.0345 39.9843 74.983 39.9455 74.9299 39.9286C74.8784 39.9117 74.8235 39.8999 74.7712 39.8864C74.7095 39.8704 74.6682 39.8814 74.691 39.9548C74.7247 40.0603 74.8547 40.0966 74.9383 40.1456C74.989 40.1751 75.0404 40.2004 75.0843 40.2409C75.1375 40.2907 75.1274 40.3279 75.1426 40.392C75.1645 40.4883 75.1924 40.5836 75.205 40.6824C75.2135 40.7432 75.216 40.8006 75.2219 40.8614C75.2245 40.8858 75.2312 40.9112 75.2329 40.9356C75.2346 40.9627 75.2245 40.9854 75.2236 41.0116C75.2228 41.0623 75.2185 41.0977 75.205 41.1492C75.1915 41.1998 75.178 41.2513 75.1637 41.302C75.1485 41.3568 75.1282 41.4134 75.1181 41.4691C75.1063 41.5333 75.1071 41.589 75.0894 41.6548C75.0658 41.7434 75.0421 41.8321 75.0176 41.9207C74.9906 42.0212 74.983 42.1208 74.956 42.2212C74.924 42.3411 74.9113 42.4601 74.8792 42.5791C74.8666 42.6255 74.8488 42.6736 74.8455 42.7218C74.8421 42.7623 74.8243 42.8256 74.8395 42.8653C74.8877 42.9902 74.9771 42.829 75.0134 42.7792C75.07 42.7032 75.1088 42.6154 75.1333 42.5217C75.1535 42.4432 75.1932 42.3757 75.2143 42.2963C75.2287 42.2398 75.2582 42.1967 75.2759 42.1427C75.2903 42.1013 75.2979 42.0558 75.3097 42.0136C75.3317 41.9334 75.3536 41.8523 75.3756 41.7721C75.3891 41.7207 75.4127 41.6751 75.4338 41.627C75.4498 41.5898 75.4794 41.5349 75.5098 41.5071C75.5672 41.4522 75.6693 41.5181 75.7199 41.562C75.7883 41.6211 75.8508 41.7063 75.904 41.7781C75.9563 41.8473 75.9825 41.9477 75.9985 42.0321C76.0078 42.0777 75.9951 42.1123 75.9841 42.1562C75.969 42.2145 75.958 42.2204 75.9158 42.2617C75.8854 42.2913 75.866 42.325 75.8339 42.3529C75.7984 42.3833 75.7486 42.4061 75.7267 42.4474C75.6609 42.5673 75.817 42.5673 75.8913 42.5622C75.9681 42.5563 76.0778 42.574 76.093 42.6627C76.1065 42.7403 76.0652 42.818 75.996 42.8551C75.9453 42.883 75.9048 42.883 75.8575 42.9218C75.8322 42.9421 75.763 42.9775 75.7554 43.0088L75.7368 43.0037C75.6212 43.0645 75.487 43.0729 75.3756 43.148C75.3148 43.1885 75.2751 43.2468 75.2354 43.305C75.2008 43.3557 75.1527 43.3996 75.1164 43.4502C75.0767 43.5059 75.0852 43.5853 75.0388 43.6351C75.005 43.6714 75.0244 43.6545 74.9923 43.6418C74.956 43.6275 74.9467 43.6098 74.9307 43.576C74.9037 43.5194 74.8969 43.462 74.8792 43.403C74.8615 43.3447 74.7973 43.2721 74.8108 43.2105L74.7872 43.224C74.7231 43.2611 74.6522 43.3194 74.5796 43.3337C74.5129 43.3481 74.4648 43.3861 74.3998 43.4063C74.3609 43.4181 74.3289 43.4325 74.2926 43.4477C74.2529 43.4646 74.2183 43.462 74.1761 43.468C74.095 43.4789 74.0174 43.5118 73.9355 43.5169C73.776 43.5296 73.6164 43.5701 73.4544 43.5768C73.3227 43.5819 73.1876 43.5853 73.0576 43.5684C72.9015 43.549 72.7394 43.5481 72.5816 43.554C72.5107 43.5566 72.4423 43.5709 72.3722 43.5659C72.3115 43.5625 72.2541 43.5633 72.1933 43.5667C72.0616 43.5743 71.9367 43.5844 71.8075 43.6013C71.7349 43.6106 71.6581 43.6207 71.5872 43.6258C71.5323 43.63 71.4547 43.668 71.4007 43.6553C71.3458 43.6815 71.2791 43.7853 71.2977 43.8461C71.3053 43.8723 71.3458 43.9111 71.3661 43.9288C71.399 43.9567 71.4226 43.9525 71.4049 43.9972C71.3762 44.0673 71.2783 44.0993 71.2217 44.1424C71.1846 44.1702 71.1373 44.1939 71.0909 44.2023C71.0537 44.2091 71.0158 44.2032 70.9786 44.215C70.9482 44.2682 71.1052 44.3239 71.1348 44.3424C71.182 44.3728 71.2276 44.4007 71.2825 44.4167C71.4049 44.453 71.5374 44.4691 71.6286 44.5687C71.6775 44.6227 71.7037 44.686 71.7645 44.7333C71.8117 44.7704 71.8632 44.8092 71.9206 44.827C71.962 44.8396 72.0084 44.8573 72.0515 44.8573C72.1004 44.8573 72.1494 44.8751 72.1975 44.87C72.3359 44.854 72.455 44.7636 72.5942 44.7552C72.6255 44.7535 72.6559 44.7476 72.6862 44.7459C72.7242 44.7434 72.7512 44.7577 72.7875 44.7653C72.8517 44.7788 72.915 44.778 72.9791 44.7966C73.2003 44.8573 73.4223 44.9164 73.6443 44.9764L73.6578 45C73.6848 44.973 73.7304 44.9789 73.765 44.9696C73.8005 44.9603 73.8342 44.9519 73.8705 44.9443C73.9364 44.9299 73.9912 44.9012 74.0579 44.8945C74.1221 44.8877 74.1938 44.8734 74.2537 44.8523C74.3238 44.827 74.4006 44.7873 74.474 44.7788C74.5289 44.7721 74.5905 44.7687 74.6462 44.7662C74.6952 44.7636 74.7585 44.7662 74.8075 44.7738C74.8454 44.7805 74.8817 44.7983 74.9197 44.8059C74.9501 44.8118 74.9805 44.8084 75.0109 44.8101C75.0818 44.8126 75.1426 44.8253 75.211 44.8447C75.254 44.8565 75.297 44.8734 75.3418 44.8751C75.3747 44.8768 75.3992 44.8751 75.4321 44.8835C75.4954 44.8995 75.5638 44.9282 75.6288 44.9358C75.6879 44.9418 75.7537 44.9561 75.8128 44.9477C75.8727 44.9384 75.931 44.908 75.9884 44.8852C76.0517 44.8599 76.1074 44.8202 76.1707 44.7957C76.223 44.7755 76.2754 44.7485 76.3209 44.7155C76.3657 44.6835 76.4307 44.6396 76.4602 44.5948C76.4915 44.5476 76.5227 44.5079 76.564 44.4657C76.5885 44.4412 76.6029 44.4058 76.629 44.3838C76.6518 44.3652 76.678 44.3559 76.6991 44.334C76.7388 44.2918 76.7759 44.253 76.8097 44.2049C76.8451 44.1551 76.8831 44.1061 76.9152 44.0546C76.9447 44.0065 76.9532 43.9457 76.9684 43.8908L76.9734 43.8723C76.9371 43.8275 76.9498 43.7566 76.9431 43.7094Z" fill="white"/>
<path d="M69.4913 43.3532C69.4887 43.3397 69.4913 43.3287 69.4913 43.3161C69.4761 43.311 69.4609 43.3051 69.4457 43.3017L69.4913 43.3532Z" fill="white"/>
<path d="M70.4612 43.576C70.5237 43.5667 70.5794 43.5541 70.6343 43.5228C70.6933 43.4882 70.7229 43.4764 70.7068 43.403C70.6933 43.3439 70.6807 43.2823 70.663 43.2232C70.6469 43.17 70.6334 43.1151 70.6148 43.0619C70.5912 42.9944 70.5777 42.9564 70.5 42.9606C70.4401 42.964 70.381 42.9893 70.3262 43.0138C70.3008 43.0256 70.2789 43.0434 70.2527 43.0543C70.2215 43.067 70.1869 43.0662 70.1548 43.0754C70.1016 43.0906 70.0417 43.1109 69.991 43.1312C69.9649 43.1421 69.9429 43.1624 69.9176 43.1725C69.8855 43.1852 69.8526 43.1826 69.8205 43.1953C69.7699 43.2156 69.7041 43.2173 69.6821 43.1573C69.6678 43.1176 69.6779 43.0856 69.634 43.0586C69.6146 43.0467 69.5867 43.0417 69.5648 43.0366C69.4846 43.018 69.4618 43.0932 69.4829 43.1615C69.4998 43.2189 69.4905 43.2654 69.4913 43.3169C69.5006 43.3202 69.5116 43.3202 69.52 43.3261C69.5378 43.3371 69.5487 43.3591 69.5665 43.37C69.6129 43.3987 69.6686 43.4139 69.7167 43.4435C69.8113 43.5026 69.8957 43.5414 70.0037 43.5709C70.1101 43.5996 70.2181 43.6292 70.327 43.6072C70.3709 43.5971 70.4131 43.5828 70.4612 43.576Z" fill="white"/>
<path d="M70.6672 43.8723C70.6031 43.874 70.5372 43.8647 70.4739 43.8571C70.4089 43.8504 70.3549 43.8571 70.2907 43.8748C70.2612 43.8833 70.2165 43.8791 70.1962 43.9027C70.1818 43.9187 70.1717 43.9601 70.1835 43.9761C70.1945 43.9905 70.2595 43.9998 70.2764 44.0006C70.3085 44.0015 70.3481 43.988 70.3735 43.9685L70.3684 43.9871C70.419 44.0074 70.5085 43.9998 70.5625 44.0006C70.6275 44.0006 70.6984 44.0074 70.7626 44.0006C70.8031 43.9956 70.9044 43.9618 70.8487 43.9027C70.8132 43.863 70.7128 43.8706 70.6672 43.8723Z" fill="white"/>
<path d="M56.3453 1.88318C56.3157 1.88571 56.2701 1.87136 56.244 1.88149C56.2288 1.90766 56.2904 1.9583 56.3081 1.97856C56.3571 2.03512 56.4111 2.08745 56.4609 2.144C56.4972 2.18537 56.5259 2.21913 56.5462 2.26893C56.5681 2.32127 56.5706 2.37107 56.5875 2.42509C56.6086 2.49178 56.6179 2.55508 56.6213 2.6243C56.6255 2.69014 56.6474 2.74163 56.6669 2.8041C56.7023 2.92058 56.6922 3.04888 56.7192 3.16706C56.742 3.27004 56.7555 3.38146 56.7724 3.48529C56.7791 3.52411 56.7749 3.56294 56.7859 3.60177C56.7994 3.64735 56.8171 3.68534 56.8222 3.7343C56.8289 3.79676 56.8348 3.85585 56.8534 3.91578C56.8644 3.95039 56.8821 3.98415 56.888 4.0196C56.8922 4.04577 56.888 4.06856 56.8956 4.09389C56.926 4.1918 57.0307 4.23907 57.1109 4.28634C57.1463 4.3066 57.1792 4.31166 57.2172 4.3277C57.2484 4.34121 57.267 4.36906 57.2907 4.39439C57.3506 4.45854 57.3962 4.53366 57.4493 4.60372C57.4747 4.63664 57.4983 4.67716 57.5414 4.6358C57.5641 4.6147 57.5726 4.56911 57.576 4.53788C57.5844 4.45432 57.527 4.35893 57.4806 4.29309C57.4603 4.26439 57.4477 4.25089 57.4384 4.21459C57.4333 4.19518 57.4325 4.18167 57.4232 4.1631C57.4004 4.11499 57.3742 4.06856 57.3548 4.01792C57.3084 3.90059 57.2468 3.78916 57.2105 3.66761C57.191 3.60346 57.1632 3.54353 57.1455 3.47853C57.132 3.42873 57.1277 3.37808 57.1168 3.32828C57.0931 3.22192 57.0442 3.12907 57.0281 3.02187C57.0121 2.91636 56.9648 2.80747 56.9328 2.70533C56.9007 2.6032 56.8593 2.50697 56.8298 2.40399C56.8154 2.35334 56.7893 2.30523 56.7732 2.25543C56.7572 2.209 56.753 2.17186 56.7268 2.12712C56.7032 2.08661 56.6829 2.03512 56.6508 1.99966C56.639 1.987 56.6213 1.9794 56.6095 1.96759C56.5943 1.95239 56.5909 1.93129 56.5689 1.92538L56.5943 1.89668C56.5706 1.83928 56.4879 1.86967 56.4457 1.87474C56.4103 1.8798 56.3782 1.8798 56.3453 1.88318Z" fill="white"/>
<path d="M49.2143 33.0382C49.2177 33.0315 49.2126 33.0256 49.2135 33.0197C49.2126 33.0197 49.2118 33.0197 49.2118 33.0197L49.2143 33.0382Z" fill="white"/>
<path d="M71.2707 33.0002C71.2969 32.9918 71.3399 32.9698 71.361 32.9521C71.3889 32.9285 71.3906 32.9057 71.399 32.8711C71.415 32.8112 71.4243 32.7698 71.4074 32.709C71.3855 32.6263 71.3602 32.5621 71.3171 32.4895C71.2943 32.4516 71.3019 32.4313 71.2909 32.3908C71.2825 32.3604 71.2606 32.3444 71.2606 32.3114C71.2614 32.1814 71.4361 32.1283 71.54 32.1527C71.6379 32.1755 71.7493 32.1975 71.8413 32.2338C71.9654 32.2827 72.0338 32.4406 72.0034 32.5655C71.9747 32.6845 71.9392 32.8019 71.908 32.9192L71.9122 32.9023C71.8675 32.958 71.8236 33.0146 71.7847 33.0745C71.7425 33.1403 71.7231 33.2028 71.702 33.2771C71.686 33.3379 71.6311 33.4527 71.6497 33.5143C71.6607 33.5472 71.6835 33.5438 71.7181 33.5531C71.7518 33.5616 71.7839 33.5734 71.8177 33.581C71.8886 33.5962 71.9629 33.581 72.0338 33.581C72.0827 33.5801 72.1359 33.5708 72.1832 33.559C72.233 33.5464 72.2676 33.5345 72.3191 33.5312C72.352 33.5295 72.3689 33.5168 72.3967 33.5025C72.4634 33.4687 72.5141 33.4299 72.5731 33.3835C72.6398 33.3311 72.7141 33.2822 72.7935 33.2501C72.8601 33.2222 72.9293 33.1817 72.9986 33.1606C73.0551 33.142 73.121 33.1488 73.1792 33.1387C73.2535 33.1252 73.3278 33.1328 73.4021 33.1226C73.4552 33.1142 73.5 33.0956 73.5557 33.0965C73.619 33.0973 73.6747 33.0863 73.7372 33.077C73.8621 33.0576 73.9879 33.0509 74.1128 33.0289C74.1736 33.0188 74.2259 33.0104 74.2841 32.9901C74.3491 32.9673 74.4158 32.9395 74.48 32.9141C74.5188 32.8981 74.5526 32.866 74.5914 32.8517C74.615 32.8432 74.6387 32.8449 74.6631 32.8373C74.7273 32.8171 74.783 32.7765 74.8497 32.7605L74.8623 32.7816C74.8826 32.7656 74.9349 32.7732 74.9594 32.7757C74.9923 32.7791 75.0227 32.7808 75.0556 32.7833C75.108 32.7875 75.146 32.8036 75.1991 32.7993C75.2354 32.7968 75.27 32.8044 75.3063 32.8061C75.3367 32.8069 75.3671 32.8002 75.3975 32.8019C75.4769 32.8078 75.5317 32.8534 75.5891 32.7782C75.6322 32.7217 75.6355 32.5022 75.7115 32.5039C75.7655 32.5056 75.8305 32.5368 75.8837 32.5512C75.9327 32.5647 75.9825 32.5773 76.0314 32.5908C76.0821 32.6043 76.1293 32.6305 76.1749 32.5942C76.2163 32.5621 76.2214 32.4828 76.2349 32.4338C76.2475 32.3883 76.2644 32.3418 76.2678 32.2946C76.272 32.2405 76.2703 32.1882 76.2788 32.1342C76.2872 32.0802 76.2745 32.0261 76.2686 31.9713C76.2619 31.9096 76.2577 31.8472 76.2509 31.7847C76.2441 31.7315 76.2408 31.6775 76.2365 31.6235C76.2349 31.5956 76.229 31.5695 76.218 31.5425C76.2078 31.518 76.1808 31.491 76.1893 31.4631L76.1935 31.4462C76.1184 31.3373 75.9209 31.3618 75.8136 31.3044C75.7866 31.2901 75.7301 31.2479 75.7216 31.2158C75.7157 31.193 75.7267 31.1727 75.7326 31.1508C75.7487 31.0926 75.7807 31.063 75.8187 31.0157C75.8702 30.9516 75.9445 30.9288 75.9183 30.8326C75.8964 30.7524 75.8153 30.7085 75.8044 30.6207C75.7985 30.5768 75.8069 30.5295 75.8044 30.4848C75.8027 30.4544 75.801 30.4308 75.8086 30.4012C75.817 30.3649 75.8339 30.3362 75.8677 30.3168C75.8955 30.2999 75.9251 30.305 75.9546 30.2923C75.9816 30.2814 75.9968 30.2645 76.0264 30.2645C76.0458 30.2645 76.0745 30.2788 76.093 30.2839C76.1344 30.2949 76.1758 30.3059 76.218 30.3177C76.3252 30.3464 76.4358 30.4021 76.5075 30.2873C76.5168 30.2721 76.5311 30.2417 76.5497 30.2366C76.5793 30.2273 76.5733 30.2434 76.5852 30.2636C76.6046 30.2957 76.6248 30.3143 76.651 30.3447C76.6696 30.3666 76.6822 30.3928 76.6839 30.4223C76.6915 30.538 76.705 30.6494 76.6974 30.7684C76.6898 30.8832 76.6915 30.9946 76.6865 31.1077C76.6848 31.1516 76.7 31.1955 76.6983 31.2377C76.6974 31.2631 76.6856 31.285 76.6856 31.3103C76.6856 31.3728 76.7135 31.4344 76.7135 31.4977C76.7135 31.5273 76.6983 31.5568 76.7008 31.5855C76.7025 31.6032 76.7152 31.626 76.7185 31.6438C76.7278 31.6902 76.7396 31.7341 76.7439 31.7839C76.7489 31.8337 76.7405 31.9156 76.7692 31.9569C76.7962 31.9974 76.8375 31.9822 76.8553 31.9426C76.8781 31.8919 76.8755 31.8413 76.8798 31.7881C76.8831 31.7408 76.8983 31.7045 76.8958 31.6564C76.8907 31.5551 76.9025 31.453 76.9017 31.3517C76.9009 31.274 76.9051 31.1955 76.8966 31.1187C76.8916 31.0731 76.8975 31.0343 76.8907 30.9887C76.884 30.9372 76.8916 30.8824 76.889 30.83C76.8865 30.7743 76.8823 30.7186 76.8831 30.6629C76.8848 30.5574 76.8629 30.4561 76.8603 30.3514C76.8578 30.2409 76.8443 30.1353 76.8325 30.0265C76.8215 29.9252 76.8114 29.8205 76.8021 29.7175C76.7962 29.6567 76.7877 29.5968 76.7835 29.536C76.7802 29.4854 76.7574 29.4018 76.7785 29.3537L76.7827 29.3368C76.7734 29.2499 76.6561 29.2085 76.586 29.2372C76.5083 29.2701 76.4653 29.3419 76.3741 29.3157C76.3378 29.3056 76.3041 29.2912 76.2737 29.2668C76.2475 29.2457 76.2366 29.2068 76.2036 29.195C76.1412 29.1731 76.0416 29.2431 76.0061 29.287C75.9791 29.3208 75.9656 29.3655 75.9369 29.4001C75.92 29.4204 75.9006 29.4398 75.8862 29.4626C75.8601 29.5023 75.8204 29.5976 75.7537 29.5428C75.6955 29.4938 75.7377 29.4027 75.7546 29.3461C75.7698 29.2887 75.785 29.2397 75.8111 29.1874C75.8457 29.1182 75.8407 29.0329 75.8829 28.9671C75.9124 28.9207 75.9698 28.8675 76.0171 28.8405C76.0711 28.8093 76.1226 28.7645 76.0821 28.7037C76.0475 28.6514 76.0002 28.6084 75.9631 28.5577C75.9082 28.4826 75.8508 28.4083 75.8061 28.3264C75.7807 28.2817 75.6913 28.2344 75.6921 28.1779C75.6929 28.1162 75.8272 28.1095 75.8719 28.1044C75.9133 28.0994 75.9495 28.0892 75.9909 28.0816C76.012 28.0774 76.0601 28.0597 76.0804 28.0631C76.1437 28.074 76.18 28.1686 76.2011 28.2192C76.2306 28.2893 76.288 28.3416 76.3319 28.4032C76.3733 28.4615 76.3995 28.5299 76.445 28.5813C76.4788 28.6193 76.5176 28.6961 76.575 28.7021L76.6299 28.6987C76.5928 28.6303 76.5995 28.5459 76.5835 28.4733C76.5691 28.4134 76.5379 28.3475 76.5033 28.2994C76.4678 28.2513 76.4501 28.1931 76.4206 28.1424C76.4028 28.112 76.3784 28.0901 76.3606 28.0597C76.3437 28.031 76.3387 27.9972 76.3235 27.9677C76.3134 27.9525 76.3041 27.9373 76.2948 27.9213C76.2838 27.8993 76.2788 27.8757 76.2788 27.8512C76.2652 27.82 76.2433 27.7955 76.229 27.7643C76.1969 27.6933 76.1884 27.6174 76.169 27.5439C76.1505 27.4781 76.1192 27.414 76.0998 27.3481C76.0779 27.2797 76.0728 27.2097 76.0534 27.1405C76.012 26.9961 75.9656 26.8535 75.9276 26.7083C75.9107 26.6458 75.909 26.5758 75.8846 26.5167C75.855 26.4449 75.8288 26.374 75.8027 26.2997C75.7563 26.1723 75.6566 26.0693 75.6119 25.9376C75.5883 25.8684 75.5722 25.7966 75.5537 25.7266C75.5359 25.6607 75.4853 25.5645 75.5165 25.4987C75.4929 25.4033 75.4515 25.3121 75.4203 25.2201C75.3908 25.134 75.3612 25.0412 75.3207 24.9585C75.2143 24.7424 75.0928 24.5372 74.9729 24.3288C74.9105 24.2207 74.8573 24.1068 74.7872 24.0038C74.7611 23.9649 74.7248 23.9303 74.6893 23.8991C74.6488 23.8645 74.6192 23.8231 74.5779 23.7894C74.5095 23.7337 74.4521 23.672 74.388 23.613C74.3162 23.5454 74.2622 23.4644 74.1955 23.3943C74.0967 23.2998 74.0419 23.1521 73.9887 23.0271C73.9566 22.9529 73.9262 22.8803 73.868 22.822C73.8292 22.784 73.8097 22.7334 73.7718 22.6937C73.7127 22.6313 73.6587 22.5756 73.6122 22.5021C73.57 22.4354 73.5143 22.3991 73.4535 22.3527C73.4063 22.3164 73.3666 22.2767 73.3168 22.2438C73.2602 22.2067 73.2045 22.167 73.1488 22.1282C73.0577 22.0649 72.9564 22.0286 72.8635 21.972C72.8061 21.9374 72.7436 21.9349 72.6854 21.907C72.6677 21.8986 72.6584 21.8834 72.6407 21.8749C72.612 21.8614 72.585 21.8564 72.5563 21.8403C72.4491 21.7787 72.3393 21.7154 72.2287 21.6605C72.1452 21.6192 72.0633 21.577 71.9713 21.5508L71.9544 21.5466C71.8548 21.5196 71.7552 21.4926 71.6556 21.4656C71.572 21.4428 71.4927 21.4309 71.4091 21.4158C71.3281 21.4014 71.2454 21.3989 71.1643 21.3896C71.1162 21.3845 71.0546 21.3811 71.0065 21.3828C70.9584 21.3845 70.9119 21.4082 70.8638 21.4132C70.7625 21.4233 70.6655 21.4309 70.5667 21.4039C70.473 21.3786 70.3734 21.3592 70.2907 21.3119C70.2535 21.2908 70.2316 21.2503 70.1911 21.2317C70.1607 21.2174 70.1159 21.2039 70.083 21.2005C70.0366 21.1954 69.9969 21.2089 69.9581 21.2309C69.9142 21.2554 69.8669 21.268 69.8239 21.2942L69.8332 21.2604C69.7597 21.3077 69.6872 21.3651 69.6162 21.4158C69.5352 21.4757 69.4415 21.5162 69.3605 21.5753C69.2794 21.6344 69.222 21.7002 69.1655 21.7821C69.1199 21.8496 69.0769 21.88 69.1435 21.9509C69.1917 22.0032 69.244 22.0488 69.3039 22.0877C69.3563 22.1214 69.4094 22.1915 69.4753 22.1712C69.5487 22.1484 69.5842 22.0725 69.6669 22.1138C69.726 22.1442 69.7572 22.2345 69.7893 22.2902L69.7935 22.2734C69.7859 22.2995 69.7952 22.3198 69.7935 22.3451C69.7918 22.3696 69.7758 22.3932 69.7724 22.4169C69.7656 22.4633 69.7758 22.5283 69.7952 22.5696C69.8349 22.6574 69.8762 22.7393 69.9243 22.822C69.9547 22.8727 70.0037 22.9081 70.045 22.9495C70.0889 22.9934 70.1269 23.0415 70.1708 23.0854C70.2096 23.1242 70.2459 23.1521 70.2797 23.1968C70.3067 23.2323 70.3312 23.2846 70.3827 23.2686C70.4046 23.2618 70.4131 23.2407 70.43 23.228C70.4468 23.2154 70.4679 23.2078 70.484 23.1934C70.5017 23.1766 70.5152 23.1563 70.5329 23.1394C70.554 23.1192 70.5743 23.1107 70.5861 23.0812C70.6233 22.9917 70.6055 22.9242 70.5388 22.8558C70.511 22.8279 70.4679 22.806 70.4359 22.784C70.3911 22.7528 70.3641 22.7638 70.3118 22.757C70.2257 22.7461 70.1945 22.6735 70.1548 22.6059L70.121 22.5967C70.0594 22.5165 70.116 22.3324 70.1894 22.2767C70.2434 22.2354 70.3101 22.2025 70.3582 22.1543C70.4114 22.1012 70.4553 22.0421 70.5161 21.9956C70.5616 21.961 70.6427 21.9146 70.7009 21.9104C70.7583 21.9062 70.8132 21.896 70.8706 21.8876C70.9153 21.8809 70.9541 21.8733 70.9989 21.8758C71.0251 21.8775 71.0521 21.8792 71.0782 21.88C71.1179 21.8809 71.1542 21.8682 71.1939 21.8749C71.2175 21.8792 71.2411 21.8884 71.2639 21.8952C71.3694 21.9239 71.4674 21.9484 71.5644 21.999C71.6176 22.0269 71.6699 22.0488 71.7231 22.0775C71.7864 22.1121 71.8396 22.1552 71.8953 22.2008C71.9856 22.275 72.0726 22.3519 72.1621 22.4261C72.2136 22.4683 72.2625 22.5114 72.3123 22.5553C72.3663 22.6026 72.4204 22.649 72.4718 22.6979C72.5292 22.7528 72.5858 22.8068 72.6432 22.8617C72.6896 22.9056 72.7411 22.9351 72.7842 22.9816C72.8221 23.0221 72.8551 23.0719 72.8939 23.1082C72.9218 23.1343 72.9479 23.1546 72.9724 23.1841C73.0011 23.2188 73.0188 23.2382 73.0636 23.2441L73.0804 23.2483C73.0948 23.2762 73.1201 23.2829 73.1387 23.3032C73.1581 23.3251 73.1615 23.3487 73.1725 23.3766C73.1936 23.4298 73.2096 23.4838 73.229 23.5378C73.2434 23.5783 73.2526 23.6172 73.2628 23.6585C73.2763 23.7126 73.278 23.7581 73.2797 23.8147C73.2864 24.0105 73.1868 24.1886 73.137 24.3743C73.1243 24.4208 73.1176 24.4579 73.1151 24.506C73.1125 24.5592 73.121 24.5685 73.1438 24.6157C73.1868 24.7027 73.218 24.7964 73.2661 24.8791C73.2957 24.9306 73.3041 24.9812 73.3185 25.0386C73.3295 25.08 73.3463 25.1214 73.3522 25.1636C73.3582 25.2075 73.359 25.2522 73.3649 25.2953C73.3717 25.3425 73.3953 25.3873 73.3725 25.4345L73.3936 25.4219C73.3801 25.4683 73.3801 25.5122 73.3733 25.5595C73.3683 25.5958 73.3565 25.627 73.3556 25.6641C73.3531 25.7418 73.3531 25.822 73.3615 25.8996C73.3708 25.9697 73.3869 26.0372 73.3928 26.1073C73.3987 26.1731 73.397 26.2373 73.4021 26.3031C73.4046 26.3352 73.4054 26.4863 73.4578 26.4863C73.5042 26.4863 73.5219 26.4145 73.5304 26.3791C73.5574 26.2753 73.5869 26.1714 73.6148 26.0676C73.63 26.0119 73.6519 25.9545 73.6519 25.8971C73.6527 25.8194 73.6426 25.7409 73.6418 25.6633C73.6409 25.5561 73.6384 25.4463 73.6663 25.3425C73.684 25.2767 73.6857 25.248 73.7583 25.2699C73.8072 25.2843 73.8401 25.3138 73.884 25.3375C73.9912 25.3949 74.0799 25.4573 74.1533 25.5561C74.1913 25.6059 74.2225 25.6751 74.231 25.7359C74.2377 25.7882 74.2335 25.8346 74.236 25.8853C74.2386 25.9309 74.2242 25.9832 74.2377 26.0262C74.2537 26.0803 74.301 26.1461 74.3407 26.1841C74.3711 26.1875 74.3947 26.1824 74.4251 26.1892C74.4521 26.1951 74.4648 26.1925 74.4918 26.1892C74.5467 26.1816 74.61 26.1841 74.664 26.1993C74.7239 26.217 74.7855 26.2212 74.8463 26.2263C74.8733 26.228 74.9079 26.2305 74.9349 26.2263C74.9746 26.2187 74.994 26.1993 75.0362 26.2086C75.173 26.2373 75.1544 26.3681 75.0936 26.461C75.0708 26.4964 75.0582 26.5352 75.0337 26.569C75.0016 26.6121 74.9898 26.6467 74.9763 26.6973C74.9468 26.807 74.8953 26.9337 74.9442 27.0468C74.9586 27.0797 74.9814 27.1016 74.9923 27.1371C75.0033 27.17 75.0177 27.2029 75.0278 27.2358C75.0447 27.2932 75.0683 27.3287 75.0624 27.3903C75.0565 27.4511 75.0683 27.4941 75.0523 27.5549C75.0405 27.598 75.0295 27.641 75.0177 27.6832C74.9999 27.7482 74.9999 27.8115 74.9839 27.8757C74.9712 27.9255 74.9459 27.9803 74.9434 28.031C74.9333 28.2471 74.9181 28.486 75.0151 28.6902L75.032 28.6945C75.0092 28.7814 74.9755 28.8616 74.9071 28.9232C74.8362 28.9882 74.7822 29.0912 74.7264 29.1714C74.6707 29.2524 74.6066 29.3233 74.5374 29.3934C74.496 29.4356 74.4538 29.4812 74.4091 29.5183C74.3939 29.531 74.3761 29.5377 74.3609 29.5495C74.3441 29.563 74.3356 29.5833 74.3196 29.5985C74.247 29.6669 74.1525 29.6973 74.068 29.7454C74.0174 29.7749 73.971 29.7707 73.9186 29.7901C73.8764 29.8061 73.8283 29.818 73.7878 29.8357C73.765 29.8458 73.7473 29.8652 73.7245 29.8745C73.7034 29.883 73.6806 29.8813 73.6587 29.8846C73.6021 29.8931 73.5565 29.9142 73.5084 29.942C73.4611 29.9691 73.4096 29.98 73.359 30.0011C73.3033 30.0239 73.2501 30.0509 73.1893 30.0552L73.1725 30.0509C73.1201 30.0653 73.0661 30.0712 73.0155 30.0906C72.9471 30.1168 72.9353 30.1421 72.8905 30.1911C72.8593 30.2248 72.8221 30.2434 72.7951 30.2839C72.7614 30.3337 72.7487 30.3641 72.6837 30.3708C72.6061 30.3784 72.5301 30.3464 72.455 30.3261C72.3866 30.3075 72.3208 30.2729 72.2566 30.3075C72.2144 30.3312 72.173 30.3573 72.1325 30.3818C72.0903 30.4088 72.0549 30.446 72.0135 30.4755C71.9333 30.5338 71.8852 30.6232 71.8126 30.6882C71.7451 30.749 71.6649 30.7777 71.5813 30.8081C71.5349 30.8258 71.4927 30.8495 71.4437 30.863C71.4091 30.8722 71.3559 30.9052 71.3222 30.9009L71.3011 30.9136C71.2234 30.8908 71.1415 30.9094 71.0613 30.9052C71.0175 30.9026 70.9736 30.9052 70.9297 30.9077C70.8841 30.9111 70.8225 30.8976 70.7803 30.9161C70.7617 30.9246 70.7549 30.9389 70.7406 30.9507C70.7195 30.9668 70.6925 30.9744 70.6705 30.9904C70.6376 31.0149 70.6199 31.0537 70.5887 31.0816C70.5313 31.1331 70.4857 31.1922 70.4392 31.2538C70.3228 31.4074 70.2156 31.5653 70.094 31.713C70.0349 31.7856 69.9708 31.8455 69.8821 31.8818C69.8382 31.9004 69.7994 31.913 69.7538 31.9232C69.7133 31.9316 69.6745 31.9645 69.6323 31.9586L69.6154 31.9544C69.5673 31.9957 69.3993 31.9037 69.3512 31.8835C69.3022 31.8624 69.26 31.8404 69.2069 31.8261C69.1545 31.8126 69.1013 31.7965 69.049 31.783C68.9486 31.7577 68.8219 31.8084 68.7249 31.8413C68.6725 31.859 68.6312 31.886 68.5831 31.9096C68.551 31.9257 68.5155 31.9274 68.4826 31.94C68.4455 31.9544 68.4159 31.9831 68.3788 31.9966C68.3222 32.016 68.1703 31.978 68.1281 31.9324C68.0707 31.87 68.0732 31.7704 68.0597 31.6927C68.0437 31.6024 68.0369 31.5121 67.9601 31.4521C67.9103 31.4142 67.809 31.4201 67.8166 31.3382C67.8259 31.2386 67.9534 31.2529 68.015 31.2918C68.0513 31.3137 68.0766 31.3584 68.107 31.3863C68.1365 31.4133 68.1627 31.4184 68.2015 31.4285C68.2446 31.4395 68.2733 31.4437 68.3155 31.4454C68.3518 31.4462 68.3822 31.464 68.4168 31.4699C68.4632 31.4775 68.4868 31.4631 68.5274 31.4445C68.5409 31.4386 68.5662 31.4327 68.5797 31.4234C68.6025 31.4066 68.6118 31.3762 68.6388 31.3644C68.7021 31.3357 68.789 31.3981 68.8439 31.4234C68.9072 31.4521 68.9916 31.4623 69.0591 31.4808C69.1022 31.4927 69.1452 31.5036 69.1883 31.5154C69.2136 31.5222 69.2651 31.5501 69.2879 31.5323C69.3487 31.4859 69.1993 31.4091 69.1773 31.3871C69.1562 31.366 69.1486 31.3508 69.125 31.334C69.1132 31.3247 69.1005 31.3162 69.0878 31.3086C69.0549 31.2875 69.0169 31.2648 68.9815 31.2479C68.9427 31.2293 68.8979 31.2293 68.8608 31.2074C68.8363 31.193 68.8186 31.1854 68.7907 31.1753C68.7038 31.1449 68.6278 31.0942 68.5375 31.0698C68.4708 31.052 68.4033 31.0335 68.3366 31.0149L68.3239 30.9938C68.2724 30.9794 68.2404 30.9634 68.1939 30.9398C68.1619 30.9229 68.1112 30.9187 68.0766 30.9094C67.9871 30.8849 67.8968 30.8613 67.8073 30.8359C67.7584 30.8224 67.7136 30.8081 67.6638 30.8064C67.6216 30.8047 67.5887 30.7954 67.5465 30.8056C67.4385 30.8317 67.3346 30.8587 67.2291 30.8959C67.1219 30.933 67.0046 30.9727 66.8932 30.9854C66.802 30.9955 66.7176 31.0107 66.6281 30.9854C66.4559 30.9381 66.2837 30.8925 66.1115 30.8461L66.0946 30.8419C66.0507 30.83 66.006 30.8182 65.9621 30.8064C65.8878 30.7861 65.8051 30.7498 65.7275 30.7465C65.6211 30.7439 65.5114 30.7414 65.4025 30.7397C65.3341 30.7389 65.2657 30.7439 65.1974 30.7423C65.1324 30.7414 65.0809 30.7287 65.0167 30.7119C64.9205 30.6857 64.8226 30.668 64.7449 30.603C64.6985 30.5633 64.6673 30.5169 64.6276 30.4713C64.6082 30.4485 64.5888 30.4325 64.5727 30.408C64.5575 30.3852 64.5491 30.3675 64.5314 30.3472C64.49 30.2991 64.4681 30.2417 64.4292 30.1927C64.4047 30.1615 64.3701 30.1463 64.3448 30.1176C64.3262 30.0974 64.3161 30.0695 64.2959 30.0484C64.2477 29.9986 64.1963 29.9817 64.16 29.9184C64.127 29.8602 64.0815 29.7926 64.035 29.7437C63.9886 29.6956 63.9717 29.6441 63.9329 29.5909C63.8882 29.5293 63.8603 29.4601 63.8173 29.3984L63.8004 29.3942C63.775 29.3554 63.775 29.2862 63.7649 29.2406C63.7556 29.1959 63.7641 29.1587 63.7641 29.114C63.7641 29.0245 63.7615 28.935 63.786 28.8489C63.8299 28.6919 63.8713 28.5341 63.9135 28.3771C63.9354 28.2944 63.9743 28.1964 63.9574 28.1112C63.9489 28.0698 63.9422 28.0276 63.9295 27.9879C63.9143 27.9424 63.8907 27.8976 63.8797 27.852C63.8687 27.8098 63.8755 27.8065 63.8493 27.7668C63.835 27.7448 63.8282 27.722 63.8181 27.6976C63.808 27.6722 63.8012 27.6528 63.7961 27.6267C63.7911 27.5988 63.7835 27.5735 63.7767 27.5456C63.7582 27.4646 63.8105 27.3549 63.8324 27.2755L63.8291 27.1962C63.7936 27.143 63.808 27.0594 63.8021 26.9995C63.7936 26.9261 63.8088 26.8737 63.8282 26.802C63.8451 26.7378 63.8806 26.6855 63.8949 26.6213C63.9135 26.5403 63.8603 26.5074 63.8139 26.4517C63.7852 26.4171 63.7489 26.3943 63.7202 26.3614C63.6898 26.3276 63.6653 26.2964 63.629 26.2677C63.5834 26.2322 63.5505 26.1858 63.5049 26.152C63.4484 26.1107 63.3859 26.0769 63.3294 26.0381C63.272 25.9984 63.2154 25.984 63.1487 25.9663L63.1361 25.9452C63.0002 25.9089 62.8659 25.8709 62.7284 25.8524C62.6642 25.8439 62.568 25.8456 62.5064 25.8642C62.4642 25.8777 62.4346 25.8878 62.3899 25.8929C62.3519 25.8971 62.3088 25.9005 62.2717 25.9098C62.2261 25.9216 62.2033 25.9461 62.1552 25.9342C62.1181 25.9258 62.0978 25.9148 62.0742 25.8853C62.0277 25.827 61.9872 25.8152 61.9172 25.7975C61.8471 25.7798 61.8049 25.7249 61.7652 25.6667C61.7332 25.6202 61.6808 25.524 61.6276 25.5029L61.6201 25.4649C61.5804 25.4539 61.5702 25.4185 61.5458 25.3906C61.5154 25.3552 61.4816 25.3231 61.4512 25.2877C61.4352 25.2674 61.4166 25.2505 61.3947 25.237C61.3803 25.2218 61.3719 25.2041 61.3702 25.1838C61.3508 25.1526 61.3263 25.129 61.3077 25.096C61.2655 25.0209 61.2073 24.9703 61.1516 24.9061C61.1212 24.8715 61.1043 24.8276 61.0739 24.7939C61.0477 24.7643 61.014 24.7441 60.9971 24.7069C61.0646 24.82 61.1288 24.939 61.1516 25.069C61.1727 25.1906 61.1972 25.3079 61.2174 25.4295C61.225 25.4734 61.2275 25.5324 61.2098 25.5755C61.182 25.643 61.1178 25.6363 61.0553 25.6211C60.9709 25.6008 60.8747 25.5848 60.8046 25.5341C60.7574 25.5004 60.6983 25.4742 60.6536 25.4354C60.613 25.3999 60.5556 25.367 60.5261 25.324C60.4923 25.2758 60.4425 25.2522 60.4029 25.2092C60.3649 25.1678 60.3336 25.1247 60.2923 25.0859C60.2425 25.0386 60.1944 24.9846 60.1598 24.9272C60.1395 24.8918 60.1125 24.8842 60.0863 24.8563C60.0635 24.831 60.0492 24.7964 60.0323 24.7668C60.0036 24.717 59.9749 24.6681 59.9462 24.6183C59.915 24.5634 59.8922 24.5085 59.8643 24.452L59.8601 24.4689C59.8441 24.441 59.8196 24.4106 59.8103 24.3794C59.7985 24.3372 59.8137 24.3043 59.8246 24.2638C59.8432 24.1962 59.855 24.1312 59.8922 24.0713C59.9217 24.0232 59.9622 23.9742 59.9985 23.9312C60.0357 23.8873 60.0981 23.8805 60.1412 23.9211C60.1977 23.9734 60.2585 24.0392 60.2754 24.1152C60.283 24.149 60.2864 24.1836 60.2881 24.2173C60.2889 24.2418 60.2788 24.279 60.2838 24.3026C60.2931 24.3397 60.3134 24.3245 60.348 24.311C60.3877 24.2967 60.4265 24.2849 60.467 24.2705C60.5134 24.2545 60.5506 24.2283 60.5995 24.2182C60.64 24.2097 60.6468 24.2216 60.6603 24.1768C60.6823 24.1034 60.6637 24.0738 60.6324 24.0071C60.6173 23.9742 60.6189 23.9413 60.6063 23.9084C60.5911 23.8713 60.5708 23.8468 60.5607 23.8063C60.5438 23.7387 60.5143 23.6729 60.4932 23.607C60.4805 23.5699 60.4527 23.5302 60.4501 23.4906C60.4476 23.461 60.4535 23.4315 60.4493 23.4011C60.4358 23.2973 60.429 23.1968 60.4459 23.093C60.4569 23.0246 60.4864 22.9689 60.5151 22.909C60.5185 22.8929 60.5219 22.8769 60.5261 22.8609C60.5303 22.8474 60.5388 22.8355 60.5506 22.8271C60.5641 22.8009 60.5632 22.7714 60.5784 22.7461C60.6206 22.7452 60.6696 22.7688 60.7118 22.7798C60.7667 22.7942 60.8114 22.8068 60.8604 22.833C60.9481 22.8803 61.0266 22.9444 61.1001 23.0145C61.1516 23.0634 61.2166 23.0989 61.2647 23.1495C61.2976 23.185 61.3297 23.2221 61.3626 23.2576C61.3997 23.2981 61.4428 23.3344 61.4723 23.3808C61.4884 23.4061 61.5027 23.4239 61.5238 23.445C61.539 23.4602 61.5635 23.4956 61.5846 23.5015C61.6049 23.5792 61.626 23.656 61.6428 23.7337C61.6631 23.8206 61.6614 23.9067 61.6487 23.9936C61.6276 24.1473 61.8243 24.2021 61.9442 24.2047C62.021 24.2055 62.0818 24.2148 62.1476 24.1608C62.1957 24.1211 62.194 24.0215 62.1831 23.9641C62.1755 23.9278 62.1501 23.9016 62.1409 23.8662C62.129 23.8214 62.1189 23.7936 62.0843 23.7573C62.0607 23.732 62.0278 23.7159 62.0016 23.6931C61.9729 23.6687 61.9492 23.6391 61.9113 23.6281L61.8944 23.6239C61.8496 23.5471 61.8235 23.4678 61.7559 23.4061C61.6918 23.3479 61.6344 23.2762 61.5838 23.2069C61.4825 23.0694 61.4107 22.9166 61.3103 22.7781C61.2664 22.7182 61.2174 22.6574 61.1701 22.5992C61.1423 22.5637 61.122 22.5257 61.0984 22.4869C61.079 22.454 61.0494 22.4278 61.0326 22.3932C60.9625 22.2523 60.9203 22.102 60.8418 21.9661C60.8224 21.929 60.7996 21.864 60.8257 21.8251C60.8604 21.7745 60.911 21.8032 60.9583 21.8167C61.0039 21.8294 61.0553 21.8505 61.1018 21.8564C61.16 21.8631 61.1659 21.8353 61.1786 21.7863C61.198 21.7146 61.1963 21.7095 61.1389 21.6622C61.1043 21.6335 61.0697 21.604 61.0368 21.5719C60.9996 21.5356 60.9616 21.501 60.9211 21.4689C60.8764 21.4335 60.846 21.3904 60.8013 21.355C60.7633 21.3246 60.7245 21.2832 60.6949 21.2452C60.6612 21.2022 60.6417 21.1575 60.5978 21.1186C60.5573 21.0832 60.5278 21.0401 60.4881 21.0038C60.451 20.9692 60.4138 20.9363 60.3767 20.9025C60.3328 20.8629 60.3058 20.8097 60.2594 20.7725C60.2172 20.7388 60.1851 20.6983 60.1547 20.6527C60.1243 20.6079 60.0905 20.5472 60.0542 20.5075C60.0374 20.4889 60.0154 20.478 59.9994 20.4585C59.98 20.4349 59.969 20.4113 59.9462 20.3893L59.9335 20.3682C59.9082 20.3024 59.8635 20.2475 59.8289 20.1867C59.801 20.1378 59.7672 20.0947 59.7065 20.0922C59.6702 20.1277 59.7478 20.2568 59.7613 20.2965C59.7816 20.3547 59.8162 20.4054 59.8381 20.4628C59.8508 20.4957 59.8719 20.5227 59.8854 20.5548C59.8964 20.5826 59.8955 20.6122 59.9065 20.64C59.9268 20.6924 59.9141 20.7337 59.8863 20.781C59.8694 20.8105 59.8626 20.889 59.8289 20.8992C59.7909 20.9101 59.7377 20.8705 59.7082 20.8553C59.66 20.8291 59.6237 20.8223 59.59 20.7734C59.5554 20.7227 59.5225 20.6611 59.4997 20.6037C59.4777 20.5489 59.4406 20.4948 59.4262 20.4374C59.4127 20.3843 59.4093 20.3378 59.3866 20.2872C59.3595 20.2264 59.346 20.1791 59.2903 20.1386C59.2464 20.1057 59.2118 20.0863 59.1586 20.0719C59.0835 20.0525 58.9122 20.039 58.8809 19.9512C58.8641 19.904 58.9189 19.8618 58.9544 19.8356C58.9983 19.8044 59.0346 19.7672 59.0827 19.7436C59.1738 19.698 59.2743 19.6642 59.3705 19.6322C59.4262 19.6127 59.4524 19.5967 59.4676 19.541C59.4802 19.4954 59.4921 19.4507 59.5039 19.4051C59.541 19.3342 59.4355 19.2439 59.3992 19.1941C59.3401 19.1147 59.3064 19.0261 59.281 18.9307C59.2692 18.8868 59.2523 18.848 59.2329 18.8075C59.2203 18.7813 59.216 18.7509 59.2017 18.7256C59.1924 18.7096 59.1764 18.6969 59.1671 18.6809C59.1477 18.6462 59.1308 18.5998 59.1232 18.561C59.1173 18.5323 59.1198 18.5103 59.1055 18.4833C59.0953 18.4656 59.0759 18.4521 59.0666 18.4335C59.0464 18.3922 59.0472 18.3415 59.027 18.2993C59.0084 18.2605 58.9814 18.225 58.9561 18.1904C58.9105 18.1263 58.848 18.0706 58.7906 18.0157C58.7281 17.9558 58.6699 17.8705 58.6235 17.7979C58.5745 17.7228 58.5078 17.6629 58.4597 17.5869L58.4471 17.5658C58.4201 17.5016 58.3019 17.4805 58.2369 17.4763C58.1913 17.4738 58.1457 17.4915 58.1044 17.5092C58.0571 17.5303 58.0039 17.5489 57.9634 17.5801C57.9254 17.6088 57.8916 17.6308 57.8469 17.6477C57.803 17.6646 57.7465 17.7186 57.6992 17.7101C57.6215 17.6958 57.5717 17.5937 57.5346 17.5371C57.5118 17.5025 57.4747 17.44 57.4384 17.4215C57.408 17.4063 57.3632 17.4004 57.3303 17.3919C57.2932 17.3818 57.256 17.3717 57.218 17.3624C57.1834 17.3539 57.1598 17.3598 57.126 17.3565C57.1066 17.3548 57.0906 17.3421 57.0712 17.3413C57.0509 17.3404 57.0281 17.3514 57.0079 17.3556C56.9665 17.3641 56.9243 17.3691 56.8821 17.3708C56.8593 17.3717 56.8374 17.3708 56.8154 17.3801C56.7952 17.3877 56.7867 17.402 56.7648 17.4029C56.7318 17.4046 56.6871 17.3826 56.655 17.3742L56.5926 17.3396C56.4862 17.3109 56.3908 17.2754 56.2895 17.24C56.2507 17.2265 56.2237 17.1986 56.1882 17.18C56.1629 17.1665 56.141 17.164 56.1207 17.1412C56.0979 17.115 56.0836 17.0787 56.0599 17.0517C56.0397 17.0273 56.0169 17.0045 55.9966 16.9808C55.9148 16.8829 55.8438 16.7791 55.7789 16.6685C55.7485 16.6162 55.7316 16.5698 55.7316 16.509C55.7316 16.4541 55.7603 16.3663 55.7206 16.3199C55.6489 16.2355 55.4851 16.3452 55.4083 16.3663C55.3754 16.3748 55.3391 16.379 55.3095 16.3967C55.2851 16.4119 55.2648 16.4355 55.2412 16.4524C55.1905 16.4887 55.1331 16.5242 55.1019 16.5816C55.0774 16.6255 55.0664 16.6871 55.1145 16.7225C55.1517 16.7495 55.2116 16.7377 55.253 16.731C55.3104 16.7217 55.3627 16.6846 55.4193 16.666C55.4674 16.6508 55.5459 16.606 55.5948 16.6187L55.6117 16.6229C55.6801 16.644 55.6885 16.7774 55.7299 16.8247C55.7713 16.8711 55.8489 16.9403 55.8337 17.0078C55.816 17.0872 55.7789 17.1243 55.7096 17.164C55.67 17.1868 55.6303 17.2037 55.5915 17.2282C55.5585 17.2493 55.5459 17.2644 55.5206 17.2948C55.4741 17.3505 55.4378 17.4079 55.3973 17.4679C55.3551 17.5303 55.3045 17.6283 55.2167 17.6207C55.15 17.6148 55.0808 17.5742 55.0436 17.5194C54.9997 17.4544 54.9567 17.3894 54.9179 17.3218C54.7904 17.3413 54.69 17.3978 54.6013 17.489C54.56 17.5312 54.5262 17.5742 54.4933 17.6232C54.4646 17.6654 54.4291 17.7042 54.4047 17.7481C54.354 17.8401 54.2797 17.9769 54.1565 17.9642C54.1109 17.96 54.0611 17.9414 54.0172 17.9288C53.9531 17.9102 53.932 17.8621 53.9007 17.8072C53.8847 17.7794 53.8678 17.7566 53.8492 17.7304C53.8256 17.6992 53.8129 17.6629 53.7901 17.6308C53.7581 17.5869 53.71 17.5287 53.661 17.5067C53.5639 17.4637 53.5057 17.3877 53.488 17.2805C53.4677 17.1632 53.4947 17.0306 53.4365 16.9226C53.4069 16.8686 53.3732 16.812 53.3276 16.7706C53.3023 16.7479 53.2955 16.7436 53.2752 16.7166C53.255 16.6896 53.2195 16.6727 53.2043 16.6432L53.2086 16.6263C53.2474 16.6094 53.2617 16.5765 53.2845 16.5436C53.3099 16.5081 53.3318 16.4693 53.3521 16.4305C53.374 16.3874 53.3791 16.3655 53.4204 16.3326C53.4517 16.3072 53.488 16.2963 53.5209 16.2726C53.5884 16.2237 53.6475 16.1722 53.7083 16.1139C53.7403 16.0835 53.7446 16.0481 53.7192 16.0067C53.6973 15.9713 53.6602 15.9696 53.6222 15.9595C53.4913 15.9249 53.3284 15.8978 53.2271 16.0152C53.1756 16.0751 53.1301 16.1595 53.0684 16.2085C53.0229 16.2448 52.9587 16.2701 52.9072 16.2996C52.8751 16.3182 52.8439 16.3385 52.811 16.3554C52.7772 16.3731 52.7477 16.3689 52.7122 16.3815C52.6962 16.3874 52.6835 16.4018 52.6658 16.4077C52.6447 16.4144 52.6287 16.4094 52.6084 16.4136C52.5713 16.4203 52.5375 16.449 52.4995 16.4499C52.459 16.4507 52.4278 16.4322 52.3982 16.4077C52.3737 16.3866 52.3383 16.3663 52.3256 16.3351C52.3071 16.2895 52.3231 16.2169 52.3358 16.1705C52.3526 16.1089 52.3687 16.0464 52.3856 15.9839C52.4033 15.9198 52.4311 15.8599 52.405 15.794C52.3898 15.7552 52.3661 15.7197 52.3577 15.6775C52.3501 15.6387 52.3577 15.6345 52.383 15.6041C52.4303 15.5467 52.502 15.5121 52.5704 15.4809C52.6396 15.4496 52.7004 15.4091 52.7722 15.3796C52.8118 15.3627 52.8194 15.3416 52.8473 15.3112C52.8701 15.2867 52.903 15.2715 52.9266 15.2487C52.9849 15.1913 52.9427 15.1187 52.903 15.0622C52.8819 15.0318 52.8566 15.0031 52.8363 14.9719C52.8169 14.9423 52.8101 14.9018 52.7662 14.8993L52.7494 14.8951C52.7316 14.8385 52.6346 14.7921 52.5822 14.7777C52.5215 14.7608 52.4607 14.7465 52.3999 14.7296C52.3391 14.7127 52.2961 14.7043 52.2345 14.7254C52.2007 14.7372 52.1652 14.7507 52.1332 14.7659C52.1138 14.7752 52.0977 14.7938 52.0758 14.7988C52.0243 14.8098 51.9517 14.7718 51.9002 14.7583C51.8386 14.7414 51.777 14.7254 51.7153 14.7085C51.6571 14.6925 51.6039 14.6739 51.5431 14.6756C51.4883 14.6764 51.4283 14.6815 51.3752 14.6933C51.2739 14.7161 51.1363 14.7693 51.0721 14.852C51.013 14.9271 50.9278 14.9913 50.8307 14.9584C50.7244 14.9229 50.7269 14.803 50.7573 14.7119C50.7683 14.6773 50.7877 14.6342 50.8155 14.6089C50.8442 14.5827 50.894 14.5701 50.9278 14.5498C50.9827 14.5169 51.0392 14.5118 51.0958 14.4865C51.1439 14.4654 51.1743 14.4308 51.2089 14.3945C51.2671 14.3337 51.3422 14.2814 51.4106 14.2324C51.4511 14.2029 51.4967 14.1809 51.5398 14.1548C51.5955 14.1219 51.6107 14.0948 51.6267 14.0332C51.6436 13.9674 51.6824 13.8897 51.6638 13.8214C51.6351 13.7226 51.4992 13.7386 51.4182 13.7217C51.3777 13.7142 51.3389 13.7184 51.2992 13.7091C51.2671 13.7015 51.2334 13.693 51.2013 13.6829C51.0764 13.6441 51.1388 13.5369 51.2139 13.4829C51.257 13.4516 51.3026 13.4272 51.3465 13.3959C51.3963 13.3605 51.4545 13.3411 51.5119 13.3225C51.5929 13.2963 51.6925 13.2752 51.7584 13.3487C51.782 13.3748 51.8048 13.4162 51.8166 13.4499C51.836 13.5065 51.8327 13.5259 51.8943 13.5445C51.9719 13.5681 52.0867 13.5766 52.1585 13.5268C52.1999 13.4981 52.2142 13.4533 52.2733 13.4508C52.3189 13.4491 52.3434 13.4922 52.3864 13.4964L52.4033 13.5006C52.4607 13.5149 52.4404 13.5901 52.4244 13.6281C52.3923 13.7057 52.3324 13.7302 52.264 13.7656C52.1788 13.8095 52.0226 13.8956 52.0479 14.0062C52.0741 14.1143 52.2184 14.1506 52.3147 14.1598C52.3653 14.1641 52.4126 14.1556 52.4632 14.1666C52.5181 14.1793 52.5544 14.2046 52.5966 14.2392C52.6599 14.2907 52.7789 14.365 52.8431 14.2696C52.8886 14.202 52.8388 14.1337 52.8042 14.0754C52.7451 13.9758 52.7603 13.8678 52.7502 13.758C52.7443 13.6905 52.708 13.5766 52.7907 13.5546C52.8549 13.5377 52.9536 13.5681 53.0127 13.5926C53.0532 13.6086 53.0676 13.6281 53.0862 13.666C53.1106 13.7158 53.1436 13.7631 53.1647 13.8146C53.1883 13.8728 53.2153 13.9226 53.2474 13.9775C53.271 14.018 53.3031 14.0459 53.3326 14.0805C53.3563 14.1083 53.3613 14.1337 53.3968 14.1489C53.4306 14.1624 53.4711 14.1674 53.5065 14.1776C53.5808 14.1978 53.6754 14.2147 53.7412 14.1607C53.7766 14.1311 53.7851 14.0788 53.7961 14.0383C53.807 13.9986 53.8231 13.9589 53.8155 13.9167C53.8011 13.8357 53.7378 13.7597 53.6889 13.699C53.6365 13.6356 53.6112 13.5529 53.5614 13.4879C53.5268 13.4432 53.4837 13.417 53.4525 13.3689C53.428 13.3309 53.4002 13.2946 53.374 13.2575C53.3461 13.2187 53.3276 13.2035 53.347 13.1528C53.3622 13.1123 53.3867 13.0718 53.4103 13.0355C53.466 12.9528 53.5589 12.8852 53.6475 12.843C53.7209 12.8067 53.7876 12.7578 53.7834 12.6649C53.7091 12.6227 53.6239 12.6388 53.5496 12.6708C53.5107 12.6877 53.4753 12.7063 53.4365 12.7223C53.3934 12.7401 53.3605 12.7721 53.3191 12.7907L53.2845 12.7797C53.2921 12.7249 53.2651 12.6607 53.2617 12.6067C53.2584 12.5535 53.266 12.5062 53.2803 12.4556C53.2904 12.4201 53.2972 12.3847 53.3132 12.3518C53.3402 12.2952 53.3546 12.2496 53.374 12.1889C53.3892 12.1407 53.4196 12.1036 53.4339 12.0555C53.4491 12.0065 53.455 11.9626 53.4863 11.9196C53.5243 11.8673 53.5825 11.8234 53.6331 11.7837C53.6998 11.7305 53.7564 11.7153 53.8332 11.6858C53.8796 11.6672 53.9218 11.6495 53.9733 11.6765C54.0172 11.6993 54.0113 11.7322 54.0299 11.7736C54.0712 11.8698 54.0662 11.9643 54.0982 12.0631C54.1151 12.1137 54.1379 12.2066 54.1843 12.2387C54.2097 12.2555 54.2561 12.2614 54.2848 12.2682C54.3245 12.2766 54.3523 12.2699 54.3911 12.2733C54.4393 12.2766 54.4848 12.291 54.5346 12.2876C54.587 12.2842 54.6359 12.2395 54.6883 12.2598C54.7271 12.2741 54.7575 12.3222 54.7794 12.3551C54.8318 12.4345 54.8655 12.556 54.9508 12.6075C55.0183 12.648 55.0453 12.6345 55.0647 12.5695C55.0732 12.5417 55.0842 12.5121 55.0833 12.4834C55.0825 12.4623 55.0715 12.4421 55.0698 12.4201C55.0681 12.394 55.0766 12.3678 55.0749 12.3416C55.0723 12.3112 55.0639 12.275 55.0546 12.2454C55.0209 12.1306 55.0014 12.0259 54.8748 11.9896C54.8394 11.9795 54.7972 11.9609 54.7609 11.9601C54.7094 11.9593 54.6469 11.9939 54.5963 12.0065C54.5194 12.0268 54.4764 12.0504 54.3979 12.0226C54.3397 12.0023 54.3439 11.9854 54.3169 11.9314C54.2932 11.8833 54.2814 11.8453 54.2704 11.7921C54.2595 11.7381 54.2578 11.7212 54.273 11.6664C54.2865 11.6166 54.2865 11.5727 54.3321 11.544C54.3717 11.5186 54.4359 11.5153 54.4798 11.4933C54.5228 11.4714 54.5684 11.457 54.6115 11.4359C54.6697 11.4081 54.6925 11.3751 54.7364 11.3304C54.8039 11.2612 54.8664 11.1683 54.8925 11.073C54.9128 10.9978 54.9094 10.9303 54.9288 10.8535C55.0723 10.7724 55.2057 10.7522 55.3686 10.7598C55.4758 10.7649 55.5864 10.7716 55.6944 10.7446C55.7603 10.7286 55.8143 10.6855 55.8776 10.661C55.9435 10.6357 56.0177 10.5859 56.0675 10.5344C56.1714 10.4264 56.2558 10.2879 56.2929 10.1444C56.3064 10.0929 56.3208 10.0423 56.3343 9.99081C56.352 9.92666 56.3908 9.84562 56.3883 9.77978C56.3849 9.7207 56.3613 9.68102 56.3098 9.66077C56.26 9.64135 56.1832 9.64979 56.1393 9.68356C56.1064 9.70888 56.0794 9.75024 56.0473 9.77978C56.0177 9.80679 55.9789 9.83718 55.9527 9.86588C55.9367 9.88361 55.9359 9.88614 55.9207 9.90724C55.8962 9.94016 55.8835 9.95283 55.854 9.98153C55.7721 10.0617 55.7409 10.174 55.6117 10.1968C55.4834 10.2204 55.4412 10.055 55.4522 9.95789C55.4572 9.91062 55.4775 9.8701 55.4615 9.82283C55.4395 9.75615 55.3948 9.73251 55.3315 9.71985C55.2538 9.70381 55.2395 9.74433 55.1694 9.7705C55.1264 9.78654 55.0529 9.7992 55.0065 9.79582C54.9381 9.78991 54.9069 9.74433 54.8807 9.68693C54.8706 9.66498 54.8799 9.64895 54.8655 9.62278C54.8529 9.59999 54.8157 9.57129 54.7963 9.55356C54.6039 9.38221 54.3768 9.62025 54.1658 9.60759C54.0873 9.60337 54.1008 9.57045 54.1185 9.50798C54.1329 9.45818 54.1371 9.38643 54.1607 9.34085C54.1911 9.28429 54.2544 9.29864 54.3017 9.25897C54.3405 9.22689 54.3439 9.18131 54.3557 9.13404C54.3861 9.01418 54.4595 8.93315 54.5946 8.92808C54.6748 8.92471 54.7769 8.97198 54.8529 8.99392C54.917 9.0108 54.9829 9.026 55.0462 9.04626C55.0909 9.05976 55.1255 9.08678 55.1686 9.10281C55.2707 9.14164 55.3863 9.1619 55.4919 9.18976L55.513 9.19567C55.6193 9.2269 55.735 9.21339 55.8413 9.23787C55.9603 9.26573 56.0642 9.28936 56.1874 9.25813C56.2515 9.24124 56.3174 9.21761 56.3815 9.20073C56.4524 9.18132 56.4938 9.1332 56.5521 9.091C56.5824 9.06905 56.6196 9.06061 56.6483 9.03782C56.677 9.01503 56.6922 8.99223 56.7226 8.97113C56.7521 8.95087 56.7656 8.92471 56.7909 8.90276C56.8213 8.87659 56.8559 8.87237 56.8914 8.85549L56.9243 8.81835L56.9302 8.79725C57.018 8.73985 57.094 8.6681 57.186 8.61408C57.2814 8.55836 57.3691 8.49084 57.4654 8.43513C57.6426 8.3313 57.8258 8.29332 58.0259 8.26546C58.1196 8.2528 58.2166 8.27053 58.3112 8.25787C58.361 8.25111 58.3947 8.23845 58.4462 8.23845C58.491 8.23845 58.5306 8.22072 58.5712 8.20638C58.74 8.1456 58.9155 8.03249 58.9983 7.86198L58.9924 7.88308C59.0202 7.95146 59.1325 7.80796 59.1502 7.78854C59.1907 7.74465 59.2034 7.69569 59.2186 7.63998C59.2473 7.52856 59.2793 7.41798 59.3089 7.30741C59.3249 7.24579 59.3376 7.2078 59.3781 7.15884C59.411 7.11917 59.4355 7.06177 59.4575 7.0145C59.5089 6.90561 59.4954 6.75789 59.5545 6.65322C59.5908 6.58738 59.687 6.6068 59.7428 6.64056C59.801 6.67602 59.8035 6.73595 59.8086 6.79672C59.8145 6.86172 59.8187 6.91827 59.8162 6.98242C59.8137 7.04404 59.8061 7.10229 59.8078 7.16306C59.8103 7.23312 59.7968 7.26689 59.8711 7.29052C59.9361 7.31078 59.9825 7.32682 60.0399 7.27871C60.0787 7.24663 60.115 7.18501 60.1471 7.14365C60.18 7.1006 60.2349 7.03138 60.2492 6.97736C60.3151 6.93853 60.3328 6.75452 60.3522 6.68277C60.3716 6.61186 60.3843 6.55615 60.4256 6.49622C60.4679 6.4346 60.5134 6.37973 60.5632 6.32487C60.6611 6.21851 60.7295 6.08514 60.7591 5.94249C60.7726 5.87496 60.7776 5.80743 60.7363 5.75172C60.678 5.67238 60.6088 5.64874 60.5168 5.62342C60.3834 5.58796 60.2036 5.57868 60.191 5.40986C60.18 5.27143 60.2602 5.13637 60.1851 5.003C60.1429 4.92956 60.0796 4.92957 60.0019 4.90846C59.9504 4.89496 59.8879 4.86457 59.8365 4.86204C59.7774 4.8595 59.6963 4.89496 59.6474 4.92703C59.6077 4.95236 59.5765 4.98696 59.5385 5.01398C59.503 5.0393 59.4591 5.05112 59.4271 5.08066C59.379 5.12455 59.3342 5.17858 59.2912 5.22838C59.2355 5.29337 59.1637 5.3533 59.1257 5.43181L59.1046 5.4259C59.0801 5.49849 58.9966 5.53394 59.0177 5.62089C59.0388 5.70276 59.0776 5.77704 59.1122 5.85386C59.1586 5.95431 59.1553 6.08599 59.1266 6.19066C59.0936 6.30714 59.0633 6.42363 59.032 6.54011C59.0177 6.59329 59.0042 6.64647 58.989 6.69965C58.9755 6.74692 58.9662 6.7714 58.9788 6.81782C58.9848 6.84062 59 6.86678 59.0076 6.88789C59.0498 7.00944 59.1223 7.15378 59.0261 7.26858C58.9501 7.3589 58.832 7.36649 58.7273 7.32598C58.6632 7.30065 58.61 7.21962 58.5762 7.15715C58.55 7.10904 58.55 7.05839 58.5441 7.00522C58.5315 6.88957 58.55 6.7925 58.5804 6.68108C58.6328 6.48778 58.7611 6.23455 58.5863 6.06573C58.5433 6.02437 58.4724 6.00833 58.4125 6.00326C58.3677 5.99989 58.3078 5.98976 58.263 6.00242C58.2217 6.01424 58.1685 6.03872 58.128 6.05729C58.079 6.08008 58.0394 6.13157 57.9955 6.15942C57.8781 6.23286 57.787 6.20078 57.662 6.16449C57.5658 6.13663 57.4434 6.06151 57.3902 5.97625C57.3658 5.93574 57.3058 5.86399 57.321 5.81925C57.3354 5.7762 57.4147 5.74581 57.4536 5.74413C57.5439 5.73906 57.6384 5.74159 57.7296 5.74075C57.7946 5.73906 57.8579 5.72133 57.9102 5.67913C57.9575 5.6403 57.9465 5.60907 57.9482 5.55167C57.9516 5.44278 57.9718 5.32545 57.8604 5.25539C57.7819 5.20559 57.6629 5.20643 57.5768 5.19883C57.5287 5.19461 57.4839 5.18617 57.4341 5.18533C57.3843 5.18448 57.3312 5.20137 57.2822 5.18786L57.2552 5.2039C57.1801 5.18786 57.1041 5.29844 57.0298 5.31448C56.9598 5.33051 56.8424 5.27902 56.7833 5.24273C56.7226 5.20643 56.6576 5.15832 56.6154 5.10092C56.5715 5.04014 56.601 4.98443 56.6187 4.91859C56.6365 4.8536 56.6559 4.78944 56.6728 4.72445C56.6922 4.64595 56.6415 4.60374 56.5723 4.58264C56.5174 4.56576 56.4643 4.54887 56.4086 4.54972C56.3554 4.55056 56.2971 4.56322 56.244 4.56154C56.2186 4.56069 56.1722 4.55141 56.1511 4.54043C56.1114 4.52017 56.1199 4.50751 56.1148 4.46531C56.1064 4.40031 56.0979 4.33532 56.0937 4.26948C56.0836 4.1378 55.9266 4.13948 55.8438 4.05929C55.7493 3.96898 55.984 3.83476 56.049 3.79762C56.103 3.76639 56.4077 3.66847 56.287 3.56381C56.2642 3.54439 56.2195 3.54101 56.1925 3.52076C56.168 3.50303 56.1469 3.48277 56.1216 3.46589C56.0734 3.43381 56.0203 3.41778 55.9705 3.39076C55.9013 3.35278 55.8599 3.37135 55.816 3.29876C55.7991 3.27006 55.7822 3.24558 55.7746 3.2135C55.7662 3.17805 55.7746 3.15019 55.7485 3.11981C55.8109 3.07507 55.8827 3.09111 55.9494 3.05988C55.9983 3.03708 56.0599 3.00416 56.0903 2.96027C56.1199 2.91722 56.1292 2.87164 56.1486 2.82521C56.1705 2.77288 56.1975 2.73236 56.2127 2.67412C56.2448 2.55257 56.2684 2.47238 56.1874 2.36433C56.13 2.28668 56.027 2.25882 55.9291 2.27655C55.8675 2.28837 55.7915 2.34154 55.7291 2.33563C55.6877 2.33226 55.6413 2.29512 55.6083 2.27233C55.5366 2.22252 55.4952 2.11786 55.4446 2.04948C55.3737 1.95579 55.2715 1.90345 55.1728 1.84352C55.0732 1.78443 54.9736 1.76249 54.8968 1.67132C54.8461 1.61139 54.7111 1.47465 54.7693 1.38855C54.8436 1.27966 54.9584 1.34297 55.0445 1.38433C55.0968 1.40881 55.1441 1.41725 55.1905 1.45692C55.2302 1.49069 55.2648 1.54555 55.3095 1.57172C55.3661 1.60548 55.4724 1.62912 55.5349 1.60971C55.6016 1.58776 55.6396 1.5464 55.6767 1.49069C55.7105 1.44004 55.7316 1.42569 55.7974 1.40796C55.8717 1.38771 55.9637 1.43075 56.038 1.45186C56.1199 1.47465 56.233 1.49153 56.314 1.45355C56.3883 1.41894 56.4128 1.28557 56.4254 1.21044C56.4339 1.15558 56.4153 1.10493 56.4212 1.04922C56.4263 0.99773 56.4212 0.961434 56.4077 0.909099C56.3849 0.822157 56.3714 0.735214 56.3706 0.645739C56.3689 0.57399 56.3571 0.504773 56.341 0.435556C56.3301 0.389131 56.3258 0.322448 56.3039 0.281087C56.2786 0.234661 56.2355 0.188234 56.2077 0.141809C56.1781 0.0920067 56.1308 0.0523344 56.1072 0L56.0802 0.0160372C56.0287 0.000843344 55.9519 0.0785014 55.9072 0.0970717C55.8582 0.11733 55.7957 0.110577 55.7426 0.120707C55.6252 0.143497 55.5113 0.173042 55.3939 0.198365C55.2766 0.223688 55.1627 0.257451 55.042 0.270113C54.9685 0.27771 54.8959 0.265049 54.8233 0.266737C54.7482 0.269269 54.6731 0.283618 54.5988 0.287839C54.3616 0.303033 54.1396 0.362121 53.9041 0.409391C53.7724 0.436402 53.6323 0.465102 53.5091 0.514904C53.4382 0.543603 53.3597 0.560484 53.2837 0.575678C53.2229 0.58834 53.1824 0.611975 53.1284 0.642363L53.1073 0.636454C53.0372 0.655868 52.9891 0.662621 52.9275 0.703138C52.887 0.729306 52.8523 0.760537 52.8127 0.788393C52.7224 0.851701 52.681 0.947084 52.6253 1.04078C52.5206 1.22142 52.3383 1.33284 52.1906 1.47549C52.1475 1.51685 52.1062 1.54724 52.0606 1.58438C52.0378 1.60295 52.0302 1.62743 52.004 1.64516C51.9821 1.66035 51.9525 1.66373 51.9297 1.67639C51.8867 1.69834 51.8588 1.73885 51.8175 1.76249C51.7592 1.79541 51.6858 1.80385 51.625 1.83424C51.5355 1.87982 51.4435 1.91443 51.3591 1.96929C51.3135 1.99884 51.2713 2.03007 51.2266 2.06214C51.1903 2.08747 51.1388 2.10013 51.1363 2.15246L51.1152 2.14655C51.0401 2.20817 51.0038 2.20902 50.9168 2.18454C50.8755 2.17357 50.8316 2.16681 50.7936 2.14655C50.7615 2.12967 50.7463 2.11617 50.7109 2.10604C50.6475 2.08747 50.6045 2.06468 50.5463 2.03767C50.4965 2.01487 50.4272 2.00728 50.3749 1.99293C50.3124 1.97605 50.25 1.95579 50.1875 1.94228C50.1166 1.92709 50.0474 1.92709 49.9748 1.90767C49.9123 1.89164 49.844 1.8891 49.779 1.88235C49.7038 1.8756 49.6169 1.88319 49.5477 1.90683C49.3983 1.96001 49.2641 2.04273 49.2143 2.20142C49.1763 2.32382 49.1256 2.46563 49.1138 2.59393C49.0986 2.76022 49.1695 2.90034 49.2084 3.05819C49.2244 3.12234 49.2286 3.18902 49.2463 3.25233C49.2641 3.31226 49.2987 3.37895 49.27 3.44141L49.2641 3.46251C49.2446 3.53342 49.2362 3.61276 49.1906 3.67185C49.1391 3.73938 49.0691 3.7858 49.0159 3.84996C48.9441 3.93605 48.8521 3.97826 48.7627 4.03988C48.6901 4.08968 48.6225 4.1302 48.5415 4.16396C48.3702 4.23824 48.1853 4.27792 48.0055 4.31759C47.9042 4.33954 47.808 4.37499 47.705 4.38005C47.6172 4.38512 47.5244 4.41719 47.4383 4.43492C47.3513 4.45349 47.277 4.48979 47.1935 4.52271C47.1074 4.55732 47.0086 4.58011 46.9267 4.62231C46.8609 4.65692 46.7984 4.71263 46.7469 4.76328C46.7106 4.79957 46.671 4.82658 46.6381 4.86626C46.6077 4.90171 46.5764 4.94391 46.5486 4.9819C46.5081 5.03761 46.4608 5.07559 46.4177 5.13046C46.3899 5.16507 46.3494 5.20137 46.33 5.2402C46.3139 5.27227 46.3097 5.29506 46.2869 5.32376C46.1949 5.44109 46.1392 5.58881 46.1004 5.73399L5.80033 6.13494L0.764404 24.6926L1.42534 25.6937L15.6915 25.5333C15.6746 25.5755 15.7017 25.632 15.7076 25.6751C15.7143 25.7198 15.7135 25.7637 15.7185 25.8085C15.7261 25.8819 15.7211 25.9477 15.727 26.0195C15.7439 26.1959 15.7405 26.3791 15.7675 26.558C15.77 26.5724 15.7743 26.623 15.781 26.634C15.8072 26.6787 15.8477 26.6551 15.8941 26.661C15.9574 26.6686 16.025 26.6973 16.0874 26.715C16.1288 26.726 16.1811 26.7513 16.2242 26.753C16.2655 26.7547 16.2908 26.748 16.3339 26.7572C16.409 26.7733 16.4858 26.7657 16.5601 26.742C16.6403 26.7159 16.7475 26.65 16.8193 26.6028C16.9003 26.5487 16.8775 26.4702 16.9222 26.3901C16.9484 26.3428 16.9855 26.2862 17.0193 26.244C17.0868 26.1596 17.1729 26.1757 17.2633 26.1495C17.4143 26.1047 17.4338 25.8963 17.4667 25.7688C17.4844 25.6996 17.5156 25.6194 17.5528 25.5578C17.5697 25.5291 17.6051 25.4776 17.6321 25.459C17.6676 25.4345 17.7148 25.4421 17.7511 25.421L36.7494 25.0969L37.017 25.5434L45.4276 25.313L45.5796 28.5695L46.9664 28.7037C46.9622 28.7662 46.9664 28.8793 46.99 28.9367L46.9943 28.9207C46.9824 28.9671 46.9774 29.0076 46.9799 29.0566C46.9808 29.0802 46.9825 29.1038 46.9816 29.1283C46.9808 29.1663 46.9951 29.1984 46.996 29.2347C46.9976 29.298 46.99 29.363 46.9892 29.4263C46.9884 29.4896 46.9985 29.5554 46.9951 29.6179C46.9943 29.6441 46.9867 29.6677 46.9867 29.6947C46.9867 29.7141 46.9934 29.7361 46.9926 29.7555C46.9917 29.7834 46.9774 29.8087 46.9782 29.8374C46.9782 29.8635 46.9917 29.8863 46.99 29.9125C46.9884 29.942 46.9833 29.9674 46.9841 29.9986C46.985 30.0205 46.9867 30.0467 46.9833 30.0695C46.9749 30.1227 46.9639 30.175 46.9588 30.2282C46.9462 30.3523 46.9884 30.489 47.0306 30.6047C47.0424 30.6384 47.0407 30.6756 47.0567 30.7068C47.0694 30.733 47.0913 30.7541 47.1048 30.7802C47.1386 30.8469 47.1774 30.9026 47.223 30.9617C47.2534 31.0014 47.315 31.0385 47.3623 31.0579C47.3893 31.0689 47.4197 31.0706 47.4476 31.0807C47.4788 31.0934 47.505 31.1103 47.5362 31.1221C47.586 31.1415 47.6282 31.1643 47.6805 31.1787C47.7447 31.1955 47.8088 31.2133 47.873 31.231C47.9988 31.2648 48.1195 31.2808 48.2452 31.3146C48.3668 31.3475 48.4875 31.3804 48.609 31.4133L48.6251 31.4175C48.6504 31.4749 48.7162 31.5053 48.7449 31.5577C48.7686 31.6007 48.7871 31.6488 48.8116 31.6927C48.8336 31.7315 48.8437 31.7712 48.8597 31.8126C48.8851 31.8809 48.891 31.9459 48.9087 32.0152C48.9298 32.0928 48.9509 32.1671 48.9737 32.2439C48.9939 32.3106 49.0041 32.384 49.0294 32.4499C49.0454 32.4895 49.064 32.5292 49.0809 32.568C49.0961 32.6027 49.1028 32.6288 49.1121 32.6643C49.1189 32.6896 49.1332 32.7141 49.14 32.7394C49.1484 32.774 49.1484 32.8086 49.1577 32.8424C49.1653 32.8719 49.1737 32.9074 49.1847 32.9352C49.1965 32.9631 49.2176 32.9893 49.2151 33.0205C49.2885 32.9867 49.3865 33.0112 49.4641 32.9867C49.5426 32.9606 49.5831 32.9977 49.6355 33.0551C49.6811 33.1057 49.7292 33.2315 49.8051 33.2374C49.8963 33.2442 49.9292 33.1572 49.9731 33.0948C50.0187 33.0298 50.0508 32.9555 50.0938 32.888C50.1318 32.828 50.1774 32.7377 50.2508 32.7166C50.3335 32.693 50.3428 32.7867 50.3504 32.8449C50.3606 32.92 50.3217 32.9884 50.3369 33.0635C50.3639 33.0728 50.4205 33.0154 50.4433 32.9994C50.4711 32.98 50.5007 32.9648 50.5268 32.9437C50.5606 32.9175 50.6053 32.8972 50.6349 32.866C50.6585 32.8407 50.6737 32.8078 50.6974 32.7824C50.7472 32.7284 50.7995 32.6795 50.8417 32.6178C50.8822 32.5588 50.959 32.4904 50.97 32.4178L50.9742 32.4009C51.0097 32.3275 51.0468 32.2633 51.0704 32.1848C51.0823 32.1443 51.1059 32.1122 51.1202 32.0726C51.1338 32.0354 51.1405 31.9941 51.1506 31.9569C51.1979 31.7805 51.2815 31.6277 51.3667 31.469C51.4326 31.3449 51.4722 31.1601 51.4115 31.0284C51.3752 30.9499 51.3237 30.8815 51.2924 30.8013C51.2578 30.7136 51.2722 30.6663 51.3135 30.5878C51.3346 30.5464 51.3541 30.5203 51.3861 30.4873C51.414 30.4586 51.4444 30.4443 51.4739 30.419C51.5305 30.3725 51.5752 30.3134 51.6115 30.251C51.674 30.1421 51.7001 30.2628 51.7061 30.332C51.7128 30.4055 51.7288 30.4755 51.7348 30.5481C51.7398 30.5996 51.7609 30.6342 51.7744 30.6832C51.7829 30.7161 51.7803 30.7498 51.7871 30.7836C51.8048 30.8689 51.8327 30.9507 51.8445 31.0368C51.858 31.128 51.8664 31.2209 51.8808 31.3112C51.8875 31.3483 51.9002 31.3787 51.9095 31.4142C51.9213 31.4572 51.9053 31.4969 51.8943 31.5382C51.8614 31.6539 51.8344 31.7721 51.8006 31.8869C51.7761 31.9704 51.7187 32.0346 51.6638 32.1004C51.62 32.1536 51.5313 32.2161 51.5246 32.2912L51.5026 32.3038C51.4967 32.3275 51.4739 32.3317 51.4587 32.3469C51.4393 32.3655 51.425 32.3899 51.4056 32.4085C51.3802 32.433 51.3549 32.4541 51.3313 32.4803C51.2958 32.5191 51.2713 32.5419 51.2587 32.5934C51.246 32.6449 51.2308 32.6955 51.2173 32.7462C51.1692 32.9251 51.1523 33.1479 50.9784 33.2476C50.8738 33.3075 50.7792 33.3843 50.6813 33.4535C50.6568 33.4712 50.6281 33.4831 50.6045 33.5016C50.5775 33.5236 50.5572 33.5523 50.5311 33.5751C50.5057 33.597 50.4754 33.608 50.4526 33.6333C50.4348 33.6527 50.4222 33.6747 50.4053 33.6949C50.3411 33.7709 50.266 33.8443 50.196 33.9152C50.1352 33.9785 50.1191 34.0655 50.0955 34.1491L50.1284 34.2318C50.2263 34.2596 50.3141 34.3035 50.3859 34.3803C50.4745 34.474 50.5581 34.5821 50.6374 34.6817C50.6737 34.7273 50.7092 34.7644 50.7539 34.8024C50.7961 34.8378 50.856 34.8741 50.889 34.9189C50.9227 34.9636 50.9118 35.0126 50.9236 35.0624C50.9396 35.1291 50.9312 35.1907 50.9354 35.2574C50.9396 35.3114 50.9548 35.3646 50.9624 35.4177C50.97 35.4692 50.9936 35.5089 50.9979 35.5604C51.0088 35.6895 51.0409 35.8119 51.0426 35.9419C51.0443 36.0626 51.078 36.1859 51.0831 36.3083C51.0856 36.3606 51.0983 36.4096 51.1025 36.4611C51.1067 36.5117 51.1194 36.5809 51.1118 36.6307C51.1481 36.6332 51.1962 36.6797 51.2224 36.7016C51.2663 36.7379 51.311 36.77 51.3574 36.8038C51.3954 36.8308 51.4317 36.862 51.4714 36.8856C51.5178 36.9135 51.5533 36.9076 51.5794 36.9591C51.6039 37.008 51.6335 37.0739 51.647 37.1271C51.6588 37.1726 51.6731 37.2148 51.6849 37.2596C51.7128 37.3676 51.7533 37.474 51.7711 37.5854C51.7854 37.6774 51.8023 37.7694 51.8133 37.8614C51.831 37.9948 51.8951 38.1231 51.9162 38.2573C51.9264 38.3198 51.9449 38.378 51.9593 38.4396C51.9652 38.465 51.966 38.4886 51.9745 38.5122C51.9829 38.5342 51.9981 38.5511 52.0032 38.5755C52.0141 38.6245 52.0344 38.6642 52.0471 38.7131C52.058 38.7553 52.1078 38.8136 52.0867 38.8575C52.1568 38.887 52.2058 38.7958 52.2606 38.7731C52.3332 38.7435 52.4168 38.7494 52.4902 38.7249C52.5459 38.7064 52.5746 38.6929 52.5915 38.6372C52.6092 38.5781 52.6211 38.524 52.6227 38.465C52.6236 38.432 52.6329 38.4076 52.6295 38.3746C52.627 38.3417 52.6211 38.308 52.6143 38.2759C52.5983 38.2067 52.567 38.1856 52.5164 38.14C52.4581 38.0876 52.3206 37.9019 52.4345 37.8378C52.475 37.8141 52.5409 37.8496 52.5822 37.8606C52.6354 37.8749 52.6751 37.9019 52.7257 37.9188C52.8118 37.9475 52.8929 37.9948 52.9882 38.0083C53.0895 38.0218 53.2339 38.0302 53.2693 37.9121C53.2837 37.8656 53.3056 37.815 53.2862 37.7677C53.2626 37.7112 53.2238 37.6766 53.1739 37.6445C53.125 37.6141 53.0929 37.6073 53.0735 37.5483C53.0583 37.5018 53.0735 37.463 53.0862 37.4174C53.109 37.3339 53.1301 37.2503 53.1545 37.1667C53.1891 37.0443 53.1469 36.927 53.098 36.813C53.0532 36.7084 53.0144 36.6003 52.9849 36.4898C52.9714 36.4391 52.9562 36.337 53.0144 36.3057C53.0507 36.2855 53.109 36.3015 53.1469 36.3024C53.1976 36.3032 53.2668 36.2821 53.3107 36.3167C53.3521 36.3488 53.3546 36.4197 53.3723 36.4644C53.3934 36.5193 53.4044 36.564 53.4187 36.6214C53.4306 36.667 53.4365 36.7134 53.4508 36.7582C53.4795 36.8451 53.4896 36.9405 53.5015 37.0317C53.5107 37.0992 53.5327 37.1583 53.542 37.2241C53.5496 37.2773 53.5546 37.3305 53.5648 37.3837C53.5707 37.4166 53.5783 37.4495 53.5884 37.4807C53.6112 37.5491 53.612 37.6133 53.6264 37.6816C53.65 37.793 53.688 37.9019 53.7091 38.0151C53.7184 38.0657 53.7327 38.1231 53.7319 38.1737C53.7311 38.2295 53.704 38.2902 53.6897 38.3434C53.6804 38.3797 53.6745 38.4295 53.6551 38.4624C53.6264 38.5114 53.5631 38.5477 53.5158 38.5755C53.4609 38.6085 53.4061 38.6321 53.3478 38.6591C53.2778 38.692 53.2246 38.7401 53.1604 38.7815C53.0592 38.8465 52.9393 38.8946 52.881 39.0069C52.8692 39.0305 52.8397 39.1149 52.8616 39.1385C52.8827 39.1613 52.9308 39.1487 52.957 39.1478C53.1166 39.1419 53.2415 39.2424 53.336 39.3622C53.3698 39.4044 53.3993 39.4526 53.4356 39.4922C53.4736 39.5353 53.4939 39.5167 53.4947 39.4644C53.4956 39.4171 53.4905 39.3614 53.488 39.3141C53.4854 39.2744 53.4719 39.2348 53.4761 39.1959C53.4989 39.0001 53.65 38.8516 53.8096 38.757C53.8931 38.7072 53.9809 38.7097 54.0358 38.6203C54.0864 38.5375 54.1042 38.4422 54.1565 38.3594C54.1919 38.302 54.246 38.2953 54.3 38.2641C54.3405 38.2404 54.3717 38.2134 54.4156 38.1957C54.5135 38.156 54.625 38.1526 54.7296 38.1594C54.8107 38.1645 54.8799 38.1889 54.9601 38.2058C55.058 38.2261 55.0968 38.1501 55.1188 38.0632C55.1331 38.0075 55.1593 37.9652 55.1779 37.9129C55.1939 37.8673 55.1998 37.8209 55.2395 37.7888C55.307 37.7348 55.3897 37.7314 55.4167 37.642C55.4361 37.5778 55.426 37.5153 55.4319 37.4503C55.4378 37.3862 55.4665 37.3153 55.4843 37.2528L55.5493 37.1726C55.5847 37.1777 55.6109 37.2064 55.6455 37.2174C55.6809 37.2283 55.7189 37.2359 55.7552 37.2461C55.8624 37.2756 55.9215 37.2435 56.0135 37.1895C56.0574 37.1633 56.0878 37.1591 56.1342 37.1465C56.1562 37.1406 56.2009 37.1186 56.2153 37.1009C56.2667 37.0334 56.2279 36.9709 56.1705 36.9304C56.049 36.8434 55.8928 36.7945 55.7417 36.7936C55.659 36.7928 55.6168 36.8333 55.545 36.8612C55.4767 36.8882 55.4134 36.8839 55.345 36.8645C55.3104 36.8552 55.2724 36.851 55.2412 36.8341C55.2074 36.8156 55.1795 36.781 55.1483 36.7582C55.0968 36.7202 55.0276 36.6788 54.9846 36.6316C54.9314 36.5742 54.8816 36.5168 54.9018 36.4383C54.9153 36.3842 54.9381 36.3471 54.9584 36.2981C55.0082 36.1766 54.9947 36.0002 55.1061 35.9107C55.1525 35.8736 55.242 35.8204 55.3011 35.8077C55.3534 35.7967 55.4058 35.8195 55.4573 35.833C55.4859 35.8406 55.5206 35.844 55.545 35.8601C55.5661 35.8736 55.5822 35.898 55.6016 35.9141C55.648 35.9546 55.6919 35.9968 55.74 36.0348C55.805 36.0854 55.8666 36.1361 55.9164 36.2028C55.9409 36.2357 55.9747 36.3463 56.0228 36.3387C56.0371 36.3209 56.0338 36.2441 56.0296 36.2188C56.0253 36.1901 56.0076 36.1665 55.9966 36.1395C55.9679 36.0753 55.9401 36.0111 55.9299 35.9402C55.9215 35.8837 55.9519 35.8077 55.9696 35.7529C55.9857 35.7022 56.0177 35.6372 56.049 35.5933C56.0844 35.5427 56.1511 35.5013 56.2093 35.5334C56.2684 35.5663 56.298 35.606 56.3376 35.6617C56.3613 35.6946 56.3613 35.7301 56.3799 35.7664C56.3891 35.7832 56.406 35.844 56.4339 35.8406C56.471 35.8364 56.482 35.725 56.4896 35.6946C56.5082 35.6262 56.5115 35.5849 56.4837 35.5165C56.4584 35.4566 56.4229 35.3857 56.3799 35.3401C56.3225 35.2793 56.2938 35.1932 56.2465 35.1248C56.2212 35.0885 56.2026 35.0649 56.1891 35.0235C56.1781 34.9898 56.1655 34.9746 56.1444 34.9442C56.1047 34.8876 56.1528 34.8277 56.1781 34.7754C56.1908 34.7501 56.1933 34.7214 56.2051 34.6952C56.2186 34.6665 56.2338 34.6437 56.2414 34.6125C56.2575 34.5492 56.2862 34.4994 56.3056 34.4377C56.3233 34.3837 56.3545 34.3466 56.4128 34.3761C56.4448 34.3922 56.4592 34.4259 56.4828 34.4512C56.5031 34.4732 56.5293 34.4875 56.5453 34.5129C56.5808 34.5694 56.6002 34.6445 56.6289 34.7053C56.6669 34.783 56.682 34.8108 56.7648 34.8319C56.8188 34.8463 56.872 34.8606 56.926 34.875L56.9471 34.8623C56.9657 34.8893 56.9952 34.8936 57.0188 34.9113C57.0374 34.9256 57.0509 34.9467 57.0678 34.9628C57.1024 34.9957 57.1463 35.0151 57.1818 35.0472C57.2366 35.0953 57.2712 35.1704 57.2856 35.2405C57.3058 35.3342 57.3041 35.4287 57.3219 35.5216C57.3286 35.5562 57.3227 35.5849 57.3573 35.6043C57.3734 35.6136 57.4189 35.6237 57.4375 35.6254C57.5447 35.6355 57.5574 35.3831 57.5464 35.3114C57.5397 35.2675 57.5177 35.227 57.5059 35.1839C57.4991 35.1594 57.4915 35.1375 57.4806 35.1147C57.4561 35.0598 57.4223 34.967 57.4561 34.9079C57.4924 34.8429 57.5422 34.8437 57.603 34.8226C57.6688 34.7999 57.727 34.7585 57.7904 34.7366C57.8165 34.7273 57.8427 34.723 57.868 34.7129C57.8866 34.7053 57.8883 34.6952 57.9127 34.6927C57.9381 34.6893 57.9634 34.6977 57.9904 34.6935C58.0765 34.68 58.1415 34.6462 58.193 34.5779C58.2327 34.523 58.2631 34.4673 58.2943 34.4074C58.3078 34.382 58.3221 34.3618 58.3306 34.3339C58.3382 34.3077 58.3373 34.2782 58.3601 34.2596C58.4479 34.187 58.6437 34.2689 58.729 34.312C58.7746 34.3348 58.8227 34.35 58.8683 34.3727C58.8911 34.3846 58.9029 34.3972 58.9282 34.4057C58.9552 34.4141 58.9848 34.42 59.0126 34.4276C59.0734 34.4436 59.1333 34.4597 59.1941 34.4766C59.2388 34.4892 59.3182 34.4951 59.3587 34.4664L59.3756 34.4707C59.4372 34.4065 59.5461 34.3888 59.5469 34.2866C59.5478 34.2436 59.5385 34.1879 59.53 34.1465C59.5191 34.0933 59.4938 34.0672 59.4625 34.0258C59.3503 33.8781 59.2253 33.7245 59.2363 33.5278C59.2414 33.4333 59.2861 33.332 59.3106 33.2408C59.3308 33.164 59.3519 33.0872 59.373 33.0095C59.4034 32.8989 59.4026 32.8238 59.3477 32.7183C59.3224 32.6702 59.3089 32.6162 59.2751 32.5731C59.2447 32.5343 59.2008 32.4912 59.2135 32.4355C59.2827 32.4727 59.2853 32.5562 59.3393 32.601C59.3646 32.6221 59.4009 32.6381 59.4288 32.6601C59.4549 32.6803 59.4802 32.693 59.5098 32.7082C59.5621 32.736 59.6119 32.7495 59.6702 32.7647C59.6972 32.7723 59.7335 32.7757 59.7588 32.7875C59.801 32.8069 59.8103 32.8517 59.8331 32.888C59.8778 32.9589 59.9031 33.018 59.9259 33.0998C59.9437 33.1589 59.9479 33.2324 59.985 33.2822C60.023 33.3337 60.0694 33.3396 60.1277 33.3556C60.1817 33.3708 60.2239 33.3927 60.2425 33.3286C60.2762 33.2104 60.3058 33.0939 60.3041 32.9715C60.3007 32.8019 60.1775 32.6972 60.0703 32.5832C59.9648 32.4727 59.823 32.3739 59.7867 32.2169C59.7748 32.1646 59.7976 32.1232 59.8086 32.07C59.8179 32.0244 59.8027 31.9746 59.8289 31.9316C59.8837 31.8404 60.0416 31.8911 60.1209 31.9122C60.2391 31.9434 60.3564 31.9763 60.4746 32.0076L60.4957 31.9949C60.5202 31.9789 60.532 31.9611 60.5607 31.9493C60.5869 31.9392 60.6122 31.9358 60.6367 31.9215C60.6907 31.8902 60.7329 31.8447 60.8013 31.8455C60.8426 31.8463 60.8891 31.8641 60.9262 31.8801C60.9692 31.8987 61.03 31.9248 61.0638 31.9586C61.0849 31.9797 61.095 32.0093 61.1153 32.032C61.1372 32.0582 61.1516 32.0709 61.1693 32.1021C61.198 32.1527 61.2284 32.2042 61.2596 32.2532C61.29 32.3013 61.3187 32.3545 61.3575 32.3975C61.3803 32.4229 61.3997 32.471 61.4327 32.4819C61.5323 32.5157 61.4825 32.3148 61.4673 32.2726C61.463 32.2608 61.4546 32.2279 61.447 32.2161C61.4318 32.1933 61.4149 32.189 61.3964 32.1705C61.3677 32.1418 61.3584 32.0953 61.344 32.0591C61.3288 32.0211 61.3086 31.9797 61.3086 31.9375C61.3086 31.9012 61.3255 31.8615 61.3347 31.8269C61.3525 31.7586 61.3871 31.691 61.42 31.6294C61.4327 31.6058 61.4377 31.5864 61.458 31.5669C61.4698 31.556 61.4909 31.5517 61.5036 31.5399C61.5399 31.507 61.5365 31.4834 61.5913 31.4766C61.6656 31.4673 61.7112 31.5011 61.7669 31.5467C61.8345 31.6007 61.8328 31.6961 61.8311 31.7771C61.8302 31.8387 61.7644 31.9198 61.8387 31.9594C61.9079 31.9957 62.0033 32.0363 62.0835 32.0439C62.1122 32.0464 62.1392 32.0278 62.167 32.032C62.2118 32.0379 62.2168 32.0793 62.2126 32.1181C62.205 32.1899 62.1535 32.2591 62.1223 32.3224C62.0851 32.4018 62.0016 32.4651 61.9315 32.5182C61.8859 32.5529 61.8471 32.5959 61.8015 32.6305C61.7669 32.6575 61.7576 32.6541 61.7602 32.6989C61.7627 32.7428 61.7796 32.7841 61.8049 32.8204C61.8269 32.8517 61.8615 32.8711 61.8817 32.9074C61.9214 32.9791 61.8893 33.0416 61.8691 33.1159C61.8522 33.1783 61.8353 33.2416 61.8184 33.3041C61.7087 33.3775 61.5973 33.4636 61.4723 33.5134C61.4192 33.5345 61.3727 33.5658 61.4276 33.6139C61.4647 33.646 61.5112 33.6536 61.5576 33.6662C61.5829 33.673 61.615 33.6755 61.6386 33.6865C61.6665 33.6991 61.6817 33.7194 61.7053 33.738C61.75 33.7726 61.7703 33.776 61.7686 33.835C61.7661 33.9254 61.7348 34.0148 61.7095 34.1026C61.68 34.2098 61.6749 34.3288 61.685 34.4386C61.6901 34.4918 61.6901 34.5449 61.6834 34.5981C61.6774 34.6479 61.6808 34.6994 61.6766 34.7509C61.6682 34.8395 61.6665 34.9298 61.6766 35.021C61.6834 35.0759 61.6977 35.1274 61.7011 35.1831C61.7036 35.2253 61.7273 35.292 61.7197 35.3308L61.7306 35.4237C61.7374 35.4211 61.745 35.4186 61.7517 35.4161C61.7695 35.4439 61.7728 35.4962 61.7787 35.53C61.7846 35.5621 61.783 35.595 61.7855 35.6271C61.7889 35.66 61.7956 35.6921 61.7982 35.725C61.8007 35.7697 61.7906 35.8027 61.7787 35.8465C61.7576 35.9234 61.7374 35.9934 61.6977 36.0635C61.6614 36.1293 61.6158 36.1808 61.5964 36.2534C61.5863 36.2914 61.5854 36.3176 61.5829 36.3564C61.5804 36.3868 61.561 36.4205 61.5627 36.4501C61.5635 36.4661 61.5719 36.4763 61.5778 36.4914C61.5888 36.5201 61.588 36.5446 61.5871 36.575C61.5871 36.6121 61.5939 36.6476 61.5981 36.6847C61.6049 36.754 61.6099 36.8308 61.6395 36.8949C61.658 36.9346 61.685 36.9751 61.7078 37.0123C61.7281 37.046 61.7661 37.0629 61.7847 37.095C61.7526 37.1135 61.7188 37.1296 61.6884 37.1498C61.6606 37.1684 61.6412 37.1937 61.6116 37.2098C61.5736 37.23 61.5399 37.2503 61.5027 37.2722C61.4715 37.2917 61.4377 37.295 61.404 37.3068C61.3356 37.3313 61.252 37.3339 61.1887 37.3651C61.1634 37.3777 61.0435 37.4605 61.0672 37.4934C61.0849 37.5187 61.144 37.4892 61.1668 37.4866C61.1955 37.4841 61.2275 37.4816 61.2562 37.4816C61.3103 37.4807 61.3719 37.4858 61.4251 37.5001C61.5365 37.5314 61.6488 37.5609 61.7602 37.5905L61.7982 37.5829C61.8277 37.5651 61.8345 37.5364 61.8564 37.5128C61.8741 37.4934 61.8952 37.485 61.918 37.4714C61.9712 37.4402 62.0109 37.3946 62.07 37.3718C62.1037 37.3592 62.1409 37.3566 62.1738 37.3423C62.2084 37.3279 62.2337 37.3043 62.2641 37.2849C62.3333 37.241 62.3721 37.2157 62.4211 37.1515C62.4608 37.1 62.5089 37.0587 62.5469 37.0055C62.5654 36.9793 62.5739 36.9532 62.5899 36.9262C62.6043 36.9008 62.6271 36.8814 62.6397 36.8553C62.6608 36.8122 62.6499 36.7489 62.6963 36.7253C62.7368 36.7042 62.8161 36.7168 62.8609 36.7202C62.8896 36.7219 62.9149 36.7337 62.9436 36.7345C62.974 36.7362 63.0069 36.7278 63.0373 36.7269C63.1057 36.7261 63.1394 36.7025 63.1926 36.6603C63.2289 36.6316 63.2534 36.5936 63.2829 36.5581C63.3125 36.5218 63.3319 36.4703 63.3707 36.4459C63.461 36.3893 63.559 36.5176 63.5953 36.5877C63.6197 36.6341 63.624 36.6974 63.6628 36.7345C63.6974 36.7675 63.7497 36.7742 63.7936 36.786L63.8105 36.7903C63.8147 36.7573 63.8502 36.7649 63.8713 36.7531C63.8958 36.7396 63.889 36.7371 63.9059 36.7219C63.9371 36.6932 63.9633 36.6704 64.003 36.6527C64.0798 36.6181 64.1574 36.6273 64.2013 36.7084C64.2233 36.7489 64.2444 36.7978 64.2621 36.8401C64.2756 36.8713 64.284 36.9278 64.3077 36.9532C64.36 37.0106 64.4402 36.9101 64.4588 36.862C64.5111 36.7295 64.5187 36.5961 64.4748 36.4636C64.4621 36.4256 64.4537 36.391 64.452 36.3513C64.4503 36.3091 64.4318 36.2661 64.4318 36.2255C64.4318 36.1707 64.4782 36.093 64.5263 36.0677C64.5693 36.0449 64.6757 36.0356 64.723 36.0449C64.7745 36.0542 64.8217 36.1023 64.8504 36.1428C64.9298 36.2551 64.8791 36.3589 64.8487 36.4788C64.8133 36.6189 64.858 36.7675 65.0083 36.8071C65.1231 36.8375 65.2429 36.8789 65.3417 36.7903C65.3679 36.7666 65.3898 36.7371 65.4092 36.7067C65.4253 36.6822 65.4244 36.6586 65.4362 36.6349C65.4497 36.6062 65.4675 36.5894 65.4768 36.5573C65.4869 36.5227 65.4953 36.4864 65.5046 36.4518C65.5215 36.3893 65.5519 36.3361 65.5696 36.2753C65.589 36.2087 65.6059 36.1411 65.6245 36.0736C65.6827 36.0356 65.7241 35.9816 65.7705 35.931C65.811 35.8871 65.8634 35.8482 65.9073 35.8069C65.9495 35.7672 65.9984 35.7368 66.0406 35.698C66.0913 35.6516 66.136 35.5942 66.1824 35.5427C66.2229 35.4979 66.228 35.4321 66.244 35.3747C66.255 35.3359 66.2803 35.3029 66.239 35.2818C66.1428 35.2329 65.9967 35.3738 65.9233 35.4169C65.8659 35.4507 65.8136 35.4912 65.757 35.5266C65.7139 35.5536 65.6802 35.595 65.638 35.622C65.5688 35.6659 65.4759 35.6448 65.4033 35.6161C65.3417 35.5925 65.2463 35.5435 65.2007 35.4937C65.1636 35.454 65.1999 35.4397 65.2227 35.4051C65.2472 35.3679 65.2624 35.3342 65.2944 35.3021C65.3628 35.2337 65.459 35.1839 65.5477 35.1459C65.6532 35.0995 65.7562 35.0674 65.8119 34.9569C65.8499 34.8809 65.8482 34.7872 65.8836 34.7104C65.9216 34.626 66.0178 34.6049 66.0862 34.5542C66.1672 34.4926 66.2559 34.4445 66.3453 34.3947C66.4382 34.3415 66.5336 34.2934 66.5648 34.187C66.6129 34.0157 66.4855 33.873 66.4872 33.7034C66.488 33.6198 66.5597 33.5092 66.6543 33.5084C66.7176 33.5075 66.791 33.543 66.8518 33.559C66.9371 33.581 67.0054 33.6485 67.0257 33.7363C67.0443 33.8156 67.0257 33.884 67.0046 33.9608L67.0004 33.9777C66.9852 34.0351 66.97 34.0925 66.9539 34.1491C66.9379 34.2081 66.9092 34.274 66.9033 34.3348C66.8881 34.4749 67.1033 34.5078 67.203 34.4842C67.2983 34.4622 67.3709 34.3778 67.4342 34.3103C67.4849 34.2546 67.56 34.236 67.6132 34.1837C67.7027 34.0959 67.8352 34.0672 67.9601 34.0655C68.0606 34.0646 68.1745 34.1153 68.2724 34.1415C68.3881 34.1727 68.4995 34.1744 68.6168 34.1845C68.6742 34.1896 68.7325 34.198 68.7873 34.1727C68.854 34.1415 68.9131 34.0933 68.9756 34.0562C69.0456 34.0148 69.0988 33.9558 69.1638 33.9085C69.1993 33.8832 69.2322 33.8612 69.2685 33.8376C69.3022 33.8165 69.3267 33.7844 69.363 33.7675L69.3799 33.7717C69.4153 33.7616 69.4373 33.716 69.4635 33.6924C69.4939 33.6662 69.5226 33.6569 69.5563 33.6392C69.6238 33.6021 69.6323 33.5362 69.7184 33.5227C69.7834 33.5126 69.8441 33.5354 69.9066 33.5523C69.9623 33.5666 70.0341 33.5928 70.0636 33.6477C70.0847 33.6865 70.0535 33.7464 70.0425 33.7861C70.0315 33.8283 70.0197 33.8697 70.0088 33.9119C69.9936 33.9676 69.991 34.0115 69.9454 34.0486C69.9176 34.0714 69.9007 34.0917 69.8779 34.117C69.861 34.1355 69.8382 34.1423 69.8205 34.1583C69.7969 34.1803 69.7817 34.2115 69.7564 34.2326C69.7336 34.252 69.7074 34.2655 69.6838 34.285C69.6458 34.3153 69.574 34.3432 69.5707 34.3998C69.5673 34.4504 69.6399 34.4597 69.6812 34.4605C69.742 34.4622 69.7944 34.4327 69.8492 34.4116C69.9007 34.3922 69.9108 34.355 69.9412 34.3094C69.9665 34.2706 69.9927 34.2149 70.0256 34.1828C70.0746 34.1347 70.1337 34.1415 70.1894 34.1161C70.2308 34.0976 70.2831 34.0469 70.3177 34.014C70.3607 33.9726 70.4089 33.9406 70.4705 33.9549C70.4899 33.96 70.5144 33.9735 70.5346 33.9701C70.565 33.965 70.5887 33.9304 70.6123 33.9135C70.6629 33.8781 70.7068 33.8325 70.7524 33.7886C70.7879 33.7549 70.8225 33.7228 70.8301 33.673L70.8309 33.6012C70.8149 33.5725 70.8149 33.5438 70.8182 33.5118C70.8216 33.4771 70.8216 33.4366 70.8292 33.402C70.8444 33.3277 70.8689 33.2526 70.89 33.18C70.9035 33.1328 70.9119 33.1192 70.9491 33.0889C70.9845 33.0602 71.0208 33.0357 71.0605 33.0137C71.1297 33.0146 71.2006 33.023 71.2707 33.0002Z" fill="white"/>
</svg>
