<svg width="31" height="45" viewBox="0 0 31 45" fill="none" xmlns="http://www.w3.org/2000/svg">
<path d="M0.990454 22.0857C1.17354 22.1914 1.35662 22.2971 1.5397 22.4029C1.6725 22.6955 1.80529 22.9882 1.93809 23.2809C2.03479 23.2474 2.13148 23.2138 2.22818 23.1803C2.31714 22.7652 2.40611 22.35 2.49507 21.9349C2.43963 21.8304 2.38419 21.726 2.32875 21.6216C2.42416 21.4939 2.51957 21.3663 2.61497 21.2386C2.97082 21.3792 3.32666 21.5197 3.68251 21.6602C3.70959 21.5442 3.73667 21.4282 3.76374 21.3121C3.53038 21.0169 3.29702 20.7216 3.06365 20.4264C3.45559 19.8926 3.84754 19.3588 4.23949 18.8251C4.63401 18.611 5.02854 18.397 5.42306 18.183C5.37794 17.9509 5.33281 17.7188 5.28769 17.4868C5.67834 17.1103 6.069 16.7338 6.45966 16.3573C6.45192 16.164 6.44419 15.9706 6.43646 15.7772C6.28948 15.7552 6.1425 15.7333 5.99551 15.7114C6.06127 15.5941 6.12702 15.4768 6.19278 15.3594C6.12444 15.2821 6.05611 15.2047 5.98778 15.1274C6.07545 14.9881 6.16312 14.8489 6.2508 14.7096C6.18633 14.6722 6.12187 14.6348 6.0574 14.5975C6.23275 14.3396 6.40809 14.0817 6.58343 13.8239C6.45063 13.6576 6.31784 13.4912 6.18504 13.3249C6.4184 12.7834 6.65176 12.2419 6.88513 11.7004C7.19456 11.4761 7.504 11.2517 7.81343 11.0274C7.9733 10.0553 8.13317 9.08312 8.29304 8.11099C10.1496 5.40732 12.0062 2.70366 13.8628 0C14.296 0.0954108 14.7292 0.190817 15.1624 0.286222C15.1611 0.887035 15.1599 1.48785 15.1586 2.08866C15.5209 2.38005 15.8832 2.67143 16.2454 2.96281C16.6258 2.76813 17.0061 2.57344 17.3865 2.37876C17.6882 2.34137 17.9899 2.30398 18.2916 2.26659C18.3496 2.13508 18.4076 2.00357 18.4656 1.87206C18.9762 1.83983 19.4867 1.8076 19.9973 1.77537C20.0386 1.54458 20.0798 1.3138 20.1211 1.08301C20.397 1.08301 20.6729 1.08301 20.9488 1.08301C21.2002 1.23644 21.4516 1.38987 21.7031 1.54329C22.0782 1.92235 22.4534 2.3014 22.8286 2.68046C23.2902 3.15621 23.7518 3.63196 24.2133 4.10772C24.2481 8.04137 24.2829 11.975 24.3178 15.9087C24.3925 16.0105 24.4673 16.1124 24.5421 16.2142C24.4235 16.338 24.3049 16.4618 24.1862 16.5856C24.301 16.7725 24.4157 16.9595 24.5305 17.1464C24.4132 17.2276 24.2958 17.3089 24.1785 17.3901C24.2327 17.6415 24.2868 17.8929 24.341 18.1443C24.2456 18.2642 24.1501 18.3841 24.0547 18.504C24.2829 18.6059 24.5112 18.7077 24.7394 18.8096C24.7278 18.7206 24.7162 18.6317 24.7045 18.5427C24.9083 18.8096 25.112 19.0765 25.3157 19.3434C25.6638 19.4349 26.0119 19.5265 26.36 19.618C26.5225 19.618 26.6849 19.618 26.8474 19.618C26.8474 19.9016 26.8474 20.1853 26.8474 20.4689C26.6823 20.5166 26.5173 20.5643 26.3523 20.612C26.5263 21.0079 26.7004 21.4037 26.8744 21.7995C26.7442 22.096 26.614 22.3926 26.4838 22.6891C26.6553 23.0836 26.8267 23.4782 26.9982 23.8727C27.1413 24.0274 27.2844 24.1821 27.4275 24.3368C27.5887 24.1267 27.7499 23.9165 27.911 23.7064C28.1792 23.785 28.4474 23.8637 28.7156 23.9423C28.7955 24.0467 28.8754 24.1512 28.9554 24.2556C29.0069 24.3652 29.0585 24.4748 29.1101 24.5844C29.1359 24.7907 29.1617 24.997 29.1874 25.2032C29.2893 25.4082 29.3912 25.6132 29.493 25.8182C29.5278 25.9485 29.5626 26.0787 29.5974 26.2089C29.5368 26.2643 29.4763 26.3198 29.4157 26.3752C29.337 26.3211 29.2584 26.2669 29.1797 26.2128C29.1333 26.2218 29.0869 26.2308 29.0405 26.2398C29.0521 26.3675 29.0637 26.4951 29.0753 26.6228C29.0379 26.6395 29.0005 26.6563 28.9631 26.673C28.9592 26.7633 28.9554 26.8536 28.9515 26.9438C29.0443 26.9051 29.1372 26.8664 29.23 26.8278C29.3783 26.9206 29.5265 27.0134 29.6748 27.1063C29.689 27.016 29.7032 26.9257 29.7173 26.8355C29.7509 26.8355 29.7844 26.8355 29.8179 26.8355C29.8269 26.9077 29.836 26.9799 29.845 27.0521C29.8914 27.0921 29.9378 27.132 29.9842 27.172C29.9249 27.4054 29.8656 27.6387 29.8063 27.8721C29.7238 27.8863 29.6413 27.9005 29.5588 27.9146C29.533 27.992 29.5072 28.0694 29.4814 28.1467C29.3125 28.362 29.1436 28.5773 28.9747 28.7927C28.7452 28.9783 28.5157 29.164 28.2862 29.3496C28.1354 29.3019 27.9845 29.2542 27.8337 29.2065C27.8221 29.0093 27.8105 28.812 27.7989 28.6147C27.6699 28.6212 27.541 28.6276 27.4121 28.6341C27.3732 28.6871 27.3342 28.7401 27.2953 28.7931C27.2195 28.7801 27.1437 28.767 27.0678 28.754C27.1297 28.9551 27.1916 29.1562 27.2535 29.3574C27.1039 29.3458 26.9544 29.3342 26.8048 29.3226C26.7984 29.4193 26.7919 29.516 26.7855 29.6127C26.6527 29.5276 26.5199 29.4425 26.3871 29.3574C26.2736 29.3393 26.1602 29.3213 26.0467 29.3032C25.9655 29.516 25.8843 29.7287 25.803 29.9414C25.8159 30.0678 25.8288 30.1941 25.8417 30.3205C25.4343 30.4107 25.0269 30.501 24.6195 30.5912C24.595 30.4688 24.5705 30.3463 24.546 30.2238C24.4054 30.1683 24.2649 30.1129 24.1244 30.0575C23.9568 30.412 23.7891 30.7666 23.6215 31.1211C23.5803 31.3313 23.539 31.5414 23.4978 31.7516C23.4578 31.5647 23.4178 31.3777 23.3779 31.1908C23.2928 31.3339 23.2077 31.477 23.1226 31.6201C23.0839 31.4022 23.0452 31.1843 23.0065 30.9664C22.9576 30.969 22.9086 30.9716 22.8596 30.9742C22.8518 31.2604 22.8441 31.5466 22.8364 31.8328C22.6339 32.0082 22.4315 32.1835 22.2291 32.3589C22.1569 32.2454 22.0847 32.1319 22.0125 32.0185C21.9674 31.7026 21.9222 31.3867 21.8771 31.0708C21.7288 31.0115 21.5806 30.9522 21.4323 30.8929C21.3472 30.8078 21.2621 30.7227 21.177 30.6376C21.1306 30.7073 21.0842 30.7769 21.0378 30.8465C20.9566 30.6995 20.8753 30.5525 20.7941 30.4056C20.8431 30.3965 20.8921 30.3875 20.9411 30.3785C20.9153 30.2689 20.8895 30.1593 20.8637 30.0497C20.7954 30.0768 20.7271 30.1039 20.6587 30.1309C20.6768 30.2934 20.6948 30.4558 20.7129 30.6183C20.6626 30.822 20.6123 31.0257 20.562 31.2294C20.4047 31.2746 20.2474 31.3197 20.0902 31.3648C19.9277 31.4808 19.7652 31.5969 19.6028 31.7129C19.554 31.4159 19.5053 31.1189 19.4566 30.8218C19.3583 30.8081 19.2601 30.7944 19.1619 30.7808C19.1657 30.9535 19.1696 31.1263 19.1735 31.2991C19.0845 31.4525 18.9955 31.6059 18.9066 31.7593C18.797 31.7439 18.6874 31.7284 18.5778 31.7129C18.65 31.8354 18.7222 31.9579 18.7944 32.0804C18.7377 32.2428 18.6809 32.4053 18.6242 32.5677C18.6706 32.765 18.717 32.9622 18.7635 33.1595C18.5623 33.077 18.3612 32.9945 18.1601 32.912C18.0066 32.8643 17.8532 32.8166 17.6998 32.7689C17.6134 32.6657 17.527 32.5626 17.4406 32.4594C17.3671 32.4581 17.2936 32.4568 17.2202 32.4555C17.0874 32.4981 16.9546 32.5406 16.8218 32.5832C16.8656 32.453 16.9094 32.3227 16.9533 32.1925C17.0513 32.1835 17.1493 32.1745 17.2472 32.1655C17.2679 32.0082 17.2885 31.8509 17.3091 31.6936C17.4032 31.6961 17.4974 31.6987 17.5915 31.7013C17.4909 31.5956 17.3904 31.4899 17.2898 31.3841C17.1789 31.5401 17.068 31.6962 16.9571 31.8522C16.9017 31.7967 16.8463 31.7413 16.7908 31.6858C16.8811 31.4563 16.9713 31.2268 17.0616 30.9973C16.9816 30.9135 16.9017 30.8297 16.8218 30.7459C16.7173 30.8942 16.6129 31.0425 16.5085 31.1907C16.4724 31.125 16.4363 31.0592 16.4002 30.9935C16.1449 31.1508 15.8896 31.3081 15.6343 31.4654C15.6356 31.6239 15.6369 31.7825 15.6382 31.9411C15.7078 32.1487 15.7774 32.3563 15.8471 32.5639C15.7388 32.6464 15.6305 32.7289 15.5222 32.8114C15.4048 33.0306 15.2875 33.2498 15.1702 33.4689C15.0748 33.8196 14.9794 34.1703 14.884 34.521C14.844 34.5507 14.804 34.5803 14.764 34.61C14.755 34.7118 14.746 34.8137 14.737 34.9155C14.7898 35.0084 14.8427 35.1012 14.8956 35.194C14.7937 35.3629 14.6918 35.5318 14.59 35.7007C14.3798 35.6685 14.1697 35.6363 13.9595 35.604C13.8035 35.7807 13.6475 35.9573 13.4915 36.1339C13.2801 36.1068 13.0686 36.0798 12.8572 36.0527C12.9139 35.7961 12.9706 35.5396 13.0274 35.283C12.9474 35.2134 12.8675 35.1437 12.7876 35.0741C12.7244 35.225 12.6612 35.3758 12.598 35.5267C12.6419 35.6556 12.6857 35.7845 12.7295 35.9134C12.607 35.8954 12.4846 35.8773 12.3621 35.8593C12.3286 35.9508 12.295 36.0424 12.2615 36.1339C12.2435 36.3467 12.2254 36.5594 12.2074 36.7721C12.0707 36.9913 11.934 37.2105 11.7974 37.4297C11.6878 37.226 11.5782 37.0222 11.4686 36.8185C11.457 36.6922 11.4454 36.5658 11.4338 36.4395C11.4879 36.2164 11.5421 35.9934 11.5962 35.7703C11.5163 35.8142 11.4364 35.858 11.3564 35.9018C11.3448 36.0282 11.3332 36.1545 11.3216 36.2809C11.2868 36.3054 11.252 36.3299 11.2172 36.3544C11.2456 36.6728 11.2739 36.9913 11.3023 37.3098C11.1437 37.3111 10.9851 37.3123 10.8265 37.3136C10.7943 37.5044 10.7621 37.6953 10.7298 37.8861C10.686 37.7455 10.6422 37.605 10.5983 37.4645C10.6396 37.0583 10.6808 36.6522 10.7221 36.2461C10.7698 36.112 10.8175 35.9779 10.8652 35.8438C10.6486 36.0798 10.432 36.3157 10.2154 36.5517C10.1703 36.611 10.1251 36.6703 10.08 36.7296C10.0568 36.8044 10.0336 36.8791 10.0104 36.9539C10.0645 36.981 10.1187 37.0081 10.1728 37.0351C10.2154 37.1422 10.2579 37.2492 10.3005 37.3562C10.2992 37.5534 10.2979 37.7507 10.2966 37.948C10.2309 38.0124 10.1651 38.0769 10.0994 38.1414C10.0557 38.1133 10.0121 38.0853 9.96849 38.0573C9.95821 37.8543 9.94794 37.6514 9.93766 37.4485C9.86831 37.3201 9.79896 37.1917 9.72961 37.0632C9.72191 37.3612 9.7142 37.6591 9.7065 37.9571C9.77585 38.0187 9.84519 38.0804 9.91455 38.142C9.8041 38.2628 9.69365 38.3835 9.5832 38.5042C9.50358 38.5016 9.42395 38.4991 9.34433 38.4965C9.36231 38.1626 9.38029 37.8287 9.39827 37.4948C9.20049 37.6412 9.00271 37.7876 8.80494 37.934C8.73302 37.8364 8.6611 37.7388 8.58918 37.6412C8.50442 37.821 8.41966 38.0008 8.33489 38.1806C8.24243 38.1651 8.14996 38.1497 8.05749 38.1343C8.25784 37.8415 8.45818 37.5487 8.65853 37.2559C8.47873 37.2251 8.29893 37.1942 8.11914 37.1634C7.90338 37.3304 7.68762 37.4973 7.47187 37.6643C7.29207 37.8389 7.11228 38.0136 6.93248 38.1883C6.80919 38.3603 6.6859 38.5324 6.56261 38.7045C6.48299 38.9151 6.40336 39.1258 6.32374 39.3364C6.44959 39.3801 6.57545 39.4237 6.70131 39.4674C6.71929 39.6857 6.73727 39.904 6.75524 40.1224C6.56517 40.1455 6.3751 40.1686 6.18503 40.1917C6.13366 40.2662 6.08229 40.3407 6.03092 40.4152C5.93332 40.3612 5.83571 40.3073 5.73811 40.2534C5.67646 40.5282 5.61482 40.803 5.55318 41.0779C5.59171 41.1703 5.63023 41.2628 5.66876 41.3553C5.43759 41.6224 5.20642 41.8895 4.97525 42.1566C4.76207 42.2517 4.54888 42.3467 4.33569 42.4417C4.22268 42.6524 4.10966 42.863 3.99664 43.0736C4.03517 43.2097 4.0737 43.3459 4.11223 43.482C4.05829 43.7003 4.00435 43.9186 3.95041 44.137C3.78088 44.4247 3.61136 44.7123 3.44184 45C3.29063 44.9714 3.13942 44.9427 2.98821 44.9141C2.75033 44.7593 2.51246 44.6046 2.27458 44.4499C2.33647 44.1192 2.39836 43.7885 2.46024 43.4578C2.03477 42.9956 1.60931 42.5334 1.18383 42.0712C1.24959 41.549 1.31534 41.0268 1.38109 40.5046C1.32694 40.3731 1.27279 40.2416 1.21864 40.1101C0.96465 34.249 0.710655 28.3878 0.456665 22.5266C0.62363 22.4777 0.790596 22.4287 0.957561 22.3797C0.968535 22.2817 0.979494 22.1837 0.990454 22.0857Z" fill="white"/>
<path d="M19.9473 31.9853C19.8854 32.3122 19.8234 32.6392 19.7615 32.9661C19.8014 33.0525 19.8414 33.1389 19.8814 33.2253C19.9923 33.3116 20.1031 33.398 20.214 33.4844C20.2741 33.275 20.3342 33.0655 20.3942 32.856C20.384 32.6325 20.3737 32.4091 20.3634 32.1856C20.4893 32.4014 20.6151 32.6171 20.741 32.8329C20.9392 32.7381 21.1375 32.6432 21.3357 32.5484C21.3486 32.3898 21.3615 32.2312 21.3744 32.0726C21.1655 31.8638 20.9567 31.6549 20.7478 31.446C20.6253 31.4447 20.5028 31.4435 20.3803 31.4422C20.2888 31.4705 20.1973 31.4989 20.1057 31.5273C20.0529 31.6799 20.0001 31.8326 19.9473 31.9853Z" fill="white"/>
<path d="M17.9438 33.0255C17.7897 33.1873 17.6356 33.3491 17.4814 33.511C17.52 33.6985 17.5585 33.886 17.597 34.0735C17.7049 34.1325 17.8128 34.1916 17.9207 34.2507C18.0054 34.13 18.0902 34.0093 18.175 33.8885C18.0799 33.7909 17.9849 33.6933 17.8898 33.5957C18.0131 33.5135 18.1364 33.4313 18.2597 33.3491C18.1544 33.2413 18.0491 33.1334 17.9438 33.0255Z" fill="white"/>
<path d="M18.9687 32.0238L18.9302 32.517L19.1845 32.386L18.9687 32.0238Z" fill="white"/>
<path d="M19.5157 34.1582L19.6159 34.4588L19.9396 34.3085L19.5157 34.1582Z" fill="white"/>
<path d="M18.2058 34.8672L18.0363 35.2216L18.3059 35.5221L18.2058 34.8672Z" fill="white"/>
<path d="M16.9035 35.3757L16.8264 33.9656L16.549 34.0658L16.3333 34.8286L16.9035 35.3757Z" fill="white"/>
<path d="M16.1638 33.3414L16.264 32.517L15.9249 32.9716L16.1638 33.3414Z" fill="white"/>
<path d="M10.2522 36.8843L10.4495 36.5536L10.3798 37.244L10.2522 36.8843Z" fill="white"/>
<path d="M29.671 26.3133L29.8683 26.7078L30.0423 26.5106L29.7697 26.3133H29.671Z" fill="white"/>
</svg>
