<svg width="40" height="45" viewBox="0 0 40 45" fill="none" xmlns="http://www.w3.org/2000/svg">
<path d="M39.3967 10.32H38.9167L37.5367 9.78H35.1367L33.5167 9.24L32.6167 9.3L31.4767 9.96L30.8767 10.02L29.7367 9.48L28.9567 8.64L27.8167 8.34L27.0967 7.8L25.7767 7.32L25.2967 6.72L23.4967 5.88L21.0967 5.7L20.3167 6.18L19.1767 6.24L18.5167 6.06V6C18.5167 6 18.5167 6 18.5167 5.94L18.2767 5.7L16.5967 5.1L15.2767 5.22L15.1567 5.1C15.1567 5.1 15.1567 5.1 15.0967 5.1L14.3767 5.16L13.5967 3.24L13.4767 3.12L12.3967 0.18C12.3967 0.18 12.3967 0.18 12.3367 0.18L11.3167 0C11.3167 0 11.3167 0 11.2567 0C11.2567 0 11.2567 -3.44217e-07 11.2567 0.0599997L11.1967 3.3L0.516665 3.06C0.516665 3.06 0.516665 3.06 0.456665 3.06C0.456665 3.06 0.456665 3.06 0.456665 3.12L1.11667 5.46L0.756665 6.3V9.24L2.07667 13.56L2.19666 18.66V18.72L2.37667 18.78L2.07667 20.82L2.49667 22.44L3.09666 23.34V27L2.67667 27.72L1.71667 28.38L1.65667 28.86C1.65667 28.86 1.65667 28.86 1.65667 28.92L2.49667 30.3L3.33666 30.6L3.75667 31.2L3.45667 44.94C3.45667 44.94 3.45667 44.94 3.45667 45C3.45667 45 3.45667 45 3.51667 45L32.6167 44.88C32.6167 44.88 32.6167 44.88 32.6767 44.88C32.6767 44.88 32.6767 44.88 32.6767 44.82L32.3767 42.66L31.8367 41.64L29.2567 39.9L28.8367 38.94L27.6967 37.74L26.8567 37.26L25.9567 37.32L25.3567 36.54L24.1567 36.12L23.6767 35.46L23.9767 34.14L23.7367 33.12L24.0367 32.82C24.0367 32.82 24.0367 32.82 24.0367 32.76L23.9767 31.44L24.5167 30.42C24.5167 30.42 24.5167 30.42 24.5167 30.36L23.8567 29.28L23.1367 29.04L23.1967 28.14L23.6767 27.66L24.1567 26.58L25.9567 25.68L26.3167 25.26L26.2567 20.88H26.6167H26.6767L26.9167 20.28L27.3967 20.64H27.4567L35.5567 13.2L37.3567 12.48L39.4567 10.5C39.3967 10.38 39.3967 10.38 39.3967 10.32Z" fill="white"/>
</svg>
