<svg width="45" height="50" viewBox="0 0 45 50" fill="none" xmlns="http://www.w3.org/2000/svg">
<path d="M44.5533 12.094L44.4217 12.0875L44.2221 12.134L44.1521 12.112L44.0265 12.0435L43.925 12.012L43.8199 12.013L43.6889 12.0425L43.1066 12.287L43.0001 12.273L42.6474 12.075L42.5594 12L42.4838 11.9025L42.1727 11.365L42.1011 11.275L41.8225 11.1516L41.4804 11.1411L39.7605 11.3745L39.719 11.36L39.6855 11.3335L39.6435 11.3185L39.578 11.336L39.4019 11.4215L39.3404 11.4285L39.2223 11.384L39.1533 11.3045L39.0787 11.2436L38.9342 11.2555L38.4034 11.422L38.1148 11.427L37.9022 11.282L37.8427 11.1366L37.8066 10.8731L37.7531 10.7516L37.6836 10.6866L37.6241 10.6566L37.572 10.6101L37.533 10.4996L37.538 10.4191L37.6015 10.3156L37.5865 10.2311L37.3904 10.1061L37.1003 10.1691L36.6001 10.4576L36.484 10.5411L36.2314 10.6641L35.4495 11.2196L35.2494 11.4385L35.0243 11.596L34.5001 11.656L34.1299 11.8445L34.0224 11.8075L33.9138 11.7345L33.7818 11.6955L33.266 11.7415L33.194 11.703L33.2045 11.6305L33.236 11.5415L33.2295 11.4545L33.1775 11.3895L33.133 11.3715L33.0089 11.3785L32.5737 11.306L32.4321 11.1811L32.5552 10.9571L32.3666 10.6866L32.2711 10.5881L32.148 10.5201L31.6338 10.4446L31.0155 10.1596L30.9079 10.0871L30.8109 9.9871L30.7183 9.85811L30.6383 9.63861L30.5868 9.41162L30.5082 9.22263L30.3502 9.11564L29.8544 9.08564L29.2396 9.17763L29.1086 9.24763L28.9815 9.43112L28.9915 9.61012L29.0456 9.78811L29.0531 9.9716L28.9795 10.0616L28.8375 10.1481L28.6829 10.2061L28.5773 10.2086L28.5018 10.1216L28.3047 9.68511L28.1091 9.41512L28.0431 9.26913L28.0161 9.05764L28.0131 8.69515L27.9711 8.55216L27.8775 8.35217L27.6639 8.24167L27.4058 8.23267L26.8961 8.30717L26.7795 8.27617L26.6209 8.24567L26.5334 8.11618L26.5829 7.91168L26.697 7.84969L26.9586 7.78269L27.0721 7.73569L27.0566 7.5877L26.9481 7.4387L26.4959 7.32921L25.5619 7.05222L25.1427 6.76573L25.0007 6.71673C24.4549 6.67923 23.9097 6.64223 23.3644 6.60474L22.6121 6.74223L22.4255 6.83673L22.2254 6.89622L22.2114 6.98922L22.2199 7.11472L22.1758 7.25121L21.9883 7.3842L21.5486 7.4207L21.3515 7.5262L21.2539 7.4847L20.4275 7.6152L20.2995 7.5887L20.1179 7.3762L19.9628 6.72373L19.7322 6.55524C19.0319 6.50874 18.3316 6.46174 17.6307 6.41474L17.5192 6.36775L17.5107 6.32225L17.4912 6.13525L17.4757 6.06976L17.4341 6.00826L17.3811 5.95226L17.3256 5.90826L17.2751 5.88276L17.163 5.86527L16.1755 5.98226L15.9409 5.94876L15.5082 5.75377L14.943 5.28779L14.8674 5.18729L14.8134 5.0323L14.7994 4.8873L14.8064 4.72131C14.8099 4.50682 14.8119 4.29233 14.8119 4.07784C14.6538 3.44586 14.4953 2.81489 14.3357 2.18341L14.2672 2.00492L14.2241 1.82443L14.2537 1.42644L14.2281 1.25845L14.1726 1.05696L14.1291 0.689972L14.0596 0.545978L13.959 0.461482L13.5483 0.215991L13.2157 0.120495L12.5078 0.139994L12.1687 0C12.1702 1.06996 12.1727 2.13941 12.1757 3.20937L12.1602 3.30437L12.1212 3.35887L12.0706 3.37986H0.0200093L0.0185087 3.38236L0 3.59836L0.0465217 3.74435L0.10805 3.88434C0.123057 3.98334 0.138565 4.08234 0.154072 4.18133L0.189088 4.26283L0.229107 4.33833L0.260121 4.41832L0.303141 4.72781L0.476222 5.20679L0.519743 5.55078L0.568765 5.69977L0.705829 6.00326L0.755853 6.43024L0.632795 6.76823L0.476722 7.08972L0.424698 7.4627L0.561262 7.97618L0.593277 8.25617L0.625292 8.39616L0.62179 8.49466L0.595278 8.59166L0.522244 8.75015L0.501234 8.85615L0.604782 9.43212L0.6438 9.55662L0.671813 9.69611L0.585273 10.3061L0.586774 10.6706L0.631295 11.0031L0.723838 11.3185L0.980457 11.9655L1.04749 12.2915L1.14203 12.5885L1.34763 12.833L1.26259 13.042L1.2781 13.2405L1.42867 13.6685L1.43017 13.72L1.39665 13.7844L1.40916 13.8229L1.42867 13.8404L1.44968 13.8484L1.46668 13.8579L1.47219 13.8804L1.4947 13.9154L1.63276 14.0919L1.67878 14.2014L1.75032 14.5089L1.82985 14.6849L1.90989 14.8204L1.97142 14.9714L2.00644 15.2799L2.07647 15.5194L2.17101 15.5989L2.19602 15.6434L2.19853 15.6989L2.18302 15.7484L2.16351 15.7899L2.15601 15.8219L2.16351 16.0309L2.1525 16.2034L2.15801 16.3558L2.21403 16.5038L2.21503 16.6303L2.12149 17.0688L2.11849 17.2488L2.148 17.2913L2.20253 17.3523L2.25305 17.4263L2.27656 17.5123L2.23204 18.6128L2.25155 18.8077L2.33959 19.2267L2.3606 19.4107L2.3506 19.4762L2.33109 19.5502L2.31408 19.6362L2.31708 19.7372L2.39662 20.0902L2.40362 20.2617L2.3606 20.8267L2.37261 20.9402L2.40362 21.0177L2.47766 21.1522L2.49867 21.2652L2.50117 21.3281H2.47766L2.50867 21.3506L2.5787 21.3706L2.63723 21.4151L2.70676 21.4351L2.74478 21.4721L2.76579 21.5256L2.75579 21.5646L2.73378 21.6021L2.70276 21.7396L2.62022 21.8576L2.60221 21.9461L2.61072 22.2356L2.60221 22.3296L2.58421 22.3886L2.53118 22.5301L2.51767 22.6161L2.53418 22.7496L2.61922 23.0501L2.63923 23.2376L2.61822 23.4301L2.54569 23.7271L2.55819 23.9115L2.61672 24.0295L2.80381 24.2975L2.84283 24.465L2.87734 24.781L2.88184 24.9615L2.84283 25.1345L2.87584 25.195L2.97239 25.307L3.0074 25.3725L3.01591 25.4355V25.5105L3.02441 25.5965L3.06343 25.6895L3.40609 26.2435L3.60668 26.4759L3.69472 26.6219L3.73124 26.8014L3.71573 27.3514L3.73124 27.5229L3.74975 27.6144L3.77626 27.6869L3.91183 27.9164L3.91433 27.9719L3.90032 28.0354L3.89182 28.1339L3.91833 28.1814L3.95885 28.4944L3.95785 28.6019L3.91633 28.8378L3.8463 29.0258L3.84479 29.2258L3.96185 29.8563L3.92283 29.9438L3.90482 29.9753L3.88381 30.0203L3.86831 30.0643L3.81678 30.5773L3.77626 30.7228L3.65571 30.9388L3.47962 31.3532L3.45711 31.3917L3.41109 31.4577L3.35356 31.5177L3.19599 31.6467L2.76779 31.8982L2.70776 31.9517L2.5737 32.1072L2.3506 32.2692L2.29757 32.3132L2.25305 32.3652L2.18002 32.5427L2.15451 32.7197L2.31108 32.9307L2.60171 33.2697L2.72177 33.4642L2.93537 33.9721L3.06543 34.2191L3.18399 34.3246L3.6507 34.3756L3.90032 34.4541L4.0724 34.5816L4.13493 34.6546L4.276 34.7751L4.33302 34.8371L4.4936 35.1516L4.53412 35.2366L4.56363 35.2621C4.56513 40.1749 4.56563 45.0867 4.56463 50C14.7699 49.9985 24.9752 49.996 35.1804 49.993L35.2139 49.8035L35.2244 49.702L35.2164 49.5955L35.1824 49.3865L35.1774 49.278L35.2019 49.024L35.1984 48.9385L35.1554 48.723L35.1539 48.6481L35.2254 48.2081L35.2244 48.0546L35.2069 47.8956L35.1864 47.8216L35.1504 47.7601L35.0699 47.6631L35.0383 47.6061L35.0158 47.5371L35.0033 47.4681L34.9993 47.3971L35.0138 47.1581L35.0083 46.9706L34.9798 46.7736L34.9553 46.6826L34.9163 46.6026L34.8578 46.5381L34.7797 46.4881L34.5281 46.3916L34.4821 46.2846L34.3465 46.1092L34.305 45.9957L34.2945 45.9337L34.2795 45.8802L34.255 45.8337L34.2175 45.7947L34.1459 45.7602L33.9303 45.7432L33.8798 45.7267L33.8363 45.7022L33.5031 45.4232L33.4701 45.4087L32.8998 45.4077L32.8268 45.3862L32.7528 45.3462L32.072 44.7232L31.8444 44.6157L31.7293 44.4592L31.2846 43.5828L31.0635 43.1993L30.1651 42.3698L29.8504 42.2503L29.1641 42.1333L29.0861 42.0933L29.023 42.0238L28.973 41.9333L28.8204 41.5793L28.6509 41.3603L28.4513 41.1974L28.2442 41.1179L27.3278 40.9639L27.0736 40.8029L27.0466 40.7514L27.0186 40.6739L26.9826 40.6034L26.879 40.5319L26.4648 40.1089L26.1027 39.8694L25.9451 39.7269L26.1862 39.2124L26.2252 38.9889L26.2222 38.8889L26.1852 38.6225L26.2047 38.533L26.2868 38.393L26.3063 38.341L26.2798 37.9855L26.2252 37.633L26.0847 37.262L26.0472 37.079L26.1267 37.0005L26.2477 36.957L26.3228 36.8415L26.3558 36.6785L26.3488 36.491L26.2467 36.2116L26.2197 36.1691L26.2302 36.0721L26.2678 35.8966L26.2753 35.5271L26.2993 35.3716L26.3498 35.2361L26.4303 35.1336L26.5234 35.0561L26.5994 34.9606C26.6234 34.8461 26.6469 34.7306 26.6709 34.6166L26.842 34.3311L26.8665 34.1801L26.839 34.0211L26.755 33.8896L26.6489 33.7757L26.5469 33.6402L26.5019 33.5182L26.4168 33.1962L26.3498 33.0692L26.1222 32.9797L25.8276 32.9882L25.5704 32.9267L25.4609 32.6327L25.5014 31.9972L25.5239 31.8572L25.5779 31.7552L26.0877 31.2563L26.2498 31.0063L26.2242 30.7613L26.4608 30.3068L26.6239 30.0973L26.8095 30.0093L26.9156 29.9803L27.2327 29.7788L27.3858 29.7533L27.4348 29.7263L27.4628 29.6903L27.5328 29.5738L27.5394 29.5493L27.5629 29.5308L27.5954 29.4908L27.6424 29.4523L27.6979 29.4338H27.94L28.0281 29.3863L28.1601 29.1643L28.2452 29.0888L28.3512 29.0958L28.4983 29.1278L28.6309 29.1348L28.6884 29.0623L28.7149 28.9473L28.7809 28.8333L28.86 28.7393L28.933 28.6854L29.0476 28.6619C29.0506 27.0294 29.0516 25.397 29.0536 23.7651L29.0671 23.7371L29.0936 23.7416L29.1786 23.773L29.2852 23.7825L29.3857 23.775L29.4708 23.7521L29.5023 23.7311L29.5243 23.7046L29.5353 23.6821L29.5508 23.6441L29.5783 23.4266L29.5888 23.3741L29.6098 23.3301L29.6353 23.2951L29.6653 23.2671L29.6979 23.2516L29.7939 23.2251L29.8254 23.2031L29.8459 23.1701L29.8965 23.0256L29.9425 22.9481L30.0375 22.8756L30.1156 22.8371L30.098 22.8001L30.2106 22.5291L30.4892 22.2716L31.026 21.9171L31.3736 21.6081L31.5947 21.5291L31.9574 21.2781L32.2671 20.9112L32.4651 20.8222L32.8003 20.5632L32.8338 20.5112L32.8948 20.3807L32.9244 20.3337L32.9844 20.2997L33.0654 20.2717L33.136 20.2202L33.167 20.1197L33.2325 20.0177L33.6487 19.7987L36.5821 16.5913L36.9532 16.4228L37.8812 15.5224L39.4029 14.6899L40.2083 14.4259L40.5029 14.3869L40.6029 14.3549L40.8446 14.2019L42.0361 13.8204L44.0476 12.777L44.1546 12.683L44.3432 12.4615L44.5068 12.3815L44.6053 12.2165L44.6758 12.1795L44.8509 12.244L44.948 12.252L45 12.1995L44.927 12.198L44.5533 12.094Z" fill="black"/>
</svg>
