<svg width="53" height="45" viewBox="0 0 53 45" fill="none" xmlns="http://www.w3.org/2000/svg">
<path d="M33.0048 4.7542C32.9865 4.73717 32.9983 4.70836 32.999 4.6874C33.0003 4.66252 32.9931 4.64157 32.9918 4.61734C32.9891 4.5643 33.0009 4.50471 33.0048 4.45166C33.0107 4.37439 33.0166 4.29712 33.0219 4.22051C33.0251 4.17664 33.0219 4.12752 33.0343 4.08561C33.0533 4.02144 33.0533 3.95137 33.0579 3.88327C33.0612 3.83809 33.0605 3.78963 33.069 3.74444C33.0736 3.72153 33.0821 3.70123 33.0847 3.67765C33.0854 3.66718 33.0841 3.65539 33.086 3.64557C33.0913 3.62527 33.1005 3.6102 33.1024 3.5886C33.105 3.5624 33.1063 3.53948 33.1136 3.51329C33.124 3.47269 33.1306 3.43144 33.1424 3.39084C33.1535 3.35155 33.1489 3.31029 33.1594 3.27231C33.1699 3.23237 33.1843 3.19439 33.1915 3.15248C33.2039 3.07586 33.2295 3.00514 33.2504 2.93049C33.2563 2.90822 33.2583 2.88792 33.2661 2.86697C33.2707 2.85387 33.2766 2.83947 33.2805 2.82637C33.2858 2.80803 33.2845 2.79035 33.2864 2.77202C33.289 2.75434 33.2969 2.73993 33.3008 2.72291C33.3067 2.69999 33.3021 2.6751 33.308 2.65218C33.3126 2.63319 33.3198 2.61355 33.3251 2.59521C33.3342 2.56444 33.3434 2.52842 33.3571 2.49961C33.3716 2.46949 33.3925 2.4446 33.4043 2.41317C33.4174 2.37977 33.4344 2.34572 33.4442 2.31102C33.4213 2.25994 33.3742 2.21738 33.3375 2.17481C33.3192 2.15386 33.3021 2.13159 33.2812 2.1126C33.2642 2.09689 33.2445 2.07266 33.2255 2.05956C33.2164 2.05301 33.2046 2.05105 33.1961 2.04516C33.1751 2.03075 33.1548 2.00325 33.1371 1.98491C33.1149 1.96134 33.0933 1.93842 33.0697 1.9155C33.0232 1.87031 32.9937 1.82055 32.9374 1.78257L32.9269 1.77078C32.9145 1.75113 32.8935 1.73869 32.8804 1.71839C32.8713 1.7053 32.8641 1.6922 32.8588 1.67714C32.8451 1.63654 32.8392 1.59594 32.8287 1.55469C32.8077 1.47087 32.7547 1.41193 32.6755 1.37592C32.6375 1.35824 32.5975 1.34186 32.5589 1.32549C32.5209 1.30912 32.4915 1.28227 32.4541 1.26459C32.3795 1.22858 32.35 1.15786 32.3029 1.09434C32.2734 1.05505 32.2407 1.01772 32.2197 0.973194C32.206 0.943726 32.1974 0.913604 32.1837 0.884137C32.1621 0.836334 32.1477 0.778054 32.1176 0.73549C32.0946 0.702094 32.0697 0.668043 32.0436 0.637266C32.0115 0.59994 31.9892 0.565234 31.9512 0.532492C31.9204 0.506299 31.8831 0.482069 31.8451 0.466353C31.8045 0.449982 31.7718 0.424445 31.7469 0.38712C31.7377 0.373368 31.7338 0.356996 31.726 0.343245C31.7161 0.326874 31.7024 0.313123 31.6926 0.296752C31.6762 0.268595 31.6579 0.238472 31.6454 0.20835C31.6336 0.181502 31.6297 0.149415 31.6146 0.123222C31.5963 0.0904805 31.5773 0.0570835 31.5459 0.0354741C31.5262 0.0223774 31.4889 -0.00185195 31.4647 0.000112552C22.2158 0.138282 6.69368 0.181502 0.765481 0.078693C0.760242 0.13108 0.775303 0.168405 0.785126 0.218172C0.796913 0.276452 0.8087 0.336042 0.832274 0.392358C0.850609 0.435577 0.867635 0.475521 0.884006 0.520704C0.906925 0.585533 0.912819 0.635955 0.966515 0.683758C1.00646 0.719774 1.05819 0.770197 1.11189 0.782638C1.17868 0.7977 1.24613 0.751205 1.27167 0.688996C1.2959 0.630061 1.25006 0.394323 1.33977 0.382536C1.39019 0.375987 1.45829 0.4454 1.50282 0.46439C1.55979 0.488619 1.60563 0.53773 1.63706 0.595356C1.67832 0.670661 1.71892 0.83306 1.64885 0.901163C1.55914 0.988256 1.42228 0.993493 1.39543 1.1369C1.37186 1.26263 1.37448 1.4008 1.42293 1.51998C1.45436 1.59725 1.49038 1.68041 1.5336 1.75179C1.55783 1.79108 1.58992 1.82906 1.60891 1.87097C1.6279 1.91288 1.63379 1.93252 1.66391 1.96788C1.70517 2.01634 1.74118 2.0779 1.77327 2.13159C1.79029 2.15975 1.80405 2.20035 1.8178 2.23113C1.83024 2.25929 1.83155 2.27958 1.82893 2.30971L1.82762 2.32673C1.81976 2.42954 1.8322 2.56247 1.78178 2.65284C1.75624 2.69802 1.73267 2.75172 1.73856 2.80542C1.74642 2.87679 1.83089 2.89971 1.88917 2.90299C1.9468 2.90626 2.00377 2.9115 2.06074 2.91608C2.14718 2.92329 2.157 2.96978 2.18843 3.04181C2.20415 3.07848 2.23165 3.10598 2.25261 3.13873C2.26963 3.16557 2.27683 3.19831 2.29582 3.22451C2.33839 3.28213 2.415 3.33648 2.47132 3.38036C2.5905 3.47334 2.75224 3.4871 2.85833 3.59973C2.90416 3.64819 2.98209 3.68878 2.98602 3.76082C2.98929 3.81124 2.97685 3.86886 2.97292 3.91994C2.96637 4.00048 2.97816 4.04894 3.02793 4.11573C3.06787 4.17009 3.1255 4.1917 3.17526 4.2336C3.22372 4.27551 3.27218 4.32332 3.26825 4.38815C3.26432 4.44904 3.27611 4.50471 3.27218 4.56626L3.2879 4.5846C3.31605 4.71753 3.45881 4.72211 3.53149 4.81117C3.56293 4.84915 3.60025 4.90415 3.54852 4.94148C3.52625 4.95785 3.50661 4.95654 3.48762 4.98011C3.46994 5.00172 3.46339 5.02988 3.46012 5.05673C3.43654 5.25842 3.41035 5.52166 3.59829 5.6559C3.63496 5.68209 3.70371 5.67424 3.74824 5.67686C3.80718 5.68078 3.85891 5.66703 3.9185 5.67162C3.97874 5.67686 4.01476 5.69977 4.05078 5.7502C4.06715 5.77312 4.07304 5.79931 4.08745 5.82288C4.10775 5.85628 4.13787 5.88575 4.15882 5.91914C4.18698 5.96302 4.20728 6.0154 4.24526 6.05142C4.27407 6.07827 4.3042 6.10577 4.33366 6.13196C4.36902 6.1634 4.38212 6.19417 4.41159 6.22888C4.45546 6.28192 4.52095 6.31925 4.56547 6.37163C4.58381 6.39259 4.59298 6.41616 4.61328 6.43515C4.64013 6.45938 4.67156 6.47379 4.69644 6.50129C4.74359 6.55433 4.79728 6.57921 4.86146 6.60737C4.92563 6.63488 4.94528 6.6722 4.96885 6.73965C4.99242 6.80644 5.04743 6.82674 5.1116 6.84966C5.16923 6.86996 5.25894 6.86603 5.29758 6.91973C5.38467 6.91122 5.43378 7.00944 5.45932 7.07754C5.47242 7.11225 5.48551 7.13058 5.50516 7.16071C5.52939 7.19738 5.53856 7.24518 5.5916 7.25369C5.62303 7.25893 5.65315 7.2347 5.68524 7.22946C5.72453 7.22292 5.76775 7.22619 5.80769 7.2216C5.83519 7.21833 5.86335 7.21964 5.89086 7.22292C5.93669 7.22881 5.97009 7.26286 6.01069 7.28512C6.05718 7.31066 6.13707 7.32834 6.18684 7.2956C6.25298 7.25238 6.28572 7.13189 6.37216 7.12011C6.40555 7.11552 6.44288 7.13124 6.47627 7.12927C6.51033 7.12731 6.52932 7.11749 6.56009 7.10112C6.60069 7.07885 6.63867 7.03367 6.67927 7.0173C6.71267 7.00355 6.76309 7.00682 6.79714 7.01402C6.83316 7.02123 6.86394 7.04284 6.89668 7.05659C6.93662 7.07296 6.95954 7.08147 6.97788 7.12404C7.00473 7.18559 6.98573 7.26679 6.9805 7.33227C6.97395 7.41478 6.97329 7.47241 7.05253 7.52086C7.12783 7.5667 7.22409 7.532 7.3066 7.55492C7.39369 7.57849 7.36947 7.69767 7.36423 7.76577C7.35964 7.82733 7.35571 7.90721 7.31642 7.95567C7.29023 7.98841 7.24636 8.0133 7.20576 8.01788C7.1776 8.02116 7.16385 8.01133 7.13635 8.0277C7.10098 8.04866 7.06628 8.08206 7.05842 8.12331C7.05449 8.14426 7.04598 8.19469 7.05056 8.21368C7.06039 8.25428 7.12914 8.27196 7.1645 8.27458C7.20707 8.27785 7.25094 8.25428 7.2922 8.2641C7.38191 8.28636 7.36685 8.4671 7.32494 8.52407C7.2588 8.61443 7.15926 8.63015 7.05646 8.61247C7.01979 8.60658 6.99228 8.59021 6.95496 8.58693C6.91501 8.583 6.87441 8.58104 6.83447 8.57776L6.78012 8.60854C6.72053 8.65503 6.65897 8.6773 6.62558 8.74933C6.602 8.80106 6.60528 8.86 6.60069 8.91697C6.59611 8.97459 6.59218 9.03287 6.5876 9.0905C6.58236 9.16187 6.59807 9.2195 6.50836 9.21295C6.47497 9.21033 6.45139 9.20444 6.42061 9.22212C6.39508 9.23718 6.37019 9.2673 6.34727 9.28695C6.28834 9.33802 6.22678 9.38321 6.17047 9.43756C6.11481 9.49191 6.11088 9.57114 6.0932 9.64121C6.086 9.66937 6.07486 9.69098 6.07093 9.72045C6.0657 9.76498 6.06438 9.81081 6.06111 9.85534C6.05718 9.91493 6.05653 9.96339 6.00021 9.99351C5.93473 10.0282 5.87448 10.0466 5.81817 10.097C5.77102 10.1382 5.71143 10.1644 5.67083 10.2116C5.62696 10.2613 5.59815 10.3406 5.58636 10.4054C5.57457 10.4702 5.56213 10.5671 5.60535 10.6202C5.64922 10.6745 5.73108 10.6916 5.78477 10.7354C5.84371 10.7832 5.90461 10.831 5.95437 10.89C6.01789 10.9659 6.05784 11.0805 6.08469 11.1742C6.09844 11.2226 6.10826 11.2704 6.12659 11.3176C6.14166 11.3569 6.14624 11.406 6.16785 11.4413C6.21762 11.5225 6.31191 11.5081 6.38853 11.5297C6.46252 11.5507 6.54962 11.6037 6.5673 11.681C6.58629 11.7648 6.57123 11.8532 6.56533 11.9377C6.62361 11.9423 6.68582 11.9299 6.71856 11.9875C6.75851 12.0589 6.75523 12.0942 6.84887 12.0975C6.91239 12.1001 6.92745 12.0733 6.97788 12.0379C7.03812 11.996 7.08265 11.9908 7.15206 11.977C7.22213 11.9632 7.266 11.9554 7.30005 12.0274C7.32166 12.0719 7.32363 12.1322 7.31053 12.18C7.29023 12.254 7.20314 12.2756 7.17826 12.3437C7.16188 12.3876 7.15992 12.4668 7.17105 12.5107C7.19987 12.6194 7.26338 12.7196 7.32166 12.8132C7.35441 12.8656 7.39959 12.9193 7.45525 12.9455C7.51549 12.973 7.56985 13.0025 7.62682 13.0359C7.88351 13.1878 7.81737 13.4962 7.79904 13.7464C7.81737 13.7555 7.84487 13.7752 7.86517 13.7824C7.88809 13.7902 7.91298 13.7843 7.93524 13.7942C7.96864 13.8086 7.9968 13.8551 8.01513 13.8845C8.03871 13.9219 8.04853 13.9631 8.06162 14.0057C8.07407 14.0476 8.09699 14.0522 8.1402 14.0633C8.17295 14.0712 8.20765 14.0738 8.2417 14.0751C8.27444 14.0764 8.31766 14.0561 8.34713 14.0672C8.39559 14.0862 8.38773 14.153 8.4244 14.1805C8.45583 14.2047 8.50822 14.1975 8.54489 14.2008C8.63264 14.2087 8.71449 14.1451 8.79307 14.115C8.8376 14.098 8.87558 14.0705 8.91553 14.1052C8.9522 14.1379 8.9594 14.189 8.98756 14.225C9.0131 14.2571 9.07007 14.3082 9.10739 14.3259C9.14144 14.3423 9.18663 14.3423 9.21675 14.3639C9.28813 14.4149 9.26652 14.5092 9.26062 14.5832L8.94827 40.1702C14.0612 40.5644 33.5084 40.2514 44.3282 39.9829C44.3786 40.0418 44.4035 40.089 44.4867 40.087C44.5443 40.0857 44.6111 40.0405 44.6609 40.0084C44.6884 39.9907 44.727 39.9534 44.7578 39.9442C44.784 39.937 44.8174 39.9462 44.8442 39.9482C44.877 39.9508 44.9038 39.9436 44.9228 39.9711C44.9418 39.9986 44.93 40.0425 44.928 40.0719C44.9267 40.0903 44.9189 40.1191 44.9221 40.1374C44.928 40.1728 44.9536 40.1859 44.9732 40.2134C45.0223 40.2808 44.9974 40.3738 44.9916 40.453C44.987 40.5172 44.987 40.5827 44.968 40.6436C44.9595 40.6698 44.9464 40.6993 44.9516 40.7281C44.9588 40.7693 44.9994 40.7916 45.0243 40.8243C45.0656 40.8787 45.0996 40.937 45.1448 40.9893C45.1854 41.0358 45.2293 41.1105 45.2889 41.1341C45.3393 41.1537 45.4368 41.121 45.4499 41.1956C45.4552 41.2251 45.4388 41.2447 45.427 41.2696C45.4002 41.3279 45.3733 41.3783 45.3393 41.4327C45.3039 41.489 45.2967 41.5453 45.2908 41.6114C45.2849 41.6815 45.3301 41.7287 45.3327 41.7981C45.3347 41.8524 45.3327 41.9317 45.319 41.9854C45.3033 42.0463 45.2312 42.1104 45.1867 42.1504C45.1599 42.1746 45.1291 42.1929 45.1114 42.2257C45.0917 42.2617 45.0832 42.3128 45.0728 42.3521C45.0603 42.3992 45.0459 42.4437 45.0413 42.4922C45.0381 42.5289 45.0413 42.5701 45.0315 42.6055C45.0269 42.6225 45.0178 42.6356 45.0125 42.652C45.0066 42.6723 45.0125 42.6939 45.0079 42.7142C44.9994 42.7476 44.9634 42.7842 44.9424 42.8118C44.8737 42.9021 44.7637 42.9525 44.6884 43.0383C44.6635 43.0848 44.6491 43.1437 44.6065 43.1798C44.5849 43.1981 44.5535 43.1948 44.5286 43.2047C44.4978 43.2171 44.4651 43.2387 44.4376 43.2583C44.3348 43.3304 44.2372 43.3828 44.1979 43.5118C44.1815 43.5648 44.175 43.6244 44.1638 43.6787C44.1566 43.7128 44.1494 43.722 44.1344 43.7508C44.1226 43.7737 44.1193 43.7992 44.1062 43.8215C44.0748 43.8772 43.9969 43.8909 43.9438 43.9184C43.8777 43.9525 43.8325 44.0049 43.7808 44.054C43.7042 44.1273 43.6858 44.2557 43.6485 44.3572C43.6308 44.405 43.604 44.4508 43.5837 44.4979C43.5588 44.5562 43.5215 44.6119 43.4959 44.6721C43.4717 44.7291 43.4442 44.8732 43.4763 44.9321C43.4946 44.9655 43.564 45.0094 43.6053 44.9982C43.6367 44.9897 43.64 44.9622 43.6642 44.9439C43.6904 44.9242 43.7264 44.917 43.7585 44.9157L48.4799 44.7645L48.4812 44.7573C48.4805 44.7599 48.4805 44.7618 48.4799 44.7645C48.5152 44.7042 48.5715 44.6669 48.6102 44.6099C48.6436 44.5608 48.6809 44.5091 48.7084 44.456C48.7379 44.3997 48.7713 44.3454 48.7974 44.2871C48.8092 44.2609 48.8249 44.2386 48.838 44.2137C48.8505 44.1902 48.8773 44.1561 48.8734 44.128L48.8741 44.1168C48.8714 44.0992 48.8872 44.0782 48.8898 44.0599C48.895 44.0252 48.9068 43.9931 48.9088 43.9571C48.9127 43.8909 48.9101 43.8123 48.9369 43.7501C48.9585 43.7017 49.0135 43.6467 49.0561 43.6165C49.115 43.5753 49.1903 43.5576 49.248 43.5144C49.2977 43.4771 49.3462 43.4417 49.3776 43.3873C49.3907 43.3651 49.4156 43.3415 49.4235 43.3179C49.4313 43.2944 49.4222 43.2741 49.4163 43.2511C49.3894 43.1424 49.3115 43.0423 49.2218 42.9781C49.1858 42.9519 49.1537 42.9283 49.1222 42.8969C49.0843 42.8582 49.0345 42.8288 48.9834 42.8118C48.9461 42.7993 48.9134 42.779 48.8773 42.764C48.8557 42.7554 48.8335 42.7469 48.8125 42.7371C48.7706 42.7168 48.7392 42.6919 48.7018 42.6651C48.6717 42.6428 48.6462 42.6218 48.62 42.595C48.5925 42.5668 48.5768 42.5315 48.5486 42.5046C48.5198 42.4771 48.4746 42.4339 48.4923 42.39C48.5001 42.3704 48.5159 42.3435 48.5277 42.3259C48.5394 42.3075 48.5571 42.284 48.5715 42.2676C48.6003 42.2335 48.6593 42.2185 48.7012 42.21C48.7608 42.1988 48.8191 42.1936 48.8786 42.1982C48.9094 42.2008 48.9369 42.1982 48.9625 42.2152C49.0424 42.2669 49.1308 42.2617 49.2244 42.2689L49.2355 42.2695C49.2512 42.2551 49.2833 42.2512 49.3036 42.244C49.3311 42.2348 49.358 42.2244 49.3848 42.2139C49.4392 42.1916 49.4909 42.1622 49.5459 42.1478C49.5957 42.1347 49.6441 42.1124 49.6919 42.0921C49.7306 42.0757 49.7666 42.0593 49.8046 42.0436C49.8347 42.0312 49.8629 42.0253 49.893 42.0155C49.9113 42.0096 49.9473 41.9952 49.9585 41.9781C49.9735 41.9546 49.9683 41.8904 49.9545 41.8694C49.9369 41.8413 49.9296 41.8112 49.908 41.785C49.8851 41.7575 49.8674 41.7365 49.8334 41.7228C49.798 41.709 49.7607 41.6985 49.7253 41.6848C49.6782 41.6664 49.6304 41.6527 49.5865 41.6272C49.5518 41.6075 49.5243 41.58 49.4903 41.5597C49.4516 41.5368 49.4189 41.4916 49.4523 41.449C49.4811 41.413 49.5217 41.3993 49.5597 41.3757C49.5944 41.3547 49.6324 41.3456 49.6677 41.3272C49.7122 41.3037 49.7633 41.2788 49.8131 41.2663C49.8563 41.2552 49.8949 41.2316 49.9382 41.2205C49.9585 41.2153 49.9984 41.2192 50.0141 41.2022C50.0246 41.1904 50.0207 41.1675 50.022 41.1531C50.0279 41.0647 50.0063 40.9776 49.9513 40.9068C49.8949 40.8335 49.8137 40.785 49.7535 40.7137L49.7332 40.6901C49.7188 40.6685 49.7018 40.6665 49.6808 40.6541C49.6585 40.641 49.6409 40.6233 49.6271 40.601C49.6075 40.5703 49.5996 40.5388 49.6016 40.5022C49.6042 40.4635 49.6029 40.417 49.6134 40.379C49.6265 40.3339 49.6644 40.3064 49.6972 40.2749C49.7227 40.2507 49.7528 40.2311 49.7725 40.2016C49.7856 40.1813 49.7974 40.159 49.8098 40.1381C49.8465 40.0791 49.8367 40.0163 49.8301 39.9495C49.8223 39.8683 49.7856 39.8048 49.7489 39.7334C49.7312 39.6993 49.705 39.6705 49.686 39.6371C49.6703 39.6096 49.6304 39.5729 49.6278 39.5409C49.6265 39.5212 49.6356 39.5147 49.6409 39.497C49.6461 39.4793 49.6455 39.4623 49.65 39.4439C49.6553 39.4217 49.6658 39.3902 49.6775 39.3706C49.7083 39.3208 49.7745 39.313 49.8164 39.2776C49.8589 39.2416 49.9107 39.2495 49.9624 39.2547C49.9958 39.258 50.0187 39.2802 50.0495 39.2927C50.0737 39.3025 50.0999 39.3077 50.1235 39.3202C50.1569 39.3385 50.1791 39.3739 50.204 39.4027C50.2178 39.4184 50.2368 39.4348 50.2479 39.4525C50.2597 39.4714 50.259 39.4898 50.2669 39.5107C50.2761 39.5343 50.2859 39.5572 50.295 39.5808C50.3108 39.6208 50.3134 39.6574 50.3186 39.7C50.3265 39.7622 50.3219 39.8192 50.3173 39.8827C50.3153 39.9089 50.3134 39.9357 50.3114 39.9619C50.3095 39.9907 50.2977 40.032 50.3055 40.0595C50.3088 40.0706 50.3239 40.0981 50.333 40.1066C50.3514 40.1237 50.3618 40.1217 50.3867 40.1237C50.409 40.125 50.4306 40.1263 50.4529 40.1282C50.4935 40.1322 50.5052 40.1165 50.5367 40.0896C50.557 40.0726 50.5688 40.0569 50.5845 40.0353C50.6054 40.0065 50.627 39.9803 50.6467 39.9508C50.6657 39.9233 50.686 39.9023 50.7082 39.8781C50.7488 39.8342 50.775 39.7818 50.8058 39.7314C50.8412 39.6725 50.8752 39.6116 50.9027 39.5487C50.927 39.4924 50.9538 39.4498 50.9571 39.3857C50.9355 39.3614 50.9518 39.3077 50.9538 39.2763C50.9564 39.2429 50.961 39.2082 50.9617 39.1742C50.9623 39.129 50.9459 39.0871 50.9486 39.0412C50.9499 39.0183 50.9525 38.9954 50.9538 38.9725C50.9584 38.9142 50.9525 38.8428 50.9702 38.7871C50.9892 38.7269 51.0206 38.6712 51.0448 38.6136C51.0704 38.5534 51.109 38.4931 51.1719 38.4676C51.2229 38.4473 51.2734 38.4506 51.3271 38.4545C51.3519 38.4565 51.3781 38.4565 51.403 38.4597C51.4279 38.463 51.4502 38.4748 51.4731 38.4846C51.4999 38.4964 51.5307 38.5082 51.5543 38.5265C51.5785 38.5462 51.589 38.5737 51.6067 38.5979C51.6794 38.7001 51.6872 38.8422 51.8005 38.9181C51.8385 38.9437 51.8941 38.9535 51.9393 38.9568C51.9878 38.9607 52.0402 38.9548 52.0854 38.9351C52.1443 38.909 52.2098 38.905 52.2661 38.871C52.31 38.8448 52.363 38.8205 52.3754 38.7662C52.3872 38.7184 52.3827 38.6608 52.3859 38.6117C52.3892 38.5671 52.3925 38.5233 52.3957 38.4787C52.399 38.4309 52.3977 38.3798 52.4075 38.3333C52.42 38.2731 52.4763 38.258 52.5058 38.2083C52.5261 38.1742 52.5654 38.1369 52.5791 38.0989C52.587 38.0767 52.5843 38.0478 52.5863 38.0243C52.5889 37.9974 52.5876 37.9719 52.5811 37.945C52.5758 37.9228 52.5614 37.9018 52.564 37.8776L52.5536 37.8658C52.547 37.8173 52.5234 37.7702 52.5005 37.7276C52.4822 37.6936 52.454 37.6641 52.4481 37.6235C52.4455 37.6045 52.4521 37.579 52.454 37.5593C52.4553 37.5371 52.454 37.5115 52.4612 37.4899C52.4783 37.4408 52.513 37.4087 52.5464 37.3714C52.5843 37.3288 52.6217 37.2954 52.6668 37.2601C52.7081 37.2273 52.7264 37.1913 52.7317 37.1389C52.7343 37.1068 52.7415 37.0721 52.7304 37.0414C52.7199 37.0112 52.7061 36.9746 52.6871 36.9484C52.6727 36.9281 52.6557 36.9228 52.6367 36.9097C52.6217 36.8993 52.6112 36.8855 52.5955 36.875C52.5549 36.8495 52.5077 36.8279 52.4783 36.7886C52.4514 36.7539 52.4305 36.712 52.4088 36.674C52.3859 36.6334 52.3617 36.5961 52.3624 36.547C52.363 36.469 52.4016 36.395 52.4436 36.3302C52.4874 36.2621 52.5516 36.2045 52.5948 36.1364C52.6105 36.1115 52.6184 36.0807 52.6315 36.0539C52.6387 36.0395 52.6459 36.027 52.6492 36.0113C52.6544 35.9825 52.6531 35.9498 52.6557 35.9203C52.6583 35.8876 52.659 35.8614 52.6538 35.8306C52.6479 35.7991 52.6564 35.7625 52.659 35.7304L52.6642 35.6636C52.6662 35.6407 52.6675 35.6178 52.6688 35.5955C52.6708 35.5686 52.6813 35.5483 52.6865 35.5228C52.6944 35.4822 52.6904 35.4469 52.7055 35.4076C52.7212 35.3676 52.7408 35.329 52.7618 35.291C52.7808 35.2563 52.786 35.2334 52.7886 35.1934C52.7959 35.0945 52.7782 35.0166 52.6983 34.9518C52.6184 34.8876 52.53 34.9177 52.437 34.9099C52.3571 34.9033 52.2759 34.921 52.1973 34.9007C52.1004 34.8758 52.0755 34.7711 52.0107 34.7082C51.978 34.6768 51.9498 34.6316 51.9275 34.5929C51.9158 34.5733 51.9 34.5537 51.8902 34.532C51.8856 34.5183 51.8817 34.5045 51.8771 34.4908C51.8693 34.4823 51.8614 34.4738 51.8529 34.4653C51.8411 34.445 51.8385 34.426 51.8215 34.4063C51.8044 34.386 51.8005 34.3736 51.7894 34.3507C51.771 34.3133 51.7383 34.2734 51.7108 34.242L51.7114 34.2308C51.6656 34.1745 51.6375 34.092 51.5811 34.0449C51.5543 34.0226 51.5235 34.0003 51.4954 33.9794C51.4724 33.9623 51.4476 33.9656 51.4194 33.963C51.384 33.9604 51.3447 33.9512 51.31 33.9571C51.2858 33.961 51.2603 33.9617 51.2373 33.9709C51.1745 33.9964 51.1804 34.071 51.2007 34.1247C51.2092 34.1477 51.2151 34.1784 51.2288 34.1994C51.2459 34.2243 51.2688 34.2406 51.2852 34.2681C51.3146 34.3179 51.3572 34.3598 51.4011 34.3965C51.4875 34.4698 51.5543 34.5661 51.5752 34.6774C51.5831 34.7193 51.5975 34.7711 51.5608 34.8045C51.532 34.8313 51.4803 34.8477 51.4423 34.8457C51.3375 34.8411 51.2295 34.8346 51.1345 34.7894C51.0795 34.7632 51.0357 34.7377 50.9885 34.7003C50.9374 34.6604 50.8805 34.6224 50.8353 34.5746C50.7829 34.519 50.7305 34.4581 50.6834 34.3985C50.6565 34.3644 50.6297 34.3153 50.627 34.2714C50.6238 34.2203 50.6153 34.1647 50.6054 34.1136C50.5969 34.0697 50.5943 34.0259 50.5819 33.9826C50.5747 33.9571 50.5727 33.9316 50.5655 33.906C50.5576 33.8785 50.5452 33.8491 50.5406 33.8216C50.5386 33.8098 50.5413 33.7967 50.5393 33.7855C50.5354 33.7685 50.5255 33.7554 50.5229 33.7384C50.5197 33.7155 50.5262 33.6854 50.5282 33.6624L50.5177 33.6506C50.5125 33.5557 50.464 33.4666 50.4031 33.3966C50.3795 33.3697 50.3566 33.3481 50.3304 33.3245C50.2905 33.2885 50.2512 33.2656 50.2034 33.2407C50.1713 33.2243 50.1372 33.1975 50.1071 33.1765C50.0698 33.1504 50.0488 33.113 50.0325 33.0718C50.0167 33.0338 50.0102 32.9801 50.0043 32.9388C50.0004 32.912 50.0108 32.8851 50.0069 32.8589C50.0043 32.8413 49.9991 32.8301 49.9997 32.8111C50.0004 32.7948 50.0023 32.7778 50.0036 32.7607C50.0069 32.7195 49.9978 32.6802 50.0017 32.6389C50.0076 32.5741 50.003 32.5125 49.9853 32.4497C49.9794 32.4287 49.9742 32.411 49.9644 32.3927C49.9585 32.3816 49.9499 32.3547 49.9401 32.3469C49.927 32.3364 49.8851 32.3416 49.8681 32.3403C49.8295 32.337 49.7967 32.3462 49.7574 32.3429C49.7247 32.3403 49.6913 32.3384 49.6579 32.3357C49.6166 32.3325 49.5754 32.3292 49.5335 32.3266C49.4942 32.324 49.4693 32.3253 49.449 32.2866C49.4195 32.231 49.4333 32.1681 49.4379 32.1072L49.4267 32.1066C49.4294 32.0535 49.4562 32.0162 49.4916 31.9782C49.5354 31.9324 49.5551 31.8682 49.5924 31.8184C49.6317 31.7654 49.6854 31.7235 49.7378 31.6842C49.7666 31.6626 49.8013 31.6383 49.834 31.6233C49.857 31.6128 49.8668 31.6135 49.8858 31.5951C49.9002 31.5807 49.9074 31.5729 49.9238 31.5637C49.9552 31.546 50.0023 31.531 50.0272 31.5054C50.0397 31.493 50.0547 31.4674 50.0639 31.4524C50.0907 31.4065 50.0993 31.3515 50.1189 31.3024C50.1399 31.2513 50.1405 31.2009 50.1444 31.1459C50.1457 31.1263 50.1503 31.1047 50.1497 31.085C50.149 31.0601 50.1385 31.0359 50.132 31.0117C50.1189 30.9599 50.0914 30.9141 50.0763 30.863C50.0685 30.8368 50.0547 30.8205 50.0429 30.7969C50.0331 30.7759 50.0285 30.755 50.0161 30.7353C49.967 30.6541 49.9224 30.5729 49.8694 30.4917C49.8524 30.4662 49.8334 30.4439 49.819 30.4164C49.8039 30.3876 49.7954 30.3562 49.7817 30.3267C49.7555 30.2704 49.7129 30.2213 49.6847 30.1663C49.6638 30.1257 49.6376 30.087 49.6153 30.0464C49.5885 29.9967 49.5695 29.9443 49.54 29.8952C49.5138 29.852 49.4876 29.8153 49.4686 29.7675C49.4516 29.7243 49.4261 29.6863 49.4143 29.6404C49.4064 29.6116 49.3894 29.5926 49.3763 29.5665C49.3665 29.5468 49.3586 29.5278 49.3462 29.5088C49.3187 29.4663 49.299 29.4073 49.2617 29.3726L49.265 29.3281C49.2683 29.2823 49.263 29.2246 49.2892 29.1847C49.303 29.1631 49.3252 29.1421 49.3416 29.1218C49.3554 29.1048 49.3901 29.0904 49.3973 29.0714C49.4117 29.0334 49.396 28.9771 49.3868 28.9391C49.3744 28.8861 49.3259 28.8383 49.2879 28.8003C49.2702 28.7826 49.2473 28.7754 49.229 28.7577C49.2139 28.7427 49.2002 28.725 49.189 28.7073C49.1622 28.6674 49.1497 28.6261 49.1347 28.5803C49.1209 28.5377 49.1 28.4919 49.0967 28.4467C49.0934 28.4061 49.0954 28.3642 49.096 28.3236C49.0974 28.2365 49.0476 28.1088 48.971 28.0603C48.9323 28.0361 48.8819 28.0204 48.8374 28.0145C48.8138 28.0119 48.7948 28.0021 48.7719 27.9981C48.7477 27.9935 48.7234 27.9981 48.6999 27.9909C48.6802 27.985 48.6639 27.9713 48.6442 27.9667C48.6206 27.9608 48.599 27.9575 48.5748 27.9477C48.5368 27.932 48.4923 27.9091 48.4596 27.8835C48.4137 27.8482 48.379 27.7958 48.3358 27.7565C48.303 27.727 48.2657 27.7021 48.2277 27.6792C48.14 27.6249 48.0752 27.5548 48.0228 27.4658C48.0051 27.4363 48.0012 27.4035 47.9861 27.3734C47.975 27.3518 47.9678 27.3387 47.9599 27.3158C47.9481 27.2817 47.9095 27.249 47.92 27.2097C47.9043 27.1671 47.9219 27.1311 47.9173 27.0873C47.9134 27.0499 47.8912 27.0015 47.8643 26.9759C47.8244 26.938 47.7301 26.9504 47.6777 26.9465C47.6449 26.9439 47.6096 26.9471 47.5814 26.9294C47.5644 26.919 47.5441 26.9 47.5336 26.883C47.5231 26.8672 47.5238 26.8489 47.514 26.8332C47.5035 26.8168 47.4878 26.8044 47.478 26.7867C47.4668 26.7677 47.457 26.7507 47.4426 26.7336C47.4105 26.6937 47.3817 26.6505 47.345 26.6151C47.3136 26.585 47.2795 26.5673 47.2442 26.5431C47.2298 26.5333 47.22 26.5182 47.2055 26.5084C47.1879 26.4966 47.1676 26.4907 47.1486 26.4822C47.0831 26.4534 47.0189 26.4324 46.9508 26.4141C46.9266 26.4075 46.9011 26.4095 46.8775 26.401C46.8585 26.3944 46.8421 26.3853 46.8225 26.3807C46.791 26.3735 46.7589 26.3676 46.7282 26.3604C46.664 26.346 46.6208 26.2792 46.5736 26.2379C46.5239 26.1947 46.4728 26.1522 46.4243 26.1089C46.3929 26.0814 46.3693 26.0448 46.3359 26.0192C46.3097 25.9996 46.2744 25.9655 46.2397 25.9682L46.2285 25.9675C46.1801 25.9171 46.1002 25.8955 46.0321 25.9164C45.9895 25.9295 45.947 25.9341 45.9155 25.9688C45.8769 26.012 45.8265 26.0376 45.7846 26.0801C45.7603 26.105 45.7413 26.1332 45.7151 26.1554C45.6988 26.1692 45.6811 26.1803 45.6641 26.1934C45.6418 26.2098 45.6182 26.2294 45.5947 26.2438C45.5586 26.2668 45.501 26.2694 45.4598 26.2779C45.4323 26.2838 45.4048 26.2936 45.3773 26.3021C45.3425 26.3132 45.3052 26.3198 45.2731 26.3362C45.2299 26.3578 45.1952 26.382 45.1448 26.3774C45.1009 26.3741 45.0832 26.3421 45.0577 26.3093C45.0276 26.2707 44.9889 26.2373 44.9562 26.2C44.9176 26.1554 44.8796 26.1161 44.837 26.0749C44.8075 26.0461 44.7755 26.0258 44.7597 25.9858C44.7322 25.9151 44.7637 25.8647 44.7787 25.7966C44.7833 25.7769 44.7918 25.7579 44.7951 25.7376C44.7977 25.7226 44.7945 25.7062 44.7971 25.6905C44.803 25.6617 44.837 25.6322 44.8593 25.6139C44.8855 25.5923 44.9143 25.5694 44.9411 25.5484C44.9667 25.5294 45.0132 25.4836 45.0466 25.4888L45.0813 25.4692C45.1029 25.4554 45.1003 25.403 45.0996 25.3788C45.0989 25.3402 45.0701 25.3061 45.0511 25.274C45.006 25.1981 44.9117 25.1476 44.8429 25.0939C44.7997 25.0599 44.7519 25.0252 44.7146 24.9839C44.6812 24.9466 44.6445 24.9191 44.6091 24.8844C44.5725 24.8484 44.5292 24.8183 44.486 24.7908C44.4553 24.7718 44.4277 24.7475 44.3976 24.7259C44.323 24.6722 44.2444 24.6251 44.1593 24.591C44.1252 24.5773 44.0912 24.5596 44.0565 24.5465C44.0204 24.5334 43.9897 24.5256 43.9576 24.5039C43.8875 24.4561 43.8096 24.4214 43.7369 24.3782C43.6996 24.356 43.6642 24.337 43.6243 24.3199C43.6099 24.3134 43.5955 24.3075 43.5817 24.3003C43.5673 24.2931 43.5463 24.2721 43.5306 24.2708C43.5018 24.2728 43.4946 24.2505 43.4782 24.2335C43.4586 24.2132 43.4357 24.1981 43.4173 24.1759C43.3866 24.1385 43.3538 24.096 43.327 24.0554C43.3093 24.0298 43.2969 24.0037 43.2707 23.986C43.2563 23.9761 43.2366 23.9703 43.2215 23.9604C43.1803 23.9342 43.1371 23.9048 43.0906 23.8891C43.0519 23.876 43.0185 23.8511 42.9845 23.8288C42.955 23.8098 42.9328 23.7856 42.902 23.7686C42.8863 23.7601 42.8712 23.7522 42.8568 23.743C42.8208 23.7201 42.7835 23.6998 42.7474 23.6769C42.7324 23.6677 42.7219 23.6559 42.7062 23.6481C42.68 23.6356 42.6656 23.6324 42.6446 23.6134C42.6243 23.595 42.6093 23.5754 42.5909 23.5557C42.5746 23.5387 42.5536 23.5302 42.5372 23.5132C42.4986 23.4726 42.4619 23.4353 42.4325 23.3875C42.4089 23.3495 42.3775 23.318 42.3539 23.2814C42.3329 23.248 42.3153 23.2139 42.3002 23.1766C42.2675 23.0954 42.2524 23.0063 42.2249 22.9238C42.2131 22.8885 42.2033 22.8531 42.1908 22.8184C42.1797 22.7883 42.1588 22.728 42.1666 22.696C42.1712 22.677 42.1588 22.6586 42.1594 22.6396C42.1594 22.6252 42.162 22.6102 42.1633 22.5958C42.1666 22.5519 42.1699 22.508 42.1732 22.4641C42.1758 22.4255 42.1732 22.3823 42.183 22.345C42.1935 22.305 42.1987 22.269 42.202 22.2271C42.2039 22.2029 42.2039 22.178 42.2072 22.1538C42.2092 22.1374 42.2164 22.1282 42.2203 22.1132C42.2295 22.0798 42.2314 22.045 42.2393 22.0117C42.2537 21.9514 42.2812 21.8905 42.3041 21.8316C42.3303 21.7648 42.35 21.6967 42.3906 21.6358C42.4161 21.5978 42.4351 21.5513 42.4659 21.5186C42.4934 21.4891 42.5156 21.4603 42.5405 21.4288C42.5641 21.3981 42.5936 21.368 42.6139 21.3352C42.6446 21.2854 42.6833 21.2455 42.7134 21.1964C42.7376 21.1571 42.7782 21.1283 42.8077 21.0923C42.8254 21.07 42.8431 21.0471 42.8601 21.0242C42.9072 20.9613 42.9432 20.8899 42.9838 20.8244C43.0081 20.7858 43.0323 20.7518 43.0513 20.7092C43.0637 20.6804 43.088 20.6548 43.0912 20.6234L43.1063 20.5691C43.103 20.5435 43.12 20.5271 43.1227 20.5036C43.1253 20.4833 43.1253 20.463 43.1266 20.4427C43.1299 20.4014 43.1272 20.3549 43.1371 20.315C43.1489 20.2672 43.1652 20.22 43.179 20.1729C43.1881 20.1401 43.2032 20.1264 43.2202 20.0976C43.2301 20.0806 43.236 20.0603 43.2484 20.0439C43.272 20.0131 43.308 19.9902 43.3309 19.9581C43.3571 19.9221 43.363 19.8815 43.3748 19.8415C43.3997 19.759 43.4095 19.6713 43.4409 19.5901C43.454 19.5554 43.4815 19.5285 43.4959 19.4945C43.5051 19.4735 43.509 19.4532 43.5208 19.4342C43.5293 19.4211 43.5404 19.4087 43.5496 19.3956C43.5791 19.355 43.6059 19.3098 43.6275 19.264C43.6426 19.2319 43.6433 19.1998 43.6459 19.1651C43.6485 19.131 43.6564 19.0937 43.6544 19.0597C43.6524 19.0184 43.6334 18.985 43.6197 18.947C43.5922 18.8717 43.5725 18.7945 43.5542 18.7178C43.5503 18.7028 43.5405 18.6897 43.5385 18.6727C43.5372 18.6648 43.5391 18.6563 43.5372 18.6484C43.5332 18.6327 43.5221 18.6177 43.5162 18.6019C43.5038 18.5666 43.4979 18.5306 43.49 18.4952C43.4809 18.4526 43.4691 18.4107 43.4606 18.3675C43.456 18.3439 43.4455 18.321 43.4435 18.2974C43.4416 18.2752 43.4462 18.2523 43.4481 18.23L43.4488 18.2189C43.452 18.1737 43.452 18.1161 43.4809 18.0781C43.4959 18.0578 43.5195 18.046 43.5346 18.025C43.5529 18.0001 43.5673 17.974 43.5883 17.9504C43.6282 17.9059 43.6596 17.86 43.7055 17.8214C43.7434 17.7893 43.7742 17.7559 43.8043 17.716C43.8482 17.6583 43.881 17.5915 43.9176 17.5287C43.9379 17.494 43.9458 17.4553 43.9615 17.4193C43.9766 17.384 43.9929 17.3499 43.9969 17.3113C44.0001 17.2785 44.0028 17.2451 44.0047 17.2124C44.0067 17.1731 43.9956 17.1371 43.9877 17.0991C43.9739 17.0323 43.9589 16.9675 43.9301 16.9046C43.9117 16.8653 43.8888 16.828 43.8633 16.7939C43.8423 16.7658 43.8273 16.7291 43.7978 16.7082C43.7376 16.6656 43.6708 16.6368 43.6046 16.6047C43.5274 16.568 43.4514 16.5268 43.3754 16.4868C43.344 16.4705 43.3054 16.4502 43.2785 16.4272C43.2451 16.3991 43.2098 16.3735 43.1646 16.3683C43.1443 16.3506 43.1325 16.3303 43.1142 16.312C43.0958 16.2937 43.0762 16.2806 43.0611 16.2583C43.0402 16.2256 43.0166 16.2039 42.9897 16.1778C42.9648 16.1529 42.94 16.1306 42.9164 16.1051C42.8954 16.0821 42.8686 16.0632 42.8372 16.056C42.7841 16.0429 42.7134 16.0415 42.661 16.0501C42.627 16.056 42.5929 16.056 42.5595 16.0645C42.5248 16.0736 42.5012 16.0743 42.4659 16.0717C42.4279 16.0684 42.384 16.071 42.3473 16.0605C42.312 16.0501 42.276 16.0507 42.2406 16.0415C42.1705 16.0239 42.0985 16.0147 42.0337 15.9806C42.0049 15.9656 41.9734 15.9577 41.944 15.9407C41.9132 15.923 41.8844 15.9139 41.8516 15.9001C41.7888 15.8733 41.72 15.8713 41.6513 15.866L41.6401 15.8654C41.5805 15.8608 41.5209 15.8575 41.462 15.8523C41.4024 15.8464 41.3422 15.8733 41.2937 15.9066C41.2459 15.9394 41.2164 16.0009 41.1811 16.0461C41.1405 16.0979 41.1189 16.1607 41.0796 16.2118C41.0514 16.2491 41.0213 16.2832 40.9938 16.3218C40.965 16.3618 40.9277 16.3958 40.8975 16.4344C40.8851 16.4508 40.8799 16.4672 40.8642 16.4822C40.8504 16.4953 40.8347 16.5058 40.8216 16.5209C40.7895 16.5569 40.7535 16.5942 40.7142 16.6224C40.6913 16.6388 40.6664 16.6427 40.6441 16.661C40.6219 16.68 40.6009 16.6898 40.5741 16.701C40.5341 16.7173 40.4817 16.7304 40.4379 16.7344C40.3979 16.7376 40.354 16.7291 40.3141 16.7258C40.2715 16.7226 40.225 16.7258 40.1857 16.7082C40.1399 16.6872 40.0908 16.644 40.0633 16.6014C40.0417 16.5667 40.0312 16.5228 40.0142 16.4855C39.9952 16.4416 39.9827 16.3912 39.9526 16.3532C39.9251 16.3179 39.9009 16.2812 39.8714 16.2472C39.857 16.2301 39.8426 16.2072 39.8249 16.1941C39.8033 16.1791 39.7824 16.1732 39.7608 16.1561C39.7431 16.1411 39.7208 16.1313 39.7025 16.1168C39.6769 16.0959 39.6612 16.0697 39.6462 16.0402C39.6252 15.999 39.6042 15.959 39.597 15.9132C39.5918 15.8785 39.5885 15.849 39.5912 15.813L39.584 15.7567C39.5833 15.739 39.5715 15.7253 39.5676 15.7082C39.563 15.6873 39.5617 15.667 39.5558 15.6454C39.546 15.61 39.5532 15.5746 39.5558 15.538C39.5578 15.5098 39.5663 15.4817 39.5754 15.4555C39.5833 15.4326 39.5977 15.4155 39.601 15.39C39.6029 15.3736 39.6029 15.3559 39.6043 15.3396C39.6062 15.3088 39.6088 15.2774 39.6115 15.2466C39.6147 15.2125 39.6049 15.1811 39.599 15.1477C39.5859 15.0744 39.563 15.0049 39.544 14.9342C39.5335 14.8943 39.5211 14.8517 39.5204 14.8098C39.5198 14.783 39.525 14.7541 39.527 14.728C39.5283 14.7077 39.5329 14.686 39.5309 14.6657C39.5289 14.6494 39.5231 14.6363 39.5237 14.6186C39.525 14.5872 39.5296 14.5557 39.5316 14.5236C39.5335 14.4896 39.5257 14.4588 39.5276 14.4241C39.5296 14.3887 39.5231 14.3547 39.5244 14.3193C39.5283 14.2349 39.4916 14.1484 39.4726 14.0679C39.4628 14.026 39.4635 13.9801 39.4491 13.9402C39.4366 13.9068 39.4294 13.8734 39.4202 13.8387C39.4111 13.802 39.4104 13.7667 39.4006 13.7313C39.3914 13.6986 39.394 13.6704 39.3967 13.6363C39.4085 13.4766 39.3613 13.3207 39.3233 13.1655C39.3181 13.1439 39.3142 13.1249 39.303 13.1059C39.2939 13.0889 39.2801 13.0738 39.2722 13.0555C39.2533 13.0123 39.229 12.975 39.195 12.9409C39.1295 12.8741 39.0614 12.8276 38.9704 12.8047C38.9317 12.7949 38.9016 12.7844 38.8689 12.7615C38.8309 12.7346 38.7936 12.7071 38.7543 12.6829C38.6895 12.643 38.6227 12.5965 38.5637 12.5493C38.5205 12.5146 38.4786 12.4773 38.4386 12.4393C38.421 12.4229 38.4007 12.4105 38.3856 12.3915C38.3738 12.3758 38.3666 12.3575 38.3548 12.3417C38.3345 12.3142 38.3038 12.2979 38.2828 12.2723C38.2658 12.2514 38.254 12.2304 38.2356 12.2101C38.1996 12.1715 38.1643 12.1335 38.1296 12.0936L38.1191 12.0818C38.104 12.0615 38.0949 12.0392 38.0772 12.0202C38.0641 12.0084 38.0516 11.996 38.0392 11.9835C38.0313 11.9731 38.0241 11.9619 38.0169 11.9502C37.9862 11.9207 37.9501 11.8906 37.9148 11.865C37.8473 11.8172 37.7746 11.7897 37.6967 11.7629C37.5965 11.7288 37.5022 11.6895 37.4132 11.6326C37.368 11.6031 37.3294 11.571 37.2927 11.5311C37.2586 11.4944 37.2128 11.4741 37.1794 11.4355C37.1067 11.3516 37.0072 11.3051 36.924 11.2331C36.89 11.203 36.8572 11.1827 36.8278 11.148C36.797 11.112 36.7623 11.0773 36.7354 11.038C36.6791 10.9555 36.6025 10.8874 36.5527 10.8009C36.5298 10.7616 36.4964 10.7328 36.4722 10.6955C36.4558 10.6713 36.4381 10.6503 36.4205 10.6267C36.406 10.6077 36.3982 10.5848 36.3805 10.5678L36.3622 10.5108C36.3438 10.4905 36.3406 10.4787 36.3307 10.4552C36.3203 10.4316 36.2987 10.4119 36.2816 10.3923C36.2515 10.3589 36.2155 10.3386 36.1762 10.3177C36.1382 10.2974 36.0871 10.2875 36.0459 10.2738C36.0001 10.2587 35.9588 10.2417 35.9117 10.2319C35.8337 10.2162 35.7748 10.1729 35.7486 10.097C35.742 10.078 35.7355 10.0623 35.7276 10.0439C35.7185 10.023 35.708 10.0112 35.6975 9.99286C35.6792 9.96274 35.6707 9.92934 35.6491 9.89922C35.5999 9.83046 35.5554 9.75319 35.5155 9.67919C35.503 9.65627 35.4867 9.62877 35.4696 9.60847C35.4585 9.59472 35.4448 9.59079 35.4297 9.58162C35.3989 9.56329 35.3734 9.54102 35.3419 9.52334C35.3086 9.50435 35.283 9.47619 35.2542 9.45131C35.2228 9.42381 35.1841 9.40023 35.1592 9.36618C35.1455 9.34719 35.1389 9.32886 35.1213 9.31314C35.1036 9.29677 35.0879 9.28367 35.0722 9.26534C35.0453 9.23456 35.0086 9.21753 34.9824 9.18545C34.9477 9.14354 34.9039 9.11669 34.8678 9.07675C34.8417 9.04728 34.8181 9.01585 34.7919 8.98703C34.7775 8.97132 34.7585 8.96084 34.7441 8.94512C34.7316 8.93137 34.7218 8.91631 34.7087 8.90453C34.6865 8.88423 34.6557 8.84428 34.6243 8.84166L34.6138 8.82987C34.5398 8.74409 34.4396 8.65438 34.4003 8.54568C34.3944 8.52931 34.3918 8.5149 34.3826 8.50049C34.3741 8.49329 34.3669 8.48478 34.361 8.47496C34.3551 8.46055 34.3518 8.44614 34.3512 8.43108C34.342 8.39506 34.3152 8.36756 34.3165 8.32827C34.3171 8.2975 34.323 8.26737 34.3237 8.2366C34.3243 8.21237 34.3178 8.19338 34.3165 8.1698C34.3152 8.15147 34.3224 8.13444 34.3184 8.11545C34.3053 8.04669 34.2975 7.97466 34.2798 7.90787C34.2746 7.88888 34.2595 7.88037 34.2497 7.86334C34.2418 7.84894 34.2392 7.83191 34.232 7.8175C34.2137 7.78018 34.1868 7.73565 34.1619 7.70291C34.1351 7.6682 34.103 7.64725 34.0703 7.61843C34.0421 7.59355 34.0126 7.5726 33.9838 7.54771C33.9282 7.49991 33.8646 7.4652 33.8155 7.4102C33.7867 7.37811 33.7736 7.35519 33.7559 7.31656C33.7422 7.28578 33.7094 7.23798 33.7193 7.20262C33.7324 7.02974 33.7448 6.85752 33.7579 6.68464C33.7612 6.63946 33.7645 6.59362 33.7684 6.54844C33.7703 6.52617 33.7736 6.50325 33.7723 6.48099C33.771 6.45742 33.7612 6.43712 33.7586 6.4142C33.7546 6.37949 33.7546 6.35854 33.7402 6.32579C33.7324 6.30746 33.7324 6.28585 33.7232 6.26817C33.7075 6.23805 33.6741 6.20858 33.6512 6.18239C33.6322 6.16143 33.6132 6.15423 33.5922 6.13786C33.5772 6.12607 33.5628 6.10905 33.5484 6.0966C33.5084 6.0619 33.4665 6.02457 33.4311 5.98528C33.3644 5.90998 33.2904 5.82223 33.2498 5.72924C33.2334 5.69126 33.2177 5.6559 33.2052 5.61661C33.1921 5.57536 33.1686 5.5413 33.1581 5.49809C33.1489 5.46207 33.1339 5.43129 33.1214 5.39593C33.1162 5.38087 33.1155 5.36385 33.109 5.34944C33.1005 5.33176 33.0893 5.31801 33.0815 5.29902C33.0219 5.15103 32.9924 4.99779 33.0042 4.83998L33.0048 4.7542Z" fill="white"/>
</svg>
