<svg width="27" height="45" viewBox="0 0 27 45" fill="none" xmlns="http://www.w3.org/2000/svg">
<path d="M26.4248 0.958722L25.5859 0C25.5859 0 25.5859 0 25.526 0L9.46738 0.719041H9.40746V0.778962L9.70706 1.67776L8.26898 2.63648C8.26898 2.63648 8.26898 2.63648 8.26898 2.6964V3.41545L7.60985 3.47537C7.60985 3.47537 7.54993 3.47537 7.54993 3.53529L7.37017 4.49401L7.54993 6.35153L6.17177 6.89081C6.17177 6.89081 6.11185 6.89081 6.11185 6.95073V7.72969H5.75233C5.75233 7.72969 5.69241 7.72969 5.69241 7.78961L5.45273 8.50866L4.73369 9.04794C4.73369 9.04794 4.73369 9.04794 4.73369 9.10786V9.16778L5.39281 9.58722L5.33289 9.88682L3.77497 10.486C3.77497 10.486 3.77497 10.486 3.71505 10.5459V10.6059L4.19441 11.0253L3.95473 12.4035L2.75633 13.4221C2.75633 13.4221 2.75633 13.4221 2.75633 13.482V13.5419L3.35553 14.0213L3.29561 14.3808L2.75633 14.6205C2.75633 14.6205 2.75633 14.6205 2.69641 14.6804V14.7403L3.47537 15.4594L3.11584 16.9574V17.0173L3.65513 17.4368L3.77497 18.2157L3.29561 18.6951C3.29561 18.6951 3.29561 18.6951 3.29561 18.755L3.41545 19.7736L3.47537 20.0732V20.1332L4.13449 20.5526L3.53529 22.0506V22.1105L4.13449 22.6498L3.53529 23.0692C3.53529 23.0692 3.47537 23.1292 3.53529 23.1292L4.07457 23.968V24.8069V24.8668L5.63249 26.0652L4.73369 27.743H4.19441C4.19441 27.743 4.19441 27.743 4.13449 27.743C4.13449 27.743 4.13449 27.743 4.13449 27.8029L4.31425 28.9414L2.21704 30.739C2.21704 30.739 2.21704 30.739 2.21704 30.7989L1.73768 33.0759L0.958722 33.735V33.7949L1.25832 34.7537L1.01864 35.7124L0.0599203 36.012C0.0599203 36.012 0.0599201 36.012 0 36.012C0 36.012 0 36.012 0 36.0719L0.659121 37.8096L0.0599203 38.4088V38.5886V38.6485H0.119841L0.179761 38.5886L15.3995 38.1092L14.6804 41.1052C14.6804 41.1052 14.6804 41.1052 14.6804 41.1651L15.0999 42.1238L16.1185 43.0226L16.8376 44.9401C16.8376 44.9401 16.8376 44.9401 16.8975 45L18.6352 44.0413L19.8336 44.3409C19.8336 44.3409 19.8336 44.3409 19.8935 44.3409L21.5113 43.2623L26.3648 43.3222C26.3648 43.3222 26.3648 43.3222 26.4248 43.3222C26.4248 43.3222 26.4248 43.3222 26.4248 43.2623V0.958722Z" fill="white"/>
</svg>
