<svg width="77" height="45" viewBox="0 0 77 45" fill="none" xmlns="http://www.w3.org/2000/svg">
<path d="M31.9602 37.9261V44.1477L31.5341 43.9773C31.3636 43.892 31.3636 43.7216 31.3636 43.5511C31.0227 43.4659 31.108 43.125 30.767 43.125L30.6818 42.7841L30.8523 42.6989L30.5966 42.4432H30.4261C30.5114 42.1023 30.2557 41.8466 30.0852 41.6761H29.9148L29.7443 41.4205C29.5739 41.5057 29.5739 41.6761 29.4886 41.8466L29.3182 41.7614L28.9773 41.9318C29.0625 42.1023 29.0625 42.358 28.9773 42.5284H28.8068L28.892 42.6989C28.7216 42.8693 28.8068 43.125 28.892 43.3807L29.1477 43.4659V43.5511C29.0625 43.5511 28.892 43.5511 28.8068 43.6364C28.5511 43.2955 27.8693 43.4659 27.5284 43.3807C27.2727 43.6364 26.8466 43.5511 26.6761 43.8068L26.3352 43.2955C26.0795 43.2955 25.7386 43.2955 25.5682 43.5511L25.2273 43.4659V43.6364C25.0568 43.5511 24.8864 43.5511 24.7159 43.6364C24.5455 43.4659 24.2045 43.4659 23.9489 43.4659C23.8636 43.2955 23.7784 43.2102 23.6932 43.2102C23.4375 43.3807 23.267 43.5511 23.0114 43.4659C23.0114 43.8068 22.9261 43.9773 22.7557 44.3182C22.5 44.3182 22.3295 44.233 22.1591 43.9773L21.9034 44.1477C21.6477 43.8068 21.392 43.9773 21.0511 43.892C20.7955 43.892 20.5398 43.7216 20.3693 43.7216C19.7727 43.7216 19.517 44.4034 19.6875 44.9148L19.6023 45L19.4318 44.7443C19.4318 44.4034 18.75 44.3182 18.5795 43.9773C18.4943 43.8068 18.3239 43.0398 18.4091 42.9545L18.0682 42.5284L18.3239 42.2727C18.2386 41.8466 17.8977 40.9943 17.5568 40.7386C17.0455 40.3977 16.875 40.5682 16.3636 40.7386C16.3636 40.3977 16.0227 40.3977 15.767 40.142C15.5114 39.8864 15.4261 39.5455 15.3409 39.2045C16.0227 38.9489 15.6818 38.3523 15.4261 37.9261C15.4261 37.9261 14.4034 36.5625 14.3182 36.3068C14.1477 35.9659 14.0625 34.7727 13.6364 34.6875C13.6364 34.6023 13.7216 34.6023 13.7216 34.517C13.4659 34.1761 13.9773 33.4091 13.2102 33.5795C13.2955 33.3239 13.3807 33.1534 13.4659 32.8977L13.3807 32.7273H13.2102H13.2955H12.9545C13.125 32.3864 12.7841 32.3011 12.7841 31.9602C12.6136 32.0455 12.5284 32.0455 12.4432 31.875C12.1875 31.9602 12.1875 32.3011 12.017 32.5568C11.7614 32.8977 11.1648 33.0682 10.9091 33.4091L10.5682 33.3239L10.3977 33.9205L9.97159 34.1761L9.71591 33.8352C9.46023 33.75 9.375 33.4091 9.20455 33.2386C9.03409 33.0682 8.86364 33.1534 8.69318 33.0682L8.52273 33.1534H8.4375C8.60795 32.8977 8.60795 32.5568 8.69318 32.3011C8.77841 32.1307 8.94886 32.3011 8.94886 31.9602C8.94886 31.7898 8.77841 31.6193 8.77841 31.5341C8.60795 31.1932 8.52273 31.108 8.77841 30.767C8.94886 30.5966 9.46023 30.2557 9.63068 30.5114L9.80114 30.1705L9.54545 29.6591L9.71591 29.4034C9.63068 28.9773 9.03409 29.1477 9.28977 28.7216L9.11932 28.6364C9.28977 28.2955 9.46023 28.125 9.28977 27.7841C9.20454 27.5284 8.94886 27.9545 9.03409 27.5284C9.03409 27.358 9.20455 27.4432 9.20455 27.358C9.46023 26.9318 9.71591 26.3352 9.80114 25.7386C9.88636 25.3125 9.88636 25.142 10.142 24.7159L9.97159 24.2045L10.3125 24.0341V23.6932C10.483 23.4375 10.483 23.0966 10.483 22.7557C10.2273 22.5 10.0568 22.5852 9.71591 22.6705L9.46023 22.9261C9.20455 22.8409 9.11932 22.6705 8.86364 22.8409C8.35227 22.6705 8.69318 21.9034 8.26704 21.9034C8.01136 21.9034 8.01136 22.1591 7.84091 22.1591C7.41477 22.2443 7.67045 22.0739 7.67045 21.9034C7.58523 21.6477 7.58523 21.4773 7.32955 21.3068C7.07386 21.1364 6.98864 21.1364 6.81818 20.8807C6.5625 20.4545 6.90341 20.1989 6.5625 19.7727C6.39205 19.6023 6.13636 19.6023 5.96591 19.517C5.79545 19.3466 5.71023 18.8352 5.53977 18.5795C5.19886 18.0682 4.6875 17.642 4.43182 17.0455C4.17614 16.4489 3.66477 16.7045 3.23864 16.2784C2.72727 15.8523 2.38636 14.9148 1.61932 14.9148C1.78977 14.6591 2.30114 14.7443 2.47159 14.4886C1.96023 14.4886 2.21591 13.8068 1.70455 13.7216C1.875 13.4659 2.13068 13.3807 2.13068 13.125C2.13068 12.9545 1.875 12.9545 1.875 12.7841C1.875 12.358 1.96023 12.2727 1.61932 11.9318C1.44886 11.7614 1.36364 11.7614 1.27841 11.5909C1.19318 11.4205 1.27841 11.1648 1.19318 10.9943C1.10795 10.8239 0.852273 10.7386 0.767046 10.5682C0.511364 10.3125 0.340909 9.88636 0.255682 9.54545L0 9.63068V0H76.7045V37.9261H31.9602Z" fill="white"/>
</svg>
