<svg width="116" height="45" viewBox="0 0 116 45" fill="none" xmlns="http://www.w3.org/2000/svg">
<path d="M112.502 22.3728C111.866 22.6271 111.358 23.0084 110.722 23.2627C110.468 23.3898 109.578 24.4067 109.324 24.2796C109.578 24.0254 109.705 23.8983 109.705 23.5169C110.086 23.7712 110.849 23.1356 111.23 22.8813C111.739 22.6271 112.12 22.3728 112.629 22.2457L112.502 22.3728Z" fill="white"/>
<path d="M108.18 25.4237C108.18 25.0424 108.434 25.0424 108.561 24.7882C108.688 24.4068 108.942 24.2797 109.324 24.4068L108.18 25.4237Z" fill="white"/>
<path d="M107.671 25.9321C107.671 25.805 107.798 25.6779 107.926 25.6779L107.671 25.9321Z" fill="white"/>
<path d="M107.036 26.6948C107.036 26.3135 107.417 26.1864 107.671 25.9321L107.036 26.6948Z" fill="white"/>
<path d="M106.146 27.5847C106.4 27.3305 106.527 26.9491 106.908 26.822L106.146 27.5847Z" fill="white"/>
<path d="M101.315 31.0169V30.8898C101.697 30.8898 103.095 31.2711 102.841 31.7796C102.332 31.3982 101.951 31.2711 101.315 31.0169Z" fill="white"/>
<path d="M102.968 31.9068C103.095 31.6525 103.349 31.2712 103.349 31.0169C103.603 30.8898 104.366 29.8729 104.239 29.6186C104.62 29.7457 104.62 29.3644 104.62 28.983L104.748 29.1101C105.129 28.4745 105.637 28.0932 106.146 27.5847C106.146 27.9661 105.51 28.4745 105.256 28.8559C104.875 29.2373 104.62 29.7457 104.366 30.1271C103.858 30.8898 103.349 31.6525 103.095 32.6695L102.841 32.0339C102.968 32.0339 102.968 32.161 103.095 32.161C102.841 32.0339 102.968 32.0339 102.968 31.9068Z" fill="white"/>
<path d="M109.959 0C109.959 0 109.832 0.88983 110.087 1.01695C109.832 1.27119 109.451 1.01695 109.324 0.762715L109.197 1.01695C108.942 0.88983 108.942 0.635592 109.197 0.381355C108.942 0.381355 108.815 0.127119 108.688 0C108.561 0 109.832 0 109.959 0Z" fill="white"/>
<path d="M115.171 12.2034C115.044 11.9492 114.917 11.5678 114.79 11.3136C114.663 10.9322 114.408 10.4237 114.154 10.0424C113.646 9.02543 113.01 8.00848 112.502 6.86441C112.12 5.84746 111.612 4.83051 111.358 3.68644C110.976 2.41526 110.722 1.27119 110.468 0H110.086V0.127122C110.214 0.25424 110.214 0.635596 110.214 0.762715C110.214 1.14407 110.341 1.27119 110.595 1.65254C110.086 1.77966 111.103 2.16102 110.722 2.41526C111.103 2.66949 111.103 3.4322 111.103 3.81356C111.103 4.19492 111.23 4.19492 111.358 4.44915C111.358 4.70339 111.485 4.83051 111.739 4.95763C111.739 4.95763 111.739 5.08475 111.612 5.08475C111.993 5.08475 112.375 6.61017 112.375 7.11865L112.247 6.86441C112.12 7.24577 112.375 8.51695 113.01 8.00847C113.137 8.38983 113.137 8.77119 113.264 9.15254C113.392 9.40678 113.519 9.40678 113.773 9.5339C113.9 9.66102 114.027 9.91526 114.154 10.1695C114.536 10.8051 114.536 11.6949 114.917 12.2034L115.044 12.0763C114.917 12.2034 115.171 12.2034 115.171 12.2034Z" fill="white"/>
<path d="M112.629 13.0932C112.502 12.7119 112.883 12.2034 112.756 11.822C112.756 11.6949 112.375 11.5678 112.502 11.3136C112.502 11.0593 112.629 10.8051 112.375 10.678C112.12 10.4237 112.247 9.91526 111.739 9.78814C111.485 10.1695 111.739 9.66102 111.612 9.5339C111.485 9.40678 111.103 9.40678 110.976 9.27966C111.103 9.5339 111.103 9.78814 110.722 9.78814C111.103 9.78814 111.231 9.91525 111.612 10.1695C111.485 10.1695 111.358 10.1695 111.231 10.1695C110.976 10.0424 111.103 10.2966 110.976 10.2966C110.722 10.1695 110.595 9.91525 110.341 10.1695C110.468 10.2966 110.595 10.678 110.722 10.8051C110.849 10.9322 110.976 10.8051 111.231 10.8051C111.103 10.9322 111.103 11.0593 111.103 11.1864C110.976 10.9322 110.722 10.8051 110.595 10.9322C110.595 10.678 110.595 10.2966 110.341 10.5508L110.468 10.4237C110.086 10.1695 109.705 10.9322 109.705 11.1864C109.705 11.3136 109.578 11.1864 109.578 11.3136C109.578 11.4407 109.705 11.5678 109.705 11.6949C109.705 11.9492 109.451 12.0763 109.578 12.3305C109.705 12.7119 109.578 15 108.942 14.8729C108.942 14.6186 108.942 14.6186 108.688 14.4915C108.561 14.7458 107.798 14.6186 107.798 14.2373C107.671 14.2373 107.544 14.2373 107.544 14.1102C107.671 14.2373 107.925 13.9831 107.798 14.2373C107.671 14.6186 108.561 14.3644 108.561 14.1102C108.307 13.8559 108.942 13.4746 108.561 13.0932C108.561 13.2203 108.307 13.0932 108.307 13.2203C108.18 12.9661 107.29 12.7119 107.925 12.4576C108.053 12.7119 108.434 13.3475 108.561 12.7119C108.561 12.7119 108.434 11.9492 108.561 11.5678C108.307 11.4407 108.053 11.4407 108.053 11.0593C108.053 11.4407 108.688 11.5678 108.688 11.1864C108.688 10.8051 109.197 10.4237 108.942 10.1695L108.815 10.2966L108.688 10.1695C108.561 10.2966 108.434 10.4237 108.434 10.5508C108.18 10.2966 108.053 9.91525 107.671 9.91525C108.053 9.78813 108.18 10.5508 108.561 10.1695C108.307 10.0424 108.307 9.91526 108.434 9.66102C108.561 9.78814 108.815 10.0424 108.942 9.78814C109.069 9.5339 108.942 9.5339 108.815 9.40678C108.307 9.02543 108.053 9.15254 107.417 9.15254C106.527 9.15254 105.764 9.5339 105.129 10.0424C105.51 10.0424 105.637 10.4237 105.892 10.4237C105.764 10.4237 105.129 10.2966 105.129 10.2966C105.256 9.91526 104.366 10.2966 104.239 10.2966L104.366 10.1695L104.239 10.0424H104.366C103.985 9.66102 104.112 9.5339 103.603 9.78814C103.222 9.91526 102.841 10.1695 102.332 10.2966C101.951 10.4237 100.298 10.4237 100.171 10.5508C100.044 10.2966 99.917 10.5508 99.6627 10.5508C99.7898 10.1695 99.9169 10.0424 100.171 9.78814C100.425 9.5339 100.298 9.27966 99.9169 9.40678C100.298 9.02543 99.7898 8.77119 99.6627 8.51695C99.5356 8.13559 99.5356 7.88136 99.4085 7.37288C99.2814 6.99152 99.2814 5.4661 99.6627 5.59322C99.6627 5.33899 100.171 4.83051 99.9169 4.57627C99.5356 4.19492 99.2814 3.81356 98.9 3.55932C98.7729 3.4322 98.3915 3.4322 98.1373 3.4322C97.7559 3.30509 97.2475 3.30509 96.9932 3.05085C97.3746 3.05085 97.7559 3.17797 98.1373 3.30509C98.3915 3.55933 98.7729 3.30508 99.0271 3.55932C99.2814 3.81356 99.6627 4.19492 99.9169 4.44915V4.19491C100.044 4.32203 100.171 4.44915 100.298 4.44915C100.171 4.57627 100.425 4.83051 100.298 5.08475C100.171 5.33898 99.917 5.72034 99.7898 5.97458C99.7898 6.22881 99.5356 7.75424 100.171 7.62712C100.171 8.00847 100.044 8.38983 100.298 8.64407C100.553 8.8983 100.934 8.77119 101.061 8.51695C100.934 8.38983 100.807 8.38983 100.807 8.26271C101.315 8.26271 101.442 8.64407 101.569 9.02543C101.697 9.27966 102.205 9.15254 102.459 9.15254C103.095 8.89831 103.349 8.64407 103.731 8.1356C103.349 8.1356 102.968 7.75424 102.714 7.88136C102.968 7.62712 103.222 8.00847 103.603 8.00847C103.476 7.88136 103.349 7.75424 103.476 7.5C103.731 8.00848 103.731 8.00848 104.239 7.88136C104.493 7.88136 104.875 7.88136 105.002 7.62712C104.875 7.62712 104.747 7.5 104.62 7.5C104.493 7.5 104.493 7.37288 104.493 7.24576C104.239 7.11865 104.239 7.37288 103.985 7.24576C103.731 6.99153 103.222 6.35593 102.968 6.35593L103.095 6.10169V6.22882C103.476 6.22882 103.731 6.73729 103.985 6.48305C103.985 7.11865 104.62 6.99153 105.002 7.24576C105.383 7.5 106.146 8.00847 106.527 7.62712C106.146 7.37288 106.019 7.24576 105.892 6.86441C105.764 6.61017 105.51 6.48305 105.256 6.61017C105.383 6.61017 105.383 6.61017 105.51 6.48305C105.383 6.22882 105.256 6.1017 105.383 5.84746C105.51 6.1017 105.892 6.35594 105.892 6.48305C106.146 6.48305 106.019 6.48305 106.146 6.35593C106.273 7.24576 106.908 7.37288 107.671 7.11865C107.29 6.99153 107.417 6.86441 107.163 6.73729C107.544 6.61017 107.671 7.11865 108.053 7.11865C108.561 6.86441 108.434 6.86441 108.307 6.35593C108.307 6.35593 108.307 6.48305 108.18 6.48305C108.18 6.48305 108.053 6.48305 108.053 6.35593C108.561 5.97458 107.417 5.72034 107.163 5.84746C107.29 5.72034 107.417 5.59322 107.544 5.72034C107.544 5.59322 107.417 5.33899 107.29 5.21187C107.163 5.08475 106.908 5.21187 106.781 4.95763C106.654 4.70339 106.273 4.57627 106.273 4.44915C106.4 4.44915 106.4 4.44915 106.4 4.32204C106.4 4.44915 106.4 4.44916 106.4 4.57627C106.527 4.44916 107.29 4.57627 107.29 4.70339C107.544 5.08475 107.798 5.4661 108.307 5.59322C108.561 5.59322 108.815 6.22881 109.069 6.35593C109.451 6.48305 109.832 6.48305 110.214 6.61017C110.086 6.48305 109.832 6.48305 109.705 6.10169C109.705 6.10169 109.578 6.1017 109.578 6.22882C109.578 5.97458 109.324 5.84746 109.069 5.97458C109.197 5.84746 109.197 5.72034 109.197 5.59322C109.324 5.72034 109.451 5.72034 109.578 5.84746C109.705 5.59322 109.705 5.21187 109.324 5.21187C109.578 5.08475 109.451 4.95763 109.324 4.70339C109.705 4.57627 109.324 4.57627 109.197 4.32204C109.069 4.32204 109.197 4.19491 109.197 4.19491C108.942 4.19491 108.688 4.0678 108.815 3.81356C108.942 4.0678 109.069 4.0678 109.324 3.94068C109.324 4.0678 109.451 4.19492 109.451 4.44915C109.578 4.32203 109.705 4.32204 109.705 4.32204C109.705 4.57627 109.451 5.21187 110.086 5.21187C109.832 5.72034 110.722 6.35593 110.722 6.86441C110.722 7.24576 111.231 8.26271 111.739 7.88136C111.485 7.62712 111.612 7.37288 111.485 7.11865C111.358 6.99153 111.103 6.48305 111.103 6.48305C110.976 6.48305 110.595 5.21187 110.468 4.95763C110.468 4.83051 110.468 4.70339 110.468 4.57627C110.468 4.57627 110.341 4.44915 110.214 4.32204C110.086 3.94068 109.959 3.81356 109.832 3.55932C109.578 3.17797 109.832 3.17797 109.832 2.79661C109.832 2.54237 109.832 2.16102 109.451 2.16102H109.578C109.578 2.28814 109.578 2.28814 109.451 2.41526C109.705 2.54237 109.705 2.92373 109.451 2.66949C109.451 2.79661 109.578 3.05085 109.578 3.17797C109.197 3.17797 108.942 2.54237 108.815 2.28813C108.942 2.16102 109.197 2.16102 109.324 2.41526C109.324 1.90678 108.815 2.28814 108.561 1.77966C108.307 1.14407 108.307 1.01695 107.671 1.14407C107.671 1.01695 107.671 0.889833 107.798 0.762715C107.798 0.762715 107.925 1.01695 108.18 0.889831C108.18 0.762713 107.925 0.762715 107.925 0.762715C107.925 0.762715 108.053 0.635595 108.053 0.508477C108.434 1.01695 108.18 0.381359 108.18 0.127122C108.18 0.127122 102.332 0.381355 100.934 0.381355C82.3746 0.762711 63.8153 1.65254 45.2559 0.635593C42.2051 0.508475 39.1542 0.254237 36.1034 0C36.1034 0 35.8492 0.635592 35.5949 1.01695L35.722 2.16102C35.4678 2.28814 35.4678 2.28814 35.4678 2.66949C35.4678 2.92373 35.3407 3.05085 35.2136 3.17797C35.0864 3.30508 35.3407 3.68644 35.3407 3.81356C35.3407 4.0678 35.4678 4.19492 35.5949 4.32204C35.2136 4.32204 34.9593 4.32203 34.7051 4.0678C34.578 3.94068 34.578 3.94068 34.3237 3.94068C34.1966 4.0678 34.0695 4.0678 33.9424 4.19491C33.6881 4.32203 33.3068 4.57627 33.0525 4.83051C32.9254 5.08474 32.6712 5.33898 32.5441 5.72034C32.1627 6.35593 31.7814 7.11865 31.2729 7.75424C31.2729 7.75424 31.0186 7.62712 30.8915 7.75424C30.6373 7.88136 30.6373 8.00847 30.383 8.00847C30.2559 8.00847 30.0017 8.13559 30.0017 7.88136C29.8746 7.62712 29.8746 7.5 29.7475 7.24576C29.6203 7.24576 29.3661 7.37288 29.239 7.24576C29.1119 7.11865 28.9847 6.99153 28.8576 7.11865C28.7305 7.24577 28.6034 7.37288 28.4763 7.37288C28.3491 7.37288 28.3492 7.37288 28.3492 7.5C28.222 7.5 28.0949 7.5 28.0949 7.37288C27.9678 7.37288 27.7136 7.5 27.5864 7.62712C27.4593 7.62712 27.3322 7.62712 27.2051 7.62712C26.9508 7.88136 26.5695 8.00847 26.4424 8.26271C26.061 8.89831 25.6797 9.66102 25.0441 9.91525C24.9169 9.91525 24.6627 10.1695 24.5356 10.1695C24.4085 10.0424 24.1542 10.0424 24.0271 9.91525V9.40678C24.0271 9.27966 24.1542 9.02542 24.2814 8.89831C24.1542 8.77119 24.0271 8.77119 24.0271 8.64407C24.0271 8.51695 23.9 8.38983 23.7729 8.38983C23.3915 8.64407 23.0102 8.77119 22.7559 9.02543C22.5017 9.15255 22.1203 9.27966 22.1203 9.5339C22.1203 9.78814 22.1203 9.78814 21.9932 10.0424C21.8661 10.1695 21.739 10.2966 21.8661 10.4237C21.739 10.4237 21.6119 10.5508 21.6119 10.4237C21.4847 10.2966 21.3576 10.1695 21.2305 10.1695C20.9763 10.0424 20.722 10.1695 20.5949 10.5508H20.3407L20.5949 11.4407C20.2136 11.5678 20.2136 11.5678 20.2136 11.9492C20.2136 11.9492 19.8322 12.3305 19.8322 12.4576C19.7051 12.5847 19.4508 12.9661 19.3237 13.0932C19.0695 13.2203 18.9424 12.9661 18.6881 12.839C18.4339 12.839 18.3068 12.7119 17.9254 12.839C17.6712 12.9661 17.4169 13.0932 17.1627 13.0932C16.9085 13.0932 16.9085 13.4746 16.7814 13.6017C16.6542 13.7288 16.2729 13.6017 16.1458 13.6017C15.7644 13.6017 15.8915 13.9831 15.7644 14.1102C15.6373 14.3644 15.383 14.4915 15.2559 14.7458C15.1288 14.8729 14.7475 14.4915 14.6203 14.6186C14.3661 14.8729 14.239 15 13.9847 15.2542C13.8576 15.3814 13.4763 15.3814 13.3491 15.5085C13.0949 15.6356 12.8407 15.8898 12.7136 16.1441C12.4593 16.3983 11.6966 16.2712 11.4424 16.1441C11.1881 16.017 11.1881 16.017 10.9339 16.1441C10.8068 16.1441 10.6797 16.2712 10.5525 16.2712C10.0441 16.2712 9.66271 16.2712 9.15424 16.2712C8.9 16.2712 8.51864 16.6525 8.2644 16.7797C8.13729 16.9068 7.88305 16.7797 7.75593 16.9068C7.50169 16.9068 7.50169 17.0339 7.24746 17.161C7.12034 17.2881 7.24746 17.4153 7.12034 17.5424C6.99322 17.6695 6.73898 17.7966 6.61186 17.7966C6.35763 17.7966 6.48474 17.7966 6.23051 17.9237C5.97627 18.178 5.84915 18.3051 5.59491 18.5593C5.46779 18.6864 5.59491 18.8136 5.59491 19.0678C5.59491 19.322 5.59491 19.322 5.46779 19.5763C5.21356 19.8305 5.21356 20.2119 5.46779 20.5932C5.21356 20.8475 5.08644 20.9746 4.8322 21.1017C4.70508 21.1017 4.57796 21.3559 4.45085 21.2288C4.19661 21.2288 4.19661 21.2288 4.06949 21.3559C3.94237 21.4831 3.81525 21.2288 3.68813 21.2288C3.56101 21.2288 3.30678 21.3559 3.17966 21.3559C3.05254 21.3559 3.05254 21.1017 2.92542 21.1017C2.92542 20.9746 2.7983 20.9746 2.67118 20.9746L1.4 21.2288L0.764404 25.0424L9.91695 25.5509L16.7814 25.678L21.1034 24.4068V24.7881C21.2305 24.7881 21.2305 24.7881 21.3576 24.7881C21.4847 24.7881 21.3576 24.661 21.4847 24.661C21.6119 24.5339 21.739 24.5339 21.8661 24.4068C21.9932 24.4068 22.2475 24.2797 22.2475 24.1525C22.2475 24.0254 22.2475 23.8983 22.3746 23.7712L22.5017 23.8983C22.6288 23.7712 22.7559 23.6441 22.883 23.7712C23.0102 23.7712 23.0102 23.6441 23.1373 23.6441C23.5186 23.517 23.6458 23.6441 23.9 23.2627C24.0271 23.1356 24.1542 23.2627 24.2814 23.2627L24.5356 23.1356C24.7898 23.1356 24.7898 23.1356 24.9169 23.0085C24.9169 22.8814 25.1712 23.0085 25.2983 23.0085V23.2627C25.5525 23.3898 25.5525 23.1356 25.6797 22.8814C25.8068 22.7542 25.9339 22.6271 26.1881 22.5L26.4424 23.1356C26.6966 23.0085 26.8237 23.0085 27.078 23.0085L27.5864 22.8814L43.7305 24.0254L43.6034 24.2797L43.7305 24.4068V24.661L43.4763 24.7881L43.3492 25.2966L43.6034 25.678L45.1288 24.661L47.0356 27.4576L46.7814 29.3644L61.5271 29.6186L76.1458 44.7458C76.2729 44.7458 76.4 44.8729 76.5271 45C76.7814 44.4915 78.1797 44.3644 78.6881 44.2373V44.1102C79.0695 44.1102 78.9424 43.8559 79.0695 43.6017C79.0695 43.8559 79.1966 43.8559 79.3237 43.9831C79.1966 44.1102 79.0695 44.2373 78.9424 44.3644C79.3237 44.3644 81.4847 44.2373 80.8492 43.4746C81.1034 43.4746 81.2305 43.7288 81.1034 43.9831C81.2305 43.9831 81.2305 43.9831 81.3576 43.9831L80.8492 44.1102C81.1034 44.3644 81.8661 44.1102 82.2475 44.1102C82.7559 44.1102 83.1373 44.3644 83.6458 44.4915V44.3644C83.1373 44.2373 83.7729 44.1102 83.9 43.8559C84.0271 43.6017 84.1542 43.3475 84.2814 43.0932C84.5356 42.839 84.4085 42.4576 84.4085 42.0763C84.5356 41.6949 84.5356 41.4407 84.4085 41.0593C84.2814 40.678 84.2814 40.2966 84.1542 39.9153C84.1542 39.7881 84.2814 39.4068 84.4085 39.661C84.6627 40.2966 84.7898 40.8051 84.7898 41.5678C85.4254 41.5678 85.4254 40.8051 85.5525 40.4237C85.6797 40.1695 85.9339 39.661 85.6797 39.4068C86.061 39.5339 86.1881 39.1525 85.9339 38.8983C86.3153 39.1525 87.4593 37.6271 86.9509 37.5C87.3322 37.6271 88.0949 36.7373 87.9678 36.3559C88.222 36.7373 88.7305 35.9746 88.9847 35.7203C88.8576 35.5932 88.8576 35.4661 88.8576 35.339C88.9847 35.5932 89.3661 35.5932 89.3661 35.339C89.6203 35.4661 89.8746 34.9576 90.1288 34.8305C90.2559 34.7034 90.2559 34.7034 90.3831 34.5763C90.5102 34.5763 90.6373 34.322 90.6373 34.322C90.7644 34.1949 90.8915 34.4492 91.0186 34.322C91.0186 34.322 91.2729 34.0678 91.1458 34.1949C91.4 34.0678 91.9085 34.1949 91.7814 33.8136C91.6542 33.8136 91.6542 33.8136 91.5271 33.8136C91.5271 33.5593 92.0356 33.8136 91.9085 33.4322C91.7814 33.178 91.5271 33.3051 91.4 33.0508C91.2729 33.178 91.1458 33.178 91.1458 33.178C91.0186 32.9237 91.0186 32.4153 90.6373 32.5424C91.0186 32.161 91.4 32.6695 91.6542 32.161C91.9085 31.7797 91.1458 31.3983 91.1458 31.017L91.0186 31.2712C91.1458 30.8898 91.1458 30.6356 91.0186 30.2542C91.0186 30.2542 91.0186 30.2542 91.1458 30.2542C91.1458 30.3814 91.2729 30.5085 91.2729 30.6356C91.4 30.3814 91.6542 30.5085 91.9085 30.5085L91.5271 30.7627C91.9085 30.8898 91.9085 31.3983 92.1627 31.1441L91.7814 31.3983C92.1627 31.3983 92.1627 32.0339 92.6712 32.0339C92.2898 32.0339 92.1627 32.161 92.0356 32.5424C91.9085 32.7966 91.5271 32.6695 91.5271 33.0508C91.6542 32.9237 91.7814 32.9237 91.9085 33.0508C91.9085 33.0508 91.9085 32.9237 92.0356 32.9237C92.0356 33.178 92.1627 33.3051 92.4169 33.178C92.4169 33.5593 92.6712 33.6864 92.9254 33.4322C93.1797 33.178 94.3237 32.4153 93.9424 31.9068C94.0695 31.9068 94.1966 32.0339 94.1966 32.161C94.4508 32.0339 95.0864 31.6525 94.578 31.5254C94.7051 31.2712 94.4508 31.1441 94.3237 31.1441C94.578 31.1441 94.7051 31.6525 94.9593 31.6525L95.3407 31.2712C95.4678 30.8898 95.2136 30.8898 95.0864 30.6356C94.9593 30.3814 95.0864 30.2542 94.9593 30C95.0864 30 95.2136 30.1271 95.3407 30.2542C95.3407 30.2542 95.3407 30.2542 95.4678 30.1271C95.4678 30.5085 95.5949 30.7627 95.9763 30.8898C95.722 30.8898 95.722 31.1441 95.722 31.2712C95.5949 31.2712 95.5949 31.3983 95.4678 31.3983C95.8492 31.7797 96.2305 31.017 96.4847 31.3983C96.6119 31.2712 96.739 31.2712 96.739 31.1441C96.9932 31.2712 97.1203 31.0169 97.2475 30.8898C97.5017 30.7627 97.7559 31.017 97.6288 30.6356C97.7559 30.7627 98.9 30.6356 99.1542 30.6356C99.4085 30.6356 100.807 30.8898 100.934 30.5085C100.68 30.6356 100.553 30.5085 100.553 30.2542L100.807 30.3814C100.934 30.1271 100.68 30 100.425 30C100.171 30 100.298 30.5085 99.9169 30.1271C100.171 29.8729 100.298 29.7458 100.553 29.7458C100.934 29.7458 100.934 29.7458 100.934 29.3644C100.934 29.7458 101.061 29.8729 101.315 30.1271C101.442 30.2542 101.188 30.6356 101.188 30.7627C101.442 30.7627 101.697 30.7627 101.951 30.8898C101.951 30.7627 101.951 30.6356 101.697 30.6356C102.078 30.3814 101.951 29.4915 101.824 29.1102C102.078 29.2373 102.078 29.6186 102.332 29.7458C102.332 29.6186 102.459 29.6186 102.459 29.4915C102.714 29.8729 102.205 29.8729 102.205 30.1271C102.205 30.2542 102.459 30.2542 102.459 30.5085C102.586 30.5085 102.714 30.5085 102.714 30.3814C102.841 30.6356 102.968 30.6356 103.095 30.3814C103.349 30.7627 103.222 30.1271 103.095 29.8729C103.222 29.8729 103.349 29.6186 103.349 29.6186L103.222 29.3644C103.349 29.3644 103.476 29.2373 103.603 29.1102C103.603 29.1102 103.349 30 103.603 29.7458C103.858 29.6186 103.985 28.8559 103.731 28.7288C103.731 28.8559 103.858 28.8559 103.985 28.8559C103.985 28.7288 104.112 28.6017 104.112 28.4746C104.239 28.4746 104.239 28.6017 104.366 28.6017C104.239 28.2203 104.493 27.839 104.493 27.5847C104.62 27.7119 104.62 28.6017 104.747 27.839L104.875 27.9661C105.129 27.839 105.51 27.7119 105.637 27.3305C105.51 27.3305 105.383 27.3305 105.256 27.3305C105.256 27.3305 105.383 27.2034 105.383 27.0763H105.256C105.129 27.2034 105.002 27.2034 104.875 27.0763C105.256 26.822 105.51 26.9492 105.892 27.0763C105.764 26.9492 105.892 26.822 106.019 26.6949L105.892 26.5678C106.4 26.5678 105.764 25.8051 105.51 25.5509C105.637 25.5509 105.764 25.5508 105.764 25.8051C105.892 25.4237 105.51 25.4237 105.256 25.2966L105.383 25.5509L105.002 25.2966C105.129 25.5509 105.637 26.0593 105.51 26.3136L105.383 26.0593C105.256 26.3136 104.875 26.0593 104.747 25.9322L104.875 26.3136C104.62 26.1864 104.62 26.4407 104.747 26.6949H104.366C104.493 26.5678 104.62 26.4407 104.493 26.3136C104.366 26.4407 104.112 26.5678 104.112 26.5678C103.985 26.822 104.239 26.9492 104.112 27.2034C104.112 26.9492 103.985 26.822 103.731 26.6949C103.858 26.6949 103.858 26.5678 103.858 26.4407C103.858 26.4407 103.731 26.4407 103.731 26.3136C103.858 26.0593 103.985 26.1864 104.112 26.3136C104.112 26.1864 104.112 26.1864 104.112 26.1864H104.239C104.239 26.1864 104.239 25.8051 104.239 25.678H104.112C103.985 25.4237 103.985 25.0424 104.366 25.1695C103.985 25.0424 104.239 24.7881 104.112 24.661C103.985 24.5339 103.731 24.4068 103.603 24.4068C103.603 24.5339 103.476 24.661 103.476 24.661C103.603 24.5339 103.731 24.9153 103.858 24.9153H103.603C103.858 24.9153 103.858 25.0424 103.731 25.2966C103.603 25.1695 103.476 25.0424 103.476 24.9153C103.349 25.1695 103.349 25.2966 103.603 25.4237C103.095 25.4237 103.858 26.0593 103.349 26.4407V25.9322L102.968 26.0593C102.968 25.9322 103.095 25.9322 103.222 25.8051L103.095 25.678C103.095 25.678 103.095 25.5509 103.222 25.5509C102.968 25.5509 102.714 25.5508 102.714 25.8051C102.205 25.5508 102.459 26.1864 102.586 26.3136C102.714 26.5678 102.968 26.6949 103.095 26.6949C102.586 26.6949 103.095 27.2034 103.222 27.4576C102.968 27.3305 102.841 26.9492 102.586 27.0763C102.968 26.822 102.459 26.4407 102.205 26.5678C102.332 26.4407 102.332 26.3136 102.205 26.3136C102.459 25.9322 101.824 25.678 101.569 26.0593C101.315 25.8051 101.697 26.6949 101.697 26.9492C101.697 26.9492 101.569 26.9492 101.569 26.822C101.315 27.0763 101.442 27.2034 101.569 27.3305C101.442 27.3305 101.315 27.4576 101.061 27.4576C101.442 27.3305 101.442 26.5678 100.934 26.5678C100.553 26.4407 100.553 26.9492 100.425 27.2034C100.044 26.6949 100.044 27.9661 100.044 28.2203C99.9169 27.9661 99.9169 27.7119 99.9169 27.5847H99.5356C99.6627 27.4576 99.7898 27.3305 99.7898 27.2034C99.2814 26.9492 99.1542 26.822 98.6458 26.9492C98.6458 27.0763 98.7729 27.2034 98.7729 27.4576L98.6458 27.2034L98.5186 27.5847C98.3915 27.3305 98.5186 26.822 98.6458 26.6949C97.7559 26.5678 98.3915 26.9492 97.8831 27.4576C97.8831 27.2034 97.8831 27.0763 97.8831 26.822C97.7559 26.822 97.7559 26.822 97.6288 26.822C97.7559 26.822 97.8831 26.6949 97.8831 26.5678H98.0102C97.6288 26.3136 96.9932 26.0593 96.8661 25.678C96.739 25.1695 96.6119 24.7881 96.3576 24.2797L96.1034 24.9153V24.7881C94.8322 25.0424 95.3407 24.5339 95.0864 24.9153C94.9593 24.7881 94.9593 24.7881 95.0864 24.661C95.5949 25.2966 95.9763 24.2797 96.2305 24.2797C95.9763 24.0254 95.9763 23.517 95.5949 23.6441C95.5949 23.6441 95.722 23.3898 95.722 23.2627L96.2305 23.5169C96.2305 23.5169 96.8661 23.7712 96.739 24.2797C96.739 24.4068 97.1203 25.0424 97.2475 25.0424C97.3746 24.9153 97.3746 24.7881 97.5017 24.661L97.3746 25.1695L97.7559 24.9153C97.6288 25.0424 97.6288 25.1695 97.5017 25.2966C97.883 25.2966 98.0102 25.5508 98.2644 25.8051V25.4237C98.5186 25.5508 98.2644 25.678 98.2644 25.8051C98.3915 25.9322 98.6458 26.0593 98.7729 26.1864C99.1542 26.4407 99.5356 26.3136 99.6627 25.8051C99.4085 25.8051 99.2814 25.678 99.2814 25.4237L99.4085 25.5509C99.5356 25.678 99.5356 25.5509 99.6627 25.5509C99.6627 25.678 99.6627 25.8051 99.7898 25.8051C99.917 25.8051 100.425 25.678 100.425 25.4237C100.425 25.2966 100.044 25.4237 99.9169 25.2966H100.171H100.298V24.9153C100.425 24.9153 100.553 25.1695 100.553 25.1695C100.553 25.1695 101.061 25.0424 101.315 24.7881L101.188 24.661C101.442 24.7881 101.951 24.5339 101.951 24.1525C101.824 24.1525 101.697 24.2797 101.569 24.2797C101.569 24.2797 101.315 24.1525 101.188 24.2797C101.188 24.1525 101.188 24.1525 100.934 24.1525C101.061 24.1525 101.188 24.0254 101.188 23.7712C101.188 23.8983 101.569 23.7712 101.697 23.8983H101.824L101.951 23.6441C102.078 23.7712 102.078 23.7712 101.951 23.8983C102.332 23.8983 102.205 23.6441 101.951 23.5169C102.078 23.6441 102.205 23.6441 102.332 23.6441C102.332 23.3898 102.459 23.1356 102.586 23.0085C102.332 23.0085 102.205 22.3729 101.951 22.7542C102.078 22.7542 102.078 22.8814 101.951 22.8814H102.205V23.2627L102.078 23.0085L101.697 23.7712C101.697 23.6441 101.697 23.2627 101.697 23.1356C101.442 23.1356 101.315 23.1356 101.315 23.3898V23.1356C101.188 23.1356 101.188 23.1356 101.061 23.1356V23.0085C100.807 23.1356 100.934 23.517 100.553 23.3898V23.5169C100.298 23.3898 99.9169 23.3898 100.171 23.7712C99.9169 23.6441 99.9169 23.517 100.171 23.3898C100.044 23.517 99.917 23.517 99.7898 23.3898C99.917 23.2627 100.171 23.1356 100.298 23.3898V23.1356L100.425 23.2627C100.553 23.1356 100.934 23.0085 100.807 22.7542H100.934C101.061 22.5 100.934 22.3729 100.934 22.3729C101.188 22.3729 101.315 22.5 101.061 22.6271C101.188 22.7542 101.569 22.8814 101.569 22.6271H101.824C101.697 22.5 101.442 22.3729 101.442 22.3729H101.951L101.697 22.1186C102.078 22.1186 102.078 22.3729 102.332 22.5C102.332 22.5 102.459 22.5 102.586 22.3729C102.586 22.5 102.586 22.6271 102.714 22.6271C102.714 22.5 102.841 22.3729 102.714 22.2458C102.459 22.2458 102.459 21.8644 102.078 22.1186C102.205 21.9915 102.078 21.8644 101.951 21.7373C102.078 21.7373 102.332 21.8644 102.332 21.7373C102.459 21.8644 102.841 21.9915 103.095 22.1186C103.095 21.7373 102.586 21.9915 102.459 21.6102V21.7373V21.6102L102.841 21.7373C102.841 21.6102 103.095 21.6102 103.222 21.6102C103.222 21.4831 103.222 21.3559 102.968 21.3559C103.095 21.2288 103.349 21.2288 103.349 21.3559C103.222 21.2288 103.222 21.1017 103.349 20.9746L103.222 20.8475C103.222 21.1017 102.841 20.8475 102.841 21.1017C102.841 20.7203 103.095 20.5932 103.095 20.5932C102.968 20.4661 102.714 20.4661 102.459 20.4661C102.586 20.5932 102.586 20.7203 102.714 20.8475C102.714 20.8475 102.714 20.8475 102.586 20.8475L102.459 20.9746C102.332 20.8475 102.332 20.8475 102.459 20.5932C102.332 20.5932 102.332 20.7203 102.205 20.5932C102.332 20.5932 102.332 20.4661 102.459 20.4661L102.205 20.339C101.951 20.339 101.061 20.2119 101.569 20.5932C101.061 20.7203 101.569 20.8475 101.824 20.9746H101.442L101.697 21.2288C101.442 21.2288 101.315 21.1017 101.188 21.1017C100.934 21.1017 100.68 21.2288 100.553 20.9746C100.68 20.9746 100.807 21.2288 101.061 21.1017C101.315 20.9746 101.188 20.7203 100.934 20.8475L101.188 20.7203C101.061 20.5932 101.061 20.5932 101.188 20.4661C101.188 20.4661 100.934 20.4661 100.807 20.4661C101.061 20.4661 101.188 20.339 101.061 20.2119C100.807 20.339 100.044 19.9576 100.298 20.4661C100.171 20.339 100.044 20.4661 100.044 20.5932C99.9169 20.4661 99.9169 20.339 100.171 20.2119C99.9169 20.0847 99.7898 20.2119 99.6627 20.339C99.5356 20.339 99.2814 20.4661 99.2814 20.7203C99.1542 20.5932 99.1542 20.5932 99.0271 20.7203L99.1542 21.1017L98.9 20.7203C99.1542 20.7203 99.4085 20.4661 99.5356 20.2119C99.6627 20.0847 99.9169 19.9576 100.171 19.9576C99.9169 19.7034 99.1542 19.8305 99.1542 19.5763C98.9 19.7034 98.7729 19.5763 98.6458 19.4492V19.8305C98.5186 19.7034 98.2644 19.8305 98.1373 19.9576C99.0271 19.4492 98.2644 19.0678 97.6288 18.9407C97.3746 18.6864 97.5017 18.4322 97.1203 18.6864C96.739 18.8136 97.1203 19.0678 96.8661 19.322C96.8661 19.0678 96.739 19.0678 96.739 18.6864C96.739 18.5593 96.6119 18.3051 96.6119 18.178C96.3576 17.9237 95.8492 17.6695 95.4678 17.5424C95.722 17.4153 95.8492 17.6695 96.1034 17.7966C95.9763 17.2881 95.4678 17.0339 94.9593 16.9068C95.0864 16.9068 95.2136 16.9068 95.0864 16.7797C95.2136 17.0339 95.5949 17.0339 95.8492 17.161C95.8492 17.4153 96.4847 18.0508 96.8661 18.0508C96.8661 17.9237 96.8661 17.7966 96.8661 17.6695C96.9932 17.7966 96.9932 18.0508 97.1203 18.178C97.2475 18.178 97.3746 18.0508 97.6288 18.0508C97.5017 18.0508 97.5017 18.0508 97.3746 18.178C97.5017 18.5593 98.0102 18.4322 98.2644 18.3051C98.2644 18.3051 98.2644 18.3051 98.1373 18.4322C98.6458 18.9407 98.7729 17.9237 98.9 17.5424C98.9 17.7966 98.9 17.9237 98.7729 18.178C98.9 18.178 99.0271 18.178 99.1542 18.178C98.5186 18.3051 99.0271 18.6864 99.2814 18.9407V18.8136C99.2814 18.8136 99.2814 18.9407 99.4085 19.0678C99.6627 18.8136 99.9169 18.9407 100.171 18.6864C100.044 18.9407 100.298 18.9407 100.553 18.9407L100.425 18.4322L100.68 18.8136L100.807 18.4322C100.807 18.5593 100.807 18.5593 101.061 18.6864C100.807 18.6864 101.442 19.322 101.824 19.322L101.697 19.0678H101.569L101.315 18.9407C101.442 18.8136 101.442 18.8136 101.569 18.9407C101.569 18.4322 101.188 18.5593 101.061 18.3051H101.442C101.697 17.9237 101.315 17.7966 101.061 17.5424V17.6695C101.061 17.6695 100.553 17.6695 100.553 17.9237C100.298 17.5424 100.044 17.7966 99.9169 17.2881C100.044 17.5424 100.553 17.9237 100.68 17.4153C100.807 17.4153 101.188 17.2881 101.442 17.161L101.188 16.9068C101.188 16.9068 100.68 16.7797 100.553 16.5254C100.68 16.6525 100.68 16.6525 100.807 16.6525C100.807 16.5254 100.68 16.2712 100.934 16.1441C100.68 16.5254 101.188 16.5254 101.188 16.5254H101.697V16.6525L102.332 16.7797L102.459 16.3983C102.459 16.5254 102.459 16.5254 102.459 16.6525C102.714 16.7797 103.095 16.5254 103.222 16.2712L102.968 16.1441L103.095 16.017C103.349 16.2712 103.603 16.6525 103.222 17.0339C103.349 17.161 103.476 17.161 103.603 17.2881C103.349 17.4153 102.841 16.9068 102.968 17.5424C102.841 17.0339 101.697 17.161 101.697 17.161C102.078 17.2881 102.078 17.5424 102.078 17.7966C102.205 17.7966 102.205 17.6695 102.205 17.5424H102.586C102.459 17.9237 102.968 17.6695 102.968 18.0508C102.968 18.0508 102.459 17.9237 102.205 18.178H102.078C102.205 18.4322 102.459 18.178 102.586 18.4322C102.586 18.3051 102.586 18.3051 102.586 18.178C102.714 18.3051 102.841 18.3051 102.968 18.5593C102.841 18.5593 102.714 18.5593 102.714 18.4322L102.459 19.0678L102.841 19.1949L102.714 19.322L103.222 19.5763C103.095 19.4492 102.968 19.322 103.095 19.1949C102.968 19.1949 102.968 19.0678 102.968 18.9407C103.222 19.1949 103.476 18.9407 103.095 18.6864L103.349 18.8136V18.5593C103.603 18.8136 103.349 19.0678 103.476 19.1949V19.0678L103.603 19.1949C103.476 18.9407 103.603 18.8136 103.731 18.8136L103.603 18.6864H103.985C103.858 18.5593 103.731 18.6864 103.731 18.4322C103.731 18.4322 103.603 18.4322 103.603 18.5593L103.731 18.3051H103.476C103.603 18.178 103.731 18.178 103.858 18.4322C103.985 18.178 104.112 18.178 104.239 18.4322C104.112 18.4322 104.112 18.4322 103.985 18.4322C103.985 18.5593 103.985 18.5593 103.985 18.6864C103.985 18.6864 104.239 19.0678 104.366 19.4492L104.112 19.322C104.239 19.4492 104.493 19.8305 104.493 19.9576C104.366 20.2119 103.985 19.9576 103.858 19.9576L103.731 20.2119C103.731 20.2119 103.858 20.0847 103.985 20.2119C103.858 20.2119 103.985 20.339 103.985 20.4661C104.366 19.5763 105.002 19.9576 105.002 19.9576C104.875 19.7034 104.62 19.4492 105.002 19.322H104.875V19.0678C104.875 19.0678 105.129 19.5763 105.383 19.5763C105.383 19.5763 105.51 19.8305 105.764 19.8305C105.764 19.9576 105.51 19.9576 105.51 19.9576C105.637 19.9576 105.764 19.9576 105.892 20.0847C106.146 19.9576 105.764 18.9407 106.273 19.1949C105.892 19.322 106.019 19.7034 106.4 19.7034C106.273 19.8305 106.4 19.8305 106.4 20.0847L106.527 19.9576C106.654 20.0847 107.544 19.8305 107.163 20.2119C107.417 20.2119 107.29 20.0847 107.544 19.9576C107.29 19.5763 107.798 19.8305 107.925 19.7034C108.18 19.4492 108.307 19.5763 108.434 19.322C107.925 19.4492 108.18 18.9407 108.434 18.8136C108.434 18.8136 108.434 18.6864 108.307 18.6864H108.561C108.434 18.5593 108.307 18.5593 108.434 18.4322C108.561 18.5593 108.688 18.5593 108.815 18.5593C108.688 19.0678 109.069 18.8136 108.942 18.4322C108.815 18.178 109.451 18.0508 108.942 17.7966C109.197 17.9237 109.324 17.5424 109.578 17.4153C109.451 17.2881 109.324 17.161 109.197 17.161C109.324 17.161 109.197 17.0339 109.451 17.0339V16.9068C109.578 16.9068 109.578 17.0339 109.705 17.0339C109.832 16.6525 110.341 16.6525 110.341 16.3983L110.086 16.5254C110.086 16.1441 110.468 16.1441 110.595 16.017C110.468 15.8898 110.341 15.7627 110.341 15.6356C110.722 15.7627 110.595 15.1271 110.468 15C110.595 15.1271 110.722 15.2542 110.849 15.2542C110.722 15.3814 110.595 15.5085 110.849 15.6356C110.722 16.0169 111.358 16.1441 111.485 15.7627C111.612 16.017 111.485 16.1441 111.231 16.2712C111.485 16.2712 111.866 16.1441 111.993 16.017C111.993 16.017 111.866 15.8898 111.866 15.7627C111.993 15.6356 112.502 15.3814 112.502 15.2542C112.502 14.8729 112.12 14.8729 111.993 14.6186C111.993 14.4915 111.993 14.4915 112.12 14.3644C111.993 14.3644 111.993 14.2373 111.866 14.2373C111.993 13.8559 112.502 13.8559 112.375 14.2373C113.264 13.9831 112.629 13.3475 112.629 13.0932C112.629 13.3475 112.502 12.5847 112.629 13.0932C112.629 13.3475 112.502 12.5847 112.629 13.0932Z" fill="white"/>
</svg>
