<svg width="76" height="45" viewBox="0 0 76 45" fill="none" xmlns="http://www.w3.org/2000/svg">
<path d="M72.2843 28.3712C72.281 28.3462 72.2727 28.3262 72.2718 28.3004C72.271 28.2779 72.2718 28.2562 72.2718 28.2337C72.2718 28.1771 72.2718 28.1204 72.2718 28.0646C72.2718 28.0104 72.2852 27.9588 72.2843 27.9046C72.2835 27.8446 72.2743 27.7763 72.2835 27.7172C72.2985 27.6197 72.3068 27.5222 72.3243 27.4247C72.3377 27.3498 72.3335 27.2739 72.3335 27.1965C72.3335 27.1765 72.3385 27.1515 72.3343 27.1315C72.3302 27.1115 72.3177 27.0923 72.3127 27.0723C72.301 27.0298 72.2935 26.9882 72.2735 26.949C72.266 26.9365 72.2585 26.924 72.251 26.9115C72.2494 26.904 72.2485 26.8957 72.2468 26.8882C72.2394 26.879 72.2319 26.8699 72.2244 26.8615C72.2169 26.8474 72.2127 26.8324 72.2102 26.8165C72.1877 26.7732 72.161 26.7324 72.1385 26.6891C72.1152 26.6432 72.0994 26.5858 72.0869 26.5358C72.0586 26.4183 72.0494 26.2975 72.0261 26.1792C72.0077 26.0875 72.0169 25.9892 72.0169 25.8951C71.9877 25.8709 72.0044 25.7718 72.0044 25.7359C72.0044 25.6826 72.0044 25.6293 72.0044 25.5768C72.0044 25.531 72.0027 25.4843 72.0044 25.4385C72.0052 25.4169 72.0119 25.401 72.0161 25.3802C72.0211 25.3535 72.0136 25.3285 72.0227 25.3027C72.0486 25.2319 72.0552 25.1569 72.0911 25.0894C72.1319 25.0119 72.1519 24.9178 72.1519 24.832C72.1519 24.7462 72.1519 24.6604 72.1519 24.5745C72.1519 24.5062 72.1377 24.4437 72.126 24.3763C72.1185 24.3338 72.1102 24.2821 72.096 24.2421C72.0827 24.2063 72.0769 24.1655 72.0594 24.1305C72.0469 24.1046 72.0286 24.083 72.0169 24.0563C72.0086 24.0372 72.0052 24.0155 71.9936 23.998C71.9836 23.9822 71.9686 23.9722 71.9586 23.9563C71.9478 23.938 71.9394 23.9155 71.9311 23.8964C71.9144 23.8564 71.8986 23.8197 71.8853 23.7772C71.8719 23.7339 71.8703 23.6997 71.8703 23.6539C71.8703 23.5664 71.8628 23.4781 71.8828 23.394L71.9194 23.3207C71.9194 23.2498 71.9253 23.1815 71.9311 23.1124C71.9361 23.0515 71.9794 23.0041 71.9811 22.9407C71.9827 22.8758 71.9936 22.7941 71.9503 22.7391C71.9094 22.6875 71.8711 22.6391 71.8586 22.5725C71.8486 22.52 71.8511 22.4442 71.8569 22.3917C71.8636 22.3259 71.8828 22.2617 71.8819 22.1951C71.8811 22.1251 71.8844 22.0568 71.8644 21.9885C71.8553 21.9585 71.8378 21.9243 71.8219 21.8985C71.8053 21.871 71.777 21.8468 71.772 21.8127C71.7736 21.7877 71.7595 21.7643 71.7595 21.7385C71.7595 21.7143 71.7553 21.6877 71.762 21.6644C71.7695 21.6394 71.787 21.6319 71.8053 21.6169C71.8278 21.5985 71.8453 21.5752 71.8669 21.5552C71.9044 21.5202 71.8986 21.4711 71.8878 21.4252C71.8761 21.3728 71.8628 21.3286 71.8328 21.2828C71.8045 21.2403 71.7728 21.207 71.7411 21.1686C71.712 21.1336 71.7103 21.1103 71.7103 21.0662C71.7103 21.0445 71.7036 21.0112 71.712 20.9912C71.7178 20.977 71.7378 20.9645 71.747 20.9528C71.7736 20.9187 71.807 20.8845 71.8086 20.8404C71.8111 20.7712 71.782 20.6879 71.752 20.6263C71.742 20.6046 71.7236 20.5929 71.7103 20.5738C71.6945 20.5513 71.6853 20.5288 71.667 20.5079C71.6337 20.4705 71.6153 20.4388 71.6028 20.3913C71.5928 20.3538 71.5762 20.3188 71.5662 20.2822C71.5537 20.2355 71.5287 20.1814 71.5253 20.1339C71.522 20.0855 71.5162 20.0389 71.5137 19.9897C71.512 19.9531 71.4979 19.9181 71.4904 19.8823C71.4837 19.8514 71.4729 19.8214 71.4662 19.7898C71.457 19.7464 71.4395 19.7098 71.4279 19.6681C71.4012 19.5748 71.3071 19.5365 71.2437 19.4715V19.459C71.2437 19.3699 71.2496 19.2791 71.2204 19.1957C71.1896 19.1066 71.1654 19.0141 71.1346 18.925C71.1113 18.8591 71.0938 18.7858 71.0629 18.7233C71.0529 18.7025 71.0355 18.6875 71.0255 18.6659C71.0146 18.6434 71.008 18.6175 70.998 18.5942C70.9821 18.5575 70.9688 18.5234 70.9496 18.4884C70.923 18.4401 70.8905 18.3934 70.858 18.3493C70.8305 18.3118 70.798 18.2793 70.7713 18.2401C70.738 18.1901 70.6939 18.1101 70.643 18.076C70.633 18.0693 70.6214 18.0668 70.6114 18.0602C70.5997 18.0527 70.5922 18.0418 70.5814 18.0335C70.5631 18.0202 70.5472 18.0168 70.5322 17.9977C70.5039 17.9627 70.5081 17.931 70.5081 17.8894C70.5081 17.8494 70.5039 17.8069 70.5106 17.7669C70.5247 17.6911 70.5281 17.6136 70.5022 17.5411C70.4872 17.4986 70.4806 17.452 70.4622 17.4111C70.4464 17.3753 70.4189 17.3478 70.3914 17.3195C70.3739 17.302 70.3464 17.2887 70.3323 17.2695C70.3198 17.2528 70.3123 17.2328 70.299 17.2153C70.2723 17.1795 70.2623 17.162 70.2623 17.1179V17.0562C70.254 16.9837 70.2181 16.9112 70.189 16.8446C70.1715 16.8054 70.1573 16.7663 70.1398 16.7271C70.1248 16.6938 70.104 16.6621 70.0932 16.6263C70.0748 16.563 70.0465 16.5038 70.0198 16.443C69.9882 16.3722 69.969 16.2947 69.9432 16.2214C69.929 16.1806 69.9207 16.1389 69.9065 16.0998C69.8932 16.0623 69.8665 16.0289 69.8582 15.9906C69.8449 15.9298 69.8324 15.8681 69.8174 15.8082C69.8082 15.7723 69.8099 15.7373 69.8024 15.7015C69.7949 15.6665 69.7874 15.6274 69.7832 15.5915C69.7757 15.5266 69.7841 15.4541 69.7841 15.3882L69.7716 15.3758C69.7624 15.3174 69.7357 15.2649 69.7257 15.2075C69.7174 15.1591 69.7107 15.1183 69.7107 15.0692C69.7107 15.0283 69.7107 14.9875 69.7107 14.9467C69.7107 14.9042 69.7191 14.8525 69.7116 14.8117C69.7032 14.7659 69.6949 14.7201 69.6866 14.6734C69.6783 14.6268 69.6516 14.5926 69.6249 14.5543C69.5658 14.4693 69.5258 14.371 69.4875 14.2752C69.4708 14.2327 69.4508 14.1952 69.4383 14.1502C69.4308 14.1244 69.4341 14.1019 69.43 14.076C69.4266 14.0552 69.4183 14.0335 69.4142 14.0119C69.405 13.9644 69.3933 13.9136 69.3925 13.8644C69.3917 13.8403 69.3967 13.8161 69.39 13.7936C69.3842 13.7719 69.38 13.7603 69.3808 13.7353C69.3817 13.6486 69.3808 13.562 69.3808 13.4753C69.3808 13.4254 69.39 13.3662 69.3725 13.3179C69.36 13.2829 69.3492 13.282 69.3167 13.2687C69.295 13.2604 69.27 13.2421 69.2459 13.2412V13.2287C69.2025 13.2196 69.2184 13.0863 69.2284 13.0563C69.2475 12.9996 69.2683 12.9213 69.1842 12.9088C69.1567 12.9046 69.1309 12.913 69.1051 12.9221C69.0726 12.933 69.0451 12.9346 69.0117 12.9346C68.9867 12.9338 68.9692 12.9321 68.9451 12.923C68.9093 12.9096 68.9034 12.8963 68.8901 12.8621C68.8659 12.8005 68.8751 12.7388 68.9084 12.683C68.9276 12.6505 68.9393 12.6489 68.9701 12.6314C68.9834 12.6239 68.9934 12.6122 69.0076 12.6047C69.0192 12.598 69.0334 12.5964 69.0426 12.5855C69.1076 12.5072 68.8768 12.4014 68.8418 12.3556C68.8168 12.3231 68.7735 12.2873 68.7576 12.2489C68.7435 12.214 68.7568 12.1698 68.771 12.139C68.7935 12.0881 68.8176 12.0365 68.8593 11.9982C68.8868 11.9732 68.9559 11.9565 68.9509 11.9115C68.9459 11.864 68.8893 11.834 68.8534 11.8165C68.8109 11.7957 68.7626 11.7407 68.7426 11.6974C68.7226 11.6557 68.7176 11.5833 68.771 11.5641C68.8126 11.5491 68.8601 11.5708 68.9034 11.5533C68.9584 11.5308 68.9576 11.4883 68.9526 11.4341C68.9484 11.3875 68.9109 11.3558 68.9043 11.31C68.8976 11.2642 68.8943 11.2025 68.9276 11.1684C68.9668 11.1284 69.0109 11.0967 69.0384 11.0459L69.0501 10.9959C69.0501 10.8043 69.0001 10.6201 68.9759 10.431C68.9684 10.3719 68.9509 10.3102 68.9376 10.2527C68.9276 10.2102 68.9193 10.1336 68.8801 10.1086C68.8135 10.0669 68.7035 10.1336 68.7126 10.0161C68.7168 9.96362 68.7368 9.9303 68.7685 9.8903C68.7926 9.86031 68.8109 9.84281 68.8401 9.81948C68.8659 9.79866 68.8876 9.78283 68.8976 9.74867C68.9293 9.64369 68.8076 9.60703 68.8059 9.51622C68.8051 9.41541 68.8751 9.33459 68.8634 9.23045C68.8593 9.19213 68.8351 9.13964 68.8076 9.11214C68.786 9.09048 68.7601 9.09132 68.7401 9.06882C68.726 9.05299 68.7176 9.018 68.7135 8.99717L68.6951 8.97884C68.6835 8.92052 68.6635 8.87386 68.6893 8.81471C68.7176 8.74806 68.7951 8.74472 68.7518 8.66058C68.7301 8.61809 68.6926 8.57893 68.6793 8.53144C68.6568 8.44979 68.681 8.4123 68.7368 8.36314C68.8426 8.269 68.7435 8.17902 68.6943 8.08404C68.6327 7.96656 68.7393 7.88825 68.751 7.77494C68.756 7.72328 68.7401 7.6658 68.7493 7.61497C68.7535 7.59165 68.766 7.57415 68.7693 7.55082C68.7735 7.52416 68.7643 7.49833 68.7726 7.47084C68.786 7.42252 68.8318 7.37919 68.8268 7.32587C68.8209 7.27339 68.7726 7.24589 68.7326 7.21923C68.7018 7.19923 68.6835 7.1959 68.6502 7.18507C68.621 7.17507 68.6043 7.15258 68.5827 7.13092C68.5327 7.08009 68.5477 7.0351 68.546 6.96595C68.5443 6.88764 68.5818 6.86098 68.6393 6.81349C68.661 6.79516 68.6918 6.78849 68.711 6.77266C68.7401 6.74933 68.7318 6.73767 68.7326 6.70184L68.7143 6.68352C68.5885 6.71434 68.6018 6.43191 68.6018 6.36609V6.34776C68.6018 6.28277 68.5902 6.20362 68.606 6.14114C68.611 6.12114 68.6227 6.09865 68.6293 6.07782C68.6393 6.04782 68.6477 6.00533 68.6618 5.97784C68.7001 5.90119 68.7501 5.82787 68.7885 5.74956C68.8243 5.67707 68.8868 5.60126 68.9018 5.52127C68.9226 5.41296 68.8818 5.29716 68.8818 5.18968C68.8818 5.15635 68.8726 5.11303 68.8843 5.08137C68.8993 5.03971 68.9418 5.01555 68.9534 4.9689C68.9626 4.93057 68.9692 4.83226 68.9534 4.79643C68.8968 4.6673 68.6993 4.76228 68.6943 4.59481C68.6918 4.50317 68.8109 4.32487 68.7293 4.25322C68.7043 4.23156 68.661 4.23156 68.6335 4.21406C68.5927 4.1874 68.601 4.16991 68.6018 4.12408C68.6027 4.0616 68.6018 3.99911 68.6018 3.93663C68.6018 3.81249 68.5935 3.64752 68.471 3.5817C68.4294 3.52838 68.3052 3.49173 68.3219 3.40591C68.3286 3.37342 68.3569 3.35092 68.3694 3.32093C68.3827 3.28844 68.381 3.24261 68.3777 3.20762C68.3744 3.17263 68.3644 3.1468 68.3411 3.11847C68.3127 3.08348 68.2811 3.08515 68.2461 3.05932C68.1819 3.0135 68.1878 2.95184 68.1903 2.88019C68.1919 2.82187 68.2452 2.76355 68.2844 2.7219C68.3269 2.67691 68.3411 2.63275 68.3411 2.5711C68.3411 2.52611 68.3377 2.49945 68.3161 2.46029C68.2952 2.42363 68.2752 2.41613 68.2469 2.38697C68.2011 2.34031 68.2111 2.28783 68.2103 2.22867C68.2094 2.17035 68.2369 2.13286 68.2461 2.07787C68.2594 2.00206 68.2094 1.96956 68.1544 1.92874C68.0961 1.88541 68.0411 1.86625 67.9761 1.83543C67.9128 1.80543 67.8912 1.76378 67.8928 1.69462C67.8945 1.59798 67.9128 1.47301 67.8795 1.38136C67.837 1.26639 67.757 1.18141 67.687 1.08309C67.647 1.02727 67.612 0.970618 67.6129 0.9023C67.6137 0.848978 67.6187 0.810654 67.637 0.759832C67.6487 0.728172 67.6545 0.697346 67.6687 0.66652C67.6795 0.644025 67.6945 0.619862 67.7062 0.596534C67.7362 0.538213 67.7628 0.512386 67.762 0.443235L38.2619 0.705677L2.83978 0L0.764404 43.8819L39.6966 45L75.5828 44.1269C75.5836 44.0752 75.5636 44.0302 75.5578 43.9794C75.552 43.9336 75.5586 43.8811 75.5586 43.8344C75.5586 43.7919 75.5653 43.7436 75.5578 43.702C75.547 43.6445 75.5311 43.587 75.522 43.5287C75.5136 43.4787 75.5145 43.4279 75.5011 43.3787C75.4878 43.3304 75.4853 43.2895 75.4853 43.2404C75.4853 43.1954 75.4836 43.1496 75.4853 43.1046C75.4861 43.0521 75.507 43.0096 75.527 42.9621C75.5678 42.868 75.6336 42.7938 75.6936 42.7122C75.7436 42.6439 75.7669 42.5397 75.7311 42.4581C75.7136 42.4172 75.6786 42.3831 75.6628 42.3406C75.6453 42.2948 75.6611 42.2523 75.6786 42.2098C75.6944 42.1723 75.7094 42.1323 75.7219 42.0931C75.7361 42.0482 75.7302 42.0015 75.7311 41.954C75.7327 41.8607 75.6361 41.8024 75.5886 41.7282C75.5661 41.6924 75.547 41.6541 75.5278 41.6166C75.5178 41.5983 75.5086 41.5799 75.4986 41.5624C75.4845 41.5374 75.487 41.5316 75.487 41.5016C75.472 41.4899 75.4711 41.4608 75.4661 41.4433C75.4595 41.42 75.4495 41.3983 75.4411 41.3758C75.4278 41.3408 75.4136 41.305 75.4045 41.2692C75.3928 41.2267 75.3787 41.1875 75.3678 41.1459C75.3587 41.1092 75.3578 41.0725 75.3495 41.0359C75.3395 40.9892 75.3278 40.9501 75.3278 40.9001C75.3278 40.8559 75.3287 40.8126 75.3278 40.7684C75.327 40.6935 75.3453 40.6201 75.3612 40.5485C75.3845 40.4452 75.402 40.341 75.4286 40.2377C75.4395 40.1952 75.442 40.1469 75.4378 40.1028C75.4361 40.0844 75.4311 40.0711 75.4228 40.0553C75.4145 40.0436 75.407 40.0311 75.4003 40.0186C75.3937 40.0028 75.3887 39.987 75.3853 39.9711C75.3395 39.8895 75.2404 39.8487 75.1787 39.7828C75.1637 39.767 75.1429 39.7412 75.1329 39.722C75.1237 39.7045 75.1237 39.6812 75.1154 39.6629C75.1054 39.6395 75.0945 39.6287 75.0937 39.602C75.0929 39.5779 75.0937 39.5529 75.0937 39.5279C75.0937 39.4504 75.0937 39.3729 75.0937 39.2954C75.0937 39.183 75.1062 39.0638 75.0929 38.9522C75.0862 38.8955 75.0596 38.8455 75.0354 38.7947C75.0196 38.7614 75.0012 38.7147 74.9779 38.6881C74.9512 38.6581 74.9221 38.6297 74.8954 38.5998C74.8604 38.5614 74.8296 38.5414 74.788 38.5106C74.7521 38.4848 74.7238 38.449 74.688 38.4248C74.6655 38.4098 74.638 38.404 74.618 38.3856C74.5988 38.3673 74.5838 38.3432 74.5638 38.3248C74.5447 38.3065 74.5397 38.2898 74.5272 38.2682C74.5172 38.2515 74.5047 38.2432 74.493 38.2273C74.4672 38.1907 74.4572 38.1432 74.4322 38.1057C74.4222 38.0915 74.4114 38.0849 74.4039 38.0674C74.3955 38.0482 74.3947 38.0299 74.383 38.0107C74.3605 37.9732 74.3314 37.9382 74.3089 37.9007C74.2672 37.8299 74.2281 37.7608 74.1873 37.69L74.1631 37.6283C74.1123 37.5958 74.0931 37.5242 74.0681 37.4708C74.0465 37.4259 74.0181 37.3767 73.9881 37.3359C73.9631 37.3025 73.9456 37.2684 73.9206 37.2351C73.8973 37.2042 73.8807 37.1609 73.8648 37.1251C73.849 37.0884 73.8498 37.0526 73.8448 37.0143C73.8423 36.9968 73.8332 36.9826 73.8315 36.9651C73.8282 36.9418 73.8323 36.9151 73.8323 36.891C73.8323 36.7952 73.809 36.7043 73.8082 36.6094V36.5969C73.7915 36.5802 73.7907 36.5594 73.7807 36.5385C73.7707 36.5177 73.7599 36.5027 73.7524 36.4802C73.7457 36.4611 73.7374 36.4419 73.7307 36.4227C73.724 36.4036 73.7257 36.3819 73.719 36.3628C73.7107 36.3403 73.699 36.3286 73.6965 36.3028C73.6949 36.2811 73.6974 36.2586 73.6974 36.2378C73.6974 36.1928 73.6974 36.1486 73.6974 36.1036C73.6974 36.0578 73.6949 36.0128 73.6832 35.9687C73.6724 35.9304 73.6424 35.8945 73.624 35.8587C73.5791 35.7704 73.5191 35.6954 73.4766 35.6029C73.4424 35.5288 73.4199 35.4521 73.4058 35.3738C73.3991 35.3372 73.4033 35.2972 73.4033 35.2597C73.4033 35.2213 73.4124 35.173 73.4041 35.1364C73.3858 35.0589 73.3749 34.9797 73.3516 34.9014C73.3374 34.8548 73.3191 34.8156 73.2816 34.7814C73.245 34.7481 73.2066 34.719 73.1708 34.684L73.1583 34.6715C73.1442 34.6456 73.1225 34.6265 73.1083 34.6006C73.1 34.5857 73.0983 34.5698 73.09 34.5557C73.0783 34.5348 73.0575 34.5207 73.05 34.4965C73.0425 34.4732 73.0392 34.4498 73.0308 34.4265C73.0125 34.3732 73.0292 34.3215 73.035 34.2674C73.0375 34.2416 73.0383 34.2266 73.0483 34.2024C73.0592 34.1757 73.0692 34.1491 73.0725 34.1199C73.0808 34.0499 73.0833 33.9475 73.0492 33.885C73.015 33.8217 72.9617 33.7583 72.9625 33.6834C72.9634 33.6434 72.9625 33.6084 72.9717 33.57C72.9809 33.5325 72.9975 33.5009 73.0117 33.4642C73.0358 33.4001 73.0483 33.3443 73.0483 33.2759C73.0483 33.201 73.0567 33.1176 73.03 33.0468C73.0067 32.9843 72.96 32.9335 72.94 32.8685C72.9217 32.8094 72.9417 32.7202 72.9617 32.6652C72.9867 32.5986 73.01 32.5344 73.0108 32.4636V32.3653C73.015 32.342 72.9984 32.327 72.9892 32.307C72.9784 32.2828 72.9784 32.2578 72.9717 32.2328C72.9642 32.207 72.9467 32.1845 72.94 32.1595C72.9334 32.1362 72.93 32.1162 72.9217 32.0937C72.905 32.0437 72.9125 31.9862 72.9125 31.9337C72.9125 31.8871 72.9067 31.8354 72.9117 31.7896C72.9142 31.7654 72.9217 31.738 72.9275 31.7155C72.9342 31.6921 72.935 31.6705 72.9392 31.6455C72.9467 31.5996 72.9584 31.5513 72.9767 31.5072C72.9959 31.4605 73.0067 31.4105 73.025 31.3639C73.0433 31.318 73.055 31.2697 73.0758 31.2264C73.1208 31.1331 73.1766 31.0414 73.17 30.934C73.1675 30.8923 73.1442 30.8423 73.1067 30.8207C73.0583 30.7923 73.0033 30.8065 72.9517 30.7982C72.8975 30.7898 72.865 30.7432 72.8784 30.6899C72.8892 30.6474 72.8892 30.6057 72.9092 30.564C72.9209 30.539 72.9384 30.5182 72.9467 30.4907C72.9559 30.4582 72.9659 30.4257 72.9775 30.3949C72.9917 30.3566 73.0183 30.2999 73.0108 30.2583V30.2458C73.0075 30.2066 72.9859 30.1316 72.9525 30.11C72.92 30.0883 72.8825 30.1 72.8484 30.1083C72.8342 30.1116 72.8109 30.115 72.7959 30.1116C72.7726 30.1066 72.7726 30.095 72.7626 30.0742C72.7401 30.03 72.7409 30.0008 72.7409 29.9517C72.7409 29.9075 72.7409 29.8625 72.7409 29.8184C72.7409 29.7867 72.7501 29.7409 72.7342 29.7134C72.6976 29.6476 72.6143 29.6442 72.5493 29.6451C72.5143 29.6459 72.4751 29.6334 72.4601 29.5968C72.4493 29.5701 72.4585 29.5201 72.4585 29.4918C72.4576 29.4168 72.4801 29.3385 72.4985 29.2668C72.5151 29.2027 72.5201 29.1102 72.4926 29.0469C72.4735 29.0027 72.4326 28.9827 72.406 28.9452C72.3893 28.9211 72.376 28.8961 72.3627 28.8703C72.3468 28.8378 72.3477 28.7961 72.3327 28.7628C72.3235 28.7411 72.3118 28.727 72.3093 28.7028C72.3077 28.687 72.3102 28.6695 72.3102 28.6545C72.3102 28.5961 72.3102 28.5378 72.3102 28.4803L72.2843 28.3712Z" fill="white"/>
</svg>
