<svg width="98" height="45" viewBox="0 0 98 45" fill="none" xmlns="http://www.w3.org/2000/svg">
<path d="M88.8773 19.5603C88.8121 19.6373 88.6923 19.6095 88.6078 19.6384C88.5254 19.6662 88.519 19.8128 88.519 19.8876C88.518 19.9807 88.5821 20.0727 88.6602 20.1262C88.7565 20.1925 88.8217 20.2641 88.8281 20.3914C88.8324 20.4738 88.8388 20.5711 88.8025 20.6471C88.7757 20.7048 88.7511 20.7252 88.7501 20.7915C88.749 20.8428 88.7511 20.8942 88.7501 20.9455C88.749 21.045 88.8046 21.1177 88.8538 21.2011C88.8987 21.2782 88.9041 21.3862 88.9041 21.4771C88.9052 21.567 88.8784 21.6482 88.8784 21.7402C88.8784 21.8579 88.8549 21.9435 88.9544 22.0215C89.0271 22.0782 89.1223 22.166 89.2186 22.1766C89.3138 22.1873 89.4132 22.1788 89.4924 22.1242C89.5919 22.0568 89.6528 21.9617 89.732 21.8729C89.8058 21.7884 89.8796 21.691 90.0069 21.7114C90.1149 21.7285 90.1769 21.8386 90.2379 21.9178C90.2807 21.9734 90.3128 22.0109 90.316 22.0847C90.3203 22.1692 90.3074 22.1766 90.2443 22.2259C90.1545 22.2954 90.0176 22.4205 89.9876 22.5328C89.9748 22.582 89.9823 22.6377 89.9823 22.6879C89.9823 22.7211 89.9673 22.8013 89.9844 22.8302C90.0293 22.9029 90.2433 22.8666 90.3192 22.8666C90.4208 22.8666 90.5214 22.8666 90.623 22.8666H90.6743C90.7342 22.8548 90.7685 22.9126 90.808 22.9436C90.8487 22.9757 90.885 22.9853 90.9032 23.0356C90.9396 23.135 90.9139 23.2046 90.8701 23.2923C90.8519 23.3276 90.8187 23.3714 90.807 23.4057C90.7952 23.4399 90.8037 23.4773 90.7963 23.5137C90.7802 23.5907 90.7652 23.6688 90.7749 23.749C90.7866 23.8453 90.8808 23.9052 90.9439 23.9693C91.023 24.0496 91.0113 24.1523 91.007 24.2581C91.0038 24.3544 90.9535 24.4325 90.9032 24.5138C90.8562 24.5908 90.7599 24.717 90.7727 24.8144C90.8005 25.0208 91.0754 24.9941 91.2252 24.9941C91.3033 24.9941 91.3856 24.9801 91.4445 25.0443C91.5065 25.1117 91.5022 25.2144 91.5183 25.2957C91.5332 25.3738 91.5835 25.4454 91.5012 25.5011C91.4295 25.5492 91.3161 25.5524 91.2359 25.5824C91.1385 25.6187 91.1343 25.6775 91.1343 25.7717C91.1343 25.8113 91.1321 25.8519 91.1332 25.8915C91.1353 25.9557 91.1492 25.9396 91.192 25.9717C91.3696 26.1065 91.3225 26.3471 91.2476 26.5204C91.207 26.6124 91.1321 26.714 91.2423 26.7889C91.3332 26.8499 91.4498 26.8862 91.545 26.9419C91.5931 26.99 91.6595 27.0349 91.6744 27.1012C91.6958 27.1932 91.6413 27.1911 91.5942 27.2488C91.5044 27.3579 91.4937 27.467 91.4937 27.6007C91.4937 27.6392 91.4851 27.6938 91.4926 27.7323C91.4979 27.7633 91.5151 27.7836 91.5204 27.8136C91.5279 27.8553 91.5151 27.8981 91.5247 27.9409C91.5386 28.0072 91.5803 28.065 91.6038 28.127C91.6263 28.189 91.6445 28.2596 91.6616 28.3238C91.6776 28.3859 91.6616 28.4447 91.6723 28.5056C91.6841 28.5784 91.699 28.6297 91.699 28.7078C91.699 28.8404 91.699 28.9581 91.7365 29.0854C91.7739 29.2105 91.8103 29.3646 91.8905 29.4683C91.9429 29.5357 91.99 29.6095 92.0317 29.6844C92.0691 29.7518 92.1526 29.8095 92.16 29.8898L92.1857 29.9154C92.1814 29.9593 92.205 29.9956 92.2189 30.0363C92.2306 30.0737 92.2285 30.1101 92.2371 30.1465C92.2456 30.186 92.2627 30.2171 92.2649 30.2588C92.2659 30.2909 92.2627 30.3176 92.2691 30.3497C92.2991 30.4813 92.2895 30.6224 92.2895 30.7615C92.2895 30.8364 92.2895 30.9112 92.2895 30.9861C92.2895 31.0471 92.3066 31.138 92.2916 31.1968C92.2734 31.2653 92.2039 31.3423 92.1675 31.4033C92.129 31.4675 92.1012 31.5359 92.0873 31.6086C92.0563 31.7637 92.113 31.9156 92.1108 32.0675C92.1076 32.2248 92.1558 32.3799 92.1376 32.5414C92.1226 32.6708 92.0328 32.797 91.9761 32.9147C91.9429 32.9842 91.9204 33.0537 91.8798 33.12C91.8488 33.1714 91.791 33.2644 91.8028 33.3254C91.8028 33.3981 91.79 33.4848 91.8017 33.5564C91.8146 33.6335 91.8926 33.7254 91.9365 33.7875C91.9664 33.8303 91.991 33.8463 92.0082 33.8955C92.0221 33.934 92.0296 33.9779 92.0338 34.0175C92.0445 34.1276 91.945 34.148 91.8787 34.2218C91.8135 34.2945 91.7846 34.3651 91.8327 34.4517C91.8884 34.5512 91.9846 34.6229 92.0584 34.7106C92.1921 34.8667 92.3387 35.0603 92.3654 35.2743V35.2999C92.3547 35.3909 92.3986 35.4946 92.4178 35.5834C92.4328 35.6529 92.4392 35.715 92.4424 35.7877C92.4456 35.8561 92.4649 35.9214 92.4681 35.992C92.4713 36.0572 92.4863 36.1321 92.5002 36.1963C92.5141 36.2615 92.5216 36.3418 92.5505 36.4027C92.5761 36.4583 92.6981 36.5354 92.7515 36.5578C92.8692 36.607 93.0617 36.6669 93.1484 36.5289C93.1858 36.4701 93.1462 36.391 93.1666 36.3268C93.1901 36.253 93.25 36.1289 93.3259 36.1064C93.4949 36.0562 93.6158 36.1717 93.7238 36.2872C93.7752 36.3418 93.8394 36.4027 93.8522 36.4797C93.8629 36.5429 93.864 36.6413 93.8554 36.7044C93.8447 36.7803 93.7837 36.8178 93.7131 36.8359C93.6308 36.8573 93.5334 36.8723 93.4693 36.9386C93.3912 37.0199 93.3933 37.0884 93.3933 37.1911C93.3933 37.2713 93.3858 37.3504 93.4062 37.4274C93.4201 37.4831 93.4308 37.5291 93.4564 37.5804C93.4853 37.6403 93.5024 37.7184 93.5367 37.7729C93.5645 37.8179 93.6008 37.8392 93.6244 37.8895C93.649 37.9441 93.6853 37.974 93.7271 38.0179V38.0692C93.8404 38.0478 93.9453 38.2532 93.9709 38.3366C94.0062 38.4468 94.0576 38.5516 94.111 38.6532C94.1624 38.7495 94.2062 38.8372 94.2341 38.9399C94.2608 39.0404 94.2351 39.1677 94.202 39.2629C94.1816 39.3196 94.1635 39.3528 94.1624 39.417C94.1613 39.4576 94.1442 39.5421 94.1752 39.5699C94.2095 39.6009 94.3014 39.5827 94.3474 39.5827C94.4031 39.5827 94.4598 39.5827 94.5154 39.5827C94.6266 39.5827 94.7229 39.5967 94.8031 39.6833C94.8598 39.7443 94.8962 39.8245 94.9443 39.8908C94.9614 39.9143 94.9914 39.9411 95.0042 39.9678C95.017 39.9967 95.0031 40.0202 95.0341 40.0438V40.0694C95.1165 40.1411 95.2138 40.1978 95.2909 40.2737C95.3689 40.3507 95.477 40.3946 95.5786 40.4352C95.631 40.4566 95.677 40.478 95.7262 40.5037C95.7861 40.5358 95.8032 40.5893 95.8535 40.6342C95.9166 40.6909 95.9572 40.7048 95.9893 40.7871C96.0118 40.846 96.0332 40.9005 96.0342 40.9647C96.0364 41.0556 96.0439 41.1594 96.0995 41.2353C96.138 41.2877 96.1797 41.3006 96.2332 41.3305C96.2845 41.3594 96.3305 41.4054 96.3797 41.4396C96.4332 41.4771 96.4824 41.5252 96.5156 41.5819C96.5434 41.6289 96.5359 41.6749 96.5487 41.7241C96.5701 41.8065 96.5915 41.9284 96.6493 41.9926V42.0183C96.6835 42.0547 96.7284 42.0568 96.7659 42.0846C96.8044 42.1146 96.8333 42.1285 96.875 42.152C96.9381 42.1884 96.9851 42.2557 97.0033 42.3263C97.0343 42.444 96.9958 42.5756 96.9841 42.69C96.9777 42.7585 96.9563 42.812 96.9573 42.8836C96.9573 42.9457 96.9573 43.0066 96.9573 43.0687C96.9573 43.1275 96.9498 43.1895 96.9627 43.2473C96.9798 43.3264 97.0226 43.397 97.0343 43.4794C75.9434 45.2753 32.7036 45.1395 22.664 44.7726L23.0116 30.2737L0.764404 29.3453L2.23942 0C5.11459 0.297357 30.6135 1.32099 62.2885 0.971225C62.2874 1.01294 62.343 1.06107 62.3655 1.09209C62.3976 1.13809 62.4404 1.18515 62.4692 1.23328C62.4971 1.27928 62.511 1.31137 62.5452 1.35415C62.5783 1.39587 62.5869 1.44079 62.6147 1.48465C62.6682 1.57022 62.7302 1.64295 62.7762 1.73494C62.8158 1.81195 62.8479 1.90929 62.9089 1.97133C62.9869 2.05048 63.0843 2.07615 63.1805 2.12536C63.2565 2.16493 63.3314 2.20023 63.4105 2.23339C63.4576 2.25371 63.5025 2.27938 63.5453 2.30399C63.5881 2.32859 63.6298 2.34142 63.6747 2.36174C63.7517 2.39597 63.8287 2.43662 63.9047 2.47299C63.9935 2.51577 64.0683 2.56177 64.1347 2.63557C64.1528 2.66124 64.1721 2.68584 64.1924 2.70937C64.216 2.72435 64.2395 2.73932 64.2641 2.75216C64.2801 2.77676 64.2994 2.79922 64.3208 2.81955C64.3443 2.83238 64.3678 2.84201 64.3935 2.8495C64.4759 2.8987 64.5539 2.94683 64.6491 2.9725C64.7454 2.99818 64.8395 3.02385 64.9315 3.06877C65.015 3.10942 65.1273 3.13188 65.2182 3.14578C65.3369 3.1629 65.4567 3.18964 65.5765 3.20461C65.7551 3.22708 65.9541 3.20354 66.1349 3.20354H66.1605C66.2568 3.1875 66.3285 3.30409 66.3916 3.35757C66.4611 3.4164 66.5242 3.48058 66.5905 3.54369C66.628 3.58005 66.659 3.62819 66.6986 3.66027C66.7242 3.6806 66.751 3.68809 66.7756 3.71483C66.8055 3.74692 66.8205 3.7897 66.8515 3.82072C66.8815 3.85174 66.9243 3.86778 66.9563 3.89666C67.0334 3.96512 67.0783 3.99614 67.1788 4.0186C67.2537 4.03465 67.3104 4.07743 67.3842 4.09562C67.473 4.11808 67.5521 4.15765 67.6398 4.18546C67.7147 4.21007 67.7864 4.20365 67.8645 4.20365C68.0142 4.20365 68.1565 4.21755 68.2966 4.16514C68.4517 4.10738 68.6303 3.98758 68.6977 3.83141C68.7726 3.656 68.8656 3.49127 68.9919 3.3458C69.0261 3.3073 69.0721 3.28911 69.1095 3.25489C69.1405 3.22601 69.1555 3.18429 69.1844 3.15648C69.2486 3.09551 69.3502 3.11262 69.4154 3.04952H69.4411C69.5395 3.04952 69.6283 3.04738 69.7235 3.02919C69.7984 3.01422 69.8775 3.03133 69.9524 3.01743C70.0978 2.99176 70.2465 2.9971 70.3963 2.9971C70.7386 2.9971 71.0798 2.9971 71.422 2.9971C71.6082 2.9971 71.7954 2.99603 71.9815 2.9971C72.0585 2.9971 72.1194 2.97785 72.1911 2.97143C72.282 2.96395 72.3516 2.9233 72.4221 2.8634C72.4906 2.80457 72.5601 2.7436 72.6457 2.70723C72.7302 2.67087 72.8372 2.68905 72.9281 2.68905C73.0137 2.68905 73.1003 2.69012 73.1859 2.68905C73.2222 2.68905 73.2565 2.68584 73.2928 2.6944C73.3356 2.70403 73.372 2.73611 73.4158 2.74039L73.4415 2.76606C73.5292 2.76393 73.6148 2.7928 73.6971 2.81206C73.7966 2.83452 73.8619 2.80136 73.9539 2.77248C74.0277 2.74895 74.0897 2.73184 74.1603 2.69654C74.202 2.67515 74.2416 2.67622 74.2822 2.6591C74.3336 2.63771 74.3379 2.61311 74.3967 2.61204C74.4748 2.6099 74.5261 2.66124 74.6021 2.66552C74.7037 2.67087 74.801 2.66338 74.8983 2.6452C75.0534 2.61632 75.2331 2.63985 75.3904 2.63985C75.5722 2.63985 75.7369 2.68477 75.8984 2.7682C75.9829 2.81206 76.0696 2.84522 76.1348 2.91474C76.1947 2.97892 76.2386 3.05166 76.2835 3.12653C76.337 3.21531 76.3734 3.30409 76.4889 3.32762C76.5253 3.33511 76.5616 3.32762 76.5969 3.33832C76.6215 3.3458 76.6557 3.3672 76.6793 3.37789C76.7509 3.40784 76.7499 3.42709 76.8001 3.48165C76.8419 3.52764 76.8782 3.54476 76.9103 3.59503C76.9413 3.6453 76.9574 3.68167 77.0109 3.71162C77.043 3.7298 77.1232 3.76617 77.1606 3.76831L77.1863 3.79398C77.2804 3.79398 77.3745 3.79398 77.4687 3.79398C77.5403 3.79398 77.6067 3.78435 77.673 3.81216C77.7564 3.84746 77.8216 3.86244 77.9083 3.87634C77.965 3.8849 78.011 3.89773 78.0687 3.89666C78.1051 3.89666 78.1522 3.88704 78.1875 3.89559C78.2698 3.91378 78.364 3.93731 78.4431 3.96726C78.5084 3.99186 78.6281 4.0186 78.6699 4.07529C78.7212 4.14589 78.718 4.25499 78.7373 4.33414C78.7554 4.40902 78.7618 4.49352 78.7939 4.56518C78.825 4.63364 78.8977 4.67536 78.9555 4.71814C79.0282 4.77376 79.1148 4.78125 79.2057 4.77055C79.2806 4.762 79.3405 4.74381 79.4165 4.74381C79.4935 4.74381 79.5705 4.74381 79.6475 4.74381C79.7138 4.74381 79.7951 4.73098 79.8593 4.74809C79.885 4.75558 79.9791 4.79729 79.9973 4.81761C80.0219 4.84649 80.0187 4.91174 80.0326 4.94918C80.0689 5.04545 80.1641 5.03261 80.2583 5.02619C80.3235 5.02191 80.4412 4.95667 80.4947 5.02512L80.5203 5.0508C80.5128 5.10428 80.5439 5.14492 80.5599 5.19199C80.5759 5.24119 80.5813 5.28612 80.6038 5.33318C80.6487 5.42517 80.6797 5.52999 80.7824 5.57064C80.8733 5.607 80.9878 5.58882 81.084 5.58882C81.1824 5.58882 81.2808 5.58882 81.3792 5.58882C81.4188 5.58882 81.4616 5.59417 81.5001 5.58989C81.5482 5.58454 81.5857 5.55673 81.6349 5.56101C81.7418 5.5717 81.7943 5.69685 81.8274 5.78349C81.8456 5.83162 81.8531 5.86906 81.8531 5.92041C81.8531 5.97282 81.8691 6.01346 81.8766 6.06267C81.8895 6.14824 81.8788 6.24343 81.8788 6.33114C81.8734 6.53116 82.0445 6.76007 82.2178 6.84991C82.4392 6.96543 82.5633 7.16759 82.6585 7.39222C82.697 7.48207 82.7291 7.59224 82.8008 7.6639C82.8756 7.73771 82.9687 7.79012 83.0725 7.79226C83.1527 7.79333 83.1965 7.76338 83.2586 7.71417C83.3056 7.67674 83.3377 7.62326 83.3966 7.61042C83.4532 7.59865 83.4982 7.61363 83.5442 7.63716C83.5613 7.64679 83.5966 7.65641 83.6105 7.66818C83.6404 7.69385 83.6308 7.72915 83.6736 7.73985L83.6993 7.81686C83.7271 7.85002 83.7656 7.86927 83.7966 7.89922C83.8308 7.93345 83.8565 7.97517 83.8918 8.00939C83.9517 8.06715 83.9816 8.13668 84.0319 8.20086C84.0768 8.25969 84.1367 8.36451 84.2127 8.37949C84.2737 8.39232 84.3656 8.3859 84.4181 8.35061C84.4865 8.30354 84.509 8.23936 84.5956 8.21369C84.6694 8.19123 84.7571 8.19979 84.8341 8.20086C84.985 8.20407 85.1711 8.29177 85.1871 8.45757C85.201 8.59876 85.2139 8.81482 85.1101 8.91965C85.0641 8.96564 84.9871 9.04694 84.9839 9.11539C84.9818 9.15925 85.0267 9.18278 85.0438 9.21808C85.0588 9.24803 85.0705 9.29723 85.078 9.33039C85.0909 9.38815 85.0973 9.48655 85.0834 9.54538C85.0641 9.62561 84.9753 9.68551 84.9571 9.7668C84.9208 9.93152 85.0021 10.0428 85.1475 10.1134C85.2288 10.1529 85.323 10.1775 85.3893 10.2406C85.4599 10.308 85.5358 10.3861 85.5957 10.4642C85.6674 10.5562 85.7455 10.646 85.815 10.7402C85.8546 10.7947 85.9198 10.9006 85.9294 10.9723V10.9979C85.9284 11.0621 85.9637 11.1423 85.9754 11.2044C85.9861 11.2621 85.9819 11.3231 85.9808 11.383C85.9776 11.521 85.8749 11.6333 85.7701 11.7157C85.7326 11.7445 85.7048 11.7563 85.6781 11.798C85.662 11.8226 85.6353 11.8729 85.6257 11.8996C85.6053 11.9563 85.6128 12.0526 85.6203 12.1136C85.6289 12.1863 85.677 12.259 85.6984 12.3286C85.7187 12.3927 85.7444 12.4569 85.7615 12.5222C85.7786 12.5853 85.7947 12.6537 85.831 12.7094C85.8728 12.7746 85.953 12.8163 86.0118 12.8687C86.0567 12.9083 86.0974 12.9596 86.1091 13.0217C86.1198 13.0837 86.092 13.149 86.1391 13.2035C86.1819 13.2527 86.2621 13.2656 86.3134 13.3105C86.3669 13.3575 86.4129 13.4217 86.4482 13.4838C86.4782 13.5372 86.4974 13.5907 86.5156 13.6485C86.537 13.7201 86.5787 13.7907 86.5702 13.8688V13.8945C86.5712 14.0004 86.6044 14.0977 86.6204 14.2015C86.6429 14.3395 86.7777 14.4197 86.8964 14.4774C87.0247 14.5395 87.1349 14.6176 87.2055 14.7459C87.2579 14.8411 87.2087 15.0315 87.3328 15.07C87.382 15.085 87.4355 15.069 87.4858 15.0786C87.536 15.0882 87.6676 15.1256 87.6954 15.1738C87.7211 15.2176 87.6815 15.2829 87.7018 15.3289C87.7296 15.3909 87.7949 15.4027 87.8505 15.4241C87.9157 15.4487 87.9564 15.4904 88.0131 15.5289C88.0612 15.561 88.1115 15.5995 88.1457 15.6519C88.181 15.7086 88.1703 15.7589 88.1842 15.8166C88.2024 15.8904 88.211 15.9418 88.211 16.022V16.0477C88.211 16.1856 88.2366 16.3129 88.2366 16.452C88.2366 16.5825 88.212 16.7451 88.2548 16.867C88.2805 16.9397 88.3072 17.0093 88.3511 17.0724C88.3778 17.1119 88.4121 17.1376 88.442 17.174C88.4698 17.2061 88.4794 17.2414 88.4987 17.2777C88.5746 17.4221 88.688 17.5291 88.7768 17.6639C88.8527 17.7783 88.9405 17.9078 88.9554 18.0468C88.964 18.1195 88.9565 18.1923 88.9298 18.2597C88.9137 18.3003 88.887 18.3303 88.8677 18.3666C88.8474 18.4051 88.8399 18.4426 88.826 18.4843C88.78 18.6212 88.7907 18.7752 88.8324 18.9121C88.8538 18.9827 88.856 19.0576 88.8709 19.1293C88.887 19.2063 88.8699 19.3475 88.9276 19.4052L88.8773 19.5603Z" fill="white"/>
</svg>
