<svg width="23" height="45" viewBox="0 0 23 45" fill="none" xmlns="http://www.w3.org/2000/svg">
<path d="M13.3011 5.05707C13.7069 4.01037 14.1126 2.96367 14.5184 1.91698C14.3459 1.70333 14.1734 1.48968 14.0009 1.27603C14.2381 1.29759 14.4752 1.31915 14.7124 1.34071C15.126 0.936934 15.5396 0.53315 15.9532 0.12937C16.1629 0.427306 16.3726 0.725243 16.5824 1.02318C16.9273 1.08982 17.2723 1.15647 17.6173 1.22311C17.8211 0.872252 18.025 0.521394 18.2288 0.170536C18.3091 0.113685 18.3893 0.0568452 18.4696 0C18.9023 10.0564 19.3351 20.1128 19.7678 30.1692C19.8642 30.3592 19.9605 30.5493 20.0568 30.7393C19.937 31.6895 19.8173 32.6397 19.6976 33.5899C20.4317 34.3422 21.1658 35.0946 21.8999 35.8469C21.788 36.4405 21.676 37.034 21.5641 37.6275C22.0431 37.9165 22.5221 38.2055 23.0011 38.4944C22.897 38.622 22.7928 38.7496 22.6887 38.8771C22.6288 39.1869 22.5689 39.4967 22.5091 39.8065C22.3008 40.1735 22.0925 40.5406 21.8843 40.9077C21.8348 41.2409 21.7854 41.5741 21.7359 41.9073C21.4417 41.8995 21.1476 41.8917 20.8534 41.8839C20.2989 41.9646 19.7444 42.0453 19.1899 42.126C19.0103 42.4306 18.8306 42.7352 18.651 43.0397C18.3595 42.9799 18.0679 42.92 17.7763 42.8601C17.5811 43.2949 17.3858 43.7296 17.1906 44.1644C16.9433 44.1826 16.696 44.2008 16.4487 44.219C16.2196 44.4794 15.9905 44.7397 15.7614 45C10.9827 44.8178 6.20396 44.6355 1.42524 44.4533C1.33152 44.2416 1.2378 44.0299 1.14409 43.8181C1.01566 43.7938 0.887231 43.7695 0.758806 43.7452C0.505869 43.1461 0.252937 42.547 0 41.9479C0.561855 41.2106 1.12371 40.4734 1.68556 39.7362C1.57451 39.6078 1.46344 39.4793 1.35236 39.3509C1.46951 39.0758 1.58666 38.8007 1.70381 38.5257C1.73765 37.4896 1.77149 36.4535 1.80534 35.4174C1.95032 35.1664 2.09531 34.9154 2.2403 34.6644C2.14737 34.0225 2.05445 33.3805 1.96153 32.7386C2.36938 31.3363 2.77722 29.934 3.18507 28.5317C3.72671 27.7769 4.26835 27.0221 4.80999 26.2673C4.84723 25.8244 4.88448 25.3814 4.92172 24.9384C5.22161 24.5738 5.52151 24.2092 5.8214 23.8446C5.8116 23.4232 5.8018 23.0018 5.79201 22.5804C6.0919 22.1668 6.3918 21.7532 6.69169 21.3396C6.57365 20.2769 6.45561 19.2141 6.33757 18.1513C6.53527 17.8338 6.73297 17.5162 6.93067 17.1987C7.73698 17.0344 8.54328 16.8702 9.34959 16.706C9.43388 16.4355 9.51816 16.165 9.60245 15.8945C10.0043 15.8102 10.4061 15.7259 10.8079 15.6416C11.2979 15.1202 11.788 14.5988 12.278 14.0775C12.2074 13.7501 12.1369 13.4228 12.0663 13.0954C12.2917 13.0366 12.5171 12.9778 12.7425 12.919C12.6876 12.5858 12.6328 12.2526 12.5779 11.9194C12.276 11.202 11.9742 10.4846 11.6723 9.76719C12.2192 8.89299 12.7661 8.01878 13.3129 7.14458C13.1404 6.66435 12.9679 6.18412 12.7955 5.7039C12.964 5.48829 13.1326 5.27268 13.3011 5.05707Z" fill="white"/>
</svg>
