<svg width="24" height="45" viewBox="0 0 24 45" fill="none" xmlns="http://www.w3.org/2000/svg">
<path d="M20.677 29.5853C20.5269 29.8857 20.5269 30.136 20.2265 30.2862C20.2766 30.5865 20.1264 30.8368 19.9762 31.1372C19.8761 31.3374 19.6758 31.4876 19.5757 31.6878C19.5257 31.838 19.4756 31.9381 19.4255 32.0883C19.1752 32.689 18.6746 33.0895 18.5245 33.6902L18.3743 33.7403C18.3743 33.8905 18.3743 33.9906 18.2742 34.0907L18.3242 34.1908C18.5245 34.0907 18.5745 33.8404 18.6746 33.6902C18.7748 33.49 18.9249 33.3398 19.0251 33.1896C19.2253 32.8392 19.3755 32.4888 19.6258 32.1384C19.8761 31.7379 20.0763 31.3374 20.2766 30.8869C20.3767 30.4363 20.677 29.9858 20.677 29.5853Z" fill="white"/>
<path d="M15.8212 35.8428L15.7711 35.7928L15.9713 35.6426C15.9713 35.7928 15.9713 35.9429 16.0715 36.0431C16.0214 36.1432 15.8712 36.1932 15.7711 36.2433C15.721 36.0931 15.7711 35.993 15.8212 35.8428Z" fill="white"/>
<path d="M17.0727 34.7415H17.5733L17.6734 34.9918L17.8737 34.9417C17.8236 35.2921 17.8236 35.3922 17.4732 35.3922C17.6234 36.0931 16.9225 36.3934 16.4219 36.7438C16.4219 36.6437 16.3218 36.5436 16.2217 36.4935V36.2933L16.2717 36.2432L16.4219 36.3434C16.522 36.1932 16.6222 36.1431 16.7723 36.043L16.6222 35.9429C16.7223 35.7427 16.8725 35.6926 16.9225 35.5424C17.0226 35.3422 16.8725 35.0919 16.8224 34.8916H16.9726V34.7915L17.0727 34.7415Z" fill="white"/>
<path d="M21.1276 12.4649C21.428 12.5149 21.428 12.1145 21.6783 12.1645C21.7283 11.8141 21.7784 11.4637 21.8785 11.1133C21.9786 10.7629 22.2289 10.4625 22.4292 10.1621C22.7295 9.56142 22.9298 8.9607 23.13 8.35999L23.4804 6.70801L12.4172 0L12.0167 0.200239C11.7664 0.250299 11.6663 0.250299 11.5161 0.400478C11.3159 0.550658 11.2158 0.600718 10.9655 0.700837C11.0155 1.0012 10.7152 1.10132 10.565 1.30155C10.4649 1.45173 10.4649 1.70203 10.3648 1.85221C10.2646 2.00239 10.1145 2.10251 10.1145 2.35281C10.1145 2.45293 10.1645 2.50299 10.1645 2.60311C10.1645 2.70323 10.0644 2.85341 10.0143 2.90347C9.86415 3.25389 9.61385 3.70442 9.36356 3.95472C9.01314 4.30514 8.5626 4.40526 8.36236 4.90586C8.51254 4.95592 8.5626 4.8558 8.66272 4.80574C8.66272 5.1061 8.26224 5.15616 8.11206 5.30634C7.91182 5.45652 7.91182 5.75688 7.76164 5.90705C7.41122 6.30753 6.71039 6.30753 6.41003 6.75807C6.20979 7.05843 6.46009 7.10849 6.61027 7.30873C6.76045 7.50897 6.81051 7.80933 6.96069 8.00957C7.16092 8.25987 7.21098 8.4601 7.36116 8.7104C7.51134 9.01076 7.51134 9.11088 7.36116 9.41124C7.21098 9.36118 7.11087 9.36118 6.96069 9.4613C6.91063 9.61148 7.0608 9.66154 7.11086 9.81172C7.11086 9.9619 7.06081 10.012 6.96069 10.1621C6.81051 10.4124 6.61027 10.5626 6.41003 10.8129L5.95949 10.7128C5.80931 10.9631 5.70919 11.0632 5.45889 11.1633C5.45889 11.3135 5.60907 11.4136 5.70919 11.5638C5.60907 11.8141 5.35877 12.1645 5.45889 12.4148C6.00955 12.6151 5.65913 12.6151 5.50895 12.9655C5.40883 13.2158 5.80931 13.5662 5.45889 13.7164L5.55901 14.1669L5.50895 14.4172C5.65913 14.8177 5.95949 14.5674 6.25985 14.5173C6.61027 14.4673 6.91063 14.6175 7.11086 14.9178C7.5614 15.5686 7.01075 16.3696 7.21098 17.0704C7.46128 17.8713 8.26224 17.3207 8.66272 17.8713C8.86296 18.1216 8.8129 18.4721 8.96308 18.7724C9.11326 19.1228 9.46367 19.223 9.76403 19.4733C10.0143 19.7236 10.0644 20.0239 10.2646 20.3243C10.4649 20.6246 10.7652 20.7248 11.0155 20.9751C11.2658 21.1753 11.416 21.4757 11.6162 21.7259C11.8665 21.9762 12.0668 22.1264 11.8665 22.4768C11.6663 22.7772 11.2658 22.8773 10.9154 22.8773C10.5149 22.8273 10.565 22.9774 10.3147 23.3279C9.86415 23.8785 9.11326 23.8785 8.51254 24.2289C8.3123 24.3791 8.16212 24.6294 7.91182 24.7295C7.8117 24.8297 7.61146 24.8297 7.51134 24.9298C7.41122 25.0299 7.36116 25.1801 7.26104 25.3303C6.96068 25.7307 6.15973 25.6807 6.15973 26.2814C6.15973 26.5817 6.30991 26.832 6.15973 27.1324C5.95949 27.4828 5.70919 27.2826 5.40883 27.4328C5.10847 27.5829 4.95829 27.7832 4.65793 27.8833C4.35758 27.9834 4.10728 28.0335 3.80692 28.0335C3.10608 27.9834 2.75566 28.434 2.205 28.8845L2.35518 28.9846C1.70441 29.335 1.40405 29.7355 1.25387 30.4364H1.10369C1.00357 30.5865 0.903451 30.6867 0.853391 30.8368C0.803331 30.987 0.803331 31.1872 0.753271 31.3374C0.603092 31.6378 0.202614 31.788 0.102494 32.0883C0.00237461 32.4387 0.352793 32.639 0.553032 32.8392C0.703211 32.9894 0.803331 32.9393 0.753271 33.1896C0.703211 33.3899 0.603092 33.49 0.502972 33.6402C0.703211 33.8905 0.402853 34.1908 0.553032 34.4411L0.0524342 34.4912C-0.0977452 34.8917 0.102494 35.0419 0.302733 35.3422C0.703211 34.9918 1.15375 35.5925 1.40405 35.8428C1.55423 36.1432 1.85459 36.5937 2.25506 36.4435C2.205 36.5436 2.35518 36.8941 2.40524 36.9942C2.4553 37.1444 2.50536 37.3446 2.60548 37.4948C2.80572 37.8452 2.90584 37.7451 3.05602 37.4447H3.30632C3.30632 37.7951 3.30632 38.1956 3.7068 38.3458C3.9571 38.496 4.10728 38.2457 4.40764 38.2457C4.35758 38.2957 4.35758 38.2957 4.30752 38.3458C4.40763 38.3959 4.35758 38.4459 4.40764 38.546C4.50775 38.6462 4.55782 38.6962 4.708 38.7463C4.90823 38.8464 5.20859 38.8965 5.20859 39.1968C5.65913 38.8464 5.50895 39.6974 5.70919 39.7975C5.60907 39.8977 5.45889 39.8476 5.40883 39.9477C5.40883 39.9978 5.75925 40.198 5.80931 40.2481C6.20979 40.4483 6.15973 40.0478 6.46009 39.8977C6.66033 39.7475 7.01074 39.8977 7.26104 39.8476C7.36116 39.7975 7.36116 39.6474 7.46128 39.8476C7.51134 39.9477 7.8117 40.0979 7.3111 40.0979V40.1479C7.8117 40.4483 8.41242 40.1479 8.91302 40.3982C9.36355 40.5985 9.61385 41.049 9.51373 41.4996C9.41362 41.9501 9.16332 42.5508 8.91302 42.9012C8.71278 43.2016 8.5626 43.6021 8.51254 43.9525C8.46248 44.2028 8.51254 44.4531 8.36236 44.6533C8.46248 44.7535 8.46248 44.8536 8.41242 44.9537C8.8129 45.1039 9.41362 44.8536 9.76403 44.7034L9.81409 44.6533L9.76403 44.6033L9.36356 44.6533L9.26344 44.6033L9.31349 44.5032L9.71397 44.4531V44.3029L9.56379 44.2529L9.51373 44.1527L9.56379 44.1027L9.71397 44.1527L9.76403 44.1027L9.71397 43.8524C9.81409 43.8023 10.1145 43.8023 10.2146 43.9024C10.1145 44.1527 10.0143 44.1027 9.81409 44.1527C9.81409 44.3029 9.76403 44.5032 9.86415 44.6033L10.9154 43.7022C11.0656 43.502 10.8653 43.3017 10.7652 43.1015C10.9655 43.0514 11.0155 42.7511 11.1156 42.6009C11.2658 42.3506 11.2158 42.3005 11.1156 42.0002L10.9655 42.1003C10.8653 42.0002 10.8153 41.85 10.9154 41.7499L11.2658 41.6497C11.416 41.7499 11.3659 41.9 11.3659 42.0002C11.3659 42.2004 11.3659 42.2004 11.4661 42.4006C11.3659 42.5508 11.2658 42.5508 11.1657 42.6509C11.1156 42.8011 11.1156 42.9513 11.1156 43.1015L11.5161 42.7511L11.8665 42.1003L12.1168 41.7999L12.0668 41.6497L11.7664 41.7499L11.8165 41.5496L11.5662 41.4996L11.6162 41.4495L11.8165 41.3994L11.8665 41.1491L11.9667 41.049L11.9166 41.3994L11.9667 41.4495L12.0668 41.3994L12.1669 41.1491C12.3671 41.049 12.4172 40.7487 12.5173 40.5985C12.6174 40.4483 12.8177 40.2981 12.8177 40.0979L12.6174 39.9978L12.7176 39.9477L12.7676 39.7975L13.068 39.7475L13.2182 39.5973L13.3683 39.1968L13.5686 38.9465L13.7188 38.7963L14.1192 38.6462L14.1693 38.3959L14.0692 38.2457C13.8189 38.2957 13.6186 38.6462 13.4184 38.3959C13.3183 38.496 13.3683 38.6462 13.3183 38.7463C13.2682 38.8464 13.118 38.8965 13.068 38.9465L13.1681 38.4459C13.0179 38.3959 12.8177 38.3458 12.6675 38.3458C12.7176 38.2957 12.7176 38.2457 12.7676 38.1956V38.0454L12.8677 37.9453L13.118 38.0454L13.2182 37.9453C13.3683 38.1456 13.5686 37.9954 13.7688 37.9954C13.9691 37.9954 14.2194 38.1456 14.3195 37.8452C14.3695 37.7451 14.2194 37.645 14.2694 37.4948C14.3695 37.2445 14.4196 37.4447 14.5197 37.3947C14.77 37.2945 14.5698 37.4447 14.6699 37.2445C14.72 37.1944 14.72 36.9942 14.8201 36.9441C14.8201 36.9441 14.9202 37.0943 14.9703 37.0943C15.0203 37.0943 15.1204 37.0943 15.1705 37.0943C15.2206 37.0943 15.2706 36.9441 15.2706 36.9441V37.0442C15.2706 37.0442 15.2206 37.1444 15.1705 37.1944H15.0704C15.0704 37.1944 15.1204 37.2445 15.1705 37.2445V37.2945L14.8701 37.4948C14.8701 37.695 14.6699 37.8452 14.6699 38.0454C14.9202 38.0955 15.1204 37.7951 15.2706 37.645C15.4208 37.5448 15.621 37.4447 15.8213 37.3947L16.422 36.9942L16.1717 36.7439L15.7712 36.6938V36.5436H15.2706C15.2706 36.5436 15.2206 36.1432 15.2706 36.043C15.2706 35.993 15.4709 35.9429 15.4709 35.8428C15.5209 35.7427 15.4709 35.5925 15.4709 35.5425C15.571 35.6426 15.6711 35.7427 15.7712 35.6926C15.7712 35.5925 15.7712 35.2421 15.9214 35.2922H16.0716C16.0716 35.5425 16.2718 35.8428 16.472 35.5925L16.3219 35.2421L16.472 35.0919C16.422 34.9918 16.1717 34.9417 16.3219 34.8416C16.3719 34.7916 16.422 34.7916 16.472 34.8416L16.5221 34.9417H16.6222L16.6723 34.8917C16.6222 34.7415 15.9214 34.0407 16.2718 33.8404V33.4399L16.3219 33.3899C16.5221 33.49 16.5221 33.6902 16.6222 33.7403C16.7223 33.7904 16.9226 33.7403 17.0227 33.7403L16.9726 33.6402L17.0227 33.5901L17.1228 33.6402V33.7403C17.273 33.7904 17.3231 33.6902 17.4232 33.7403C17.5734 33.7904 17.5734 33.9405 17.6234 34.0407L17.5233 34.0907L17.4732 34.291L17.5233 34.341C17.5233 34.2409 17.5233 34.1408 17.6234 34.1408C17.6735 34.0907 17.7235 34.0907 17.7736 34.0407C17.9238 33.7904 17.7736 33.8404 17.6234 33.6902C17.4732 33.5401 17.3231 33.3398 17.4232 33.1396L17.5734 33.2397L17.6234 33.0895C17.8237 33.0895 17.8737 32.4888 18.074 32.7892C18.074 32.7391 18.074 32.639 18.074 32.5889L18.2241 32.5389H18.2742L18.4744 32.4387C18.3243 32.3386 18.124 32.0383 18.074 32.0383H18.6246L18.5746 31.788C18.6747 31.788 18.7748 31.788 18.8249 31.7379L18.925 31.788C19.0752 31.5377 19.2253 31.2874 19.4756 31.1873C19.2253 31.0371 19.6258 30.8869 19.5758 30.6867C19.776 30.6867 19.776 30.6867 19.8761 30.5365C19.776 30.4864 19.6258 30.4864 19.5758 30.3863C19.6258 30.3863 19.5757 30.3362 19.6258 30.3362C19.4756 30.0359 19.2754 30.0359 18.7748 29.9858V29.6354L19.2253 29.3851C19.1753 29.1348 19.4256 29.0847 19.5257 28.9346C19.6258 28.7844 19.6258 28.5841 19.8761 28.5341C19.776 28.434 19.5758 28.484 19.5257 28.3839C19.8761 28.2838 19.9762 27.9834 20.2766 27.7832C20.1264 27.7331 19.5257 27.7331 19.5257 27.5829L19.9762 27.5329L20.1765 27.0823L20.2766 27.0323C20.2766 27.0323 20.1264 26.9822 20.0763 26.9322C20.0263 26.8821 19.8761 26.5817 19.5758 26.4316L19.5257 26.2313C19.6258 26.1813 19.776 26.1813 19.8761 26.1813C20.0263 26.2313 20.0263 26.3314 20.2265 26.3314C20.4768 26.3314 20.6771 26.1813 20.5769 25.931L20.6771 25.7307L20.5269 25.5806L20.5769 25.4304L20.4768 25.3803L20.3266 25.4804C19.826 25.3803 20.5269 25.1801 20.5269 25.13L20.627 25.1801L20.6771 25.13C20.5769 25.0299 20.1264 25.0299 20.3266 24.8297L20.2766 24.6795C20.5769 24.5293 20.5769 25.08 20.8272 24.9798C20.8272 24.8797 20.7772 24.7295 20.7772 24.6795C20.7772 24.7796 20.7772 24.9298 20.7772 25.0299C20.7772 25.3803 20.9274 25.7808 20.7772 26.0811C20.9274 26.3815 20.9774 26.3815 20.9274 26.6819C20.8773 26.8821 20.9274 27.0823 20.8773 27.3326L20.8272 28.5341C20.7772 28.6342 20.7271 28.7844 20.7271 28.8845C20.7271 29.0347 20.7772 29.1348 20.7271 29.2349L20.627 29.1849L20.5769 29.285C20.6771 29.285 20.7271 29.335 20.7271 29.3851H20.7772C20.8773 29.1348 20.8773 28.8845 20.8773 28.5841L21.0775 27.5829L21.1276 26.7319L21.428 25.08C21.3779 24.5293 21.9786 23.7283 21.6282 23.1777C21.7784 23.0275 21.6783 22.7271 21.7283 22.5269L21.8785 21.8261L21.7784 21.8761C21.5281 21.6759 21.5781 21.0251 21.7283 20.7748C21.9786 20.3243 22.1288 20.074 22.2289 19.5233C22.4792 18.9727 22.5293 18.3719 22.4792 17.7712C22.4292 17.3207 22.3791 16.1693 21.6282 16.4697C21.6783 16.6199 21.7784 16.77 21.8284 16.9202C21.8785 17.0704 21.9286 17.4709 21.9786 17.4709H22.1789L22.2289 17.3207C22.4792 17.8713 22.5793 18.3719 22.3791 18.9727H22.2289C22.2289 19.0728 22.2289 19.1228 22.1789 19.1729L22.0287 19.223L21.8785 19.5233H21.8284C21.8785 19.5233 21.8284 19.1729 21.7784 19.0227C21.8785 19.0227 21.9786 18.9727 22.0287 18.9226V18.7724C22.2289 18.6222 22.279 18.5722 22.329 18.3219C22.1288 18.2718 21.8284 18.1216 21.7283 18.422C21.5281 18.422 21.428 18.5221 21.2778 18.6723L21.2277 18.5722L22.0287 17.9715C22.1789 18.0215 22.279 18.0716 22.3791 18.1717C22.3791 17.9214 22.3791 17.7212 22.1288 17.571C21.9286 17.4208 21.5281 17.4208 21.2778 17.3707C21.1276 17.2706 20.9774 17.1204 20.8272 17.0704C20.6771 17.0203 20.5269 17.0203 20.3767 16.9703C20.1264 16.8701 19.776 16.9202 19.5758 16.6699L19.4256 16.9703L19.1252 17.0704L19.1753 16.9703C19.1252 16.8201 18.8249 16.72 18.6747 16.6699C18.3243 16.5197 18.4244 16.5197 18.2742 16.2694C18.2241 16.1693 18.0239 15.9691 17.8737 16.0191C17.6735 16.0191 17.6234 16.2694 17.5233 16.4697C17.3731 16.5197 17.273 16.5197 17.1228 16.4196C17.2229 16.3696 17.3231 16.2694 17.4232 16.2194C17.5233 16.1193 17.5734 15.919 17.6735 15.869C17.9738 15.7188 18.124 16.0692 18.3243 16.1193C18.3743 15.8189 18.4744 15.6187 18.5245 15.3183C18.5746 14.9679 18.6747 14.8678 19.0251 14.7676C19.0752 14.4673 19.1252 14.267 19.1252 13.9667C19.1252 13.7164 19.1753 13.366 19.4256 13.2658C19.6759 13.1157 19.776 13.1657 19.9762 12.8654C20.1264 12.5149 20.2766 12.2146 20.6771 12.1145C20.8272 12.5149 20.1264 12.8153 20.2766 13.2158L20.7772 13.1657L20.6771 13.0155L20.7271 12.9655C20.8773 13.0155 21.0275 13.0656 21.1276 13.0656C21.0775 12.9655 20.9774 12.9154 20.8773 12.8153L21.1276 12.7152V12.4649ZM20.2766 27.0323C20.2766 27.0323 20.5269 27.0823 20.627 27.0323C20.7271 26.9822 20.7271 26.6318 20.627 26.6819C20.5269 26.6819 20.3266 26.8821 20.2766 27.0323ZM20.8272 22.9774L20.9274 23.2277L21.0775 23.3779L21.2277 23.3279L21.1276 23.478H20.9274L20.8272 23.3779L20.7772 23.0776L20.8272 22.9774ZM20.4768 24.1789C20.7772 24.5293 21.0775 24.0788 21.3278 24.0788C21.2277 24.2289 20.9274 24.5794 20.7772 24.3791C20.627 24.5293 20.3767 24.4792 20.3767 24.2289L20.4768 24.1789Z" fill="white"/>
</svg>
