<svg width="41" height="45" viewBox="0 0 41 45" fill="none" xmlns="http://www.w3.org/2000/svg">
<path d="M40.1697 39.9024L39.4803 4.32428L39.7586 4.31438L39.6267 0.553953C25.9837 0.748853 13.0302 0.739473 8.43594 0.49663L1.71502 0L0 44.7092L5.6052 45L5.70317 41.6919L16.4294 41.9118C16.4888 41.9342 16.5665 41.917 16.6296 41.9134C16.7004 41.9087 16.7666 41.8899 16.8375 41.8853C16.8516 41.8842 16.8917 41.8889 16.9005 41.8748C16.9057 41.866 16.899 41.8399 16.8985 41.8295C16.8964 41.7967 16.8964 41.7602 16.8833 41.7294C16.8786 41.7185 16.8698 41.7133 16.863 41.7044C16.8568 41.6961 16.8521 41.6851 16.8453 41.6763C16.8323 41.6596 16.8182 41.6461 16.8026 41.6325C16.7848 41.6169 16.7692 41.6132 16.7484 41.6038C16.7306 41.596 16.7155 41.5866 16.6952 41.5856C16.6775 41.5898 16.6593 41.5804 16.641 41.582C16.6264 41.583 16.6113 41.584 16.5967 41.5851C16.5754 41.5866 16.5576 41.582 16.5368 41.5814C16.5139 41.5809 16.4946 41.5814 16.4717 41.5773C16.4498 41.5731 16.4357 41.5721 16.4201 41.5554C16.4102 41.545 16.4008 41.533 16.3945 41.5194C16.3878 41.5048 16.3825 41.4856 16.3794 41.4699C16.3747 41.447 16.369 41.4225 16.3664 41.399C16.3586 41.3224 16.3601 41.2479 16.3221 41.1786C16.2856 41.1124 16.197 41.1015 16.1626 41.0311C16.1486 41.0025 16.1517 40.9655 16.1496 40.9337C16.148 40.9061 16.1465 40.88 16.1532 40.8529C16.1574 40.8368 16.1678 40.8232 16.173 40.807C16.1783 40.7899 16.1845 40.7742 16.1902 40.757C16.1981 40.7346 16.21 40.7122 16.2199 40.6903C16.2304 40.6674 16.2387 40.6413 16.2528 40.621C16.2721 40.5923 16.2924 40.5652 16.2887 40.5303C16.2856 40.5011 16.2653 40.4704 16.247 40.4464C16.2288 40.4225 16.2194 40.3985 16.2048 40.3724C16.1871 40.3406 16.1736 40.3115 16.1715 40.275C16.1699 40.25 16.1684 40.225 16.1668 40.1994C16.1652 40.1718 16.1611 40.14 16.172 40.1145C16.1788 40.0983 16.1986 40.0848 16.209 40.0707C16.2199 40.0556 16.2293 40.0405 16.2418 40.0264C18.453 40.1009 30.4153 39.9962 40.1697 39.9024Z" fill="white"/>
</svg>
