<svg width="31" height="45" viewBox="0 0 31 45" fill="none" xmlns="http://www.w3.org/2000/svg">
<path d="M29.6369 0C15.5039 0.359 1.3609 0.0120001 1.3709 0.0150001L0.764404 19.263L27.8774 45C27.9239 44.9525 27.9819 44.922 28.0309 44.8775C28.0759 44.837 28.1214 44.819 28.1349 44.755C28.1459 44.7035 28.1464 44.6515 28.0929 44.628C28.0469 44.6075 27.9899 44.6125 27.9524 44.5715C27.9239 44.5395 27.9064 44.4745 27.8954 44.4335C27.8834 44.388 27.9399 44.3015 27.9834 44.282C28.0054 44.272 28.0374 44.2795 28.0609 44.2795C28.1024 44.2795 28.1434 44.279 28.1849 44.2795C28.2089 44.2795 28.2414 44.2885 28.2579 44.2665C28.2714 44.2485 28.2604 44.195 28.2604 44.1735C28.2599 44.119 28.2764 44.072 28.2759 44.0185C28.2754 43.978 28.2759 43.937 28.2759 43.8965C28.2759 43.7645 28.2759 43.632 28.2759 43.5C28.2759 43.454 28.2779 43.4165 28.2569 43.3745C28.2319 43.3245 28.2164 43.27 28.1994 43.2175C28.1829 43.1665 28.1564 43.1165 28.1414 43.0645C28.1284 43.0195 28.1194 42.9435 28.0769 42.915V42.8995C28.0714 42.862 28.0404 42.828 28.0274 42.793C28.0114 42.7485 27.9904 42.6995 27.9694 42.657C27.9404 42.5985 27.8984 42.5485 27.8779 42.4865C27.8524 42.409 27.8004 42.344 27.7739 42.267C27.7489 42.194 27.7159 42.1235 27.6949 42.049C27.6744 41.9765 27.6244 41.8895 27.6709 41.82C27.6954 41.7835 27.7359 41.7665 27.7519 41.7195C27.7664 41.676 27.7544 41.6125 27.7549 41.5665C27.7559 41.491 27.7054 41.422 27.7314 41.3455C27.7489 41.2935 27.7864 41.1675 27.7394 41.1215C27.7044 41.0955 27.6754 41.0645 27.6504 41.0285C27.6319 41.002 27.6049 40.976 27.5929 40.9455C27.5669 40.8795 27.6089 40.817 27.6019 40.75C27.5979 40.7125 27.5809 40.688 27.5554 40.6615C27.5314 40.6365 27.4784 40.6115 27.4644 40.582C27.4519 40.555 27.4629 40.504 27.4629 40.474C27.4629 40.4295 27.4614 40.4045 27.4839 40.364C27.5189 40.301 27.5089 40.2345 27.5089 40.163C27.5089 40.1235 27.5119 40.089 27.4979 40.0515C27.4864 40.021 27.4734 39.9925 27.4664 39.96C27.4524 39.8915 27.4519 39.7845 27.4779 39.7215C27.4984 39.672 27.5179 39.6645 27.5629 39.64C27.6014 39.6185 27.6309 39.589 27.6619 39.5575H27.6774C27.6574 39.5335 27.6539 39.504 27.6319 39.4805C27.6099 39.457 27.5894 39.4305 27.5669 39.4075C27.5164 39.357 27.4664 39.319 27.4259 39.258C27.3964 39.214 27.3794 39.163 27.3479 39.121C27.3284 39.0945 27.3179 39.066 27.3039 39.0355C27.2884 39.0025 27.2869 38.9815 27.2794 38.9475C27.2704 38.905 27.2509 38.8645 27.2479 38.8215C27.2444 38.7685 27.2484 38.714 27.2484 38.6605C27.2484 38.6015 27.2384 38.5485 27.2879 38.5065C27.3104 38.4875 27.3344 38.4835 27.3414 38.454C27.3499 38.419 27.3319 38.381 27.3204 38.3495C27.3059 38.3095 27.2989 38.247 27.3114 38.2045C27.3234 38.1645 27.3459 38.1615 27.3824 38.162C27.4139 38.1625 27.4274 38.158 27.4559 38.147C27.5049 38.128 27.5464 38.1075 27.5849 38.0705C27.6054 38.051 27.6284 38.031 27.6464 38.0095C27.6729 37.978 27.6814 37.942 27.6959 37.905C27.7139 37.859 27.7394 37.7955 27.7989 37.8085C27.8239 37.814 27.8414 37.8345 27.8669 37.8395C27.9009 37.846 27.9104 37.8305 27.9369 37.813C27.9884 37.7795 28.0334 37.745 28.0939 37.7325C28.1579 37.7195 28.2074 37.698 28.2744 37.7015C28.3039 37.703 28.3139 37.711 28.3359 37.732C28.3664 37.7615 28.3729 37.7885 28.3959 37.821C28.4174 37.851 28.4479 37.8555 28.4814 37.855C28.5264 37.8545 28.5354 37.849 28.5554 37.808C28.5669 37.784 28.5834 37.7385 28.6154 37.736C28.6549 37.733 28.6649 37.791 28.6884 37.8105C28.7624 37.8705 28.8099 37.735 28.8879 37.7475H28.9034C28.9734 37.756 29.0554 37.6835 29.1259 37.725C29.1594 37.745 29.1904 37.7885 29.2179 37.8165C29.2564 37.8555 29.3019 37.885 29.3409 37.924C29.3749 37.958 29.3999 37.998 29.4329 38.0315C29.4684 38.0675 29.4689 38.1005 29.4864 38.146C29.5114 38.212 29.5194 38.3155 29.5874 38.3525C29.6189 38.3695 29.6624 38.364 29.6939 38.377C29.7314 38.3925 29.7279 38.456 29.7619 38.4845C29.7954 38.5125 29.8384 38.5255 29.8779 38.5055C29.9209 38.484 29.9404 38.467 29.9924 38.4685C30.0389 38.4695 30.0784 38.4625 30.1189 38.438C30.1619 38.412 30.2009 38.396 30.2474 38.377C30.2914 38.3585 30.3299 38.3215 30.3669 38.292C30.4049 38.262 30.4199 38.224 30.4219 38.1765C30.4269 38.078 30.4059 37.9795 30.4464 37.887C30.4554 37.8665 30.4664 37.842 30.4814 37.825C30.5029 37.8 30.5369 37.7895 30.5519 37.7575C30.5729 37.713 30.5594 37.644 30.5594 37.5945V37.579C30.5549 37.49 30.6479 37.4725 30.6979 37.426C30.7214 37.404 30.7399 37.3875 30.7444 37.3555C30.7484 37.3255 30.7299 37.2795 30.7589 37.257L29.6769 0.865L29.6369 0Z" fill="white"/>
</svg>
