<svg width="42" height="45" viewBox="0 0 42 45" fill="none" xmlns="http://www.w3.org/2000/svg">
<path d="M41.6269 0.209436C41.6294 0.196437 41.6254 0.183438 41.6254 0.170439C41.6254 0.160439 41.6279 0.15144 41.6269 0.140941C41.6254 0.119442 41.6239 0.0929438 41.6269 0.0719452C41.6294 0.0544464 41.6404 0.0309478 41.6389 0.013949C41.6359 -0.017549 41.6014 0.0129492 41.5854 0.0214486C41.5434 0.0444471 41.4939 0.0619459 41.4485 0.0744451C41.388 0.091444 41.3375 0.139441 41.282 0.167939C41.2515 0.183938 41.217 0.193437 41.1875 0.211436C41.1635 0.225935 41.141 0.237934 41.115 0.248434C41.081 0.262433 41.045 0.272432 41.012 0.288931C40.988 0.30093 40.965 0.314929 40.941 0.326928C40.9135 0.340427 40.887 0.352427 40.859 0.364426C40.8395 0.372925 40.8215 0.385925 40.8015 0.393424C40.7865 0.398924 40.771 0.396424 40.7565 0.402923C40.746 0.407423 40.7385 0.419422 40.728 0.423922C40.716 0.429422 40.703 0.428422 40.691 0.433421C40.674 0.440421 40.6575 0.45742 40.637 0.44892L40.6285 0.44742C40.6055 0.474919 40.5685 0.496917 40.537 0.513416C40.491 0.537414 40.4435 0.558913 40.3965 0.581412C40.3635 0.596911 40.3245 0.60541 40.2935 0.623909C40.2675 0.638908 40.245 0.649907 40.217 0.660406C40.185 0.671906 40.156 0.688904 40.1255 0.701404C40.093 0.714903 40.057 0.722402 40.024 0.736901C39.9765 0.7584 39.9291 0.780898 39.8821 0.802897C39.8496 0.818396 39.8141 0.824895 39.7811 0.838894C39.7146 0.867393 39.6451 0.885891 39.5796 0.915889C39.5456 0.931388 39.5141 0.951387 39.4796 0.965886C39.4341 0.984885 39.3921 1.00538 39.3476 1.02688C39.3061 1.04688 39.2681 1.06388 39.2291 1.08788C39.2141 1.09738 39.1981 1.09938 39.1826 1.10588C39.1546 1.11788 39.1266 1.13687 39.1011 1.15287C39.0491 1.18487 38.9911 1.20687 38.9381 1.23787C38.9221 1.24687 38.9066 1.25687 38.8901 1.26537C38.8751 1.27337 38.8536 1.28936 38.8366 1.28936L38.8001 1.29936C38.7461 1.29686 38.6751 1.29936 38.6236 1.31686C38.5791 1.33186 38.5306 1.33386 38.4866 1.35136C38.4547 1.36386 38.4232 1.37586 38.3892 1.38386C38.3317 1.39786 38.2827 1.42836 38.2232 1.43835C38.1862 1.44485 38.1557 1.45685 38.1212 1.46985C38.0777 1.48635 38.0317 1.49885 37.9867 1.51085C37.9647 1.51685 37.9422 1.51785 37.9207 1.52585C37.9057 1.53135 37.8922 1.53835 37.8772 1.54335C37.7812 1.57585 37.6872 1.61334 37.5907 1.64484C37.5687 1.65234 37.5527 1.66634 37.5322 1.67534C37.5117 1.68434 37.4907 1.68684 37.4707 1.69734C37.4267 1.72034 37.3837 1.73734 37.3377 1.75583C37.3102 1.76683 37.2822 1.77483 37.2542 1.78383C37.2192 1.79533 37.1882 1.81483 37.1522 1.82433C37.1162 1.83383 37.0822 1.84833 37.0462 1.85783C37.0297 1.86233 37.0172 1.87183 37.0017 1.87733C36.9862 1.88233 36.9707 1.87633 36.9552 1.87283L36.9453 1.87933C36.9213 1.88783 36.8963 1.88932 36.8733 1.89932C36.8318 1.91782 36.7868 1.92532 36.7443 1.94332C36.6643 1.97732 36.5858 2.01032 36.5043 2.04132C36.4623 2.05731 36.4238 2.08131 36.3818 2.09731C36.3558 2.10731 36.3348 2.12231 36.3108 2.13481C36.2593 2.16231 36.2043 2.18331 36.1518 2.2098C36.1243 2.2238 36.1003 2.2448 36.0743 2.2613C36.0388 2.2838 36.0003 2.3033 35.9633 2.3228C35.8978 2.35679 35.8348 2.39429 35.7738 2.43579C35.7418 2.45779 35.7093 2.47929 35.6778 2.50078C35.6573 2.51478 35.6333 2.52278 35.6133 2.53678C35.6038 2.54378 35.5963 2.55378 35.5863 2.55978C35.5718 2.56878 35.5543 2.57028 35.5388 2.57778C35.5133 2.59028 35.4878 2.61628 35.4569 2.61428L35.4483 2.61278C35.4219 2.62828 35.3929 2.62928 35.3654 2.64178C35.3384 2.65377 35.3129 2.67177 35.2864 2.68477C35.2509 2.70227 35.2159 2.71527 35.1774 2.72427C35.1509 2.73077 35.1294 2.74127 35.1039 2.75077C35.0709 2.76327 35.0424 2.78727 35.0104 2.80376C34.9914 2.81326 34.9704 2.82076 34.9529 2.83326C34.9384 2.84326 34.9289 2.85376 34.9134 2.86276C34.8754 2.88476 34.8394 2.90376 34.8029 2.92826C34.7554 2.96025 34.7109 2.99675 34.6699 3.03675C34.6009 3.10374 34.5229 3.16324 34.4524 3.22924C34.4224 3.25723 34.4099 3.29273 34.3879 3.32723C34.3744 3.34873 34.3444 3.38123 34.3194 3.39073C34.3089 3.39473 34.2854 3.39773 34.2739 3.40073C34.2589 3.40472 34.2439 3.40422 34.2289 3.40872C34.1964 3.41822 34.1639 3.43172 34.1319 3.44222C34.1079 3.45022 34.0879 3.46372 34.0644 3.47422C34.0449 3.48322 33.9984 3.50122 33.9944 3.52722L33.9549 3.55422C33.9364 3.56571 33.9145 3.57071 33.895 3.58121C33.8765 3.59121 33.86 3.60471 33.8405 3.61371C33.818 3.62471 33.794 3.63721 33.7775 3.65671C33.765 3.67171 33.7615 3.69221 33.749 3.7072C33.724 3.7367 33.6905 3.7547 33.653 3.7617C33.629 3.7662 33.6065 3.7667 33.5825 3.7742C33.499 3.8002 33.45 3.87219 33.382 3.92119C33.3315 3.95769 33.2775 3.99019 33.236 4.03618C33.1965 4.08068 33.143 4.10818 33.118 4.16617C33.107 4.19167 33.1025 4.22817 33.0985 4.25617C33.095 4.28267 33.1125 4.30067 33.1115 4.32616C33.11 4.36066 33.0755 4.36566 33.0475 4.37166C33.0225 4.37666 33.0005 4.38366 32.975 4.38666C32.906 4.39566 32.843 4.42566 32.8025 4.48415C32.7935 4.49715 32.789 4.51415 32.78 4.52615C32.772 4.53715 32.76 4.54215 32.75 4.55165C32.723 4.57765 32.7 4.60965 32.6735 4.63664C32.622 4.68964 32.555 4.72614 32.494 4.76763L32.484 4.77413C32.4656 4.79763 32.4326 4.80863 32.4076 4.82613C32.3761 4.84763 32.3451 4.87263 32.3096 4.88763C32.2841 4.89813 32.2576 4.90313 32.2316 4.91463C32.2091 4.92462 32.1896 4.93862 32.1671 4.94962C32.0646 4.99862 31.9731 5.07811 31.9211 5.18061C31.8746 5.2721 31.8116 5.3491 31.7496 5.42959C31.7326 5.45159 31.7146 5.47309 31.6981 5.49559C31.6831 5.51509 31.6621 5.52358 31.6441 5.54008C31.6221 5.56008 31.6091 5.58658 31.5866 5.60658C31.5696 5.62158 31.5371 5.64158 31.5326 5.66508L31.5241 5.66358C31.5056 5.67307 31.4921 5.69207 31.4751 5.70407C31.4616 5.71407 31.4471 5.72257 31.4336 5.73207C31.4091 5.74857 31.3841 5.76457 31.3596 5.78207C31.3241 5.80707 31.3056 5.84956 31.2801 5.88356C31.2556 5.91556 31.2451 5.95006 31.2241 5.98455C31.2086 6.00955 31.1991 6.03455 31.1751 6.05205C31.1636 6.06005 31.1551 6.07055 31.1446 6.07905C31.1301 6.09055 31.1116 6.09705 31.0951 6.10555C31.0631 6.12305 31.0266 6.12954 30.9956 6.14854C30.9606 6.17004 30.9301 6.19204 30.8987 6.21754C30.8357 6.26854 30.7707 6.32603 30.7177 6.38803C30.6952 6.41453 30.6722 6.43452 30.6467 6.45752C30.6227 6.47952 30.6027 6.50502 30.5762 6.52352C30.5587 6.53552 30.5442 6.54652 30.5232 6.55252C30.5107 6.55602 30.4987 6.55802 30.4862 6.56452C30.4607 6.57751 30.4367 6.58751 30.4092 6.59651C30.3607 6.61251 30.3102 6.61951 30.2607 6.63301C30.2167 6.64451 30.1647 6.65101 30.1167 6.65701C30.1027 6.65901 30.0897 6.66551 30.0757 6.66801C30.0627 6.67051 30.0497 6.66851 30.0367 6.66951C30.0112 6.67101 29.9917 6.68551 29.9662 6.67801L29.9182 6.66001C29.8572 6.64851 29.7822 6.62201 29.7207 6.63601C29.6922 6.64251 29.6642 6.65101 29.6357 6.65701C29.6092 6.66301 29.5847 6.67601 29.5577 6.68051C29.4987 6.69101 29.4377 6.69951 29.3798 6.71451C29.3638 6.71851 29.3493 6.72001 29.3328 6.71901C29.3078 6.71751 29.2868 6.72251 29.2628 6.7275C29.2233 6.736 29.1823 6.72951 29.1413 6.734C29.0628 6.7425 28.9813 6.727 28.9028 6.72251C28.8168 6.71751 28.7323 6.71101 28.6473 6.70801C28.6098 6.70651 28.5728 6.71051 28.5353 6.71051C28.5213 6.71051 28.5068 6.70351 28.4933 6.70351C28.4808 6.70401 28.4723 6.70801 28.4593 6.70601C28.4308 6.70201 28.4028 6.70251 28.3748 6.69851C28.3443 6.69401 28.3138 6.68651 28.2838 6.68101L28.2753 6.67951C28.2678 6.66601 28.2443 6.66001 28.2308 6.65401C28.2118 6.64551 28.1928 6.63701 28.1748 6.62651C28.1323 6.60201 28.0948 6.56702 28.0533 6.53952C28.0358 6.52802 28.0258 6.51252 28.0093 6.50002C27.9953 6.48952 27.9803 6.48152 27.9673 6.47002C27.9518 6.45702 27.9428 6.43852 27.9273 6.42653C27.9123 6.41403 27.8958 6.40203 27.8803 6.38953C27.8679 6.37953 27.8524 6.36503 27.8389 6.35753C27.8234 6.34903 27.7999 6.34853 27.7829 6.34553C27.7469 6.33853 27.7114 6.33203 27.6754 6.32503C27.6594 6.32203 27.6434 6.31903 27.6279 6.31603C27.6074 6.31203 27.5914 6.31453 27.5709 6.31403C27.5359 6.31303 27.5054 6.31803 27.4704 6.31153C27.4414 6.33553 27.4039 6.34403 27.3694 6.35453C27.3469 6.36103 27.3259 6.37353 27.3044 6.38303C27.2304 6.41603 27.1679 6.46502 27.0979 6.50502C27.0644 6.52452 27.0284 6.54252 26.9934 6.55952C26.9619 6.57452 26.9374 6.59001 26.9024 6.59801C26.8449 6.61101 26.7894 6.62801 26.7304 6.63351C26.6909 6.63701 26.6529 6.65251 26.6144 6.66151C26.5964 6.66551 26.5774 6.66751 26.5599 6.67151C26.5439 6.67501 26.5274 6.68851 26.5124 6.69501C26.4939 6.70351 26.4744 6.71001 26.4559 6.71851C26.4214 6.734 26.3884 6.753 26.3535 6.768C26.318 6.7835 26.2835 6.805 26.248 6.819C26.218 6.831 26.1855 6.844 26.156 6.8585C26.1255 6.8735 26.104 6.90049 26.0755 6.91899C26.0585 6.92999 26.044 6.94049 26.0295 6.95449C26.0185 6.96499 25.9985 6.97699 25.9915 6.98999L25.99 6.99849C25.9615 7.01799 25.9275 7.03548 25.903 7.05898C25.888 7.07298 25.8775 7.08948 25.861 7.10148C25.8505 7.10898 25.8385 7.11448 25.829 7.12398C25.7825 7.16998 25.742 7.21847 25.682 7.24947C25.6305 7.27597 25.58 7.29847 25.5315 7.33147C25.4675 7.37496 25.4005 7.41046 25.3345 7.45046C25.3075 7.46696 25.287 7.48946 25.257 7.50245C25.2285 7.51445 25.196 7.52295 25.166 7.53245C25.14 7.54045 25.111 7.54695 25.084 7.54895C25.0705 7.54995 25.057 7.54795 25.0435 7.54895C25.0245 7.55045 25.0075 7.55995 24.989 7.56145C24.931 7.56495 24.8711 7.56445 24.8136 7.57445C24.7591 7.58395 24.6961 7.59295 24.6406 7.59045L24.6076 7.58395C24.5501 7.57295 24.4961 7.57695 24.4371 7.57495C24.4111 7.57445 24.3861 7.57195 24.3601 7.57695C24.3326 7.58245 24.3076 7.59545 24.2806 7.60295C24.2211 7.61895 24.1741 7.64744 24.1231 7.68194C24.0966 7.69944 24.0786 7.72244 24.0486 7.73444C24.0211 7.74594 24.0036 7.76394 23.9781 7.77694C23.9356 7.79943 23.8911 7.81193 23.8476 7.83043C23.7896 7.85543 23.7336 7.87943 23.6721 7.89243C23.6301 7.90093 23.5891 7.91393 23.5466 7.92393C23.5266 7.92843 23.5056 7.93143 23.4851 7.93543C23.4626 7.93942 23.4181 7.95292 23.3971 7.94442L23.3886 7.94292C23.3686 7.94842 23.3467 7.95242 23.3277 7.95892C23.3137 7.96342 23.3032 7.97192 23.2887 7.97592C23.2717 7.98042 23.2542 7.97792 23.2372 7.98242C23.2172 7.98742 23.1962 7.99792 23.1772 8.00542C23.1177 8.02942 23.0567 8.05842 22.9932 8.07092C22.9672 8.07592 22.9417 8.08292 22.9152 8.08592C22.8752 8.09092 22.8437 8.08742 22.8047 8.07992C22.7502 8.06942 22.7082 8.06042 22.6732 8.01442C22.6522 7.98692 22.6382 7.95442 22.6097 7.93293C22.5897 7.91793 22.5672 7.91443 22.5437 7.90993C22.5192 7.90543 22.4947 7.90393 22.4752 7.88893C22.4492 7.86893 22.4227 7.84543 22.3997 7.82243C22.3547 7.77694 22.2957 7.74794 22.2562 7.69644C22.2362 7.66994 22.2077 7.65194 22.1882 7.62595C22.1732 7.60595 22.1437 7.56245 22.1147 7.56245L22.1082 7.55245C22.0752 7.52495 22.0642 7.48296 22.0347 7.45396C22.0087 7.42896 21.9812 7.39996 21.9537 7.37646C21.9082 7.33746 21.8518 7.31847 21.7928 7.31147C21.7758 7.30947 21.7598 7.31347 21.7433 7.31097C21.7288 7.30897 21.7143 7.30497 21.6998 7.30247C21.6708 7.29697 21.6418 7.29097 21.6128 7.28547C21.5948 7.28247 21.5843 7.27697 21.5683 7.27047C21.5558 7.26497 21.5418 7.26597 21.5298 7.25947C21.5103 7.24897 21.4923 7.21447 21.4698 7.21547L21.4613 7.21397C21.4273 7.18898 21.4033 7.15548 21.3753 7.12398C21.3658 7.11348 21.3578 7.09748 21.3463 7.08998C21.3358 7.08348 21.3203 7.08348 21.3088 7.08148C21.2593 7.07248 21.2018 7.05198 21.1513 7.05298C21.0883 7.05448 21.0198 7.05498 20.9578 7.06548C20.9023 7.07498 20.8453 7.07798 20.7898 7.09098C20.7318 7.10498 20.6773 7.12148 20.6243 7.14948C20.5948 7.16498 20.5768 7.17098 20.5443 7.16648C20.5093 7.16148 20.5023 7.14498 20.4748 7.12498C20.3763 7.05448 20.2504 7.04148 20.1344 7.01899L20.1259 7.01749C20.0959 7.01149 20.0729 7.01099 20.0429 7.01249C20.0119 7.01399 20.0034 7.02899 19.9829 7.04998C19.9599 7.07298 19.9424 7.09648 19.9269 7.12498C19.9094 7.15698 19.9054 7.18697 19.8749 7.20947C19.8604 7.21997 19.8484 7.23597 19.8339 7.24547C19.8199 7.25447 19.8029 7.25547 19.7879 7.26147C19.7594 7.27247 19.7314 7.28597 19.7034 7.29747C19.6779 7.30797 19.6509 7.30997 19.6234 7.31447C19.5989 7.31847 19.5644 7.31947 19.5399 7.31797C19.5259 7.31697 19.5114 7.31147 19.4969 7.30947C19.4789 7.30697 19.4629 7.31047 19.4454 7.30897C19.4189 7.30697 19.3934 7.29547 19.3669 7.29547C19.3389 7.29497 19.3019 7.29997 19.2799 7.31997C19.2579 7.33997 19.2494 7.38096 19.2364 7.40646C19.2254 7.42746 19.2119 7.44696 19.2009 7.46796C19.1874 7.49445 19.1634 7.50195 19.1449 7.52545C19.1329 7.53995 19.1254 7.55895 19.1109 7.57095C19.1014 7.57895 19.0904 7.58445 19.0809 7.59245C19.0484 7.61995 19.0049 7.64095 18.9609 7.63595L18.9524 7.63445C18.9294 7.63045 18.9109 7.61995 18.8879 7.61345C18.8634 7.60645 18.8389 7.59795 18.817 7.58495C18.787 7.56695 18.7725 7.54195 18.766 7.50845C18.7575 7.46396 18.754 7.42546 18.734 7.38446C18.7265 7.36946 18.717 7.35446 18.71 7.33946C18.703 7.32297 18.7015 7.30697 18.69 7.29247C18.67 7.26697 18.554 7.12698 18.522 7.19447C18.516 7.20697 18.516 7.22397 18.5135 7.23797C18.5105 7.25597 18.5045 7.26747 18.498 7.28397C18.491 7.30197 18.494 7.31697 18.4775 7.32947C18.4695 7.33546 18.4465 7.34546 18.437 7.34696C18.4125 7.35046 18.374 7.33547 18.3495 7.33047C18.322 7.32497 18.2945 7.31947 18.267 7.31497C18.231 7.30897 18.2225 7.28397 18.196 7.26297C18.173 7.24497 18.16 7.21897 18.138 7.20047C18.1185 7.18348 18.0715 7.17948 18.05 7.19197C18.0185 7.20997 18.017 7.22947 18.011 7.26247C18.008 7.27797 18.0105 7.29847 17.993 7.30397C17.983 7.30697 17.966 7.29997 17.956 7.29797C17.9275 7.29197 17.8985 7.28697 17.87 7.28147C17.807 7.26947 17.7445 7.25747 17.682 7.24547C17.6495 7.23947 17.6165 7.23347 17.584 7.22697C17.5595 7.22197 17.528 7.23147 17.507 7.21947C17.557 7.13748 17.6615 7.09248 17.7475 7.06048C17.792 7.04398 17.839 7.01599 17.8875 7.01199C17.926 7.00899 17.974 7.02699 18.012 7.03448L18.03 7.02948C18.046 7.01849 18.0655 7.02349 18.0835 7.02099C18.1025 7.01799 18.1195 7.00799 18.1385 7.00299C18.174 6.99299 18.2105 6.97999 18.2465 6.97499C18.2845 6.96999 18.316 6.94599 18.3485 6.92549C18.3765 6.90749 18.41 6.89349 18.4435 6.88999C18.488 6.88549 18.529 6.877 18.573 6.88499C18.6065 6.89099 18.6285 6.871 18.655 6.8515C18.677 6.835 18.7015 6.814 18.719 6.793C18.744 6.7635 18.768 6.749 18.8049 6.7445C18.8264 6.742 18.8469 6.74 18.8684 6.7375C18.9214 6.731 18.9744 6.7305 19.0274 6.72701C19.0484 6.72551 19.0689 6.72101 19.0894 6.71751C19.1169 6.71251 19.1469 6.70051 19.1739 6.70001C19.2009 6.69951 19.2254 6.69051 19.2519 6.68851C19.2819 6.68601 19.3124 6.68051 19.3424 6.67501C19.3989 6.66501 19.4524 6.63951 19.5079 6.62451C19.5409 6.61551 19.5779 6.61051 19.6069 6.59151C19.6254 6.57951 19.6319 6.57751 19.6539 6.57452C19.6684 6.57252 19.6799 6.56752 19.6909 6.55802L19.7009 6.55152C19.7229 6.53602 19.7689 6.55852 19.7934 6.56102C19.8189 6.56402 19.8464 6.56202 19.8714 6.55852C19.9274 6.55052 19.9774 6.52902 20.0279 6.50452C20.0549 6.49152 20.0844 6.48552 20.1099 6.46952C20.1344 6.45352 20.1624 6.42303 20.1939 6.42303C20.2344 6.42353 20.2689 6.45052 20.3099 6.45402C20.3453 6.45702 20.3778 6.44652 20.4088 6.43002C20.4293 6.41903 20.4648 6.40053 20.4813 6.38353C20.4963 6.36753 20.4928 6.35453 20.5178 6.35553C20.5538 6.35703 20.5888 6.37153 20.6213 6.38403C20.6368 6.39003 20.6543 6.38853 20.6698 6.39353C20.6838 6.39803 20.6978 6.40503 20.7113 6.41053C20.7423 6.42253 20.7733 6.43202 20.8028 6.44752C20.8328 6.46352 20.8658 6.48452 20.9008 6.47502C20.9803 6.45402 20.9768 6.34653 20.9893 6.28103C20.9958 6.24604 21.0068 6.20954 21.0103 6.17404C21.0123 6.15404 21.0058 6.13454 21.0058 6.11455C21.0063 6.09805 21.0138 6.08355 21.0083 6.06805C20.9933 6.02405 20.9393 6.04105 20.9053 6.03555C20.8773 6.03105 20.8453 6.02705 20.8188 6.01905C20.7978 6.01255 20.7803 6.00305 20.7578 5.99855C20.7403 5.99505 20.7293 5.98505 20.7118 5.98055C20.6823 5.97306 20.6513 5.96456 20.6228 5.97755C20.5998 5.98805 20.5793 5.99005 20.5553 5.99755C20.5308 6.00555 20.5123 6.02505 20.4878 6.03055C20.4443 6.04055 20.4018 6.05005 20.3568 6.04105L20.3294 6.01105C20.2889 6.01205 20.2454 5.92556 20.2224 5.89356C20.1989 5.86106 20.1804 5.81007 20.1409 5.79557C20.0879 5.77607 20.0654 5.82007 20.0234 5.84006C19.9924 5.85506 19.9454 5.84706 19.9139 5.83256C19.9069 5.78357 19.9449 5.73857 19.9759 5.70657C20.0064 5.67557 20.0154 5.64658 20.0199 5.60408C20.0309 5.50259 19.9384 5.48359 19.8584 5.46809C19.8229 5.46109 19.7709 5.44159 19.7354 5.44309C19.6999 5.44459 19.6514 5.47959 19.6339 5.51359C19.6184 5.54308 19.6114 5.60558 19.6084 5.63808C19.6039 5.69057 19.6084 5.74457 19.6364 5.78907C19.6609 5.82806 19.6719 5.88356 19.6514 5.92906C19.6329 5.97005 19.5684 5.99805 19.5309 6.02305C19.4824 6.05505 19.4594 6.09455 19.4269 6.14154C19.4019 6.17754 19.3954 6.21104 19.3764 6.24754C19.3654 6.26904 19.3374 6.28403 19.3224 6.30303C19.3124 6.31553 19.3064 6.33153 19.2964 6.34453C19.2609 6.39053 19.2369 6.39153 19.1869 6.40903C19.1464 6.42303 19.1064 6.43402 19.0639 6.44252C19.0219 6.45052 18.9614 6.46652 18.9199 6.45102L18.8859 6.46052C18.8399 6.45152 18.789 6.44802 18.7455 6.43052C18.688 6.40703 18.6745 6.34603 18.6165 6.32703C18.524 6.29703 18.415 6.30753 18.324 6.27304C18.278 6.25554 18.233 6.22254 18.193 6.19404C18.17 6.17754 18.1575 6.16254 18.14 6.14054C18.1275 6.12454 18.0975 6.10055 18.092 6.08305C18.0845 6.06055 18.096 6.04055 18.095 6.01755C18.0945 5.99955 18.0875 5.97706 18.084 5.95906C18.075 5.91456 18.0755 5.85856 18.057 5.81757C18.0375 5.77307 17.9935 5.73707 17.9615 5.70257C17.924 5.66208 17.886 5.63408 17.837 5.60958C17.7585 5.57108 17.6715 5.57108 17.595 5.52309C17.512 5.47109 17.434 5.41559 17.3605 5.3511C17.3345 5.3281 17.3066 5.3131 17.2791 5.2931C17.2556 5.2761 17.2396 5.2536 17.2141 5.2391C17.1521 5.20411 17.1026 5.18261 17.0331 5.16861L17.0176 5.16561C17.0031 5.14361 16.9261 5.12111 16.9006 5.11211C16.8631 5.09911 16.8216 5.09561 16.7826 5.08811C16.7346 5.07911 16.6946 5.07061 16.6476 5.07461C16.6036 5.07811 16.5596 5.07711 16.5156 5.08111C16.4726 5.08511 16.4566 5.09961 16.4406 5.13911C16.4301 5.16561 16.4231 5.2186 16.3916 5.2331C16.3701 5.2431 16.3176 5.2296 16.2956 5.2216C16.2586 5.20811 16.2341 5.18811 16.2321 5.14811C16.2286 5.08461 16.2841 5.01562 16.2211 4.97212C16.1586 4.92862 16.0886 4.90163 16.0391 4.84063C16.0126 4.80813 15.9876 4.78063 15.9571 4.75214C15.9271 4.72464 15.9106 4.68764 15.8836 4.65714C15.8371 4.60515 15.7912 4.53565 15.7212 4.51265L15.7087 4.49415C15.6362 4.38466 15.5887 4.24017 15.4772 4.16168C15.3972 4.10568 15.2682 4.10218 15.1742 4.08468C15.1587 4.08168 15.1267 4.06818 15.1117 4.07068C15.0872 4.07518 15.0742 4.09568 15.0557 4.11068C15.0112 4.14668 14.9627 4.22217 14.9022 4.23667C14.8602 4.24667 14.7912 4.23017 14.7777 4.18767C14.7717 4.16917 14.7677 4.13468 14.7672 4.11568C14.7667 4.09168 14.7812 4.06568 14.7712 4.04568C14.7247 4.05268 14.6832 4.07768 14.6362 4.08418C14.5922 4.08968 14.5482 4.09168 14.5042 4.09818C14.4612 4.10468 14.4232 4.10768 14.3817 4.11768C14.3627 4.12218 14.3452 4.11818 14.3262 4.12018C14.3052 4.12268 14.2847 4.13368 14.2633 4.13368C14.2503 4.13368 14.2263 4.12568 14.2133 4.12868C14.1888 4.13468 14.1608 4.16267 14.1383 4.17417C14.0988 4.19517 14.0653 4.22367 14.0228 4.24417C13.9813 4.26417 13.9438 4.28667 13.9043 4.31017C13.8678 4.33166 13.8093 4.37066 13.7678 4.34666C13.7808 4.27067 13.8903 4.25267 13.9393 4.21267C13.9658 4.19117 13.9718 4.15768 13.9463 4.13318C13.9273 4.11468 13.8988 4.11518 13.8738 4.11068C13.8268 4.10168 13.7038 4.08618 13.7003 4.02118C13.6993 4.00369 13.7303 3.95069 13.7473 3.94319C13.7618 3.93669 13.8113 3.93719 13.8273 3.93819C13.8463 3.91069 13.8468 3.8502 13.8533 3.8162L1.26861 3.23674L0.456665 35.8146C0.486663 35.8141 0.527661 35.7641 0.549159 35.7436C0.576657 35.7176 0.607655 35.6946 0.636153 35.6696C0.67965 35.6306 0.722148 35.5896 0.767145 35.5521C0.803142 35.5221 0.84114 35.5001 0.880137 35.4746C0.959132 35.4231 1.04013 35.3521 1.13812 35.3426C1.17862 35.3386 1.21961 35.3486 1.25461 35.3681C1.27761 35.3811 1.29361 35.3866 1.30861 35.4101C1.32311 35.4326 1.32711 35.4446 1.34511 35.4656C1.4046 35.5351 1.4536 35.6081 1.52459 35.6676C1.58309 35.7166 1.64409 35.7616 1.70758 35.8026C1.83707 35.8851 1.97756 35.9801 2.13055 36.0091L2.21155 36.0501C2.22055 36.0756 2.25355 36.0871 2.27155 36.1056C2.29454 36.1286 2.31354 36.1451 2.34554 36.1526C2.40354 36.1666 2.46753 36.1591 2.52403 36.1416C2.59252 36.1206 2.65752 36.0961 2.72551 36.0771C2.75451 36.0691 2.76851 36.0526 2.79251 36.0346C2.81701 36.0161 2.84551 36.0031 2.87101 35.9856C2.9195 35.9526 2.9665 35.9246 3.0195 35.9006C3.05049 35.8866 3.08199 35.8871 3.11299 35.8731C3.17199 35.8466 3.20898 35.8441 3.27248 35.8601C3.29548 35.8661 3.29648 35.8711 3.31498 35.8866C3.33147 35.9001 3.34947 35.9006 3.36947 35.9046C3.41847 35.9136 3.45697 35.9141 3.50546 35.9061C3.56196 35.8971 3.60996 35.8736 3.66045 35.8471C3.71095 35.8206 3.73895 35.7786 3.80244 35.7841C3.83294 35.7871 3.87894 35.7931 3.90144 35.8151C3.91944 35.8326 3.92844 35.8626 3.94143 35.8841C3.95443 35.9061 3.97093 35.9246 3.98593 35.9451C4.01093 35.9786 4.01593 36.0226 4.02793 36.0626C4.03943 36.1026 4.04993 36.1431 4.06193 36.1821C4.07493 36.2236 4.10042 36.2591 4.12292 36.2956C4.13792 36.3205 4.14542 36.348 4.16292 36.3725C4.17892 36.3945 4.19792 36.4055 4.21942 36.422C4.24991 36.4455 4.28341 36.463 4.31791 36.4825C4.33941 36.4945 4.35741 36.497 4.38091 36.5035C4.4019 36.509 4.4174 36.522 4.4384 36.528C4.4814 36.5405 4.5294 36.545 4.57389 36.5535L4.57639 36.5415C4.61239 36.5525 4.64639 36.5795 4.67989 36.596C4.71938 36.616 4.75588 36.627 4.79888 36.6345C4.87337 36.648 4.93737 36.687 5.01186 36.7005C5.04236 36.706 5.08486 36.707 5.11236 36.719C5.14535 36.733 5.16885 36.769 5.18535 36.8C5.19685 36.822 5.21335 36.845 5.22385 36.867C5.23185 36.8845 5.23235 36.9035 5.23785 36.922C5.25035 36.9605 5.26485 36.996 5.27435 37.0355C5.29584 37.125 5.31634 37.224 5.32434 37.316C5.32734 37.349 5.32884 37.3825 5.33484 37.415C5.34034 37.447 5.35734 37.473 5.36334 37.505C5.37234 37.5545 5.39084 37.5895 5.40484 37.637C5.41234 37.662 5.41634 37.684 5.42934 37.7065C5.43834 37.722 5.45134 37.7345 5.45883 37.7515C5.48083 37.8025 5.50383 37.8614 5.53983 37.9049C5.57033 37.9419 5.60732 37.9734 5.63682 38.0114L5.65132 38.0014C5.68082 38.0459 5.71832 38.0849 5.75381 38.1249C5.79131 38.1669 5.82481 38.2224 5.85331 38.2709C5.87881 38.3144 5.88531 38.3649 5.88831 38.4144C5.89031 38.4399 5.89631 38.4659 5.89631 38.4914C5.89631 38.5129 5.88881 38.5324 5.88931 38.5539C5.88981 38.6004 5.89981 38.6479 5.89831 38.6949C5.89731 38.7374 5.89131 38.7764 5.88631 38.8189C5.88281 38.8449 5.88881 38.8704 5.88531 38.8964C5.88231 38.9219 5.87481 38.9474 5.87031 38.9724C5.86181 39.0159 5.85331 39.0599 5.84531 39.1034C5.83581 39.1519 5.82181 39.2009 5.82331 39.2499C5.82431 39.2804 5.81281 39.3234 5.82431 39.3523C5.83331 39.3753 5.85831 39.4038 5.87181 39.4258C5.88381 39.4448 5.8943 39.4538 5.9118 39.4678C5.9448 39.4953 5.9728 39.5238 6.0098 39.5498C6.0508 39.5783 6.10129 39.6083 6.14779 39.6278C6.18129 39.6418 6.22128 39.6443 6.25678 39.6513C6.34328 39.6678 6.42977 39.6843 6.51626 39.7008L6.52826 39.7033C6.55476 39.7093 6.57626 39.7078 6.60326 39.7078C6.63426 39.7073 6.66275 39.7218 6.69325 39.7228C6.71925 39.7238 6.73875 39.7188 6.76525 39.7228C6.78975 39.7263 6.81424 39.7323 6.83874 39.7373C6.89574 39.7483 6.95824 39.7513 7.00773 39.7823C7.05223 39.8103 7.09623 39.8463 7.14372 39.8693C7.19122 39.8923 7.23622 39.9213 7.28371 39.9463C7.32171 39.9663 7.35921 39.9773 7.39821 39.9938C7.4202 40.0033 7.4422 40.0153 7.4647 40.0228C7.4902 40.0318 7.5197 40.0283 7.5452 40.0368C7.59319 40.0528 7.63619 40.0808 7.68619 40.0898C7.78668 40.1078 7.88667 40.1283 7.98717 40.1478C8.00567 40.1513 8.02866 40.1598 8.04766 40.1598C8.06366 40.1598 8.07616 40.1543 8.09216 40.1543C8.11916 40.1543 8.14516 40.1678 8.17315 40.1678C8.19515 40.1678 8.21965 40.1648 8.24065 40.1593C8.27065 40.1508 8.30265 40.1373 8.33364 40.1283C8.35564 40.1218 8.36964 40.1098 8.39064 40.1013C8.43414 40.0833 8.48163 40.0763 8.52563 40.0613C8.61213 40.0313 8.70412 40.0318 8.79411 40.0493L8.79661 40.0373C8.85311 39.9913 8.9711 40.0328 9.0351 40.0448C9.10359 40.0578 9.17159 40.0708 9.24008 40.0843C9.32708 40.1008 9.41557 40.1238 9.49657 40.1558C9.52506 40.1673 9.55206 40.1718 9.57956 40.1843C9.60706 40.1973 9.63656 40.2073 9.66506 40.2193C9.68055 40.2258 9.69505 40.2343 9.71055 40.2408C9.72605 40.2473 9.75505 40.2528 9.76805 40.2633C9.79305 40.2833 9.80705 40.3368 9.81805 40.3668C9.83255 40.4058 9.84104 40.4483 9.85054 40.4893C9.85954 40.5288 9.87304 40.5643 9.88254 40.6033C9.89304 40.6468 9.89204 40.6993 9.92054 40.7353C9.94104 40.7618 9.97953 40.7903 10.005 40.8118C10.0125 40.8143 10.02 40.8168 10.027 40.8198C10.0335 40.8287 10.041 40.8378 10.049 40.8457C10.0675 40.8632 10.092 40.8713 10.109 40.8902C10.132 40.9157 10.1605 40.9757 10.2005 40.9777L10.198 40.9897C10.229 40.9932 10.281 41.0357 10.305 41.0532C10.331 41.0717 10.356 41.0887 10.3775 41.1127C10.405 41.1437 10.4295 41.1752 10.4585 41.2047C10.4805 41.2272 10.493 41.2622 10.508 41.2897C10.5385 41.3447 10.548 41.4132 10.574 41.4702C10.59 41.5047 10.604 41.5397 10.616 41.5757C10.6275 41.6107 10.6475 41.6392 10.669 41.6697C10.7015 41.7157 10.757 41.7252 10.8105 41.7217C10.854 41.7192 10.899 41.7287 10.9425 41.7287C11.003 41.7287 11.0655 41.7057 11.1275 41.7122C11.1675 41.7162 11.209 41.7287 11.2485 41.7362C11.3054 41.7467 11.3399 41.7767 11.3909 41.8032C11.4339 41.8252 11.4809 41.8767 11.5349 41.8657C11.5609 41.8602 11.5944 41.8367 11.6199 41.8267C11.6499 41.8152 11.6734 41.7967 11.7039 41.7867C11.7659 41.7657 11.8264 41.7237 11.8854 41.6932C11.9264 41.6722 11.9519 41.6097 11.9624 41.5657C11.9689 41.5392 11.9829 41.5192 11.9894 41.4932C11.9944 41.4727 11.9969 41.4512 12.0009 41.4307C12.0104 41.3812 12.0199 41.3322 12.0294 41.2827C12.0414 41.2192 12.0524 41.1797 12.1169 41.1577C12.2054 41.1277 12.3029 41.1142 12.3944 41.1322C12.4939 41.1517 12.5939 41.1702 12.6934 41.1897L12.7424 41.1992C12.8058 41.1552 12.8713 41.1217 12.9298 41.0692C12.9663 41.0367 13.0258 41.0182 13.0773 41.0222C13.1173 41.0252 13.1643 41.0367 13.2028 41.0462C13.2208 41.0507 13.2313 41.0612 13.2478 41.0682C13.2728 41.0792 13.2958 41.0817 13.3198 41.0977C13.3868 41.1417 13.4418 41.2027 13.4978 41.2612C13.5353 41.3002 13.5623 41.3367 13.6083 41.3652C13.6488 41.3902 13.6758 41.4397 13.7183 41.4607C13.7578 41.4802 13.8208 41.4822 13.8638 41.4907C13.8983 41.4972 13.9403 41.5127 13.9753 41.5127C13.9968 41.5127 14.0143 41.5072 14.0368 41.5107C14.0633 41.5152 14.0873 41.5222 14.1138 41.5232C14.1468 41.5247 14.1803 41.5292 14.2133 41.5297C14.2393 41.5302 14.2648 41.5222 14.2907 41.5232C14.3182 41.5242 14.3417 41.5327 14.3702 41.5312C14.3887 41.5302 14.4032 41.5312 14.4212 41.5347C14.4607 41.5417 14.4997 41.5502 14.5392 41.5577C14.5877 41.5667 14.6277 41.5802 14.6612 41.6187C14.6942 41.6567 14.7152 41.7117 14.7447 41.7547C14.7632 41.7812 14.7787 41.8072 14.7937 41.8352C14.8062 41.8592 14.8237 41.8727 14.8402 41.8942C14.8702 41.9337 14.8822 41.9862 14.9087 42.0282C14.9377 42.0742 14.9517 42.1552 15.0087 42.1692C15.0452 42.1782 15.0777 42.1772 15.1147 42.1757L15.1247 42.1902C15.1492 42.1967 15.2112 42.1442 15.2362 42.1327C15.2787 42.1127 15.3157 42.0972 15.3537 42.0692C15.4182 42.0222 15.4977 41.9742 15.5822 41.9857C15.6512 41.9952 15.7267 42.0087 15.7882 42.0357C15.8441 42.0602 15.9171 42.0722 15.9666 42.1102C15.9971 42.1342 16.0266 42.1537 16.0551 42.1792C16.0816 42.2027 16.1136 42.2022 16.1476 42.2087C16.1786 42.2147 16.2056 42.2152 16.2356 42.2157C16.2711 42.2162 16.3021 42.2257 16.3386 42.2232C16.4231 42.2182 16.5071 42.2122 16.5916 42.2082C16.6706 42.2042 16.7176 42.1877 16.7721 42.1287C16.8511 42.0427 16.9121 41.9497 16.9521 41.8422C16.9596 41.8222 16.9596 41.8017 16.9646 41.7812C16.9686 41.7627 16.9781 41.7492 16.9841 41.7322C16.9931 41.7077 16.9966 41.6822 17.0016 41.6562C17.0056 41.6362 17.0066 41.6117 17.0131 41.5922C17.0221 41.5657 17.0356 41.5472 17.0406 41.5182C17.0491 41.4682 17.0666 41.4162 17.1046 41.3817C17.1461 41.3442 17.1981 41.3432 17.2506 41.3342C17.3021 41.3257 17.355 41.3242 17.408 41.3192C17.4375 41.3167 17.458 41.3182 17.486 41.3067C17.521 41.2927 17.544 41.2742 17.573 41.2522C17.624 41.2137 17.6615 41.1807 17.696 41.1242C17.7275 41.0727 17.748 41.0142 17.7915 40.9712C17.881 40.8832 17.9945 40.8203 18.1235 40.8258L18.1355 40.8283C18.1795 40.8208 18.2185 40.8218 18.2625 40.8208C18.295 40.8203 18.339 40.8388 18.3695 40.8283C18.4225 40.8103 18.456 40.7478 18.4935 40.7118C18.5175 40.6888 18.533 40.6563 18.5585 40.6368C18.5855 40.6163 18.6105 40.5918 18.64 40.5763C18.669 40.5608 18.699 40.5568 18.729 40.5448C18.7555 40.5343 18.775 40.5193 18.8 40.5063C18.8519 40.4783 18.9214 40.4698 18.9794 40.4583C19.0394 40.4463 19.1069 40.4293 19.1689 40.4323C19.2169 40.4348 19.2679 40.4493 19.3104 40.4683C19.3349 40.4793 19.3474 40.4828 19.3634 40.5063C19.3794 40.5303 19.3949 40.5583 19.4044 40.5858C19.4224 40.6398 19.4204 40.7003 19.4264 40.7558C19.4314 40.7998 19.4329 40.8433 19.4304 40.8862C19.4274 40.9402 19.4359 40.9952 19.4439 41.0482C19.4484 41.0757 19.4454 41.1032 19.4504 41.1307C19.4544 41.1542 19.4539 41.1762 19.4589 41.1987C19.4659 41.2297 19.4764 41.2607 19.4799 41.2917C19.4824 41.3152 19.4814 41.3377 19.4864 41.3607C19.4929 41.3877 19.4974 41.4122 19.4984 41.4407C19.4994 41.4722 19.5034 41.5017 19.5069 41.5327C19.5174 41.6367 19.5369 41.7452 19.5594 41.8482C19.5739 41.9152 19.5889 41.9817 19.6039 42.0482C19.6099 42.0747 19.6124 42.1007 19.6179 42.1272C19.6254 42.1652 19.6449 42.1962 19.6574 42.2317C19.6799 42.2962 19.7164 42.3562 19.7444 42.4196C19.7669 42.4706 19.8344 42.5451 19.8104 42.6066L19.8569 42.6281C19.8444 42.6846 19.8524 42.7396 19.9059 42.7681C19.9494 42.7911 20.0009 42.7951 20.0489 42.8046C20.1319 42.8206 20.2154 42.8341 20.2979 42.8521C20.3503 42.8636 20.3978 42.8921 20.4483 42.9071C20.4963 42.9211 20.5498 42.9261 20.5993 42.9356C20.6508 42.9456 20.6918 42.9601 20.7403 42.9786C20.7863 42.9961 20.8218 43.0156 20.8703 43.0256C20.8853 43.0566 20.9603 43.0546 20.9908 43.0611C21.0288 43.0691 21.0638 43.0871 21.0943 43.1101C21.1768 43.1711 21.2333 43.2516 21.2918 43.3346C21.3533 43.4216 21.4273 43.5021 21.5113 43.5676C21.5493 43.5971 21.5858 43.6261 21.6253 43.6521C21.6543 43.6716 21.6833 43.6981 21.7068 43.7251C21.7208 43.7411 21.7418 43.7536 21.7538 43.7706C21.7683 43.7911 21.7673 43.8211 21.7773 43.8441C21.7953 43.886 21.8098 43.927 21.8262 43.9695C21.8567 44.0465 21.8832 44.1245 21.9112 44.2015C21.9412 44.2845 21.9607 44.3715 21.9897 44.455C22.0032 44.494 22.0157 44.535 22.0267 44.575C22.0372 44.6145 22.0592 44.656 22.0567 44.698C22.0927 44.76 22.1142 44.837 22.1732 44.8825C22.2042 44.9065 22.2412 44.9185 22.2742 44.939C22.3012 44.956 22.3147 44.975 22.3472 44.982C22.3742 44.988 22.4022 44.9935 22.4297 44.998C22.4642 45.0035 22.4862 44.9965 22.5192 44.9925C22.5492 44.989 22.5712 44.9925 22.5997 44.981C22.6327 44.968 22.6612 44.947 22.6902 44.9275C22.7162 44.91 22.7427 44.8945 22.7692 44.8785C22.7977 44.861 22.8212 44.837 22.8497 44.819C22.9007 44.787 22.9547 44.7625 23.0037 44.726C23.0362 44.7015 23.0667 44.678 23.1027 44.6585C23.1357 44.64 23.1617 44.6235 23.1927 44.6025C23.2227 44.582 23.2542 44.5705 23.2892 44.564C23.3167 44.559 23.3477 44.5475 23.3757 44.5585L23.3876 44.561C23.4116 44.545 23.4406 44.561 23.4666 44.5605C23.4946 44.56 23.5251 44.558 23.5536 44.555C23.5811 44.5525 23.6171 44.545 23.6436 44.5345C23.6766 44.521 23.6946 44.4905 23.7246 44.4725C23.7396 44.4635 23.7556 44.4615 23.7696 44.45C23.7776 44.4435 23.7806 44.435 23.7891 44.4285C23.8081 44.4145 23.8416 44.4 23.8651 44.395C23.9211 44.383 23.9936 44.4105 24.0491 44.4215C24.1486 44.4405 24.2476 44.4595 24.3471 44.4785C24.3911 44.487 24.4346 44.4955 24.4786 44.5035C24.5016 44.508 24.5286 44.518 24.5521 44.519C24.5876 44.5205 24.5936 44.4985 24.6191 44.4795C24.6341 44.4685 24.6526 44.465 24.6671 44.4515C24.6781 44.441 24.6856 44.429 24.6966 44.4185C24.7216 44.3945 24.7356 44.3845 24.7491 44.3525C24.7676 44.31 24.7971 44.2685 24.8086 44.2245C24.8201 44.1805 24.8261 44.134 24.8341 44.089C24.8431 44.039 24.8721 43.989 24.9045 43.95C24.946 43.9005 24.988 43.856 25.02 43.7986C25.043 43.7576 25.046 43.7091 25.055 43.6631C25.0725 43.5726 25.0895 43.4821 25.107 43.3916C25.126 43.2926 25.145 43.1941 25.164 43.0951C25.1715 43.0551 25.173 43.0071 25.1875 42.9696C25.1945 42.9511 25.2055 42.9396 25.2105 42.9206C25.2145 42.9046 25.2165 42.8876 25.2195 42.8716L25.222 42.8596C25.2315 42.8086 25.258 42.7616 25.284 42.7161C25.317 42.6581 25.3665 42.6361 25.429 42.6241C25.5235 42.6051 25.623 42.6121 25.72 42.6021C25.7665 42.5971 25.8135 42.5741 25.8615 42.5761C25.9055 42.5781 25.949 42.5876 25.993 42.5901C26.0465 42.5931 26.097 42.5821 26.147 42.5626C26.1995 42.5421 26.2145 42.4941 26.2415 42.4496C26.289 42.3706 26.303 42.2777 26.3015 42.1862C26.3 42.0872 26.2565 41.9802 26.205 41.8947C26.175 41.8447 26.1585 41.7967 26.139 41.7422C26.123 41.6987 26.1235 41.6572 26.1325 41.6132C26.141 41.5712 26.1435 41.5212 26.1575 41.4807C26.1695 41.4452 26.183 41.4172 26.19 41.3797C26.2075 41.2877 26.227 41.1962 26.243 41.1042C26.25 41.0647 26.245 41.0222 26.2425 40.9827C26.2395 40.9322 26.2345 40.8757 26.2065 40.8313L26.179 40.7753C26.1925 40.7353 26.168 40.6738 26.158 40.6343C26.1465 40.5888 26.1285 40.5583 26.101 40.5193C26.0745 40.4813 26.032 40.4548 26.0015 40.4183C25.967 40.3773 25.944 40.3383 25.945 40.2823C25.946 40.2113 25.99 40.1568 26.0265 40.0998C26.052 40.0598 26.0855 40.0228 26.1205 39.9913C26.1555 39.9598 26.183 39.9248 26.215 39.8918C26.25 39.8558 26.3 39.8203 26.3425 39.7928C26.3785 39.7693 26.4224 39.7628 26.4549 39.7358C26.5194 39.6818 26.5704 39.6323 26.6154 39.5608C26.6479 39.5093 26.6514 39.4388 26.6629 39.3788C26.6709 39.3364 26.6789 39.2939 26.6874 39.2514C26.6954 39.2119 26.6874 39.1704 26.6869 39.1299C26.6854 39.0524 26.6579 38.9794 26.6529 38.9014C26.6484 38.8314 26.6674 38.7614 26.6809 38.6914L26.6834 38.6794C26.6954 38.6444 26.7339 38.6054 26.7594 38.5799C26.7924 38.5469 26.8219 38.5094 26.8564 38.4779C26.8909 38.4464 26.9364 38.4364 26.9709 38.4049C27.0084 38.3704 27.0314 38.3304 27.0544 38.2844C27.0944 38.2034 27.1084 38.1174 27.1254 38.0294C27.1369 37.9684 27.1434 37.9029 27.1699 37.8474C27.1804 37.8254 27.1824 37.812 27.2009 37.796C27.2174 37.782 27.2354 37.768 27.2534 37.7565C27.2859 37.736 27.3254 37.7245 27.3629 37.7155C27.3959 37.7075 27.4284 37.706 27.4614 37.694C27.5049 37.6785 27.5619 37.6725 27.5994 37.6445C27.6664 37.594 27.6474 37.503 27.6574 37.4325C27.6624 37.3965 27.6599 37.373 27.6574 37.337C27.6554 37.3105 27.6569 37.263 27.6704 37.239C27.6819 37.218 27.7029 37.215 27.7239 37.208C27.7414 37.202 27.7624 37.192 27.7804 37.1915C27.8134 37.1905 27.8524 37.2045 27.8849 37.211C27.9108 37.216 27.9528 37.216 27.9758 37.2305C28.0068 37.25 28.0108 37.301 28.0333 37.328C28.0763 37.38 28.0908 37.441 28.0878 37.506C28.0863 37.535 28.0848 37.577 28.1118 37.595C28.1273 37.6055 28.1633 37.608 28.1818 37.6105C28.2148 37.6155 28.2408 37.5995 28.2733 37.601C28.2978 37.602 28.3248 37.612 28.3488 37.6165C28.3628 37.619 28.3823 37.6195 28.3948 37.6275C28.4028 37.6325 28.4068 37.6465 28.4143 37.652C28.4348 37.667 28.4583 37.6675 28.4778 37.6865C28.5038 37.712 28.5193 37.7365 28.5388 37.766C28.5523 37.787 28.5763 37.8025 28.5933 37.822C28.6343 37.8679 28.6768 37.9124 28.7163 37.9599C28.7918 38.0504 28.8738 38.1669 28.8728 38.2914C28.8728 38.3434 28.8553 38.4024 28.8443 38.4534C28.8343 38.5004 28.8018 38.5364 28.7708 38.5724C28.7293 38.6214 28.6808 38.6604 28.6463 38.7154C28.6158 38.7639 28.5743 38.8064 28.5623 38.8634C28.5518 38.9114 28.5533 38.9494 28.6053 38.9714C28.6443 38.9884 28.6973 38.9899 28.7393 38.9979C28.7923 39.0079 28.8453 39.0179 28.8983 39.0284C28.9523 39.0394 29.0083 39.0319 29.0623 39.0344C29.1048 39.0364 29.1553 39.0299 29.1888 39.0009C29.2148 38.9784 29.2448 38.9614 29.2688 38.9374C29.2888 38.9174 29.2923 38.9204 29.3183 38.9074C29.3608 38.8869 29.3883 38.8294 29.4067 38.7899C29.4272 38.7469 29.4408 38.7129 29.4497 38.6654L29.4522 38.6534C29.4852 38.6304 29.4962 38.5584 29.5027 38.5209C29.5092 38.4849 29.5232 38.4619 29.5332 38.4289C29.5477 38.3824 29.5457 38.3309 29.5597 38.2844C29.5682 38.2574 29.5807 38.2349 29.5877 38.2074C29.5947 38.1804 29.5962 38.1559 29.6192 38.1364C29.6472 38.1129 29.6987 38.1224 29.7302 38.1384C29.7722 38.1594 29.7857 38.2154 29.8067 38.2529C29.8337 38.3004 29.8767 38.3319 29.9107 38.3724C29.9252 38.3899 29.9262 38.4174 29.9477 38.4304C29.9667 38.4414 29.9837 38.4364 30.0037 38.4329C30.0412 38.4269 30.0812 38.4259 30.1177 38.4169C30.1617 38.4064 30.2012 38.3889 30.2472 38.3874C30.3152 38.3849 30.4327 38.3819 30.4457 38.2984C30.4527 38.2529 30.4437 38.2059 30.4197 38.1664C30.3937 38.1234 30.3687 38.0799 30.3427 38.0374C30.3277 38.0134 30.3127 37.9964 30.3052 37.9679C30.3002 37.9494 30.3002 37.9319 30.2917 37.9144C30.2807 37.8924 30.2697 37.8784 30.2617 37.8554C30.2537 37.832 30.2322 37.8044 30.2412 37.7785L30.2437 37.7665C30.2237 37.742 30.2157 37.7155 30.2117 37.6845C30.2077 37.655 30.1972 37.6225 30.2002 37.5925C30.2047 37.55 30.2152 37.5085 30.2397 37.4745C30.2917 37.402 30.3652 37.33 30.3502 37.233C30.3422 37.1805 30.2947 37.137 30.2577 37.1005C30.2382 37.0815 30.2157 37.062 30.1912 37.0495C30.1592 37.033 30.1422 37.014 30.1142 36.993C30.0892 36.9745 30.0582 36.9685 30.0342 36.947C30.0157 36.931 30.0012 36.91 29.9842 36.8925C29.9422 36.8495 29.9062 36.8165 29.8857 36.7595C29.8767 36.7345 29.8652 36.717 29.8667 36.6895C29.8677 36.6675 29.8762 36.6435 29.8802 36.622C29.8882 36.581 29.8957 36.5405 29.9037 36.4995C29.9077 36.4775 29.9102 36.454 29.9162 36.4325C29.9252 36.3985 29.9317 36.398 29.9642 36.3845C30.0042 36.3685 30.0527 36.353 30.0967 36.3555C30.1832 36.361 30.2672 36.404 30.3547 36.3965C30.3807 36.3945 30.3992 36.388 30.4237 36.381C30.4582 36.371 30.4587 36.3775 30.4662 36.3415C30.4747 36.3021 30.4667 36.2656 30.4752 36.2261L30.4652 36.2116C30.4787 36.1781 30.4562 36.1196 30.4517 36.0831C30.4472 36.0446 30.4492 36.0056 30.4457 35.9671C30.4362 35.8736 30.4292 35.7791 30.4237 35.6846C30.4167 35.5706 30.4317 35.4481 30.4767 35.3476C30.5117 35.2701 30.5572 35.1926 30.5997 35.1186C30.6207 35.0816 30.6487 35.0521 30.6707 35.0166C30.6917 34.9836 30.7107 34.9506 30.7357 34.9196C30.7737 34.8721 30.8137 34.8256 30.8497 34.7762C30.8632 34.7577 30.8607 34.7442 30.8877 34.7407C30.9032 34.7387 30.9326 34.7507 30.9486 34.7537C30.9861 34.7607 31.0236 34.7816 31.0386 34.7362C31.0486 34.7062 31.0461 34.6632 31.0451 34.6327C31.0441 34.5962 31.0461 34.5577 31.0411 34.5212C31.0356 34.4817 31.0126 34.4292 31.0281 34.3887L31.0251 34.3377C31.0366 34.2772 31.0376 34.1952 31.0651 34.1402C31.0771 34.1157 31.1206 34.0677 31.1446 34.0557C31.1861 34.0347 31.2431 34.0247 31.2891 34.0177C31.3311 34.0112 31.3541 34.0077 31.3961 34.0162C31.4271 34.0222 31.4586 34.0282 31.4901 34.0342C31.5206 34.0397 31.5431 34.0497 31.5721 34.0607C31.6046 34.0732 31.6331 34.0997 31.6641 34.1182C31.7156 34.1497 31.7826 34.1862 31.8451 34.1627C31.8771 34.1507 31.9131 34.1392 31.9416 34.1207C31.9741 34.0997 32.0141 34.0912 32.0456 34.0697C32.0751 34.0497 32.1111 34.0207 32.1376 33.9962C32.1571 33.9777 32.1796 33.9577 32.1921 33.9337C32.2206 33.8767 32.2401 33.8242 32.2516 33.7622L32.2661 33.7522C32.2916 33.6182 32.3176 33.4837 32.3431 33.3497C32.3666 33.2273 32.4001 33.0648 32.52 33.0028C32.6455 32.9383 32.7965 32.9928 32.9215 32.9148C32.9775 32.8798 33.0065 32.8108 33.0465 32.7608C33.0675 32.7348 33.093 32.7133 33.1135 32.6853C33.1335 32.6583 33.1705 32.6303 33.172 32.5953L33.189 32.5733C33.198 32.5443 33.2315 32.5003 33.256 32.4838C33.274 32.4718 33.295 32.4673 33.313 32.4548C33.334 32.4403 33.342 32.4273 33.3675 32.4193C33.399 32.4093 33.432 32.4078 33.457 32.4333C33.488 32.4653 33.516 32.4998 33.538 32.5388C33.608 32.6628 33.598 32.8168 33.645 32.9513C33.672 33.0288 33.6955 33.1133 33.7575 33.1733C33.7705 33.1858 33.788 33.1973 33.8015 33.2098C33.816 33.2233 33.827 33.2338 33.845 33.2443C33.8715 33.2597 33.9025 33.2788 33.932 33.2863C33.9944 33.3023 34.0594 33.3122 34.1234 33.3062C34.1664 33.3022 34.2094 33.2977 34.2529 33.2927C34.2664 33.2912 34.2829 33.2917 34.2964 33.2897C34.3139 33.2872 34.3289 33.2743 34.3469 33.2767L34.3614 33.2668C34.3684 33.2323 34.4349 33.1988 34.4609 33.1768C34.5034 33.1403 34.5479 33.1098 34.5969 33.0838C34.6924 33.0328 34.7754 32.9553 34.8644 32.8943C34.8844 32.8808 34.9034 32.8633 34.9259 32.8543C34.9424 32.8478 34.9594 32.8483 34.9759 32.8403C35.0129 32.8223 35.0484 32.8073 35.0889 32.7953C35.1709 32.7708 35.2524 32.7648 35.3359 32.7473C35.3719 32.7398 35.4119 32.7498 35.4399 32.7233C35.4503 32.7133 35.4653 32.6918 35.4763 32.6793C35.4883 32.6653 35.4973 32.6513 35.5093 32.6378C35.5288 32.6153 35.5558 32.5978 35.5698 32.5713C35.5818 32.5488 35.5883 32.5278 35.6023 32.5058C35.6143 32.4868 35.6268 32.4683 35.6388 32.4493C35.6848 32.3768 35.7308 32.3078 35.8028 32.2578C35.8368 32.2343 35.8748 32.2018 35.9128 32.1853C35.9308 32.1773 35.9508 32.1753 35.9698 32.1693C35.9868 32.1638 36.0013 32.1503 36.0203 32.1533L36.0863 32.1408C36.0918 32.1018 36.1858 32.0723 36.2173 32.0518C36.2663 32.0198 36.3218 31.9968 36.3733 31.9678C36.3863 31.9568 36.4008 31.9478 36.4158 31.9398C36.4323 31.9333 36.4493 31.9308 36.4668 31.9318C36.4968 31.9223 36.5223 31.9028 36.5528 31.8938C36.5958 31.8808 36.6598 31.8713 36.6793 31.8238C36.6858 31.8078 36.6843 31.7913 36.6918 31.7754C36.7013 31.7554 36.7073 31.7384 36.7158 31.7164C36.7333 31.6694 36.7478 31.6214 36.7653 31.5744C36.7968 31.4899 36.8228 31.3944 36.8833 31.3239C36.9473 31.2494 37.0022 31.1704 37.0712 31.1009C37.1492 31.0219 37.2262 30.9439 37.3067 30.8664C37.3897 30.7864 37.4652 30.7004 37.5497 30.6249C37.5932 30.5859 37.6332 30.5419 37.6797 30.5074C37.7252 30.4739 37.7582 30.4269 37.8032 30.3919L37.8077 30.3674C37.8127 30.3479 37.8347 30.3279 37.8467 30.3119C37.8602 30.2939 37.8707 30.2759 37.8827 30.2574C37.9017 30.228 37.9192 30.197 37.9377 30.167C37.9842 30.0925 38.0372 30.0155 38.1122 29.969C38.1922 29.9195 38.2737 29.873 38.3557 29.8265C38.3952 29.804 38.4407 29.775 38.4847 29.762C38.5211 29.751 38.5511 29.7345 38.5881 29.729C38.6286 29.723 38.6796 29.72 38.7146 29.7C38.7566 29.6755 38.7666 29.663 38.7751 29.6155C38.7866 29.552 38.8096 29.4835 38.8066 29.4195C38.8046 29.379 38.8136 29.3375 38.8141 29.2965C38.8146 29.2635 38.8241 29.2305 38.8301 29.1985C38.8481 29.104 38.8666 29.0095 38.8846 28.9145L38.8746 28.9C38.8821 28.861 38.8831 28.8035 38.9016 28.7685C38.9251 28.7246 38.9696 28.7161 39.0111 28.6986C39.0566 28.6791 39.1011 28.6486 39.1431 28.6221C39.1771 28.6006 39.2216 28.5841 39.2351 28.5436C39.2446 28.5146 39.2496 28.4786 39.2371 28.4501C39.2296 28.4326 39.2176 28.4191 39.2111 28.4011C39.2036 28.3806 39.2001 28.3626 39.1836 28.3466C39.1561 28.3196 39.1321 28.3061 39.1091 28.2731C39.0971 28.2561 39.0831 28.2436 39.0696 28.2276C39.0521 28.2076 39.0471 28.1871 39.0346 28.1646C38.9961 28.0966 39.0056 28.0191 39.0201 27.9441C39.0341 27.8696 39.0401 27.7881 39.0781 27.7216C39.1026 27.6791 39.1181 27.6346 39.1496 27.5966C39.1821 27.5581 39.2121 27.5206 39.2476 27.4846C39.2821 27.4491 39.2971 27.4236 39.3061 27.3751C39.3121 27.3416 39.3186 27.3081 39.3256 27.2746C39.3401 27.2007 39.3246 27.1322 39.3281 27.0592C39.3316 26.9892 39.3306 26.9182 39.3441 26.8477L39.3706 26.7767C39.3776 26.7297 39.4656 26.7207 39.5016 26.7012C39.5421 26.6792 39.6246 26.6447 39.6446 26.6007C39.6631 26.5597 39.6641 26.5007 39.6731 26.4557C39.6851 26.3932 39.6976 26.3427 39.6851 26.2797C39.6801 26.2552 39.6766 26.2242 39.6656 26.2022C39.6546 26.1802 39.6366 26.1642 39.6261 26.1417C39.6061 26.0997 39.5651 26.0602 39.5961 26.0117C39.6181 25.9767 39.6816 25.9512 39.7206 25.9467C39.7556 25.9432 39.8011 25.9357 39.8356 25.9402C39.8621 25.9437 39.8836 25.9502 39.9106 25.9487C39.9301 25.9477 39.9556 25.9572 39.9741 25.9532C40.021 25.9427 40.041 25.8857 40.0385 25.8457C40.037 25.8202 40.041 25.8012 40.046 25.7767C40.051 25.7502 40.048 25.7288 40.0485 25.7023C40.049 25.6738 40.062 25.6478 40.0605 25.6188C40.0595 25.5978 40.0545 25.5763 40.0535 25.5548C40.051 25.5088 40.0355 25.4583 40.039 25.4128C40.0425 25.3658 40.0545 25.3348 40.086 25.3023C40.11 25.2773 40.1275 25.2558 40.156 25.2363C40.1735 25.2243 40.198 25.2073 40.2075 25.1883C40.2225 25.1593 40.2295 25.1053 40.232 25.0728C40.235 25.0273 40.2155 25.0013 40.188 24.9703C40.157 24.9348 40.132 24.8923 40.1175 24.8483C40.104 24.8078 40.096 24.7578 40.0905 24.7148C40.086 24.6773 40.073 24.6183 40.0845 24.5823C40.0925 24.5383 40.0905 24.4943 40.091 24.4503C40.0915 24.4043 40.076 24.3623 40.085 24.3158C40.095 24.2638 40.0845 24.2104 40.0895 24.1579C40.094 24.1114 40.108 24.0639 40.117 24.0184C40.1345 23.9274 40.1725 23.8574 40.22 23.7794C40.2475 23.7344 40.288 23.6959 40.312 23.6494C40.334 23.6074 40.344 23.5674 40.352 23.5214C40.3595 23.4789 40.345 23.4434 40.3395 23.4009C40.334 23.3574 40.3235 23.3244 40.3115 23.2824C40.2985 23.2384 40.2845 23.1889 40.2655 23.1469C40.2565 23.1274 40.2465 23.1134 40.245 23.0919C40.2435 23.0744 40.2445 23.0579 40.241 23.0404C40.23 22.9809 40.249 22.8829 40.2705 22.8259C40.2855 22.7859 40.3175 22.7404 40.3485 22.7129C40.3785 22.686 40.397 22.645 40.4195 22.6115C40.47 22.5365 40.531 22.457 40.5475 22.367C40.5535 22.334 40.56 22.301 40.5665 22.268C40.5745 22.2285 40.5675 22.1945 40.5755 22.155L40.614 22.0865C40.6235 22.039 40.639 21.988 40.657 21.9425C40.6755 21.8955 40.693 21.8445 40.7225 21.8025C40.747 21.7675 40.7755 21.7395 40.8065 21.7105C40.8465 21.6735 40.878 21.626 40.9155 21.5865C40.9465 21.554 40.976 21.519 41.0075 21.4865C41.0385 21.455 41.067 21.4465 41.0745 21.4015C41.0815 21.361 41.09 21.3205 41.0975 21.28C41.105 21.241 41.12 21.1975 41.118 21.1581C41.116 21.1171 41.124 21.0781 41.1205 21.0361C41.117 20.9996 41.127 20.9641 41.124 20.9291C41.1215 20.8941 41.107 20.8576 41.1085 20.8221C41.109 20.8056 41.1165 20.7921 41.1155 20.7751C41.1145 20.7571 41.114 20.7431 41.114 20.7246C41.1145 20.6866 41.1075 20.6481 41.1115 20.6096C41.115 20.5756 41.117 20.5411 41.1165 20.5066C41.116 20.4681 41.1 20.4111 41.081 20.3781C41.0685 20.3566 41.0465 20.3441 41.035 20.3226C41.027 20.3076 41.021 20.2896 41.0135 20.2741C40.976 20.1971 40.937 20.1216 40.924 20.0356C40.921 20.0151 40.9275 19.9966 40.927 19.9756C40.9265 19.9531 40.9175 19.9306 40.918 19.9076C40.919 19.8651 40.934 19.8201 40.942 19.7786L40.932 19.7641C40.9395 19.7256 40.9355 19.6926 40.9395 19.6547C40.944 19.6127 40.9565 19.5707 40.964 19.5292C40.9765 19.4652 40.9885 19.4012 41.001 19.3367C41.0045 19.3182 41.009 19.3002 41.012 19.2817C41.015 19.2607 41.0105 19.2477 41.0105 19.2282C41.0105 19.1857 41.0215 19.1427 41.0185 19.0987C41.0165 19.0707 41.015 19.0457 41.008 19.0182C41.001 18.9892 41.0045 18.9637 40.996 18.9342C40.986 18.8977 40.9825 18.8562 40.9705 18.8207C40.9595 18.7877 40.9415 18.7557 40.928 18.7237C40.896 18.6492 40.872 18.5702 40.846 18.4927C40.8205 18.4162 40.797 18.3422 40.776 18.2642C40.767 18.2307 40.7635 18.1952 40.755 18.1617C40.743 18.1173 40.7325 18.0888 40.7425 18.0423L40.7325 18.0278C40.702 17.9978 40.708 17.9343 40.7075 17.8963C40.707 17.8583 40.697 17.8218 40.703 17.7843C40.7085 17.7508 40.7165 17.7173 40.7225 17.6838C40.7325 17.6303 40.741 17.6178 40.781 17.5778C40.8235 17.5348 40.8665 17.5043 40.9135 17.4663C40.9345 17.4493 40.974 17.4378 40.988 17.4148C40.996 17.4023 40.9965 17.3803 40.999 17.3658C41.0115 17.2953 41.014 17.2113 41.092 17.1833C41.13 17.1698 41.168 17.1538 41.2085 17.1458C41.2495 17.1378 41.2805 17.1438 41.321 17.1518C41.3645 17.1603 41.4025 17.1663 41.4415 17.1848C41.4944 17.2093 41.509 17.1768 41.5479 17.1443C41.5804 17.1168 41.6224 17.0933 41.6524 17.0638C41.6709 17.0463 41.6809 17.0263 41.6999 17.0093C41.7164 16.9948 41.7314 16.9798 41.7469 16.9643C41.7874 16.9233 41.8214 16.8838 41.8654 16.8453C41.8839 16.8288 41.9009 16.8113 41.9189 16.7943C41.9379 16.7758 41.9719 16.7583 41.9814 16.7333L41.6269 0.209436Z" fill="white"/>
<path d="M19.9949 3.7997L20.0474 3.8032C20.0809 3.7832 20.1159 3.7692 20.1454 3.7427C20.1604 3.72921 20.1654 3.72221 20.1599 3.70271C20.1549 3.68571 20.1474 3.67671 20.1374 3.66371C20.1269 3.64971 20.1229 3.63171 20.1094 3.62021C20.0974 3.61021 20.0844 3.60171 20.0724 3.59221C20.0459 3.57172 20.0244 3.56072 19.9914 3.55422C19.9634 3.54872 19.9264 3.54272 19.9079 3.57272C19.8974 3.58971 19.8954 3.62771 19.8924 3.64771C19.8874 3.68171 19.8959 3.72121 19.9169 3.7487C19.9329 3.7702 19.9669 3.7977 19.9949 3.7997Z" fill="white"/>
<path d="M20.0209 4.05967C20.0004 4.07667 19.9784 4.09017 19.9634 4.11267C19.9459 4.13967 19.9314 4.17017 19.9244 4.20167C19.9179 4.23066 19.9179 4.26766 19.9259 4.29616C19.9299 4.31016 19.9374 4.32266 19.9424 4.33616C19.9484 4.35266 19.9534 4.36215 19.9659 4.37315C19.9849 4.39015 20.0024 4.39365 20.0244 4.40415C20.0359 4.40965 20.0509 4.41565 20.0639 4.41415C20.0819 4.41215 20.0924 4.39115 20.1119 4.39765L20.1269 4.38715C20.1269 4.37065 20.1369 4.36315 20.1454 4.35116C20.1534 4.34016 20.1579 4.32666 20.1654 4.31516C20.1714 4.30566 20.1794 4.29766 20.1859 4.28866C20.1954 4.27566 20.1999 4.25816 20.2059 4.24316C20.2099 4.23316 20.2154 4.22316 20.2194 4.21316C20.2239 4.20217 20.2229 4.18917 20.2274 4.17817C20.2329 4.16467 20.2534 4.12517 20.2669 4.12317C20.2764 4.12167 20.2899 4.12667 20.2999 4.12617C20.3104 4.12567 20.3189 4.12617 20.3289 4.12867C20.3544 4.13367 20.3783 4.14217 20.4038 4.13417C20.4218 4.12817 20.4568 4.11917 20.4678 4.10267C20.4853 4.07667 20.4373 4.07217 20.4228 4.06617C20.3763 4.04718 20.3289 4.02968 20.2789 4.02018C20.2369 4.01218 20.1954 4.00318 20.1534 3.99618C20.1034 3.98718 20.0559 4.03018 20.0209 4.05967Z" fill="white"/>
<path d="M19.7294 4.88563C19.7464 4.90813 19.7514 4.93513 19.7459 4.96312C19.7419 4.98162 19.7334 5.00512 19.7399 5.02312C19.7489 5.04712 19.7884 5.06362 19.8119 5.06862C19.8329 5.07312 19.8469 5.06112 19.8584 5.04312C19.8659 5.03112 19.8674 5.01812 19.8764 5.00662C19.8839 4.99712 19.8899 4.98712 19.8974 4.97712C19.9094 4.96012 19.9329 4.94813 19.9524 4.94313C19.9654 4.93963 19.9794 4.94013 19.9924 4.93813C20.0064 4.93563 20.0179 4.92863 20.0314 4.92513C20.0519 4.91963 20.0709 4.91313 20.0909 4.90613C20.1179 4.89613 20.1449 4.88213 20.1514 4.85263C20.1559 4.83213 20.1584 4.81113 20.1629 4.79064C20.1729 4.74314 20.2119 4.71364 20.2454 4.68214C20.2604 4.66814 20.2684 4.65264 20.2804 4.63615C20.2909 4.62115 20.3034 4.60765 20.2939 4.58915C20.2849 4.57115 20.2639 4.54665 20.2479 4.53415C20.2304 4.52065 20.2094 4.53365 20.1949 4.54665C20.1634 4.57565 20.1764 4.62915 20.1604 4.66514C20.1434 4.66664 20.1204 4.65814 20.1034 4.65464C20.0859 4.65114 20.0684 4.64814 20.0509 4.64465C20.0354 4.64165 20.0054 4.62915 19.9894 4.63365C19.9689 4.63965 19.9674 4.67564 19.9564 4.69164C19.9464 4.70514 19.9249 4.72964 19.9099 4.73564C19.8954 4.74164 19.8739 4.74264 19.8584 4.74364C19.8209 4.74614 19.7774 4.73114 19.7399 4.72414L19.7134 4.72564C19.6929 4.73764 19.6794 4.76964 19.6819 4.79264C19.6834 4.80713 19.6944 4.82213 19.7004 4.83513C19.7069 4.85263 19.7174 4.86963 19.7294 4.88563Z" fill="white"/>
<path d="M21.0148 5.2791L21.0518 5.2926C21.0923 5.3001 21.1328 5.3081 21.1733 5.3156C21.1978 5.3206 21.2203 5.3206 21.2453 5.3196C21.2698 5.3186 21.2928 5.3251 21.3173 5.3221C21.3762 5.3151 21.3667 5.2621 21.3637 5.21711C21.3632 5.20911 21.3602 5.19261 21.3637 5.18511C21.3687 5.17411 21.3857 5.17211 21.3957 5.16761C21.4152 5.15911 21.4352 5.14611 21.4482 5.12961C21.4587 5.11561 21.4727 5.09411 21.4767 5.07662C21.4842 5.04412 21.4542 5.03862 21.4282 5.03412C21.4037 5.02962 21.3817 5.02412 21.3568 5.02712C21.3278 5.03012 21.3073 5.04462 21.2868 5.06512C21.2668 5.08512 21.2458 5.10361 21.2233 5.12111C21.2133 5.12861 21.2053 5.13761 21.1953 5.14561C21.1818 5.15661 21.1788 5.15061 21.1668 5.14111C21.1388 5.12011 21.1188 5.09311 21.0948 5.06662C21.0748 5.04462 21.0518 5.01562 21.0168 5.02312C20.9903 5.02862 20.9778 5.05962 20.9683 5.08062C20.9558 5.10911 20.9488 5.13711 20.9433 5.16711C20.9358 5.20861 20.9708 5.2716 21.0148 5.2791Z" fill="white"/>
</svg>
