<svg width="94" height="45" viewBox="0 0 94 45" fill="none" xmlns="http://www.w3.org/2000/svg">
<path d="M71.5761 43.7076C71.5532 43.6826 71.5376 43.6524 71.5136 43.6285C71.4855 43.6004 71.4803 43.5712 71.4595 43.54C71.4397 43.5119 71.4075 43.49 71.3856 43.464C71.3617 43.4359 71.344 43.4057 71.3179 43.3797C71.2815 43.3422 71.2472 43.2974 71.2055 43.2662C71.1545 43.2277 71.0993 43.2329 71.0379 43.2329C71.0036 43.2329 70.9661 43.2277 70.9318 43.2298C70.9026 43.2329 70.8745 43.2433 70.8443 43.2454C70.7933 43.2475 70.7194 43.2527 70.6705 43.2412C70.607 43.2256 70.5529 43.2017 70.5144 43.1496C70.48 43.1007 70.4436 43.0372 70.4196 42.9831C70.404 42.9446 70.4061 42.8811 70.4144 42.8395C70.4238 42.7947 70.429 42.7593 70.43 42.7135C70.4311 42.6302 70.4498 42.5241 70.4311 42.4429C70.4092 42.3513 70.3561 42.2493 70.2656 42.2076C70.2271 42.1899 70.1781 42.1983 70.1365 42.1972C70.0865 42.1962 70.0355 42.192 69.9866 42.2024C69.9158 42.218 69.8399 42.2305 69.7732 42.2607C69.7514 42.2711 69.7264 42.2742 69.7056 42.2836C69.6837 42.294 69.6733 42.3107 69.6535 42.3263C69.6244 42.3523 69.5942 42.3679 69.5692 42.3991C69.5546 42.4179 69.5401 42.4356 69.5224 42.4522C69.4922 42.4814 69.4089 42.5345 69.4068 42.5782V42.5928C69.4027 42.6261 69.3725 42.6583 69.361 42.6896C69.3465 42.725 69.3288 42.7572 69.3111 42.7895C69.2798 42.8499 69.2309 42.9071 69.1914 42.9612C69.1716 42.9893 69.1414 43.0351 69.1143 43.056C69.0966 43.0695 69.0748 43.0705 69.055 43.0789C69.0009 43.1007 68.9655 43.1278 68.903 43.1257C68.852 43.1236 68.8 43.1267 68.749 43.1236C68.7063 43.1215 68.6709 43.1028 68.6345 43.0809C68.495 43.0008 68.3795 42.8832 68.292 42.751C68.2504 42.6864 68.215 42.6604 68.1359 42.6625C68.0859 42.6635 68.0443 42.6823 67.9995 42.7052C67.9735 42.7198 67.9548 42.7416 67.9288 42.7572C67.8965 42.777 67.8569 42.7947 67.8215 42.8093C67.7789 42.827 67.7331 42.8249 67.6873 42.8218C67.578 42.8155 67.5041 42.726 67.4656 42.6344C67.4458 42.5865 67.4291 42.5376 67.4156 42.4876C67.4 42.4283 67.3781 42.3669 67.3667 42.3065C67.3604 42.2763 67.3458 42.2597 67.3375 42.2305C67.3313 42.2087 67.3313 42.191 67.3188 42.1712C67.2928 42.1233 67.2699 42.0796 67.249 42.0296C67.2272 41.9797 67.197 41.9339 67.1731 41.886C67.1502 41.8402 67.1106 41.8017 67.1179 41.7455H67.1054C66.9274 41.5883 66.6932 41.6237 66.4902 41.7132C66.2456 41.8204 66.2727 42.1119 66.1707 42.318C66.1467 42.3669 66.1197 42.4106 66.104 42.4637C66.0832 42.5334 66.0759 42.6063 66.052 42.675C66.0385 42.7145 66.0301 42.7541 66.0176 42.7937C65.9979 42.8561 65.9448 42.9227 65.9125 42.9789C65.8646 43.0612 65.7637 43.1122 65.67 43.1091C65.5701 43.107 65.4837 43.0695 65.3858 43.0549C65.3015 43.0424 65.1079 43.0414 65.2016 43.1736C65.2495 43.2423 65.3452 43.2464 65.3962 43.3151C65.4337 43.3651 65.4452 43.4005 65.4056 43.4505C65.3733 43.4911 65.3504 43.5306 65.3015 43.5514C65.2401 43.5775 65.1693 43.591 65.1339 43.6566C65.0902 43.7398 65.0725 43.8065 65.0694 43.9001C65.0673 43.9824 65.0871 44.0646 65.1131 44.1427C65.1402 44.2207 65.1568 44.3019 65.1818 44.381C65.1985 44.4362 65.2078 44.5122 65.187 44.5684C65.1287 44.7297 64.9205 44.7776 64.7696 44.7464C64.6926 44.7308 64.6083 44.6985 64.5416 44.6569C64.5021 44.6309 64.4594 44.6288 64.4261 44.5965C64.3866 44.558 64.3532 44.5195 64.3251 44.4726C64.3033 44.4383 64.2793 44.406 64.2668 44.3665C64.2554 44.3269 64.2502 44.3019 64.2169 44.2759C64.1565 44.227 64.0878 44.2322 64.016 44.2291C63.9244 44.2249 63.9733 44.1177 63.992 44.0604C64.0097 44.0198 64.0306 43.9886 64.0555 43.9511C64.0816 43.9126 64.119 43.8835 64.1399 43.8418C64.1846 43.7513 64.1565 43.6472 64.067 43.6045C64.0077 43.5764 63.9483 43.5389 63.9629 43.465C63.9681 43.4359 63.9858 43.4067 63.9962 43.3786C64.0077 43.3505 64.0222 43.3245 64.0399 43.3006C64.0909 43.2329 64.1471 43.1746 64.1794 43.0945C64.2075 43.0237 64.2263 42.954 64.2273 42.879C64.2273 42.8519 64.2273 42.829 64.221 42.803C64.2138 42.7666 64.22 42.7312 64.2127 42.6958C64.1971 42.6209 64.1388 42.5397 64.1055 42.4731C64.0743 42.4116 64.0514 42.3492 64.015 42.2899C63.9775 42.2284 63.9452 42.1545 63.8911 42.1087C63.8567 42.0806 63.8307 42.0338 63.7901 42.0151C63.7599 42.0015 63.7297 41.9953 63.6996 41.9818C63.6486 41.9578 63.5767 41.9661 63.5299 41.9974C63.4966 42.0203 63.4622 42.0598 63.456 42.0994C63.4529 42.1244 63.456 42.1535 63.456 42.1795C63.456 42.2118 63.4612 42.2524 63.4549 42.2847C63.4497 42.3096 63.4362 42.3346 63.43 42.3606C63.4237 42.3877 63.4341 42.4439 63.4185 42.4668C63.4008 42.4939 63.3425 42.5064 63.3144 42.5136C63.2499 42.5282 63.1666 42.5303 63.1 42.522C63.0573 42.5157 63.0448 42.497 63.0157 42.4751C62.9928 42.4585 62.9376 42.4262 62.9106 42.4283L62.8502 42.3971C62.7721 42.3856 62.642 42.3429 62.6108 42.4533C62.5889 42.5303 62.6295 42.5834 62.6472 42.6542C62.6576 42.6948 62.6545 42.7603 62.6378 42.7989C62.6212 42.8353 62.592 42.8384 62.5546 42.827C62.514 42.8134 62.4713 42.776 62.4453 42.7437C62.413 42.7021 62.3984 42.6406 62.3651 42.6021C62.3401 42.5751 62.2881 42.5782 62.26 42.598C62.2288 42.6198 62.2184 42.6573 62.2027 42.6885C62.1674 42.7593 62.1944 42.8197 62.1965 42.8946C62.1975 42.9519 62.2069 43.031 62.1757 43.082C62.1538 43.1184 62.1205 43.1299 62.0872 43.1517C62.0445 43.1798 62.0154 43.2027 61.9644 43.2142C61.9207 43.2246 61.8863 43.2402 61.8415 43.2381C61.8009 43.236 61.7676 43.2496 61.7281 43.2516C61.6646 43.2569 61.5782 43.2579 61.5147 43.2464C61.3377 43.2142 61.1285 43.1351 61.0629 42.9519C61.0359 42.8769 61.0453 42.7687 61.0754 42.6968C61.0994 42.6386 61.1275 42.5792 61.1462 42.5199C61.1566 42.4855 61.1764 42.4491 61.1827 42.4148C61.1868 42.3908 61.1827 42.3606 61.1827 42.3367C61.1837 42.2992 61.1868 42.2805 61.1691 42.2472C61.1493 42.2087 61.1337 42.1691 61.1108 42.1327C61.0869 42.0942 61.0734 42.0473 61.0453 42.014C61.0182 41.9828 60.9859 41.9516 60.9557 41.9224C60.9183 41.8839 60.8954 41.8693 60.8433 41.8673C60.8069 41.8652 60.7705 41.8662 60.734 41.8652C60.6653 41.8641 60.5966 41.861 60.5279 41.862C60.4405 41.8631 60.3583 41.9078 60.2708 41.9037C60.251 41.9224 60.2188 41.9183 60.1948 41.9287C60.173 41.938 60.1522 41.9495 60.1324 41.9609C60.097 41.9797 60.0616 41.9994 60.0293 42.0244C59.9929 42.0515 59.9617 42.0588 59.9211 42.0754C59.8763 42.0931 59.842 42.1181 59.7899 42.1077C59.7337 42.0973 59.6775 42.0838 59.6223 42.0713C59.5568 42.0557 59.5099 41.9849 59.5026 41.9183C59.4974 41.8704 59.5141 41.8194 59.5026 41.7725C59.4922 41.7278 59.4912 41.682 59.4776 41.6362C59.4568 41.5633 59.4266 41.4915 59.3985 41.4207C59.3715 41.353 59.3507 41.2635 59.3017 41.2094C59.2601 41.1626 59.1976 41.1594 59.1394 41.1657C59.0925 41.1698 59.0498 41.1803 59.0009 41.1792C58.9281 41.1782 58.8625 41.1844 58.7938 41.2094C58.7168 41.2375 58.6491 41.2781 58.5804 41.3229C58.5533 41.3416 58.5346 41.3655 58.5044 41.3791C58.4669 41.3947 58.4555 41.3988 58.4253 41.429C58.3118 41.5414 58.1786 41.6289 58.0922 41.7663H58.0776C58.0079 41.7788 57.9402 41.7913 57.8684 41.8048C57.832 41.811 57.7966 41.8225 57.7602 41.8287C57.7175 41.8371 57.6842 41.8496 57.6425 41.861C57.5093 41.8995 57.4583 42.0057 57.4073 42.1264C57.3875 42.1712 57.3719 42.2024 57.3615 42.2493C57.3573 42.2722 57.3459 42.2888 57.3355 42.3096C57.3094 42.3596 57.3011 42.4168 57.2751 42.4658C57.2595 42.4949 57.2407 42.5241 57.2231 42.5522C57.2074 42.5771 57.2002 42.6084 57.1835 42.6313C57.1658 42.6552 57.1398 42.6719 57.1231 42.6968C57.1075 42.7197 57.1002 42.7458 57.0857 42.7676C57.0575 42.8093 56.9888 42.879 56.9472 42.9019C56.8889 42.9342 56.8358 42.9769 56.7651 42.9769C56.6349 42.9779 56.5038 42.9737 56.3778 42.9435C56.3237 42.9311 56.255 42.9248 56.2103 42.8936C56.179 42.8728 56.1592 42.8519 56.1239 42.8353C56.0999 42.8238 56.0895 42.8134 56.0708 42.7937C56.0302 42.7531 55.976 42.7166 55.923 42.6927C55.872 42.6698 55.8189 42.676 55.7637 42.676C55.7065 42.675 55.6398 42.6833 55.5847 42.6615C55.5316 42.6406 55.4858 42.6073 55.4327 42.5876C55.3754 42.5667 55.3401 42.5282 55.3067 42.4783C55.2724 42.4262 55.2714 42.3804 55.2714 42.3211C55.2724 42.2628 55.2745 42.2128 55.2922 42.1556C55.3161 42.0827 55.3671 42.0296 55.3983 41.9609C55.415 41.9245 55.4233 41.8673 55.4119 41.8267C55.3963 41.7715 55.3401 41.7486 55.3286 41.6893C55.3182 41.6299 55.3296 41.5539 55.3473 41.4956C55.364 41.4384 55.4129 41.3999 55.4223 41.3406C55.4348 41.2604 55.3817 41.2375 55.313 41.2365C55.2526 41.2344 55.2131 41.224 55.1933 41.1594C55.1725 41.097 55.1912 41.0293 55.1714 40.9658C55.1558 40.9159 55.1423 40.869 55.0986 40.8378C55.0632 40.8128 55.0267 40.7857 54.983 40.7795C54.9476 40.7743 54.9091 40.7795 54.8737 40.7785C54.7915 40.7764 54.7082 40.7993 54.6333 40.8315C54.5313 40.8753 54.4241 40.8919 54.3148 40.8898C54.2658 40.8888 54.2086 40.9003 54.168 40.8711C54.1482 40.8565 54.1253 40.8191 54.1087 40.8014C54.0847 40.7753 54.0837 40.7566 54.0722 40.7243C54.0556 40.6765 54.0337 40.6359 54.0327 40.5838C54.0327 40.5453 54.0337 40.5068 54.0348 40.4683C54.0358 40.411 54.042 40.3517 54.0348 40.2955C54.0275 40.2372 54.0056 40.1914 53.9838 40.1352C53.964 40.0852 53.9359 40.0571 53.8922 40.0248C53.8599 40.0009 53.8318 39.9759 53.8037 39.9468C53.7443 39.8822 53.6996 39.7792 53.7173 39.6928C53.7381 39.5845 53.837 39.5065 53.9036 39.4284C53.9629 39.3587 53.9609 39.2483 53.9525 39.1599C53.9484 39.112 53.9296 39.0839 53.8942 39.0526C53.8547 39.0193 53.8078 38.9839 53.762 38.959C53.7235 38.9371 53.6704 38.8996 53.6278 38.8934C53.5945 38.8892 53.5559 38.8944 53.5226 38.8923C53.4872 38.8913 53.4477 38.8955 53.4144 38.908C53.3675 38.9246 53.3561 38.9683 53.3342 39.0058C53.3072 39.0526 53.2811 39.0839 53.2458 39.1245C53.2114 39.163 53.175 39.1963 53.1385 39.2317C53.0979 39.2702 53.0657 39.2952 53.0168 39.3202C52.9824 39.3378 52.9522 39.3743 52.9116 39.3785L52.8637 39.392C52.8138 39.3909 52.7617 39.3941 52.7118 39.3909C52.6441 39.3868 52.5983 39.3545 52.5327 39.3337C52.4109 39.2931 52.2892 39.2515 52.1653 39.2244C51.9259 39.1703 51.725 39.0339 51.4825 38.986C51.3045 38.9517 51.0942 38.9673 50.912 38.9715C50.6372 38.9767 50.5977 39.3951 50.4822 39.5679C50.3562 39.7553 50.1928 40.0425 49.9378 40.0436C49.8566 40.0446 49.7629 40.0519 49.6827 40.0415C49.6255 40.0332 49.561 39.9988 49.5089 39.9759C49.4589 39.953 49.4121 39.9208 49.3673 39.8833C49.283 39.8115 49.1998 39.749 49.1227 39.6678C49.0363 39.5793 48.9656 39.4846 48.8854 39.393C48.8459 39.3462 48.8313 39.2931 48.7928 39.2483C48.7522 39.2005 48.6928 39.1651 48.6491 39.1193C48.5815 39.0485 48.4847 38.9475 48.3806 38.934H48.3504C48.2911 38.9319 48.2473 38.884 48.1942 38.8632C48.1266 38.8351 48.06 38.8372 47.9881 38.8382C47.9299 38.8382 47.8705 38.8465 47.8154 38.8653C47.7612 38.884 47.7633 38.8934 47.7102 38.9246C47.6082 38.9891 47.4937 39.0402 47.3886 39.1005C47.3064 39.1484 47.2085 39.2171 47.1159 39.24C47.0107 39.265 46.8504 39.2535 46.7422 39.2421C46.6173 39.2275 46.4778 39.1442 46.3664 39.0912C46.3185 39.0683 46.2613 39.0318 46.2103 39.0193C46.1572 39.0058 46.0812 39.0204 46.026 39.0183C45.9251 39.0162 45.8345 39.0443 45.7325 39.0454C45.643 39.0464 45.5306 39.0558 45.4431 39.0381C45.3443 39.0183 45.2277 38.9444 45.1486 38.8861C44.957 38.7456 44.8019 38.5655 44.6219 38.4115C44.5292 38.3323 44.4834 38.2241 44.3835 38.1491C44.3054 38.0908 44.1795 38.0128 44.0848 37.993C44.0077 37.9764 43.8911 37.9868 43.8131 37.9899C43.7184 37.994 43.6049 38.0638 43.5112 38.0471C43.3926 38.0575 43.2801 38.1533 43.1771 38.2053C43.0938 38.247 42.9981 38.2699 42.9044 38.2501C42.8575 38.2397 42.8284 38.2199 42.7795 38.2158C42.7243 38.2116 42.6566 38.2303 42.6036 38.2085C42.5442 38.1835 42.5276 38.1543 42.4547 38.1502C42.3954 38.1471 42.3329 38.1564 42.2736 38.1491C42.1685 38.1356 42.0644 38.1137 41.9686 38.0752C41.9072 38.0503 41.8479 38.0471 41.7927 38.0065C41.7417 37.9691 41.7115 37.9181 41.6761 37.8671C41.5429 37.6797 41.5304 37.5142 41.5335 37.2914C41.5366 37.0905 41.5377 36.8896 41.5429 36.6887C41.545 36.5919 41.5325 36.5451 41.4565 36.4774C41.4013 36.4285 41.3701 36.4317 41.3045 36.4129C41.2597 36.3994 41.2296 36.3682 41.1858 36.3515C41.1702 36.3463 41.1463 36.3546 41.1276 36.3484C41.1005 36.34 41.0516 36.2943 41.037 36.2838C40.9881 36.2464 40.9371 36.212 40.8871 36.1756C40.7872 36.1027 40.732 36.034 40.6737 35.9247C40.579 35.7509 40.605 35.5573 40.4166 35.4365C40.2626 35.3387 40.0856 35.2232 39.9107 35.1659C39.8441 35.144 39.7307 35.1482 39.6609 35.1617C39.5985 35.1742 39.4205 35.2627 39.4236 35.3335L39.3934 35.3637C39.3174 35.423 39.2716 35.5281 39.2092 35.601C39.1634 35.6541 39.1269 35.7634 39.0561 35.7842C39.002 35.7998 38.9177 35.7728 38.8605 35.78C38.7647 35.7925 38.7012 35.8269 38.6023 35.7842C38.4472 35.7176 38.4097 35.5167 38.263 35.4355C38.2026 35.4022 38.1318 35.3949 38.0694 35.3658C37.9944 35.3314 37.9143 35.3127 37.8341 35.3096C37.7509 35.3064 37.6665 35.3085 37.5833 35.3064C37.5114 35.3054 37.4126 35.2835 37.3501 35.3304C37.246 35.4084 37.2741 35.6197 37.221 35.7249C37.1388 35.8914 36.9889 35.8997 36.8234 35.8977C36.7339 35.8966 36.6673 35.8873 36.5819 35.8706C36.5215 35.8592 36.4612 35.8685 36.4008 35.855C36.3519 35.8435 36.3144 35.8123 36.2676 35.8009C36.2343 35.7936 36.203 35.8029 36.1697 35.7988C36.1146 35.7915 36.0563 35.7759 36.0032 35.7665C35.8585 35.7374 35.8137 35.5531 35.7305 35.4459C35.6722 35.371 35.6409 35.3137 35.5598 35.269C35.5119 35.2429 35.4692 35.2242 35.4182 35.2065C35.3526 35.1836 35.2735 35.2013 35.2121 35.1763C35.1559 35.1534 35.1122 35.0847 35.0716 35.0431C34.98 34.9494 34.8249 34.8183 34.7926 34.6923C34.7603 34.5653 34.7073 34.4383 34.6615 34.3134C34.6354 34.2437 34.5865 34.1802 34.5584 34.1104C34.523 34.0261 34.5126 33.9585 34.4564 33.8846C34.3669 33.768 34.3107 33.6212 34.2191 33.5088C34.0463 33.2954 33.8017 33.0789 33.5123 33.0758C33.2594 33.0727 33.0189 33.0987 32.766 33.0945L33.1553 7.2728L0.764404 6.4203L1.01839 0.12803C16.3405 1.12209 72.3516 1.30217 90.2416 0L90.7589 7.93689L93.2331 21.6102L93.8754 44.9462C93.8275 44.9442 93.7848 44.9598 93.7369 44.9587C93.6891 44.9587 93.6318 44.9671 93.586 44.9827C93.5225 45.0045 93.4621 44.9993 93.3945 44.9983C93.3601 44.9983 93.2602 45.0097 93.2425 44.9733C93.2352 44.9577 93.2592 44.9036 93.2602 44.8827C93.2612 44.8609 93.2623 44.837 93.2612 44.8151C93.2602 44.7547 93.2165 44.7537 93.1655 44.7547C93.1166 44.7537 93.0739 44.7568 93.0291 44.7745C92.9927 44.7891 92.9646 44.8193 92.9313 44.838C92.9 44.8557 92.8449 44.8651 92.8095 44.8546C92.7491 44.838 92.7939 44.7797 92.8126 44.7464C92.8251 44.7225 92.8324 44.7016 92.8511 44.6829C92.8678 44.6642 92.8834 44.6558 92.8896 44.6319C92.9011 44.584 92.8865 44.5361 92.8449 44.5091C92.7918 44.4758 92.7668 44.5091 92.7179 44.5216C92.6617 44.5361 92.619 44.5726 92.5597 44.5861C92.5128 44.5965 92.4639 44.6069 92.4171 44.6173C92.3754 44.6256 92.3338 44.6236 92.2901 44.6225C92.2432 44.6215 92.1849 44.6194 92.1444 44.5955C92.0933 44.5653 92.0861 44.5049 92.0652 44.456C92.0475 44.4154 92.0423 44.3748 92.0153 44.3373C91.9924 44.3071 91.9466 44.2426 91.9029 44.2384C91.8321 44.2374 91.7613 44.2405 91.6926 44.253C91.6249 44.2655 91.5646 44.3102 91.4948 44.3207C91.4563 44.3259 91.3658 44.3321 91.3293 44.3175C91.3054 44.3082 91.2908 44.2749 91.2721 44.2582C91.2419 44.2322 91.2107 44.2249 91.1774 44.2093C91.0608 44.1531 91.0264 43.972 90.8849 43.9668C90.7995 43.9636 90.7339 44.0261 90.6496 44.024C90.609 44.023 90.5039 44.0365 90.4935 43.9813C90.4883 43.9584 90.5247 43.922 90.5382 43.9064C90.5591 43.8814 90.5757 43.8647 90.5944 43.8377C90.6413 43.77 90.7828 43.6992 90.7308 43.5983C90.7162 43.5712 90.6808 43.5192 90.6496 43.5119C90.6309 43.5077 90.6007 43.5129 90.582 43.5129C90.532 43.5129 90.4883 43.5223 90.4456 43.5494C90.3925 43.5837 90.3477 43.6264 90.2999 43.667C90.2551 43.7034 90.2364 43.719 90.1791 43.718C90.126 43.7169 90.0719 43.7159 90.0188 43.7159C89.9553 43.7149 89.897 43.6961 89.8346 43.6857C89.744 43.6711 89.6545 43.6503 89.5619 43.6482L89.5473 43.6628C89.4848 43.6618 89.4286 43.6607 89.3672 43.6482C89.2944 43.6337 89.2204 43.6441 89.2173 43.5525C89.2163 43.5212 89.2163 43.5025 89.2329 43.4765C89.2475 43.4546 89.261 43.4505 89.2663 43.4203C89.2767 43.3557 89.2652 43.2912 89.2069 43.2527C89.1611 43.2225 89.1049 43.2163 89.057 43.1913C88.9977 43.1611 88.9779 43.0976 88.9571 43.0383C88.9352 42.9758 88.9186 42.8977 88.8665 42.8519C88.8259 42.8145 88.7656 42.8176 88.7239 42.7832C88.6375 42.7145 88.6136 42.6157 88.5855 42.5147C88.5709 42.4616 88.5522 42.4075 88.5314 42.3554C88.5085 42.2951 88.4596 42.2451 88.4273 42.1878C88.4023 42.1431 88.3607 42.0754 88.3055 42.0609C88.2711 42.0525 88.2212 42.0609 88.1858 42.0598C88.139 42.0588 88.0817 42.0671 88.0349 42.0588C87.9755 42.0473 87.9172 42.0026 87.8548 42.0099C87.7944 41.9734 87.7621 41.9588 87.6914 41.962C87.6362 41.9641 87.6081 41.9911 87.555 41.9536C87.5061 41.9183 87.4957 41.8974 87.4967 41.8391C87.4978 41.7944 87.5123 41.7257 87.4853 41.6882C87.4072 41.5748 87.3114 41.7059 87.2417 41.7538C87.199 41.7829 87.1574 41.7736 87.1064 41.7725C87.0908 41.7725 87.0585 41.7788 87.045 41.7704C87.0314 41.7611 87.0252 41.7257 87.0169 41.7111C86.9992 41.6768 86.9992 41.6424 87.0033 41.6008C87.0054 41.5768 87.0158 41.556 87.0189 41.5331C87.0221 41.5071 87.0179 41.4821 87.0241 41.4561C87.046 41.3697 87.0939 41.2448 86.9586 41.2438C86.9325 41.2438 86.9024 41.2375 86.8774 41.2448C86.8503 41.2531 86.8295 41.2771 86.8003 41.2843C86.7639 41.2927 86.7192 41.2854 86.6806 41.2843C86.6557 41.2843 86.6328 41.2864 86.6109 41.275C86.5942 41.2667 86.5818 41.2521 86.5641 41.2438C86.5318 41.2313 86.4943 41.2354 86.46 41.2344C86.3819 41.2333 86.2966 41.2417 86.2195 41.2323C86.1768 41.2261 86.1352 41.2073 86.0915 41.2C86.0447 41.1917 86.002 41.1844 85.9551 41.1834L85.9249 41.1688C85.8614 41.0918 85.7928 40.9336 85.672 40.9554C85.5804 40.9721 85.5263 41.1064 85.519 41.1865C85.5107 41.2781 85.4721 41.3458 85.3743 41.3572C85.3202 41.3624 85.3004 41.3624 85.2744 41.4155C85.2556 41.4519 85.2588 41.4832 85.2577 41.5227C85.2567 41.5727 85.2629 41.631 85.2379 41.6768C85.215 41.7174 85.1921 41.7007 85.1547 41.6861C85.0995 41.6622 85.0454 41.6299 84.9829 41.6362C84.8934 41.6455 84.9236 41.7715 84.935 41.8329C84.9455 41.8943 84.9507 41.9922 84.9215 42.0463C84.8997 42.0858 84.8716 42.1264 84.832 42.1483C84.8008 42.166 84.7727 42.1608 84.7383 42.1608C84.6831 42.1597 84.602 42.1452 84.5509 42.166C84.5041 42.1847 84.4739 42.2274 84.4406 42.2618C84.4271 42.2763 84.4271 42.2794 84.4084 42.2878C84.3886 42.2961 84.3511 42.3128 84.3303 42.318C84.2907 42.3273 84.2075 42.3263 84.1658 42.3159C84.093 42.2961 84.0492 42.218 83.9722 42.2097C83.8983 42.2014 83.8306 42.2191 83.7609 42.2399C83.7234 42.2503 83.6964 42.2649 83.6558 42.2649C83.6121 42.2649 83.5767 42.2597 83.534 42.2513C83.4705 42.2389 83.3955 42.2253 83.3466 42.1774C83.2977 42.1296 83.3102 42.0328 83.2332 42.0161C83.1582 41.9994 83.1239 42.0702 83.0843 42.1202C83.0718 42.1368 83.0521 42.1483 83.0375 42.1629C83.0219 42.1816 83.0125 42.2035 82.999 42.2222C82.9813 42.2493 82.9594 42.2586 82.9303 42.2711C82.8772 42.293 82.8074 42.2805 82.7502 42.2794L82.6909 42.2336C82.6211 42.2503 82.6305 42.1129 82.618 42.0765C82.6107 42.0546 82.6055 42.0109 82.5857 41.9974C82.5691 41.9859 82.5295 41.988 82.5097 41.9942C82.4754 42.0036 82.4494 42.0359 82.4181 42.0515C82.3869 42.0681 82.3494 42.0734 82.3161 42.0838C82.261 42.1004 82.186 42.1087 82.1444 42.0629C82.1027 42.0151 82.058 41.9682 82.0143 41.9214C81.9726 41.8777 81.9393 41.8308 81.8998 41.7871C81.829 41.7111 81.7561 41.6258 81.677 41.5602C81.6281 41.5185 81.576 41.5071 81.5126 41.5133C81.4355 41.5206 81.4178 41.5435 81.3908 41.6091C81.3679 41.6632 81.3679 41.7142 81.321 41.7548C81.2836 41.7871 81.2315 41.7788 81.1857 41.7777C81.0962 41.7767 80.9942 41.76 80.9078 41.785C80.8599 41.7975 80.8089 41.8214 80.7787 41.861C80.7412 41.9089 80.7131 41.9651 80.6788 42.0161C80.6486 42.0577 80.608 42.1077 80.5643 42.1368C80.5466 42.1493 80.5237 42.1535 80.506 42.167C80.4779 42.1868 80.456 42.2024 80.4238 42.216C80.3717 42.2357 80.3207 42.2607 80.2687 42.2815C80.2302 42.2971 80.1906 42.2919 80.149 42.2909C80.1073 42.2899 80.0584 42.2971 80.0199 42.2805C79.9699 42.2586 79.9377 42.2326 79.8794 42.242C79.767 42.2618 79.7284 42.3992 79.7097 42.4918C79.6972 42.5574 79.667 42.6875 79.5858 42.6896C79.5452 42.6896 79.4922 42.6958 79.4536 42.6833C79.4151 42.6719 79.3818 42.6479 79.3433 42.6354C79.2423 42.6042 79.1466 42.6365 79.0737 42.7114C79.0373 42.7479 79.0081 42.7874 78.9613 42.8134C78.9311 42.8322 78.904 42.828 78.8697 42.828C78.8333 42.827 78.7927 42.8332 78.7573 42.827C78.7094 42.8197 78.673 42.7791 78.6376 42.7489C78.5949 42.7104 78.5605 42.6708 78.5189 42.6323C78.4991 42.6157 78.4898 42.6 78.4658 42.5948C78.4481 42.5917 78.4242 42.5948 78.4055 42.5948C78.3159 42.5938 78.1942 42.6115 78.1202 42.5542C78.0765 42.5189 78.0359 42.4606 77.9818 42.4408C77.9495 42.4304 77.9235 42.4231 77.8933 42.4064C77.8715 42.3939 77.8579 42.3877 77.8309 42.3908V42.4054C77.7726 42.4366 77.7164 42.4939 77.6779 42.549C77.6362 42.6094 77.6112 42.6875 77.5509 42.7322C77.4978 42.7728 77.4353 42.7603 77.3729 42.7583C77.3052 42.7572 77.2584 42.7728 77.199 42.8072C77.1543 42.8332 77.1241 42.8728 77.0669 42.8603C77.0356 42.854 77.02 42.8218 76.995 42.8041C76.9732 42.7884 76.9461 42.7739 76.9222 42.7624C76.8764 42.7374 76.8139 42.7218 76.7608 42.7364C76.6786 42.7593 76.6609 42.8644 76.588 42.8936C76.5329 42.9154 76.4777 42.8894 76.4298 42.8665C76.3778 42.8405 76.3112 42.8186 76.2664 42.7822C76.2154 42.7385 76.179 42.7083 76.1092 42.7114C76.0665 42.7125 76.0187 42.7364 75.9885 42.7687C75.9437 42.8166 75.9229 42.8998 75.8625 42.9311C75.8438 42.9415 75.8188 42.9435 75.799 42.9477C75.7699 42.954 75.748 42.9623 75.7189 42.9737C75.6564 42.9977 75.6242 43.0331 75.6085 43.1028C75.6002 43.1413 75.62 43.1902 75.5981 43.2235C75.5659 43.2745 75.492 43.2777 75.443 43.2995C75.3837 43.3245 75.3629 43.3599 75.3619 43.4203C75.3608 43.4702 75.3837 43.5098 75.4004 43.5566C75.4108 43.5827 75.4264 43.6014 75.4399 43.6274C75.4524 43.6514 75.4576 43.6774 75.4784 43.6982L75.4639 43.7128C75.4212 43.7534 75.3785 43.795 75.3369 43.8377C75.2973 43.8772 75.2578 43.9324 75.1984 43.9355C75.1662 43.9376 75.1256 43.9376 75.0933 43.9324C75.0548 43.9272 75.0204 43.9033 74.9798 43.8991C74.9257 43.8928 74.882 43.8939 74.8404 43.9262C74.7956 43.9605 74.7873 44.0105 74.7477 44.05C74.7019 44.0958 74.6717 44.1166 74.602 44.1052C74.5635 44.0989 74.5146 44.0813 74.4833 44.0584C74.4573 44.0417 74.4406 44.0136 74.4167 43.9949C74.3948 43.9782 74.3699 43.9657 74.3501 43.947C74.3137 43.9116 74.2887 43.871 74.2387 43.8533C74.1742 43.8304 74.1044 43.8366 74.0441 43.8585C74.0128 43.871 73.9858 43.8731 73.9577 43.8908C73.9389 43.9022 73.9316 43.9095 73.9077 43.9199C73.8494 43.947 73.8296 43.9917 73.8026 44.0469C73.7693 44.1198 73.7297 44.2093 73.7235 44.2894C73.7203 44.3352 73.7193 44.3727 73.7099 44.4175C73.6995 44.4633 73.712 44.5091 73.6943 44.5549C73.6652 44.6288 73.5871 44.7349 73.5059 44.7506C73.431 44.7662 73.3592 44.7381 73.2967 44.7016C73.2467 44.6725 73.2436 44.6485 73.2145 44.6048C73.1895 44.5653 73.1905 44.5184 73.1687 44.4768C73.0864 44.3279 72.8595 44.483 72.7586 44.3467C72.7148 44.2874 72.7013 44.2197 72.6836 44.151C72.6732 44.1094 72.6617 44.0584 72.6368 44.0219C72.6014 43.9709 72.5639 43.9917 72.5119 43.9782C72.4796 43.9709 72.4546 43.9657 72.4203 43.9657C72.3901 43.9657 72.3588 43.9678 72.3297 43.9616C72.2901 43.9511 72.2506 43.9355 72.209 43.9324C72.1725 43.9293 72.1361 43.9334 72.1007 43.9314C72.057 43.9293 72.0226 43.9085 71.98 43.8991C71.9362 43.8897 71.8936 43.8772 71.8509 43.8637C71.8124 43.8512 71.7749 43.8283 71.7353 43.821C71.6989 43.8137 71.6594 43.8189 71.6229 43.8179L71.5761 43.7076Z" fill="white"/>
</svg>
