<svg width="60" height="45" viewBox="0 0 60 45" fill="none" xmlns="http://www.w3.org/2000/svg">
<path d="M55.6703 16.9331C55.6703 16.9989 55.6703 16.9989 55.6703 16.9989V17.0648C55.6703 17.0648 55.6703 17.1307 55.6044 17.1307C55.6044 17.1307 55.6044 17.1966 55.5385 17.1966C55.5385 17.1966 55.5385 17.2625 55.4726 17.2625V17.3284C55.4726 17.3943 55.4726 17.4602 55.4726 17.4602V17.526C55.4726 17.5919 55.4726 17.5919 55.4067 17.6578C55.4067 17.7237 55.3408 17.7896 55.3408 17.8555C55.3408 17.9214 55.3408 17.9214 55.3408 17.9873C55.3408 18.0531 55.3408 18.0531 55.3408 18.119C55.3408 18.1849 55.3408 18.1849 55.3408 18.2508V18.3167C55.3408 18.3826 55.275 18.3826 55.275 18.4485L55.2091 18.5144C55.2091 18.5802 55.1432 18.5802 55.1432 18.6461L55.0773 18.712C55.0114 18.7779 55.0114 18.8438 54.9455 18.9097C54.8796 18.9756 54.9455 19.0415 54.9455 19.1073V19.1732C54.9455 19.2391 54.9455 19.2391 54.9455 19.305C54.9455 19.3709 54.8796 19.3709 54.8796 19.3709C54.8796 19.4368 54.8137 19.4368 54.8137 19.5027C54.682 19.7003 54.682 19.7662 54.682 19.8321C54.682 19.8321 54.682 19.898 54.682 19.9639C54.682 19.9639 54.682 19.9639 54.682 20.0298V20.0957C54.682 20.0957 54.682 20.0956 54.682 20.1615C54.682 20.1615 54.682 20.1615 54.7479 20.2274L54.8137 20.2933V20.3592C54.8137 20.4251 54.8137 20.4251 54.8137 20.491C54.8137 20.5569 54.8137 20.6228 54.8137 20.6886V20.7545V21.084V21.1498C54.8796 21.2157 54.9455 21.2157 55.0114 21.2816C55.0773 21.2816 55.1432 21.2816 55.2091 21.2816C55.275 21.2816 55.3408 21.2816 55.4067 21.2157H55.4726L55.5385 21.2816L55.6044 21.3475L55.6703 21.4134C55.7362 21.4793 55.8021 21.4793 55.8679 21.4793C55.9997 21.4793 56.0656 21.4134 56.1974 21.4134C56.2633 21.4134 56.3292 21.4134 56.3292 21.4793C56.3292 21.5452 56.3292 21.6111 56.395 21.6111C56.395 21.6769 56.4609 21.7428 56.4609 21.7428L56.5268 21.8087C56.5268 21.8087 56.5927 21.8746 56.6586 21.8746C56.7245 21.9405 56.7904 21.9405 56.8563 22.0723C56.8563 22.1382 56.9221 22.1382 56.9221 22.204V22.2699C56.9221 22.2699 56.9221 22.2699 56.9221 22.3358C56.9221 22.4017 56.9221 22.4676 56.9221 22.4676C56.9221 22.4676 56.9221 22.4676 56.9221 22.5335C56.9221 22.5335 56.9221 22.5335 56.9221 22.5994C56.9221 22.5994 56.9221 22.5994 56.9221 22.6653C56.9221 22.6653 56.9221 22.6653 56.9221 22.7311C56.9221 22.7311 56.9221 22.7311 56.9221 22.797C56.9221 22.8629 56.8563 22.8629 56.7904 22.8629C56.7245 22.9288 56.5927 22.9947 56.5927 23.0606C56.5927 23.1265 56.5927 23.1265 56.5927 23.1924C56.5927 23.2582 56.6586 23.2582 56.6586 23.2582C56.6586 23.2582 56.6586 23.2582 56.6586 23.3241C56.6586 23.3241 56.6586 23.3241 56.6586 23.39C56.6586 23.4559 56.6586 23.4559 56.6586 23.5218C56.6586 23.5877 56.6586 23.5877 56.7245 23.6536L56.7904 23.7195V23.7853C56.7904 23.8512 56.7904 23.8512 56.7904 23.9171C56.7904 23.983 56.7245 23.983 56.7245 23.983L56.6586 24.0489V24.1148C56.6586 24.1148 56.6586 24.1148 56.6586 24.1807V24.2466C56.6586 24.2466 56.6586 24.2466 56.6586 24.3124V24.3783V24.4442C56.6586 24.4442 56.6586 24.4442 56.5927 24.4442C56.5927 24.4442 56.5268 24.5101 56.4609 24.5101C56.4609 24.576 56.4609 24.576 56.5268 24.6419C56.5268 24.6419 56.5268 24.6419 56.5268 24.7078C56.5268 24.7078 56.5268 24.7078 56.5268 24.7737C56.5927 24.9054 56.4609 24.9054 56.395 24.9713C56.395 25.3008 56.395 25.4325 56.395 25.5643C56.395 25.6302 56.3292 25.6302 56.3292 25.6302L56.1974 25.6961L56.7245 44.474C38.6713 45.3305 16.9285 45.0011 2.3674 44.474C2.30151 44.474 2.30151 44.474 2.30151 44.4081L2.23562 44.3422C2.16974 44.2763 2.16974 44.2763 2.10385 44.2104C2.10385 44.2104 2.03796 44.1445 2.03796 44.0787L1.97207 44.0128L1.90619 43.9469C1.90619 43.9469 1.90619 43.9469 1.8403 43.881C1.8403 43.881 1.8403 43.881 1.77441 43.8151L1.70853 43.7492L1.64264 43.6833C1.64264 43.6174 1.57675 43.5516 1.57675 43.5516L1.51086 43.4857L1.44498 43.4198C1.44498 43.4198 1.44498 43.4198 1.44498 43.3539C1.44498 43.3539 1.44498 43.3539 1.44498 43.288V43.2221V43.1562V43.0903V43.0245C1.44498 43.0245 1.44498 42.9586 1.37909 42.9586C1.37909 42.9586 1.37909 42.8927 1.3132 42.8927V42.8268C1.3132 42.8268 1.3132 42.8268 1.3132 42.7609C1.3132 42.7609 1.3132 42.7609 1.3132 42.695C1.3132 42.695 1.3132 42.695 1.3132 42.6291C1.3132 42.6291 1.3132 42.6291 1.3132 42.5632C1.3132 42.4974 1.3132 42.4315 1.24731 42.3656C1.24731 42.2997 1.18143 42.2997 1.18143 42.2338C1.18143 42.1679 1.11554 42.1679 1.11554 42.102C1.11554 42.0361 1.04965 42.0361 1.04965 41.9703C1.04965 41.9703 1.04965 41.9044 0.983764 41.9044C0.983764 41.8385 0.983764 41.8385 0.983764 41.7726C0.983764 41.7067 0.917877 41.6408 0.917877 41.509C0.917877 41.4432 0.917877 41.3773 0.851989 41.3114C0.851989 41.2455 0.851989 41.1137 0.786102 41.0478L0.720215 40.9819C0.720215 40.9819 0.720215 40.9819 0.720215 40.9161C0.720215 40.9161 0.720215 40.9161 0.786102 40.8502V40.7843V40.7184V40.6525V40.5866V40.1913L0.851989 40.2572C0.851989 40.2572 0.851989 40.3231 0.917877 40.3231V40.2572V40.1913C0.917877 40.1254 0.917877 40.1254 0.917877 40.1254V40.0595V39.9936C0.917877 39.9278 0.917877 39.9278 0.917877 39.8619C0.917877 39.796 0.917877 39.796 0.917877 39.7301C0.917877 39.6642 0.917877 39.5324 0.917877 39.4665C0.917877 39.4007 0.917877 39.3348 0.983764 39.3348C0.983764 39.2689 0.983764 39.203 1.04965 39.1371C1.04965 38.9394 1.04965 38.8736 1.11554 38.6759C1.11554 38.61 1.18143 38.61 1.18143 38.5441C1.18143 38.4782 1.18143 38.4782 1.18143 38.4123C1.18143 38.3465 1.18143 38.2147 1.18143 38.1488C1.11554 37.9511 1.11554 37.7535 1.04965 37.5558L0.983764 37.4899C0.983764 37.424 0.917877 37.3581 0.917877 37.2923C0.917877 37.2264 0.851989 37.2264 0.851989 37.1605V37.0946C0.851989 37.0946 0.851989 37.0946 0.851989 37.0287C0.851989 36.9628 0.851989 36.831 0.786102 36.7652C0.720215 36.7652 0.720215 36.7652 0.654327 36.6993C0.58844 36.6993 0.58844 36.6334 0.58844 36.5675C0.58844 36.5016 0.58844 36.4357 0.58844 36.3698C0.58844 36.3039 0.58844 36.2381 0.58844 36.1063C0.58844 36.0404 0.522552 35.9745 0.522552 35.8427C0.522552 35.7768 0.522552 35.7768 0.456665 35.711C0.456665 35.711 0.456665 35.711 0.456665 35.6451C0.456665 35.6451 0.456665 35.6451 0.456665 35.5792C0.456665 35.5133 0.522552 35.4474 0.522552 35.3815C0.522552 35.3156 0.58844 35.3156 0.58844 35.2497C0.58844 35.1839 0.654327 35.1839 0.654327 35.118C0.720215 35.0521 0.720215 34.9862 0.786102 34.9203C0.786102 34.8544 0.786102 34.8544 0.786102 34.8544V34.7885C0.786102 34.7227 0.786102 34.7226 0.786102 34.6568C0.786102 34.5909 0.786102 34.5909 0.851989 34.525V34.2614C0.851989 34.2614 0.851989 34.1956 0.917877 34.1956C0.917877 34.1297 0.983764 34.0638 0.983764 33.9979V33.932C0.983764 33.8661 0.983764 33.8661 0.983764 33.8002V33.7343V33.6026C0.983764 33.5367 0.983764 33.5367 0.983764 33.4708C0.983764 33.4049 0.983764 33.339 0.983764 33.2731C0.983764 33.2072 0.983764 33.2072 1.04965 33.1414C1.04965 33.0755 1.04965 33.0755 1.11554 33.0096C1.11554 32.9437 1.11554 32.9437 1.18143 32.8778C1.18143 32.8119 1.18143 32.8119 1.18143 32.746V32.6801C1.18143 32.6143 1.18143 32.5484 1.24731 32.4825C1.24731 32.4825 1.3132 32.4166 1.3132 32.3507C1.3132 32.2848 1.37909 32.2848 1.37909 32.2189C1.44498 32.153 1.44498 32.0213 1.51086 31.9554C1.57675 31.8895 1.57675 31.8236 1.57675 31.6918C1.57675 31.6918 1.57675 31.6259 1.64264 31.6259V31.5601C1.64264 31.4942 1.64264 31.4942 1.70853 31.4283V31.3624V31.2965V31.2306V30.9671V30.8353V30.7694V30.7035V30.6376V30.5717C1.70853 30.44 1.70853 30.3741 1.77441 30.2423C1.77441 30.2423 1.77441 30.1764 1.8403 30.1764C1.8403 30.1764 1.8403 30.1764 1.90619 30.1105L1.97207 30.0446C1.97207 30.0446 1.97207 30.0446 2.03796 29.9788C2.03796 29.9788 2.03796 29.9788 2.10385 29.9788C2.10385 29.9788 2.10385 29.9788 2.16974 29.9788C2.16974 29.9788 2.16974 29.9788 2.23562 30.0446C2.23562 30.1105 2.30151 30.1105 2.30151 30.1764V30.2423C2.30151 30.3082 2.30151 30.3741 2.30151 30.3741V30.44C2.30151 30.44 2.30151 30.44 2.30151 30.5059C2.30151 30.5717 2.23562 30.5717 2.23562 30.6376C2.23562 30.6376 2.23562 30.7035 2.30151 30.7035C2.30151 30.7035 2.3674 30.7694 2.43329 30.7694H2.49917C2.49917 30.7694 2.49917 30.7694 2.49917 30.7035C2.49917 30.6376 2.49917 30.6376 2.49917 30.5717C2.49917 30.5059 2.49917 30.5059 2.49917 30.44C2.49917 30.3741 2.49917 30.3741 2.49917 30.3082V30.2423V30.1764V30.1105C2.49917 30.1105 2.49917 30.1105 2.49917 30.0446V29.9788V29.9788C2.49917 29.9788 2.43329 29.9788 2.43329 29.9129V29.847C2.43329 29.7811 2.43329 29.7811 2.43329 29.7152C2.43329 29.7152 2.43329 29.6493 2.49917 29.6493C2.49917 29.6493 2.49917 29.5834 2.56506 29.5834C2.56506 29.5834 2.56506 29.5834 2.63095 29.5175L2.69684 29.4517L2.76272 29.3858C2.76272 29.3858 2.76272 29.3858 2.82861 29.3199C2.8945 29.3199 2.8945 29.254 2.96039 29.254C3.02627 29.254 3.02627 29.254 3.09216 29.254C3.09216 29.3199 3.15805 29.3199 3.15805 29.3858C3.15805 29.3858 3.15805 29.4517 3.22393 29.3858C3.22393 29.3858 3.22393 29.3858 3.28982 29.3199C3.28982 29.254 3.28982 29.254 3.28982 29.1881C3.28982 29.1222 3.28982 29.1222 3.22393 29.0563C3.22393 29.0563 3.22393 28.9904 3.15805 28.9904C3.15805 28.9904 3.15805 28.9904 3.09216 28.9904C3.02627 28.9904 3.02627 28.9904 2.96039 28.9904C2.8945 28.9904 2.8945 29.0563 2.8945 29.0563C2.8945 29.0563 2.8945 29.0563 2.82861 29.1222L2.76272 29.1881C2.76272 29.1881 2.69684 29.1881 2.69684 29.254C2.69684 29.254 2.69684 29.254 2.63095 29.3199C2.63095 29.3199 2.63095 29.3199 2.56506 29.3858C2.56506 29.3858 2.56506 29.3199 2.63095 29.3199V29.254C2.63095 29.1881 2.63095 29.1222 2.63095 29.1222V29.0563V28.9904C2.63095 28.9904 2.63095 28.9246 2.69684 28.9246V28.8587C2.69684 28.7928 2.76272 28.7928 2.76272 28.7269V28.661C2.76272 28.661 2.76272 28.661 2.76272 28.5951V28.5292V28.3316V28.2657V28.1998C2.76272 28.1339 2.76272 28.1339 2.82861 28.068V28.0021C2.82861 28.0021 2.82861 28.0021 2.82861 27.9362C2.82861 27.8704 2.8945 27.8704 2.8945 27.8045V27.6727V27.6068V27.5409C2.8945 27.5409 2.8945 27.475 2.96039 27.475V27.4091V27.3433L3.02627 27.2774V27.2115C3.02627 27.1456 3.09216 27.1456 3.09216 27.0797C3.09216 27.0138 3.15805 26.8821 3.15805 26.8162C3.15805 26.7503 3.15805 26.7503 3.15805 26.6844C3.15805 26.6844 3.22393 26.6185 3.15805 26.5526C3.15805 26.5526 3.22393 26.5526 3.22393 26.4867H3.28982C3.35571 26.4867 3.35571 26.4208 3.4216 26.4208C3.48748 26.355 3.48748 26.2891 3.55337 26.1573C3.55337 26.0914 3.61926 26.0914 3.61926 26.0255C3.61926 25.9596 3.55337 26.0255 3.55337 26.0255L3.48748 26.0914C3.48748 26.0914 3.4216 26.0914 3.4216 26.1573C3.4216 26.1573 3.4216 26.1573 3.35571 26.1573C3.35571 26.0914 3.35571 26.0914 3.35571 26.0255V25.9596V25.8937C3.35571 25.8279 3.35571 25.8279 3.35571 25.762C3.35571 25.6961 3.35571 25.6302 3.35571 25.6302V25.5643V25.4984V25.4325V25.3666C3.35571 25.3666 3.35571 25.3666 3.35571 25.3008C3.35571 25.3008 3.35571 25.2349 3.35571 25.169C3.35571 25.1031 3.35571 25.0372 3.35571 24.9713C3.35571 24.9054 3.35571 24.9054 3.35571 24.8395V24.7737C3.35571 24.7078 3.35571 24.7078 3.35571 24.6419V24.576C3.35571 24.5101 3.35571 24.5101 3.35571 24.4442C3.35571 24.4442 3.35571 24.4442 3.35571 24.3783C3.35571 24.3783 3.35571 24.3783 3.35571 24.3124V24.2466C3.35571 24.1807 3.35571 24.1807 3.35571 24.1148C3.35571 24.1148 3.35571 24.1148 3.35571 24.0489V23.7195V23.6536V23.5877C3.35571 23.5218 3.35571 23.5218 3.35571 23.4559C3.35571 23.39 3.35571 23.39 3.4216 23.3241V23.2582V23.1924C3.4216 23.1265 3.48748 23.0606 3.48748 22.9947V22.9288V22.8629L3.55337 22.9288L3.61926 22.9947C3.68515 22.9947 3.61926 22.8629 3.61926 22.8629C3.61926 22.797 3.61926 22.7311 3.55337 22.7311V22.6653C3.55337 22.6653 3.55337 22.6653 3.55337 22.5994C3.55337 22.5994 3.55337 22.5994 3.48748 22.5994V22.4017C3.48748 22.3358 3.48748 22.3358 3.48748 22.2699C3.48748 22.204 3.48748 22.204 3.48748 22.1382V22.0723C3.48748 21.9405 3.48748 21.8087 3.55337 21.6769V21.6111V21.5452C3.55337 21.4793 3.55337 21.4793 3.61926 21.4134C3.61926 21.4134 3.61926 21.3475 3.68515 21.3475V21.2816V21.2157V21.084C3.68515 21.0181 3.68515 21.0181 3.68515 20.9522V20.8863C3.68515 20.8204 3.68515 20.7545 3.68515 20.7545C3.68515 20.6886 3.68515 20.6228 3.68515 20.5569C3.68515 20.491 3.68515 20.4251 3.68515 20.3592C3.68515 20.2933 3.68515 20.2274 3.68515 20.1615C3.68515 20.0956 3.68515 20.0957 3.68515 20.0298C3.68515 19.9639 3.75103 19.898 3.75103 19.8321C3.75103 19.7662 3.81692 19.7003 3.81692 19.7003C3.81692 19.5686 3.81692 19.5027 3.81692 19.3709C3.81692 19.305 3.81692 19.305 3.81692 19.2391C3.81692 19.1732 3.81692 19.1732 3.81692 19.1073V19.0415C3.88281 19.0415 3.88281 19.0415 3.9487 19.0415C4.01458 19.0415 4.01458 19.0415 4.08047 19.0415C4.08047 19.0415 4.08047 19.0415 4.14636 18.9756H4.34402C4.40991 18.9756 4.47579 18.9756 4.47579 18.9756C4.47579 18.9756 4.47579 18.9756 4.47579 18.9097C4.47579 18.9097 4.47579 18.9097 4.47579 18.8438C4.47579 18.8438 4.4758 18.7779 4.40991 18.7779L4.34402 18.5144H4.27813H4.21225V18.4485C4.21225 18.3826 4.21225 18.3826 4.21225 18.3167C4.21225 18.2508 4.21225 18.1849 4.21225 18.119V18.0531V17.9873V17.9214V17.8555C4.21225 17.7896 4.21225 17.7896 4.21225 17.7237C4.21225 17.6578 4.21225 17.5919 4.21225 17.526C4.21225 17.3943 4.27813 17.3284 4.27813 17.2625C4.27813 17.1966 4.27813 17.1966 4.34402 17.1307C4.34402 17.1307 4.40991 17.0648 4.34402 16.9989C4.34402 16.9989 4.34402 16.9989 4.40991 16.9989H4.47579L4.54168 17.0648H4.60757C4.60757 17.0648 4.60757 17.0648 4.67346 16.9989C4.67346 16.9331 4.67346 16.9331 4.67346 16.8672C4.67346 16.8013 4.67346 16.8013 4.60757 16.8013C4.60757 16.8013 4.60757 16.8013 4.54168 16.7354C4.54168 16.7354 4.47579 16.7354 4.47579 16.6695H4.40991C4.40991 16.6695 4.34402 16.6695 4.34402 16.6036C4.34402 16.6036 4.34402 16.5377 4.27813 16.5377V16.4718V16.406C4.27813 16.3401 4.21225 16.3401 4.21225 16.3401V16.2742V16.2083V16.1424C4.21225 16.0765 4.27813 16.0765 4.27813 16.0106C4.27813 16.0106 4.27813 15.9447 4.27813 15.8789C4.27813 15.813 4.27813 15.813 4.27813 15.7471V15.6812C4.27813 15.6812 4.27813 15.6812 4.27813 15.6153C4.27813 15.5494 4.27813 15.5494 4.27813 15.4835C4.27813 15.4176 4.27813 15.4176 4.27813 15.3518C4.27813 15.2859 4.27813 15.2859 4.27813 15.22V15.1541V15.0882V15.0223V14.9564V14.8905C4.27813 14.8247 4.27813 14.7588 4.34402 14.7588C4.34402 14.6929 4.40991 14.6929 4.40991 14.627C4.40991 14.5611 4.40991 14.4952 4.40991 14.4952C4.40991 14.4293 4.40991 14.4293 4.47579 14.3634C4.47579 14.2976 4.4758 14.2317 4.54168 14.2317V13.8363V13.7705V13.7046V13.6387C4.54168 13.6387 4.54168 13.7046 4.60757 13.7046H4.67346V13.5728C4.67346 13.5069 4.60757 13.441 4.60757 13.3751C4.60757 13.3093 4.60757 13.2434 4.60757 13.1775C4.60757 13.1116 4.60757 13.1116 4.60757 13.0457C4.60757 12.9798 4.60757 12.9798 4.60757 12.9139C4.60757 12.848 4.60757 12.7822 4.60757 12.7163C4.60757 12.6504 4.60757 12.5845 4.60757 12.5186C4.60757 12.4527 4.60757 12.4527 4.60757 12.3868V12.3209V12.2551C4.60757 12.1892 4.60757 12.1233 4.60757 12.0574V11.8597C4.60757 11.8597 4.60757 11.8597 4.60757 11.7938C4.60757 11.7938 4.60757 11.728 4.67346 11.728C4.67346 11.728 4.67346 11.728 4.73934 11.6621L4.80523 11.5962C4.80523 11.5303 4.87112 11.5303 4.87112 11.4644V11.3985C4.87112 11.3326 4.87112 11.2667 4.93701 11.2009L5.00289 11.135C5.00289 11.135 5.06878 11.135 5.06878 11.0691C5.06878 11.0691 5.06878 11.0691 5.13467 11.0032V10.9373C5.13467 10.9373 5.13467 10.9373 5.13467 10.8714V10.8055L5.20056 10.8714V10.8055C5.20056 10.7396 5.26644 10.7396 5.20056 10.6738C5.20056 10.6079 5.20056 10.6079 5.13467 10.6079L5.06878 10.542H5.00289C5.00289 10.542 5.00289 10.542 5.00289 10.6079C5.00289 10.6079 5.00289 10.6738 4.93701 10.6738C4.93701 10.7396 4.87112 10.7396 4.87112 10.8055C4.87112 10.8055 4.87112 10.7396 4.87112 10.6738C4.87112 10.6079 4.87112 10.6079 4.87112 10.542C4.87112 10.4761 4.87112 10.4761 4.87112 10.4102C4.87112 10.4102 4.87112 10.3443 4.87112 10.2784V10.2125V10.1467C4.87112 10.0808 4.87112 10.0808 4.93701 10.0149L5.00289 9.94899L5.06878 9.88311C5.06878 9.88311 5.13467 9.88311 5.13467 9.81722C5.13467 9.81722 5.13467 9.81722 5.20056 9.81722C5.20056 9.81722 5.20056 9.81722 5.26644 9.81722C5.26644 9.81722 5.26644 9.75133 5.33233 9.75133V9.68545C5.33233 9.68545 5.33233 9.68545 5.33233 9.61956C5.33233 9.55367 5.26644 9.55367 5.26644 9.55367C5.20056 9.55367 5.20056 9.55367 5.20056 9.61956L5.13467 9.68545V9.61956V9.55367C5.13467 9.48778 5.13467 9.4219 5.13467 9.35601L5.06878 9.29012H5.00289C5.00289 9.29012 4.93701 9.29012 4.93701 9.22423C4.93701 9.22423 4.93701 9.22423 4.93701 9.15835L5.00289 9.09246L5.06878 9.02657C5.06878 9.02657 5.06878 9.02657 5.06878 8.96068C5.06878 8.96068 5.13467 8.96068 5.13467 8.8948C5.13467 8.8948 5.20056 8.82891 5.20056 8.76302C5.20056 8.69713 5.20056 8.69713 5.20056 8.63125C5.20056 8.56536 5.26644 8.49947 5.20056 8.43358L5.26644 8.49947C5.33233 8.49947 5.33233 8.49947 5.33233 8.43358V8.3677C5.33233 8.30181 5.33233 8.30181 5.26644 8.30181C5.26644 8.30181 5.26644 8.30181 5.26644 8.23592C5.26644 8.23592 5.26644 8.23592 5.20056 8.17003L5.13467 8.10415C5.06878 8.03826 5.06878 7.97237 5.06878 7.90649C5.06878 7.8406 5.13467 7.77471 5.13467 7.70882C5.13467 7.70882 5.13467 7.64294 5.20056 7.64294H5.26644C5.33233 7.64294 5.39822 7.77471 5.46411 7.77471C5.52999 7.77471 5.52999 7.8406 5.52999 7.8406C5.52999 7.8406 5.52999 7.8406 5.59588 7.8406C5.59588 7.8406 5.59588 7.90649 5.66177 7.90649V7.8406V7.77471V7.70882V7.64294C5.66177 7.57705 5.66177 7.57705 5.59588 7.51116C5.59588 7.44527 5.52999 7.44527 5.52999 7.37939C5.52999 7.3135 5.52999 7.3135 5.52999 7.24761C5.52999 7.18172 5.52999 7.18172 5.52999 7.11584C5.52999 7.04995 5.52999 6.98406 5.52999 6.98406C5.52999 6.91818 5.52999 6.91817 5.52999 6.85229C5.52999 6.91817 5.39822 6.91817 5.33233 6.91817C5.26644 6.91817 5.26644 6.91817 5.26644 6.85229C5.26644 6.7864 5.26644 6.7864 5.26644 6.72051C5.26644 6.65463 5.26644 6.65463 5.26644 6.58874C5.26644 6.52285 5.33233 6.52285 5.33233 6.45696C5.33233 6.39108 5.33233 6.2593 5.39822 6.19341C5.39822 6.12753 5.46411 6.12753 5.46411 6.12753C5.52999 6.06164 5.52999 6.06164 5.52999 5.99575C5.52999 5.92986 5.52999 5.79809 5.52999 5.7322C5.52999 5.66632 5.46411 5.66631 5.46411 5.60043C5.46411 5.60043 5.39822 5.53454 5.39822 5.46865C5.39822 5.40276 5.33233 5.40277 5.33233 5.33688C5.26644 5.27099 5.26644 5.27099 5.26644 5.2051C5.26644 5.13922 5.26644 5.13922 5.20056 5.07333C5.20056 5.00744 5.13467 5.00744 5.13467 4.94155C5.13467 4.87567 5.13467 4.87567 5.13467 4.80978C5.13467 4.74389 5.13467 4.74389 5.20056 4.678C5.26644 4.48034 5.26644 4.34857 5.26644 4.08502C5.26644 4.01913 5.33233 3.88735 5.33233 3.82147V3.75558V3.68969C5.33233 3.62381 5.33233 3.62381 5.33233 3.55792C5.33233 3.49203 5.33233 3.42614 5.26644 3.36026C5.26644 3.29437 5.20056 3.16259 5.26644 3.16259C5.26644 3.09671 5.33233 3.09671 5.39822 3.09671C5.46411 3.09671 5.46411 3.03082 5.52999 3.03082C5.59588 2.96493 5.59588 2.89904 5.59588 2.89904C5.59588 2.83316 5.66177 2.76727 5.66177 2.70138C5.72765 2.56961 5.66177 2.50372 5.66177 2.37195V2.30606V2.24017C5.66177 2.17428 5.66177 2.17428 5.66177 2.1084C5.66177 1.97662 5.59588 1.91073 5.59588 1.77896C5.59588 1.71307 5.59588 1.64718 5.52999 1.64718C5.52999 1.5813 5.46411 1.5813 5.46411 1.51541C5.39822 1.38363 5.39822 1.31775 5.26644 1.25186C5.20056 1.18597 5.13467 1.12009 5.06878 1.0542C5.00289 1.0542 5.00289 0.98831 5.00289 0.922423C5.00289 0.856536 5.00289 0.856536 5.00289 0.790649C5.00289 0.658874 5.06878 0.592986 5.13467 0.592986L5.20056 0.658874V0V0.0658876L5.26644 0.131775C5.26644 0.131775 5.33233 0.197662 5.39822 0.197662C5.46411 0.197662 5.52999 0.263549 5.59588 0.263549C5.66177 0.263549 5.66177 0.26355 5.66177 0.329437C5.66177 0.329437 5.66177 0.395325 5.66177 0.461212C5.72765 0.461212 5.79354 0.461212 5.79354 0.461212C5.85943 0.461212 5.85943 0.592986 5.85943 0.592986C5.85943 0.658874 5.85943 0.724761 5.85943 0.724761C5.85943 0.724761 5.85943 0.724762 5.85943 0.790649C5.85943 0.790649 5.85943 0.790648 5.85943 0.856535L5.92532 0.922423C5.9912 0.922423 5.9912 0.856536 6.05709 0.790649C6.05709 0.724762 6.12298 0.724761 6.18887 0.658874C6.25475 0.658874 6.32064 0.592986 6.38653 0.658874V0.724761C6.38653 0.790649 6.38653 0.790648 6.38653 0.856535C6.38653 0.922423 6.38653 0.922423 6.38653 0.988311C6.38653 1.0542 6.38653 1.0542 6.38653 1.12009C6.38653 1.18597 6.45242 1.18597 6.5183 1.18597C6.58419 1.18597 6.58419 1.12009 6.58419 1.12009C6.58419 1.0542 6.58419 1.0542 6.5183 0.988311V0.922423V0.856535C6.5183 0.790648 6.5183 0.790649 6.5183 0.724761C6.5183 0.658874 6.5183 0.658874 6.45242 0.592986C6.38653 0.527099 6.25475 0.461212 6.18887 0.395325L6.12298 0.329437H6.05709C5.9912 0.329437 5.9912 0.263549 6.05709 0.197662C6.12298 0.197662 6.12298 0.197662 6.18887 0.197662C6.25475 0.197662 6.25475 0.197662 6.32064 0.197662C6.38653 0.197662 6.38653 0.197662 6.45242 0.197662H6.5183C6.58419 0.197662 6.58419 0.197662 6.58419 0.197662C6.58419 0.263549 6.58419 0.26355 6.65008 0.329437C6.71597 0.395324 6.71597 0.395325 6.78185 0.395325C6.84774 0.395325 6.84774 0.461212 6.91363 0.461212C6.97951 0.461212 7.0454 0.461212 7.0454 0.461212C7.0454 0.461212 7.11129 0.461212 7.17718 0.461212C7.24307 0.461212 7.24306 0.461212 7.30895 0.461212C7.37484 0.461212 7.37484 0.461212 7.44073 0.461212C7.50661 0.461212 7.50661 0.395325 7.5725 0.395325C7.63839 0.395325 7.63839 0.461212 7.70428 0.461212C7.77016 0.461212 7.77016 0.461212 7.83605 0.461212C7.90194 0.395325 7.90194 0.329437 8.03371 0.329437C8.0996 0.329437 8.16549 0.395324 8.29726 0.329437C8.36315 0.26355 8.29726 0.263549 8.29726 0.197662C8.29726 0.197662 8.23137 0.197663 8.23137 0.131775C8.23137 0.131775 8.16549 0.131775 8.16549 0.0658876C8.16549 2.50359e-07 8.36315 0 8.36315 0C8.42904 0 8.42904 2.50359e-07 8.49492 0.0658876C8.56081 0.0658876 8.56081 0.0658879 8.6267 0.131775C8.6267 0.131775 8.6267 0.197662 8.69259 0.197662C8.69259 0.197662 8.75847 0.197662 8.75847 0.263549C8.75847 0.263549 8.82436 0.329437 8.82436 0.395325C8.82436 0.461212 8.82436 0.461211 8.82436 0.527099C8.82436 0.592986 8.82436 0.592986 8.89025 0.658874C8.95614 0.724761 8.95614 0.856535 9.08791 0.856535C9.1538 0.856535 9.21969 0.856535 9.21969 0.856535C9.28557 0.856535 9.28557 0.856535 9.35146 0.856535C9.41735 0.856535 9.41735 0.856535 9.48323 0.856535H9.54912H9.61501C9.6809 0.856535 9.6809 0.922423 9.74678 0.988311C9.81267 1.0542 9.81267 1.0542 9.87856 1.0542C9.94445 1.0542 9.94445 1.0542 10.0103 1.0542C10.0762 1.0542 10.0762 1.0542 10.1421 0.988311C10.208 0.988311 10.2739 0.922423 10.3398 0.856535C10.3398 0.790648 10.3398 0.790649 10.4057 0.724761C10.4715 0.724761 10.4715 0.724761 10.5374 0.724761C10.6033 0.724761 10.6033 0.724761 10.6692 0.724761C10.7351 0.724761 10.7351 0.724762 10.801 0.790649C10.8669 0.790649 10.9328 0.790649 11.0645 0.790649C11.1304 0.790649 11.1304 0.790649 11.1963 0.790649C11.2622 0.790649 11.2622 0.856535 11.3281 0.856535L11.394 0.922423C11.394 0.98831 11.5257 1.0542 11.5916 1.0542C11.6575 1.12009 11.7234 1.18597 11.7893 1.18597C11.8552 1.18597 11.8552 1.18597 11.9211 1.25186C11.987 1.25186 11.987 1.31775 11.987 1.31775L12.0528 1.38364C12.1187 1.38364 12.1187 1.44952 12.1846 1.44952C12.1846 1.44952 12.2505 1.44952 12.3164 1.44952C12.3823 1.44952 12.3823 1.44952 12.4482 1.51541C12.5141 1.51541 12.5141 1.5813 12.5141 1.5813C12.5141 1.5813 12.5141 1.64718 12.5799 1.64718C12.5799 1.71307 12.5799 1.71307 12.5799 1.77896C12.5799 1.84485 12.5799 1.84485 12.5799 1.91073C12.5799 1.97662 12.5799 1.97662 12.5799 2.04251C12.5799 2.1084 12.5799 2.1084 12.5799 2.17428C12.5799 2.24017 12.6458 2.30606 12.6458 2.30606C12.7117 2.37195 12.7117 2.43783 12.7776 2.50372C12.8435 2.56961 12.8435 2.56961 12.9094 2.6355V2.70138V2.76727C12.9094 2.83316 12.9753 2.83316 12.9753 2.89904C12.9753 2.96493 12.9753 2.96493 12.9753 2.96493V3.03082V3.29437C12.9753 3.36026 12.9753 3.36026 12.9753 3.42614V3.49203C12.9753 3.55792 12.9753 3.62381 13.0412 3.68969V3.75558C13.0412 3.82147 12.9753 3.82147 12.9753 3.82147L13.5683 3.95324C13.5683 4.01913 13.5024 4.01913 13.5024 4.01913L13.4365 4.08502V4.1509V4.21679C13.4365 4.28268 13.5024 4.21679 13.5024 4.21679C13.5024 4.21679 13.5024 4.1509 13.5683 4.1509C13.5683 4.1509 13.5683 4.08502 13.6341 4.08502C13.6341 4.01913 13.7 4.01913 13.7 4.01913C13.7 4.01913 13.7 4.01913 13.7 3.95324C13.7 3.95324 13.7 3.95324 13.7 3.88736C13.7 3.88736 13.7 3.82147 13.7659 3.82147C13.7659 3.82147 13.8318 3.82147 13.8318 3.88736C13.8318 3.95324 13.8318 3.95324 13.8318 4.01913V4.08502C13.8318 4.08502 13.8318 4.08502 13.8318 4.1509C13.8318 4.21679 13.8318 4.21679 13.8318 4.28268C13.8318 4.34857 13.8977 4.41445 13.8977 4.54623C13.8977 4.61212 13.8977 4.61212 13.9636 4.678C13.9636 4.678 13.9636 4.678 13.9636 4.74389C13.9636 4.74389 13.9636 4.74389 13.9636 4.80978C13.9636 4.87567 14.0295 4.94155 14.0295 5.00744C14.0295 5.07333 14.0954 5.2051 14.0954 5.27099C14.0954 5.33688 14.0954 5.33688 14.0295 5.40277C14.0295 5.46865 14.0295 5.46865 14.0295 5.53454C14.0295 5.60043 14.0295 5.60043 14.0295 5.66631C14.0295 5.7322 14.0295 5.7322 14.0295 5.79809V5.86398C14.0295 5.86398 14.0295 5.86398 14.0295 5.92986C14.0295 5.92986 14.0295 5.99575 13.9636 5.99575C13.9636 5.99575 13.8977 5.99575 13.8977 6.06164V6.12753C13.8977 6.12753 13.8977 6.12753 13.8977 6.19341C13.8977 6.2593 13.8977 6.2593 13.8977 6.32519C13.8977 6.39108 13.9636 6.39108 13.9636 6.39108L14.0295 6.45696C14.0295 6.45696 14.0954 6.52285 14.1612 6.45696C14.1612 6.45696 14.1612 6.45696 14.1612 6.39108V6.32519C14.1612 6.32519 14.1612 6.32519 14.0954 6.2593C14.0954 6.2593 14.0954 6.2593 14.0295 6.19341C14.0295 6.19341 13.9636 6.12753 13.9636 6.06164V5.99575C13.9636 5.99575 14.0295 5.99575 14.0295 5.92986C14.0295 5.92986 14.0954 5.86398 14.1612 5.86398C14.2271 5.86398 14.2271 5.92986 14.2271 5.92986V5.99575C14.2271 5.99575 14.2271 5.99575 14.293 6.06164H14.3589C14.3589 6.06164 14.3589 6.06164 14.4248 6.12753C14.4248 6.12753 14.4907 6.19341 14.5566 6.19341C14.6225 6.19341 14.6225 6.2593 14.6883 6.32519C14.6883 6.32519 14.6883 6.39108 14.7542 6.39108H14.886H14.9519H15.0178H15.0837H15.1495L15.2154 6.45696H15.2813C15.3472 6.45696 15.3472 6.45696 15.4131 6.45696C15.479 6.45696 15.479 6.45696 15.479 6.52285L15.5449 6.58874C15.5449 6.58874 15.5449 6.58874 15.6108 6.65463C15.6108 6.65463 15.6766 6.65463 15.6766 6.72051L15.7425 6.7864C15.8084 6.7864 15.8084 6.7864 15.8743 6.7864H15.9402H16.0061C16.0061 6.7864 16.0061 6.7864 16.072 6.7864C16.072 6.7864 16.072 6.7864 16.1379 6.7864C16.2037 6.7864 16.2037 6.7864 16.2696 6.7864C16.3355 6.7864 16.4014 6.7864 16.4673 6.7864H16.5332H16.5991H16.665C16.7308 6.7864 16.7308 6.7864 16.7967 6.7864H16.8626C16.8626 6.7864 16.8626 6.7864 16.9285 6.7864C16.9944 6.7864 16.9944 6.7864 16.9944 6.7864C16.9944 6.7864 17.0603 6.7864 17.0603 6.85229L17.1262 6.91817L17.1921 6.98406C17.2579 6.98406 17.3238 6.98406 17.3238 6.98406C17.3238 6.98406 17.3897 6.98406 17.3897 6.91817H17.4556C17.5215 6.91817 17.5874 6.91817 17.6533 6.91817C17.7192 6.91817 17.785 6.91817 17.8509 6.91817C17.9168 6.91817 17.9168 6.91817 17.9168 6.85229C17.9168 6.85229 17.9168 6.7864 17.9827 6.7864L18.0486 6.72051C18.1145 6.72051 18.1145 6.72051 18.1145 6.72051H18.1804H18.2463C18.3121 6.72051 18.3121 6.72051 18.378 6.65463C18.378 6.65463 18.4439 6.65463 18.4439 6.58874H18.5098C18.5098 6.58874 18.5098 6.58874 18.5757 6.58874C18.5757 6.58874 18.5757 6.58874 18.6416 6.58874H18.7075C18.7734 6.58874 18.7734 6.52285 18.8392 6.52285L18.9051 6.45696C18.971 6.45696 19.0369 6.39108 19.1028 6.39108C19.1687 6.39108 19.1687 6.39108 19.2346 6.39108C19.3005 6.39108 19.3005 6.39108 19.3663 6.32519C19.4322 6.32519 19.4322 6.2593 19.4981 6.2593C19.564 6.19341 19.564 6.12753 19.6299 6.12753L19.6958 6.06164L19.7617 5.99575C19.8276 5.92986 19.8934 5.92986 19.9593 5.86398L20.0252 5.79809L20.0911 5.7322C20.157 5.66632 20.157 5.60043 20.2229 5.60043L20.2888 5.53454C20.3547 5.53454 20.3547 5.53454 20.4205 5.53454C20.4864 5.53454 20.5523 5.46865 20.6182 5.53454H20.6841C20.75 5.53454 20.8159 5.53454 20.8817 5.53454C20.9476 5.53454 20.9476 5.53454 20.9476 5.53454H21.4747C21.4747 5.53454 21.4747 5.53454 21.5406 5.53454C21.6065 5.53454 21.6724 5.53454 21.7383 5.53454H21.8042H21.8701C21.9359 5.53454 22.0018 5.53454 22.0677 5.46865H22.1336H22.1995H22.2654H22.3313C22.3972 5.46865 22.463 5.46865 22.5289 5.40277H22.5948H22.6607C22.7266 5.40277 22.7925 5.40277 22.7925 5.40277C22.8584 5.40277 22.8584 5.33688 22.9243 5.33688C22.9901 5.33688 23.056 5.40277 23.1219 5.40277C23.1878 5.40277 23.1878 5.46865 23.2537 5.46865C23.2537 5.46865 23.3196 5.53454 23.3855 5.53454H23.4514H23.5172C23.5831 5.53454 23.5831 5.53454 23.649 5.53454H23.7149C23.7808 5.53454 23.7808 5.53454 23.7808 5.46865C23.8467 5.40276 23.9126 5.40277 23.9785 5.40277H24.0443H24.1102C24.1761 5.40277 24.1761 5.40277 24.242 5.40277C24.3079 5.40277 24.3079 5.40276 24.3738 5.46865C24.3738 5.46865 24.3738 5.53454 24.4397 5.53454C24.5056 5.60043 24.5714 5.66631 24.6373 5.66631C24.7032 5.66631 24.7032 5.66632 24.7691 5.7322C24.835 5.7322 24.835 5.79809 24.835 5.86398V5.92986V5.99575C24.835 5.99575 24.835 5.99575 24.835 6.06164C24.835 6.06164 24.835 6.12753 24.9009 6.12753C24.9668 6.19341 24.9668 6.19341 25.0327 6.2593H25.0985H25.428C25.4939 6.2593 25.5598 6.2593 25.6256 6.19341C25.6915 6.12753 25.7574 6.12753 25.7574 6.06164L25.8233 5.99575V5.92986C25.8233 5.92986 25.8233 5.86398 25.8892 5.86398L25.9551 5.79809H26.0869C26.0869 5.79809 26.0869 5.79809 26.1527 5.79809H26.2186C26.2186 5.79809 26.2186 5.79809 26.2845 5.79809C26.2845 5.79809 26.2845 5.79809 26.3504 5.79809H26.4163H26.4822C26.5481 5.79809 26.5481 5.79809 26.614 5.79809C26.6798 5.79809 26.6798 5.79809 26.7457 5.79809C26.8116 5.79809 26.8116 5.79809 26.8775 5.79809C26.8775 5.79809 26.9434 5.79809 26.9434 5.86398L27.0093 5.92986C27.0752 5.92986 27.0752 5.92986 27.1411 5.92986H27.2069H27.2728C27.2728 5.92986 27.3387 5.92986 27.4046 5.92986H27.4705C27.4705 5.92986 27.4705 5.92986 27.5364 5.92986C27.6023 5.86398 27.6682 5.79809 27.734 5.7322C27.7999 5.66632 27.8658 5.66631 27.9976 5.66631C28.0635 5.66631 28.0635 5.66631 28.1294 5.66631C28.1952 5.66631 28.1952 5.66631 28.2611 5.66631C28.327 5.66631 28.327 5.66631 28.3929 5.66631C28.3929 5.66631 28.3929 5.66631 28.4588 5.66631H28.7223C28.7223 5.66631 28.7882 5.66631 28.7882 5.60043C28.8541 5.60043 28.8541 5.60043 28.92 5.53454C28.9859 5.46865 29.0518 5.46865 29.1177 5.40277C29.1177 5.40277 29.1836 5.33688 29.2494 5.33688C29.3153 5.33688 29.3153 5.33688 29.3812 5.33688H29.4471H29.513C29.513 5.33688 29.513 5.33688 29.5789 5.33688C29.5789 5.33688 29.5789 5.33688 29.6448 5.33688C29.7107 5.33688 29.7107 5.40276 29.7765 5.46865C29.7765 5.46865 29.7765 5.46865 29.8424 5.53454C29.8424 5.53454 29.8424 5.53454 29.9083 5.53454L29.9742 5.60043C29.9742 5.60043 30.0401 5.60043 30.0401 5.66631C30.106 5.66631 30.106 5.7322 30.1719 5.7322C30.2378 5.7322 30.3036 5.79809 30.3695 5.79809C30.4354 5.79809 30.5013 5.79809 30.5672 5.79809H30.6331C30.699 5.79809 30.699 5.79809 30.699 5.79809C30.7649 5.79809 30.7649 5.79809 30.8307 5.79809H30.8966C31.0284 5.79809 31.1602 5.7322 31.292 5.7322C31.292 5.7322 31.292 5.7322 31.3578 5.7322H31.4237H31.4896C31.5555 5.7322 31.6214 5.7322 31.6873 5.66631C31.7532 5.66631 31.8191 5.66631 31.8849 5.60043C31.9508 5.60043 32.0167 5.53454 32.0826 5.53454C32.1485 5.53454 32.1485 5.53454 32.2144 5.53454C32.2803 5.53454 32.2803 5.53454 32.3462 5.53454C32.412 5.53454 32.4779 5.60043 32.5438 5.53454C32.6097 5.53454 32.6097 5.53454 32.6756 5.46865C32.7415 5.46865 32.7415 5.40277 32.8074 5.40277C32.8074 5.40277 32.8074 5.33688 32.8733 5.33688V5.27099C32.8733 5.2051 32.9391 5.13922 33.005 5.13922C33.0709 5.13922 33.0709 5.07333 33.1368 5.07333H33.2027H33.2686C33.2686 5.07333 33.2686 5.07333 33.3345 5.07333H33.4004H33.4662H33.5321C33.598 5.07333 33.598 5.07333 33.6639 5.07333H33.7298C33.7298 5.07333 33.7298 5.07333 33.7957 5.07333C33.8616 5.00744 33.9275 5.00744 33.9933 4.94155C33.9933 4.87567 34.0592 4.87567 34.0592 4.80978L34.1251 4.74389C34.191 4.74389 34.191 4.74389 34.2569 4.74389C34.2569 4.74389 34.2569 4.74389 34.3228 4.74389H34.3887C34.3887 4.74389 34.4546 4.74389 34.5204 4.74389H34.5863C34.6522 4.74389 34.7181 4.74389 34.784 4.74389H34.8499H34.9158C34.9158 4.74389 34.9158 4.74389 34.9816 4.74389C34.9816 4.74389 34.9816 4.74389 35.0475 4.74389C35.0475 4.74389 35.1134 4.74389 35.1134 4.678H35.1793C35.1793 4.678 35.1793 4.678 35.2452 4.678C35.2452 4.678 35.2452 4.678 35.3111 4.678C35.3111 4.678 35.3111 4.678 35.377 4.678H35.4429H35.97C36.0358 4.678 36.0358 4.678 36.1017 4.678H36.1676H36.2335H36.2994H36.3653H36.4312C36.4312 4.678 36.4312 4.678 36.4971 4.678C36.4971 4.678 36.4971 4.678 36.5629 4.678H36.6288H36.6947C36.7606 4.678 36.7606 4.678 36.8265 4.678L36.8924 4.61212C36.8924 4.61212 36.8924 4.61212 36.8924 4.54623C36.8924 4.54623 36.8924 4.54623 36.8924 4.48034C36.8924 4.41445 36.9583 4.34857 37.0242 4.28268C37.0242 4.28268 37.0242 4.28268 37.0242 4.21679C37.0242 4.21679 37.0242 4.21679 37.09 4.21679L37.1559 4.1509C37.1559 4.1509 37.2218 4.15091 37.2218 4.08502C37.2877 4.08502 37.2877 4.08502 37.2877 4.08502C37.2877 4.08502 37.2877 4.08502 37.3536 4.08502C37.3536 4.08502 37.3536 4.08502 37.4195 4.1509C37.4195 4.1509 37.4195 4.1509 37.4854 4.1509H37.5513H37.6171C37.6171 4.1509 37.683 4.1509 37.683 4.21679H37.7489H37.9466C38.0125 4.21679 38.0125 4.21679 38.0784 4.21679C38.1442 4.21679 38.1442 4.21679 38.2101 4.21679C38.276 4.21679 38.276 4.21679 38.3419 4.21679H38.4078H38.4737C38.5396 4.21679 38.5396 4.21679 38.6055 4.21679C38.6055 4.21679 38.6055 4.21679 38.6713 4.21679H38.7372H38.8031H38.869C38.9349 4.21679 39.0008 4.21679 39.0667 4.21679C39.1326 4.21679 39.2643 4.1509 39.3302 4.1509C39.462 4.1509 39.5279 4.08502 39.6597 4.08502C39.7255 4.08502 39.7914 4.08502 39.8573 4.01913C39.9232 4.01913 39.9891 3.95324 39.9891 4.01913H40.055H40.1209C40.1868 4.01913 40.2526 4.08502 40.2526 4.08502C40.3185 4.08502 40.4503 4.08502 40.5162 4.08502C40.5821 4.08502 40.5821 4.08502 40.648 4.08502C40.7139 4.08502 40.7139 4.08502 40.7797 4.01913L40.8456 3.95324L40.9115 3.88736L40.9774 3.82147L41.0433 3.75558L41.1092 3.68969L41.1751 3.62381C41.1751 3.62381 41.241 3.62381 41.241 3.55792C41.241 3.55792 41.2409 3.55792 41.3068 3.55792C41.3068 3.55792 41.3068 3.55792 41.3727 3.55792C41.4386 3.55792 41.5045 3.49203 41.5704 3.49203C41.6363 3.49203 41.6363 3.42614 41.6363 3.36026C41.6363 3.36026 41.6363 3.29437 41.7022 3.29437C41.7022 3.29437 41.7022 3.29437 41.7022 3.22848L56.395 3.29437C56.395 3.36026 56.395 3.36026 56.4609 3.42614V3.49203V3.55792C56.4609 3.55792 56.4609 3.62381 56.5268 3.62381V3.68969L56.5927 3.75558C56.5927 3.82147 56.6586 3.88736 56.7245 4.01913C56.7904 4.08502 56.7904 4.1509 56.8563 4.21679L56.9221 4.28268C56.9221 4.28268 56.9221 4.28268 56.9221 4.34857C56.9221 4.34857 56.988 4.34857 56.988 4.41445C57.0539 4.48034 57.1198 4.54623 57.1198 4.61212C57.1198 4.678 57.1857 4.74389 57.1857 4.80978C57.1857 4.87567 57.1857 4.87567 57.2516 4.94155V5.00744C57.2516 5.00744 57.3175 5.00744 57.3175 5.07333H57.3834H57.4492C57.5151 5.07333 57.581 5.00744 57.6469 5.00744C57.7128 5.00744 57.7787 5.00744 57.8446 5.07333C57.9105 5.13922 57.9105 5.2051 57.9105 5.2051C57.9763 5.33688 58.0422 5.40277 58.174 5.40277C58.2399 5.40277 58.3058 5.33688 58.3717 5.33688C58.4376 5.33688 58.4376 5.33688 58.5034 5.33688C58.5034 5.33688 58.5693 5.33688 58.6352 5.33688H58.7011C58.7011 5.33688 58.767 5.33688 58.767 5.40277C58.767 5.40277 58.8329 5.40276 58.8329 5.46865C58.8329 5.46865 58.8329 5.46865 58.8329 5.53454V5.60043V5.66631C58.8329 5.7322 58.8329 5.79809 58.8329 5.79809V5.86398V5.92986C58.8329 5.99575 58.8329 6.06164 58.8988 6.06164C58.8988 6.12753 58.9647 6.12753 59.0305 6.19341C59.0305 6.19341 59.0964 6.19341 59.0964 6.2593L59.1623 6.32519C59.2282 6.32519 59.2941 6.39108 59.2941 6.45696C59.2941 6.45696 59.2941 6.52285 59.36 6.58874C59.36 6.58874 59.36 6.65463 59.4259 6.65463C59.4259 6.72051 59.4259 6.7864 59.4918 6.85229C59.4918 6.91817 59.4918 6.98406 59.4259 7.04995L59.36 7.11584L59.2941 7.18172L59.2282 7.24761C59.1623 7.24761 59.1623 7.3135 59.1623 7.3135C59.1623 7.3135 59.1623 7.3135 59.0964 7.3135V7.37939V7.44527V7.51116C59.0964 7.57705 59.0964 7.64294 59.0964 7.70882C59.0964 7.70882 59.0964 7.77471 59.0305 7.77471L58.9647 7.8406C58.8988 7.8406 58.8988 7.90649 58.8988 7.97237C58.8988 7.97237 58.8988 7.97237 58.8988 8.03826C58.8988 8.03826 58.8988 8.03826 58.8988 8.10415V8.56536V8.63125V8.69713C58.8988 8.76302 58.8329 8.76302 58.767 8.82891C58.7011 8.8948 58.6352 8.8948 58.6352 8.96068C58.6352 9.02657 58.6352 9.09246 58.6352 9.15835C58.6352 9.22423 58.6352 9.29012 58.6352 9.29012L58.5693 9.35601V9.42189V9.48778C58.5693 9.48778 58.5693 9.55367 58.5034 9.55367V9.61956L58.4376 9.68545L58.3717 9.75133C58.3717 9.81722 58.3058 9.81722 58.3058 9.88311C58.3058 9.88311 58.2399 9.94899 58.2399 10.0149V10.0808V10.1467C58.2399 10.2125 58.2399 10.2125 58.2399 10.2784C58.2399 10.3443 58.2399 10.4102 58.3058 10.4761C58.3058 10.542 58.3058 10.542 58.3058 10.6079C58.3058 10.6738 58.3058 10.6738 58.3058 10.7396C58.3058 10.7396 58.3058 10.8055 58.2399 10.8055V10.8714C58.2399 10.9373 58.174 10.9373 58.174 11.0032C58.174 11.0691 58.1081 11.0691 58.1081 11.135C58.1081 11.2009 58.1081 11.2009 58.1081 11.2667C58.1081 11.3326 58.1081 11.3985 58.1081 11.4644C58.1081 11.4644 58.1081 11.4644 58.1081 11.5303V11.5962V11.8597V11.9256C58.1081 11.9256 58.1081 11.9915 58.0422 12.0574C58.0422 12.1233 58.0422 12.1233 57.9763 12.1892C57.9763 12.2551 57.9763 12.2551 57.9105 12.2551C57.8446 12.2551 57.8446 12.3209 57.8446 12.3209L57.7787 12.3868C57.7787 12.4527 57.7128 12.4527 57.7128 12.5186C57.7128 12.5845 57.7128 12.5845 57.6469 12.6504C57.6469 12.7163 57.6469 12.7822 57.6469 12.7822C57.6469 12.848 57.581 12.9139 57.5151 12.9798V13.1775C57.5151 13.2434 57.4492 13.2434 57.4492 13.3093C57.4492 13.3093 57.3834 13.3751 57.3834 13.441C57.3834 13.5069 57.3175 13.5069 57.3175 13.5728V13.6387V13.7046V13.7705C57.3175 13.8364 57.3175 13.8363 57.3175 13.9022C57.3175 13.9022 57.2516 13.9681 57.3175 13.9681C57.3175 14.034 57.3834 13.9681 57.3834 13.9681C57.4492 13.9681 57.4492 13.9681 57.5151 13.9022C57.581 13.9022 57.581 13.9022 57.581 13.9022C57.581 13.9681 57.581 13.9681 57.581 14.034C57.581 14.034 57.5151 14.034 57.5151 14.0999C57.5151 14.0999 57.5151 14.0999 57.4492 14.1658L57.3834 14.2317C57.3834 14.2317 57.3834 14.2976 57.3834 14.3634V14.4952V14.5611C57.3834 14.627 57.3834 14.627 57.3834 14.6929V14.7588C57.3834 14.7588 57.3834 14.8247 57.3175 14.8247C57.3175 14.8905 57.2516 14.9564 57.2516 15.0223C57.1857 15.0882 57.1857 15.1541 57.1198 15.1541C57.0539 15.22 57.0539 15.22 57.0539 15.2859C57.0539 15.3518 57.0539 15.3518 57.0539 15.4176C57.0539 15.4835 57.0539 15.4835 57.0539 15.5494C57.0539 15.6153 57.0539 15.6812 56.988 15.7471L56.9221 15.813C56.9221 15.813 56.8563 15.813 56.8563 15.8789C56.8563 15.8789 56.8563 15.8789 56.7904 15.9447H56.7245C56.6586 15.9447 56.6586 15.9447 56.5927 16.0106C56.5268 16.0106 56.5268 16.0765 56.4609 16.0765C56.4609 16.0765 56.395 16.1424 56.3292 16.1424H56.2633C56.2633 16.1424 56.1974 16.1424 56.1974 16.2083C56.1315 16.2742 56.1315 16.2742 56.0656 16.2742L55.8679 16.4718C55.8679 16.4718 55.8679 16.5377 55.8021 16.5377V16.6036V16.6695C55.8021 16.7354 55.8021 16.7354 55.8021 16.8013C55.8021 16.8672 55.8021 16.8672 55.8021 16.9331H55.6703Z" fill="white"/>
</svg>
