<svg width="78" height="45" viewBox="0 0 78 45" fill="none" xmlns="http://www.w3.org/2000/svg">
<path d="M75.2944 18.5304C75.3691 18.2286 75.443 17.9278 75.5177 17.626C75.5556 17.4711 75.5943 17.3189 75.6456 17.1703C75.67 17.1 75.7177 17.0288 75.7645 16.9712C75.7862 16.9451 75.8087 16.9135 75.833 16.8901C75.8474 16.8766 75.8645 16.8676 75.878 16.8532C75.8907 16.8388 75.897 16.8235 75.9141 16.8136L75.9177 16.7982C75.9258 16.7739 75.9582 16.7388 75.9735 16.7181C76.0005 16.6829 76.0339 16.6559 76.0663 16.6262C76.0906 16.6037 76.1131 16.5803 76.1393 16.5595C76.1654 16.5388 76.1789 16.5163 76.2032 16.4938C76.2465 16.4541 76.2969 16.4172 76.3455 16.3839C76.4041 16.3425 76.4698 16.2938 76.5383 16.2659C76.6635 16.2154 76.7734 16.1434 76.8887 16.0749C76.9545 16.0362 77.0202 15.9803 77.0761 15.9281C77.1211 15.8867 77.1733 15.8578 77.2175 15.8137C77.3102 15.7209 77.3895 15.6146 77.4841 15.5246C77.5048 15.5047 77.5246 15.4822 77.5471 15.4633C77.5634 15.4507 77.5859 15.4435 77.5886 15.421C77.5931 15.3795 77.4976 15.3201 77.4733 15.2985C77.3877 15.2219 77.2985 15.1517 77.2049 15.0868C77.1607 15.0562 77.1166 15.0355 77.0688 15.0138C77.0103 14.9859 76.9725 14.9184 76.9031 14.9111L76.8995 14.8616C76.904 14.8283 76.8977 14.7986 76.9067 14.7661C76.9121 14.7436 76.9202 14.7202 76.922 14.6977C76.9265 14.6391 76.9346 14.5563 76.9031 14.5049C76.8617 14.4383 76.813 14.4337 76.7419 14.4166C76.6608 14.3968 76.5725 14.3626 76.4888 14.3662C76.4572 14.3671 76.4275 14.3716 76.3978 14.3806C76.3726 14.3878 76.3383 14.386 76.3149 14.3959C76.2879 14.4067 76.2708 14.4364 76.2447 14.45C76.2212 14.4617 76.1906 14.477 76.1654 14.4833C76.0609 14.5112 75.9429 14.4518 75.8843 14.368C75.8267 14.2869 75.7348 14.1923 75.6249 14.2221C75.5655 14.2383 75.5177 14.2788 75.4601 14.2968C75.4132 14.3112 75.3646 14.2887 75.3187 14.2779C75.2862 14.2707 75.2556 14.268 75.2322 14.2419C75.2187 14.2257 75.2115 14.2013 75.1989 14.1842C75.1673 14.1383 75.1205 14.0797 75.0647 14.0689C74.9926 14.0545 74.9584 14.0924 74.8944 14.1104C74.8566 14.1212 74.7989 14.1113 74.7647 14.0906C74.6791 14.0383 74.6206 13.9284 74.5647 13.8492C74.5323 13.8032 74.4981 13.76 74.4693 13.7122C74.4458 13.6735 74.399 13.5987 74.354 13.5861L74.3386 13.5825C74.3098 13.5816 74.2864 13.5861 74.2585 13.5789C74.2306 13.5726 74.2053 13.5636 74.1774 13.5618C74.1297 13.56 74.0792 13.5762 74.0324 13.5717C73.9333 13.5636 73.8315 13.5141 73.7514 13.4609C73.7252 13.4438 73.7198 13.4294 73.7009 13.4069C73.682 13.3853 73.6541 13.3781 73.6334 13.3591C73.5937 13.3222 73.5676 13.2691 73.5325 13.2276C73.4703 13.1538 73.4469 13.0331 73.4496 12.9385C73.4514 12.8844 73.4622 12.8304 73.4658 12.7773C73.4703 12.716 73.4361 12.6836 73.391 12.6484C73.3523 12.6178 73.3181 12.5854 73.2758 12.5593C73.2271 12.5295 73.1749 12.4872 73.1415 12.4413C73.1226 12.4151 73.0956 12.3755 73.083 12.3458C73.0722 12.3197 73.0785 12.2926 73.0758 12.2647C73.0713 12.2206 73.0533 12.1828 73.0533 12.1386C73.0542 12.0873 73.0352 12.0404 73.0217 11.9918C73.0109 11.954 72.9641 11.9251 72.9353 11.8972C72.9028 11.8675 72.8596 11.8477 72.8218 11.8288C72.7902 11.8125 72.7569 11.7927 72.7227 11.7837C72.6722 11.7711 72.6362 11.754 72.6083 11.7072C72.5831 11.6657 72.5443 11.6315 72.5236 11.5883C72.493 11.5297 72.4516 11.4748 72.42 11.4162C72.3885 11.3586 72.3921 11.3297 72.4083 11.2667C72.4317 11.173 72.4408 11.0739 72.5029 10.9974C72.575 10.9082 72.684 10.8559 72.6443 10.7235C72.629 10.6731 72.5759 10.628 72.5434 10.5848C72.5029 10.5299 72.4471 10.4893 72.4119 10.429C72.3561 10.3317 72.348 10.2182 72.3002 10.1191C72.2507 10.0164 72.2345 9.90203 72.2318 9.78944C72.2309 9.76152 72.221 9.73539 72.2228 9.70747C72.2237 9.67955 72.2381 9.64802 72.2444 9.621C72.2597 9.55794 72.2732 9.49489 72.2912 9.43274C72.3056 9.3814 72.3417 9.36608 72.366 9.32195C72.3903 9.27781 72.4236 9.24448 72.4471 9.19584C72.4272 9.12738 72.402 9.05892 72.3876 8.98957C72.3804 8.95534 72.3741 8.91931 72.3714 8.88508C72.3687 8.85895 72.3741 8.83013 72.3651 8.80401C72.3624 8.795 72.3453 8.77609 72.3444 8.76438C72.3399 8.73015 72.3588 8.70402 72.3462 8.66709C72.3345 8.63286 72.3173 8.59774 72.302 8.56441C72.266 8.48514 72.1975 8.441 72.13 8.38966C72.0849 8.35543 71.9751 8.33652 71.9606 8.27166C71.9498 8.22392 71.9985 8.15096 72.0345 8.12574C72.0777 8.09601 72.1435 8.0798 72.1336 8.01314C72.1273 7.97081 72.0804 7.87263 72.0444 7.8465C72.0156 7.82579 71.9588 7.82308 71.9246 7.81498C71.8958 7.80777 71.8661 7.80147 71.8372 7.79336C71.7706 7.77625 71.74 7.7276 71.7066 7.66996C71.6643 7.59699 71.6508 7.50782 71.6094 7.43216C71.5931 7.40243 71.5805 7.36099 71.5499 7.34658C71.5265 7.33577 71.4905 7.33307 71.4652 7.32677C71.3409 7.29614 71.2166 7.26641 71.0932 7.23489C71.0473 7.22318 71.0473 7.21237 71.0194 7.17724C71.0013 7.15472 70.9761 7.1322 70.9554 7.11239C70.9158 7.07365 70.8599 7.05564 70.805 7.05113C70.7383 7.04573 70.7005 7.10338 70.6383 7.09077C70.5933 7.08086 70.5212 7.07545 70.4924 7.03942C70.4447 6.97997 70.4149 6.90701 70.3348 6.88539C70.2825 6.87188 70.2411 6.8899 70.1898 6.88269L70.1744 6.87909C70.1402 6.90071 70.1159 6.90521 70.0763 6.91332C70.0402 6.92052 70.0123 6.94665 69.9754 6.94484C69.9078 6.94124 69.8772 6.8926 69.8601 6.83405C69.8511 6.80433 69.843 6.7719 69.8421 6.73947C69.8412 6.71245 69.8529 6.68543 69.8457 6.6593C69.825 6.58364 69.7871 6.51789 69.7466 6.45123C69.7124 6.39448 69.6745 6.34494 69.6358 6.29089C69.6016 6.24315 69.5547 6.1756 69.5349 6.11975C69.5259 6.09273 69.5268 6.0612 69.5169 6.03328C69.5043 5.99815 69.4899 5.96662 69.48 5.92969C69.4664 5.87925 69.4592 5.8207 69.4547 5.77026C69.4493 5.7099 69.461 5.65856 69.4484 5.59731C69.4439 5.57299 69.4457 5.55047 69.4412 5.52705C69.4358 5.49913 69.4169 5.47481 69.4052 5.44959C69.343 5.32078 69.2025 5.30547 69.0773 5.27484C69.0251 5.26223 68.9566 5.25683 68.9098 5.2298C68.8692 5.20728 68.8395 5.16855 68.8179 5.12892C68.7891 5.07757 68.7729 5.01992 68.7576 4.96408C68.7503 4.93615 68.7458 4.90733 68.7224 4.88661C68.7035 4.8695 68.6792 4.8641 68.6603 4.84698C68.6152 4.80555 68.59 4.79654 68.5297 4.78212C68.4783 4.76951 68.4279 4.7569 68.3765 4.74429C68.2847 4.72177 68.1928 4.69925 68.1018 4.67673L11.0856 4.72178L11.2568 0C11.2352 0.0126106 11.2126 0.0108105 11.1892 0.016215C11.1613 0.0225204 11.1424 0.0351296 11.1172 0.0468395C11.0721 0.0675569 11.028 0.0747637 10.9802 0.0891759C10.9271 0.10539 10.8712 0.131511 10.8208 0.155831C10.7929 0.169343 10.7695 0.18826 10.7406 0.20087C10.7109 0.214382 10.6794 0.220686 10.6506 0.234197C10.5938 0.26122 10.5479 0.305357 10.4947 0.336884C10.4335 0.373815 10.3641 0.394533 10.2975 0.417052C10.2506 0.433266 10.2083 0.459387 10.1624 0.4738C10.1191 0.487311 10.075 0.489112 10.0326 0.506226C10.0047 0.517035 9.9786 0.531447 9.94977 0.541355C9.87591 0.567477 9.79484 0.592699 9.72819 0.634134C9.66693 0.671966 9.60388 0.705294 9.53813 0.734118C9.48588 0.757538 9.43634 0.778255 9.39851 0.821492C9.35257 0.873736 9.28231 0.897155 9.23367 0.946697C9.21656 0.963812 9.20935 0.988133 9.19133 1.00525C9.16611 1.02867 9.13278 1.02957 9.10396 1.04668C9.08504 1.05749 9.07153 1.0737 9.05172 1.08361C9.02379 1.09712 8.98596 1.10883 8.95624 1.11694C8.9112 1.12955 8.86706 1.13946 8.82292 1.15747C8.78329 1.17369 8.70132 1.19621 8.69502 1.24665L8.66349 1.25386C8.58783 1.3025 8.53378 1.38987 8.50496 1.47004C8.48064 1.53849 8.41128 1.59434 8.34732 1.62677C8.17528 1.71234 7.9609 1.6655 7.79696 1.7799C7.76273 1.80422 7.7303 1.83665 7.70148 1.86637C7.66905 1.8988 7.64924 1.93483 7.61951 1.97086C7.58889 2.00869 7.56547 2.05103 7.53484 2.08796C7.49881 2.13119 7.45377 2.17173 7.41054 2.20776C7.35289 2.2555 7.26371 2.34467 7.19525 2.27442C7.16733 2.24559 7.14481 2.20596 7.12229 2.17353C7.09977 2.1402 7.11058 2.10327 7.09167 2.07264C7.05384 2.08255 7.04483 2.1348 7.04032 2.16813C7.03312 2.22127 7.05474 2.27351 7.07816 2.32035C7.05384 2.33657 7.02411 2.33567 6.99709 2.34467C6.96736 2.35458 6.94034 2.36449 6.91061 2.3726C6.84846 2.38881 6.78991 2.41583 6.73136 2.44196C6.61517 2.4942 6.49537 2.53924 6.38187 2.59598C6.31611 2.62931 6.25036 2.66354 6.18731 2.70227C6.14137 2.7302 6.09633 2.77253 6.08012 2.69057C6.0666 2.62391 6.11254 2.51762 6.12966 2.45096C6.14047 2.40863 6.14767 2.36719 6.16749 2.32846C6.1765 2.30954 6.19181 2.29153 6.20082 2.27261C6.20982 2.2537 6.21163 2.23298 6.22154 2.21497C6.24225 2.17713 6.28639 2.12849 6.32062 2.10327C6.34314 2.08616 6.36926 2.07535 6.39268 2.05823C6.40259 2.04562 6.4152 2.03571 6.42961 2.02851C6.44492 2.02851 6.45934 2.02581 6.47375 2.0222C6.51879 2.00869 6.56112 1.99248 6.60706 1.98257C6.6557 1.97176 6.70074 1.96996 6.74938 1.95104C6.7701 1.94294 6.79262 1.93483 6.81243 1.92492C6.82684 1.91591 6.84216 1.906 6.85657 1.897C6.87188 1.89429 6.88629 1.89069 6.90161 1.88619C6.92953 1.87538 6.94755 1.86457 6.97907 1.86007C7.0088 1.85556 7.02771 1.86367 7.05654 1.86187C7.06284 1.83575 6.97907 1.77089 6.95926 1.75378C6.92953 1.72765 6.89981 1.68172 6.85657 1.68262C6.81874 1.68262 6.76649 1.70333 6.72866 1.71234C6.68182 1.72405 6.64579 1.75468 6.59895 1.76729C6.56022 1.7781 6.51788 1.79251 6.48366 1.81233C6.43592 1.83935 6.37827 1.87808 6.33683 1.91231C6.3044 1.93933 6.28008 1.97626 6.24766 2.00419C6.21703 2.03031 6.1846 2.06814 6.16299 2.10237C6.12155 2.16903 6.10444 2.24289 6.07471 2.31315C6.063 2.34107 6.03778 2.36269 6.02427 2.38971C6.01616 2.40773 6.00806 2.42664 5.99995 2.44466C5.99094 2.46267 5.99184 2.48429 5.98374 2.50141C5.96752 2.53563 5.95401 2.55725 5.9441 2.59598C5.93599 2.62931 5.92789 2.66264 5.91978 2.69597C5.91077 2.7329 5.90537 2.77974 5.88916 2.81397C5.88015 2.83379 5.86934 2.84279 5.86213 2.86441C5.85673 2.88153 5.85403 2.90044 5.84952 2.91756C5.84232 2.94728 5.84142 2.9644 5.8189 2.98511C5.80088 3.00133 5.77926 3.01213 5.76125 3.03105C5.72071 3.07519 5.67207 3.11302 5.62613 3.15175C5.5856 3.18598 5.55588 3.21571 5.50994 3.24363C5.4658 3.27065 5.41085 3.29137 5.36131 3.30938C5.27934 3.33911 5.19287 3.36163 5.1064 3.36974C5.06766 3.37334 5.03704 3.37874 4.99831 3.36883C4.97218 3.36253 4.95147 3.35442 4.92534 3.36523C4.90012 3.37514 4.89922 3.39225 4.88481 3.40847C4.81815 3.48413 4.72808 3.52647 4.64791 3.58592C4.59026 3.62915 4.5191 3.65978 4.45695 3.69761C4.42362 3.71833 4.38849 3.73184 4.35426 3.74986C4.32904 3.76337 4.31193 3.78048 4.28401 3.79039C4.23176 3.80931 4.17501 3.82552 4.12097 3.84353C4.06872 3.86065 4.01828 3.87866 3.96604 3.89578C3.91199 3.91289 3.85254 3.9156 3.79669 3.92821C3.74085 3.94082 3.6805 3.96694 3.63005 3.99306L3.61204 4.00387C3.57241 3.99306 3.50755 4.04621 3.46792 4.05521C3.41748 4.06692 3.36883 4.08224 3.31839 4.09665C3.22021 4.12457 3.12743 4.1624 3.02835 4.18672C2.9752 4.20024 2.92926 4.22996 2.87612 4.24347C2.81397 4.25968 2.75542 4.2777 2.69597 4.30382C2.59869 4.34526 2.4924 4.36057 2.38791 4.37048C2.33116 4.37588 2.27982 4.3966 2.22577 4.41281C2.17623 4.42813 2.12489 4.43173 2.07715 4.45155C2.02581 4.47226 1.97446 4.49569 1.92222 4.5155C1.87358 4.53442 1.82313 4.53261 1.7772 4.55693C1.68081 4.60918 1.57543 4.6371 1.46914 4.66142C1.4232 4.67223 1.37636 4.68844 1.33222 4.70196C1.3079 4.70916 1.28808 4.72448 1.26466 4.73168C1.23584 4.74159 1.21242 4.73619 1.1872 4.7569L0 44.3722C16.3208 45.4261 42.3473 44.892 63.4908 44.6326C63.5142 44.5362 63.5395 44.4479 63.5782 44.3587C63.6241 44.2524 63.6962 44.148 63.771 44.0597C63.8088 44.0146 63.8385 43.9642 63.8754 43.9183C63.9097 43.875 63.9421 43.8345 63.9781 43.7931C64.0178 43.7489 64.0709 43.7147 64.1168 43.6769C64.1628 43.6399 64.2078 43.5778 64.261 43.5544L64.2646 43.539C64.2889 43.4733 64.3583 43.412 64.4051 43.3625C64.4555 43.3084 64.5348 43.285 64.6015 43.2553C64.7005 43.2121 64.7969 43.1616 64.8933 43.113C64.9446 43.0869 65.0014 43.067 65.0545 43.0418C65.0897 43.0247 65.1248 43.0094 65.1608 42.9968C65.2239 42.9743 65.2815 42.959 65.3455 42.9445C65.3797 42.9373 65.4103 42.9184 65.4446 42.913C65.4716 42.9085 65.4995 42.9094 65.5265 42.904C65.6229 42.8842 65.722 42.8554 65.8193 42.8455C65.8544 42.8419 65.8877 42.8473 65.922 42.8428C65.9517 42.8392 65.9832 42.8382 66.0129 42.8337C66.067 42.8256 66.1147 42.8166 66.1688 42.8184C66.2021 42.8193 66.2354 42.8202 66.2697 42.8148C66.3462 42.8031 66.4192 42.8121 66.4957 42.7968C66.5516 42.7851 66.6128 42.7923 66.6678 42.7995C66.7317 42.8076 66.7858 42.795 66.8488 42.8112C66.8894 42.822 66.9236 42.8157 66.9623 42.8229C67.0173 42.8328 67.0713 42.8572 67.1281 42.8608C67.1965 42.8644 67.2569 42.8797 67.3235 42.8968C67.5559 42.9544 67.7883 43.0112 68.0207 43.0688L68.1009 43.0724C68.1369 43.0562 68.1658 43.0202 68.2 42.9995C68.2378 42.977 68.2801 42.9572 68.3144 42.931C68.3378 42.9139 68.3441 42.8959 68.3639 42.8761C68.3792 42.8608 68.4018 42.8518 68.4189 42.8383C68.463 42.804 68.5026 42.7653 68.5558 42.7455L68.5747 42.7338C68.5882 42.6806 68.6567 42.6626 68.6963 42.6347C68.7449 42.6004 68.7846 42.5563 68.8332 42.5212C68.8918 42.4797 68.9602 42.4446 69.0152 42.3987C69.0575 42.3635 69.0998 42.3491 69.1476 42.3221C69.2359 42.2717 69.3358 42.2212 69.4151 42.1573C69.471 42.1122 69.5169 42.0726 69.579 42.0348C69.6376 41.9987 69.6979 41.9654 69.7592 41.9366C69.8096 41.9132 69.8583 41.8879 69.9105 41.869C69.979 41.8447 70.0492 41.8096 70.1222 41.7979C70.2294 41.7808 70.3393 41.7654 70.4465 41.7528C70.496 41.7474 70.5447 41.7366 70.5942 41.7321C70.659 41.7267 70.7041 41.7249 70.7644 41.7006C70.8077 41.6844 70.8509 41.6709 70.8914 41.6474C70.9437 41.6168 71.0031 41.5799 71.059 41.5592C71.0608 41.5258 71.104 41.4835 71.1292 41.4664C71.1536 41.4493 71.1815 41.4466 71.2058 41.4295C71.231 41.4114 71.24 41.397 71.2689 41.3835C71.3481 41.3457 71.4238 41.3241 71.5112 41.3259C71.5994 41.3277 71.6796 41.3502 71.7688 41.3331C71.794 41.3286 71.8057 41.3277 71.8282 41.3115C71.8481 41.297 71.8625 41.2772 71.8868 41.2691C71.9228 41.2574 71.9426 41.2583 71.9733 41.2295C72.0093 41.1944 72.0471 41.1709 72.0615 41.1214C72.0732 41.0818 72.0813 41.0412 72.0904 41.0016C72.0985 40.9674 72.1093 40.9322 72.1165 40.898C72.1237 40.8611 72.112 40.8287 72.1102 40.7917C72.1066 40.7143 72.0804 40.6341 72.0786 40.5539C72.0759 40.4756 72.0922 40.4008 72.1111 40.3242L72.0994 40.3053C72.1129 40.2693 72.103 40.2306 72.1102 40.1936C72.1147 40.1693 72.1228 40.145 72.1291 40.1207C72.1399 40.0765 72.1471 40.0369 72.175 39.9991C72.2381 39.9135 72.2984 39.8288 72.3858 39.7658C72.4308 39.7324 72.4597 39.7063 72.5119 39.6919C72.5551 39.6802 72.5975 39.6649 72.6416 39.6532C72.7461 39.6234 72.856 39.6162 72.965 39.6081C73.0172 39.6036 73.0524 39.5775 73.0893 39.5433C73.1262 39.5081 73.1614 39.4721 73.1965 39.4361C73.2794 39.3505 73.3694 39.2757 73.4595 39.1956C73.4982 39.1614 73.5397 39.119 73.5703 39.0767C73.6027 39.0307 73.6397 38.9884 73.6757 38.9434C73.7081 38.9019 73.7523 38.8767 73.7847 38.8353C73.8144 38.7966 73.863 38.7632 73.9027 38.7353L73.9982 38.6776C73.9982 38.647 74.0216 38.6425 74.0396 38.6236C74.0576 38.6047 74.0702 38.584 74.09 38.566C74.1315 38.5281 74.1711 38.4921 74.2116 38.4552C74.2297 38.438 74.2396 38.4164 74.2603 38.4011C74.281 38.3858 74.2999 38.3723 74.3206 38.3552C74.3621 38.3209 74.4044 38.2885 74.4431 38.2525C74.4855 38.2129 74.5215 38.1705 74.5737 38.1399C74.6242 38.1102 74.6791 38.0849 74.7341 38.0669C74.8422 38.0318 74.9521 37.9778 75.0584 37.9354C75.1034 37.9174 75.1511 37.9129 75.1962 37.8976C75.2457 37.8805 75.2898 37.8643 75.3421 37.8562C75.4331 37.8408 75.5195 37.8003 75.6123 37.7967C75.7105 37.7931 75.8051 37.7832 75.9033 37.776C75.9492 37.7724 75.9969 37.7778 76.042 37.7661C76.0897 37.7526 76.1537 37.6994 76.2023 37.7111L76.2212 37.6994C76.2798 37.6643 76.3536 37.6247 76.3708 37.5571C76.3825 37.5103 76.3933 37.4634 76.405 37.4166C76.4347 37.2968 76.4455 37.186 76.5599 37.1166C76.6536 37.0599 76.7671 37.0428 76.8743 37.032C76.9247 37.0275 76.9752 37.0239 77.0238 37.0139C77.0842 37.0013 77.1076 36.995 77.1256 36.932C77.1418 36.8743 77.1526 36.7104 77.231 36.7122C77.303 36.714 77.3229 36.7572 77.3364 36.8167C77.3445 36.8518 77.3562 36.9158 77.3985 36.9095C77.4535 36.9014 77.5075 36.8338 77.5544 36.8068C77.6084 36.7761 77.6219 36.7689 77.6354 36.7113C77.6471 36.6618 77.6597 36.6176 77.639 36.569C77.6183 36.5203 77.5805 36.4708 77.5526 36.4258C77.5219 36.3789 77.485 36.3456 77.4364 36.3204C77.3985 36.3006 77.3499 36.2789 77.3184 36.2528C77.3003 36.2375 77.2706 36.2177 77.2616 36.197C77.2535 36.1789 77.2562 36.1438 77.2517 36.1222C77.2418 36.0781 77.231 36.0438 77.2427 35.9997C77.2544 35.9691 77.2103 35.9448 77.1959 35.9231C77.1742 35.8907 77.158 35.8484 77.1454 35.8123C77.1265 35.7574 77.1256 35.6979 77.1166 35.6412C77.0959 35.5133 77.0544 35.3944 76.9842 35.2854C76.9653 35.2557 76.9454 35.2106 76.9202 35.1863C76.8914 35.1593 76.8554 35.1557 76.8184 35.1467C76.7662 35.1341 76.7148 35.1215 76.6626 35.1079C76.6122 35.0953 76.5617 35.0827 76.5113 35.071C76.4915 35.0665 76.4707 35.0629 76.4509 35.0566C76.4248 35.0476 76.4059 35.0305 76.3789 35.0215C76.3437 35.0098 76.3203 35.0053 76.2888 34.9881C76.2609 34.9728 76.2302 34.9575 76.2005 34.9458C76.1726 34.9341 76.1447 34.9188 76.1167 34.908C76.1014 34.9026 76.0825 34.9044 76.0672 34.8972C76.0114 34.8719 75.9825 34.8206 75.9519 34.7702C75.9123 34.7044 75.8717 34.635 75.8438 34.5639C75.8312 34.5333 75.8123 34.5044 75.8015 34.4738C75.7934 34.4504 75.7952 34.4261 75.7835 34.4026C75.7537 34.3414 75.7285 34.2928 75.6745 34.2504C75.6339 34.2189 75.5871 34.1964 75.5457 34.1667C75.4925 34.1279 75.4403 34.091 75.3763 34.0757L75.334 34.0487C75.2214 33.9937 75.0917 33.946 75.0043 33.8532C74.9223 33.7658 74.8485 33.6568 74.7899 33.5532C74.7359 33.456 74.6674 33.3695 74.6332 33.2614C74.6035 33.1668 74.5539 33.0803 74.5341 32.9813C74.5278 32.9506 74.5233 32.9317 74.5116 32.9029C74.5017 32.8795 74.5008 32.8552 74.4927 32.8317C74.4783 32.7903 74.4503 32.7615 74.4395 32.7182C74.4251 32.6624 74.3927 32.6137 74.3729 32.5597C74.3522 32.5021 74.3414 32.4273 74.299 32.3813C74.272 32.3516 74.2333 32.3399 74.2008 32.3183C74.1585 32.2904 74.1207 32.2543 74.0783 32.2264C73.9937 32.1715 73.9036 32.1012 73.8054 32.0778L73.7901 32.0742C73.7351 32.0607 73.6802 32.0472 73.6252 32.0337C73.5919 32.0256 73.5577 32.0183 73.5253 32.0093C73.4946 32.0012 73.4748 31.9823 73.4451 31.9724C73.4235 31.9643 73.4001 31.9652 73.3793 31.9562C73.3487 31.9436 73.3307 31.9184 73.3064 31.8985C73.2839 31.8796 73.2577 31.8679 73.237 31.8472C73.2208 31.831 73.2073 31.8121 73.1893 31.7968C73.1064 31.7256 73.0551 31.6166 73.0001 31.522C72.9704 31.4707 72.9641 31.4157 72.9425 31.3617C72.9245 31.3158 72.9145 31.2689 72.9028 31.2221C72.8938 31.1869 72.8749 31.1626 72.8722 31.1266C72.8704 31.105 72.8695 31.0888 72.865 31.0671C72.856 31.0176 72.8578 30.9681 72.8506 30.9185C72.8425 30.8582 72.829 30.7969 72.8209 30.7375C72.8146 30.687 72.8173 30.6357 72.8128 30.5843C72.8047 30.4943 72.8002 30.4033 72.7902 30.3132C72.7839 30.2556 72.7848 30.1961 72.7551 30.1448C72.7245 30.0907 72.702 30.0277 72.6668 29.9781C72.5939 29.8763 72.4876 29.8079 72.4056 29.7142C72.3687 29.6719 72.3417 29.6385 72.2948 29.6034C72.2561 29.5737 72.2246 29.5341 72.1786 29.516L72.1633 29.5124C72.0489 29.4845 71.9264 29.4332 71.8102 29.4737C71.7625 29.4899 71.7075 29.5467 71.658 29.5494C71.5967 29.553 71.5625 29.5016 71.5292 29.4611C71.4607 29.3782 71.4391 29.2683 71.4157 29.1647C71.4103 29.1395 71.3995 29.1134 71.3977 29.0873C71.3959 29.0621 71.404 29.0404 71.4049 29.0152C71.4058 28.9747 71.4031 28.9314 71.4031 28.8891C71.404 28.7918 71.395 28.6909 71.3824 28.5955C71.3761 28.5486 71.3761 28.4991 71.3734 28.4513C71.3698 28.391 71.3607 28.3252 71.3679 28.2658C71.3734 28.2135 71.3707 28.1667 71.3707 28.1145C71.3698 28.0865 71.3571 28.0676 71.349 28.0415C71.34 28.0136 71.3409 27.9847 71.3364 27.9559C71.3193 27.8451 71.2472 27.7442 71.2031 27.6425C71.1842 27.5983 71.1752 27.5578 71.1536 27.5155C71.1319 27.4749 71.1283 27.4155 71.1211 27.3695C71.1085 27.2858 71.1428 27.2002 71.1626 27.1191L71.1662 27.1038C71.1833 27.0326 71.2022 26.966 71.2463 26.9083C71.2644 26.8849 71.2923 26.8669 71.3085 26.8444C71.3265 26.8192 71.3301 26.7741 71.3364 26.7444C71.3508 26.6786 71.3427 26.6309 71.3139 26.5724C71.2815 26.5066 71.2572 26.4336 71.2454 26.3616C71.2328 26.2886 71.2283 26.2175 71.2283 26.1436C71.2283 26.0814 71.2202 26.0247 71.2364 25.9643C71.2445 25.9337 71.2509 25.9022 71.259 25.8716C71.2698 25.831 71.2761 25.8283 71.3085 25.8031C71.3499 25.7698 71.3995 25.7247 71.4571 25.7284C71.5031 25.7311 71.558 25.7527 71.603 25.7653C71.6481 25.7779 71.7021 25.8004 71.7427 25.8238C71.7967 25.8554 71.849 25.8797 71.8994 25.9166C71.9426 25.9481 71.9823 25.9562 72.0327 25.9698C72.0877 25.9842 72.1264 25.9806 72.1669 25.9346C72.1867 25.9121 72.2057 25.8932 72.2273 25.8707C72.2552 25.8418 72.2687 25.8049 72.2921 25.7725C72.3615 25.6752 72.4624 25.6149 72.5389 25.5248C72.5551 25.5059 72.5741 25.4851 72.5876 25.4653C72.602 25.4446 72.6074 25.4203 72.6236 25.3996C72.6533 25.3599 72.6695 25.3149 72.6966 25.2717C72.7479 25.187 72.7596 25.0654 72.7839 24.9681L72.7875 24.8879C72.7398 24.824 72.765 24.7348 72.8002 24.6718C72.8164 24.6429 72.8326 24.615 72.8623 24.5979C72.8965 24.5781 72.9353 24.5637 72.9704 24.543C73.028 24.5096 73.1235 24.5105 73.1587 24.443C73.1884 24.3853 73.1614 24.2907 73.146 24.2322C73.1352 24.1908 73.1055 24.1439 73.0776 24.1124C73.0524 24.0845 73.0145 24.0791 72.9875 24.0493C72.9326 23.9881 72.9019 23.9214 72.892 23.8404C72.883 23.7647 72.8965 23.6917 72.8956 23.6143C72.8956 23.5936 72.892 23.5719 72.8938 23.5512C72.8956 23.5287 72.9064 23.508 72.9073 23.4864C72.91 23.4512 72.9046 23.426 72.9136 23.3909C72.9416 23.3314 72.8551 23.272 72.8209 23.2378C72.7776 23.1945 72.7434 23.1414 72.6948 23.1089C72.5975 23.0441 72.5326 22.9243 72.4723 22.8234C72.4525 22.791 72.4471 22.7522 72.4299 22.718C72.4155 22.6901 72.4056 22.6721 72.4002 22.6397C72.393 22.6009 72.3804 22.5622 72.3759 22.5235C72.3642 22.4145 72.3831 22.3154 72.4092 22.21C72.4245 22.1487 72.4398 22.0875 72.4552 22.0253C72.4714 21.956 72.4849 21.9416 72.5524 21.9181C72.6074 21.8992 72.6677 21.8623 72.7146 21.8281C72.747 21.8037 72.7695 21.7866 72.8065 21.7704C72.8299 21.7605 72.8488 21.7497 72.8686 21.7335C72.9533 21.6632 73.0064 21.5695 73.065 21.4795C73.119 21.3957 73.183 21.32 73.2352 21.2345C73.2676 21.1822 73.2938 21.1192 73.3334 21.0723C73.373 21.0255 73.428 20.9886 73.482 20.9606C73.5406 20.9309 73.6063 20.9129 73.664 20.8823C73.6883 20.8697 73.7054 20.8507 73.7315 20.8426C73.7613 20.8336 73.7847 20.8336 73.8099 20.8138C73.8639 20.8192 73.9414 20.7868 73.9865 20.7598C74.0351 20.7309 74.0342 20.6922 74.0477 20.6409C74.0621 20.585 74.0729 20.5139 74.0576 20.4562C74.0405 20.3896 73.9693 20.3382 73.9639 20.2662C73.9594 20.2058 74.0108 20.1662 74.0477 20.1283C74.09 20.0851 74.1441 20.0626 74.1864 20.0157C74.2098 19.9905 74.2243 19.9653 74.2549 19.9473C74.2819 19.9311 74.3152 19.9212 74.3432 19.905C74.3954 19.8752 74.4359 19.85 74.4801 19.8095C74.5296 19.7635 74.5764 19.7095 74.6305 19.6681C74.6782 19.6311 74.7269 19.5888 74.7629 19.541C74.8287 19.4555 74.8809 19.3636 74.9494 19.2789C74.9872 19.2321 75.0115 19.1816 75.0394 19.1294C75.0566 19.097 75.0692 19.0636 75.0845 19.0303C75.0998 18.9961 75.1079 18.9646 75.1205 18.9303C75.1394 18.879 75.1655 18.8294 75.1872 18.7799C75.2079 18.7322 75.216 18.6781 75.2286 18.6277L75.2944 18.5304Z" fill="white"/>
</svg>
