<svg width="193" height="45" viewBox="0 0 193 45" fill="none" xmlns="http://www.w3.org/2000/svg">
<path d="M192.764 16.1538L191.995 14.8077L190.264 14.0385L188.149 13.6539H186.418V13.8462L189.495 16.5385L190.457 18.0769L190.649 17.3077L190.457 16.7308L189.88 15.3846H190.457L190.649 15.9616L191.034 16.3462L191.611 16.5385H192.38L191.803 15.9616H192.572L192.764 16.1538ZM188.918 27.5L185.264 27.3077L182.764 26.5385L181.803 26.3462L176.034 27.3077L175.264 27.6923L174.303 28.4616L172.957 29.2308L171.611 29.8077L170.264 30H169.88H168.726L169.88 32.1154L171.995 32.3077L174.111 32.1154L175.649 32.5L176.803 31.9231L182.38 30.5769L183.726 30L184.687 29.8077L185.264 30.3847H185.841L186.226 30L187.572 29.0385L187.957 28.8462L189.88 29.0385L190.457 28.8462L189.687 27.8846L188.918 27.5ZM6.2259 30.3847L5.84126 30.1923L1.61052 30.3847L0.841304 30.7692L0.456665 31.9231L0.841304 32.8846L2.95664 34.0385L3.34128 34.8077L3.72592 35H4.30282H4.87972L5.26436 34.8077L5.45668 34.2308L5.649 33.8462L6.03358 33.4615L6.8028 32.1154L7.18744 31.5385V30.9616L6.2259 30.3847ZM165.457 19.6154L164.88 19.0385L165.264 18.0769L164.88 17.1154L165.072 14.0385L165.841 10.3846V9.80771L165.264 9.61539L164.687 10L164.111 10.5769L163.534 10.7692L160.264 10.5769L158.534 10.1923L157.764 9.42307H157.187L153.918 7.11541L153.726 7.30773H153.534H153.341L152.957 7.49999L153.149 6.92309V6.73077L152.957 6.53845L152.764 5.96155L151.611 6.92309L150.457 6.73077L149.303 5.96155L146.995 5.38465L146.034 4.80769L145.264 4.61537H140.649L139.111 4.23079H138.149L137.572 4.42311L136.418 5.19233L135.649 5.38465L134.495 5.19233L130.264 3.46157L130.649 4.61537L131.611 5.57691L132.957 6.15387L134.111 6.34619V6.92309L131.803 7.69231H130.649L130.264 6.73077L130.072 5.57691L129.495 5.00001L128.918 4.23079L128.726 2.88462L127.957 3.26926L127.38 3.65384L126.226 4.80769L126.034 4.42311L125.457 3.84615L125.264 3.46157L123.726 4.42311L119.88 3.26926L116.611 4.23079L111.034 2.50004L104.88 3.65384L101.995 2.88462H97.3798L96.2259 3.07694L94.3028 2.30772L92.3797 2.1154L88.3413 2.50004L85.649 3.07694H84.4952L81.8028 2.1154L80.8413 1.92308L72.9567 2.50004L65.8413 1.34618L63.3413 0.192319L59.4952 0L55.8413 0.961539L53.9182 3.26926V5.19233L54.4952 6.53845V7.69231L53.3413 9.03849L52.3798 9.61539L51.0336 10.1923L49.4951 10.5769H47.9567L47.5721 12.5L48.149 14.8077L49.3028 16.7308L50.2644 17.5L51.6105 17.6923L52.5721 18.2692L53.3413 19.0385L55.649 23.0769L55.8413 23.6539V24.4231L55.4567 25.1923L54.8797 25.7692L54.1105 25.9615L53.3413 32.5V34.0385L53.149 34.4231L52.5721 35.5769L52.3798 36.1539L53.9182 36.5385L54.6875 36.9231L54.8797 37.3077L54.6875 37.8846L54.1105 38.2692L53.5336 38.4615L52.9567 38.6539L52.3798 39.8077L51.9951 41.5385L52.1874 43.0769L53.149 43.8462L53.7259 43.6539L54.4952 42.6923L55.2644 42.3077H56.0336L57.5721 42.6923L58.3413 42.8847L59.3028 42.6923L60.4567 42.1154L61.4182 41.3462L61.9951 40.3846L63.3413 40.9616L66.2259 41.3462L67.3797 41.9231L68.9182 43.6539L69.8798 44.4231L71.2259 44.6154V43.8462L71.4182 43.2692L71.6105 42.8847H71.9952H72.7644L73.9182 42.6923H76.2259L77.7644 42.5L79.4952 42.1154L80.8413 41.3462L81.6106 40.1923H80.649V39.6154L81.6106 39.0385L82.5721 38.8462L83.149 39.2308V40.1923H86.0336L88.149 40.9616L88.7259 41.1538L91.6105 40.7693L92.7644 40.9616L93.3413 41.7308L93.9182 41.5385L94.4951 41.1538L95.649 41.7308L96.4182 41.5385L97.1874 40.9616L97.9567 40.5769L100.264 40.3846L101.226 40.1923L102.187 39.4231L102.764 40L104.303 39.4231L105.457 40.1923L106.611 41.5385L107.957 42.6923L109.495 42.8847L111.611 41.5385L113.341 41.1538H114.495L115.072 41.3462L116.034 41.9231L116.418 42.3077L116.611 42.8847L116.995 43.2692L117.764 43.4616L119.687 43.6539L120.649 43.8462L121.418 43.6539L122.764 42.5L123.341 43.0769L123.726 43.4616L123.534 43.8462L122.764 44.0385V44.4231V44.6154L123.149 45L123.726 44.6154H124.495H125.264H126.226L130.457 42.3077L131.995 41.9231H134.111H134.687L136.803 41.1538L137.572 40.9616L139.111 41.1538L140.649 41.5385H142.187L146.803 39.0385L149.111 36.7308L149.303 36.1539V35L149.687 34.6154L151.418 34.2308L151.803 34.0385L151.995 32.8846L153.149 30L155.457 26.7308L156.611 25.577L157.764 25L159.111 24.6154L160.457 24.0385L161.611 23.6539L162.764 24.0385L163.534 22.6923L165.457 21.9231L165.649 20.9615L165.072 20.3846L165.457 19.6154Z" fill="white"/>
</svg>
