<svg width="37" height="45" viewBox="0 0 37 45" fill="none" xmlns="http://www.w3.org/2000/svg">
<path d="M23.5856 35.8898C23.7358 35.7396 23.986 35.5895 24.0361 35.3892C24.0361 35.2891 23.986 35.0388 24.0361 34.9387C24.1362 34.8386 24.1863 34.9888 24.2864 34.8386C24.3865 34.6885 24.3364 34.1879 24.4866 34.0878C24.6368 33.9877 25.0873 34.1879 25.2875 34.0878C25.738 33.8375 25.0372 33.1868 25.1874 32.7863C25.2374 32.5861 25.5878 32.3859 25.5378 32.1356C25.5378 32.0355 25.3375 32.0355 25.2875 31.9354C25.1874 31.7352 25.2875 31.7852 25.2875 31.6351C25.3375 31.1345 25.1874 30.634 25.2374 30.1334C25.2875 29.8831 25.4377 29.733 25.4877 29.4827C25.5378 29.2324 25.4877 28.7819 25.3876 28.5817C25.2374 28.0811 24.837 27.8809 24.5367 28.3815C24.2363 28.9321 24.2363 29.4326 24.1362 30.0333C24.0862 30.3336 23.986 30.634 23.8859 30.9343C23.8359 31.2346 23.8859 31.3848 23.986 31.6851C24.0361 31.8353 24.0361 31.9855 24.1362 32.0856C24.1863 32.1857 24.3865 32.3358 24.3865 32.486C24.3865 32.6362 24.2864 32.7863 24.2864 32.9365C24.2864 33.0867 24.3364 33.1367 24.4365 33.2869C24.2363 33.337 24.1362 33.337 23.986 33.2869C23.8859 33.2869 23.6357 33.1367 23.5856 33.1868C23.3353 33.337 23.5856 33.9877 23.5856 34.1879C23.6357 34.4882 23.6857 34.6885 23.5856 34.9888C23.5856 35.3892 23.3854 35.5394 23.5856 35.8898ZM27.1395 32.6862C27.1395 33.0366 27.1896 33.337 27.2897 33.6873C27.3398 33.9877 27.3898 34.0377 27.1395 34.238C27.0394 34.3381 26.7892 34.5383 26.639 34.5383C26.3387 34.5383 26.3887 34.288 26.3387 34.0377C26.1885 34.288 26.0383 34.4882 25.8381 34.6885C25.6879 34.8386 25.3375 34.9387 25.2875 35.189C25.2374 35.3892 25.4877 36.1401 25.738 36.09C25.8882 36.04 25.9883 35.8397 26.1384 35.7897C26.2385 35.7897 26.2886 35.8898 26.4388 35.8397C26.5389 35.8397 26.689 35.7396 26.7391 35.6395C26.8893 35.4893 27.0394 35.3392 27.2397 35.3892C27.4399 35.4393 27.6401 35.6896 27.7903 35.7897C27.8904 35.4893 27.9404 35.2391 28.1407 34.9387C28.2408 34.7385 28.2908 34.6384 28.2908 34.3881C28.2908 33.9877 28.3409 33.4371 28.9416 33.6373C29.0917 33.6873 29.2419 33.9877 29.4421 33.8876C29.6423 33.8375 29.5422 33.5372 29.6924 33.4371C29.8926 33.337 30.1929 33.5372 30.3431 33.6373C30.6434 33.8876 30.6434 34.0878 30.5433 34.4382C30.7936 34.5383 30.9438 34.1378 30.9938 33.9376C31.0939 33.5372 30.6935 33.4371 30.6935 33.0366C30.6935 32.7363 30.9438 32.3358 31.0939 32.0856C31.2942 31.7352 31.5945 31.1345 31.4944 30.7341C31.4443 30.4838 31.1941 30.3336 31.1941 30.0333C31.144 29.5327 31.144 29.0322 31.1941 28.5316C31.2441 28.0811 31.2441 27.8308 30.9938 27.4304C30.7436 27.0299 30.8437 26.7296 30.9438 26.2291C30.9938 25.9788 30.8937 25.4282 31.0939 25.2279C31.2942 25.0277 31.6446 25.1779 31.7947 24.8776C31.9949 24.6273 31.8948 24.2268 31.8448 23.9265C31.7947 23.7263 31.9449 22.9754 31.6446 23.1256C31.5444 23.1757 31.4443 23.3759 31.3943 23.476C31.2441 23.6262 31.144 23.6762 30.9438 23.7263C30.4933 23.8764 30.2931 24.0266 29.9927 24.4271C29.7925 24.7274 29.4922 24.7274 29.342 25.0778C29.1918 25.4282 29.342 25.8286 29.1918 26.179C29.0917 26.4293 28.9416 26.6295 28.8414 26.8297C28.7413 27.08 28.6913 27.3803 28.6412 27.6306C28.4911 28.1812 28.1407 28.5817 27.8904 29.0822C27.6401 29.5828 27.6902 30.1835 27.6401 30.7341C27.6401 31.2847 27.4899 31.2847 26.9894 31.1345C26.9393 31.2346 26.8893 31.3848 26.8893 31.535C26.8893 31.585 27.0394 31.6851 27.0394 31.7352C27.2397 31.9855 27.1395 32.486 27.1395 32.6862ZM26.639 27.4805C26.9894 27.6306 27.1896 27.5806 27.4399 27.3303C27.6902 27.08 27.8904 26.7797 28.0405 26.4293C28.2408 25.9788 28.4911 25.3281 28.1407 24.8776C27.8904 24.5772 27.4899 24.4271 27.1395 24.2268C26.5389 23.7763 26.9393 23.1757 26.639 22.575C26.5389 22.3247 26.1885 22.1245 26.0884 22.5249C26.0383 22.7752 26.2385 23.0255 26.2385 23.2758C26.1885 23.5261 25.9382 23.5761 25.8381 23.7763C25.6879 24.0266 25.8381 24.3269 26.0884 24.4771C26.2886 24.6273 26.639 24.5272 26.7892 24.7274C26.9393 24.9276 26.8893 25.2279 26.8392 25.4782C26.7892 25.7285 26.639 25.9788 26.5889 26.2791C26.5889 26.6796 26.639 27.08 26.639 27.4805ZM28.8915 23.6762C28.8915 23.8764 28.8414 24.0266 29.0917 24.0767C29.2919 24.1267 29.3921 24.0266 29.4922 23.8264C29.6423 23.3759 29.0417 23.2758 28.8915 23.6762Z" fill="white"/>
<path d="M36.0494 26.7297L35.649 26.1791C35.5989 25.9288 35.5488 25.6785 35.5989 25.4283C35.649 25.178 35.7991 24.9277 35.8992 24.6774C35.9493 24.4271 35.8992 24.2269 35.8992 23.9766C35.8992 23.6763 35.9993 23.426 36.0494 23.1758L35.9993 22.7253L33.9971 22.1746V22.0245L33.0961 21.7742L32.9459 21.574L32.8458 22.0745C32.6456 22.4249 32.5956 22.8254 32.4954 23.2759C32.3953 23.6263 32.2952 23.9766 32.2952 24.327C32.2452 24.9778 32.1451 25.7286 32.4954 26.2792C32.6957 26.6296 32.6456 26.7798 32.4454 27.1301C32.2952 27.4305 32.2952 27.5306 32.3453 27.8309C32.3953 28.0311 32.5455 28.6318 32.3953 28.832C32.2452 29.0323 32.095 28.782 31.8447 28.9322C31.9949 29.2325 31.8948 29.4327 31.9949 29.683C32.0449 29.9333 32.1951 29.9333 32.3953 30.0834C32.6456 30.2837 32.5455 30.3838 32.4954 30.634C32.3953 30.9344 32.4454 30.9344 32.4954 31.2347C32.5455 31.3849 32.4454 31.485 32.4954 31.5851C32.5455 31.6852 32.6456 31.7353 32.6957 31.8354C32.8458 32.1357 32.5956 32.1858 32.5455 32.4861C32.3953 33.0367 33.1462 33.5873 33.2463 34.1379C33.2963 34.4883 33.1962 34.8387 33.0961 35.139C33.0461 35.2892 32.7958 35.6396 33.0461 35.7397C33.1962 35.7898 33.4966 35.4894 33.6467 35.4394C34.0472 35.3393 34.0972 35.3393 34.2474 34.9889C34.4977 34.4883 35.0483 34.4383 35.3987 34.0879C35.5488 33.9377 35.5488 33.7875 35.5989 33.5873C35.699 33.337 35.8492 33.287 36.0995 33.1368L36.55 33.0868L36.0494 26.7297Z" fill="white"/>
<path d="M31.6445 19.1713C31.6445 19.5217 31.6445 20.1724 31.194 20.2725C30.6434 20.3726 30.7435 19.5717 30.4431 19.3215C30.1428 19.0712 30.2429 19.772 30.293 19.9221C30.4431 20.2725 30.6934 20.5729 30.8936 20.9232C30.9937 21.1235 31.0939 21.3237 31.0939 21.574C31.0939 21.9744 30.8436 22.0245 30.5933 22.2747C30.3931 22.4249 30.343 22.7253 30.2429 22.9755C30.1929 23.1758 30.1428 23.6263 29.7924 23.426C29.5421 23.2759 29.6422 22.9755 29.5421 22.7753C29.442 22.5751 29.2418 22.2747 29.0916 22.1746C28.6411 21.7241 28.541 22.6251 28.4409 22.9255C28.1906 23.5261 27.8402 23.0256 27.8402 22.6251C27.8402 21.9744 27.9904 21.624 28.4409 21.1235C28.4409 20.723 28.3408 20.3226 28.4409 19.9221C28.541 19.5717 28.7913 19.2214 28.9415 18.871C29.1417 18.2202 29.1417 17.4194 28.8914 16.7686C28.7412 16.9188 28.5911 17.069 28.491 17.2692C28.4409 17.4694 28.3909 17.6196 28.1406 17.5695C27.7902 17.4694 27.6901 17.0189 27.7401 16.7186C27.7401 16.5184 27.8903 16.3682 27.64 16.218C27.4398 16.1179 27.3397 16.168 27.2396 16.3682C27.1395 16.6685 27.1895 17.119 27.3897 17.3693C27.7902 17.9199 28.5911 18.1702 28.3408 18.9711C28.2907 19.1212 28.1906 19.772 28.0405 19.772C27.7902 19.822 27.7401 19.1212 27.6901 19.0211L27.1895 18.7208L26.4887 18.5206C26.3386 18.3704 26.3886 18.1702 26.3386 17.97C26.2885 17.7697 26.1884 17.6196 26.0883 17.4694C25.9381 17.2191 25.838 16.9188 25.4876 16.9689C25.4876 16.5184 25.3875 16.3682 25.1372 15.9677C24.9871 15.7175 25.0872 15.6674 25.1372 15.4171C25.2874 14.8165 24.937 14.1657 24.5866 13.7152C24.4365 13.465 24.2362 13.3148 24.2362 13.0145C24.2863 12.6641 24.5366 12.3137 24.6867 11.9633C24.9871 11.3626 25.2874 10.6618 24.7869 10.1112C24.6367 10.4116 24.0861 12.614 23.7857 12.6641C23.6856 12.7141 23.5355 12.564 23.4353 12.6641C23.3352 12.7642 23.5855 13.4149 23.6856 13.515C23.8358 13.7653 24.1361 13.8153 24.2362 14.0656C24.3864 14.366 24.1361 14.5662 24.0861 14.8165C23.986 15.1669 24.1862 15.5673 24.2362 15.8676C24.2863 16.168 24.2863 16.6185 24.4365 16.9188C24.5866 17.1691 24.7869 17.069 24.6867 17.3192C24.6367 17.4194 24.5866 17.4694 24.5366 17.5695C24.4865 17.7197 24.4865 17.9199 24.4865 18.1201C24.4865 18.3704 24.5366 18.6207 24.7869 18.7709C24.937 18.871 25.9381 18.871 25.9381 19.0211C25.9381 19.1713 25.2374 19.3215 25.1372 19.3715L25.1873 20.5729C24.887 20.9733 24.7869 21.1235 24.7869 21.624C24.7869 22.0745 24.6367 22.4249 24.2362 22.0245C24.1361 21.9244 23.9359 21.7742 23.9359 21.6741C23.8859 21.4739 24.1361 21.3237 24.036 21.1235C23.8859 20.9232 22.0338 20.9733 21.3831 20.723C21.3831 21.0234 21.2329 22.2247 21.7335 22.2247C22.0338 22.2247 22.184 21.8743 22.4342 22.0245C22.4843 22.0745 22.6345 22.1746 22.6845 22.2247C22.8347 22.3248 22.9849 22.3749 23.135 22.4249L23.085 22.8254C23.135 23.1757 23.085 23.5261 23.135 23.9266C23.1851 24.2269 23.2852 24.5273 23.3352 24.8776C23.135 24.8776 22.9348 24.8276 22.7846 25.0278C23.0349 25.1279 23.5355 25.3281 23.3352 25.6785C23.2351 25.8287 22.7346 25.9789 22.8347 26.2291C22.9348 26.4794 23.1851 26.2792 23.3352 26.3793C23.5355 26.4794 23.5355 26.7297 23.4353 26.9299C23.2852 27.2803 22.7846 27.3304 22.4342 27.4305C22.234 27.4805 22.0338 27.6307 21.8336 27.6307C21.6834 27.6307 21.5833 27.5306 21.4331 27.5806C21.283 27.6808 21.283 27.8309 21.333 27.9811C21.3831 28.1813 21.4832 28.1313 21.6333 28.2814C21.7335 28.3815 21.6834 28.5317 21.7835 28.6318C21.8836 28.782 22.0838 28.832 22.184 28.9822C22.2841 29.1824 22.6845 30.8843 22.6845 30.8843C22.6845 31.1346 22.7346 31.4349 22.7346 31.6852C22.7346 31.9355 22.6345 32.0856 22.5343 32.3359C22.3842 32.6863 22.3842 33.2369 22.4843 33.6374C22.5343 33.9377 22.6345 33.9878 22.5844 34.3382C22.5343 34.7386 22.4342 34.4383 22.184 34.5884C22.0338 34.6885 22.0338 34.9388 22.0838 35.139C22.0838 35.2892 22.234 35.4394 22.234 35.5395C22.234 35.6396 22.184 35.6897 22.1339 35.7898C22.0338 35.9399 22.0838 36.2403 21.9837 36.3404C21.9337 36.3904 21.7335 36.3904 21.6834 36.4405C21.5833 36.4905 21.4331 36.5907 21.333 36.6407C20.8825 36.941 21.0327 37.4416 21.1328 37.8921C21.283 38.7931 20.2818 39.4939 19.9315 40.2447C19.8313 40.4449 19.7312 40.7453 19.7312 40.9455C19.7312 41.1958 19.9815 41.4961 19.6311 41.4961C19.3308 41.4961 19.2807 41.1457 19.1306 40.9956C18.9303 40.8454 18.63 40.6952 18.3797 40.5951L18.3297 40.3949C18.4298 39.9444 18.9804 39.8443 19.1306 39.4438C19.2307 39.2436 19.1806 38.9433 19.1306 38.743C19.0305 38.3927 18.9804 38.1924 18.9804 37.792C18.6801 37.842 18.63 37.792 18.5299 38.0423C18.4798 38.2925 18.3797 38.5929 18.2796 38.8432C18.1795 39.0934 18.1795 39.3938 18.0794 39.644C17.9793 39.8943 17.8291 39.9944 17.9292 40.2948L17.8291 40.545H17.5288C16.828 40.7953 15.4765 40.7453 13.1239 41.396C10.7713 42.0467 9.46983 43.2481 8.81911 43.3482C8.11833 43.4483 4.3141 43.9488 3.61333 44.1491C3.31299 44.2492 2.31188 44.9499 2.01155 45C1.91144 44.4994 1.6111 44.6997 1.21066 44.8498C0.660045 45.1001 0.609989 44.4494 1.11055 44.3493C1.56105 44.2992 1.96149 44.3993 2.26183 43.9488C2.36194 43.7486 2.41199 43.5484 2.56216 43.3982C2.71232 43.198 3.01266 43.0979 3.16283 42.8977C3.61333 42.4472 3.21288 42.0467 3.11277 41.5462C2.9626 40.9956 3.31299 40.4449 3.21288 39.8943C3.11277 39.3938 2.71233 38.9433 2.9626 38.3927C3.16283 37.9422 3.71344 37.792 4.11388 37.5918L4.91477 37.842L5.01488 37.6418L5.26516 0.450501L24.5866 0L24.4365 8.05895L26.4387 7.60845L26.4887 7.90879C26.2885 8.55951 26.6389 9.16018 26.6389 9.8109C26.6389 10.3615 26.4387 10.9121 26.3886 11.4627C26.2885 12.1135 26.1884 12.6641 26.2385 13.3148C26.2885 13.8654 26.6389 14.2659 26.8391 14.7164C27.0894 15.2169 27.59 15.4171 28.0405 15.6674C28.541 15.9677 29.1417 16.218 29.6422 16.6185C30.5933 17.3192 31.0438 18.2703 31.6445 19.1713Z" fill="white"/>
</svg>
