<svg width="56" height="45" viewBox="0 0 56 45" fill="none" xmlns="http://www.w3.org/2000/svg">
<path d="M55.3464 19.3469C55.3464 19.3469 55.2852 19.2857 55.2239 19.102C55.1015 19.1633 54.9178 19.2857 54.7954 19.2245C55.0403 19.1633 55.1015 19.102 55.2852 18.9796L46.4076 9.97959L42.5505 6.12245L29.7545 5.93878L29.9382 4.28571L28.2239 1.89796L26.9382 2.7551L26.7545 2.38776C26.8158 2.14286 26.9994 1.89796 26.9994 1.71429C26.9994 1.46939 26.7545 1.46939 26.9382 1.22449L12.8566 0.306122L12.428 0.428571C12.3056 0.428571 12.1831 0.367347 12.1219 0.367347C12.0607 0.367347 11.9994 0.489796 11.9382 0.489796C11.7545 0.428572 11.8158 0.183673 11.6933 0C11.6321 0.0612245 10.7749 0.979592 10.9586 0.489796C10.6525 0.551021 10.2852 0.612245 9.97903 0.734694C9.73413 0.795918 9.61168 0.918367 9.36679 1.04082C9.18311 1.10204 8.93821 1.22449 8.75454 1.22449C8.50964 1.28571 8.44842 1.16326 8.32597 1.28571C8.26474 1.34694 8.38719 1.40816 8.32597 1.46939C8.26474 1.53061 8.1423 1.53061 8.08107 1.53061C7.95862 1.59184 7.83617 1.65306 7.71372 1.77551C7.4076 1.95918 7.4076 2.02041 7.34638 1.65306L3.42801 2.87755L3.48923 3C3.42801 3.12245 3.36679 3.18367 3.30556 3.30612C3.24434 3.4898 3.48923 3.55102 3.18311 3.55102C3.24434 3.61225 3.24434 3.67347 3.30556 3.73469C3.12189 3.73469 2.99944 3.97959 2.81577 3.79592C2.81577 4.10204 2.26475 4.04082 2.20352 4.46939C1.8974 4.22449 1.71372 4.77551 1.6525 4.95918C1.59128 4.89796 1.28515 5.26531 1.04026 5.32653C1.10148 5.44898 0.856582 5.69388 0.856582 5.87755C0.795357 6 0.856582 6.12245 0.734133 6.2449C0.672908 6.36735 0.550459 6.42857 0.489235 6.61225C0.366786 6.97959 0.611684 7.22449 0.856582 7.40816C1.1627 7.59184 1.34638 7.89796 1.6525 8.08163C1.8974 8.26531 2.20352 8.20408 2.38719 8.32653C2.57087 8.44898 2.38719 8.5102 2.44842 8.5102C2.63209 8.7551 2.81577 8.81633 2.93821 9C3.06066 9.12245 3.30556 9.36735 3.36679 9.4898C3.42801 9.55102 3.42801 9.61225 3.42801 9.67347C3.61168 9.91837 3.91781 10.2245 4.22393 10.2857C4.4076 10.3469 4.59128 10.2245 4.77495 10.2245C4.95862 10.2245 5.1423 10.2245 5.32597 10.2245C5.69332 10.2245 5.87699 10.4082 5.99944 10.7755C6.12189 11.0816 6.12189 11.449 6.24434 11.7551C6.36679 12.1224 6.67291 12.3061 6.85658 12.6735C7.04025 13.0408 7.28515 13.3469 7.28515 13.7143C7.34638 14.1429 7.28515 14.6327 7.53005 15C7.77495 15.3061 8.08107 15.4898 8.26475 15.9184C8.44842 16.2857 8.75454 16.5306 8.87699 16.898C9.36679 18.0612 10.3464 18.7959 11.3872 19.4694C11.877 19.7755 12.3056 20.2041 12.6729 20.6327C12.8566 20.8776 12.9178 21.1225 12.979 21.3673C13.1015 21.6735 13.2852 22.0408 13.4076 22.3469C13.7137 22.9592 14.0811 22.898 14.6321 23.1429C15.1831 23.3878 15.428 23.9388 15.7341 24.3673C15.9178 24.6122 16.1627 24.6735 16.4076 24.8571C16.5913 25.0408 16.5301 25.102 16.5301 25.2857C16.5301 25.4694 16.2852 25.6531 16.2852 25.6531C16.2852 25.7755 16.4076 25.898 16.4076 26.0204C16.4076 26.1429 16.2852 26.2041 16.2852 26.2041C16.2852 26.3878 16.2239 26.6939 16.6525 26.5714C16.5301 26.6327 16.8974 27 17.0198 27.1224C17.0811 27.1837 17.2647 27.0612 17.326 27.1837C17.326 27.2449 17.2647 27.3061 17.2035 27.2449C17.2035 27.3061 17.4484 27.7347 17.3872 27.7347C17.4484 27.8571 17.5096 27.9184 17.326 27.9184C17.3872 28.102 18.1831 28.7143 18.1831 28.3469C18.4892 28.5306 18.3056 29.2041 18.4892 29.5102C18.7954 29.9388 19.3464 29.8776 19.7137 30.4898C19.8362 30.4898 20.0198 30.4898 20.1423 30.4898C20.326 31.102 20.9994 31.0408 21.1831 31.2245C21.3056 31.3469 21.4892 31.4082 21.4892 31.5918C21.4892 31.7143 21.428 32.1429 21.2443 32.0204C21.2443 32.2041 21.4892 32.5714 21.6117 32.7551C21.7954 33.0612 21.6729 32.9388 21.6117 33.2449C21.9178 33.2449 21.8566 33.551 21.8566 33.7347C22.2852 33.4286 22.3464 34.7755 22.1627 34.7755C22.2852 34.8367 22.2239 35.6327 22.2239 35.6939C22.2239 35.7551 22.6525 36.3061 22.4076 36.3061C22.6525 36.4898 22.3464 36.551 22.2852 36.7347C22.4076 36.9184 22.4076 37.2245 22.7137 37.2857C23.0198 37.3469 23.1423 37.5918 23.2647 37.6531C23.3872 37.7143 23.5709 37.6531 23.6933 37.7143C23.8158 37.7755 24.3056 38.2041 24.428 38.3878C24.6117 38.6327 24.6729 39 25.0403 39.0612C24.4892 39.6122 25.4076 40.2245 25.4076 40.7755C25.6525 40.4082 25.8362 41.3878 25.7749 41.5102C25.7137 41.8775 25.2239 42.1224 25.4076 42.4898C25.4688 42.6122 25.7137 42.6735 25.7749 42.8571C25.8362 42.9796 25.7137 43.102 25.8974 43.2245C25.6525 43.2245 25.7137 43.7143 25.7749 43.8367C25.8974 44.0204 26.1423 44.2653 26.3872 44.3265C26.6321 44.3878 26.877 44.2653 27.1219 44.3265C27.428 44.3878 27.7341 44.6939 27.9178 44.9388C27.979 44.9388 28.0403 45 28.1015 45C28.1015 44.9388 29.0198 44.1429 29.0811 43.9592C29.2035 43.4694 28.8974 43.898 28.6525 43.8367C28.8362 43.6531 29.7545 43.2857 29.5096 42.9796C29.4484 42.9184 29.0811 42.7959 29.0198 42.7959C28.8974 42.7959 28.8362 42.8571 28.7749 42.9184C28.4688 42.9184 28.53 42.8571 28.7137 42.551C28.6525 42.551 28.6525 42.551 28.5913 42.4898C28.6525 42.3673 28.7749 42.3061 28.8362 42.4286C28.8974 42.551 28.6525 42.6122 28.7749 42.6735C28.7749 42.6735 29.0811 42.6122 29.1423 42.6122C29.326 42.6122 29.3872 42.7347 29.5709 42.7347C29.5709 42.4898 29.6321 42.3061 29.6933 42.0612C29.9382 42.4286 29.5709 43.102 29.3872 43.4694C29.4484 43.4082 29.5096 43.4694 29.5709 43.3469C29.5096 43.5306 29.0811 43.7755 29.1423 43.9592C29.2035 44.2653 29.6321 43.898 29.8158 43.7755C30.3668 43.4694 30.6729 42.9796 31.0403 42.4898C30.979 42.1837 30.428 41.5714 30.1219 41.9388C30.1219 41.8163 29.9994 41.6939 29.877 41.7551C29.9382 41.6327 29.8158 41.3265 29.6933 41.2041C29.4484 40.9592 29.6321 41.3878 29.4484 41.5102C29.2035 41.7551 29.0198 41.449 28.8974 41.3878C28.7137 41.2653 28.4076 41.449 28.4076 41.0816C28.4688 41.0816 28.4688 41.0816 28.5301 41.0816C28.5301 41.0204 28.5301 40.9592 28.5301 40.898C28.5913 41.0816 29.1423 41.5102 29.326 41.3878C29.3872 41.3265 29.4484 41.0204 29.4484 40.898C29.3872 40.7143 29.2035 40.5306 29.0811 40.4082C29.326 40.3469 29.3872 40.5918 29.4484 40.7143C29.6321 40.5918 29.6321 40.3469 29.5096 40.1633C29.4484 40.102 29.3872 40.102 29.326 40.102C29.2647 40.0408 29.2647 39.9184 29.1423 39.8571C29.5096 39.7347 29.0811 39.1837 29.0198 39C29.0198 39 29.0811 38.8776 29.0811 38.8163C29.0811 38.7551 29.0198 38.5102 28.9586 38.449C28.8974 38.2653 28.6525 38.2041 28.6525 38.0204C28.8974 38.1429 29.0198 38.2041 29.1423 38.3878C29.2035 38.5102 29.0811 38.5714 29.2647 38.6327C29.4484 38.6939 29.5709 38.6327 29.5709 38.449C29.5709 38.449 29.5709 38.449 29.6321 38.449C29.6321 38.5714 29.6321 38.6939 29.5709 38.8163C29.5096 38.8776 29.3872 38.8776 29.326 39C29.2647 39.0612 29.3872 39.4286 29.4484 39.4898C29.5709 39.7959 29.8158 40.6531 30.3056 40.5306C30.1831 40.7143 30.6729 41.3265 30.9178 41.3265C31.1627 41.3265 31.1015 40.7143 30.979 40.5306C30.6729 40.4694 30.9178 40.1633 30.9178 39.9796C30.9178 39.7347 30.6729 39.551 31.0403 39.4286C30.979 39.3061 30.979 39.1837 30.8566 39.1837C30.979 39.0612 31.1627 39.2449 31.1627 39.3673C31.1627 39.4898 31.0403 39.4898 31.0403 39.6122C31.0403 39.6735 31.0403 39.7347 31.0403 39.7959C31.0403 40.0408 30.9178 40.4694 31.2239 40.5918C31.2852 40.4694 31.3464 40.3469 31.4688 40.3469C31.2852 40.5306 31.2239 41.5102 31.4688 41.6327C31.4688 41.7551 31.3464 41.8776 31.4688 41.9388C31.6525 42 31.7749 41.8775 31.8974 41.8163C32.0811 41.6327 32.2647 41.3265 32.3872 41.0816C32.5096 41.3265 32.0198 41.6327 32.1423 41.8163C32.2647 42 32.877 41.449 32.9994 41.3878C33.1219 41.3265 33.6117 41.2041 33.6729 41.1429C33.7954 40.9592 33.3056 40.8367 33.3056 40.5918C33.6729 40.898 33.7341 40.8367 33.8566 40.3469C33.9178 40.1633 33.979 39.6735 33.7341 39.8571C33.6117 39.9184 33.5505 40.102 33.428 40.1633C33.3668 40.1633 33.3056 40.2245 33.2443 40.2857C33.1831 40.3469 33.1219 40.4082 33.1219 40.4694C32.9382 40.5918 32.6321 40.6531 32.5096 40.8367C32.326 40.5306 32.6321 40.5306 32.8158 40.4082C32.877 40.3469 32.9994 40.3469 32.9994 40.3469C32.9994 40.3469 32.9382 40.2245 33.0607 40.1633C33.2443 40.102 33.3056 40.2245 33.428 40.0408C33.6729 40.2857 33.6117 39.7959 33.5505 39.7347C33.428 39.4286 33.3668 39.4898 33.1219 39.4286C32.9382 39.4286 32.8158 39.3673 32.6321 39.3673C32.3872 39.3673 32.2035 39.4286 31.9586 39.4898C32.0198 39.2449 32.3872 39.3673 32.5096 39.1224C32.6933 38.8163 32.326 38.8776 32.1423 38.8163C31.8974 38.7551 31.8974 38.6327 31.5913 38.6327C31.4076 38.6327 31.1015 38.6327 30.979 38.6939C31.1015 38.2653 30.8566 38.5102 30.5505 38.2041C30.7954 38.1429 30.9178 38.3265 31.1627 38.3878C31.4076 38.5102 31.4688 38.3878 31.7137 38.449C31.8974 38.449 32.0811 38.6939 32.2647 38.6327C32.5096 38.5102 32.2035 38.2653 32.0811 38.2041C32.2035 38.0816 32.1423 38.1429 32.2035 37.9592C32.5096 38.0816 32.3872 38.5102 32.6933 38.5714C33.1831 38.6939 32.6933 38.2653 32.6933 38.0816C32.6933 38.0204 32.5709 37.7755 32.6933 37.7755C32.8158 37.7755 32.8158 38.0204 32.8158 38.0816C32.9382 38.2653 33.1831 38.449 33.3668 38.6939C33.5505 38.7551 33.7954 38.6939 33.9178 38.6327C34.1627 38.5714 34.2239 38.6939 34.2239 38.3265C34.4076 38.6327 34.1015 38.7551 34.1627 39H34.2239L34.4688 38.9388C34.4688 38.6939 34.8362 38.7551 34.7137 38.449C34.6525 38.1429 34.3464 38.2041 34.2239 38.0816C34.1627 38.0204 34.1015 37.9592 34.1015 37.8367C34.1015 37.6531 34.3464 37.6531 34.4076 37.5918C34.4688 37.4694 34.4076 37.0408 34.3464 36.9796C34.1627 37.5918 33.7341 36.4898 34.2852 36.7347C34.1627 36.551 34.1627 36.551 34.2239 36.4898C34.1015 36.4286 33.979 36.3061 34.0403 36.1837C34.1015 36.4286 34.4076 36.3061 34.2239 36.6122C34.1627 36.7347 33.6729 36.7959 33.979 37.0408C34.0403 36.9796 34.1015 36.8571 34.2239 36.8571C34.4076 36.9184 34.2852 37.102 34.2852 37.2245C34.2852 37.5918 34.3464 37.5918 34.1015 37.8367C34.2852 37.898 34.4076 37.9592 34.5913 38.1429C34.7137 38.3265 34.7137 38.5102 34.7749 38.6327C34.8974 38.8776 34.8362 38.8163 35.0198 38.7551C35.2035 38.6939 35.4484 38.3878 35.5709 38.2653C35.8158 38.1429 36.3056 37.9592 36.428 37.7143C36.5505 37.4694 36.3056 37.5306 36.1219 37.3469C35.9994 37.2245 35.9994 37.1633 35.877 37.102C35.8158 37.0408 35.6321 36.8571 35.5709 36.8571C35.4484 36.7959 34.7749 37.0408 35.0198 36.6122C35.0811 36.6735 35.2647 36.7347 35.2647 36.6735V36.7347C35.2647 36.6735 35.877 36.2449 35.8158 36.0612C35.7545 36.1224 35.7545 36.0612 35.6933 36.1225C35.6933 35.8776 35.9382 35.9388 36.0607 35.8776C36.1219 35.8163 36.1831 35.6327 36.2443 35.5714C36.428 35.6327 36.428 35.449 36.6117 35.5714C36.5505 35.7551 36.3668 35.8163 36.1831 35.9388C36.3668 36.1837 36.1219 36.1837 35.9382 36.1225C35.9994 36.3673 35.7545 36.551 35.7545 36.8571C35.5096 36.7959 35.8158 36.9796 35.877 37.0408C35.9994 37.102 35.9994 37.102 36.0607 37.1633C36.1219 37.2245 36.1219 37.3469 36.2443 37.4082C36.3056 37.3469 36.3668 37.3469 36.428 37.2857C36.3056 37.4082 36.4892 37.7143 36.6729 37.7755C36.8566 37.7755 36.979 37.5918 37.1015 37.4694C37.4076 37.3469 37.7137 37.2245 38.0811 37.1633C38.2647 37.102 38.5709 37.1633 38.6933 37.1633C39.1831 36.9796 38.4484 36.7347 38.2647 36.6735C38.6933 36.6735 38.5709 36.2449 38.8158 36C38.8158 36.1837 38.8158 36.3061 38.7545 36.4286C38.7545 36.551 38.5096 36.551 38.6321 36.6735C38.8158 36.8571 39.1219 36.551 39.2443 36.4286C39.1831 36.4898 39.1219 36.6122 39.1219 36.6735C39.3668 36.6122 39.7954 36.3673 39.979 36.1837C40.0403 36.1225 40.1015 36.0612 40.1627 36C40.2239 35.9388 39.9178 35.9388 40.2239 35.8163L40.4076 35.3265C40.2239 35.3878 40.2852 35.449 40.1015 35.3265V35.1429C39.979 35.0204 39.979 35.1429 39.7954 35.0816C39.428 35.0204 39.1831 34.8367 39.1219 34.4694L39.1831 34.2245L39.1219 34.102C38.9382 34.102 38.6321 34.2245 38.5709 33.9796C38.7545 34.0408 38.877 33.9184 38.9994 33.9184C39.2443 33.9796 39.2443 34.1633 39.2443 34.4082C39.3668 34.8367 39.7954 35.1429 39.6117 34.5306C39.5505 34.3469 39.6117 34.0408 39.5505 33.9184C39.4892 33.7959 39.3056 33.7347 39.2443 33.551C39.1831 33.3061 39.2443 33.1224 39.3668 33C39.428 32.9388 39.4892 32.8776 39.5505 32.8163C39.6117 32.6939 39.4892 32.6327 39.6729 32.5714C39.5505 32.7551 39.7341 32.8163 39.6729 32.9388C39.5505 33.1224 39.3056 33.0612 39.3056 33.3061C39.3056 33.6122 39.5505 33.6122 39.6729 33.7959C39.7341 33.9184 39.7341 34.3469 39.979 33.9796C40.1015 33.8571 40.0403 33.6735 40.1627 33.551C40.2852 33.3673 40.5301 33.3673 40.6525 33.1225C40.7137 32.9388 40.6525 32.8163 40.8362 32.6939C40.8974 32.6327 41.2647 32.6327 41.3872 32.6327C41.2647 32.8776 40.9586 32.6939 40.8362 32.8163C40.6525 33 40.775 33.3673 40.5301 33.551C40.4688 33.6122 40.2239 33.6122 40.1627 33.6735C40.1015 33.7959 40.1627 33.8571 40.1627 33.9796C40.1015 34.2245 39.979 34.4694 39.9178 34.7143C40.0403 34.7755 40.1627 34.6531 40.2852 34.7143C40.4076 34.7755 40.4076 34.9592 40.5913 35.0204C40.4688 35.0816 40.5301 35.0816 40.4688 35.1429C40.5301 35.1429 40.6525 35.2041 40.7137 35.2041C41.0198 35.0204 41.2647 34.8367 41.5709 34.6531C41.7545 34.5918 41.9994 34.5918 42.1219 34.4082C42.2443 34.2857 42.2443 34.0408 42.3668 33.9184C42.5505 33.6735 42.9178 33.4286 43.2239 33.3061C43.5301 33.1224 44.0198 33.1224 43.8974 32.6939C43.7137 32.7551 43.4688 32.8163 43.3464 33C43.2239 32.8775 43.4076 32.8776 43.4076 32.7551C43.4076 32.6939 43.3464 32.6939 43.3464 32.5714C43.2852 32.3878 43.5301 31.9592 43.6525 31.7755C43.775 31.5918 43.9586 31.4082 44.2035 31.3469L44.1423 31.2857C44.5709 31.2245 44.7545 31.6531 44.7545 31.6531C44.7545 31.6531 44.6321 31.6531 44.6321 31.898C44.877 31.7755 45.3668 31.5918 45.6729 31.5306C45.7341 31.5306 45.979 31.5918 46.0403 31.5918C46.2239 31.4694 45.8566 31.4082 45.7341 31.4082C45.6729 31.4082 45.6729 31.2857 45.6117 31.3469C45.5505 31.3469 45.4892 31.4694 45.4892 31.4694C45.428 31.4694 45.3668 31.4082 45.2443 31.4082C45.428 31.3469 45.5505 31.3469 45.6729 31.3469C45.7341 31.3469 45.979 31.3469 46.0403 31.4694C46.1627 31.2245 45.8566 31.1633 45.6729 31.102C45.7954 31.102 45.7954 31.0408 45.9178 31.102C45.7954 30.8571 45.979 30.7959 46.1627 30.7347C46.4076 30.551 46.6525 30.551 46.9586 30.3673C46.8362 30.1837 47.2647 30.1837 46.9586 29.9388C46.775 29.7551 46.4688 29.8163 46.2852 29.6939C46.4688 29.6939 47.6933 29.7551 47.2035 30.1837C47.5096 30.1224 47.6321 29.8776 47.326 29.6327C47.1423 29.5102 46.8974 29.5714 46.775 29.3878C46.9586 29.3878 47.0198 29.2653 47.1423 29.2653C47.326 29.2653 47.2035 29.2041 47.3872 29.3878C47.6321 29.6327 47.6321 29.7551 47.6321 30.1224C47.7545 29.8163 47.7545 29.8163 47.9994 29.5714C48.1219 29.449 48.3056 29.2653 48.1831 29.1429C48.1831 29.2653 48.1219 29.3878 47.9994 29.449C47.9994 29.449 47.9994 29.449 47.9382 29.449C48.0607 29.3265 48.0607 29.1429 47.9382 29.0204C48.1219 28.2857 47.4484 28.4694 47.0811 28.102C46.775 27.7347 47.0198 27.2449 47.0198 26.8776C47.0198 26.8776 47.2035 26.5714 47.2647 26.3878C47.3872 26.5102 47.2035 26.7551 47.3872 26.8776C47.3872 26.5714 47.9382 25.6531 48.2443 25.6531C48.1219 25.9592 47.7545 26.2041 47.5709 26.5102C47.5096 26.6327 47.3872 27.4898 47.2035 27.1837C47.1423 27.2449 47.1423 27.6122 47.2647 27.6735C47.4484 27.7959 47.8158 27.4898 47.9994 27.6122C48.1831 27.7959 47.877 28.898 48.3668 28.9592C48.2443 28.5306 48.2443 28.3469 48.3668 27.9184C48.428 27.6122 48.6117 27.2449 48.2443 27.1224C48.3668 27 48.1831 26.8776 48.3668 26.7551C48.3668 26.8776 48.4892 27.0612 48.4892 27.1224C48.7341 26.9388 48.6117 26.5714 48.6729 26.3265C48.7954 25.9592 49.0403 25.6531 49.1627 25.3469C49.8362 24.0612 50.877 22.898 51.8566 21.8571C52.8974 20.7551 54.0607 20.2041 55.4076 19.7143C55.5301 19.4082 55.4076 19.3469 55.3464 19.3469Z" fill="white"/>
</svg>
