<svg width="72" height="45" viewBox="0 0 72 45" fill="none" xmlns="http://www.w3.org/2000/svg">
<path d="M52.3323 38.5501L24.0256 38.4728L0 37.5481L1.69808 0L36.7086 1.06887L69.0351 0.38629C69.0351 0.533637 69.016 0.696914 69.0447 0.841075C69.059 0.912758 69.047 0.982051 69.0534 1.05373C69.0566 1.09117 69.0725 1.12542 69.0741 1.16285C69.0765 1.21143 69.0781 1.25046 69.0877 1.29666C69.0972 1.33967 69.0861 1.38347 69.0932 1.42728C69.1052 1.49976 69.1108 1.56188 69.1108 1.63675C69.1108 1.76419 69.1116 1.89083 69.1108 2.01826C69.1108 2.16242 68.9889 2.26278 68.8654 2.31694C68.7985 2.34641 68.7476 2.39818 68.6831 2.43084C68.6098 2.46747 68.5556 2.52084 68.4943 2.57261C68.4369 2.62119 68.3621 2.65942 68.3167 2.71836C68.2617 2.78845 68.19 2.84102 68.1271 2.90394C68.069 2.96208 67.9957 3.01306 67.9447 3.07598C67.8874 3.14766 67.8109 3.19226 67.756 3.26554C67.6891 3.35395 67.603 3.42483 67.5337 3.51165C67.4724 3.5897 67.3928 3.6574 67.3219 3.72749C67.2637 3.78404 67.2199 3.85254 67.1626 3.90989C67.1395 3.93298 67.1291 3.96245 67.1036 3.98475C67.0646 4.0198 67.0336 4.02936 67.0073 4.07953C66.93 4.22131 66.7874 4.34635 66.7604 4.516C66.7556 4.54467 66.7556 4.59804 66.7643 4.62432C66.7723 4.64742 66.7906 4.66255 66.7978 4.68645C66.8066 4.71671 66.8018 4.74618 66.8129 4.77724C66.8424 4.85848 66.8735 4.94132 66.9197 5.01459C66.9651 5.08787 67.0383 5.16513 67.106 5.21929C67.1897 5.28619 67.2574 5.36026 67.3306 5.43593C67.3665 5.47177 67.3728 5.51876 67.4055 5.55699C67.4374 5.59522 67.4716 5.63027 67.4963 5.67487C67.5393 5.75133 67.6198 5.84611 67.6333 5.93532V5.95443C67.6325 6.06116 67.6875 6.15753 67.7225 6.25629C67.7591 6.35745 67.7838 6.46178 67.8229 6.56055C67.8555 6.64338 67.8659 6.74135 67.9089 6.81861C67.9654 6.91976 68.0411 7.00498 68.1422 7.06312C68.2267 7.11171 68.2928 7.12843 68.3891 7.12843C68.4855 7.12843 68.5811 7.12684 68.6775 7.12843C68.8057 7.13003 68.8471 7.21923 68.9435 7.28136C68.9634 7.2941 68.9873 7.29967 69.0072 7.31162C69.0359 7.32994 69.0582 7.35861 69.0877 7.37693C69.1251 7.40003 69.1793 7.451 69.2239 7.451H69.243C69.3147 7.44941 69.3943 7.47968 69.466 7.49322C69.5066 7.50118 69.5496 7.51552 69.5886 7.52667C69.6324 7.53941 69.6683 7.53782 69.7121 7.54419C69.8937 7.57048 70.0769 7.63658 70.1908 7.78712C70.3023 7.93367 70.3031 8.11606 70.3039 8.29367C70.3039 8.37173 70.3126 8.44421 70.3246 8.51987C70.3365 8.59394 70.3501 8.69589 70.3987 8.75722L71.1218 31.5642L69.8905 31.6789C69.8905 31.71 69.8841 31.7482 69.8897 31.7793C69.8969 31.8199 69.9024 31.8533 69.9032 31.8956C69.9032 31.9107 69.9064 31.9282 69.904 31.9425C69.9009 31.968 69.8833 31.984 69.873 32.0063C69.857 32.0389 69.8435 32.0724 69.8308 32.1066C69.8077 32.1711 69.7774 32.2619 69.814 32.3288C69.8332 32.3631 69.865 32.3926 69.8905 32.4228C69.9232 32.4618 69.9542 32.5001 70.0012 32.5248C70.0355 32.5431 70.0825 32.5431 70.1207 32.5518C70.1517 32.559 70.178 32.5718 70.2075 32.5829C70.2641 32.6052 70.2991 32.6188 70.3317 32.6705C70.3596 32.7143 70.3724 32.7661 70.3915 32.8139C70.4217 32.888 70.4337 32.9541 70.5046 33.0027C70.5436 33.0289 70.593 33.0496 70.6073 33.0998C70.6177 33.1349 70.6089 33.1803 70.6089 33.2169V33.2296C70.6105 33.2862 70.5826 33.3292 70.5651 33.381C70.5476 33.432 70.5181 33.4789 70.4902 33.5243C70.4775 33.5451 70.4735 33.5594 70.4695 33.5825C70.4632 33.6151 70.4433 33.6414 70.4353 33.6733C70.4249 33.7131 70.4281 33.7776 70.4385 33.8166C70.4528 33.8724 70.4799 33.913 70.511 33.9608C70.5396 34.0046 70.5619 34.0468 70.5723 34.0994C70.5826 34.1528 70.5564 34.179 70.5213 34.2133C70.4839 34.2499 70.4329 34.2404 70.3827 34.2388C70.3373 34.2372 70.3031 34.2125 70.2569 34.2133C70.2107 34.2141 70.1287 34.2013 70.1294 34.273C70.1302 34.3248 70.1788 34.3869 70.2131 34.4204C70.2394 34.4475 70.2505 34.4809 70.2704 34.5128C70.2911 34.547 70.2959 34.5614 70.2959 34.602C70.2959 34.7103 70.1995 34.7844 70.1948 34.8935C70.1932 34.9381 70.186 34.9986 70.1979 35.0424C70.2155 35.1077 70.2656 35.1085 70.3222 35.1085C70.4257 35.1085 70.5922 35.0815 70.6352 35.2073C70.6424 35.228 70.64 35.267 70.6511 35.2838C70.6655 35.3045 70.7244 35.3092 70.7499 35.3116C70.7945 35.3156 70.8319 35.3013 70.8741 35.2981C70.8996 35.2965 70.9267 35.2989 70.9522 35.2989H70.9649C71.0374 35.2973 71.1386 35.353 71.1649 35.4247C71.1792 35.463 71.18 35.5068 71.18 35.5474C71.18 35.5705 71.1752 35.6015 71.1792 35.6238C71.184 35.6477 71.2031 35.6677 71.2182 35.6868C71.2437 35.7178 71.2923 35.7481 71.3042 35.7879C71.3154 35.8261 71.3058 35.8779 71.3058 35.9169C71.3058 35.9592 71.3058 36.0006 71.3058 36.0428C71.3058 36.0906 71.2971 36.1471 71.305 36.1941C71.3106 36.2236 71.3337 36.2674 71.3552 36.2849C71.3919 36.316 71.4404 36.347 71.4173 36.4052C71.4102 36.4235 71.3911 36.4355 71.3815 36.453C71.368 36.4777 71.3616 36.5008 71.3433 36.5223C71.3106 36.5613 71.3186 36.6003 71.3186 36.6505C71.3186 36.7421 71.317 36.8337 71.3186 36.9253C71.3186 36.9484 71.321 36.9675 71.3114 36.989C71.3058 37.0009 71.2987 37.0097 71.2947 37.0217C71.2923 37.0304 71.2939 37.0408 71.2907 37.0487C71.2724 37.0957 71.2349 37.1316 71.1895 37.1531C71.1457 37.1746 71.0772 37.1682 71.0279 37.1658C70.9745 37.1626 70.9379 37.1348 70.8893 37.1778C70.8733 37.1913 70.8503 37.2104 70.8383 37.2271C70.8224 37.251 70.8264 37.2765 70.8264 37.3044C70.8264 37.3617 70.8335 37.4016 70.8765 37.4422L70.8893 37.5179C70.8869 37.5362 70.8972 37.5521 70.9012 37.5696C70.906 37.5943 70.9004 37.619 70.9052 37.6437C70.9132 37.6851 70.9076 37.7313 70.918 37.7703C70.9227 37.7887 70.9283 37.7998 70.9275 37.8205C70.9275 37.8412 70.9251 37.8611 70.9299 37.881C70.9379 37.9137 70.9395 37.94 70.9395 37.975C70.9395 38.0117 70.9395 38.0483 70.9395 38.0857C70.9395 38.1296 70.945 38.1542 70.9148 38.1869C70.8837 38.2196 70.8495 38.245 70.8511 38.2912C70.8534 38.3374 70.8765 38.3669 70.902 38.4051C70.9235 38.4378 70.9482 38.4736 70.9403 38.515C70.9299 38.5716 70.8678 38.5764 70.828 38.6035C70.7985 38.6242 70.7634 38.6409 70.738 38.6656C70.726 38.6775 70.7093 38.6903 70.6989 38.7038C70.683 38.7253 70.687 38.7444 70.687 38.7699C70.6878 38.8129 70.6798 38.8631 70.6862 38.9061C70.6894 38.9268 70.7029 38.9388 70.7101 38.9571C70.718 38.977 70.722 39.0017 70.7284 39.0224C70.7387 39.0574 70.7499 39.1339 70.7356 39.1689C70.7172 39.2143 70.675 39.2558 70.6495 39.2972C70.6233 39.3394 70.6018 39.3848 70.5747 39.4262C70.5579 39.4509 70.5364 39.4716 70.5229 39.4979C70.5086 39.5266 70.5022 39.556 70.4855 39.5839C70.4568 39.6325 70.4233 39.6763 70.4034 39.7297C70.3851 39.779 70.3357 39.8356 70.3341 39.889V39.9017C70.3286 39.9543 70.2975 39.9989 70.2736 40.0435C70.2609 40.0674 70.264 40.0921 70.2561 40.116C70.2473 40.143 70.2274 40.1614 70.2171 40.1884C70.1844 40.2745 70.1414 40.3581 70.104 40.4433C70.0817 40.4927 70.0729 40.5452 70.045 40.5922C70.014 40.6448 69.9702 40.6552 69.9184 40.6807C69.877 40.7006 69.8547 40.7237 69.8547 40.7722C69.8547 40.8304 69.8921 40.8678 69.9279 40.9076C69.963 40.9459 69.9741 40.9881 69.9821 41.0383C69.9845 41.0526 69.9837 41.0741 69.9813 41.0876C69.9757 41.1139 69.9574 41.1179 69.9431 41.1378C69.9232 41.1657 69.9096 41.2175 69.9208 41.2509C69.9375 41.3011 69.9932 41.3401 70.0171 41.3871C70.0426 41.4373 70.0283 41.4755 69.994 41.5169C69.9781 41.5369 69.955 41.5544 69.9455 41.5791C69.9383 41.5982 69.9367 41.6213 69.9303 41.642C69.916 41.6882 69.9184 41.7304 69.9176 41.7782C69.9176 41.8005 69.9144 41.8244 69.9255 41.8451C69.9383 41.8682 69.9646 41.8865 69.9805 41.908C69.9757 41.9415 69.994 41.9598 70.006 41.9885C70.0179 42.0155 70.0267 42.0426 70.0402 42.0697C70.0649 42.1175 70.1056 42.1605 70.1446 42.1987C70.1677 42.2218 70.182 42.2226 70.2131 42.2298C70.2402 42.2362 70.2617 42.2513 70.2871 42.2593C70.3349 42.2736 70.3907 42.2903 70.4353 42.3182C70.5325 42.3787 70.6392 42.4353 70.7188 42.5197C70.7539 42.5571 70.7905 42.6097 70.808 42.6591C70.816 42.6806 70.8192 42.7061 70.824 42.7284C70.8287 42.7539 70.8407 42.7913 70.8391 42.8168L70.8518 42.8423C70.8773 42.8662 70.9148 42.8837 70.9434 42.9052C70.9745 42.9291 71.0008 42.957 71.0311 42.9809C71.0494 42.996 71.0637 43.0032 71.0788 43.0215C71.0924 43.0374 71.1003 43.0549 71.1163 43.0693C71.1473 43.0987 71.1768 43.1266 71.2039 43.1601C71.231 43.1927 71.2612 43.2166 71.2867 43.2509C71.309 43.2811 71.3106 43.2955 71.3178 43.3305C71.3257 43.3695 71.3329 43.403 71.3313 43.4444C71.3289 43.4898 71.3042 43.5312 71.2931 43.5758C71.2772 43.6388 71.27 43.7232 71.2796 43.7877C71.2843 43.8172 71.3011 43.8466 71.3082 43.8753C71.3138 43.8968 71.3178 43.9191 71.3273 43.9398C71.3361 43.9597 71.3377 43.9796 71.3457 43.9996C71.3584 44.0306 71.3799 44.0577 71.3911 44.0904C71.4022 44.1254 71.403 44.1596 71.4094 44.1947C71.4157 44.2289 71.4213 44.2568 71.4197 44.2927C71.4181 44.3277 71.3974 44.3556 71.3934 44.3906C71.3887 44.4328 71.3807 44.5284 71.4086 44.5579C71.4317 44.5818 71.4755 44.5961 71.5042 44.6112C71.5551 44.6375 71.5862 44.6662 71.6212 44.71C71.6364 44.7283 71.6587 44.7498 71.669 44.7721C71.6794 44.7944 71.6897 44.8398 71.6826 44.8637C71.673 44.8964 71.6332 44.9274 71.6093 44.9497C71.5695 44.9856 71.5296 44.9776 71.4827 44.9904C71.4516 44.9983 71.4285 44.9999 71.3942 44.9999C71.3568 45.0007 71.3465 44.9951 71.3162 44.9752C71.2684 44.9434 71.2405 44.9099 71.2055 44.8645C71.1864 44.839 71.1617 44.8191 71.141 44.7952C71.1179 44.7674 71.1083 44.7443 71.0924 44.714C71.0709 44.6726 71.0398 44.6343 71.0159 44.5945C70.9904 44.5515 70.9713 44.4989 70.9371 44.4607C70.9211 44.4424 70.9044 44.4305 70.8893 44.4105C70.8813 44.4002 70.8733 44.389 70.8654 44.3787C70.8311 44.3397 70.7905 44.2966 70.7475 44.268C70.7117 44.2433 70.6687 44.2321 70.6248 44.2449C70.597 44.2528 70.585 44.2743 70.5627 44.2911C70.5372 44.3102 70.503 44.3269 70.4735 44.3412C70.3963 44.3795 70.2959 44.4169 70.2083 44.4201C70.1924 44.4209 70.1748 44.4217 70.1589 44.4209C70.1143 44.4193 70.1048 44.4026 70.0793 44.3699C70.0402 44.3181 70.0171 44.2807 70.0028 44.2162C69.9893 44.1509 69.9797 44.0856 69.9654 44.0203C69.9598 43.9948 69.955 43.9693 69.9471 43.9446C69.9383 43.9191 69.92 43.8936 69.9184 43.8657L69.9056 43.853C69.904 43.818 69.8563 43.7734 69.8363 43.7471C69.8124 43.7152 69.7886 43.6738 69.7599 43.6459C69.74 43.626 69.7113 43.6196 69.6898 43.6005C69.677 43.5894 69.6683 43.575 69.6532 43.5655C69.6364 43.5543 69.6181 43.5519 69.6014 43.5376C69.587 43.5257 69.5767 43.5113 69.5616 43.5002C69.497 43.4508 69.4485 43.3735 69.4126 43.301C69.4039 43.2827 69.3959 43.2684 69.3911 43.2485C69.3847 43.2254 69.3704 43.2055 69.3648 43.184C69.3561 43.1521 69.3624 43.1107 69.3624 43.078C69.3624 43.0024 69.3608 42.9315 69.3473 42.8574C69.3346 42.7873 69.3298 42.7069 69.2963 42.6424C69.2788 42.6081 69.2685 42.5802 69.2398 42.554C69.2031 42.5205 69.1697 42.4879 69.1251 42.4648C69.0582 42.4305 68.9825 42.4401 68.9085 42.4401C68.7611 42.4401 68.6146 42.4401 68.4672 42.4401C68.4361 42.4401 68.3995 42.4464 68.3692 42.4409C68.3151 42.4313 68.2992 42.3923 68.2745 42.3509C68.2322 42.2808 68.2052 42.2011 68.1717 42.1255C68.1645 42.1087 68.1582 42.0912 68.1518 42.0737C68.1414 42.0434 68.1279 42.0243 68.1128 41.998C68.0937 41.9662 68.073 41.9255 68.0347 41.912C67.9941 41.8977 67.9606 41.9486 67.9232 41.9606C67.877 41.9749 67.8428 41.9996 67.795 42.0084C67.7663 42.0131 67.7106 42.0219 67.6843 42.0132C67.6628 42.0052 67.658 41.9845 67.6468 41.967C67.6365 41.9494 67.6221 41.9367 67.6094 41.9208C67.5417 41.8379 67.4517 41.7798 67.3442 41.7591H67.3314C67.1721 41.7591 67.0136 41.7591 66.8544 41.7591C66.8002 41.7591 66.7038 41.7814 66.6887 41.7089C66.6791 41.6659 66.6807 41.6269 66.6632 41.5846C66.6512 41.556 66.6465 41.5273 66.6345 41.4962C66.6066 41.4246 66.5716 41.3545 66.5342 41.2884C66.4896 41.2103 66.3876 41.1665 66.3064 41.1362C66.2689 41.1227 66.2355 41.1012 66.1965 41.0924C66.159 41.0837 66.1224 41.0749 66.0858 41.0614C66.0467 41.047 66.0077 41.0375 65.9687 41.0231C65.9336 41.0104 65.9073 41.0008 65.8683 41.0016C65.8014 41.0016 65.717 41.0112 65.6565 40.9777C65.6166 40.9554 65.5896 40.918 65.5402 40.9124C65.5027 40.9084 65.4621 40.9132 65.4247 40.9132C65.3809 40.9132 65.3522 40.9092 65.3124 40.8997C65.2718 40.8901 65.2303 40.9021 65.1889 40.8909C65.1555 40.8822 65.118 40.8774 65.0878 40.8599C65.0456 40.836 65.0193 40.7953 64.993 40.7555C64.9356 40.6703 64.8616 40.6098 64.7716 40.5644C64.6959 40.5261 64.6019 40.5787 64.539 40.5094C64.5095 40.4768 64.4809 40.4449 64.4498 40.4146C64.4187 40.3844 64.4124 40.3477 64.3861 40.3135C64.3582 40.2768 64.3319 40.2458 64.3001 40.2115C64.2857 40.1956 64.277 40.1757 64.2602 40.1614C64.2435 40.1478 64.2196 40.147 64.2045 40.1311L64.1161 40.1175C64.0293 40.1175 63.9512 40.0992 63.8652 40.0937C63.7951 40.0889 63.7226 40.0801 63.6541 40.0698C63.5888 40.0602 63.5267 40.0451 63.4654 40.0188C63.4056 39.9941 63.3451 39.975 63.2822 39.9614C63.2455 39.9535 63.2161 39.9495 63.1786 39.9511C63.1372 39.9527 63.1069 39.9774 63.0655 39.9845C63.0369 39.9893 63.0074 39.9869 62.9787 39.9869C62.958 39.9869 62.9301 39.9925 62.9102 39.9853C62.8959 39.9798 62.8792 39.9606 62.8664 39.9519C62.8314 39.9272 62.7963 39.8913 62.7533 39.8834C62.727 39.8786 62.6784 39.873 62.6522 39.8826C62.6322 39.8898 62.6099 39.9105 62.5916 39.9224C62.5717 39.9352 62.5558 39.9511 62.5343 39.9614C62.5 39.9782 62.4626 39.9941 62.4244 39.9997H62.4363C62.406 40.0029 62.3766 40.0347 62.3487 40.0475C62.3224 40.0594 62.2993 40.0658 62.2714 40.0706C62.2069 40.0817 62.1623 40.0881 62.0978 40.065C62.0691 40.0546 62.0484 40.0403 62.0229 40.0236C61.9959 40.006 61.972 39.9981 61.9425 39.9853C61.8828 39.9591 61.8366 39.9527 61.7713 39.9527C61.7012 39.9519 61.6295 39.9806 61.5618 39.9997C61.5315 40.0084 61.4957 40.018 61.4686 40.0347C61.4567 40.0419 61.4479 40.053 61.4351 40.0594C61.4224 40.0658 61.4073 40.0666 61.3945 40.0737C61.3396 40.1048 61.2854 40.1446 61.2265 40.1693C61.1954 40.1821 61.1651 40.1932 61.1341 40.2044C61.1118 40.2123 61.107 40.2259 61.0879 40.2354C61.072 40.2434 61.0552 40.2338 61.0401 40.249C60.9581 40.249 60.8744 40.2537 60.7924 40.249C60.7135 40.245 60.6419 40.2004 60.5614 40.2139C60.5264 40.2203 60.4937 40.2362 60.4611 40.2482C60.4276 40.2609 60.3902 40.2665 60.3535 40.2737C60.3065 40.2824 60.2588 40.2792 60.2134 40.2896C60.1751 40.2991 60.1218 40.3023 60.0819 40.296C60.0039 40.2832 59.9266 40.2665 59.8486 40.2514C59.8255 40.2466 59.8024 40.241 59.7801 40.2378C59.7626 40.2354 59.7442 40.2402 59.7267 40.237C59.6869 40.2298 59.6471 40.2171 59.6064 40.2123C59.5841 40.2099 59.565 40.2115 59.5435 40.2068C59.5292 40.2036 59.518 40.2004 59.5029 40.2012C59.4591 40.202 59.4161 40.194 59.3731 40.1884C59.3524 40.186 59.3341 40.1781 59.3141 40.1773C59.3006 40.1765 59.2871 40.1789 59.2735 40.1765C59.2512 40.1725 59.2345 40.1661 59.2114 40.1653C59.1748 40.1645 59.1389 40.1653 59.1023 40.1653C59.0059 40.1653 58.8968 40.1502 58.806 40.1805C58.759 40.1956 58.7088 40.202 58.661 40.2147C58.6363 40.2219 58.6116 40.2378 58.5878 40.2466C58.5678 40.2537 58.5432 40.2689 58.5224 40.2721V40.284C58.5017 40.3023 58.4715 40.3151 58.4492 40.331C58.4213 40.3501 58.399 40.3732 58.3751 40.3955C58.3544 40.4138 58.3313 40.4258 58.3098 40.4409C58.2859 40.4576 58.2628 40.4887 58.2437 40.511C58.1561 40.6137 58.0892 40.7332 58.0087 40.8407C57.9928 40.8622 57.9769 40.8798 57.9649 40.9021C57.9514 40.9276 57.9323 40.9435 57.9147 40.9658C57.8725 41.0184 57.8192 41.0526 57.769 41.098C57.7276 41.1362 57.675 41.1784 57.6248 41.2047C57.6009 41.2167 57.5762 41.2294 57.5515 41.2398C57.5229 41.2517 57.4918 41.2724 57.4592 41.2669L57.3883 41.2788C57.35 41.2788 57.3182 41.2796 57.2815 41.2876C57.2401 41.2971 57.2011 41.3075 57.1605 41.3139C57.0928 41.3242 57.0299 41.3377 56.9606 41.3377C56.8745 41.3377 56.7869 41.3481 56.7057 41.317C56.6611 41.3003 56.6133 41.2724 56.5759 41.2438C56.5368 41.2135 56.5121 41.1808 56.4659 41.1601C56.4301 41.1442 56.3998 41.1171 56.372 41.0892C56.3417 41.0582 56.3075 41.0399 56.278 41.0104C56.2079 40.9403 56.1537 40.8567 56.0828 40.7882C56.051 40.7571 56.0231 40.7229 55.9913 40.691C55.9546 40.6544 55.922 40.6145 55.8845 40.5787C55.8391 40.5341 55.8049 40.4959 55.7483 40.4632C55.726 40.4497 55.7133 40.4425 55.687 40.4369C55.6679 40.4322 55.6289 40.4353 55.6161 40.417L55.6042 40.429C55.5213 40.429 55.4393 40.429 55.3565 40.429C55.2736 40.429 55.1804 40.4393 55.0984 40.4266C55.049 40.4186 55.002 40.4146 54.9535 40.4019C54.9104 40.3907 54.8674 40.3836 54.8244 40.3732C54.7185 40.3469 54.6205 40.3015 54.5162 40.2697C54.4039 40.2346 54.2884 40.1948 54.1849 40.1391C54.1618 40.1271 54.145 40.1096 54.1235 40.0968C54.1004 40.0833 54.0773 40.0777 54.055 40.0626C54.0144 40.0347 53.9778 40.0021 53.9372 39.9734C53.8854 39.9368 53.8336 39.9009 53.7826 39.8635C53.7348 39.8284 53.6934 39.7902 53.6417 39.7599C53.5525 39.7074 53.4601 39.6548 53.3661 39.6118C53.3135 39.5879 53.2498 39.5624 53.1924 39.5536L53.2044 39.5656C53.1789 39.5656 53.1486 39.5704 53.1239 39.5632C53.0977 39.556 53.073 39.5353 53.0499 39.521C53.0029 39.4915 52.9599 39.4636 52.9208 39.4238C52.8723 39.3752 52.8141 39.3266 52.7767 39.2709C52.756 39.2398 52.7305 39.2159 52.7074 39.1873C52.6867 39.1618 52.6731 39.1275 52.6564 39.0997C52.6262 39.0487 52.5887 39.0041 52.5608 38.9515C52.5441 38.9197 52.521 38.8981 52.5011 38.8687C52.4836 38.8432 52.4716 38.8161 52.4541 38.7898C52.4207 38.7428 52.4039 38.6879 52.3777 38.6361C52.3601 38.605 52.3514 38.5732 52.3323 38.5501C52.3131 38.527 52.3028 38.4911 52.2789 38.4728L52.3323 38.5501Z" fill="white"/>
</svg>
