<svg width="173" height="45" viewBox="0 0 173 45" fill="none" xmlns="http://www.w3.org/2000/svg">
<path d="M122.545 36.4423C122.472 36.4921 122.369 36.519 122.288 36.5535C122.164 36.6071 122.056 36.7221 121.966 36.8236C121.807 36.9999 121.742 37.2471 121.711 37.477C121.683 37.6955 121.654 37.9158 121.625 38.1343C121.61 38.2493 121.587 38.3566 121.608 38.4715C121.635 38.6248 121.646 38.78 121.66 38.9314C121.679 39.1441 121.709 39.3587 121.755 39.5714C121.784 39.6998 121.824 39.8262 121.845 39.9565C121.857 40.0294 121.836 40.0907 121.834 40.1616C121.83 40.2363 121.853 40.3034 121.845 40.3781C121.824 40.5965 121.786 40.8131 121.759 41.0315C121.738 41.2116 121.681 41.3783 121.654 41.5584C121.638 41.6619 121.602 41.7731 121.571 41.8727C121.535 41.9953 121.508 42.0969 121.491 42.2272C121.483 42.2885 121.464 42.3556 121.474 42.4188C121.483 42.4897 121.527 42.5453 121.552 42.6104C121.6 42.735 121.629 42.8653 121.684 42.9879C121.736 43.1048 121.771 43.2236 121.792 43.3481C121.803 43.4133 121.811 43.4746 121.83 43.5359C121.851 43.6049 121.857 43.7141 121.911 43.7678C90.4647 45.6303 21.8532 44.9404 0.491929 44.5189C0.261991 44.5246 0.110616 44.1816 0.074209 43.9958C0.0320538 43.7831 -0.044592 43.5129 0.0339701 43.2983C0.0876222 43.1546 0.210256 43.0933 0.338638 43.03C0.415283 42.9917 0.472768 42.9496 0.560911 42.9534C0.618396 42.9553 0.679712 42.9706 0.737197 42.9783C0.857914 42.9936 0.976715 43.0109 1.09743 43.0262C1.21623 43.0396 1.30629 43.0914 1.41935 43.1278C1.6033 43.1872 1.82748 43.3692 2.02868 43.2887C2.09575 43.2619 2.13024 43.2274 2.17239 43.1699C2.22988 43.0914 2.31035 43.0511 2.37167 42.9802C2.45215 42.8863 2.46556 42.7771 2.47898 42.6602C2.50772 42.4341 2.49814 42.1199 2.60927 41.9244C2.68017 41.7999 2.7664 41.7002 2.88903 41.6217C2.96759 41.5699 3.05574 41.5239 3.14005 41.4818C3.19753 41.4531 3.27801 41.4473 3.32783 41.4071L3.36232 41.4109C3.59034 41.317 3.8222 41.1867 4.06938 41.1618C4.28974 41.1407 4.50243 41.1771 4.71704 41.0909C4.84733 41.0392 4.97955 40.9549 5.07919 40.8571C5.14434 40.792 5.16733 40.7383 5.19991 40.6521C5.26122 40.4854 5.26122 40.2689 5.2823 40.0907C5.2938 39.9949 5.26314 39.9125 5.20949 39.832C5.12518 39.7017 4.99488 39.7094 4.85883 39.6921C4.75728 39.6787 4.6538 39.6672 4.55225 39.6519C4.42961 39.6346 4.33381 39.5676 4.23034 39.5062C4.11728 39.4392 4.04638 39.3894 4.0598 39.2418C4.06938 39.1403 4.07513 39.0349 4.12495 38.9467C4.1901 38.8318 4.28399 38.78 4.38171 38.6976C4.43536 38.6536 4.4756 38.5942 4.52925 38.5501C4.57524 38.5137 4.62889 38.5041 4.67488 38.4696L4.7132 38.4409C4.7726 38.416 4.77069 38.37 4.80518 38.324C4.83967 38.2761 4.87608 38.2703 4.9144 38.2301C4.96997 38.1745 4.97188 38.073 4.97763 37.9982C4.99296 37.822 4.86266 37.6265 4.74578 37.5058C4.67488 37.4311 4.59632 37.3602 4.52351 37.2893C4.47177 37.2394 4.42578 37.2107 4.36638 37.1685C4.30315 37.1245 4.28207 37.0766 4.24375 37.0153C4.18052 36.9156 4.10195 36.8313 4.05022 36.724C3.9889 36.5995 3.93908 36.4921 3.85477 36.381C3.80687 36.3178 3.79537 36.2526 3.75896 36.1817C3.71681 36.0974 3.67657 36.0112 3.64974 35.9192C3.59226 35.7142 3.60759 35.5034 3.59609 35.2926C3.59034 35.1911 3.61525 35.0857 3.62866 34.9841C3.63824 34.9075 3.63633 34.8117 3.66699 34.7408C3.69381 34.6795 3.77429 34.5779 3.82411 34.53C3.87968 34.4764 4.0004 34.3384 4.07704 34.3346C4.08087 34.3422 4.08471 34.3518 4.08854 34.3595L4.07896 34.4265C4.25716 34.4476 4.4162 34.4304 4.5944 34.4265C4.74769 34.4227 4.92398 34.4112 5.07536 34.3806C5.26697 34.3422 5.47966 34.2828 5.64828 34.1832C5.73451 34.1315 5.82457 34.0644 5.89738 33.9954C5.95295 33.9437 6.02193 33.89 6.07367 33.8364C6.1484 33.7597 6.1369 33.5911 6.15032 33.4895C6.17139 33.3286 6.16948 33.181 6.12349 33.0239C6.07559 32.863 5.99894 32.7078 5.91271 32.566C5.85715 32.474 5.72301 32.2996 5.74218 32.1866L5.71343 32.1482C5.58122 31.9643 5.57164 31.6596 5.60038 31.4488C5.62529 31.2611 5.63679 31.0656 5.67511 30.8798C5.72493 30.6307 5.94145 30.3777 6.21163 30.3681C6.47031 30.3586 6.73857 30.372 6.97234 30.5003C7.07198 30.554 7.15438 30.6172 7.24444 30.6843C7.30767 30.7322 7.36515 30.7954 7.43222 30.8414C7.4897 30.8798 7.53186 30.8817 7.59318 30.9027C7.69282 30.9334 7.77904 30.9545 7.88443 30.9679C8.01089 30.9851 8.16036 31.0311 8.28491 30.989C8.44969 30.9334 8.557 30.7265 8.65855 30.6C8.73903 30.5004 8.85975 30.3624 8.96514 30.2877C9.09352 30.1976 9.25256 30.1746 9.39244 30.1056C9.46525 30.0692 9.54765 30.0405 9.61471 29.9907C9.6722 29.9485 9.71818 29.891 9.77758 29.8489L9.85806 29.7569C9.87339 29.6285 9.88489 29.4886 9.85998 29.3641C9.85231 29.3277 9.83124 29.2338 9.80824 29.205C9.76992 29.159 9.67986 29.1399 9.62429 29.1207C9.48633 29.0728 9.34262 29.0498 9.2104 28.9885C9.14334 28.9578 9.05903 28.9444 8.99771 28.9061C8.93256 28.8659 8.87316 28.8295 8.80418 28.795C8.53975 28.6608 8.3079 28.4482 8.12778 28.2144C8.03389 28.0917 7.92275 27.9806 7.85185 27.8446C7.76371 27.6798 7.67174 27.5265 7.63725 27.3387C7.58168 27.0455 7.58551 26.7562 7.62575 26.4649C7.64683 26.3059 7.67557 26.1814 7.74264 26.0357C7.81736 25.8729 7.91892 25.7272 8.04155 25.595C8.12395 25.5069 8.19484 25.3938 8.31748 25.3612C8.47077 25.3191 8.65089 25.3267 8.8061 25.3478C8.95172 25.367 9.09735 25.3861 9.24298 25.4053C9.4001 25.4264 9.54765 25.4226 9.70285 25.4321C9.87148 25.4436 10.0458 25.4015 10.2087 25.3517C10.3735 25.2999 10.5555 25.2635 10.7088 25.1869C10.8947 25.093 11.0442 24.9569 11.1936 24.8132C11.2664 24.7423 11.3412 24.6733 11.4178 24.6044C11.4925 24.5354 11.5826 24.4894 11.6554 24.4223L11.6592 24.3878C11.6554 24.2614 11.755 24.2135 11.8125 24.1196C11.8413 24.0717 11.8585 23.9931 11.8566 23.9356C11.8509 23.7421 11.6439 23.5466 11.4772 23.4815C11.3967 23.4508 11.3048 23.4643 11.2243 23.4413C11.1266 23.4125 11.0154 23.3435 10.9503 23.265C10.8372 23.1308 10.8295 22.8702 10.8947 22.7093C10.9924 22.4679 11.2569 22.3586 11.4734 22.2437C11.6439 22.1536 11.7972 22.0808 11.9946 22.1076C12.0865 22.121 12.1536 22.1249 12.2341 22.1728C12.3146 22.2207 12.4008 22.2705 12.4755 22.3261C12.6518 22.4564 12.8587 22.4621 13.0714 22.4889L13.1059 22.4928C13.1615 22.4985 13.2496 22.4276 13.2975 22.4008C13.3684 22.3605 13.4949 22.2954 13.5237 22.2149C13.5907 22.0271 13.4949 21.893 13.3972 21.7455C13.2899 21.5807 13.1634 21.437 13.035 21.2894C12.968 21.2128 12.9086 21.1323 12.8453 21.0518C12.7725 20.9579 12.7361 20.8602 12.6863 20.7548C12.6556 20.6878 12.6173 20.6207 12.5962 20.5498C12.5713 20.4597 12.602 20.3524 12.6135 20.2624C12.6346 20.1014 12.6576 19.9424 12.6767 19.7814C12.6959 19.6262 12.7821 19.4614 12.8473 19.3177C12.8875 19.2277 12.9603 19.1587 13.0255 19.0839C13.058 19.0475 13.1002 19.0111 13.127 18.9709C13.1596 18.9211 13.1692 18.8597 13.2132 18.8195L13.2477 18.8233C13.2477 18.7237 13.4259 18.5857 13.4853 18.511C13.5524 18.4267 13.6099 18.3271 13.6348 18.2217C13.6884 18.0109 13.652 17.7656 13.7287 17.5606C13.767 17.4552 13.8034 17.3345 13.8571 17.2329C13.9126 17.1314 14.018 17.0624 14.1119 16.9953C14.3093 16.8516 14.5373 16.7731 14.7193 16.6025C14.8113 16.5163 14.888 16.4147 14.955 16.3094C15.0106 16.2212 15.0891 16.1503 15.0853 16.0373C15.0834 15.9453 15.0182 15.8514 14.9761 15.7709C14.909 15.6425 14.7941 15.5697 14.6963 15.472C14.5392 15.3149 14.3476 15.1807 14.2116 15.0006C14.1407 14.9067 14.0602 14.8186 14.0008 14.717C13.9682 14.6634 13.9452 14.6078 13.9031 14.558C13.8494 14.4928 13.7747 14.4449 13.7287 14.374L13.5984 14.3223C13.5313 14.3108 13.4872 14.2342 13.4355 14.1958C13.3953 14.1671 13.3531 14.1499 13.3186 14.1173C13.2324 14.033 13.2381 13.941 13.2535 13.8318C13.2631 13.7628 13.2516 13.6555 13.288 13.5961C13.3455 13.5022 13.5811 13.4888 13.675 13.483C13.8916 13.4696 14.1349 13.5367 14.3495 13.5654C14.5737 13.5942 14.796 13.6248 15.0202 13.6536L15.0547 13.6574C15.1696 13.6727 15.298 13.6133 15.4015 13.5731C15.4992 13.5367 15.6027 13.5137 15.6966 13.4677C15.9073 13.3642 16.0875 13.2665 16.2561 13.1017C16.3289 13.0327 16.396 13.0327 16.4151 12.9293C16.4285 12.8584 16.4343 12.7836 16.4439 12.7108C16.4592 12.5959 16.4879 12.5403 16.3825 12.4617C16.3097 12.4062 16.2293 12.4138 16.1449 12.3812C15.9572 12.3084 15.8 12.2184 15.6717 12.0593C15.6065 11.9789 15.4992 11.8639 15.482 11.7547C15.4705 11.6819 15.4858 11.5209 15.5203 11.4519C15.6008 11.2891 15.9648 11.2986 16.1143 11.2737C16.2024 11.2584 16.2829 11.2335 16.3672 11.2047C16.4419 11.1798 16.5378 11.1243 16.6182 11.1262L16.6566 11.0974C16.7275 11.0419 16.76 11.0304 16.7792 10.9422C16.7945 10.8732 16.8271 10.8158 16.8405 10.7449C16.8654 10.5992 16.8175 10.4594 16.714 10.3521C16.6527 10.2888 16.5761 10.2448 16.5205 10.1739C16.5013 10.1489 16.486 10.1221 16.4649 10.101C16.4343 10.0723 16.3921 10.0665 16.3596 10.0359C16.2982 9.9784 16.2733 9.89792 16.2101 9.83661C16.1085 9.73888 16.0606 9.63541 16.0108 9.50703C15.9533 9.35565 15.9399 9.25218 15.9629 9.09122C15.9763 9.00117 15.9897 8.96093 16.0568 8.8977C16.1239 8.83446 16.1584 8.75207 16.2273 8.69075C16.35 8.58345 16.486 8.4589 16.5128 8.29219C16.5224 8.23471 16.5397 8.16381 16.532 8.10632C16.5263 8.06034 16.5052 8.03734 16.4822 7.99711C16.4515 7.93771 16.4439 7.91088 16.4266 7.84573C16.4055 7.76142 16.3557 7.70202 16.3231 7.62537C16.2867 7.55639 16.2867 7.47591 16.2657 7.40501C16.2216 7.25364 16.1948 7.0582 16.2082 6.90107C16.2178 6.76694 16.2082 6.64239 16.2273 6.50634C16.2446 6.37988 16.2408 6.26682 16.3174 6.16144C16.3749 6.08287 16.4036 6.07329 16.4956 6.08096C16.5684 6.08862 16.6451 6.09437 16.716 6.11737C16.8635 6.1691 17.0187 6.22275 17.1624 6.2879C17.2678 6.3358 17.3751 6.38946 17.4728 6.45461C17.538 6.49868 17.5744 6.55999 17.6357 6.60598C17.7353 6.68071 17.7583 6.71521 17.812 6.83401C17.8848 6.99688 17.9653 7.11376 17.9653 7.29771C17.9672 7.46825 17.9327 7.66562 17.8618 7.81891C17.8216 7.90705 17.8101 7.98178 17.7986 8.0795C17.7909 8.14082 17.7603 8.22705 17.7737 8.28453C17.8101 8.45315 18.0247 8.4359 18.1607 8.45315L18.27 8.3995C18.3294 8.31518 18.3753 8.29986 18.4616 8.24812C18.5363 8.20213 18.588 8.12741 18.6551 8.07375C18.7528 7.99519 18.8659 7.90896 18.9291 7.80166C18.9943 7.69244 19.0786 7.59088 19.1495 7.48357C19.1878 7.42609 19.2165 7.38777 19.2395 7.32453C19.2568 7.28046 19.2759 7.19616 19.32 7.17125L44.5327 7.49316C44.5959 7.50082 44.6611 7.51807 44.7243 7.51424C44.799 7.51041 44.8699 7.49507 44.9447 7.49316C45.0098 7.49316 45.0749 7.48166 45.1382 7.47016C45.2033 7.45675 45.2474 7.46441 45.3145 7.46825C45.3739 7.47208 45.4314 7.45867 45.4908 7.46442C45.5367 7.46825 45.5751 7.46441 45.6211 7.45483C45.69 7.44142 45.8625 7.43376 45.8682 7.33603C45.828 7.31687 45.782 7.33029 45.7418 7.31687C45.7015 7.30346 45.6632 7.28238 45.6211 7.26897C45.5118 7.23256 45.4199 7.18083 45.4084 7.06011C45.4045 7.01604 45.3911 6.97197 45.3854 6.9279C45.3815 6.87999 45.393 6.83592 45.393 6.78801C45.3911 6.72861 45.3892 6.68071 45.3949 6.61939C45.4026 6.55807 45.3873 6.50251 45.3911 6.44311C45.393 6.39329 45.4084 6.34539 45.4064 6.29365C45.4026 6.21509 45.393 6.13461 45.3834 6.05413C45.372 5.96407 45.3585 5.88167 45.3413 5.79353C45.3202 5.6824 45.2397 5.61917 45.2033 5.51761C45.1803 5.45438 45.1458 5.40456 45.1209 5.34516C45.0979 5.28959 45.1171 5.23019 45.0654 5.18803L45.0692 5.16312C45.0941 5.08264 45.0405 4.97917 45.0194 4.90061C44.9945 4.80672 44.9945 4.73391 45.0079 4.64002C45.0328 4.46756 44.983 4.27978 44.9293 4.11307C44.9063 4.04409 44.8661 3.97319 44.8527 3.90421C44.8412 3.84673 44.8431 3.80265 44.822 3.74325C44.8086 3.70301 44.8009 3.67428 44.8048 3.63212C44.8163 3.48074 44.845 3.32745 44.8661 3.17608L49.4208 3.2853C49.507 3.39643 49.6507 3.54972 49.6507 3.70302L74.1602 3.49608C74.2924 3.51332 74.4227 3.51524 74.5319 3.59188C74.553 3.60721 74.576 3.62254 74.599 3.63787C74.6335 3.66278 74.6373 3.69535 74.6603 3.7241C74.6986 3.772 74.735 3.78733 74.7944 3.79499C74.85 3.80074 74.9285 3.79691 74.9784 3.82182C75.0493 3.85631 75.0569 3.94062 75.0818 4.00194C75.101 4.05176 75.1163 4.12074 75.1432 4.16481C75.17 4.20696 75.2428 4.23571 75.2945 4.21846C75.3463 4.20122 75.3654 4.10541 75.3923 4.06325C75.421 4.01726 75.4402 3.97511 75.4651 3.92721C75.5321 3.79882 75.6548 3.77775 75.7831 3.74901C75.8521 3.73368 75.9 3.7126 75.9556 3.67044C75.9805 3.65128 76.0073 3.63595 76.0303 3.61488C76.0667 3.5823 76.0782 3.54973 76.1089 3.51332C76.1836 3.42518 76.2909 3.3217 76.4193 3.35619L91.555 3.78925L132.106 2.53225C132.15 2.53608 132.218 2.50351 132.262 2.48626C132.306 2.46902 132.352 2.4556 132.396 2.43836C132.434 2.42303 132.469 2.40003 132.507 2.38662C132.557 2.36746 132.618 2.36746 132.664 2.34064C132.706 2.31764 132.731 2.3004 132.779 2.2889C132.833 2.27549 132.871 2.24483 132.921 2.22375C132.967 2.20459 133.015 2.19118 133.061 2.1701C133.103 2.15094 133.155 2.12219 133.201 2.12219C144.912 2.08578 161.048 0.897777 167.524 0.451314C167.524 0.378501 167.592 0.35934 167.634 0.317185C167.672 0.280778 167.707 0.240535 167.745 0.204128C167.844 0.108321 167.929 0.0355122 168.069 0.0086861C168.18 -0.0123915 168.289 0.0125132 168.4 0.00484859C168.502 -0.002816 168.611 0.0259292 168.712 0.0393422C168.918 0.0661683 169.123 0.092994 169.328 0.11982C169.458 0.137065 169.59 0.163891 169.72 0.173472C169.786 0.177304 169.845 0.161977 169.91 0.169642C169.991 0.179223 170.071 0.198384 170.152 0.196468C170.192 0.194552 170.222 0.186884 170.263 0.1888C170.297 0.192632 170.33 0.202214 170.364 0.200298C170.401 0.198382 170.433 0.186884 170.47 0.1888C170.496 0.1888 170.523 0.204129 170.55 0.202213C170.657 0.198381 170.772 0.177303 170.882 0.1888C170.947 0.196465 171 0.206046 171.066 0.200298C171.131 0.19455 171.184 0.20988 171.249 0.211796C171.299 0.213712 171.345 0.198381 171.393 0.202213C171.455 0.206045 171.514 0.207963 171.577 0.200298C171.688 0.186885 171.807 0.177304 171.918 0.160059C172.05 0.138981 172.179 0.0297603 172.323 0.0814963C172.426 0.117903 172.466 0.265445 172.455 0.363169C172.449 0.418737 172.451 0.485802 172.428 0.537538C172.39 0.614184 172.313 0.679338 172.267 0.754068C172.252 0.778978 172.24 0.811551 172.225 0.836461C172.198 0.874784 172.163 0.895861 172.137 0.930351C172.083 0.997417 172.066 1.08172 172.052 1.16412C172.031 1.30208 172.018 1.44388 171.999 1.58184C171.978 1.72939 172.022 1.82328 172.072 1.95549C172.1 2.03214 172.135 2.07429 172.183 2.14327C172.221 2.19692 172.296 2.2774 172.277 2.3483L172.273 2.37512C172.355 2.4556 172.369 2.59548 172.392 2.70087C172.405 2.76985 172.43 2.82159 172.422 2.89248C172.416 2.94422 172.407 2.99404 172.401 3.04578C172.393 3.11284 172.39 3.17607 172.363 3.23739C172.338 3.29679 172.3 3.3332 172.263 3.38685C172.229 3.43858 172.202 3.49608 172.171 3.54781C172.137 3.60721 172.077 3.6532 172.029 3.70302C171.673 4.05942 171.489 4.62469 171.619 5.11905C171.646 5.22444 171.673 5.32791 171.74 5.41605C171.84 5.54635 171.92 5.68048 172.004 5.81844C172.041 5.87784 172.095 5.91425 172.121 5.98131C172.142 6.03305 172.15 6.09245 172.16 6.14802C172.177 6.26491 172.177 6.37604 172.162 6.49293C172.146 6.60981 172.131 6.66538 172.018 6.71903C171.901 6.7746 171.796 6.79568 171.663 6.78227C171.545 6.76886 171.403 6.76502 171.29 6.7267C171.238 6.70945 171.188 6.6922 171.138 6.67304C171.075 6.64813 171.01 6.65197 170.945 6.62897C170.824 6.5849 170.701 6.56957 170.583 6.514C170.464 6.45843 170.351 6.41245 170.23 6.37221C170.115 6.33581 169.979 6.30131 169.855 6.29939C169.789 6.29939 169.724 6.34538 169.661 6.36454C169.615 6.37987 169.535 6.3952 169.517 6.44694L169.487 6.46993C169.395 6.5255 169.314 6.6558 169.241 6.73436C169.19 6.78993 169.174 6.85891 169.124 6.9164C169.086 6.96239 169.042 7.01029 169.01 7.06203C168.967 7.12718 168.942 7.19807 168.895 7.26131C168.864 7.30155 168.847 7.3437 168.82 7.38394C168.762 7.46825 168.705 7.53531 168.657 7.62729C168.59 7.75375 168.498 7.86106 168.427 7.98178C168.379 8.06609 168.343 8.15232 168.287 8.23279C168.243 8.29603 168.207 8.365 168.166 8.43015C168.084 8.5662 168.011 8.6965 167.912 8.82488C167.848 8.90536 167.816 9.00117 167.756 9.08356C167.714 9.14488 167.668 9.19662 167.632 9.25985C167.588 9.33649 167.538 9.40547 167.488 9.47829C167.36 9.6699 167.218 9.85194 167.097 10.0474C166.973 10.2467 166.825 10.4325 166.689 10.6241C166.616 10.7276 166.52 10.8062 166.442 10.9039C166.363 11.0016 166.283 11.1185 166.187 11.2009L166.183 11.2277C166.099 11.2871 166.051 11.404 165.982 11.4787C165.923 11.542 165.857 11.6014 165.8 11.6627C165.658 11.8179 165.532 11.9884 165.392 12.1494C165.271 12.2893 165.125 12.4521 164.945 12.5096C164.899 12.525 164.859 12.5269 164.813 12.5326C164.763 12.5384 164.748 12.5499 164.702 12.5671C164.612 12.5997 164.551 12.6342 164.453 12.6495C164.096 12.707 163.679 12.6342 163.374 12.4272C163.205 12.3142 163.035 12.1896 162.876 12.0632C162.801 12.0038 162.694 11.908 162.602 11.8696C162.518 11.8352 162.406 11.839 162.316 11.8275L162.094 11.8792C161.993 11.8658 161.891 11.8486 161.789 11.8371C161.644 11.8217 161.494 11.885 161.356 11.9214C161.019 12.0134 160.686 12.1321 160.383 12.3027C160.331 12.3314 160.272 12.3468 160.22 12.3774C160.172 12.4062 160.142 12.4483 160.098 12.4809C159.996 12.5556 159.869 12.5824 159.77 12.6572C159.693 12.7147 159.626 12.776 159.536 12.8143C159.49 12.8335 159.444 12.8507 159.4 12.8756C159.287 12.9389 159.176 13.0059 159.059 13.0615C158.793 13.188 158.662 13.4351 158.511 13.6747C158.469 13.7398 158.423 13.805 158.396 13.8797C158.375 13.9391 158.379 14.0272 158.369 14.0924C158.354 14.2093 158.338 14.3012 158.292 14.4105C158.258 14.4967 158.252 14.5848 158.218 14.6691C158.183 14.7592 158.166 14.8818 158.087 14.9451C158.015 15.0045 157.844 15.0715 157.844 15.1865C157.743 15.267 157.658 15.3589 157.562 15.4452C157.386 15.6023 157.189 15.7364 157.003 15.8801C156.911 15.951 156.817 16.0219 156.725 16.0928C156.666 16.1388 156.608 16.1676 156.541 16.204C156.474 16.2385 156.415 16.2883 156.344 16.3151C156.246 16.3534 156.16 16.4013 156.058 16.4301C155.953 16.4607 155.857 16.478 155.752 16.4971C155.564 16.5316 155.336 16.5872 155.148 16.5604C155.066 16.5489 154.978 16.5508 154.909 16.4971C154.826 16.4358 154.751 16.294 154.709 16.204C154.667 16.112 154.64 15.9606 154.648 15.8591C154.652 15.8169 154.665 15.7805 154.659 15.7383C154.654 15.6962 154.646 15.6751 154.652 15.631C154.684 15.4088 154.711 15.1846 154.74 14.9604C154.751 14.8665 154.763 14.7745 154.776 14.6806C154.788 14.5963 154.796 14.4392 154.736 14.3721C154.619 14.3549 154.508 14.2955 154.387 14.2974C154.349 14.2974 154.339 14.3089 154.305 14.3146C154.253 14.3242 154.2 14.33 154.148 14.3415C154.081 14.3568 154.014 14.3836 153.947 14.4028C153.859 14.4277 153.782 14.4775 153.694 14.5063C153.606 14.535 153.517 14.5925 153.433 14.6346C153.374 14.6634 153.316 14.7113 153.259 14.7458C153.182 14.7918 153.113 14.8531 153.042 14.9067C152.724 15.152 152.374 15.3628 152.082 15.6387C151.843 15.8648 151.559 16.043 151.327 16.2768C151.222 16.3822 151.111 16.4914 151.03 16.6159C150.988 16.6811 150.927 16.7328 150.875 16.7903C150.837 16.8325 150.783 16.8631 150.747 16.9034C150.722 16.934 150.706 16.9666 150.678 16.9953C150.653 17.0202 150.618 17.0356 150.59 17.0586C150.551 17.0892 150.53 17.1256 150.498 17.162C150.459 17.2061 150.394 17.2579 150.342 17.2828C150.281 17.3115 150.204 17.3173 150.139 17.3364C150.082 17.3537 150.04 17.3728 149.98 17.369C149.856 17.3594 149.704 17.2981 149.584 17.3364C149.449 17.3767 149.317 17.4131 149.208 17.5108C149.087 17.6181 148.969 17.756 148.89 17.894C148.785 18.076 148.683 18.2159 148.656 18.4324C148.645 18.534 148.626 18.6356 148.616 18.7371C148.608 18.8157 148.627 18.8962 148.633 18.9766C148.637 19.0475 148.65 19.1108 148.66 19.1817C148.672 19.2736 148.717 19.3579 148.735 19.448C148.763 19.6051 148.834 19.7412 148.878 19.8926C148.903 19.9807 148.919 20.0573 148.926 20.1474C148.93 20.1857 148.936 20.2221 148.934 20.2605C148.93 20.3064 148.901 20.3563 148.942 20.3946L148.863 20.6149C148.815 20.7989 148.687 20.9426 148.587 21.1016C148.47 21.2913 148.327 21.4887 148.175 21.6554C148.037 21.8068 147.844 21.9409 147.652 22.0061C147.533 22.0463 147.482 22.0501 147.355 22.031C147.263 22.0176 147.19 22.031 147.098 22.0348C146.912 22.0406 146.732 22.054 146.548 22.0348C146.449 22.0233 146.357 22.0406 146.255 22.0329C146.186 22.0271 146.127 22.0482 146.06 22.0463C146.01 22.0444 145.968 22.0329 145.918 22.0329C145.678 22.0425 145.502 22.1249 145.293 22.236C145.102 22.3395 144.956 22.5253 144.749 22.6039C144.678 22.6614 144.617 22.738 144.548 22.7993C144.498 22.8434 144.458 22.8856 144.412 22.9373C144.314 23.0465 144.197 23.127 144.08 23.2152C143.971 23.2995 143.875 23.3991 143.768 23.4815C143.713 23.5237 143.645 23.5409 143.592 23.5888C143.548 23.6271 143.506 23.6789 143.465 23.721C143.36 23.8302 143.255 23.9165 143.134 24.0084C143.025 24.0908 142.91 24.1732 142.806 24.2614C142.68 24.3706 142.549 24.4683 142.41 24.566C142.281 24.6561 142.124 24.7155 141.999 24.8113C141.95 24.8496 141.915 24.9033 141.867 24.9435C141.794 25.0029 141.704 25.0527 141.626 25.1045C141.561 25.1447 141.49 25.1754 141.432 25.2252C141.388 25.2635 141.359 25.3133 141.312 25.3478C141.218 25.413 141.099 25.4896 140.993 25.5337C140.942 25.5567 140.879 25.5605 140.829 25.5835C140.746 25.6199 140.706 25.6946 140.629 25.7368C140.526 25.7924 140.398 25.8077 140.29 25.8537C140.21 25.8882 140.162 25.9552 140.089 25.9955C140.041 26.0223 139.993 26.0242 139.943 26.0472C139.882 26.074 139.844 26.1028 139.777 26.1219C139.687 26.1469 139.6 26.1794 139.514 26.2139C139.413 26.2561 139.275 26.2752 139.196 26.3538C139.198 26.4515 139.11 26.5282 139.062 26.601C139.003 26.693 138.939 26.7792 138.88 26.8712C138.754 27.0647 138.594 27.2563 138.432 27.4268C138.079 27.7967 137.608 28.1358 137.108 28.2642C136.991 28.2949 136.903 28.3179 136.788 28.3294C136.673 28.3389 136.561 28.3179 136.446 28.3025C136.339 28.2891 136.207 28.2891 136.103 28.2546C136.035 28.2297 135.964 28.201 135.895 28.1761C135.793 28.1377 135.676 28.0822 135.588 28.0209C135.479 27.9461 135.418 27.925 135.291 27.8906C135.182 27.8618 135.101 27.8331 134.988 27.8177C134.887 27.8043 134.783 27.7909 134.682 27.7775L134.645 27.7737C134.546 27.7603 134.459 27.7353 134.362 27.7718C134.306 27.7928 134.252 27.8139 134.197 27.835C134.134 27.8561 134.067 27.8599 134.007 27.881C133.963 27.8963 133.927 27.9385 133.883 27.9576C133.81 27.9902 133.735 28.0113 133.662 28.0496C133.532 28.1167 133.423 28.2106 133.294 28.2757C133.149 28.3504 133.026 28.4443 132.881 28.5191C132.737 28.5938 132.603 28.6838 132.461 28.7624C132.388 28.8026 132.313 28.8276 132.242 28.8716C132.195 28.9023 132.162 28.9138 132.106 28.9291C131.963 28.9674 131.811 29.0422 131.681 29.115C131.445 29.2453 131.219 29.4043 130.984 29.5308C130.878 29.5863 130.784 29.6438 130.687 29.7109C130.564 29.7952 130.428 29.8412 130.309 29.9332C130.221 30.0021 130.131 30.0711 130.041 30.1401C129.937 30.2206 129.822 30.2742 129.719 30.3547C129.61 30.4409 129.495 30.4812 129.38 30.5521C129.249 30.6306 129.117 30.7169 128.998 30.8108C128.745 31.0081 128.464 31.171 128.201 31.3569C128.048 31.4642 127.918 31.5887 127.78 31.7114C127.728 31.7573 127.684 31.7995 127.638 31.8493C127.592 31.8972 127.496 31.9336 127.487 32.0045L127.446 32.0352C127.439 32.0888 127.374 32.1272 127.337 32.1655C127.276 32.2287 127.249 32.2881 127.209 32.3628C127.149 32.4778 127.071 32.5794 127.009 32.6924C126.962 32.7806 126.917 32.8745 126.883 32.9684C126.845 33.0737 126.781 33.1619 126.77 33.273C126.755 33.4167 126.697 33.5432 126.678 33.6869C126.663 33.8076 126.645 33.9303 126.63 34.051C126.596 34.3154 126.561 34.5817 126.525 34.8462C126.505 34.9918 126.488 35.1393 126.467 35.285C126.444 35.444 126.379 35.5916 126.329 35.741C126.235 36.0189 126.147 36.3446 125.902 36.5247C125.674 36.6914 125.385 36.77 125.111 36.7911C124.988 36.8006 124.869 36.8045 124.746 36.8102C124.676 36.8141 124.607 36.7834 124.538 36.7834C124.465 36.7834 124.4 36.8006 124.327 36.7949C124.183 36.7815 124.037 36.7566 123.894 36.7374C123.781 36.7221 123.649 36.724 123.541 36.6838C123.426 36.6397 123.306 36.609 123.185 36.5745C123.087 36.5477 122.846 36.5765 122.788 36.4826L122.545 36.4423Z" fill="white"/>
</svg>
