<svg width="49" height="45" viewBox="0 0 49 45" fill="none" xmlns="http://www.w3.org/2000/svg">
<path d="M45.9264 18.3006L45.6115 11.9068L45.497 11.8297C45.4401 11.8297 45.381 11.8334 45.324 11.8303C45.2955 11.8287 45.2744 11.8187 45.2444 11.8187C45.2159 11.8187 45.1869 11.8255 45.1631 11.8081C45.1494 11.7981 45.142 11.7838 45.1267 11.7754C45.1099 11.7659 45.0777 11.7543 45.0582 11.7501C45.0292 11.7438 44.9806 11.7438 44.9558 11.7601C44.9437 11.7686 44.9363 11.7807 44.9215 11.7875C44.8983 11.7976 44.8973 11.7891 44.8751 11.7791C44.8487 11.767 44.8071 11.7664 44.7833 11.7828C44.7564 11.8018 44.7374 11.8355 44.7005 11.8282C44.6773 11.8229 44.6652 11.8071 44.6393 11.8065C44.6225 11.806 44.6019 11.8044 44.585 11.806C44.5491 11.8102 44.5291 11.8398 44.4932 11.8413C44.4468 11.8435 44.4004 11.8413 44.354 11.8413C44.3239 11.8413 44.2901 11.8477 44.2627 11.8366C44.2479 11.8308 44.2342 11.8171 44.2189 11.8092C44.1994 11.7997 44.1815 11.7981 44.1609 11.7923C44.1424 11.787 44.0981 11.777 44.0855 11.7617C44.0549 11.7242 44.1134 11.6952 44.1245 11.6683C44.1076 11.6462 44.0586 11.6472 44.0332 11.643C43.9947 11.6372 43.9625 11.634 43.923 11.6335C43.8908 11.6335 43.8576 11.633 43.8254 11.6335C43.7832 11.634 43.769 11.6346 43.7705 11.5871C43.7716 11.5512 43.7668 11.5396 43.7294 11.5401C43.7025 11.5412 43.6693 11.5686 43.6503 11.5401C43.6413 11.5275 43.6471 11.5117 43.6381 11.4995C43.6265 11.4832 43.6107 11.4832 43.5922 11.4826C43.5558 11.4811 43.5189 11.4832 43.4825 11.4832H43.4725C43.444 11.4832 43.3976 11.4927 43.3712 11.479C43.3322 11.4589 43.3433 11.3998 43.2995 11.3909C43.2357 11.3777 43.1745 11.4468 43.1133 11.4004C43.0816 11.3761 43.0537 11.3587 43.0125 11.356C42.9803 11.3545 42.936 11.3655 42.9054 11.3576C42.8643 11.3466 42.887 11.298 42.9091 11.2759C42.9366 11.2484 42.9719 11.202 42.9176 11.1778C42.8775 11.1603 42.8347 11.2147 42.7989 11.23C42.762 11.2458 42.7308 11.25 42.6929 11.2585C42.6433 11.269 42.6243 11.2558 42.5821 11.23C42.5457 11.2073 42.5351 11.1725 42.5246 11.1319C42.5193 11.1134 42.5219 11.0965 42.5088 11.0828C42.4993 11.0728 42.4797 11.0633 42.4681 11.0522C42.4333 11.019 42.3853 11.0042 42.351 10.971C42.3109 10.9325 42.2893 10.8855 42.2603 10.8401C42.2392 10.8069 42.2239 10.7658 42.197 10.7362L42.1859 10.7252C42.1548 10.7252 42.1226 10.7257 42.0915 10.7252C42.0498 10.7246 42.025 10.6924 41.9929 10.6671C41.977 10.655 41.9739 10.6471 41.9649 10.6302C41.958 10.6181 41.9491 10.5917 41.9332 10.5875C41.9 10.5785 41.8794 10.6408 41.8462 10.6334C41.8146 10.6255 41.833 10.5622 41.8304 10.5379C41.8251 10.4915 41.7908 10.4909 41.7539 10.5004C41.7244 10.5084 41.6938 10.5168 41.6632 10.5178C41.6473 10.5184 41.6252 10.5226 41.6104 10.5157C41.5941 10.5084 41.5835 10.4873 41.5698 10.4767C41.5192 10.4371 41.4416 10.4366 41.3804 10.4366C41.3361 10.4366 41.3335 10.4466 41.3224 10.4867C41.3119 10.5268 41.2749 10.549 41.2428 10.5717C41.2153 10.5912 41.209 10.6186 41.1858 10.6434C41.1557 10.6745 41.1125 10.6793 41.0961 10.7215C41.0861 10.7473 41.066 10.7779 41.037 10.7906C41.0059 10.8048 40.9679 10.8016 40.9342 10.8032C40.8651 10.8064 40.7812 10.847 40.7116 10.8254C40.6847 10.8169 40.6789 10.79 40.6567 10.7769C40.6403 10.7674 40.6129 10.7647 40.5945 10.77C40.576 10.7758 40.5686 10.7948 40.5507 10.8022C40.5375 10.808 40.5106 10.8127 40.4958 10.8154L40.4383 10.7921C40.3987 10.7863 40.365 10.7594 40.3233 10.7573C40.3049 10.7563 40.2832 10.7626 40.2653 10.7557C40.2458 10.7484 40.2168 10.7199 40.2015 10.7062C40.1688 10.6745 40.1213 10.6281 40.0749 10.6207C40.058 10.6181 40.03 10.6154 40.0137 10.6197C39.981 10.6281 39.9978 10.646 39.9789 10.6666C39.9483 10.7004 39.8807 10.6851 39.8422 10.6972C39.8053 10.7088 39.7573 10.7088 39.7241 10.731C39.7046 10.7441 39.6945 10.7663 39.6761 10.7811C39.6571 10.7958 39.6344 10.8053 39.6128 10.8148C39.5785 10.8301 39.5089 10.8375 39.4951 10.8776C39.4888 10.8955 39.4999 10.9177 39.4957 10.9362C39.4899 10.9615 39.4725 10.9673 39.4482 10.9762C39.4324 10.9826 39.4165 10.9915 39.4002 10.9963C39.3902 10.9995 39.3775 10.9979 39.368 11.0016C39.3564 11.0058 39.3464 11.0158 39.3348 11.0195C39.2899 11.0343 39.2562 11.0153 39.2193 10.9952C39.1776 10.9731 39.1354 10.9536 39.0953 10.9293C39.0557 10.905 39.0104 10.8892 38.9634 10.8945C38.9407 10.8971 38.9265 10.9045 38.9086 10.9177C38.8875 10.933 38.8653 10.943 38.8431 10.9578C38.8083 10.982 38.773 11.0353 38.7308 11.0438C38.7092 11.0485 38.6965 11.039 38.6775 11.0348C38.649 11.0285 38.6147 11.0221 38.5852 11.0206C38.5388 11.0174 38.4918 11.0211 38.4454 11.0211C38.3979 11.0211 38.3341 11.01 38.2893 11.0295C38.2429 11.0496 38.1901 11.0765 38.1832 11.1313C38.1769 11.1804 38.1838 11.2358 38.1838 11.2859V11.297C38.1759 11.3339 38.1052 11.3597 38.0772 11.3777C38.0545 11.3919 38.0471 11.3998 38.0202 11.4009C37.9991 11.4019 37.978 11.3998 37.9569 11.4004C37.9163 11.4019 37.8805 11.4151 37.8388 11.412C37.7961 11.4093 37.7755 11.3703 37.7349 11.365C37.6811 11.3576 37.6563 11.3756 37.6399 11.4267C37.6294 11.46 37.6389 11.4958 37.6236 11.5275C37.6062 11.5628 37.5724 11.6087 37.5392 11.6314C37.4869 11.6694 37.4611 11.6156 37.441 11.5723C37.4316 11.5512 37.4284 11.5338 37.4221 11.5122C37.4126 11.4779 37.4036 11.4811 37.3698 11.4805C37.3319 11.48 37.2622 11.499 37.2511 11.4552C37.2443 11.4283 37.2527 11.4188 37.2295 11.3967C37.2074 11.3756 37.1973 11.3761 37.1683 11.3771C37.1282 11.3782 37.0876 11.3771 37.047 11.3771C37.0048 11.3771 36.9631 11.3845 36.9288 11.355C36.9083 11.3376 36.9067 11.3175 36.8977 11.2933C36.8882 11.2685 36.875 11.2516 36.8597 11.23C36.8408 11.2031 36.8339 11.1925 36.8028 11.1809C36.7759 11.1709 36.7506 11.1688 36.7221 11.1619C36.6941 11.1551 36.6055 11.1297 36.6065 11.0897C36.6065 11.0237 36.6145 10.9209 36.5264 10.905C36.4731 10.8955 36.3576 10.904 36.3291 10.9583C36.2937 11.0264 36.2816 11.105 36.2099 11.1461C36.1466 11.1825 36.0653 11.2105 36.0221 11.1334C36.0004 11.0949 35.9778 11.0453 35.9329 11.0269C35.8971 11.0121 35.8585 11.0221 35.8237 11.0327C35.7952 11.0417 35.7631 11.0443 35.7325 11.0438C35.7124 11.0432 35.694 11.0475 35.6855 11.0258C35.6797 11.0111 35.6866 10.9905 35.6829 10.9747C35.6787 10.9573 35.6766 10.9414 35.6734 10.923C35.6686 10.8976 35.6512 10.8887 35.6391 10.8686C35.628 10.8512 35.6249 10.8343 35.6106 10.8191C35.59 10.7969 35.5674 10.7689 35.542 10.7531C35.4977 10.7257 35.4698 10.7304 35.4329 10.7626C35.4197 10.7742 35.4033 10.7848 35.3917 10.7979C35.3754 10.818 35.379 10.8322 35.3743 10.8544C35.3653 10.9003 35.3368 10.9383 35.3237 10.981C35.3142 11.0105 35.3052 11.0232 35.2836 11.0443C35.2656 11.0617 35.2493 11.0907 35.2261 11.0997C35.1786 11.1192 35.129 11.1023 35.0831 11.1187C35.0647 11.1255 35.0488 11.1361 35.0298 11.1419C35.0061 11.1493 34.9755 11.1524 34.9676 11.1804C34.9924 11.1841 35.004 11.1857 35.014 11.2105C35.0209 11.2268 35.0251 11.2574 35.0209 11.2743C35.0177 11.2848 35.0066 11.2906 35.0019 11.3001C34.995 11.3133 34.9971 11.3233 34.9966 11.3376C34.9956 11.364 34.9966 11.3898 34.9966 11.4162C34.9966 11.4526 35.0056 11.5016 34.9903 11.5349C34.9813 11.5549 34.9565 11.5955 34.9391 11.6098C34.9196 11.6256 34.8943 11.6193 34.8705 11.6198H34.8595C34.8109 11.6198 34.6722 11.6446 34.6632 11.5797C34.6611 11.5644 34.6696 11.5444 34.6648 11.5301C34.659 11.5127 34.6527 11.5169 34.6379 11.5059C34.6068 11.4826 34.6158 11.431 34.6173 11.3946C34.6194 11.3555 34.6295 11.3207 34.6289 11.2806C34.6289 11.2374 34.6289 11.1946 34.6289 11.1508C34.6289 11.1123 34.6289 11.0738 34.6289 11.0353C34.6289 10.9915 34.6231 10.9652 34.6031 10.9267C34.5867 10.895 34.5598 10.8496 34.5229 10.8401C34.5071 10.8359 34.4781 10.8317 34.4623 10.8375C34.4433 10.8449 34.439 10.8707 34.4332 10.8903C34.4179 10.9388 34.3984 10.9937 34.3473 11.0153C34.3045 11.0337 34.2729 10.991 34.2296 10.9863C34.1853 10.981 34.1621 10.9884 34.1257 11.0105C34.0883 11.0332 34.055 11.0448 34.0397 11.0881C34.0271 11.1234 34.0323 11.1588 34.017 11.1946C33.9986 11.2379 33.9791 11.2426 33.9337 11.2405C33.9084 11.2389 33.8862 11.2289 33.8604 11.2284C33.8308 11.2279 33.8124 11.2236 33.7849 11.2126C33.7348 11.192 33.6763 11.1952 33.6747 11.125C33.6736 11.0786 33.6863 11.0374 33.6868 10.9915C33.6874 10.9604 33.7016 10.886 33.6525 10.8839L33.6415 10.895C33.5924 10.8423 33.4832 10.8523 33.4231 10.875C33.365 10.8966 33.2469 10.9219 33.2158 10.8486C33.1984 10.809 33.1899 10.7652 33.1588 10.7336C33.1467 10.7215 33.1335 10.7088 33.1219 10.6961C33.0966 10.6692 33.077 10.6655 33.0438 10.6524C32.9251 10.6075 32.8697 10.7141 32.7795 10.7652C32.7458 10.7842 32.7025 10.7827 32.6666 10.799C32.6181 10.8212 32.6044 10.8591 32.5843 10.905C32.5632 10.953 32.5195 10.99 32.4778 11.0206C32.4403 11.048 32.3944 11.0854 32.3512 11.0992C32.3137 11.1108 32.2583 11.1028 32.2193 11.1013C32.1776 11.0997 32.1333 11.0886 32.0927 11.0781C32.0711 11.0723 32.0521 11.0686 32.0315 11.058C32.011 11.048 31.9957 11.0485 31.9746 11.0417C31.9186 11.0242 31.9176 10.9784 31.9171 10.9288L31.8954 10.905C31.8954 10.8554 31.8954 10.8053 31.8954 10.7557C31.8954 10.7135 31.8986 10.6724 31.8796 10.6334C31.8559 10.5854 31.8174 10.5453 31.7715 10.5173C31.7177 10.4851 31.6322 10.4999 31.5721 10.4999C31.5457 10.4999 31.5167 10.5036 31.4903 10.5004C31.4634 10.4973 31.4471 10.4677 31.4476 10.4424C31.4481 10.3997 31.4523 10.3543 31.4481 10.3121C31.4455 10.2879 31.4328 10.2652 31.4159 10.2478C31.3964 10.2288 31.3743 10.2198 31.3648 10.1934C31.3479 10.1481 31.3553 10.0985 31.3843 10.0594C31.4043 10.032 31.4159 10.0099 31.3906 9.9798C31.3632 9.94867 31.3358 9.93127 31.2962 9.92072C31.2846 9.91755 31.2714 9.91491 31.2593 9.91755C31.2403 9.92177 31.2355 9.93443 31.225 9.94815C31.2155 9.96028 31.2012 9.97505 31.1891 9.98507C31.177 9.99509 31.1648 9.99562 31.1501 10.002H31.1427C31.1153 10.002 31.0878 10.0004 31.0609 10.0014C31.0382 10.0025 31.0161 10.0136 30.9934 10.0157C30.9834 10.0167 30.9755 10.0215 30.9649 10.0236C30.9544 10.0257 30.9407 10.0231 30.9301 10.0231C30.9043 10.0231 30.8789 10.0257 30.8541 10.0194C30.8014 10.0067 30.7481 10.0004 30.698 9.97663C30.6774 9.96714 30.6574 9.95606 30.6379 9.94498C30.6147 9.93179 30.5851 9.91017 30.5582 9.90964C30.5471 9.90911 30.535 9.90858 30.5239 9.90911C30.5044 9.90964 30.4954 9.91808 30.4812 9.93127C30.458 9.95342 30.4364 9.96819 30.4174 9.99509C30.3984 10.0215 30.3768 10.0431 30.3604 10.0716C30.3504 10.089 30.3398 10.1022 30.3266 10.118C30.3145 10.1317 30.3077 10.1497 30.2971 10.1649C30.2792 10.1887 30.2549 10.2045 30.2322 10.2235C30.2085 10.243 30.1716 10.2726 30.141 10.2736C30.1183 10.2741 30.0919 10.2763 30.0697 10.2731C30.0297 10.2668 30.0038 10.2446 29.9743 10.2209C29.9579 10.2077 29.9468 10.2008 29.9352 10.1834C29.9247 10.1676 29.9178 10.1491 29.9067 10.1333C29.8851 10.1022 29.8514 10.0695 29.8239 10.0436C29.8107 10.0315 29.7933 10.022 29.7786 10.0114C29.7643 10.0009 29.7501 9.98718 29.7343 9.97769C29.7126 9.9645 29.6873 9.95553 29.6678 9.93865C29.6562 9.92916 29.6398 9.89698 29.6219 9.89751L29.5866 9.89012C29.5633 9.89012 29.5401 9.88959 29.5175 9.89012C29.4832 9.89065 29.46 9.907 29.4294 9.91861C29.3824 9.93707 29.3349 9.96133 29.2917 9.98665C29.2352 10.0199 29.1682 10.0246 29.1034 10.0246C29.0591 10.0246 29.0163 10.0236 28.9768 10.0014C28.9346 9.97874 28.8892 9.96186 28.8449 9.94234C28.8196 9.93127 28.7964 9.9223 28.7742 9.907C28.7462 9.88801 28.7151 9.8801 28.6877 9.86058C28.6555 9.83843 28.6233 9.81574 28.5896 9.79623C28.5621 9.78093 28.541 9.75824 28.5152 9.73925C28.4946 9.72448 28.4677 9.71288 28.4445 9.7018C28.4255 9.69284 28.397 9.67912 28.377 9.67543C28.357 9.67226 28.3337 9.6749 28.3137 9.6749C28.2915 9.6749 28.2641 9.67068 28.243 9.67807C28.2156 9.68756 28.1881 9.69495 28.1597 9.70339C28.1438 9.70813 28.1301 9.71341 28.1143 9.72027C28.0969 9.72818 28.0779 9.72976 28.061 9.73873H28.0536C28.023 9.73873 27.9919 9.73873 27.9613 9.73873V9.72501C27.8996 9.72501 27.8384 9.72501 27.7772 9.72501C27.7118 9.72501 27.6438 9.7113 27.5979 9.66119C27.5831 9.64536 27.5757 9.62426 27.5646 9.6058C27.5551 9.59103 27.5435 9.57837 27.5372 9.56202C27.524 9.52456 27.5156 9.47498 27.514 9.43594C27.5114 9.38372 27.5145 9.33044 27.5145 9.27769C27.5145 9.2471 27.5166 9.21545 27.5151 9.18485C27.514 9.16481 27.5093 9.14371 27.4882 9.13685C27.4713 9.13105 27.4528 9.13316 27.4343 9.12735C27.4233 9.12313 27.4111 9.11997 27.4011 9.11364C27.3837 9.10309 27.3674 9.0899 27.3499 9.07988C27.3225 9.06405 27.3067 9.04612 27.2856 9.02396C27.2582 8.99601 27.2328 8.97069 27.2023 8.94484C27.1817 8.92743 27.1711 8.91319 27.1453 8.90158C27.1316 8.89525 27.1173 8.88892 27.1031 8.88259C27.0772 8.87152 27.0503 8.86571 27.0245 8.85411C26.9891 8.83828 26.9485 8.83248 26.9105 8.82562C26.8784 8.81929 26.8383 8.8214 26.8093 8.83776C26.7866 8.85042 26.7924 8.86044 26.785 8.88259C26.7781 8.90264 26.7665 8.91161 26.7491 8.92374C26.7228 8.94115 26.6842 8.94695 26.6536 8.95222C26.6204 8.95803 26.5782 8.95433 26.5492 8.93956C26.5054 8.91794 26.4648 8.89051 26.4173 8.87837C26.402 8.87468 26.3867 8.86888 26.3714 8.86624C26.3567 8.86308 26.3366 8.86677 26.3219 8.86677L26.2575 8.8884C26.1926 8.88207 26.1673 8.95064 26.1298 8.98809C26.0924 9.02607 26.0391 9.03768 25.9879 9.03768C25.9711 9.03768 25.9542 9.03768 25.9373 9.03768C25.9236 9.03768 25.9088 9.03979 25.8956 9.03715C25.8803 9.03451 25.8671 9.02449 25.8534 9.01658C25.8271 9.00181 25.807 8.98493 25.7891 8.96119C25.7664 8.93112 25.7421 8.89789 25.7099 8.87732C25.6836 8.86097 25.6614 8.85147 25.6314 8.84567C25.6018 8.83987 25.5622 8.83406 25.5375 8.81455C25.5095 8.79186 25.4884 8.74861 25.4726 8.71749C25.4531 8.67951 25.4288 8.64469 25.4124 8.60513C25.3913 8.55449 25.3723 8.50226 25.3518 8.45162C25.3338 8.40679 25.3196 8.35826 25.2895 8.31922C25.25 8.26858 25.1925 8.219 25.135 8.19051C25.0733 8.15992 25.01 8.15253 24.943 8.14093C24.9097 8.13512 24.877 8.13565 24.8427 8.13565C24.8243 8.13565 24.7842 8.12721 24.7726 8.14304L24.7293 0.123435L14.4847 0L13.6196 18.8587L0.814001 18.212C0.808726 18.2484 0.840904 18.2864 0.848816 18.3206C0.856201 18.3507 0.855674 18.395 0.848816 18.4256C0.843541 18.4483 0.830881 18.4594 0.820859 18.4789C0.812946 18.4942 0.810836 18.509 0.801869 18.5253C0.780769 18.5654 0.763889 18.5928 0.764416 18.6398C0.764416 18.6767 0.771801 18.7084 0.795011 18.739C0.823497 18.7759 0.864642 18.8091 0.889434 18.8481C0.910534 18.8819 0.896819 18.9225 0.903149 18.96C0.909479 18.9932 0.936382 19.066 0.971724 19.0797C0.986494 19.0855 1.00337 19.0797 1.01867 19.0829C1.03291 19.0855 1.04716 19.0913 1.06193 19.094C1.11837 19.1056 1.12734 19.1298 1.1574 19.1752C1.17903 19.2074 1.21332 19.2454 1.24233 19.2686C1.27398 19.2939 1.31302 19.3013 1.35047 19.3145C1.42274 19.3392 1.50239 19.3619 1.57097 19.3957C1.65589 19.4374 1.73502 19.4585 1.78302 19.5481C1.80307 19.5856 1.81414 19.6299 1.83472 19.6663C1.86056 19.7122 1.92017 19.7206 1.95024 19.7644C1.96343 19.7839 1.98347 19.8077 1.99191 19.8304C1.9993 19.8515 1.99402 19.8799 1.99402 19.9016C1.99402 19.9511 1.99402 20.0013 1.99402 20.0508V20.063C2.02884 20.0988 2.06207 20.111 2.10269 20.1368C2.13697 20.159 2.15491 20.1854 2.15544 20.2249C2.15596 20.2508 2.14858 20.283 2.16229 20.3051C2.18339 20.3399 2.21346 20.3568 2.2277 20.3985C2.25197 20.4723 2.27149 20.5398 2.33848 20.5847C2.41972 20.6385 2.50253 20.6828 2.57216 20.7524C2.62122 20.8015 2.68347 20.8342 2.75257 20.8458C2.79002 20.8526 2.82536 20.8579 2.8644 20.8579C2.89921 20.8574 2.92506 20.8606 2.95407 20.8822C2.9815 20.9022 3.00049 20.9339 3.02529 20.9576C3.06168 20.993 3.09439 20.9845 3.13764 21.0046C3.16349 21.0162 3.20358 21.0468 3.21308 21.0731C3.21782 21.0874 3.21571 21.1069 3.22099 21.1227C3.22785 21.1422 3.23892 21.1607 3.23681 21.1818H3.24895C3.2653 21.2019 3.29009 21.2166 3.31119 21.2314C3.33704 21.2499 3.35445 21.2694 3.3766 21.291C3.41089 21.3237 3.45151 21.3464 3.48474 21.3802C3.51797 21.4139 3.56703 21.4482 3.58497 21.492C3.6029 21.5363 3.62295 21.559 3.65934 21.5912C3.69469 21.6217 3.72001 21.6592 3.73741 21.7025C3.74691 21.7251 3.74533 21.7457 3.75851 21.7658C3.76695 21.7784 3.7775 21.7927 3.78647 21.8053C3.81232 21.8444 3.85399 21.8728 3.89566 21.8924C3.93312 21.9098 3.97532 21.9193 4.00749 21.9456C4.04706 21.9783 4.06974 22.0279 4.10719 22.0633C4.14359 22.0976 4.18421 22.0981 4.2301 22.1123C4.27124 22.125 4.31661 22.1498 4.34035 22.1872C4.3509 22.2041 4.36092 22.2273 4.3683 22.2458C4.37727 22.2679 4.37833 22.2906 4.38782 22.3117C4.40418 22.3502 4.41631 22.3872 4.43002 22.4267C4.44268 22.4631 4.45956 22.5037 4.46642 22.5412C4.46958 22.5591 4.46536 22.576 4.47011 22.5945C4.47802 22.6229 4.49807 22.6382 4.51759 22.6593C4.54977 22.6936 4.58036 22.7569 4.62889 22.7712H4.67848C4.69641 22.7685 4.71065 22.7796 4.72806 22.7823C4.74336 22.7854 4.76288 22.778 4.77765 22.7854C4.80613 22.7986 4.79716 22.8186 4.80508 22.8429C4.81246 22.8672 4.83409 22.8899 4.85202 22.9062C4.86996 22.9226 4.88631 22.9162 4.90688 22.9273C4.92535 22.9368 4.9417 22.9611 4.95225 22.979C4.97335 23.017 4.98654 23.0671 4.98865 23.1098C4.99076 23.1457 5.00131 23.1984 5.05142 23.1948C5.09098 23.1921 5.12685 23.1573 5.15428 23.2053C5.17591 23.2443 5.17644 23.2876 5.19806 23.3277C5.21811 23.3651 5.24976 23.3952 5.2946 23.4042C5.33047 23.4116 5.36528 23.3984 5.39957 23.4137C5.41856 23.4226 5.43649 23.4321 5.44863 23.4495C5.46603 23.4743 5.46762 23.4896 5.49927 23.4986C5.53725 23.5097 5.57786 23.5023 5.61743 23.5039C5.64486 23.5049 5.65541 23.5107 5.67387 23.5292C5.6897 23.545 5.69919 23.5798 5.71607 23.5899C5.74245 23.6052 5.79783 23.5862 5.82843 23.592C5.87696 23.6015 5.87327 23.6521 5.92391 23.6542C5.97244 23.6558 6.00725 23.6474 6.03363 23.6969C6.05473 23.7354 6.03626 23.7782 6.06053 23.8151C6.07794 23.842 6.09534 23.8599 6.10748 23.89C6.11855 23.918 6.13332 23.9449 6.16234 23.9581C6.20084 23.976 6.26256 23.9649 6.30582 23.9644C6.33219 23.9639 6.35329 23.9628 6.37756 23.9749C6.40446 23.9892 6.44244 24.0235 6.45721 24.0514C6.48095 24.0957 6.49308 24.1379 6.49308 24.188V24.2002C6.51893 24.2292 6.53422 24.2661 6.57326 24.2814C6.60913 24.2951 6.64816 24.2804 6.68456 24.2988C6.75894 24.3363 6.77899 24.4059 6.77899 24.4829C6.77899 24.5109 6.77477 24.5404 6.78479 24.5668C6.79798 24.6011 6.82171 24.6322 6.83543 24.6665C6.84914 24.7013 6.85811 24.7282 6.87921 24.7593C6.90031 24.7904 6.89398 24.829 6.87868 24.859C6.86444 24.8865 6.85442 24.9112 6.85336 24.9434C6.85284 24.9582 6.85073 24.9756 6.85442 24.9904C6.86022 25.0152 6.87552 25.0326 6.87974 25.0579C6.88554 25.0938 6.89134 25.1249 6.89134 25.1618C6.89134 25.1966 6.88079 25.223 6.87868 25.2562C6.87288 25.3385 6.97258 25.3723 6.99421 25.4424C7.0037 25.472 7.00159 25.5057 7.01583 25.5342C7.03693 25.5775 7.08652 25.5959 7.1092 25.635C7.12661 25.665 7.12133 25.7094 7.13927 25.7431C7.1514 25.7658 7.17039 25.7848 7.18252 25.808C7.19466 25.8317 7.20257 25.8528 7.2205 25.8739C7.25796 25.9182 7.32073 25.9225 7.35238 25.9747C7.3777 26.0164 7.38086 26.0638 7.41357 26.1018L7.45102 26.1514C7.45102 26.2216 7.45102 26.2922 7.45102 26.3629C7.45102 26.4009 7.45471 26.4368 7.43572 26.4721C7.41937 26.5027 7.41199 26.5164 7.41304 26.5523C7.41462 26.5898 7.42781 26.6198 7.4257 26.6583C7.42359 26.7032 7.39405 26.7248 7.37506 26.7638C7.3566 26.8013 7.36187 26.8345 7.37928 26.873C7.39352 26.9041 7.40302 26.9326 7.41199 26.9653C7.43045 27.0329 7.42623 27.1004 7.4257 27.17C7.42517 27.217 7.43889 27.2481 7.45419 27.2919C7.46421 27.3214 7.46579 27.3625 7.48267 27.3879C7.50377 27.4195 7.52909 27.4491 7.54755 27.4839C7.5618 27.5108 7.57024 27.5398 7.58764 27.5656C7.59925 27.583 7.61455 27.5968 7.62562 27.6147C7.65042 27.6548 7.66413 27.6991 7.68734 27.7392C7.69737 27.7566 7.70053 27.7692 7.70844 27.7882C7.71741 27.8099 7.7364 27.8294 7.73693 27.8536V27.8658C7.8055 27.9148 7.75117 28.0082 7.77966 28.0704C7.78968 28.0926 7.81025 28.0968 7.82555 28.1137C7.83821 28.1279 7.84507 28.1496 7.84876 28.1686C7.85456 28.2018 7.83346 28.2667 7.8514 28.2952C7.87144 28.3268 7.92788 28.3131 7.93738 28.3616C7.94424 28.3954 7.93896 28.445 7.92788 28.4772C7.91892 28.5025 7.89518 28.56 7.91681 28.5837C7.92472 28.5927 7.95901 28.6053 7.96903 28.6111C7.99118 28.6227 8.01176 28.6359 8.03602 28.637C8.07084 28.6386 8.10882 28.6296 8.14152 28.6423C8.19163 28.6607 8.19691 28.7071 8.21906 28.7493C8.23489 28.7805 8.24755 28.8306 8.28342 28.8459C8.30083 28.8538 8.32193 28.8453 8.33986 28.8475C8.36254 28.8496 8.38101 28.8575 8.40211 28.8664C8.42004 28.8744 8.44589 28.8807 8.45908 28.8965C8.47174 28.9118 8.47332 28.9356 8.48229 28.9535C8.49864 28.9867 8.52396 29.0463 8.55666 29.0669C8.58515 29.0848 8.65056 29.0722 8.68485 29.0716C8.7281 29.0711 8.7645 29.0833 8.80828 29.0838C8.85523 29.0843 8.89321 29.1202 8.93172 29.1466C8.98183 29.1803 9.02456 29.212 9.0657 29.2579C9.10368 29.3001 9.11212 29.3523 9.1021 29.4071C9.09577 29.442 9.08733 29.4483 9.10896 29.482C9.12531 29.5079 9.14166 29.5374 9.1654 29.5564V29.5686C9.20971 29.5928 9.23609 29.6276 9.2651 29.6683C9.29411 29.7089 9.32207 29.7368 9.3648 29.7648C9.39381 29.7843 9.42388 29.7964 9.45131 29.8175C9.46819 29.8307 9.48929 29.8344 9.50669 29.8476C9.52357 29.8603 9.53465 29.8798 9.551 29.8924C9.5663 29.9035 9.58213 29.9056 9.59795 29.9162C9.618 29.9288 9.62855 29.9441 9.65017 29.9542C9.68393 29.9705 9.71611 29.99 9.74935 30.0069C9.79207 30.0291 9.84588 30.038 9.88491 30.0655C9.92131 30.0913 9.95402 30.1077 9.9978 30.1214C10.0637 30.1425 10.1313 30.1583 10.1972 30.1805C10.2304 30.191 10.2621 30.1868 10.2969 30.1926C10.3391 30.2005 10.3797 30.2042 10.4203 30.2147C10.4662 30.2258 10.5137 30.2348 10.5427 30.2765C10.5628 30.3049 10.5712 30.344 10.5854 30.3767C10.605 30.4194 10.5907 30.4432 10.634 30.4764C10.6741 30.5059 10.7157 30.5334 10.7558 30.5634V30.5756C10.8291 30.575 10.9072 30.6035 10.9742 30.6315C11.0465 30.6615 11.123 30.6753 11.1994 30.6905C11.2844 30.7074 11.3714 30.7243 11.4542 30.7496C11.4859 30.7591 11.5191 30.7649 11.5513 30.7749C11.575 30.7823 11.5803 30.7818 11.6035 30.7992C11.6193 30.8113 11.6367 30.8203 11.6505 30.8356C11.6784 30.8667 11.6853 30.9068 11.7022 30.9432C11.719 30.9791 11.7475 31.0187 11.7739 31.0482C11.8024 31.0804 11.843 31.0899 11.8736 31.122C11.8979 31.1479 11.919 31.1774 11.9358 31.2086C11.9569 31.2465 11.977 31.2893 12.0102 31.3193C12.0292 31.3362 12.0714 31.3468 12.0978 31.3473C12.1637 31.3483 12.2392 31.285 12.3067 31.3109C12.3162 31.3399 12.3061 31.3584 12.3294 31.3842C12.3457 31.4027 12.3658 31.4132 12.39 31.4196C12.4185 31.4269 12.4359 31.4291 12.4486 31.4581C12.4591 31.4834 12.4538 31.5171 12.4818 31.5314C12.5161 31.5488 12.5873 31.5314 12.619 31.5171C12.6474 31.5045 12.6738 31.5034 12.7034 31.5198C12.7139 31.5261 12.7213 31.5388 12.7334 31.5435C12.7471 31.5488 12.7656 31.5456 12.7804 31.5456L12.7914 31.5583C12.8706 31.5583 12.9497 31.5572 13.0278 31.5583C13.0795 31.5588 13.0879 31.552 13.0985 31.4997C13.1079 31.4554 13.1127 31.4169 13.1137 31.3721C13.1148 31.3341 13.1301 31.2771 13.1533 31.2471C13.1628 31.2344 13.186 31.218 13.2013 31.2128C13.2303 31.2028 13.2282 31.2086 13.2414 31.1764C13.2636 31.122 13.3047 31.121 13.3543 31.0994C13.3923 31.083 13.4387 31.0471 13.4587 31.0102C13.473 30.9833 13.4693 30.9506 13.473 30.9221C13.4761 30.9005 13.4835 30.881 13.4862 30.8599C13.492 30.8145 13.4651 30.7512 13.5252 30.7375C13.5674 30.728 13.6117 30.7544 13.6481 30.7243C13.655 30.7116 13.6623 30.699 13.6718 30.6879C13.6819 30.6784 13.694 30.671 13.7072 30.6663C13.7288 30.6552 13.7452 30.6515 13.7694 30.651C13.8079 30.6499 13.837 30.6462 13.8739 30.6389C13.9145 30.6299 13.9672 30.6288 13.9963 30.5908C14.0237 30.5545 14.021 30.5075 14.021 30.4653C14.0205 30.4315 14.0147 30.4315 13.9984 30.4046C13.9889 30.3883 13.9799 30.3609 13.9831 30.3419C13.9831 30.3229 13.9767 30.2965 13.9852 30.2791C13.9947 30.2585 14.0221 30.2511 14.0316 30.2311C14.0443 30.2021 14.0321 30.1504 14.0337 30.1187C14.0353 30.0929 14.03 30.0808 14.0538 30.0618C14.0759 30.0444 14.1113 30.0449 14.1366 30.0322C14.1851 30.0069 14.2262 29.9826 14.2579 29.9352C14.3112 29.8555 14.2669 29.7764 14.2479 29.6941C14.2437 29.6756 14.2442 29.6566 14.2447 29.6377C14.2458 29.6044 14.2495 29.5981 14.2695 29.5722C14.2985 29.5353 14.3386 29.4842 14.3444 29.4351V29.4219C14.3455 29.3744 14.3323 29.3312 14.3323 29.2821C14.3323 29.2499 14.3312 29.2304 14.3439 29.2014C14.3555 29.174 14.3713 29.136 14.3908 29.1133C14.4272 29.0695 14.4726 29.0458 14.5158 29.012C14.538 28.9952 14.5549 28.9799 14.5781 28.9651C14.6008 28.9509 14.6208 28.935 14.6377 28.9118C14.6625 28.8786 14.6767 28.8369 14.6926 28.8C14.7094 28.7615 14.7284 28.7314 14.73 28.6866C14.7337 28.6006 14.7205 28.4882 14.8107 28.4344C14.8413 28.416 14.8935 28.4292 14.9289 28.4276C14.9827 28.4255 15.0122 28.379 15.0528 28.3495C15.0845 28.3268 15.1156 28.2973 15.1552 28.2899C15.2048 28.2804 15.2401 28.3237 15.2897 28.3284C15.3092 28.33 15.3319 28.3295 15.3514 28.3284C15.3868 28.3263 15.3899 28.3157 15.4131 28.2904C15.4442 28.2572 15.4817 28.2419 15.5281 28.2403C15.6278 28.2366 15.6969 28.3542 15.7987 28.3405L15.861 28.3284C15.8932 28.2999 15.9612 28.2693 15.9739 28.2287C15.9791 28.2134 15.9781 28.187 15.9823 28.1696C15.9886 28.1448 15.9944 28.12 15.9981 28.0947C16.0034 28.0541 16.0166 28.0029 16.0445 27.9702C16.0609 27.9507 16.0704 27.9555 16.0983 27.956C16.1147 27.9565 16.1311 27.9576 16.1469 27.9533C16.1922 27.9412 16.2228 27.9175 16.2714 27.9185C16.2835 27.9191 16.2967 27.9154 16.3083 27.9201C16.3294 27.9286 16.3378 27.9481 16.3605 27.956C16.4154 27.975 16.4534 27.9623 16.5072 27.9549C16.5256 27.9523 16.5541 27.9523 16.5726 27.9549C16.6011 27.9591 16.6132 27.975 16.6348 27.9929C16.6549 28.0098 16.6686 28.0182 16.6818 28.042C16.6939 28.0652 16.7018 28.0868 16.7182 28.1079C16.7493 28.1485 16.8105 28.1548 16.859 28.1638C16.9044 28.1728 16.9244 28.1733 16.9582 28.2065C16.9766 28.225 16.9956 28.2524 17.0173 28.2672C17.0389 28.282 17.0558 28.2783 17.0816 28.2788C17.1507 28.2793 17.1855 28.2524 17.2414 28.2187C17.2778 28.1965 17.3227 28.2039 17.3633 28.2039C17.396 28.2039 17.444 28.1949 17.4746 28.206C17.5152 28.2218 17.5548 28.272 17.5864 28.3036H17.5986C17.6492 28.3041 17.6634 28.2867 17.6977 28.254C17.731 28.2224 17.7663 28.2292 17.8101 28.2292C17.846 28.2292 17.8824 28.2303 17.9182 28.2298C17.9583 28.2287 17.9958 28.2092 18.0364 28.216C18.0654 28.2208 18.0617 28.235 18.0828 28.2519C18.1002 28.2656 18.1208 28.2735 18.1403 28.2836C18.1772 28.3026 18.2178 28.3078 18.2569 28.3157C18.2917 28.3231 18.3249 28.3405 18.3566 28.3564C18.3951 28.3759 18.4252 28.3838 18.4563 28.4154C18.4842 28.4439 18.5053 28.4629 18.546 28.465C18.5824 28.4671 18.6124 28.4772 18.6499 28.4772C18.6947 28.4777 18.72 28.4624 18.757 28.4397C18.7828 28.4239 18.8018 28.4107 18.825 28.3901C18.8398 28.3775 18.8582 28.3564 18.8783 28.3511C18.93 28.3384 18.9379 28.3796 18.9558 28.4154C18.9764 28.455 19.0102 28.4603 19.0529 28.4492C19.0824 28.4413 19.1088 28.4207 19.142 28.426C19.1821 28.4318 19.2096 28.4851 19.2386 28.5141L19.2507 28.5389C19.2966 28.5774 19.3456 28.5958 19.3873 28.6386C19.4253 28.6776 19.4765 28.6913 19.5092 28.7377C19.5366 28.7768 19.554 28.8274 19.5714 28.8717C19.592 28.9245 19.6284 28.935 19.6764 28.9514C19.6927 28.9572 19.7239 28.9719 19.7365 28.9851C19.7545 29.0041 19.7481 29.0305 19.7481 29.0548C19.7476 29.107 19.7534 29.1487 19.7729 29.1977C19.7956 29.2542 19.8531 29.2652 19.8916 29.2151C19.9201 29.1777 19.9438 29.0917 19.9955 29.0759C20.0029 29.1007 19.9976 29.1334 19.9976 29.1587C19.9976 29.1961 19.9976 29.2336 19.9976 29.271C19.9976 29.3317 19.9982 29.3924 19.9976 29.4525C19.9971 29.4926 19.9881 29.4995 20.0267 29.5084C20.052 29.5147 20.0762 29.5264 20.1026 29.5306C20.1612 29.5395 20.2065 29.5496 20.2577 29.5812C20.2915 29.6023 20.3036 29.6224 20.321 29.6572C20.3326 29.6809 20.34 29.7062 20.3574 29.7284C20.397 29.7764 20.4523 29.779 20.5098 29.7801C20.5425 29.7806 20.571 29.7927 20.6037 29.7927C20.6306 29.7933 20.6507 29.7901 20.6744 29.8038C20.705 29.8218 20.7193 29.8539 20.7356 29.8845C20.7467 29.9051 20.7509 29.9536 20.7673 29.9663H20.7794C20.7799 30.0444 20.8321 30.1166 20.8939 30.1646C20.9202 30.1852 20.9329 30.1979 20.9535 30.2242C20.964 30.238 20.9767 30.2527 20.9899 30.2643C21.0321 30.2991 21.0753 30.2944 21.1249 30.3102C21.1486 30.3181 21.1671 30.3318 21.1893 30.3419C21.2061 30.3498 21.2246 30.3514 21.2399 30.3624C21.2768 30.3899 21.2921 30.4368 21.3101 30.4759C21.3312 30.5207 21.3713 30.5202 21.4103 30.5402C21.4488 30.5597 21.4826 30.5787 21.5242 30.593C21.6171 30.6251 21.7004 30.7016 21.73 30.7976C21.7547 30.8773 21.7553 30.9823 21.8217 31.0398C21.8581 31.0709 21.8935 31.1078 21.9399 31.1226C21.9868 31.1373 22.0248 31.1679 22.0718 31.1827C22.1224 31.1991 22.1551 31.227 22.1767 31.2755C22.1915 31.3083 22.2269 31.371 22.2205 31.4064V31.4185C22.2174 31.4433 22.2274 31.4596 22.2364 31.4813C22.2453 31.5018 22.2448 31.5171 22.248 31.5398C22.2548 31.5815 22.2691 31.6232 22.2706 31.6643C22.2722 31.7034 22.2691 31.7429 22.2701 31.7819C22.2712 31.8263 22.2975 31.8479 22.3113 31.8874C22.3255 31.9286 22.3208 31.9745 22.3202 32.0177C22.3197 32.0452 22.315 32.0647 22.3345 32.0863C22.3513 32.1053 22.3783 32.1222 22.3978 32.138C22.4326 32.1665 22.4558 32.215 22.4574 32.2599C22.459 32.3042 22.4611 32.3553 22.4832 32.3954C22.5085 32.4403 22.5407 32.4656 22.5782 32.4994C22.6235 32.5389 22.6441 32.5642 22.6441 32.6244C22.6436 32.6571 22.6404 32.6929 22.6436 32.7262C22.6483 32.7726 22.6858 32.8027 22.7069 32.8422C22.7496 32.9213 22.7296 33.0205 22.7312 33.1081C22.7317 33.1429 22.7317 33.1492 22.7649 33.1624C22.7908 33.1724 22.8134 33.1698 22.8403 33.1709C22.8662 33.1714 22.8857 33.174 22.9031 33.1957C22.9195 33.2162 22.9184 33.2379 22.9548 33.2331L22.93 33.2706C22.9295 33.3444 22.9633 33.3782 23.0324 33.3972C23.1062 33.4177 23.0925 33.5069 23.092 33.5686C23.0914 33.6076 23.0851 33.6256 23.1194 33.6467C23.1442 33.662 23.1727 33.681 23.199 33.6936C23.2365 33.7115 23.2565 33.7163 23.2856 33.7485C23.304 33.7696 23.3114 33.807 23.303 33.835C23.294 33.8656 23.2655 33.8819 23.2655 33.9162C23.2655 33.9479 23.2892 33.9774 23.3061 34.0033C23.3267 34.0344 23.3278 34.0486 23.3278 34.0866C23.3278 34.1235 23.3235 34.1541 23.3125 34.1895C23.3035 34.2174 23.2914 34.2475 23.2903 34.276C23.2882 34.3219 23.3172 34.3393 23.3499 34.363C23.4285 34.421 23.4881 34.5023 23.5514 34.5745L23.5635 34.5867C23.5688 34.6194 23.543 34.669 23.5298 34.6985C23.5134 34.736 23.5076 34.7713 23.5166 34.8135C23.5366 34.91 23.6326 34.9232 23.7139 34.9222C23.7302 34.9222 23.7587 34.9158 23.773 34.9243C23.7967 34.9369 23.7946 34.9617 23.8004 34.9844C23.812 35.0345 23.8109 35.0741 23.85 35.1121C23.879 35.1405 23.9244 35.1543 23.9618 35.1743C24.0088 35.1996 24.0531 35.2218 24.099 35.2508C24.1401 35.2772 24.1802 35.3041 24.2198 35.3326C24.2414 35.3479 24.2662 35.3647 24.2857 35.3821C24.2936 35.3911 24.3015 35.399 24.3094 35.408C24.32 35.4154 24.3321 35.4196 24.3448 35.4217C24.3622 35.4338 24.387 35.4629 24.3981 35.4813C24.4128 35.5061 24.407 35.5267 24.4123 35.5531C24.4149 35.5662 24.4176 35.6058 24.4234 35.6158C24.4323 35.6295 24.4635 35.6353 24.4767 35.6427C24.4946 35.6528 24.5067 35.6654 24.5215 35.6802C24.5442 35.7039 24.5431 35.7097 24.5494 35.7424C24.5584 35.7888 24.5705 35.8321 24.5869 35.8769C24.6059 35.9286 24.6449 35.9561 24.6961 35.9693C24.7172 35.9751 24.7357 35.9867 24.7568 35.9914C24.7831 35.9972 24.8095 35.9803 24.8322 36.003C24.8422 36.013 24.8617 36.0262 24.8675 36.0399C24.8733 36.0547 24.8691 36.0742 24.8723 36.0895C24.876 36.1096 24.8818 36.1243 24.8818 36.1454C24.8818 36.1634 24.8797 36.1808 24.8844 36.1987C24.8934 36.2314 24.9208 36.2536 24.944 36.2763C24.972 36.3037 25.02 36.3148 25.0374 36.3506C25.05 36.3781 25.0437 36.4171 25.0437 36.4472C25.0437 36.483 25.0469 36.5105 25.0622 36.5437C25.0965 36.6176 25.1439 36.6835 25.1851 36.7536C25.2009 36.7811 25.2062 36.809 25.2231 36.8354C25.2473 36.8729 25.251 36.924 25.2811 36.9573C25.3191 36.9979 25.3681 37.0227 25.4087 37.0585C25.4246 37.0723 25.4341 37.0754 25.4531 37.0839C25.4778 37.0944 25.4926 37.1171 25.5127 37.1345C25.5438 37.1619 25.5549 37.2068 25.5775 37.2432C25.6023 37.2827 25.6224 37.3233 25.6519 37.3576C25.6778 37.3866 25.6883 37.4062 25.7295 37.4077C25.7638 37.4088 25.7986 37.4056 25.8334 37.4072C25.8571 37.4083 25.8809 37.412 25.894 37.4336C25.9057 37.4536 25.8967 37.471 25.8999 37.4921C25.9067 37.5349 25.96 37.5412 25.9969 37.5454C26.0164 37.5475 26.0365 37.5423 26.056 37.5444C26.0803 37.547 26.0977 37.5586 26.1188 37.5702C26.1552 37.5903 26.1942 37.6151 26.2364 37.6193L26.2797 37.6778C26.2797 37.7253 26.2797 37.7723 26.2797 37.8192C26.2797 37.8466 26.2675 37.9379 26.2855 37.9579C26.2949 37.968 26.3303 37.9801 26.343 37.9917C26.3651 38.0117 26.383 38.0302 26.3941 38.0576C26.4105 38.0988 26.42 38.1531 26.4215 38.1969C26.4258 38.3082 26.4659 38.4153 26.469 38.5266C26.4701 38.5677 26.4711 38.6104 26.469 38.6511C26.4659 38.7086 26.4284 38.7144 26.3841 38.7386C26.3588 38.7523 26.335 38.7729 26.3102 38.7887C26.2955 38.7982 26.277 38.8004 26.277 38.823C26.277 38.8779 26.3783 38.8679 26.4063 38.8816C26.4548 38.9059 26.5054 38.9317 26.5318 38.9808C26.5571 39.0256 26.5677 39.072 26.6014 39.1126C26.6362 39.1548 26.6732 39.1786 26.6853 39.2355C26.6958 39.2888 26.7048 39.3495 26.7043 39.4049C26.7027 39.5093 26.7043 39.6143 26.7043 39.7182C26.6737 39.7525 26.6795 39.8179 26.6695 39.8596C26.66 39.8991 26.642 39.9598 26.66 40.0015C26.6795 40.0489 26.7507 40.0848 26.7802 40.126C26.8087 40.1661 26.8261 40.2299 26.8314 40.2795C26.8356 40.318 26.8219 40.367 26.8646 40.3902C26.9063 40.4129 26.9744 40.3829 27.0208 40.4008C27.0783 40.424 27.1321 40.4736 27.15 40.5327C27.1711 40.6028 27.1442 40.6772 27.1616 40.7463C27.1769 40.8064 27.2197 40.8122 27.2666 40.8349C27.3278 40.8639 27.3821 40.9246 27.4169 40.9816C27.4671 41.0639 27.4686 41.1799 27.4739 41.2727C27.4797 41.3756 27.5467 41.4727 27.601 41.555C27.6274 41.5951 27.6443 41.6431 27.6612 41.6879C27.6796 41.7354 27.6701 41.7728 27.6781 41.8214C27.6876 41.8773 27.705 41.9337 27.7108 41.9896C27.7176 42.0476 27.7139 42.0999 27.7482 42.1505C27.7894 42.2101 27.8416 42.2207 27.898 42.2597C27.964 42.3056 27.9993 42.3626 28.0552 42.4174H28.071C28.071 42.4696 28.071 42.5219 28.071 42.5746C28.071 42.6295 28.0832 42.6738 28.0885 42.7271C28.1169 42.7408 28.1655 42.6901 28.1955 42.6838C28.2309 42.6764 28.3058 42.677 28.3385 42.688C28.3812 42.7017 28.4192 42.7355 28.4477 42.7677C28.4799 42.8036 28.5136 42.8257 28.5579 42.8463C28.6365 42.8827 28.713 42.9133 28.7969 42.9323C28.8739 42.9492 28.9641 42.9813 29.0432 42.9644C29.1034 42.9518 29.2273 42.7956 29.2648 42.8922C29.2711 42.908 29.2732 42.9513 29.2753 42.9681C29.2785 42.9892 29.2753 43.0098 29.278 43.0304C29.2832 43.0784 29.3254 43.109 29.3576 43.1406C29.3877 43.1707 29.4357 43.205 29.4489 43.2467C29.4547 43.2635 29.4494 43.2751 29.4615 43.2904C29.4758 43.3079 29.5032 43.3126 29.5227 43.321C29.5607 43.3379 29.6034 43.3495 29.6404 43.369C29.6625 43.3806 29.6746 43.4012 29.6947 43.4144C29.7163 43.4281 29.7411 43.4234 29.7659 43.4228L29.8107 43.4471C29.863 43.4376 29.9057 43.4054 29.9621 43.4165C29.989 43.4218 30.0154 43.4355 30.0423 43.4424C30.0798 43.4519 30.1083 43.4445 30.1436 43.4381C30.1589 43.4355 30.1716 43.4329 30.1858 43.4292C30.2032 43.425 30.2211 43.4297 30.2385 43.426C30.267 43.4197 30.3003 43.406 30.3293 43.4223C30.3435 43.4308 30.3546 43.4471 30.3678 43.4571C30.381 43.4672 30.3936 43.4761 30.4058 43.4872C30.4337 43.5125 30.4601 43.5072 30.496 43.5072C30.5271 43.5072 30.5614 43.502 30.5893 43.5189C30.6231 43.5389 30.6315 43.5785 30.6574 43.6059C30.6811 43.6302 30.7128 43.6634 30.7186 43.6987C30.7228 43.7256 30.7244 43.7657 30.7555 43.7779C30.7777 43.7868 30.8114 43.7794 30.8352 43.7794C30.8726 43.7794 30.9132 43.7752 30.9507 43.7789C31.0214 43.7858 31.0309 43.8939 31.0509 43.9456C31.0794 44.0205 31.1553 44.0564 31.2244 44.0912C31.2645 44.1118 31.3009 44.1366 31.3426 44.155C31.3864 44.1745 31.4275 44.1724 31.4745 44.1724H31.4845C31.5446 44.1724 31.6058 44.1751 31.6654 44.1724C31.7003 44.1708 31.725 44.1561 31.7567 44.1439C31.7694 44.1392 31.7836 44.1366 31.7968 44.1318C31.81 44.1271 31.8247 44.117 31.8379 44.1133C31.8574 44.1075 31.877 44.1155 31.896 44.1123C31.9102 44.1102 31.9223 44.1028 31.9366 44.1012C31.9682 44.097 32.0052 44.1128 32.0299 44.1313C32.0516 44.1471 32.0611 44.1598 32.0874 44.1698C32.1017 44.1751 32.1159 44.1788 32.1307 44.1824C32.165 44.1919 32.1982 44.1919 32.2351 44.1919C32.2958 44.1919 32.357 44.1919 32.4171 44.1919C32.4488 44.1919 32.4757 44.1882 32.5068 44.1824C32.539 44.1766 32.5754 44.1814 32.6086 44.1814C32.6445 44.1819 32.6772 44.1714 32.7131 44.1714C32.7558 44.1719 32.798 44.1714 32.8402 44.1714C32.875 44.1714 32.9161 44.1656 32.9499 44.1724C32.9784 44.1782 33.0074 44.1988 33.0359 44.2014H33.0459C33.1287 44.2014 33.2105 44.2014 33.2933 44.2014C33.3244 44.2014 33.3587 44.1983 33.3898 44.202C33.4378 44.2083 33.4843 44.231 33.5286 44.2494C33.5613 44.2632 33.5945 44.2785 33.6214 44.3022C33.6467 44.3238 33.6726 44.3534 33.7016 44.3702C33.7216 44.3818 33.7354 44.3861 33.7528 44.4029C33.7623 44.4124 33.7707 44.4177 33.7823 44.4251C33.7997 44.4356 33.815 44.4473 33.834 44.4536C33.8572 44.4615 33.8772 44.4636 33.8973 44.4784C33.9316 44.5032 33.968 44.519 33.9996 44.5491C34.0144 44.5633 34.0313 44.5781 34.0455 44.5944C34.0614 44.6129 34.0645 44.634 34.0745 44.6556C34.0883 44.6841 34.1083 44.7089 34.1252 44.7363C34.1426 44.7648 34.1584 44.7996 34.1816 44.8228C34.2101 44.8518 34.2312 44.8898 34.2665 44.9109C34.3003 44.931 34.3325 44.9463 34.3699 44.96C34.4048 44.9726 34.4412 44.9969 34.4781 44.998C34.5097 44.999 34.5451 45.0017 34.5767 44.9985C34.6147 44.9943 34.6558 44.9827 34.6849 44.9568C34.7271 44.9199 34.7028 44.8845 34.6854 44.8413C34.6653 44.7922 34.6944 44.7595 34.7408 44.7453C34.7761 44.7347 34.8146 44.7099 34.8505 44.7052L34.8605 44.6952C34.8874 44.6672 34.9217 44.653 34.9576 44.6398C34.9903 44.6277 35.0235 44.6108 35.0583 44.6055C35.0937 44.6008 35.129 44.5976 35.1649 44.5923C35.2066 44.586 35.243 44.5765 35.2841 44.5665C35.3221 44.557 35.3616 44.5512 35.3986 44.539C35.4297 44.529 35.4598 44.5084 35.4914 44.5037C35.5035 44.5016 35.5241 44.5032 35.5341 44.4926C35.5478 44.4773 35.5489 44.4425 35.5536 44.4235C35.5637 44.3813 35.5795 44.3418 35.589 44.3001C35.5974 44.2632 35.5995 44.2368 35.5806 44.202C35.5716 44.1867 35.5573 44.1772 35.5484 44.1624C35.5352 44.1408 35.5315 44.1239 35.5115 44.106C35.4708 44.0701 35.455 44.1017 35.4555 44.1418C35.4561 44.1766 35.4481 44.2188 35.455 44.2531C35.4624 44.2895 35.4819 44.3228 35.4255 44.3238C35.4112 44.3243 35.3864 44.3164 35.3743 44.3249C35.3606 44.3338 35.3543 44.3639 35.3495 44.3776C35.3416 44.4029 35.3305 44.4483 35.2946 44.4325C35.2488 44.4119 35.2815 44.3697 35.2551 44.3423C35.2408 44.327 35.2266 44.3333 35.2118 44.3428C35.1897 44.356 35.1723 44.3687 35.1491 44.3803C35.1142 44.3982 35.0836 44.4251 35.0509 44.4451C35.0267 44.4599 34.9887 44.4678 34.9628 44.4789C34.9423 44.4879 34.9143 44.4989 34.8911 44.4958C34.8695 44.4926 34.8563 44.4757 34.8605 44.4536C34.8647 44.4304 34.8911 44.4246 34.8995 44.4029C34.8842 44.384 34.841 44.3934 34.8183 44.3934C34.7919 44.3934 34.7666 44.3934 34.7402 44.3934C34.7191 44.3934 34.6812 44.4014 34.6616 44.3924C34.6416 44.3829 34.6194 44.3449 34.63 44.3228C34.6474 44.2848 34.7582 44.3027 34.7925 44.3027C34.8526 44.3027 34.9122 44.3022 34.9718 44.3027C34.995 44.3027 35.0404 44.3122 35.0235 44.2748C35.0177 44.2626 35.0003 44.2526 34.9919 44.2431C34.9808 44.231 34.9718 44.2152 34.9613 44.2025C34.9486 44.1872 34.7967 44.0574 34.8726 44.0522C34.8948 44.0506 34.9449 44.0717 34.966 44.0806C34.9924 44.0917 35.0277 44.1107 35.0504 44.1286C35.0826 44.154 35.1005 44.1724 35.1433 44.1724C35.177 44.1724 35.2219 44.164 35.2419 44.1318C35.2224 44.0885 35.1538 44.0849 35.1369 44.0405C35.1438 44.0253 35.1802 44.0289 35.1928 44.0263C35.2134 44.0221 35.2535 44.0231 35.263 44.001C35.244 43.9609 35.1617 43.9656 35.1248 43.9577C35.0937 43.9514 35.0636 43.935 35.033 43.9298L34.9829 43.9398C34.956 43.9118 34.9291 43.895 34.9122 43.8591C34.9022 43.8375 34.8647 43.8032 34.8964 43.7889C34.9143 43.7805 34.9507 43.7895 34.9708 43.7889C35.0124 43.7873 34.9834 43.761 34.975 43.7357C34.9671 43.713 34.9639 43.6861 34.9628 43.6623C34.9618 43.6338 34.9692 43.6207 34.9834 43.5964C35.0151 43.5436 34.9755 43.4803 34.9375 43.4403C34.9032 43.4044 34.8721 43.3601 34.8974 43.3084C34.908 43.2862 34.9323 43.2741 34.9518 43.262C34.9639 43.254 35.0172 43.2271 34.9829 43.2134C34.9518 43.2008 34.8716 43.2398 34.8605 43.195C34.8537 43.1686 34.8726 43.129 34.8595 43.1048C34.8489 43.0847 34.8099 43.0932 34.7904 43.0932V43.0831C34.7904 43.0494 34.7893 43.0156 34.7904 42.9819C34.7909 42.9644 34.7909 42.9576 34.7999 42.9423C34.8109 42.9238 34.8304 42.9022 34.8315 42.879C34.8341 42.8352 34.7772 42.8331 34.7466 42.8426C34.6996 42.8563 34.7091 42.8985 34.7091 42.9365C34.7091 42.9702 34.7091 43.004 34.7091 43.0383C34.7091 43.0715 34.7181 43.1227 34.7033 43.1533C34.6938 43.1749 34.6785 43.1844 34.658 43.1939C34.6363 43.2034 34.6231 43.2076 34.6421 43.2282C34.6706 43.2583 34.7149 43.2482 34.7397 43.2841C34.7919 43.3611 34.6479 43.4329 34.5852 43.4355C34.5709 43.436 34.5482 43.4392 34.5345 43.436C34.5139 43.4313 34.5166 43.425 34.5176 43.406C34.5192 43.368 34.5208 43.3369 34.5277 43.2999C34.5424 43.2224 34.6163 43.177 34.6179 43.0937C34.6189 43.0536 34.6289 43.0161 34.6279 42.975C34.6274 42.9444 34.6142 42.9354 34.5936 42.9117C34.583 42.8996 34.5519 42.8758 34.5461 42.8621C34.5366 42.84 34.5577 42.8326 34.5772 42.8241C34.6041 42.8136 34.621 42.8083 34.6427 42.7877C34.6627 42.7687 34.6685 42.7608 34.669 42.7339C34.6696 42.7081 34.6706 42.6849 34.6616 42.6611C34.6421 42.6073 34.6316 42.5794 34.5709 42.5799C34.5261 42.5804 34.4818 42.5799 34.4369 42.5799H34.4269C34.4269 42.5461 34.4311 42.5113 34.4195 42.4797C34.4106 42.4554 34.4132 42.4443 34.3879 42.438C34.3684 42.4333 34.3457 42.4285 34.3251 42.428C34.3098 42.4269 34.2803 42.4359 34.2692 42.419C34.2576 42.4021 34.2723 42.3889 34.285 42.3779C34.3135 42.3531 34.3689 42.352 34.391 42.3219C34.4058 42.3019 34.3963 42.2497 34.3963 42.2238C34.3963 42.1911 34.3926 42.1579 34.4016 42.1252C34.4079 42.1015 34.4148 42.0413 34.4443 42.0355C34.4728 42.0292 34.5292 42.0983 34.5176 42.025L34.4976 41.9949C34.5055 41.9559 34.4686 41.9168 34.4485 41.8883C34.4185 41.8446 34.409 41.8045 34.3995 41.7528C34.3942 41.7259 34.3974 41.7074 34.3873 41.6826C34.3794 41.6631 34.3778 41.6531 34.3778 41.6325C34.3773 41.6162 34.3699 41.6035 34.3673 41.5877C34.3631 41.5655 34.3589 41.5391 34.3573 41.5165C34.3557 41.498 34.3599 41.4795 34.3567 41.4611C34.3525 41.4373 34.3467 41.4141 34.3425 41.3909C34.3314 41.3244 34.3172 41.259 34.2966 41.1942C34.2855 41.1588 34.2771 41.1229 34.2644 41.0881C34.2454 41.0375 34.2185 41.0079 34.1742 40.9779C34.1468 40.9594 34.1257 40.9341 34.0977 40.9156C34.0766 40.9019 34.0545 40.8908 34.0344 40.8755C34.017 40.8624 34.0028 40.855 33.9817 40.846C33.9632 40.8376 33.9305 40.8291 33.9158 40.8165C33.8883 40.7927 33.9131 40.7479 33.9142 40.7173C33.9173 40.6508 33.8604 40.6593 33.8203 40.6218C33.8029 40.606 33.7507 40.5353 33.7818 40.5142C33.7939 40.5058 33.8308 40.511 33.844 40.5147C33.8688 40.5216 33.8968 40.5464 33.9253 40.5342C33.9685 40.5158 33.9321 40.452 33.9263 40.4219C33.9173 40.3728 33.9342 40.319 33.9226 40.271C33.911 40.2199 33.8424 40.1982 33.8525 40.1428C33.8614 40.0954 33.9305 40.0706 33.9727 40.0695C34.0133 40.0685 34.0492 40.0801 34.0882 40.0795C34.1083 40.0795 34.198 40.0658 34.1869 40.0996V40.1096C34.1869 40.0679 34.1916 40.0263 34.1742 39.9878C34.161 39.9577 34.1421 39.9303 34.1457 39.8954C34.1505 39.8559 34.1621 39.839 34.1463 39.8C34.131 39.7609 34.1262 39.7282 34.1257 39.6866C34.1257 39.6665 34.1188 39.6502 34.1368 39.6375C34.1489 39.6285 34.1879 39.6312 34.2038 39.6264C34.2465 39.6127 34.236 39.5742 34.236 39.5357C34.236 39.5056 34.2323 39.4724 34.2354 39.4428C34.2402 39.4012 34.2597 39.3727 34.2861 39.3421C34.3024 39.3231 34.3146 39.3162 34.3167 39.2925C34.3198 39.2667 34.3161 39.2387 34.3161 39.2123C34.3161 39.2007 34.3119 39.1791 34.3161 39.1675C34.3225 39.1496 34.3441 39.1453 34.3573 39.1327C34.4195 39.0725 34.3789 38.9808 34.2961 38.9808C34.2829 38.9808 34.2665 38.9771 34.2539 38.9818C34.2375 38.9876 34.2207 39.0108 34.2075 39.0219C34.1895 39.0367 34.1806 39.053 34.1658 39.0694C34.1542 39.0815 34.1273 39.111 34.1125 39.1179C34.0856 39.1306 34.0402 39.1205 34.0112 39.1216C33.9754 39.1232 33.9506 39.1427 33.9131 39.1422L33.8525 39.1622C33.8329 39.1622 33.8097 39.1664 33.7913 39.1601C33.7723 39.1538 33.7522 39.1422 33.7338 39.1343C33.7195 39.1285 33.6979 39.1147 33.681 39.1205C33.6562 39.129 33.6372 39.1749 33.6246 39.1965C33.6098 39.2213 33.594 39.2424 33.5639 39.244C33.5249 39.2466 33.5201 39.215 33.5191 39.1828C33.5175 39.1221 33.5687 39.101 33.5877 39.0504C33.5687 39.0245 33.5096 39.0309 33.4806 39.0314C33.4436 39.0314 33.4136 39.034 33.3782 39.0425C33.3181 39.0572 33.2559 39.0551 33.2063 39.0114C33.1846 38.9918 33.1651 38.9734 33.1419 38.956C33.114 38.9354 33.0818 38.9259 33.0559 38.9011C33.0485 38.8937 33.0216 38.8742 33.0264 38.8626C33.0301 38.8542 33.0565 38.8494 33.0638 38.8494C33.0907 38.851 33.1203 38.8758 33.1472 38.8832C33.1762 38.8916 33.2026 38.9085 33.2321 38.9164C33.2606 38.9248 33.2928 38.9211 33.3228 38.9211C33.3682 38.9211 33.4742 38.9401 33.4985 38.8921C33.5375 38.8135 33.3756 38.8014 33.3403 38.774C33.3091 38.7497 33.3197 38.7186 33.3313 38.6896C33.3519 38.6405 33.288 38.6178 33.2564 38.5909C33.2179 38.5588 33.2189 38.505 33.2173 38.4596C33.2158 38.4105 33.1794 38.3794 33.1625 38.3361C33.1482 38.3008 33.1303 38.2692 33.115 38.2338C33.1029 38.2059 33.0559 38.1573 33.0681 38.1257C33.0876 38.1236 33.0892 38.1521 33.0976 38.1642C33.1171 38.1932 33.1514 38.2227 33.1783 38.2459C33.2036 38.2676 33.2279 38.2881 33.2522 38.3114C33.2717 38.3298 33.2959 38.3409 33.316 38.3594C33.3513 38.391 33.3898 38.4205 33.4241 38.4527C33.4584 38.4844 33.489 38.5108 33.4901 38.5593C33.4906 38.5888 33.4853 38.621 33.4922 38.6495C33.5027 38.698 33.5249 38.7302 33.5655 38.7603C33.5845 38.7745 33.6003 38.7972 33.6209 38.8088C33.6346 38.8167 33.6536 38.8193 33.6689 38.8283C33.6879 38.8389 33.7026 38.8505 33.7253 38.8515C33.7459 38.8526 33.7728 38.8552 33.7923 38.8505C33.7992 38.8072 33.7201 38.7745 33.7116 38.7312C33.7037 38.6901 33.748 38.7017 33.7717 38.7075C33.8166 38.7186 33.9047 38.7402 33.9416 38.7001C33.9548 38.6859 33.9516 38.6727 33.9601 38.6563C33.969 38.6374 33.9796 38.6321 33.9938 38.6184C34.0144 38.5994 34.0112 38.582 34.0255 38.5588C34.0439 38.5292 34.0561 38.4965 34.0666 38.4628C34.0735 38.4417 34.0872 38.3768 34.0677 38.3615C34.0461 38.3446 34.0081 38.3667 33.9859 38.3741C33.9506 38.3857 33.9168 38.3894 33.8799 38.3868C33.7865 38.3799 33.8999 38.295 33.8994 38.256C33.8989 38.2154 33.8482 38.1953 33.8319 38.1652C33.8161 38.1368 33.8166 38.1019 33.8445 38.083C33.8688 38.0666 33.911 38.056 33.9342 38.0777C33.9711 38.1114 33.9369 38.1594 33.9711 38.1927C33.988 38.209 34.0218 38.2259 34.0455 38.2254C34.0777 38.2254 34.074 38.1985 34.0751 38.1742C34.0761 38.1478 34.0745 38.1178 34.1067 38.112C34.1162 38.1104 34.1352 38.1199 34.1426 38.1215C34.1642 38.1262 34.1853 38.1267 34.2059 38.1357C34.2386 38.151 34.2586 38.17 34.2365 38.2043C34.2207 38.2291 34.1964 38.2444 34.1943 38.2776C34.1922 38.3119 34.2138 38.3393 34.2038 38.3762C34.1938 38.4137 34.1589 38.4359 34.1547 38.477C34.1494 38.5218 34.151 38.5656 34.1457 38.6099C34.141 38.6479 34.1104 38.6854 34.083 38.7107C34.0492 38.7418 34.0112 38.7761 33.9717 38.7988C33.9421 38.8162 33.9094 38.8315 33.9026 38.8689C33.8984 38.89 33.8978 38.9211 33.9184 38.9291C33.9516 38.9417 33.9843 38.9153 34.0144 38.9085C34.0529 38.9 34.0846 38.8832 34.122 38.871C34.1911 38.8489 34.2639 38.842 34.3293 38.8083C34.3805 38.7819 34.41 38.7376 34.448 38.6964C34.4754 38.6669 34.5008 38.6379 34.5261 38.6068C34.5546 38.5709 34.5646 38.5297 34.5762 38.486C34.5852 38.4533 34.5994 38.42 34.6068 38.3873C34.6163 38.3488 34.6089 38.3019 34.6089 38.2618C34.6089 38.2148 34.6089 38.1689 34.6089 38.122V38.112C34.6084 38.0582 34.6342 38.0091 34.6564 37.9611C34.668 37.9363 34.6785 37.9083 34.6943 37.8862C34.7102 37.864 34.7244 37.8445 34.7302 37.8176C34.7439 37.7512 34.7503 37.7 34.8009 37.6478C34.8225 37.6251 34.8463 37.6045 34.8716 37.5871C34.8879 37.5765 34.9222 37.5671 34.9286 37.5475C34.9075 37.508 34.8547 37.5491 34.842 37.4995C34.8373 37.4811 34.8442 37.4747 34.8552 37.4621C34.87 37.4457 34.8763 37.432 34.8864 37.413C34.8959 37.3967 34.909 37.3861 34.9117 37.3661C34.9138 37.3508 34.9117 37.3318 34.9112 37.3165C34.9096 37.2569 34.8821 37.2131 34.9307 37.164C34.9597 37.1345 34.9808 37.1171 34.9813 37.0738C34.9818 37.0406 34.9665 37.0338 34.9338 37.0338C34.8911 37.0332 34.8721 37.0554 34.8605 37.0923C34.8473 37.1334 34.8262 37.1735 34.8188 37.2168C34.8136 37.2474 34.794 37.2922 34.7703 37.3112C34.7418 37.3334 34.7096 37.3455 34.6817 37.3666C34.6258 37.4072 34.5651 37.4083 34.4976 37.4072C34.4607 37.4067 34.4053 37.3803 34.3815 37.3508C34.3689 37.335 34.3668 37.3139 34.3573 37.2959C34.3499 37.2817 34.3288 37.2627 34.3378 37.2453C34.3583 37.2068 34.505 37.3081 34.5314 37.3149C34.5804 37.3286 34.5867 37.268 34.61 37.2405C34.6226 37.2252 34.6411 37.212 34.6595 37.2052C34.6849 37.1957 34.6896 37.192 34.7054 37.1662C34.7191 37.1429 34.7566 37.0833 34.7355 37.0591C34.7086 37.0279 34.6237 37.0849 34.602 37.0338C34.6142 36.9989 34.6849 37.0021 34.6896 36.9631C34.6933 36.9341 34.6152 36.9019 34.5894 36.9024L34.5393 36.8824C34.5187 36.8628 34.4902 36.8518 34.4707 36.8296C34.458 36.8154 34.4454 36.7885 34.4359 36.7711C34.4222 36.7463 34.4148 36.722 34.3984 36.6983C34.3826 36.6761 34.3673 36.6487 34.38 36.6197C34.4026 36.5695 34.4702 36.5648 34.4696 36.5015C34.4686 36.4081 34.3515 36.4952 34.3177 36.5194C34.2718 36.5516 34.2333 36.5917 34.1748 36.5901C34.1283 36.5891 34.1389 36.5706 34.1173 36.5368C34.1035 36.5147 34.0687 36.4894 34.0455 36.4762C33.9986 36.4498 33.9427 36.4408 33.9348 36.3786C33.9268 36.3211 34.0091 36.2652 34.064 36.2889C34.0914 36.3005 34.0935 36.3269 34.1083 36.3485C34.1262 36.3754 34.1563 36.3702 34.1864 36.3686C34.2143 36.367 34.2375 36.3517 34.266 36.348C34.2908 36.3443 34.3135 36.3348 34.3383 36.3306C34.3715 36.3248 34.4053 36.3216 34.4396 36.3158C34.4638 36.3111 34.487 36.3032 34.5118 36.3095C34.5783 36.3285 34.534 36.3944 34.5514 36.4387C34.5609 36.4625 34.5894 36.4677 34.6105 36.4688C34.6405 36.4704 34.6558 36.4614 34.6801 36.4461C34.7038 36.4313 34.7297 36.4187 34.7534 36.4034C34.783 36.3839 34.8136 36.3506 34.8505 36.3464C34.8964 36.3417 34.9544 36.3396 34.976 36.3876C35.0003 36.4403 35.0103 36.4962 35.0641 36.5268C35.1364 36.5674 35.1981 36.4962 35.2472 36.4482C35.2767 36.4197 35.3041 36.3918 35.3353 36.3649C35.3553 36.348 35.3949 36.31 35.4038 36.2836C35.4144 36.2525 35.3986 36.223 35.3901 36.1945C35.3754 36.146 35.4033 36.1449 35.4381 36.1233C35.4708 36.1032 35.4787 36.0668 35.4956 36.0347C35.5151 35.9977 35.55 35.9555 35.5969 35.9534C35.598 35.9017 35.6011 35.8722 35.6475 35.8421C35.6808 35.8205 35.7193 35.8068 35.7541 35.7867C35.7921 35.7646 35.7736 35.7161 35.7974 35.6818C35.8127 35.6596 35.8401 35.6501 35.857 35.6317C35.8744 35.6127 35.8691 35.6032 35.8617 35.5794C35.8575 35.5673 35.8564 35.5536 35.8496 35.5425C35.8438 35.533 35.8338 35.5293 35.828 35.5209C35.8148 35.5014 35.8158 35.4818 35.8243 35.4602C35.8406 35.4222 35.8549 35.3668 35.8 35.3505C35.7615 35.3394 35.7156 35.3505 35.6887 35.379C35.6729 35.3953 35.6792 35.4059 35.6776 35.427C35.675 35.4549 35.6539 35.4523 35.627 35.4565C35.5558 35.4687 35.426 35.4834 35.4249 35.5763C35.4244 35.6158 35.4244 35.6559 35.4249 35.6955C35.4249 35.7161 35.4265 35.7308 35.4154 35.7493C35.4028 35.7709 35.3801 35.7757 35.3638 35.7915C35.3511 35.8041 35.3448 35.8252 35.3342 35.84C35.3205 35.8595 35.3084 35.8822 35.2941 35.9007C35.254 35.9513 35.2255 35.8891 35.253 35.8521C35.2662 35.8342 35.2757 35.8163 35.2888 35.7978C35.2999 35.782 35.3115 35.7693 35.3147 35.7498C35.3173 35.7313 35.3142 35.7092 35.3142 35.6907C35.3142 35.6633 35.3163 35.6433 35.2836 35.6401C35.2451 35.6364 35.1986 35.6517 35.1633 35.6338C35.1448 35.6243 35.1338 35.6111 35.1132 35.6053C35.0894 35.5979 35.0567 35.5968 35.0319 35.6026C35.0061 35.6084 34.9507 35.6464 34.9275 35.6258C34.9164 35.6164 34.9175 35.5763 34.9228 35.562C34.9312 35.5404 34.9539 35.5304 34.9734 35.5225C34.9998 35.513 35.0267 35.5082 35.0515 35.4945C35.0736 35.4824 35.0921 35.4797 35.1153 35.4697C35.1343 35.4613 35.1549 35.4497 35.1617 35.4286C35.1696 35.4048 35.1564 35.379 35.1649 35.3552C35.1717 35.3357 35.2008 35.2999 35.2155 35.2872C35.2335 35.2719 35.2572 35.2693 35.2772 35.2587C35.3005 35.246 35.3189 35.2281 35.2846 35.2186C35.273 35.2155 35.2609 35.216 35.2493 35.2118C35.2356 35.2065 35.2234 35.1959 35.2092 35.1917C35.1881 35.1854 35.1675 35.1938 35.1527 35.1759C35.1385 35.159 35.1417 35.1411 35.1522 35.1247C35.186 35.073 35.2598 35.0873 35.3126 35.0867C35.3601 35.0867 35.3727 35.0947 35.3748 35.1432C35.378 35.2228 35.4656 35.1801 35.5062 35.1569C35.5294 35.1442 35.5447 35.1247 35.5668 35.111C35.5932 35.0957 35.6159 35.0962 35.6449 35.0962C35.6592 35.0962 35.6744 35.0978 35.6892 35.0968C35.7235 35.0941 35.7362 35.0751 35.7604 35.0556C35.7815 35.0387 35.8084 35.0219 35.82 35.0577C35.8243 35.0709 35.819 35.0936 35.819 35.1084C35.819 35.149 35.8111 35.1975 35.8195 35.2371C35.8264 35.2698 35.858 35.2745 35.887 35.2656C35.8981 35.2619 35.9102 35.2513 35.9197 35.2466C35.9371 35.2376 35.954 35.2366 35.9704 35.2255C36.0205 35.1912 36.0458 35.1226 36.0632 35.0678C36.0727 35.0393 36.0806 35.0145 36.0811 34.9839C36.0817 34.9638 36.087 34.9343 36.0796 34.9164C36.059 34.8668 35.9867 34.8742 35.9435 34.8742C35.925 34.8742 35.8849 34.8837 35.8796 34.8568C35.8749 34.8325 35.9081 34.8256 35.9266 34.8235C35.9588 34.8198 35.973 34.824 35.9999 34.804C36.0258 34.7855 36.0405 34.7666 36.0606 34.7428C36.0801 34.7196 36.0933 34.6948 36.1107 34.6695C36.1307 34.641 36.1598 34.6241 36.184 34.5993C36.2041 34.5788 36.232 34.5524 36.2563 34.5371C36.2737 34.5265 36.3249 34.4959 36.3412 34.5039C36.3581 34.5724 36.2816 34.6136 36.2405 34.6526C36.2199 34.6721 36.1893 34.6964 36.1772 34.7228C36.1671 34.7454 36.1703 34.7708 36.1703 34.795C36.1703 34.8298 36.1787 34.8604 36.1808 34.8947C36.183 34.9222 36.1803 34.9501 36.1803 34.9781C36.1803 34.9997 36.184 35.0245 36.1787 35.0456C36.1735 35.0678 36.1529 35.0947 36.1402 35.1136C36.1223 35.1411 36.0991 35.1638 36.0912 35.1975C36.0864 35.2165 36.0827 35.2571 36.0885 35.2761C36.0975 35.3067 36.1355 35.2983 36.1603 35.2983C36.1835 35.2983 36.2083 35.3014 36.2315 35.2977C36.2842 35.2898 36.3428 35.2292 36.3718 35.1875C36.3929 35.158 36.4103 35.1258 36.4325 35.0968C36.4515 35.0709 36.4683 35.0366 36.4931 35.0161L36.5032 35.006C36.5237 34.9892 36.5353 34.9644 36.5533 34.9454C36.5749 34.9227 36.5907 34.9 36.6087 34.8747C36.6255 34.851 36.6329 34.8393 36.6387 34.8103C36.6435 34.7892 36.6435 34.7713 36.644 34.7491C36.644 34.7249 36.6493 34.7064 36.634 34.688C36.615 34.6658 36.5844 34.6531 36.5633 34.6326C36.5074 34.5772 36.5775 34.5276 36.6139 34.4864C36.635 34.4632 36.6498 34.4427 36.6545 34.411C36.6593 34.3783 36.6472 34.3699 36.624 34.3504C36.606 34.3356 36.5876 34.3213 36.5665 34.3097C36.5427 34.2976 36.5158 34.2923 36.4931 34.2781C36.4467 34.2485 36.4235 34.1942 36.4224 34.1415C36.4219 34.1272 36.4161 34.0898 36.4235 34.0776C36.4435 34.046 36.4915 34.0887 36.5111 34.0966C36.5385 34.1066 36.567 34.1114 36.5944 34.1209C36.6097 34.1262 36.6429 34.1536 36.6603 34.1372C36.6698 34.1277 36.6651 34.0914 36.6619 34.0808C36.6551 34.0528 36.6403 34.028 36.624 34.0054C36.6039 33.9785 36.5955 33.9658 36.5606 33.9589C36.538 33.9547 36.5142 33.9605 36.4926 33.9547C36.4747 33.95 36.4414 33.9347 36.4335 33.9167C36.4251 33.8978 36.4309 33.8561 36.4346 33.836C36.4388 33.8128 36.4425 33.7907 36.4625 33.7775C36.4789 33.7664 36.5042 33.7617 36.5232 33.7574C36.5506 33.7511 36.6261 33.7427 36.6345 33.7743C36.645 33.8139 36.6139 33.8709 36.6445 33.9041C36.6577 33.9183 36.6799 33.9241 36.6946 33.9363C36.702 33.9426 36.7062 33.9489 36.7142 33.9542C36.7384 33.9705 36.7616 33.9584 36.7848 33.9679C36.8144 33.9795 36.8255 34.0186 36.8444 34.0402C36.8692 34.0681 36.9025 34.0618 36.9336 34.0739C36.9953 34.0993 36.9964 34.1531 36.9964 34.2106C36.9964 34.247 36.9821 34.3234 37.0164 34.3424C37.0386 34.354 37.0655 34.3519 37.0876 34.3419C37.1219 34.3266 37.1282 34.3329 37.1478 34.3693C37.1778 34.3266 37.2089 34.2934 37.2585 34.276C37.2775 34.2691 37.2965 34.2644 37.3171 34.2607C37.3345 34.2575 37.3524 34.2612 37.3698 34.2565C37.4131 34.2438 37.4495 34.1979 37.4806 34.1678C37.5133 34.1362 37.5597 34.1256 37.5993 34.1051C37.6462 34.0803 37.6842 34.0491 37.7243 34.017C37.766 33.9837 37.8187 33.9832 37.8641 33.9563C37.8826 33.9452 37.8979 33.9278 37.9163 33.9178C37.9343 33.9083 37.958 33.9067 37.9744 33.8941C37.9918 33.8819 38.0097 33.8476 38.0197 33.8292C38.025 33.8197 38.0218 33.8139 38.0245 33.8044C38.0266 33.7965 38.0424 33.7801 38.0424 33.7743C38.0408 33.7421 37.9443 33.7411 37.9242 33.7348C37.901 33.7279 37.8989 33.7079 37.8878 33.6878C37.8757 33.6662 37.8609 33.6482 37.8414 33.6329C37.8077 33.606 37.7665 33.5749 37.7275 33.6071C37.709 33.6224 37.7016 33.6414 37.6948 33.6635C37.6853 33.691 37.6774 33.71 37.6621 33.7342C37.642 33.7664 37.5961 33.8387 37.5566 33.8002C37.5392 33.7833 37.5302 33.7596 37.5123 33.7437C37.4991 33.7316 37.4331 33.7089 37.4337 33.6831C37.4347 33.6604 37.4669 33.663 37.4806 33.663C37.5091 33.663 37.5212 33.6651 37.5418 33.6419C37.5624 33.6187 37.5808 33.5971 37.6098 33.5839C37.6315 33.5744 37.6832 33.5776 37.6848 33.5454C37.6863 33.5143 37.6299 33.4721 37.6114 33.4515C37.5824 33.4188 37.5471 33.3866 37.5107 33.3623C37.4648 33.3317 37.412 33.3402 37.3593 33.3402C37.3287 33.3402 37.2453 33.3534 37.23 33.3233C37.219 33.3017 37.2295 33.2426 37.229 33.2189C37.229 33.2189 37.2253 33.1835 37.2274 33.1798C37.2374 33.1629 37.267 33.1682 37.2585 33.1387L37.2485 33.1587C37.2496 33.1107 37.2269 33.0859 37.1984 33.0501C37.1842 33.0316 37.1667 33.0216 37.1504 33.0052C37.1314 32.9868 37.1235 32.9604 37.1082 32.9393C37.0839 32.9061 37.0671 32.8765 37.0602 32.8354C37.0549 32.8074 37.047 32.7367 37.0723 32.7198C37.0897 32.7088 37.0998 32.7204 37.1182 32.7241C37.1346 32.7272 37.1541 32.7256 37.171 32.7251C37.1947 32.7246 37.1989 32.7235 37.2116 32.7051C37.2242 32.6861 37.2401 32.655 37.2612 32.6455C37.3007 32.6281 37.3445 32.6581 37.3756 32.6782C37.3941 32.6898 37.4163 32.6987 37.4321 32.7146C37.4484 32.7309 37.4574 32.7547 37.4658 32.7758C37.4838 32.8206 37.46 32.8459 37.4437 32.886C37.43 32.9192 37.4115 32.9646 37.4305 32.9963C37.4516 33.0316 37.4885 33.0553 37.5244 33.0749C37.5429 33.0849 37.564 33.0902 37.5782 33.107C37.593 33.125 37.5893 33.1545 37.612 33.1666C37.641 33.1819 37.6863 33.1635 37.7117 33.1503C37.7591 33.1244 37.7544 33.096 37.7544 33.0464C37.7544 33.0168 37.7454 32.9124 37.8056 32.9604C37.8209 32.9725 37.8224 32.9915 37.8272 33.0089C37.8335 33.0327 37.8478 33.0538 37.8536 33.077C37.8583 33.0981 37.8572 33.1239 37.8562 33.145C37.8546 33.1809 37.8346 33.1851 37.8077 33.2004C37.7855 33.2125 37.6921 33.2764 37.7032 33.3096C37.708 33.3244 37.7618 33.3349 37.7734 33.337C37.7939 33.3407 37.814 33.3428 37.8319 33.3328C37.8599 33.3175 37.8731 33.2827 37.891 33.2579C37.9079 33.2342 37.9464 33.2094 37.977 33.2078H37.987C38.0213 33.2088 38.0667 33.2004 38.0978 33.1877C38.1163 33.1804 38.131 33.1751 38.1231 33.1524C38.1131 33.1244 38.0835 33.1197 38.0619 33.107C38.0287 33.0954 38.006 33.0511 37.9986 33.0142C37.9933 32.9899 37.9923 32.9715 38.0081 32.9541C38.0271 32.9324 38.0466 32.925 38.0551 32.8934C38.0646 32.8586 38.0635 32.8143 38.0266 32.7979C38.0092 32.7895 37.9923 32.7926 37.9738 32.7926C37.9459 32.7926 37.9337 32.7842 37.9153 32.7631C37.8952 32.7399 37.8963 32.7214 37.8958 32.6919C37.8952 32.6718 37.8847 32.6418 37.8736 32.6238C37.8667 32.6128 37.8557 32.6085 37.8467 32.5985C37.8356 32.5864 37.8383 32.5822 37.8325 32.5706C37.8145 32.5394 37.7976 32.5131 37.8045 32.4746C37.814 32.4271 37.8478 32.388 37.8968 32.3891C37.9216 32.3896 37.9459 32.3891 37.9707 32.3891C37.9823 32.3891 37.9949 32.3865 38.006 32.3912C38.0134 32.3938 38.0408 32.4081 38.0445 32.4113C38.0867 32.4503 38.0334 32.4782 38.0002 32.4904C37.9854 32.4957 37.9548 32.4988 37.9438 32.5099C37.92 32.5331 37.9606 32.5558 37.9759 32.5716C37.9902 32.5864 37.9933 32.5911 37.9955 32.6112C37.9981 32.6323 37.9875 32.656 38.0049 32.6729C38.0176 32.6856 38.0319 32.6813 38.0477 32.6819C38.0762 32.6834 38.0988 32.6924 38.1162 32.7146C38.1447 32.7494 38.1363 32.7911 38.1363 32.8338C38.1363 32.8702 38.1247 32.9319 38.1505 32.9599C38.1732 32.9841 38.2054 32.9862 38.2276 33.0068C38.2481 33.0258 38.2418 33.0617 38.275 33.0669C38.3204 33.0749 38.3584 33.0042 38.3779 32.9725C38.3948 32.9446 38.4169 32.9171 38.4391 32.8934C38.448 32.8839 38.4618 32.8739 38.4697 32.8639C38.4818 32.8486 38.4881 32.8301 38.5008 32.8153C38.5087 32.8064 38.5272 32.7895 38.5398 32.7884C38.5636 32.7863 38.5594 32.8027 38.5599 32.8232C38.5599 32.8348 38.5604 32.8475 38.5599 32.8591C38.5588 32.8733 38.5467 32.8923 38.552 32.9055C38.5952 32.9277 38.6696 32.8675 38.6912 32.8359C38.7049 32.8148 38.716 32.7969 38.7234 32.7726C38.7276 32.7599 38.7313 32.7489 38.7366 32.7373C38.7419 32.7272 38.7498 32.7256 38.7503 32.7125L38.7603 32.7024C38.7566 32.6798 38.773 32.6613 38.7809 32.6412C38.7888 32.6212 38.7946 32.6091 38.8083 32.5917C38.8431 32.5452 38.8991 32.5321 38.9407 32.4925C38.9729 32.4624 38.9771 32.435 38.9877 32.3944C38.9908 32.3833 38.9977 32.3469 39.013 32.3443C39.042 32.3385 39.033 32.4028 39.033 32.4181C39.0325 32.4566 39.0394 32.5004 39.0172 32.5352C39.0061 32.5532 38.9893 32.5679 38.9777 32.5864C38.9603 32.6143 38.937 32.6244 38.9165 32.6481C38.889 32.6782 38.8711 32.7214 38.8716 32.7605C38.8722 32.8127 38.8716 32.8617 38.8627 32.9134C38.8526 32.973 38.8089 32.9767 38.7704 33.0147C38.754 33.0311 38.7044 33.1002 38.7192 33.1271C38.734 33.154 38.8025 33.1123 38.8004 33.1577C38.7994 33.1804 38.7651 33.1962 38.7482 33.2041C38.7234 33.2146 38.7013 33.2284 38.6923 33.2568C38.6886 33.2679 38.6854 33.2969 38.6944 33.3059C38.706 33.318 38.7545 33.3022 38.7667 33.2975C38.8199 33.2769 38.8759 33.2463 38.9249 33.2162C38.9481 33.2025 38.9724 33.1898 38.9956 33.1761C39.0067 33.1693 39.022 33.1629 39.0315 33.1535C39.0415 33.1434 39.0473 33.1297 39.0584 33.1213C39.0958 33.0907 39.1438 33.0685 39.1839 33.04C39.2288 33.0084 39.2662 32.9799 39.3163 32.9583C39.3453 32.9456 39.3596 32.934 39.3912 32.934C39.4113 32.934 39.4318 32.934 39.4519 32.934C39.4862 32.934 39.559 32.9198 39.5832 32.944C39.5964 32.9577 39.6049 32.9804 39.608 32.9989C39.6101 33.01 39.6075 33.0205 39.6101 33.0321C39.6128 33.0437 39.6202 33.0511 39.618 33.0643L39.6244 33.1186C39.722 33.1186 39.819 33.1186 39.9166 33.1186C39.9367 33.1186 39.9593 33.1229 39.9789 33.1192C40 33.1155 40.02 33.1039 40.0406 33.0981C40.0659 33.0907 40.0917 33.0843 40.116 33.0754C40.1292 33.0706 40.1355 33.0648 40.145 33.0564C40.1619 33.0427 40.1746 33.0369 40.1936 33.0258C40.2489 32.9926 40.2975 32.943 40.3518 32.9082C40.4051 32.8739 40.4578 32.8417 40.5106 32.8064C40.5217 32.799 40.5396 32.7921 40.5501 32.7837C40.5644 32.7721 40.5639 32.7573 40.5728 32.7431C40.5828 32.7267 40.6066 32.7014 40.5897 32.6798C40.5681 32.6518 40.537 32.6993 40.5206 32.713C40.4953 32.7341 40.4647 32.7478 40.4346 32.7605C40.3745 32.7858 40.3107 32.8111 40.2558 32.847C40.2421 32.8565 40.2305 32.8707 40.2173 32.8786C40.2041 32.8876 40.1899 32.8881 40.1761 32.8944C40.1424 32.9103 40.1155 32.9419 40.0838 32.9614C39.9989 33.0147 39.8966 33.0026 39.8032 33.021C39.7821 33.0253 39.751 33.029 39.7299 33.0242C39.6919 33.0163 39.6903 32.9804 39.7093 32.9504C39.7241 32.9261 39.7378 32.9171 39.7383 32.886C39.7394 32.8464 39.7425 32.8354 39.7789 32.8159C39.8106 32.7984 39.8491 32.7868 39.8829 32.7742C39.915 32.7626 39.9462 32.7483 39.9773 32.7325C40.0079 32.7172 40.04 32.7067 40.0706 32.6914C40.1123 32.6708 40.1477 32.6492 40.193 32.6365C40.2526 32.6196 40.308 32.608 40.3703 32.608C40.3961 32.608 40.422 32.6096 40.4478 32.6085C40.4853 32.607 40.519 32.5811 40.5501 32.5611C40.6076 32.5231 40.6725 32.5173 40.7369 32.502C40.749 32.4988 40.7611 32.4825 40.7749 32.4972C40.7886 32.512 40.7759 32.5236 40.7685 32.5347C40.748 32.569 40.701 32.5964 40.6889 32.6344C40.7168 32.6307 40.7453 32.6091 40.7696 32.5959C40.8049 32.5764 40.8418 32.5605 40.8767 32.5405C40.9036 32.5252 40.9299 32.5088 40.9553 32.4914C40.9732 32.4793 41.0027 32.4677 41.0175 32.4524H41.0275C41.0898 32.4165 41.1547 32.3775 41.2095 32.3337C41.2697 32.2857 41.3361 32.2488 41.3915 32.1923C41.4174 32.166 41.449 32.1559 41.4749 32.1301C41.5033 32.1021 41.5302 32.0747 41.5582 32.0462C41.5867 32.0177 41.6236 32.0014 41.6521 31.974C41.6769 31.9502 41.6985 31.9233 41.7238 31.9012C41.7555 31.8737 41.775 31.869 41.7845 31.8268C41.7924 31.7925 41.7903 31.7603 41.7993 31.7245C41.8077 31.6949 41.8256 31.6532 41.8594 31.6807C41.891 31.7065 41.8715 31.7466 41.8874 31.7788C41.8995 31.8036 41.9385 31.8025 41.966 31.7946C41.9992 31.7851 42.0293 31.7529 42.0562 31.7318C42.1311 31.6749 42.1785 31.582 42.2439 31.515L42.254 31.505C42.2788 31.476 42.312 31.4507 42.341 31.4269C42.3732 31.4006 42.4038 31.371 42.4354 31.3436C42.4855 31.3003 42.5441 31.265 42.6005 31.2302C42.6174 31.2202 42.6749 31.1838 42.6364 31.1711C42.6069 31.1611 42.5773 31.2006 42.5525 31.2138C42.494 31.2434 42.4386 31.2766 42.3832 31.313C42.3626 31.3262 42.3215 31.3758 42.2935 31.3589C42.2661 31.3425 42.2999 31.2882 42.312 31.2703C42.3225 31.2539 42.5072 31.1474 42.4523 31.1194C42.4265 31.1067 42.3774 31.1368 42.3531 31.1405C42.3305 31.1442 42.2856 31.15 42.2745 31.1268C42.2666 31.111 42.2693 31.0572 42.2793 31.0419C42.2919 31.0229 42.3094 31.0292 42.3283 31.0271C42.35 31.025 42.369 31.0176 42.3895 31.0113C42.4365 30.9976 42.4808 30.9817 42.5219 30.9538C42.5357 30.9443 42.5689 30.9263 42.5747 30.9126C42.5805 30.9 42.5773 30.8789 42.581 30.8652C42.5974 30.7982 42.5721 30.7032 42.638 30.652V30.642C42.6206 30.6246 42.5942 30.6193 42.5752 30.6003C42.5578 30.5829 42.5404 30.5645 42.5446 30.5376V30.5276C42.5747 30.5276 42.6058 30.526 42.6359 30.5276C42.6633 30.5286 42.6839 30.5439 42.7103 30.5513C42.7757 30.5698 42.8395 30.5697 42.9081 30.5697C42.935 30.5697 42.964 30.5756 42.9867 30.5592C43.0204 30.5339 43.0194 30.478 43.0436 30.4447C43.0626 30.4178 43.0948 30.3946 43.1106 30.3667C43.1243 30.3435 43.1154 30.3102 43.1254 30.2833C43.1354 30.2548 43.1486 30.2279 43.1739 30.2105C43.1982 30.1947 43.233 30.1694 43.2615 30.1646C43.2953 30.1588 43.3311 30.162 43.3491 30.1947C43.3638 30.2211 43.367 30.2517 43.3812 30.278C43.396 30.3055 43.4229 30.3208 43.4282 30.3529C43.435 30.3962 43.4055 30.4199 43.3691 30.4384C43.3406 30.4526 43.3084 30.4347 43.2815 30.4537C43.2662 30.4642 43.2583 30.4774 43.2404 30.4854C43.2161 30.4959 43.2035 30.5123 43.184 30.5318C43.1518 30.5639 43.1143 30.5951 43.0869 30.6315C43.0679 30.6568 43.0447 30.6689 43.0236 30.6911C43.0046 30.7106 42.9919 30.7349 42.9724 30.7544C42.9424 30.7839 42.917 30.8166 42.8912 30.8509C42.8627 30.8884 42.8136 30.9263 42.7994 30.9728C42.8147 30.9638 42.8226 30.9448 42.8363 30.9337C42.8585 30.9158 42.8864 30.9063 42.9107 30.8915C42.9508 30.8667 42.9877 30.8398 43.0268 30.814C43.0748 30.7829 43.1222 30.7407 43.1623 30.6995C43.1966 30.6642 43.2367 30.6357 43.2715 30.6009L43.2979 30.5977C43.3048 30.5872 43.3127 30.5872 43.3237 30.5835C43.3369 30.5787 43.347 30.5729 43.3586 30.565C43.3749 30.555 43.3902 30.5465 43.4087 30.5392C43.4451 30.5244 43.4809 30.5022 43.5126 30.479C43.5237 30.4706 43.5342 30.4611 43.5448 30.4526C43.5521 30.4474 43.5564 30.441 43.5638 30.4358C43.5727 30.43 43.5817 30.4284 43.5907 30.4215C43.606 30.4089 43.6213 30.3951 43.6366 30.3825C43.6529 30.3682 43.6756 30.354 43.6888 30.3366C43.7004 30.3224 43.7093 30.3049 43.721 30.2891C43.7326 30.2738 43.7421 30.2559 43.7531 30.2401C43.779 30.2052 43.809 30.1741 43.8407 30.1441C43.8549 30.1309 43.8723 30.1203 43.8882 30.1082C43.9066 30.0939 43.9235 30.0866 43.9436 30.076C43.962 30.0665 43.9815 30.0539 43.9989 30.0433C44.0253 30.0275 44.0406 30.0064 44.0607 29.9842C44.0707 29.9731 44.0907 29.96 44.0976 29.9452C44.1071 29.923 44.0791 29.9056 44.0659 29.8924C44.0385 29.8645 44.0047 29.8434 43.9736 29.8212C43.9488 29.8038 43.914 29.7927 43.8845 29.8028C43.8586 29.8117 43.8613 29.8328 43.8708 29.8534C43.8824 29.8798 43.8971 29.9051 43.9066 29.932C43.9109 29.9426 43.9151 29.9663 43.9098 29.9779C43.9024 29.9937 43.8681 29.9937 43.8539 29.9974C43.8333 30.0027 43.8138 30.0101 43.7932 30.0153C43.7811 30.0185 43.7663 30.0196 43.7547 30.0248C43.7494 30.0285 43.7447 30.0317 43.7394 30.0349C43.7304 30.037 43.7225 30.0391 43.7141 30.0422C43.6983 30.0507 43.6882 30.0692 43.6756 30.0818C43.6666 30.0908 43.6587 30.1008 43.6487 30.1087C43.6397 30.1166 43.6344 30.1177 43.6244 30.1224C43.5991 30.1361 43.5537 30.1689 43.5247 30.1478C43.5057 30.134 43.5115 30.1077 43.5121 30.0871C43.5126 30.0644 43.5194 30.0428 43.5268 30.0211C43.5405 29.9816 43.549 29.9399 43.558 29.8988C43.5669 29.8603 43.5822 29.8281 43.6038 29.7938C43.636 29.741 43.636 29.6915 43.636 29.6324V29.6276C43.636 29.5817 43.6408 29.538 43.6149 29.4973C43.606 29.4842 43.5986 29.4815 43.5843 29.4762C43.5706 29.471 43.5585 29.4631 43.5448 29.4578C43.5258 29.4504 43.5073 29.443 43.4889 29.4351C43.4772 29.4303 43.4651 29.4251 43.4535 29.4203C43.4424 29.4156 43.4266 29.4161 43.4161 29.4108C43.3918 29.4003 43.3818 29.3639 43.3659 29.3444C43.347 29.3212 43.3253 29.3154 43.2958 29.3143C43.2831 29.3138 43.2689 29.3127 43.2568 29.3159C43.2473 29.318 43.2357 29.328 43.2267 29.327C43.224 29.3175 43.2499 29.3032 43.2562 29.2985C43.2705 29.2874 43.2789 29.2842 43.2958 29.2805C43.3285 29.2737 43.3612 29.28 43.3939 29.2758C43.4192 29.2726 43.4646 29.2652 43.4672 29.2352C43.4699 29.2056 43.4482 29.1692 43.4308 29.1476C43.4081 29.1181 43.3907 29.1075 43.3538 29.0996C43.32 29.0922 43.2879 29.0843 43.2546 29.0732C43.2256 29.0637 43.1961 29.0495 43.1665 29.0421C43.1518 29.0379 43.1407 29.0326 43.127 29.0252C43.1043 29.0147 43.0938 29.0015 43.079 28.9814C43.06 28.9556 43.0442 28.944 43.0431 28.9102C43.0426 28.8897 43.0442 28.8812 43.0595 28.8675C43.0758 28.8533 43.0821 28.8533 43.0827 28.8322C43.0832 28.819 43.0827 28.8058 43.0827 28.7926C43.0827 28.7726 43.0769 28.7641 43.0663 28.7462C43.0436 28.7093 43.0299 28.6776 43.0305 28.6328C43.031 28.5652 43.0558 28.5062 43.0959 28.4524C43.1222 28.4175 43.136 28.3759 43.165 28.3426C43.1861 28.3184 43.2325 28.3094 43.2636 28.3178C43.2821 28.3231 43.299 28.3395 43.3158 28.3479C43.3285 28.3542 43.3411 28.359 43.3543 28.3622C43.387 28.3701 43.4277 28.3717 43.4477 28.4028C43.4556 28.4149 43.4619 28.4328 43.4656 28.4471C43.4704 28.465 43.4693 28.4882 43.4862 28.4993C43.5189 28.5204 43.5659 28.4951 43.5907 28.4729L43.5975 28.4661C43.5954 28.4429 43.6218 28.4144 43.6302 28.3938C43.6355 28.3822 43.6413 28.3632 43.6429 28.35C43.646 28.3194 43.6434 28.2867 43.6503 28.2567C43.6613 28.206 43.7141 28.1912 43.7521 28.1665C43.7874 28.1432 43.8164 28.1142 43.8338 28.0752C43.8486 28.0425 43.8692 28.0024 43.9035 27.985C43.9198 27.9766 43.9409 27.9713 43.9589 27.9708C43.9763 27.9702 44.0047 27.9655 44.0211 27.9723C44.0306 27.976 44.0496 27.9892 44.0554 27.9971C44.0612 28.0045 44.0617 28.0182 44.0675 28.0246C44.0754 28.0325 44.0876 28.0325 44.0976 28.0351C44.1313 28.0451 44.1662 28.0552 44.1904 28.0821C44.2405 28.139 44.2231 28.2334 44.2231 28.3026C44.2231 28.3411 44.2252 28.3769 44.2305 28.4149C44.239 28.4719 44.2363 28.5299 44.2363 28.5874C44.2363 28.6275 44.2363 28.6681 44.2363 28.7082C44.2363 28.7425 44.2405 28.7747 44.2237 28.8058C44.2152 28.8206 44.2094 28.8343 44.1957 28.8448C44.1883 28.8512 44.1778 28.8596 44.1693 28.8643C44.1625 28.8686 44.154 28.8691 44.1477 28.8738C44.1319 28.8865 44.1197 28.9076 44.105 28.9224C44.0907 28.9366 44.0807 28.9498 44.0612 28.9567C44.0422 28.9635 44.0195 28.9635 43.9984 28.9683C43.9805 28.9725 43.9509 28.9746 43.9441 28.9952C43.9393 29.0078 43.9404 29.0374 43.9504 29.0447C43.9541 29.0474 43.9789 29.05 43.9836 29.0505C43.9953 29.0527 44.0058 29.0521 44.0179 29.0521C44.0533 29.0521 44.0865 29.0516 44.1219 29.0442C44.163 29.0358 44.2041 29.0247 44.2442 29.0131C44.2849 29.0015 44.3228 28.9867 44.3629 28.9741C44.3872 28.9656 44.4125 28.9635 44.4368 28.9545C44.4505 28.9493 44.4732 28.945 44.4842 28.935C44.508 28.935 44.5317 28.9361 44.556 28.935C44.5887 28.9334 44.6225 28.9192 44.6536 28.9087C44.6868 28.897 44.7506 28.8823 44.7839 28.9034C44.8113 28.9203 44.8261 28.9392 44.8572 28.9482C44.8867 28.9567 44.9163 28.9551 44.9469 28.9551C44.9717 28.9551 45.0007 28.9593 45.0255 28.9556C45.0529 28.9508 45.0793 28.9429 45.1078 28.9424C45.1257 28.9419 45.1652 28.9466 45.1426 28.9714C45.1215 28.9952 45.0819 29.0089 45.0566 29.0263C45.0418 29.0358 45.0281 29.0484 45.0139 29.059C45.0001 29.0695 44.9906 29.0732 44.9748 29.0801C44.9616 29.0859 44.9527 29.0964 44.9411 29.1033C44.93 29.1102 44.9136 29.1128 44.9015 29.1175C44.8551 29.1355 44.8044 29.1181 44.7601 29.1028C44.7411 29.0959 44.7169 29.0917 44.6963 29.0917C44.6631 29.0912 44.6425 29.1128 44.6193 29.136C44.5982 29.1571 44.5829 29.1824 44.556 29.1967C44.5264 29.213 44.4937 29.2088 44.4621 29.2167C44.45 29.2199 44.4368 29.2251 44.4246 29.2283C44.4099 29.2331 44.402 29.2404 44.3898 29.2484C44.3819 29.2531 44.374 29.2568 44.3661 29.2605C44.345 29.2716 44.3323 29.2879 44.3165 29.3053C44.2943 29.3301 44.2738 29.356 44.2511 29.3802C44.2326 29.4003 44.2147 29.4277 44.1915 29.442C44.1762 29.4514 44.1609 29.4583 44.1466 29.471C44.1345 29.4826 44.1234 29.4952 44.1129 29.5084C44.1034 29.5195 44.0886 29.5295 44.0818 29.5406C44.0786 29.5459 44.0781 29.5527 44.0749 29.5585C44.0686 29.5686 44.0586 29.5765 44.0517 29.587C44.0332 29.6144 44.02 29.6271 44.0385 29.6582C44.0559 29.6878 44.0907 29.731 44.1261 29.7395C44.1577 29.7468 44.1894 29.7173 44.211 29.6978C44.2342 29.6772 44.2543 29.6551 44.278 29.6361C44.3012 29.6176 44.3197 29.5928 44.3423 29.5733C44.3529 29.5643 44.3634 29.558 44.3729 29.5475C44.3851 29.5348 44.3946 29.519 44.4067 29.5063C44.4811 29.4298 44.5586 29.356 44.6509 29.3011C44.6984 29.2726 44.7475 29.2484 44.7944 29.2193C44.8229 29.2019 44.8477 29.1877 44.8788 29.1756C44.9041 29.1661 44.9263 29.1502 44.95 29.1397C44.9949 29.1202 45.0381 29.0964 45.0824 29.0743C45.1431 29.0437 45.2075 29.0189 45.2702 28.9915C45.333 28.964 45.3915 28.9303 45.4533 28.9018C45.4854 28.887 45.5197 28.8728 45.5503 28.8543C45.5751 28.8395 45.5978 28.8258 45.6231 28.8132C45.6458 28.8026 45.6674 28.7915 45.6885 28.7789C45.6991 28.772 45.7086 28.7694 45.7197 28.7646C45.735 28.7573 45.7476 28.7457 45.7619 28.7362C45.783 28.7224 45.8056 28.7124 45.8278 28.7024C45.8626 28.6866 45.898 28.6665 45.9359 28.6597L45.9781 28.676C46.0172 28.6755 46.0546 28.6285 46.0857 28.6085C46.1232 28.5842 46.168 28.5642 46.2023 28.5362C46.2287 28.5151 46.253 28.4956 46.2836 28.4808C46.3105 28.4682 46.3326 28.4487 46.36 28.436C46.3949 28.4202 46.4402 28.4022 46.4687 28.3769C46.4988 28.35 46.5346 28.33 46.5642 28.302C46.5906 28.2772 46.6259 28.2672 46.6576 28.2514C46.6971 28.2313 46.7409 28.2192 46.7847 28.2176C46.8791 28.2139 46.9714 28.2234 47.0648 28.2076C47.1033 28.2007 47.145 28.1923 47.184 28.1928C47.212 28.1934 47.2331 28.1881 47.26 28.1844C47.2964 28.1791 47.3359 28.1585 47.3623 28.1332C47.3723 28.1232 47.3924 28.1132 47.3976 28.0995C47.4008 28.091 47.3982 28.0615 47.3961 28.0536C47.3876 28.0214 47.3639 27.9855 47.3417 27.9597C47.3138 27.928 47.2679 27.9127 47.2352 27.8869C47.2162 27.8716 47.1982 27.8684 47.1756 27.8579C47.1518 27.8468 47.1323 27.8315 47.1138 27.813C47.0706 27.7687 47.0157 27.7313 46.9793 27.6812C46.9593 27.6532 46.9398 27.6015 46.9371 27.5677C46.935 27.5408 46.9266 27.4644 46.9461 27.4454C46.9413 27.42 46.9582 27.3968 46.9714 27.3768C46.9809 27.3615 46.9941 27.3557 47.0057 27.342C47.0141 27.3325 47.0199 27.3209 47.0294 27.3114C47.0685 27.2697 47.1007 27.2264 47.1302 27.1784C47.1418 27.1589 47.1502 27.141 47.1587 27.1188C47.1682 27.0935 47.1845 27.0714 47.193 27.046C47.2077 27.0023 47.2156 26.9495 47.2542 26.9194C47.2763 26.902 47.3027 26.891 47.3275 26.8767C47.3407 26.8688 47.356 26.8577 47.3713 26.853C47.3908 26.8472 47.4124 26.8466 47.433 26.8408C47.4572 26.8335 47.481 26.8277 47.5052 26.8197C47.53 26.8113 47.5554 26.8097 47.5759 26.7923C47.5981 26.7739 47.6208 26.7601 47.6398 26.7375C47.6535 26.7211 47.6682 26.7079 47.6814 26.69C47.6957 26.671 47.712 26.6473 47.7289 26.6304L47.7379 26.6473C47.7373 26.613 47.7474 26.5882 47.7574 26.5555C47.7679 26.5191 47.7732 26.4806 47.7827 26.4431C47.7964 26.3888 47.8064 26.3339 47.8064 26.278C47.8064 26.2543 47.8059 26.2305 47.8064 26.2068C47.807 26.172 47.7933 26.1461 47.779 26.115C47.7563 26.0659 47.712 26.0301 47.6936 25.9789C47.6788 25.9367 47.6793 25.8977 47.6793 25.8534C47.6793 25.8069 47.6893 25.7558 47.6582 25.7183C47.6429 25.6999 47.6224 25.6856 47.6081 25.6666C47.5944 25.6487 47.5828 25.6281 47.5691 25.6097C47.5485 25.5817 47.5285 25.5537 47.5137 25.5231C47.5063 25.5079 47.4989 25.5005 47.4878 25.4889C47.4768 25.4767 47.4747 25.4635 47.4694 25.4482C47.4636 25.4319 47.4546 25.4171 47.4499 25.4002C47.4441 25.3812 47.4409 25.3612 47.4351 25.3422C47.4245 25.309 47.4245 25.2805 47.4245 25.2452C47.4245 25.2051 47.4208 25.1666 47.433 25.1286C47.4467 25.0832 47.4752 25.0642 47.5095 25.0347H47.5184C47.539 25.0099 47.5659 24.9851 47.5823 24.9577C47.5986 24.9308 47.6208 24.9039 47.6208 24.8727C47.6208 24.8284 47.5865 24.7825 47.6113 24.7393C47.6192 24.7261 47.6245 24.7213 47.6297 24.7071C47.634 24.695 47.6366 24.6823 47.6376 24.6691C47.6398 24.6401 47.6392 24.6195 47.6208 24.5953C47.586 24.5494 47.5348 24.5109 47.5353 24.4481C47.5358 24.407 47.5306 24.3742 47.5522 24.3379C47.5701 24.3067 47.5933 24.2925 47.6266 24.2788C47.6482 24.2693 47.6609 24.2598 47.6798 24.2466C47.6936 24.2371 47.7104 24.2313 47.7231 24.2197C47.7458 24.1975 47.7569 24.1738 47.7563 24.1437C47.7558 24.0952 47.7563 24.0467 47.7563 23.9981C47.7563 23.9681 47.7526 23.9354 47.7579 23.9058C47.7653 23.8652 47.7832 23.8288 47.8054 23.7945C47.8239 23.766 47.845 23.7412 47.8581 23.7101L47.8671 23.7012C47.865 23.6779 47.8819 23.6547 47.8887 23.6331C47.8977 23.6046 47.8993 23.5761 47.9051 23.5477C47.9119 23.5155 47.923 23.4865 47.933 23.4553C47.9394 23.4358 47.9436 23.4153 47.9515 23.3968C47.96 23.3778 47.9747 23.3646 47.9863 23.3472C48.0006 23.3261 48.0185 23.3061 48.0275 23.2818C48.037 23.2554 48.037 23.2322 48.037 23.2048C48.037 23.1631 48.0306 23.1288 48.0138 23.0903C47.9963 23.0507 47.9921 22.9801 48.0153 22.9416C48.0449 22.892 48.1177 22.8561 48.0691 22.7933C48.0449 22.7622 48.0153 22.73 48.0027 22.692C47.9911 22.6578 47.9863 22.6261 47.9863 22.5892C47.9863 22.5607 47.9795 22.5275 47.9937 22.5027C48.0058 22.4805 48.0259 22.471 48.0449 22.4563C48.0607 22.4446 48.0728 22.4278 48.0902 22.4188C48.124 22.4009 48.1604 22.3951 48.191 22.3687C48.2137 22.3486 48.258 22.3117 48.2374 22.2795C48.1979 22.2189 48.1293 22.1804 48.0976 22.1144L48.0639 22.0886C48.0644 22.0321 48.047 21.9799 48.047 21.9235C48.047 21.867 48.0417 21.809 48.0127 21.7589C48.0006 21.7378 47.9863 21.7183 47.9731 21.6982C47.9531 21.6676 47.922 21.665 47.8887 21.665C47.8492 21.6645 47.836 21.6318 47.8017 21.6191C47.7785 21.6107 47.7537 21.6086 47.7321 21.5943C47.712 21.5817 47.6967 21.5579 47.6867 21.5363C47.6751 21.5089 47.6762 21.4804 47.6661 21.4524C47.6471 21.3997 47.6609 21.3395 47.597 21.3147C47.5506 21.2973 47.4841 21.2799 47.4514 21.2388C47.433 21.2156 47.4314 21.1776 47.4272 21.1491C47.4235 21.1254 47.4272 21.1011 47.4266 21.0768C47.4256 21.0426 47.4103 21.0109 47.4092 20.9777C47.4082 20.9418 47.395 20.9007 47.3792 20.8685C47.3586 20.8263 47.3243 20.7978 47.2921 20.7646C47.2663 20.7377 47.2452 20.7071 47.223 20.678L47.2141 20.6691C47.2141 20.6506 47.2146 20.6416 47.2225 20.6248C47.2325 20.6031 47.2389 20.5852 47.2399 20.5604C47.241 20.5388 47.2436 20.5151 47.232 20.4966C47.2199 20.476 47.1898 20.4544 47.1719 20.4391C47.1508 20.4206 47.1223 20.4085 47.1038 20.3869C47.0859 20.3658 47.0632 20.3505 47.0463 20.3294C47.0152 20.2903 46.9857 20.2476 46.9704 20.1996C46.9572 20.1595 46.9456 20.1205 46.9361 20.0804C46.9271 20.045 46.934 20.0002 46.934 19.9643C46.934 19.9448 46.9366 19.9232 46.9334 19.9042C46.9303 19.8868 46.9197 19.8689 46.9123 19.8525C46.9034 19.8325 46.8886 19.8177 46.8791 19.7987C46.8744 19.7892 46.8717 19.7792 46.867 19.7702C46.8612 19.7607 46.8496 19.7554 46.8496 19.7428L46.8237 19.709C46.8237 19.6584 46.8237 19.6067 46.8237 19.5561C46.8237 19.4928 46.8169 19.4384 46.7963 19.3778C46.7736 19.3102 46.7335 19.2464 46.6961 19.1842C46.6655 19.1335 46.6138 19.0855 46.5695 19.0465C46.5109 18.9958 46.4534 18.9431 46.397 18.8919C46.3469 18.846 46.2904 18.7975 46.2551 18.739C46.2387 18.711 46.2134 18.6894 46.1955 18.6625C46.1759 18.634 46.1496 18.6139 46.1274 18.5886C46.1153 18.5749 46.1132 18.5607 46.1026 18.5459C46.0937 18.5327 46.0773 18.5227 46.0673 18.5095C46.0467 18.4821 46.0235 18.4599 45.9998 18.4356L45.9264 18.3006Z" fill="white"/>
</svg>
