<svg width="104" height="45" viewBox="0 0 104 45" fill="none" xmlns="http://www.w3.org/2000/svg">
<path d="M16.8543 33.2212C18.2022 32.0592 19.55 30.8972 20.8979 29.7353C20.9444 29.9154 20.9909 30.0955 21.0374 30.2756C20.8572 30.4441 20.6772 30.6126 20.497 30.7811C20.7527 30.9089 21.0083 31.0367 21.2639 31.1645C21.2632 31.5331 21.2625 31.9017 21.2617 32.2703C21.6248 32.718 21.9879 33.1656 22.351 33.6133C22.6441 33.657 22.9372 33.7008 23.2303 33.7445C23.6137 34.1339 23.9972 34.5232 24.3807 34.9125C24.6199 34.9125 24.859 34.9125 25.0981 34.9125C25.2527 34.825 25.4073 34.7375 25.5618 34.6501C26.2399 34.3526 26.9179 34.0551 27.596 33.7577C27.7884 33.4471 27.9809 33.1365 28.1734 32.8259C28.7741 33.3683 29.3749 33.9108 29.9757 34.4532C30.174 34.2563 30.3723 34.0595 30.5706 33.8626C31.8887 33.4821 33.2069 33.1015 34.5251 32.7209C34.4245 32.5634 34.3239 32.406 34.2232 32.2485C34.2655 31.9437 34.3078 31.639 34.3501 31.3342C34.8619 31.6346 35.3737 31.935 35.8855 32.2353C36.8188 31.6929 37.752 31.1505 38.6852 30.608C38.901 30.8866 39.1168 31.1651 39.3326 31.4436C40.0398 30.974 40.747 30.5045 41.4542 30.035C41.3026 29.9256 41.1509 29.8163 40.9993 29.7069C41.0736 29.5173 41.148 29.3278 41.2224 29.1382C41.549 28.886 41.8756 28.6337 42.2022 28.3814C41.896 28.0694 41.5898 27.7574 41.2836 27.4453C41.4644 27.0851 41.6452 26.725 41.826 26.3648C42.6842 25.2974 43.5423 24.2301 44.4004 23.1627C44.6366 22.8456 44.8728 22.5284 45.1091 22.2113C45.3847 21.7213 45.6602 21.2314 45.9358 20.7415C45.9664 20.3587 45.9971 19.9759 46.0277 19.5932C46.5089 19.1973 46.9901 18.8014 47.4713 18.4055C47.4166 18.154 47.3619 17.9024 47.3072 17.6509C47.6484 17.3972 47.9896 17.1435 48.3308 16.8898C48.6217 15.7283 48.9126 14.5669 49.2035 13.4055C49.6913 13.5477 50.1791 13.6898 50.6668 13.832C50.903 14.357 51.1392 14.8819 51.3755 15.4068C52.2044 15.6277 53.0334 15.8486 53.8623 16.0695C55.0588 13.7861 56.2552 11.5026 57.4516 9.21915C57.9131 9.69378 58.3746 10.1684 58.8361 10.643C59.1489 9.96937 59.4616 9.2957 59.7744 8.62205C59.9516 8.52472 60.1287 8.42739 60.3059 8.33005C60.3059 8.22943 60.3059 8.12882 60.3059 8.02821C60.4262 7.95932 60.5465 7.89041 60.6668 7.82152C60.6668 8.00524 60.6668 8.18896 60.6668 8.3727C60.8068 8.2863 60.9468 8.19991 61.0867 8.11351C61.3087 7.76574 61.5307 7.41797 61.7527 7.0702C61.9332 7.16316 62.1136 7.25612 62.2941 7.34908C62.3904 7.17535 62.4867 7.00162 62.583 6.82789C62.5851 6.60136 62.5872 6.37483 62.5894 6.14829C63.2652 5.48556 63.9411 4.82284 64.6169 4.1601C64.4813 3.99825 64.3457 3.8364 64.2101 3.67455C64.571 2.74278 64.9319 1.81102 65.2928 0.879264C65.5421 0.586172 65.7915 0.29308 66.0408 0C67.8511 1.56752 69.6614 3.13502 71.4717 4.70254C71.9704 3.71975 72.4691 2.73694 72.9678 1.75415C73.6268 1.84164 74.2859 1.92914 74.945 2.01662C75.0266 2.25284 75.1083 2.48906 75.19 2.72527C75.4641 2.83026 75.7382 2.93525 76.0124 3.04024C76.094 3.16563 76.1757 3.29104 76.2573 3.41644C75.9336 3.61768 75.6099 3.81889 75.2862 4.02011C75.2862 4.27966 75.2862 4.53921 75.2862 4.79876C75.4904 4.88042 75.6945 4.96207 75.8986 5.04374C75.9628 5.23622 76.027 5.42869 76.0911 5.62117C76.7414 5.7145 77.3918 5.80781 78.0421 5.90113C78.7741 6.47856 79.5061 7.05599 80.2381 7.63342C80.5589 8.05336 80.8797 8.47331 81.2005 8.89325C81.2034 9.71565 81.2063 10.5381 81.2092 11.3604C80.8797 11.5238 80.5502 11.6871 80.2206 11.8504C80.2206 12.107 80.2206 12.3637 80.2206 12.6203C79.7219 12.8419 79.2232 13.0636 78.7245 13.2852C78.43 13.8597 78.1354 14.4342 77.8409 15.0087C77.9896 15.697 78.1384 16.3852 78.2871 17.0735C78.7974 17.0881 79.3078 17.1027 79.8182 17.1172C80.3198 16.8139 80.8214 16.5107 81.323 16.2074C81.4338 16.3998 81.5446 16.5923 81.6554 16.7848C81.5796 17.1172 81.5038 17.4497 81.428 17.7822C81.7225 18.0475 82.017 18.3129 82.3116 18.5783C82.3116 18.8174 82.3116 19.0566 82.3116 19.2957C82.8371 19.5569 83.3625 19.8182 83.888 20.0794C84.8032 20.1214 85.7184 20.1635 86.6336 20.2056C86.6423 20.4272 86.651 20.6489 86.6598 20.8705C86.9952 21.2147 87.3306 21.5588 87.6659 21.9029C88.048 22.2762 88.43 22.6495 88.812 23.0228C89.4478 23.2881 90.0835 23.5535 90.7193 23.8189C90.8126 24.0016 90.9059 24.1843 90.9992 24.367C90.8191 24.8318 90.639 25.2966 90.4589 25.7614C90.397 26.2753 90.335 26.7892 90.2731 27.3032C90.1491 27.3993 90.0251 27.4954 89.9011 27.5915C89.9092 27.8497 89.9173 28.1079 89.9253 28.3662C89.4292 28.0673 88.9332 27.7684 88.4371 27.4695C88.4661 27.2835 88.4952 27.0976 88.5242 26.9117C88.276 26.8198 88.0278 26.728 87.7797 26.6361C87.8584 26.9627 87.9372 27.2893 88.0159 27.6159C87.9277 27.7821 87.8396 27.9482 87.7515 28.1143C87.3234 27.2366 86.8954 26.3589 86.4673 25.4812C86.3215 25.4666 86.1757 25.452 86.0299 25.4375C85.6799 25.2071 85.33 24.9767 84.98 24.7463C84.9071 24.8075 84.8342 24.8688 84.7613 24.93C84.9975 25.2391 85.2337 25.5483 85.47 25.8574C85.817 26.1811 86.164 26.5048 86.5111 26.8285C86.6219 27.1493 86.7327 27.4701 86.8435 27.7909C87.1031 28.0563 87.3626 28.3217 87.6222 28.5871C88.5379 28.8291 89.4536 29.0712 90.3693 29.3132C89.9552 29.4765 89.5411 29.6399 89.127 29.8032C89.6549 30.1385 90.1827 30.4739 90.7106 30.8093C90.7718 30.9697 90.833 31.1301 90.8943 31.2905C90.8943 31.6579 90.8943 32.0254 90.8943 32.3928C90.6872 32.5736 90.4802 32.7544 90.2731 32.9353C90.0719 32.667 89.8707 32.3987 89.6694 32.1304C89.2728 31.8504 88.8762 31.5704 88.4796 31.2905C88.4796 31.4013 88.4796 31.5121 88.4796 31.6229C88.6429 31.83 88.8062 32.037 88.9695 32.2441C88.7595 32.177 88.5496 32.1099 88.3396 32.0429C88.5379 32.247 88.7362 32.4512 88.9345 32.6553C88.8004 32.8186 88.6662 32.9819 88.5321 33.1452C88.535 33.2502 88.5379 33.3552 88.5408 33.4602C88.7537 33.4135 88.9666 33.3669 89.1795 33.3202C89.1795 33.5068 89.1795 33.6935 89.1795 33.8801C89.0336 33.8976 88.8878 33.9151 88.742 33.9326C88.7595 34.1922 88.777 34.4517 88.7945 34.7113C89.1328 34.9621 89.4711 35.2129 89.8094 35.4637C89.996 35.6795 90.1827 35.8953 90.3693 36.1111C90.2614 36.203 90.1535 36.2948 90.0456 36.3867C90.1331 36.5777 90.2206 36.7687 90.3081 36.9598C90.4072 36.846 90.5064 36.7323 90.6056 36.6185C90.5472 37.0064 90.4889 37.3943 90.4306 37.7822C90.2089 37.7734 89.9873 37.7647 89.7657 37.7559C89.4944 37.9834 89.2232 38.2109 88.952 38.4383C88.7887 38.1904 88.6254 37.9426 88.4621 37.6947C88.1529 37.368 87.8438 37.0414 87.5347 36.7148C87.1701 36.4757 86.8056 36.2365 86.4411 35.9974C86.4557 35.7145 86.4702 35.4316 86.4848 35.1487C86.3478 34.9417 86.2107 34.7346 86.0736 34.5276C85.4583 34.6296 84.8429 34.7317 84.2276 34.8338C84.4872 35.1342 84.7467 35.4345 85.0063 35.7349C85.3095 35.8749 85.6128 36.0149 85.9161 36.1549C85.8695 36.4757 85.8228 36.7964 85.7762 37.1172C86.1553 37.3126 86.5344 37.508 86.9135 37.7034C87.2751 38.0096 87.6368 38.3158 87.9984 38.622C87.9226 39.0099 87.8467 39.3978 87.7709 39.7856C87.9809 39.7856 88.1909 39.7856 88.4008 39.7856C88.5321 39.7098 88.6633 39.634 88.7945 39.5582C89.0891 39.5582 89.3836 39.5582 89.6782 39.5582C89.7773 39.3715 89.8765 39.1849 89.9756 38.9983C90.2119 38.8583 90.4481 38.7183 90.6843 38.5783C90.9963 38.8116 91.3084 39.0449 91.6204 39.2782C92.2824 39.2782 92.9444 39.2782 93.6064 39.2782C93.7792 39.217 93.952 39.1557 94.1248 39.0945C94.2276 39.6697 94.3304 40.245 94.4332 40.8202C94.5382 41.2511 94.6432 41.682 94.7482 42.1129C94.6191 42.3513 94.4901 42.5897 94.361 42.8281C94.4026 42.9571 94.4441 43.0862 94.4857 43.2152C94.3741 43.3049 94.2626 43.3946 94.151 43.4843C94.1999 43.9195 94.2487 44.3548 94.2976 44.79C84.041 44.86 73.7843 44.93 63.5277 45C55.9235 44.9605 48.3194 44.921 40.7152 44.8815C35.301 44.6541 29.8868 44.4268 24.4726 44.1995C16.3151 44.1944 8.15753 44.1894 0 44.1843C0.633276 43.8183 1.26654 43.4523 1.89981 43.0863C2.28325 43.0863 2.66671 43.0863 3.05015 43.0863C3.28836 42.912 3.52655 42.7377 3.76476 42.5634C4.70596 42.3368 5.64715 42.1102 6.58833 41.8836C6.82654 41.3375 7.06473 40.7914 7.30294 40.2453C8.06984 40.1058 8.83673 39.9664 9.60363 39.8269C9.71402 39.5074 9.82441 39.1879 9.9348 38.8683C9.89413 38.6592 9.85346 38.45 9.8128 38.2409C10.3241 37.9504 10.8353 37.6599 11.3466 37.3694C11.4047 36.9511 11.4628 36.5328 11.5209 36.1145C13.2987 35.15 15.0765 34.1856 16.8543 33.2212Z" fill="white"/>
<path d="M94.5375 35.9926L93.7473 34.2032L94.2586 33.1109L94.1424 32.5067L94.3748 31.9257L94.8051 29.6546L95.2426 29.0509L95.1988 28.4035L95.5225 28.3072L96.5199 26.6449L96.6336 25.9275L97.5698 25.4288L97.666 25.1489L97.9985 24.7814V24.2565L97.2898 23.994L97.7622 23.6441L98.4184 23.5478L98.4622 23.3728L98.9521 22.5001L101.341 22.393L101.078 22.7604L101.341 23.4253L102.32 23.2591L102.618 22.8217L102.872 22.3142L103.274 22.2924L102.911 22.9135L102.027 24.2609L101.682 23.7665L101.306 23.7753L100.829 24.6239L99.0199 26.5487L98.9084 28.1826L98.4162 27.8413L98.1866 28.655L98.3506 28.9568L98.7443 29.5933L98.1997 30.3807L98.2719 29.1425L98.0094 28.9568L97.7863 28.8256L97.7535 29.7508L97.0973 30.2889L96.7364 30.4267L96.5002 30.2364L96.2706 31.4437L95.4832 32.2967L95.1485 33.2416L94.8335 34.2915L94.8795 34.6458L94.7483 35.3479L94.5375 35.9926Z" fill="white"/>
<path d="M94.9187 34.4839L95.0499 34.6764L95.2512 35.245L95.4699 34.4839L95.8286 33.574L95.6711 33.1803L95.5136 33.399L95.2599 34.3352L94.9187 34.4839Z" fill="white"/>
<path d="M95.426 35.5511L95.461 35.9924L96.1609 35.1749L95.426 35.5511Z" fill="white"/>
</svg>
