<svg width="28" height="45" viewBox="0 0 28 45" fill="none" xmlns="http://www.w3.org/2000/svg">
<path d="M1.07371 3.96934V2.03485C1.07371 2.03485 0.832084 1.94862 0.780445 1.76691C0.728807 1.58569 0.710782 1.40447 0.926591 1.32701C1.14289 1.24907 1.94572 0.96408 2.04948 1.32701C2.15325 1.68945 2.33447 2.0519 2.04948 2.12984C1.76499 2.20779 1.63491 2.77776 1.6091 2.95898C1.58328 3.1402 1.37575 3.86558 1.29829 3.96983C1.22083 4.07262 1.07371 3.96934 1.07371 3.96934Z" fill="white"/>
<path d="M2.79881 1.94326C2.79881 1.94326 2.79881 1.42542 3.13543 1.21789C3.47206 1.01036 3.73122 0.570459 3.86081 0.803319C3.99039 1.03667 4.24955 1.29535 4.37865 1.19207C4.50872 1.0883 4.74207 0.699555 4.74207 0.596278C4.74207 0.493001 4.74207 0.362931 4.74207 0.362931H20.8299C20.8299 0.362931 21.7628 0.210451 23.0844 0.234809C24.4056 0.259167 25.1831 0.440388 25.5192 0.492514C25.8559 0.544153 25.5709 0 26.2967 0C27.0226 0 27.0221 0.129583 27.0221 0.129583C27.0221 0.129583 26.4521 0.595791 26.5038 0.971875C26.5559 1.34747 27.2038 1.50287 27.0221 1.94326C26.8404 2.38316 26.7113 2.97944 26.5559 3.10903C26.4005 3.23861 26.1667 3.31655 26.1667 3.62736C26.1667 3.93816 26.0634 4.50814 25.9596 4.6119C25.8559 4.71518 25.2859 5.07859 25.2859 5.28515C25.2859 5.49219 25.4934 6.42509 25.6746 6.83966C25.8559 7.25423 26.5033 8.13501 26.5033 8.34253C26.5033 8.54958 25.8042 8.96414 25.8042 9.11955C25.8042 9.27495 26.1925 9.50781 25.8812 10.0003C25.5704 10.4928 25.0267 10.5703 25.0525 10.7515C25.0789 10.9332 24.9746 11.5285 24.5863 11.7877C24.1976 12.0464 23.2135 12.021 23.084 12.2276C22.9539 12.4351 22.6173 13.3417 22.2285 13.3938C21.8402 13.4455 19.0942 13.8342 19.1716 14.8183C19.2496 15.8028 19.612 15.4662 19.5867 15.7249C19.5608 15.9845 19.2754 15.9066 19.3017 16.3212C19.3275 16.7357 19.3017 17.8752 19.4313 18.0827C19.5613 18.2898 19.4824 18.8081 19.3275 18.886C19.1721 18.9635 18.6542 19.8185 18.6542 20.1551C18.6542 20.4922 18.8613 20.6997 18.8613 20.8288C18.8613 20.9584 18.3688 21.2176 18.3688 21.2176C18.3688 21.2176 18.6279 21.3993 18.4467 21.7101C18.265 22.0209 17.695 22.073 17.695 22.3575C17.695 22.6425 17.5401 23.6012 17.5143 23.8857C17.4875 24.1712 17.1256 24.6374 17.0739 24.767C17.0218 24.897 15.8297 25.4665 15.7528 25.6736C15.6743 25.8806 15.7786 26.8398 15.7528 26.9689C15.7264 27.0985 15.3124 27.4868 15.3898 27.9535C15.4673 28.4197 14.6903 28.368 14.6903 29.1446C14.6903 29.9221 14.4827 31.839 14.4827 32.3832C14.4827 32.9268 14.5344 33.3414 14.3532 33.8076C14.1714 34.2738 13.9386 34.4292 13.9386 34.7142C13.9386 34.9992 13.7311 36.4499 13.9386 36.942C14.1456 37.4345 14.0424 37.8232 13.9128 38.1082C13.7827 38.3932 13.5498 38.4195 13.7827 38.8599C14.016 39.2998 13.8952 39.4036 13.58 39.8439C13.2644 40.2843 12.7718 40.1552 12.7718 40.544C12.7718 40.9327 12.5385 41.0881 12.5132 41.5285C12.4874 41.9689 12.2798 42.5647 12.4874 43.0309C12.6944 43.4976 13.2122 43.7826 13.4461 44.145C13.6789 44.508 13.7569 45 13.7569 45C13.7569 45 2.43539 44.8967 2.33162 44.6892C2.22786 44.4817 2.12458 44.3263 2.09828 44.1967C2.07197 44.0671 1.68371 43.9633 1.89124 43.4713C2.09828 42.9793 2.12458 42.5647 2.12458 42.5647L2.64243 29.1972C2.64243 29.1972 2.2795 28.731 2.1504 28.6272C2.02131 28.5234 1.95116 27.5136 1.83034 27.5136C1.70953 27.5136 0.880876 27.2281 0.855057 27.5394C0.829238 27.8502 0.906695 28.3943 0.648015 28.3943C0.389336 28.3943 0.000585545 28.5493 0.000585545 28.1352C0.000585545 27.7211 0.492613 26.2962 0.596377 25.959C0.700141 25.6219 1.19217 24.8712 1.19217 24.6121C1.19217 24.3529 0.596377 24.0937 0.622196 23.7571C0.648015 23.42 0.855544 22.4355 0.700141 22.151C0.544738 21.866 0.285572 21.1401 0.363517 20.7781C0.441462 20.4152 -0.025233 19.6119 0.00107336 19.3786C0.0268926 19.1452 0.596864 17.8499 0.726448 17.5132C0.856031 17.1761 0.674809 16.5287 0.674809 16.5287C0.674809 16.5287 1.99597 15.57 2.02228 15.3108C2.0481 15.0512 1.84057 14.3521 1.84057 14.0413C1.84057 13.7305 2.30678 13.0309 2.25514 12.6943C2.20301 12.3572 3.00633 12.2539 2.90306 12.0722C2.79929 11.891 2.85093 10.5698 2.77347 10.5698C2.69553 10.5698 2.15186 10.3365 2.15186 10.1294C2.15186 9.92238 2.69602 9.06742 2.69602 9.06742C2.69602 9.06742 3.44721 9.74116 3.39557 9.24864C3.34393 8.75662 2.92888 8.86038 2.79978 8.62703C2.6702 8.39369 3.00682 7.8242 2.981 7.53922C2.95518 7.25423 3.00682 6.01052 3.00682 6.01052C3.00682 6.01052 3.83596 5.07811 3.83596 4.87058C3.83596 4.66305 3.29181 4.68936 3.29181 4.53395C3.29181 4.37855 3.68056 2.7724 3.65425 2.59069C3.62794 2.40996 2.79881 1.94326 2.79881 1.94326Z" fill="white"/>
<path d="M2.06808 4.06969C2.06808 4.06969 2.26537 4.9758 2.19279 5.13169C2.1202 5.2871 1.80891 5.62421 1.70563 5.57208C1.60235 5.52044 1.60235 5.08493 1.70563 4.82381C1.8094 4.56172 2.06808 4.06969 2.06808 4.06969Z" fill="white"/>
<path d="M2.6932 3.06323C2.6932 3.06323 2.72973 3.60787 2.54315 3.58157C2.35657 3.55575 2.12323 3.21864 2.25281 3.06323C2.38239 2.90783 2.45595 2.88201 2.45595 2.88201L2.6932 3.06323Z" fill="white"/>
<path d="M2.35835 5.49219C2.35835 5.49219 2.79387 5.77717 2.69302 5.93258C2.5917 6.08798 2.5917 6.19174 2.35835 6.08798C2.125 5.98421 2.35835 5.49219 2.35835 5.49219Z" fill="white"/>
</svg>
