<svg width="42" height="45" viewBox="0 0 42 45" fill="none" xmlns="http://www.w3.org/2000/svg">
<path d="M40.6512 17.6813C40.7182 17.6258 40.7007 17.5933 40.6377 17.5448L40.6242 17.5433C40.6442 17.4718 40.6897 17.4098 40.6997 17.3353C40.7042 17.3038 40.7117 17.2723 40.6972 17.2423C40.6767 17.2003 40.6247 17.1728 40.5817 17.1623C40.5491 17.1543 40.5191 17.1688 40.4881 17.1838C40.4556 17.1993 40.4231 17.2123 40.4006 17.2393C40.3421 17.3103 40.2796 17.2688 40.2041 17.2558C40.1646 17.2488 40.0461 17.2248 40.0196 17.2518C40.0001 17.2723 39.9961 17.3188 39.9936 17.3458C39.9911 17.3738 39.9756 17.4253 39.9876 17.4513C39.9946 17.4663 40.0216 17.4813 40.0326 17.4953C40.0456 17.5123 40.0561 17.5338 40.0641 17.5538C40.0756 17.5828 40.0801 17.6148 40.0721 17.6458C40.0631 17.6803 40.0426 17.7058 40.0131 17.7243C39.9961 17.7353 39.9696 17.7523 39.9511 17.7598C39.9251 17.7698 39.9026 17.7658 39.8751 17.7703C39.8321 17.7773 39.7881 17.8088 39.7526 17.8333C39.7286 17.8498 39.6921 17.8803 39.6801 17.9073C39.6656 17.9393 39.6776 17.9723 39.6896 18.0028C39.7071 18.0473 39.7251 18.0823 39.7231 18.1308C39.7216 18.1663 39.7161 18.2038 39.7121 18.2393C39.7066 18.2828 39.6846 18.3023 39.6546 18.3338C39.6251 18.3643 39.5881 18.3808 39.5446 18.3823C39.5251 18.3828 39.5066 18.3738 39.4871 18.3758C39.4606 18.3783 39.4436 18.3958 39.4201 18.4058C39.3941 18.4173 39.3531 18.4238 39.3391 18.4548C39.3216 18.4923 39.3681 18.5253 39.3816 18.5563C39.3961 18.5883 39.3986 18.6328 39.3971 18.6673C39.3946 18.7128 39.3951 18.7388 39.3481 18.7543C39.3261 18.7618 39.2981 18.7673 39.2746 18.7703C39.2596 18.7718 39.2216 18.7798 39.2081 18.7778C39.1656 18.7708 39.1636 18.7143 39.1516 18.6788C39.1366 18.6353 39.1231 18.6048 39.0836 18.5803C39.0461 18.5568 38.9841 18.5368 38.9471 18.5718C38.8781 18.6373 38.9586 18.7383 38.9616 18.8118C38.9631 18.8463 38.9526 18.8848 38.9496 18.9193C38.9481 18.9358 38.9496 18.9558 38.9431 18.9718C38.9301 19.0013 38.8976 19.0173 38.8761 19.0388C38.8401 19.0743 38.8231 19.0938 38.8186 19.1433C38.8151 19.1813 38.8106 19.2188 38.8066 19.2568C38.7976 19.3453 38.7881 19.4333 38.7791 19.5218L38.7346 19.5578C38.6931 19.5578 38.6366 19.5998 38.6061 19.6253C38.5546 19.6683 38.4941 19.7118 38.4346 19.7433C38.3881 19.7683 38.3296 19.7953 38.3046 19.8448C38.2826 19.8879 38.2871 19.9539 38.2821 20.0019C38.2766 20.0529 38.2756 20.0989 38.2411 20.1404C38.2051 20.1844 38.1441 20.2214 38.0941 20.2469C38.0716 20.2584 38.0391 20.2639 38.0211 20.2824C38.0026 20.3014 38.0041 20.3274 38.0021 20.3524C37.9986 20.3914 38.0021 20.4464 37.9896 20.4834C37.9806 20.5094 37.9586 20.5129 37.9421 20.5319C37.9226 20.5549 37.9241 20.5799 37.9216 20.6089C37.9166 20.6644 37.9091 20.7149 37.9156 20.7699C37.9201 20.8089 37.9166 20.8869 37.9041 20.9254C37.8951 20.9529 37.8671 20.9619 37.8511 20.9844C37.8336 21.0094 37.8356 21.0244 37.8476 21.0519C37.8721 21.1064 37.9181 21.1454 37.9421 21.2009C37.9531 21.2259 37.9616 21.2529 37.9611 21.2804C37.9611 21.2904 37.9541 21.3099 37.9556 21.3214C37.9576 21.3374 37.9646 21.3484 37.9661 21.3649C37.9696 21.4084 37.9486 21.4529 37.9551 21.4964C37.9631 21.5519 37.9836 21.5839 38.0271 21.6189C38.0926 21.6719 38.1276 21.7159 38.1406 21.7994C38.1516 21.8699 38.1706 21.9389 38.1941 22.0064C38.2041 22.0344 38.2136 22.0684 38.2371 22.0874C38.2541 22.1009 38.2886 22.1174 38.3096 22.1264C38.3376 22.1379 38.3691 22.1474 38.3986 22.1524C38.4291 22.1574 38.4596 22.1779 38.4911 22.1754L38.5166 22.1914C38.5246 22.1569 38.5436 22.1209 38.5551 22.0869C38.5641 22.0594 38.5656 22.0194 38.5801 21.9939C38.6036 21.9514 38.6526 22.0024 38.6846 22.0059C38.7291 22.0114 38.7406 21.9784 38.7461 21.9404C38.7576 21.8664 38.7586 21.7904 38.7686 21.7159C38.7731 21.6814 38.7881 21.6294 38.8146 21.6064C38.8516 21.5744 38.9026 21.5494 38.9421 21.5199C38.9806 21.4909 39.0101 21.4569 39.0436 21.4219C39.0796 21.3844 39.0756 21.3619 39.0811 21.3109C39.0846 21.2819 39.0811 21.2884 39.0976 21.2724C39.1136 21.2569 39.1341 21.2614 39.1451 21.2374C39.1586 21.2069 39.1531 21.1414 39.1571 21.1069C39.1621 21.0569 39.1626 21.0074 39.1886 20.9634C39.1961 20.9504 39.2121 20.9214 39.2241 20.9119C39.2486 20.8924 39.2621 20.9014 39.2901 20.9039C39.3371 20.9074 39.3306 20.8799 39.3341 20.8404C39.3381 20.7999 39.3426 20.7599 39.3466 20.7194L39.3346 20.7044C39.3671 20.6919 39.3746 20.6889 39.3811 20.6554C39.3851 20.6334 39.3851 20.6099 39.3876 20.5879C39.3921 20.5419 39.3976 20.4959 39.4021 20.4499C39.4116 20.3524 39.4836 20.2764 39.5486 20.2084C39.5836 20.1719 39.6456 20.1284 39.6581 20.0769C39.6696 20.0309 39.6676 19.9749 39.6726 19.9279C39.6816 19.8424 39.6861 19.7558 39.6986 19.6713C39.7046 19.6298 39.7261 19.5933 39.7416 19.5543C39.7561 19.5168 39.7696 19.4583 39.8271 19.4828C39.8701 19.5013 39.8761 19.5623 39.9266 19.5738C39.9776 19.5853 39.9891 19.5338 39.9861 19.4948C39.9821 19.4433 39.9611 19.3983 39.9636 19.3468C39.9646 19.3308 39.9596 19.3048 39.9741 19.2943C39.9911 19.2823 40.0221 19.2988 40.0321 19.3113C40.0411 19.3228 40.0381 19.3513 40.0576 19.3553C40.0866 19.3608 40.0826 19.3263 40.0896 19.3108C40.0996 19.2883 40.0921 19.2828 40.1226 19.2798C40.1506 19.2768 40.1751 19.3023 40.1896 19.2608C40.1941 19.2418 40.2086 19.2263 40.2156 19.2083C40.2256 19.1833 40.2271 19.1593 40.2296 19.1328C40.2346 19.0823 40.2511 19.0343 40.2171 18.9918C40.1896 18.9573 40.1511 18.9378 40.1156 18.9143C40.0721 18.8848 40.0776 18.8383 40.0881 18.7893C40.0911 18.7748 40.0981 18.7373 40.1156 18.7318C40.1426 18.7238 40.1566 18.7653 40.1711 18.7818C40.1931 18.8073 40.2686 18.8393 40.3031 18.8233C40.3256 18.8128 40.3196 18.7778 40.3221 18.7583C40.3261 18.7288 40.3331 18.7273 40.3546 18.7118C40.4161 18.6678 40.3541 18.6378 40.3116 18.6058C40.2766 18.5798 40.2396 18.5388 40.2411 18.4933C40.2431 18.4263 40.3056 18.4298 40.3326 18.3813C40.3626 18.3283 40.2996 18.2738 40.2811 18.2298C40.2621 18.1838 40.2651 18.1288 40.2706 18.0798C40.2736 18.0513 40.2751 18.0228 40.2791 17.9948C40.2826 17.9698 40.2946 17.9533 40.3006 17.9303C40.3071 17.9058 40.2956 17.8808 40.3186 17.8628C40.3386 17.8468 40.3731 17.8498 40.3886 17.8698C40.4026 17.8883 40.3956 17.9123 40.4016 17.9333C40.4086 17.9583 40.4261 17.9788 40.4416 17.9988C40.4796 18.0468 40.5106 18.0733 40.5721 18.0798C40.6351 18.0863 40.6681 18.0633 40.6847 17.9983C40.7037 17.9238 40.6516 17.8853 40.6216 17.8238C40.5906 17.7618 40.5992 17.7238 40.6512 17.6813Z" fill="white"/>
<path d="M38.001 18.4313C37.9985 18.4538 37.9945 18.4773 37.9935 18.5003C37.9925 18.5258 37.997 18.5553 38.007 18.5788C38.0205 18.6103 38.0435 18.6298 38.067 18.6533C38.091 18.6768 38.1115 18.6958 38.145 18.7003C38.1745 18.7043 38.204 18.7063 38.2335 18.7093L38.246 18.6818C38.203 18.6408 38.194 18.5563 38.206 18.5013C38.21 18.4838 38.2155 18.4793 38.2295 18.4693C38.248 18.4563 38.25 18.4558 38.253 18.4303C38.255 18.4123 38.264 18.3803 38.259 18.3638C38.253 18.3453 38.2295 18.3438 38.2255 18.3218C38.223 18.3083 38.229 18.2883 38.2305 18.2748C38.2335 18.2453 38.2475 18.2028 38.232 18.1748C38.2155 18.1453 38.177 18.1533 38.147 18.1498C38.125 18.1468 38.113 18.1418 38.0965 18.1603C38.0825 18.1758 38.0865 18.1968 38.078 18.2143C38.0585 18.2548 38.016 18.2398 37.991 18.2683C37.968 18.2948 37.971 18.3293 37.99 18.3563C38.009 18.3833 38.0045 18.3968 38.001 18.4313Z" fill="white"/>
<path d="M41.5306 16.4072C41.5211 16.3972 41.5111 16.3902 41.4986 16.3847C41.4756 16.3752 41.4521 16.3627 41.4286 16.3562C41.4141 16.3522 41.4081 16.3552 41.3996 16.3407C41.3956 16.3337 41.3906 16.3217 41.3896 16.3137C41.3871 16.2957 41.3931 16.2737 41.3951 16.2557C41.3971 16.2372 41.3996 16.2182 41.4011 16.1997C41.4026 16.1792 41.3851 16.1567 41.3651 16.1497C41.3026 16.1282 41.2976 16.2167 41.2436 16.2127C41.2241 16.2112 41.1906 16.2002 41.1721 16.2127C41.1641 16.2182 41.1631 16.2302 41.1581 16.2382C41.1526 16.2472 41.1446 16.2532 41.1371 16.2602C41.1031 16.2917 41.0651 16.3292 41.0151 16.3262C40.9916 16.3247 40.9696 16.3257 40.9781 16.2962C40.9806 16.2882 40.9856 16.2827 40.9876 16.2752C40.9901 16.2662 40.9891 16.2542 40.9901 16.2452C40.9921 16.2252 40.9901 16.2122 40.9786 16.1952C40.9686 16.1807 40.9496 16.1582 40.9306 16.1592L40.8951 16.1692C40.8681 16.1902 40.8651 16.2292 40.8566 16.2597C40.8471 16.2922 40.8376 16.3247 40.8286 16.3577C40.8186 16.3927 40.8136 16.4257 40.8101 16.4617C40.8066 16.4957 40.8016 16.5302 40.8081 16.5647C40.8126 16.5902 40.8306 16.6142 40.8521 16.6287C40.8641 16.6367 40.8816 16.6382 40.8901 16.6517C40.9026 16.6712 40.8841 16.6727 40.8696 16.6837C40.8571 16.6932 40.8461 16.7057 40.8346 16.7167C40.8206 16.7297 40.8046 16.7398 40.7906 16.7528C40.7736 16.7688 40.7696 16.8023 40.7821 16.8233C40.7991 16.8523 40.8501 16.8418 40.8771 16.8333C40.9021 16.8253 40.9296 16.8058 40.9511 16.7908C40.9751 16.7743 40.9971 16.7487 41.0276 16.7477C41.0501 16.7467 41.0736 16.7522 41.0956 16.7547C41.1226 16.7573 41.1456 16.7683 41.1686 16.7828C41.1971 16.8008 41.2111 16.8258 41.2346 16.8483C41.2696 16.8823 41.3256 16.8823 41.3711 16.8863C41.4176 16.8903 41.4431 16.8593 41.4396 16.8143C41.4371 16.7818 41.4111 16.7658 41.3956 16.7402C41.3836 16.7202 41.3901 16.6977 41.3926 16.6757C41.3956 16.6442 41.3991 16.6162 41.4101 16.5862C41.4226 16.5512 41.4421 16.5397 41.4761 16.5287C41.4981 16.5212 41.5291 16.5072 41.5431 16.4882C41.5516 16.4762 41.5586 16.4522 41.5556 16.4377C41.5536 16.4262 41.5376 16.4142 41.5306 16.4072Z" fill="white"/>
<path d="M15.2475 2.54889C15.266 2.54239 15.2825 2.53139 15.3015 2.52689C15.3175 2.52289 15.3295 2.51839 15.345 2.51239C15.378 2.49939 15.412 2.48739 15.4455 2.47389C15.4795 2.45989 15.521 2.44239 15.55 2.42039C15.568 2.40689 15.5885 2.40039 15.607 2.38739C15.6185 2.37939 15.627 2.36839 15.6395 2.36139C15.661 2.34989 15.684 2.34339 15.7015 2.32488C15.718 2.30738 15.7235 2.28788 15.7255 2.26488C15.728 2.23688 15.7295 2.19488 15.7075 2.17338C15.6845 2.15088 15.6455 2.15188 15.616 2.14888C15.58 2.14538 15.551 2.14588 15.516 2.15288C15.483 2.15988 15.452 2.19488 15.434 2.22188C15.4185 2.24488 15.3975 2.26288 15.3805 2.28588C15.3725 2.29738 15.3645 2.30638 15.3575 2.31839C15.3535 2.32589 15.3535 2.33139 15.347 2.33889C15.339 2.34839 15.324 2.35639 15.3145 2.36439C15.288 2.38639 15.2595 2.40489 15.227 2.41689C15.2045 2.42539 15.1835 2.43589 15.1615 2.44539C15.145 2.45239 15.1275 2.45439 15.1105 2.45939C15.0795 2.46839 15.048 2.47639 15.0175 2.48589C14.9485 2.50839 14.9115 2.57989 14.8655 2.63039C14.8464 2.65139 14.827 2.67089 14.8084 2.69289C14.7964 2.7064 14.7859 2.7209 14.7744 2.7349C14.7639 2.7474 14.7519 2.7594 14.7424 2.7729C14.7314 2.7884 14.7244 2.8059 14.7104 2.8189C14.7004 2.8284 14.6879 2.8344 14.6789 2.8449C14.6729 2.8519 14.6689 2.8614 14.6629 2.8684C14.6524 2.8804 14.6379 2.8909 14.6249 2.9004C14.5969 2.9219 14.5589 2.9474 14.5254 2.9604C14.4919 2.9739 14.4559 2.9829 14.4234 2.9984C14.3919 3.0134 14.3664 3.0129 14.3329 3.0099L14.2954 3.0339C14.2934 3.0549 14.2914 3.0754 14.2889 3.09641C14.2864 3.11791 14.2889 3.13791 14.2894 3.15941C14.2894 3.17941 14.2934 3.19741 14.3004 3.21591C14.3069 3.23241 14.3194 3.26391 14.3329 3.27641C14.3579 3.29941 14.4004 3.30291 14.4324 3.30691C14.4619 3.31041 14.4999 3.30191 14.5214 3.27991C14.5399 3.26141 14.5569 3.24391 14.5714 3.22291C14.5814 3.20841 14.5939 3.19341 14.6054 3.17991C14.6179 3.16591 14.6309 3.15191 14.6414 3.13591C14.6549 3.11491 14.6719 3.10441 14.6889 3.08641C14.7139 3.0594 14.7389 3.0439 14.7774 3.0414C14.8044 3.0394 14.8365 3.0479 14.864 3.0509C14.8905 3.0534 14.9165 3.0564 14.943 3.0589C14.9615 3.0609 14.98 3.0639 14.9985 3.0649C15.014 3.0659 15.0265 3.0609 15.0415 3.0584C15.108 3.0469 15.1695 3.0319 15.218 2.9804C15.2425 2.9544 15.275 2.9234 15.27 2.8839C15.2685 2.8699 15.26 2.8644 15.2515 2.8534C15.241 2.8389 15.237 2.8259 15.222 2.8144C15.186 2.7859 15.1055 2.7624 15.1205 2.7059C15.138 2.64089 15.1825 2.57239 15.2475 2.54889Z" fill="white"/>
<path d="M16.6214 0.294822C16.6199 0.310322 16.6184 0.326323 16.6164 0.341823C16.6149 0.356323 16.6189 0.366324 16.6199 0.380324C16.6229 0.418325 16.6054 0.457826 16.6089 0.496327C16.6114 0.520328 16.6084 0.539828 16.6069 0.563829C16.6054 0.589829 16.6089 0.61533 16.6064 0.641331C16.6034 0.669332 16.6004 0.697832 16.5979 0.725833C16.5964 0.739834 16.5949 0.753834 16.5934 0.767334C16.5914 0.786835 16.5919 0.797835 16.5984 0.816335C16.6029 0.830336 16.5984 0.848336 16.6059 0.861837C16.6169 0.881837 16.6314 0.871837 16.6389 0.854337C16.6474 0.834336 16.6409 0.828836 16.6649 0.830336C16.6819 0.831336 16.7019 0.837836 16.7189 0.835836C16.804 0.826336 16.8665 0.748334 16.906 0.679832C16.9145 0.664832 16.921 0.648831 16.9305 0.634331C16.943 0.61533 16.946 0.60433 16.948 0.581829C16.9495 0.564829 16.9555 0.544828 16.951 0.528328C16.9455 0.509827 16.9345 0.486327 16.925 0.469326C16.907 0.436826 16.91 0.409825 16.914 0.373824C16.917 0.344823 16.9165 0.312322 16.9265 0.285322C16.9335 0.266321 16.946 0.253321 16.9565 0.23682C16.967 0.22032 16.9745 0.202319 16.9845 0.185319C17.004 0.151318 17.0195 0.108317 17.0225 0.0693158C17.024 0.0478152 17.0225 0.0358148 17.007 0.0203144C16.99 0.00331399 16.9755 0.00331397 16.953 0.000813907C16.9145 -0.0031862 16.8815 0.00831423 16.8445 0.0188145C16.8195 0.0258147 16.7965 0.0403149 16.773 0.0503152C16.7499 0.0603155 16.7289 0.0688159 16.7109 0.0873164C16.6924 0.106317 16.6744 0.126317 16.6579 0.146818C16.6479 0.159318 16.6189 0.181819 16.6179 0.196819L16.6324 0.191319C16.6284 0.22582 16.6249 0.260321 16.6214 0.294822Z" fill="white"/>
<path d="M16.2704 2.20289L16.3004 2.18488C16.3264 2.17338 16.3564 2.16188 16.3794 2.14588C16.3919 2.13738 16.4054 2.13038 16.4174 2.12138C16.4309 2.11188 16.4394 2.11038 16.4539 2.10338C16.4754 2.09288 16.4999 2.07038 16.5129 2.05038C16.5269 2.02938 16.5434 2.01038 16.5534 1.98738C16.5649 1.96038 16.5749 1.93138 16.5894 1.90538C16.5994 1.88738 16.6099 1.87038 16.6149 1.85038C16.6174 1.84088 16.6179 1.82487 16.6139 1.81587C16.6074 1.80087 16.6009 1.80237 16.5849 1.80087C16.5569 1.79887 16.5424 1.79637 16.5154 1.80837C16.4714 1.82787 16.4369 1.86138 16.4019 1.89288C16.3789 1.91388 16.3554 1.93438 16.3324 1.95538C16.3109 1.97488 16.2939 1.99788 16.2754 2.01988C16.2614 2.03688 16.2419 2.04538 16.2304 2.06538C16.2174 2.08788 16.2034 2.10488 16.2004 2.13138C16.1984 2.14988 16.1909 2.17488 16.2079 2.18788C16.2249 2.20139 16.2499 2.20038 16.2704 2.20289Z" fill="white"/>
<path d="M15.3925 1.70036C15.3775 1.71586 15.3615 1.72836 15.346 1.74286C15.329 1.75837 15.3155 1.77837 15.2985 1.79437L15.3225 1.83187C15.3185 1.86587 15.3635 1.86587 15.3825 1.85237C15.3995 1.84037 15.413 1.82137 15.43 1.80787C15.462 1.78187 15.5035 1.72936 15.549 1.74386C15.5665 1.74936 15.588 1.76236 15.596 1.77787C15.604 1.79237 15.605 1.81587 15.616 1.82837C15.6305 1.84437 15.668 1.82487 15.681 1.81237C15.7045 1.79087 15.712 1.76887 15.723 1.74086C15.731 1.72036 15.736 1.71436 15.761 1.71636C15.773 1.71736 15.779 1.71786 15.788 1.72586C15.7995 1.73686 15.803 1.75636 15.804 1.77187C15.805 1.78837 15.804 1.79987 15.813 1.81487C15.8245 1.83487 15.848 1.83087 15.8695 1.83287C15.989 1.84337 15.962 1.69286 15.982 1.61986C15.9875 1.59986 15.9905 1.57536 16.0025 1.55786C16.014 1.54036 16.029 1.53536 16.049 1.52986C16.0715 1.52336 16.093 1.52036 16.099 1.49436C16.102 1.48036 16.1015 1.46886 16.096 1.45586C16.0785 1.41386 16.0195 1.38886 16.085 1.35785C16.1165 1.34285 16.1645 1.32985 16.1625 1.28585C16.16 1.23685 16.114 1.25335 16.082 1.25335C16.0655 1.25335 16.0495 1.24685 16.033 1.24935C16.015 1.25235 15.994 1.25285 15.976 1.25735C15.9385 1.26635 15.8985 1.29385 15.867 1.31435C15.8415 1.33135 15.8155 1.34985 15.791 1.36835C15.7735 1.38136 15.755 1.38986 15.7365 1.40136C15.714 1.41486 15.698 1.43586 15.6765 1.45086C15.6515 1.46836 15.6235 1.48336 15.601 1.50386C15.5635 1.53786 15.52 1.56486 15.4855 1.60286C15.455 1.63636 15.4235 1.66836 15.3925 1.70036Z" fill="white"/>
<path d="M13.1994 1.14535L13.2214 1.16585C13.2744 1.17135 13.3269 1.17735 13.3794 1.16585C13.4004 1.16135 13.4304 1.14935 13.4474 1.13535C13.4584 1.12585 13.4659 1.11235 13.4759 1.10185C13.4864 1.09135 13.4959 1.08485 13.5004 1.07035C13.5079 1.04735 13.5064 1.02135 13.5044 0.997847C13.5024 0.977347 13.5144 0.961346 13.5329 0.952846C13.5449 0.947346 13.5559 0.949346 13.5624 0.935345C13.5664 0.927345 13.5654 0.915845 13.5664 0.906845C13.5689 0.883344 13.5584 0.870844 13.5344 0.867344C13.5114 0.863844 13.4904 0.868844 13.4679 0.874344C13.4569 0.876844 13.4399 0.878844 13.4314 0.886844C13.4239 0.893845 13.4214 0.911345 13.4164 0.920845C13.4039 0.943846 13.3839 0.963846 13.3559 0.964346C13.3369 0.964846 13.3159 0.959846 13.2964 0.957846C13.2774 0.955846 13.2589 0.956346 13.2414 0.965346C13.2234 0.974347 13.1984 0.993847 13.1939 1.01335C13.1889 1.03485 13.1879 1.06135 13.1869 1.08335C13.1869 1.10435 13.2024 1.12435 13.1994 1.14535Z" fill="white"/>
<path d="M14.6165 2.57989C14.6215 2.53189 14.625 2.48489 14.6545 2.44389C14.6625 2.43239 14.674 2.42289 14.6835 2.41289C14.692 2.40339 14.709 2.39089 14.715 2.37989C14.7225 2.36439 14.7205 2.33739 14.722 2.32038C14.7245 2.29388 14.722 2.27238 14.719 2.24638C14.718 2.23638 14.715 2.22738 14.714 2.21788C14.713 2.20988 14.716 2.20188 14.7155 2.19338C14.714 2.17388 14.7135 2.15388 14.711 2.13388C14.709 2.11688 14.7095 2.08538 14.685 2.08788C14.67 2.08938 14.6735 2.09838 14.6695 2.11038C14.666 2.12138 14.659 2.12988 14.654 2.14038C14.645 2.15838 14.6455 2.17888 14.6435 2.19838C14.641 2.22338 14.6385 2.24888 14.6355 2.27388C14.6335 2.29438 14.6355 2.31738 14.6175 2.33039C14.6075 2.33739 14.595 2.34039 14.5855 2.34789C14.5735 2.35739 14.571 2.36889 14.564 2.38189C14.5525 2.40489 14.553 2.43039 14.5505 2.45539C14.548 2.48039 14.545 2.50189 14.5505 2.52689C14.5565 2.55439 14.572 2.56989 14.5905 2.58939L14.6165 2.57989Z" fill="white"/>
<path d="M14.5934 1.48784C14.5964 1.50034 14.5994 1.51584 14.5989 1.52834C14.5984 1.55784 14.5874 1.58934 14.5889 1.61884C14.5894 1.63234 14.5959 1.64485 14.5984 1.65835C14.6019 1.67635 14.6134 1.68835 14.6229 1.70335C14.6404 1.73135 14.6659 1.75485 14.6869 1.78085L14.7089 1.80135C14.7289 1.80335 14.7484 1.80535 14.7684 1.80735C14.7944 1.80985 14.8179 1.80685 14.8439 1.80935C14.8574 1.81085 14.8684 1.80735 14.8819 1.80685C14.8924 1.80685 14.9029 1.81035 14.9134 1.81035C14.9354 1.81085 14.9594 1.81035 14.9754 1.79285C14.9924 1.77435 14.9919 1.74685 14.9944 1.72335C14.9969 1.70035 15.0029 1.67485 15.0004 1.65185C14.9979 1.62934 14.9849 1.60934 14.9649 1.59884C14.9379 1.58484 14.9059 1.56234 14.8849 1.53984C14.8634 1.51634 14.8524 1.48634 14.8539 1.45484C14.8549 1.43534 14.8549 1.39634 14.8409 1.38084C14.8254 1.36334 14.7959 1.37634 14.7774 1.37934C14.7604 1.38184 14.7159 1.38034 14.7064 1.36684C14.6959 1.35284 14.7019 1.33534 14.6879 1.32284C14.6749 1.31134 14.6549 1.30234 14.6384 1.29984C14.6084 1.29534 14.5809 1.30684 14.5574 1.32484C14.5384 1.33934 14.5304 1.34884 14.5329 1.37284C14.5354 1.40084 14.5539 1.42734 14.5719 1.44784C14.5829 1.46234 14.5889 1.46834 14.5934 1.48784Z" fill="white"/>
<path d="M14.4924 0.785846C14.5079 0.793346 14.5429 0.820347 14.5589 0.804847L14.5709 0.805847C14.5759 0.758346 14.5809 0.710344 14.5859 0.662843C14.5879 0.645843 14.5949 0.613842 14.5834 0.599841C14.5769 0.592341 14.5549 0.592841 14.5454 0.592341C14.5314 0.591841 14.5159 0.594841 14.5019 0.595341C14.4904 0.595841 14.4714 0.595341 14.4629 0.604342C14.4549 0.613342 14.4569 0.631842 14.4559 0.643343C14.4534 0.669343 14.4504 0.694844 14.4479 0.720845C14.4444 0.752845 14.4664 0.772846 14.4924 0.785846Z" fill="white"/>
<path d="M15.1764 1.35586L15.2104 1.37736C15.2309 1.38336 15.2609 1.37136 15.2789 1.36186C15.2969 1.35236 15.3149 1.34236 15.3329 1.33286C15.3644 1.31586 15.4044 1.28786 15.4249 1.25785C15.4344 1.24385 15.4424 1.23335 15.4444 1.21635C15.4459 1.20235 15.4514 1.18235 15.4499 1.16835C15.4464 1.13685 15.3829 1.13385 15.3569 1.13335C15.3189 1.13185 15.2804 1.15135 15.2489 1.17085C15.2184 1.18935 15.1894 1.20885 15.1589 1.22785C15.1409 1.23885 15.1279 1.25135 15.1129 1.26536C15.1019 1.27586 15.0869 1.27986 15.0934 1.29986C15.0979 1.31286 15.1184 1.33236 15.1304 1.33836C15.1419 1.34436 15.1679 1.34236 15.1764 1.35586Z" fill="white"/>
<path d="M15.473 0.874827C15.518 0.879327 15.553 0.881327 15.5905 0.850826C15.603 0.840326 15.6085 0.825325 15.613 0.809825C15.618 0.790824 15.602 0.770824 15.5875 0.760324C15.575 0.750823 15.557 0.742823 15.5425 0.736323C15.5265 0.729323 15.493 0.720323 15.4755 0.726823C15.435 0.742323 15.4395 0.818825 15.465 0.843826L15.473 0.874827Z" fill="white"/>
<path d="M14.9914 0.597323C15.0019 0.610823 15.0079 0.630324 15.0214 0.641824C15.0329 0.651824 15.0484 0.650324 15.0629 0.651824L15.0799 0.659825C15.0789 0.644324 15.0934 0.633324 15.0964 0.619323C15.0989 0.608323 15.1004 0.590823 15.0969 0.580823C15.0909 0.565322 15.0804 0.557322 15.0799 0.539321C15.0794 0.523321 15.0824 0.511821 15.0934 0.50132C15.1209 0.47482 15.1494 0.442319 15.1549 0.402318C15.1579 0.382817 15.1504 0.378317 15.1324 0.375817C15.1154 0.373317 15.0924 0.368817 15.0759 0.373317C15.0564 0.378817 15.0404 0.393318 15.0219 0.400818C15.0049 0.408318 14.9889 0.413318 14.9749 0.425818C14.9474 0.450319 14.9429 0.47832 14.9514 0.513821C14.9554 0.529821 14.9654 0.542321 14.9694 0.558322C14.9744 0.576822 14.9804 0.583323 14.9914 0.597323Z" fill="white"/>
<path d="M38.349 22.3289C38.3245 22.3174 38.303 22.3144 38.282 22.2959C38.1855 22.2114 38.0925 22.1139 38.0115 22.0154C37.9905 21.9899 37.9615 21.9824 37.94 21.9539C37.924 21.9329 37.9135 21.9084 37.896 21.8884C37.8515 21.8384 37.806 21.7884 37.771 21.7289C37.7545 21.7009 37.7465 21.6729 37.735 21.6434C37.727 21.6224 37.71 21.6089 37.7005 21.5894C37.6885 21.5649 37.682 21.5464 37.667 21.5224C37.659 21.5099 37.64 21.4799 37.6415 21.4654L37.6425 21.4534C37.615 21.4194 37.614 21.3759 37.6065 21.3354C37.5995 21.2984 37.6105 21.2544 37.582 21.2244C37.5565 21.2274 37.5385 21.2724 37.521 21.2894C37.4975 21.3119 37.483 21.3244 37.469 21.3544C37.447 21.4019 37.4145 21.4549 37.382 21.4964C37.3665 21.5164 37.3495 21.5474 37.331 21.5639C37.303 21.5884 37.2865 21.5709 37.2655 21.5524C37.23 21.5214 37.1875 21.4904 37.137 21.5019C37.0955 21.5114 37.054 21.5589 37.0215 21.5869C36.9815 21.6214 36.9545 21.6689 36.92 21.7084C36.887 21.7459 36.851 21.7839 36.8225 21.8254C36.793 21.8674 36.764 21.9129 36.726 21.9484C36.704 21.9689 36.6395 22.0029 36.618 21.9624C36.602 21.9319 36.6335 21.8854 36.6395 21.8574C36.647 21.8224 36.646 21.7834 36.65 21.7474C36.6515 21.7364 36.6605 21.7109 36.6505 21.7014C36.635 21.6869 36.597 21.6964 36.582 21.7034C36.542 21.7224 36.491 21.7684 36.47 21.8064C36.4505 21.8419 36.445 21.8844 36.429 21.9219C36.414 21.9579 36.385 21.9894 36.3575 22.0179C36.3295 22.0469 36.314 22.0699 36.301 22.1089C36.288 22.1474 36.2815 22.1874 36.2665 22.2239C36.258 22.2449 36.2575 22.2684 36.2455 22.2879C36.235 22.3049 36.2185 22.3189 36.2065 22.3359C36.1755 22.3799 36.1385 22.4204 36.098 22.4564C36.081 22.4719 36.0635 22.4909 36.049 22.5084C36.0355 22.5244 36.03 22.5449 36.0125 22.5589L35.985 22.5924C35.894 22.6649 35.827 22.7634 35.74 22.8404C35.6975 22.8784 35.647 22.9009 35.6025 22.9349C35.5655 22.9634 35.57 22.9984 35.5655 23.0414C35.561 23.0844 35.5565 23.1269 35.552 23.1699C35.5485 23.2089 35.532 23.2394 35.529 23.2784C35.526 23.3144 35.513 23.3654 35.4905 23.3954C35.4725 23.4199 35.4395 23.4374 35.416 23.4569C35.4 23.4704 35.387 23.4869 35.371 23.4999C35.3035 23.5534 35.235 23.6114 35.165 23.6614C35.1175 23.6954 35.0695 23.7189 35.025 23.7584C34.989 23.7904 34.956 23.8239 34.919 23.8549C34.8785 23.8889 34.8435 23.9309 34.8 23.9609C34.756 23.9909 34.7064 24.0159 34.6694 24.0549C34.6499 24.0754 34.6384 24.0939 34.6164 24.1124C34.5869 24.1374 34.5529 24.1649 34.5309 24.1969C34.5154 24.2199 34.5034 24.2439 34.4854 24.2654C34.4714 24.2819 34.4514 24.2979 34.4469 24.3209L34.4574 24.3339C34.4779 24.3589 34.5004 24.3904 34.5064 24.4229C34.5109 24.4484 34.5024 24.48 34.4999 24.506C34.4964 24.538 34.4919 24.562 34.4819 24.5915C34.4699 24.6265 34.4799 24.649 34.4529 24.676C34.4219 24.707 34.4039 24.7415 34.3654 24.7635C34.3329 24.782 34.3079 24.8075 34.2779 24.83C34.2444 24.8545 34.2074 24.8715 34.1694 24.8875C34.1359 24.9015 34.0989 24.9295 34.0609 24.9185L34.0479 24.929C34.0269 24.9295 34.0074 24.942 33.9864 24.9445C33.9619 24.947 33.9364 24.942 33.9119 24.939C33.8854 24.936 33.8574 24.936 33.8314 24.929C33.8044 24.922 33.8049 24.916 33.7934 24.941C33.7649 25.002 33.7579 25.069 33.7324 25.1305C33.7159 25.17 33.6954 25.2025 33.6699 25.236C33.6474 25.2655 33.6154 25.292 33.5899 25.321C33.5669 25.3475 33.5534 25.362 33.5394 25.394C33.5319 25.4105 33.5204 25.425 33.5109 25.44C33.4904 25.4735 33.4799 25.5115 33.4679 25.547C33.4619 25.5645 33.4649 25.583 33.4584 25.601C33.4529 25.617 33.4464 25.626 33.4444 25.644C33.4399 25.6825 33.4294 25.7115 33.4159 25.7475C33.3999 25.79 33.3894 25.836 33.3724 25.878C33.3594 25.911 33.3354 25.9385 33.3144 25.9675C33.2994 25.9875 33.2909 26.009 33.2729 26.0265C33.2589 26.04 33.2454 26.052 33.2324 26.067C33.2074 26.096 33.1779 26.12 33.1519 26.1485C33.1329 26.1695 33.1224 26.1905 33.1089 26.214C33.1024 26.226 33.0899 26.2345 33.0834 26.246C33.0754 26.261 33.0809 26.2785 33.0769 26.2945C33.0734 26.309 33.0634 26.324 33.0569 26.337C33.0389 26.3725 33.0309 26.4075 33.0159 26.444C33.0004 26.482 32.9794 26.5135 32.9564 26.547C32.9189 26.601 32.8944 26.6665 32.8869 26.7315L32.8604 26.753C32.8579 26.77 32.8429 26.776 32.8329 26.788C32.8219 26.8005 32.8159 26.8155 32.8074 26.8295C32.7909 26.8555 32.7684 26.87 32.7459 26.8915C32.6904 26.9435 32.6259 26.9915 32.5649 27.0375C32.4739 27.1065 32.3764 27.1725 32.2609 27.1865C32.2044 27.1935 32.1514 27.174 32.0984 27.1975C32.0389 27.2245 31.9759 27.2785 31.9304 27.324C31.9094 27.345 31.8944 27.3685 31.8679 27.383C31.8354 27.4005 31.8094 27.41 31.7809 27.434C31.7514 27.459 31.7289 27.4735 31.6919 27.4855C31.6669 27.4935 31.6449 27.508 31.6174 27.5015L31.6054 27.5005C31.5839 27.4955 31.5694 27.502 31.5484 27.504C31.5204 27.5065 31.4919 27.501 31.4639 27.498C31.4039 27.491 31.3564 27.4955 31.3119 27.5395C31.2954 27.556 31.2779 27.5695 31.2599 27.5845C31.2389 27.602 31.2314 27.6205 31.2154 27.641C31.1989 27.6615 31.1734 27.6735 31.1554 27.6935C31.1304 27.721 31.1129 27.748 31.0834 27.772C31.0659 27.7865 31.0494 27.8015 31.0324 27.8165C31.0074 27.8385 30.9804 27.8475 30.9534 27.8655C30.9174 27.89 30.8974 27.9185 30.8524 27.9245C30.8048 27.931 30.7553 27.9205 30.7073 27.926C30.6558 27.932 30.6298 27.9735 30.6078 28.016C30.5998 28.0315 30.5968 28.049 30.5888 28.065C30.5783 28.086 30.5623 28.1035 30.5513 28.1245C30.5243 28.1765 30.5458 28.1965 30.5798 28.2355C30.5993 28.258 30.6048 28.2655 30.6323 28.2776C30.6523 28.2861 30.6738 28.2901 30.6938 28.2986C30.7283 28.3131 30.7633 28.3151 30.8013 28.3186C30.8883 28.3276 30.9764 28.3406 31.0624 28.3341C31.0789 28.3326 31.0934 28.3271 31.1104 28.3266C31.1339 28.3251 31.1569 28.323 31.1804 28.3215C31.2259 28.319 31.2694 28.3191 31.3154 28.3241L31.3284 28.3136C31.3744 28.3186 31.4034 28.3161 31.4319 28.3571C31.4469 28.3786 31.4554 28.4001 31.4669 28.4231C31.4784 28.4461 31.4969 28.4616 31.5164 28.4781C31.5739 28.5261 31.6589 28.5746 31.7334 28.5836C31.7889 28.5901 31.7594 28.6341 31.7469 28.6696C31.7354 28.7016 31.7209 28.7436 31.6964 28.7666C31.6589 28.8021 31.6554 28.8481 31.6294 28.8921C31.6079 28.9286 31.5899 28.9671 31.5664 29.0026C31.4794 29.1366 31.4679 29.2991 31.4504 29.4566C31.4459 29.4986 31.4549 29.5116 31.4694 29.5491C31.4784 29.5726 31.4839 29.5946 31.4944 29.6176C31.5019 29.6346 31.5074 29.6526 31.5129 29.6706C31.5219 29.7001 31.5339 29.7351 31.5374 29.7661C31.5419 29.8011 31.5559 29.8331 31.5619 29.8676C31.5669 29.8971 31.5614 29.9411 31.5474 29.9661C31.5269 30.0041 31.5009 30.0321 31.4944 30.0766C31.4894 30.1091 31.4849 30.1441 31.4899 30.1766C31.4969 30.2201 31.5299 30.2606 31.5194 30.3051L31.5299 30.3181C31.5449 30.3596 31.5569 30.3946 31.5779 30.4341C31.5934 30.4631 31.6094 30.4906 31.6199 30.5216C31.6374 30.5726 31.6394 30.6466 31.6224 30.7001C31.6139 30.7266 31.5704 30.7621 31.5464 30.7771C31.5184 30.7946 31.4899 30.7976 31.4639 30.8186C31.4059 30.8651 31.3849 30.9061 31.3779 30.9791C31.3714 31.0436 31.3659 31.0936 31.3134 31.1376C31.2909 31.1566 31.2764 31.1701 31.2704 31.2001C31.2654 31.2261 31.2724 31.2611 31.2604 31.2856C31.2469 31.3126 31.2119 31.3126 31.1984 31.3386C31.1889 31.3571 31.1909 31.3931 31.1889 31.4131C31.1864 31.4361 31.1884 31.4511 31.1919 31.4726C31.1969 31.5021 31.1879 31.5391 31.1844 31.5691C31.1784 31.6256 31.1824 31.6956 31.1659 31.7496C31.1484 31.8046 31.0694 31.7846 31.0279 31.8096C30.9604 31.8501 30.9529 31.9591 30.8778 31.9856C30.8288 32.0026 30.7833 31.9966 30.7328 31.9916C30.6813 31.9866 30.6303 31.9731 30.5938 31.9326C30.5653 31.9006 30.5478 31.8436 30.5353 31.8031C30.5203 31.7551 30.5343 31.7016 30.5393 31.6521C30.5448 31.5991 30.5503 31.5456 30.5558 31.4926C30.5623 31.4321 30.5678 31.3716 30.5743 31.3111C30.5798 31.2601 30.5683 31.2151 30.5648 31.1656C30.5628 31.1391 30.5683 31.1431 30.5583 31.1191C30.5553 31.1121 30.5493 31.1016 30.5458 31.0941C30.5318 31.0676 30.5233 31.0411 30.5088 31.0151C30.4968 30.9926 30.4918 30.9686 30.4808 30.9466C30.4643 30.9146 30.4303 30.8801 30.4308 30.8416C30.4108 30.8191 30.4138 30.7906 30.4038 30.7651C30.3928 30.7376 30.3828 30.6901 30.3578 30.6721C30.3118 30.6381 30.2393 30.6766 30.1948 30.6321C30.1743 30.6116 30.1648 30.5821 30.1448 30.5601C30.1228 30.5356 30.1103 30.5096 30.0923 30.4821C30.0728 30.4521 30.0648 30.4206 30.0443 30.3926C30.0283 30.3711 30.0258 30.3576 30.0178 30.3326C30.0088 30.3046 29.9968 30.2811 29.9898 30.2521C29.9838 30.2266 29.9738 30.2056 29.9633 30.1816C29.9498 30.1496 29.9173 30.0916 29.9363 30.0571C29.9638 30.0071 30.0278 30.0236 30.0653 29.9931C30.0968 29.9671 30.0928 29.9216 30.0963 29.8846C30.1028 29.8206 30.1138 29.8041 30.1728 29.7736C30.2173 29.7511 30.2163 29.7126 30.1773 29.6816C30.1373 29.6491 30.0763 29.6231 30.0808 29.5611C30.0828 29.5281 30.1118 29.4911 30.1303 29.4646C30.1638 29.4161 30.2063 29.3831 30.2538 29.3506C30.2978 29.3211 30.3093 29.2891 30.3338 29.2441C30.3578 29.1991 30.3808 29.1586 30.3923 29.1096C30.3983 29.0841 30.4093 29.0631 30.4128 29.0361C30.4163 29.0086 30.4168 28.9906 30.4283 28.9656C30.4393 28.9421 30.4473 28.9186 30.4688 28.9036C30.4873 28.8901 30.5098 28.8816 30.5288 28.8686C30.5708 28.8401 30.6103 28.7956 30.6323 28.7491C30.6528 28.7051 30.6668 28.6706 30.6718 28.6211C30.6753 28.5846 30.6793 28.5481 30.6833 28.5116L30.6503 28.4841C30.6133 28.4801 30.5778 28.4806 30.5448 28.4621C30.5193 28.4476 30.5013 28.4271 30.4903 28.4001C30.4818 28.3781 30.4713 28.3641 30.4598 28.3441C30.4433 28.3161 30.4553 28.28 30.4583 28.2485C30.4633 28.201 30.4683 28.153 30.4733 28.1055C30.4773 28.0655 30.4818 28.026 30.4858 27.986C30.4898 27.9455 30.4908 27.932 30.5183 27.9025C30.5838 27.832 30.6698 27.804 30.7593 27.7745C30.8098 27.758 30.8493 27.7275 30.8879 27.691C30.9229 27.658 30.9624 27.6265 30.9954 27.5915C31.0589 27.524 31.1199 27.4555 31.2004 27.4065C31.3229 27.332 31.4714 27.3265 31.6094 27.303C31.6539 27.2955 31.6894 27.2855 31.7274 27.2605C31.7574 27.2405 31.7879 27.234 31.8164 27.21C31.8309 27.198 31.8454 27.183 31.8619 27.1735C31.8804 27.163 31.9009 27.161 31.9199 27.1485C31.9399 27.135 31.9704 27.1075 31.9954 27.108C32.0044 27.052 32.0769 27.0415 32.1139 27.0125C32.1564 26.9795 32.1954 26.936 32.2419 26.9065C32.2654 26.8915 32.2899 26.8925 32.3164 26.8885C32.3404 26.8845 32.3654 26.876 32.3899 26.8745C32.4299 26.872 32.4739 26.8775 32.5134 26.871C32.5599 26.863 32.6069 26.813 32.6314 26.777C32.6509 26.7485 32.6669 26.717 32.6854 26.687C32.7139 26.6405 32.7339 26.5885 32.7604 26.541C32.7814 26.503 32.8029 26.4665 32.8124 26.423C32.8279 26.353 32.8074 26.26 32.8499 26.1995C32.8729 26.1665 32.8884 26.125 32.9174 26.097C32.9524 26.063 32.9979 26.0285 33.0389 26.0015C33.0769 25.9765 33.1134 25.9495 33.1519 25.927C33.1949 25.9015 33.2159 25.86 33.2354 25.817C33.2699 25.7405 33.2994 25.6565 33.3089 25.573L33.3114 25.549C33.3234 25.494 33.3629 25.4335 33.3884 25.3835C33.4164 25.3295 33.4604 25.2795 33.5044 25.2375C33.5529 25.191 33.6049 25.15 33.6234 25.0815C33.6359 25.035 33.6349 24.9805 33.6399 24.932C33.6439 24.8915 33.6564 24.8425 33.6509 24.8025C33.6444 24.7585 33.6029 24.7145 33.5654 24.697C33.5209 24.6765 33.4804 24.675 33.4544 24.6265C33.4354 24.5915 33.4469 24.546 33.4749 24.52C33.4934 24.503 33.5164 24.485 33.5384 24.4719C33.5624 24.4574 33.5919 24.4629 33.6134 24.4449C33.6509 24.4144 33.6454 24.3669 33.6544 24.3254C33.6599 24.2979 33.6719 24.2739 33.6754 24.2459C33.6779 24.2244 33.6799 24.2024 33.6819 24.1804C33.6839 24.1559 33.6794 24.1389 33.7039 24.1334C33.7199 24.1299 33.7464 24.1399 33.7579 24.1509C33.7749 24.1669 33.7704 24.1804 33.7789 24.1994C33.7839 24.2114 33.7919 24.2169 33.7979 24.2279C33.8074 24.2459 33.8124 24.2659 33.8204 24.2844C33.8384 24.3254 33.8484 24.3704 33.8699 24.4104C33.8774 24.4239 33.9084 24.4689 33.9274 24.4664C33.9504 24.4634 33.9449 24.4324 33.9464 24.4154C33.9509 24.3699 33.9414 24.3384 33.9289 24.2949C33.9049 24.2099 33.8679 24.0949 33.7939 24.0384C33.7544 24.0084 33.7224 23.9984 33.7184 23.9419C33.7154 23.9019 33.7284 23.8534 33.7324 23.8129L33.7334 23.8009C33.7389 23.7809 33.7484 23.7569 33.7574 23.7384C33.7694 23.7134 33.7884 23.7074 33.8059 23.6884C33.8394 23.6524 33.8149 23.5974 33.8184 23.5544C33.8224 23.5099 33.8214 23.4644 33.8519 23.4284C33.8839 23.3904 33.9534 23.3744 33.9524 23.3159C33.9514 23.2664 33.9069 23.2419 33.8914 23.1974C33.8739 23.1474 33.8904 23.0874 33.9054 23.0394C33.9324 22.9524 33.9824 22.8829 34.0334 22.8099C34.0904 22.7274 34.1409 22.6424 34.2104 22.5689C34.2394 22.5384 34.2704 22.5094 34.2964 22.4759C34.3169 22.4494 34.3314 22.4419 34.3554 22.4224C34.3814 22.4014 34.3814 22.3384 34.3804 22.3049C34.3789 22.2604 34.3679 22.2149 34.3709 22.1709C34.3739 22.1289 34.3849 22.0899 34.3984 22.0504C34.4109 22.0139 34.4214 21.9829 34.4444 21.9509C34.4684 21.9169 34.4984 21.8934 34.5249 21.8634C34.5584 21.8254 34.5984 21.7919 34.6414 21.7659C34.6744 21.7464 34.709 21.7209 34.734 21.6899C34.7495 21.6704 34.7524 21.6439 34.7669 21.6234C34.7819 21.6019 34.7925 21.5879 34.8035 21.5639C34.821 21.5254 34.839 21.4944 34.842 21.4509L34.862 21.3964C34.904 21.3619 34.91 21.3489 34.9155 21.2944C34.9185 21.2649 34.9235 21.2389 34.918 21.2099C34.9095 21.1654 34.882 21.1254 34.866 21.0829C34.8535 21.0494 34.809 20.9849 34.8245 20.9499C34.8395 20.9169 34.888 20.9064 34.915 20.8884C34.951 20.8649 34.962 20.8299 34.968 20.7904C34.9735 20.7519 34.967 20.7034 34.9825 20.6668C35 20.6263 35.0545 20.5873 35.0915 20.5658C35.1595 20.5258 35.2475 20.5308 35.3235 20.5193C35.405 20.5068 35.4865 20.4933 35.569 20.4858C35.7345 20.4708 35.8995 20.4448 36.063 20.4168C36.109 20.4088 36.152 20.3968 36.198 20.3873C36.233 20.3803 36.2745 20.3863 36.3075 20.3713C36.37 20.3433 36.3645 20.2568 36.371 20.1978C36.378 20.1298 36.385 20.0618 36.392 19.9938C36.399 19.9283 36.4185 19.8743 36.4255 19.8098C36.4315 19.7503 36.4315 19.6828 36.446 19.6248C36.4545 19.5898 36.475 19.5563 36.4845 19.5208C36.496 19.4758 36.4965 19.4748 36.5435 19.4663C36.606 19.4553 36.6675 19.4843 36.7285 19.4758C36.7655 19.4708 36.7725 19.4498 36.749 19.4193C36.7405 19.4083 36.718 19.3923 36.7045 19.3873C36.69 19.3813 36.6705 19.3903 36.657 19.3793C36.6065 19.3393 36.7385 19.2568 36.7175 19.2008C36.7075 19.1738 36.671 19.1908 36.646 19.1948C36.6115 19.2003 36.5835 19.2028 36.549 19.1988C36.495 19.1928 36.406 19.2008 36.364 19.1663C36.3335 19.1413 36.322 19.1093 36.3015 19.0798C36.275 19.0408 36.255 19.0608 36.2155 19.0788L36.2015 19.0773C36.1755 19.0788 36.1515 19.0923 36.1255 19.0953C36.0985 19.0983 36.073 19.0923 36.0465 19.0898C35.9905 19.0843 35.941 19.0773 35.9155 19.0193C35.896 18.9753 35.912 18.9313 35.897 18.8883C35.8795 18.8378 35.8385 18.8038 35.789 18.7878C35.6995 18.7583 35.603 18.7353 35.533 18.6688C35.5005 18.6378 35.4555 18.6033 35.4435 18.5563C35.435 18.5238 35.4475 18.4623 35.454 18.4283C35.4655 18.3658 35.508 18.3078 35.5335 18.2503C35.5475 18.2193 35.5785 18.1998 35.5925 18.1718C35.6055 18.1463 35.6045 18.0998 35.602 18.0728C35.5985 18.0328 35.5985 17.9993 35.6025 17.9583C35.6115 17.8713 35.6065 17.7808 35.657 17.7063C35.7125 17.6248 35.7895 17.5563 35.8525 17.4808C35.8875 17.4383 35.947 17.3938 35.9645 17.3413C35.976 17.3073 35.974 17.2658 35.978 17.2303C35.9815 17.1948 35.9855 17.1593 35.989 17.1243C35.994 17.0763 36.0015 17.0628 36.025 17.0213C36.0455 16.9853 36.0595 16.9573 36.0845 16.9243C36.107 16.8947 36.1255 16.8647 36.134 16.8292C36.151 16.7547 36.0985 16.6852 36.0665 16.6217C36.033 16.5562 35.9695 16.4537 35.9055 16.4197C35.857 16.3937 35.765 16.3497 35.708 16.3832C35.685 16.3967 35.666 16.4317 35.6445 16.4502C35.6295 16.4632 35.613 16.4752 35.598 16.4877C35.5685 16.5117 35.537 16.5347 35.5085 16.5597C35.4605 16.6022 35.421 16.6552 35.366 16.6902C35.339 16.7072 35.3025 16.7222 35.273 16.7362C35.233 16.7557 35.185 16.7647 35.141 16.7722C35.1025 16.7787 35.062 16.7927 35.0235 16.7962C34.963 16.8022 34.8965 16.7697 34.838 16.7897C34.7635 16.8152 34.7274 16.9503 34.6394 16.9177C34.5994 16.9027 34.5844 16.8617 34.5734 16.8237C34.5644 16.7927 34.5829 16.7512 34.5684 16.7242C34.5364 16.7117 34.5184 16.7467 34.5034 16.7667C34.4814 16.7962 34.4669 16.8207 34.4334 16.8382L34.4079 16.8072C34.4189 16.7007 34.4284 16.5997 34.4579 16.4977C34.4734 16.4437 34.4994 16.4007 34.5314 16.3567C34.5589 16.3187 34.5749 16.2697 34.5584 16.2237C34.5389 16.1682 34.5064 16.1372 34.5119 16.0747C34.5149 16.0412 34.5189 16.0067 34.5394 15.9782C34.5964 15.8992 34.6919 15.8737 34.742 15.7887C34.7585 15.7607 34.7859 15.7237 34.795 15.6917C34.8055 15.6557 34.803 15.6082 34.807 15.5707C34.8155 15.4897 34.834 15.4032 34.8315 15.3222C34.83 15.2727 34.8145 15.2222 34.7965 15.1767C34.7805 15.1362 34.7334 15.1037 34.7299 15.0617C34.7219 14.9652 34.8235 14.9352 34.8965 14.9087C34.9465 14.8907 34.9685 14.8707 35.005 14.8332C35.037 14.8002 35.0335 14.7592 35.038 14.7162C35.0415 14.6822 35.051 14.6442 35.0475 14.6107C35.046 14.5927 35.039 14.5792 35.0395 14.5607C35.04 14.5417 35.044 14.5222 35.046 14.5037L35.0335 14.4882C35.04 14.4607 34.998 14.4422 34.982 14.4257C34.9635 14.4062 34.947 14.3827 34.9325 14.3602C34.904 14.3157 34.877 14.2682 34.8465 14.2252C34.81 14.1737 34.785 14.1442 34.79 14.0772C34.791 14.0612 34.7914 14.0337 34.7954 14.0172C34.8034 13.9847 34.8215 13.9772 34.843 13.9542C34.8725 13.9217 34.92 13.8812 34.9305 13.8382C34.941 13.7952 34.949 13.7367 34.915 13.7037C34.9 13.6892 34.883 13.6797 34.8685 13.6647C34.846 13.6417 34.847 13.6282 34.8395 13.6002C34.8265 13.5512 34.7995 13.5242 34.756 13.4972C34.6679 13.4427 34.5524 13.4862 34.5169 13.3672C34.5024 13.3192 34.4914 13.2682 34.4934 13.2182C34.4954 13.1687 34.4759 13.1237 34.4479 13.0816C34.3754 12.9736 34.2749 12.9816 34.1584 12.9691C34.1189 12.9646 34.0864 12.9626 34.0484 12.9746C33.9954 12.9916 33.9419 13.0221 33.8854 13.0261L33.8714 13.0246C33.7574 13.0126 33.5549 13.0166 33.5754 12.8516C33.5874 12.7541 33.5834 12.5866 33.4824 12.5376C33.4424 12.5181 33.3839 12.5096 33.3389 12.5156C33.2819 12.5231 33.2414 12.5461 33.1904 12.5686C33.0874 12.6141 32.9634 12.6656 32.8939 12.5436C32.8774 12.5141 32.8839 12.4996 32.8489 12.4896C32.8259 12.4831 32.7969 12.4851 32.7729 12.4826C32.7334 12.4786 32.6789 12.4761 32.6634 12.4291C32.6544 12.4011 32.6694 12.3216 32.6819 12.2961C32.7019 12.2546 32.7299 12.2196 32.7634 12.1891C32.7999 12.1556 32.8384 12.1166 32.8699 12.0791C32.9009 12.0426 32.8944 11.9986 32.8669 11.9641C32.8289 11.9171 32.7574 11.8981 32.7394 11.8336C32.7264 11.7866 32.7574 11.7396 32.7664 11.6966C32.7819 11.6211 32.7979 11.5151 32.7564 11.4471C32.7049 11.3626 32.6064 11.2936 32.5084 11.2846C32.4179 11.2751 32.3274 11.2661 32.2369 11.2566C32.1299 11.2456 32.0339 11.2386 31.9364 11.1931C31.8839 11.1686 31.8684 11.1426 31.8284 11.1036C31.7924 11.0686 31.7474 11.0071 31.6999 10.9886C31.6559 10.9716 31.5814 10.9661 31.5399 10.9831C31.5174 10.9921 31.4984 11.0116 31.4754 11.0211C31.4519 11.0306 31.4329 11.0341 31.4119 11.0491C31.3604 11.0861 31.3464 11.0911 31.3004 11.0401C31.2634 10.9991 31.2244 10.9626 31.1889 10.9191C31.1514 10.8726 31.1164 10.8221 31.0754 10.7786C31.0369 10.7376 31.0089 10.7146 30.9539 10.7101C30.9188 10.7071 30.8748 10.6941 30.8403 10.6976C30.7973 10.7021 30.7528 10.7241 30.7123 10.7386C30.6638 10.7561 30.6288 10.7771 30.5763 10.7706C30.5433 10.7666 30.5103 10.7636 30.4778 10.7606L30.4638 10.7591C30.4313 10.7521 30.4163 10.7191 30.3908 10.7021C30.3683 10.6871 30.3378 10.6886 30.3108 10.6856C30.2428 10.6791 30.1998 10.7136 30.1503 10.7551C30.1313 10.7711 30.1128 10.7946 30.0863 10.7936C30.0498 10.7921 30.0328 10.7571 30.0243 10.7281C30.0118 10.6866 30.0188 10.6471 30.0073 10.6051C29.9908 10.5426 29.9778 10.4956 29.9158 10.4666C29.8783 10.4491 29.8408 10.4246 29.7993 10.4186C29.7383 10.4101 29.6863 10.4476 29.6353 10.4776C29.6133 10.4906 29.5988 10.5061 29.5823 10.5246C29.5563 10.5536 29.5303 10.5661 29.4993 10.5876C29.4663 10.6106 29.4448 10.6381 29.4103 10.6596C29.3928 10.6701 29.3753 10.6806 29.3578 10.6911C29.3108 10.7186 29.2623 10.7636 29.2063 10.7706C29.1653 10.7756 29.0928 10.7676 29.0523 10.7566C28.9923 10.7401 28.9323 10.6656 28.8993 10.6136C28.8683 10.5646 28.8268 10.4646 28.7588 10.4701C28.7273 10.4726 28.6998 10.4906 28.6673 10.4896C28.6508 10.4891 28.6333 10.4851 28.6163 10.4836C28.5558 10.4766 28.5323 10.4396 28.4888 10.3991C28.4533 10.3661 28.4063 10.3021 28.3543 10.3216C28.3073 10.3386 28.2723 10.4161 28.2268 10.4171C28.1773 10.4181 28.1488 10.3546 28.1143 10.3311C28.0508 10.2876 28.0303 10.3296 27.9788 10.3621C27.9348 10.3891 27.9093 10.3456 27.8673 10.3351L25.7452 9.24705L18.948 7.2565C18.927 7.232 18.901 7.23 18.8965 7.19399C18.893 7.16749 18.905 7.13249 18.907 7.10549C18.911 7.04899 18.8905 6.98799 18.836 6.96249C18.7745 6.93399 18.716 6.91149 18.7205 6.83249C18.7245 6.76098 18.708 6.69298 18.671 6.63098C18.6565 6.60648 18.6355 6.57798 18.6145 6.55898C18.588 6.53498 18.5535 6.52948 18.5335 6.49598C18.5035 6.44548 18.532 6.39097 18.531 6.33797C18.529 6.25697 18.454 6.25497 18.3965 6.22847C18.331 6.19847 18.318 6.17447 18.3255 6.10597C18.332 6.04496 18.339 5.98396 18.3445 5.92296C18.3505 5.85946 18.306 5.82046 18.245 5.81246C18.186 5.80446 18.1325 5.81746 18.0735 5.80946C17.9955 5.79896 18.021 5.72296 17.9855 5.67045C17.9505 5.61945 17.896 5.61545 17.839 5.61295C17.797 5.61095 17.7435 5.64195 17.721 5.59345C17.697 5.54245 17.6965 5.47545 17.697 5.42145C17.697 5.39745 17.688 5.36445 17.6685 5.34745C17.649 5.33045 17.6255 5.33445 17.6 5.33145C17.5455 5.32545 17.4945 5.32795 17.4465 5.35745C17.402 5.38495 17.3575 5.45145 17.3065 5.45945C17.2645 5.46595 17.187 5.44995 17.1535 5.42495C17.127 5.40545 17.109 5.37845 17.089 5.35295C17.074 5.33395 17.0435 5.31144 17.039 5.28744L17.02 5.28894C17 5.26494 16.942 5.26994 16.9125 5.26694C16.874 5.26294 16.836 5.25844 16.7975 5.25494C16.7555 5.25094 16.7185 5.23494 16.677 5.23144C16.643 5.22844 16.6175 5.22344 16.587 5.20544C16.5615 5.19044 16.5305 5.17694 16.508 5.15894C16.4785 5.13444 16.452 5.10194 16.428 5.07194C16.3805 5.01294 16.3315 4.94794 16.2515 4.94193C16.228 4.93743 16.188 4.99394 16.1715 5.01194C16.1545 5.02994 16.134 5.06744 16.1085 5.07194C16.057 5.08144 15.9905 5.05044 15.9495 5.02294C15.8825 4.97744 15.8195 4.92743 15.7574 4.87393C15.6994 4.82393 15.6409 4.77793 15.5839 4.72793C15.5519 4.69993 15.5194 4.67593 15.4854 4.65143C15.4499 4.62593 15.4354 4.58643 15.4089 4.55342C15.3854 4.52342 15.3659 4.48542 15.3404 4.45892C15.3184 4.43592 15.2899 4.41792 15.2689 4.39342C15.2434 4.36392 15.2084 4.35242 15.1774 4.32842C15.1474 4.30492 15.1159 4.27042 15.0949 4.23942C15.0509 4.17391 15.0264 4.09541 14.9584 4.04891L14.9594 4.03791C14.9464 4.02191 14.9299 3.98441 14.9054 3.98791C14.8819 3.99091 14.8849 4.00991 14.8819 4.02691C14.8744 4.06941 14.8814 4.10191 14.8929 4.14291C14.9029 4.17942 14.9019 4.21492 14.8694 4.24142C14.8364 4.26842 14.7939 4.25492 14.7559 4.25142C14.7104 4.24742 14.6979 4.23892 14.6649 4.20842C14.6319 4.17791 14.5944 4.17191 14.5499 4.18241C14.5194 4.18992 14.4769 4.20892 14.4569 4.23442C14.4384 4.25842 14.4294 4.31692 14.4454 4.34342C14.4864 4.41092 14.6079 4.33292 14.6164 4.44092C14.6224 4.52092 14.5574 4.56693 14.4979 4.60543C14.4564 4.63243 14.4174 4.65693 14.3714 4.67243C14.3314 4.68543 14.3094 4.68593 14.2674 4.68143C14.2409 4.67843 14.2144 4.67543 14.1874 4.67293C14.1324 4.66793 14.1269 4.68993 14.0949 4.72843C14.0699 4.75843 14.0314 4.75643 13.9999 4.77593C13.9714 4.79393 13.9394 4.81143 13.9164 4.83643C13.8894 4.86493 13.8609 4.89043 13.8299 4.91493C13.8079 4.93193 13.7809 4.95844 13.7569 4.97244C13.7459 4.97444 13.7349 4.97794 13.7244 4.98194C13.7144 4.98744 13.7059 4.99394 13.6979 5.00244C13.6789 5.01494 13.6599 5.02194 13.6384 5.02994C13.6049 5.04244 13.5739 5.05544 13.5384 5.05294C13.4844 5.04944 13.4164 5.03794 13.3719 5.00544C13.3349 4.97844 13.3594 4.87343 13.3814 4.83843C13.3889 4.82643 13.3994 4.80693 13.4079 4.79643C13.4219 4.77843 13.4339 4.77893 13.4514 4.76543C13.4739 4.74843 13.4844 4.72343 13.5044 4.70393C13.5409 4.66843 13.5569 4.62493 13.5919 4.58943C13.6179 4.56293 13.6449 4.53742 13.6704 4.51042C13.6964 4.48292 13.7164 4.45842 13.7349 4.42542C13.7514 4.39642 13.7519 4.37092 13.7549 4.33842C13.7584 4.30292 13.7694 4.27442 13.7759 4.24042C13.7834 4.19942 13.7959 4.15691 13.8214 4.12391C13.8424 4.09691 13.8674 4.07891 13.8909 4.05491C13.9134 4.03191 13.9119 4.00791 13.9149 3.97741C13.9189 3.93491 13.9234 3.89291 13.9279 3.85041C13.9314 3.81791 13.9394 3.7904 13.9269 3.7604C13.9134 3.7284 13.8864 3.7049 13.8679 3.6764C13.8504 3.6494 13.8164 3.6079 13.8229 3.5739C13.8079 3.5259 13.8064 3.4944 13.8134 3.4444C13.8174 3.41589 13.8299 3.40889 13.8479 3.38689C13.8629 3.36939 13.8709 3.34839 13.8819 3.32839C13.9174 3.26289 13.9194 3.18689 13.9264 3.11339C13.9349 3.02438 13.9804 2.92288 14.0314 2.84988C14.0599 2.80888 14.0859 2.76688 14.1174 2.72788C14.1454 2.69338 14.1769 2.65387 14.1959 2.61437C14.2069 2.59137 14.2199 2.57637 14.2384 2.55837C14.2589 2.53837 14.2699 2.51687 14.2869 2.49437C14.3119 2.46087 14.3499 2.43687 14.3739 2.40237C14.4169 2.34037 14.3989 2.25486 14.4149 2.18336C14.4259 2.13436 14.4574 2.09786 14.4854 2.05886C14.4944 2.04636 14.5109 2.03886 14.5184 2.02636C14.5249 2.01436 14.5234 1.99536 14.5244 1.98236C14.5259 1.96836 14.5324 1.94686 14.5304 1.93286C14.5279 1.91236 14.5144 1.90535 14.5004 1.89085C14.4854 1.87485 14.4714 1.86635 14.4549 1.85235C14.4399 1.83985 14.4394 1.83835 14.4409 1.81785C14.4434 1.78485 14.4439 1.74685 14.4514 1.71485C14.4549 1.69885 14.4644 1.68535 14.4684 1.66935C14.4719 1.65335 14.4714 1.63485 14.4734 1.61885C14.4754 1.59935 14.4809 1.58935 14.4654 1.57335C14.4549 1.56235 14.4349 1.55685 14.4224 1.54735C14.4029 1.53285 14.3964 1.52235 14.3724 1.51884C14.3579 1.51684 14.3429 1.51634 14.3284 1.51484L14.3174 1.51384C14.2704 1.50884 14.2274 1.50234 14.1834 1.48634C14.1659 1.47984 14.1489 1.46984 14.1339 1.45934C14.1089 1.44184 14.1054 1.43934 14.1129 1.41234C14.1199 1.38734 14.1244 1.37884 14.1434 1.36234C14.1634 1.34534 14.1739 1.33134 14.1724 1.30334C14.1704 1.26034 14.1244 1.23684 14.0914 1.21584C14.0204 1.16984 13.9324 1.19184 13.8609 1.22784C13.8084 1.25434 13.7599 1.29434 13.7104 1.32584C13.6759 1.34784 13.6454 1.38134 13.6134 1.40784C13.5789 1.43634 13.5344 1.47584 13.4914 1.48834C13.4694 1.49484 13.4414 1.49434 13.4199 1.48784C13.4019 1.48234 13.3764 1.47784 13.3604 1.46984C13.3289 1.45434 13.3394 1.43584 13.3234 1.41084C13.3124 1.39334 13.2919 1.38734 13.2734 1.38334C13.2254 1.37384 13.2024 1.40534 13.1764 1.44134C13.1519 1.47434 13.1364 1.51184 13.1139 1.54635C13.0904 1.58285 13.0834 1.61835 13.0469 1.64535C13.0254 1.66135 12.9999 1.67885 12.9744 1.68785C12.9559 1.69435 12.9389 1.69435 12.9224 1.70485C12.8859 1.72785 12.8509 1.73485 12.8079 1.74335C12.7684 1.75135 12.7274 1.76735 12.7214 1.80985C12.7169 1.84235 12.7174 1.87535 12.7119 1.90735C12.6984 1.98336 12.6144 2.05086 12.5399 2.05636L12.5289 2.05536C12.4789 2.05036 12.4259 2.03536 12.3789 2.05536C12.3594 2.06336 12.3349 2.06686 12.3169 2.07736C12.2939 2.09186 12.2779 2.12036 12.2634 2.14136C12.2319 2.18686 12.1834 2.22786 12.1244 2.20586C12.0839 2.19036 12.0584 2.14186 12.0419 2.10486C12.0173 2.05036 11.9733 2.03986 11.9338 2.08736C11.9178 2.10636 11.9093 2.12636 11.8978 2.14786C11.8863 2.16936 11.8698 2.18586 11.8558 2.20536C11.8418 2.22486 11.8323 2.26086 11.8123 2.27436C11.7953 2.28586 11.7683 2.28137 11.7493 2.27836C11.7028 2.26986 11.7168 2.22686 11.7278 2.19186C11.7383 2.15836 11.7488 2.11036 11.7033 2.09436C11.6613 2.07936 11.6358 2.13786 11.6138 2.16286C11.5798 2.20136 11.5393 2.22836 11.5023 2.26286C11.4813 2.28287 11.4708 2.30237 11.4423 2.31337C11.4118 2.32487 11.3898 2.34087 11.3613 2.35587C11.2958 2.39037 11.2243 2.41087 11.1518 2.42787C11.1263 2.43387 11.1058 2.44287 11.0798 2.44537C11.0533 2.44837 11.0273 2.45387 11.0013 2.46037C10.9678 2.46837 10.9323 2.46987 10.8988 2.47987C10.7973 2.51137 10.7193 2.61437 10.6633 2.69838C10.6458 2.72438 10.6398 2.74738 10.6173 2.77088C10.6008 2.78788 10.5883 2.80788 10.5703 2.82338C10.5498 2.84088 10.5263 2.86138 10.5033 2.87538C10.4823 2.88838 10.4583 2.89488 10.4403 2.91288L10.4078 2.90738C10.3693 2.90338 10.2988 2.88138 10.2623 2.89438C10.2333 2.90488 10.2308 2.93538 10.2138 2.95688C10.1993 2.97488 10.1698 3.00138 10.1493 3.01288C10.1088 3.03538 10.0673 3.01988 10.0308 2.99938C10.0098 2.98738 9.9738 2.96438 9.9473 2.97838C9.92779 2.98888 9.92379 3.01388 9.91429 3.03138C9.89979 3.05789 9.89629 3.05839 9.86429 3.05539C9.82679 3.05189 9.82029 3.03388 9.78779 3.02038C9.75379 3.00588 9.70279 3.00938 9.66579 3.00538C9.63029 3.00138 9.60179 3.00338 9.56628 3.00638C9.53128 3.00938 9.50028 2.99738 9.46678 3.01288C9.41578 3.03638 9.39278 3.09489 9.34578 3.12539C9.29278 3.15939 9.25978 3.15289 9.19978 3.14639C9.17127 3.14339 9.14227 3.14039 9.11377 3.13739C9.08677 3.13439 9.04027 3.11939 9.01427 3.12939C8.98177 3.14189 8.97027 3.19439 8.95177 3.22239C8.91277 3.28089 8.87927 3.32239 8.81826 3.35739C8.78676 3.37539 8.75476 3.40089 8.72076 3.41389C8.69626 3.4234 8.67326 3.4269 8.64926 3.4384C8.60676 3.4589 8.56376 3.4729 8.52326 3.4979C8.47376 3.5279 8.42325 3.5514 8.36975 3.5729C8.33625 3.5864 8.30275 3.6004 8.26925 3.6144C8.25175 3.6214 8.22475 3.6424 8.20575 3.6404L8.19125 3.6389C8.17125 3.6604 8.11425 3.6559 8.08725 3.6609C8.05274 3.6669 8.01924 3.6664 7.98474 3.6754C7.91924 3.6924 7.84974 3.7104 7.78774 3.7419C7.75224 3.7599 7.72924 3.80091 7.68774 3.80441C7.65773 3.80691 7.62223 3.79841 7.59273 3.7949C7.52673 3.7879 7.46023 3.7814 7.39423 3.7744C7.32223 3.7669 7.25022 3.7594 7.17822 3.7519C7.09172 3.7429 7.02422 3.7514 6.94972 3.80091C6.80521 3.89691 6.63071 3.89891 6.4627 3.88141L6.4482 3.87991C6.4347 3.86641 6.4172 3.86291 6.4022 3.85191C6.3892 3.84291 6.3812 3.82991 6.3677 3.82141C6.3457 3.80791 6.3117 3.8009 6.2862 3.7934C6.2242 3.7759 6.1482 3.7729 6.08419 3.7689C6.06469 3.7679 6.03669 3.7609 6.03019 3.7844C6.02319 3.80941 6.06319 3.83291 6.05619 3.85991C6.03919 3.92841 5.96519 3.82041 5.95119 3.80291C5.90469 3.7459 5.85819 3.6884 5.81169 3.6314C5.78419 3.5974 5.75418 3.5474 5.71318 3.5289C5.68118 3.5144 5.60268 3.5064 5.56918 3.5139C5.54218 3.5199 5.51268 3.5389 5.48518 3.5469C5.46218 3.5539 5.44018 3.5624 5.41718 3.5694C5.37217 3.5824 5.32667 3.5809 5.28367 3.5984C5.23317 3.6194 5.17317 3.6279 5.12467 3.6504C5.06917 3.6759 5.04217 3.7239 5.01766 3.7754C5.00666 3.7979 4.99216 3.81941 4.98416 3.84341C4.97666 3.86741 4.97766 3.89241 4.97066 3.91591C4.95866 3.95541 4.95016 4.00791 4.92966 4.04541C4.90866 4.08341 4.83016 4.12541 4.79016 4.14141C4.74166 4.16091 4.69766 4.16391 4.64666 4.15841C4.61415 4.15491 4.56765 4.14141 4.53565 4.14741C4.48865 4.15641 4.46915 4.21442 4.42015 4.20892C4.37265 4.20392 4.35165 4.15941 4.32665 4.12491C4.29565 4.08191 4.27265 4.04691 4.21864 4.04141C4.17514 4.03691 4.12664 4.04991 4.12464 4.10491L4.12064 9.87257C4.02514 9.87707 3.91314 9.94607 3.84013 10.0036C3.79163 10.0421 3.76963 10.0596 3.75763 10.1206C3.74963 10.1611 3.72863 10.2011 3.71013 10.2391C3.68763 10.2851 3.66763 10.3286 3.60913 10.3186C3.54863 10.3086 3.50312 10.2701 3.44012 10.2641C3.39112 10.2596 3.34162 10.2546 3.29262 10.2491C3.20962 10.2396 3.18562 10.2531 3.12411 10.3101C3.03011 10.3971 3.01211 10.4941 2.96561 10.6061C2.94511 10.6556 2.92811 10.7151 2.89911 10.7601C2.85911 10.8216 2.81811 10.8101 2.7611 10.7806C2.7056 10.7521 2.6521 10.7526 2.5906 10.7451C2.5606 10.7416 2.5301 10.7311 2.5036 10.7471C2.4761 10.7636 2.4591 10.8096 2.4406 10.8361C2.37709 10.9261 2.26109 11.0506 2.14959 11.0711C2.08309 11.0831 2.01809 11.0711 1.95158 11.0826C1.91858 11.0886 1.88908 11.0971 1.85508 11.0956C1.82108 11.0941 1.79208 11.0896 1.75808 11.0981C1.69358 11.1141 1.64108 11.1416 1.58757 11.1801C1.51057 11.2351 1.43207 11.2896 1.35657 11.3456L1.33707 11.3616C1.31307 11.3961 1.28407 11.4141 1.25757 11.4451C1.22856 11.4786 1.20956 11.5111 1.17606 11.5406C1.13156 11.5801 1.10306 11.6321 1.05656 11.6706C1.00456 11.7136 0.977558 11.7661 0.933557 11.8181C0.897056 11.8611 0.873055 11.9001 0.849554 11.9511C0.828054 11.9981 0.801053 12.0421 0.782053 12.0901C0.759052 12.1481 0.753552 12.1981 0.746552 12.2601C0.735551 12.3611 0.772553 12.4501 0.792053 12.5481C0.804553 12.6106 0.806553 12.6466 0.740052 12.6721C0.67155 12.6981 0.629049 12.7276 0.598048 12.7941C0.566547 12.8616 0.527546 12.9196 0.501545 12.9906C0.481545 13.0456 0.469544 13.1162 0.435543 13.1652C0.398043 13.2197 0.338541 13.1942 0.280539 13.1882C0.238038 13.1837 0.156536 13.1587 0.124035 13.1927C0.107535 13.2097 0.101535 13.2532 0.0905346 13.2752C0.0825344 13.2912 0.0730341 13.3087 0.067034 13.3252C0.0580337 13.3512 0.047533 13.3842 0.0400328 13.4117C0.0345327 13.4437 0.0515331 13.4807 0.0175322 13.5002L0.0155323 13.5177C0.0115322 13.5582 0.00753228 13.5987 0.00303216 13.6397C-0.00246798 13.6927 0.000532023 13.7327 0.00403212 13.7832C0.00553216 13.8027 -0.00046793 13.8212 0.00303216 13.8407C0.00703227 13.8657 0.0265327 13.8862 0.0335329 13.9102C0.0495333 13.9617 0.0435333 14.0172 0.0515335 14.0697C0.0640338 14.1532 0.0475334 14.2387 0.0385332 14.3237C0.0300329 14.4067 0.00153204 14.5262 0.0535334 14.5977C0.115535 14.6822 0.158536 14.7487 0.268039 14.7712C0.30454 14.7787 0.345041 14.7782 0.382542 14.7822C0.400543 14.7842 0.420543 14.7897 0.438543 14.7892C0.473544 14.7887 0.478545 14.7767 0.507545 14.7637C0.546546 14.7467 0.594048 14.7137 0.637049 14.7177C0.69305 14.7232 0.712551 14.7742 0.729051 14.8227C0.743552 14.8647 0.764552 14.9037 0.778053 14.9462C0.792053 14.9907 0.798053 15.0577 0.829554 15.0947L0.827554 15.1122C0.835554 15.2092 0.897556 15.2982 0.928056 15.3887C0.956557 15.4727 1.01056 15.5867 1.08456 15.6442C1.12106 15.6722 1.17156 15.6857 1.21006 15.7132C1.25807 15.7472 1.24806 15.7917 1.25356 15.8457C1.25707 15.8817 1.24756 15.9467 1.27007 15.9767C1.29757 16.0132 1.35357 16.0232 1.38407 16.0582C1.42757 16.1082 1.42057 16.2232 1.39807 16.2827C1.38657 16.3132 1.36507 16.3492 1.35107 16.3787C1.33707 16.4077 1.31107 16.4197 1.29307 16.4437C1.27507 16.4677 1.26907 16.4962 1.25157 16.5202C1.18806 16.6067 1.09656 16.6762 1.08006 16.7907C1.07156 16.8482 1.03306 17.0093 1.07056 17.0563L1.06856 17.0738C1.06456 17.1113 1.06606 17.1568 1.05256 17.1923C1.03806 17.2308 1.00956 17.2668 0.987558 17.3008C0.936057 17.3803 0.847554 17.4333 0.800053 17.5183C0.762052 17.5858 0.723551 17.6553 0.716051 17.7318C0.708551 17.8108 0.68605 17.9013 0.69405 17.9808C0.702051 18.0628 0.730551 18.1473 0.749052 18.2268C0.769052 18.3138 0.778052 18.3983 0.793553 18.4853C0.808053 18.5688 0.817054 18.6583 0.807053 18.7433C0.803553 18.7723 0.801053 18.8013 0.798053 18.8308C0.793553 18.8758 0.778553 18.9028 0.768552 18.9438L0.754552 18.9963C0.723551 19.0173 0.699051 19.0513 0.66955 19.0753C0.636049 19.1028 0.601548 19.1298 0.574547 19.1643C0.530546 19.2213 0.488545 19.2893 0.458544 19.3558C0.446544 19.3823 0.438044 19.4173 0.433043 19.4463C0.426543 19.4813 0.415043 19.5133 0.411543 19.5493C0.408043 19.5873 0.398042 19.6183 0.416543 19.6528C0.428543 19.6753 0.442044 19.6833 0.459044 19.7003C0.478045 19.7198 0.494545 19.7433 0.513045 19.7643C0.528546 19.7818 0.540546 19.8038 0.559047 19.8188C0.575047 19.8323 0.590048 19.8423 0.604548 19.8588C0.637549 19.8953 0.67755 19.9268 0.68505 19.9773C0.69105 20.0173 0.68305 20.0583 0.68805 20.0978C0.69305 20.1413 0.68805 20.1823 0.68305 20.2263C0.67455 20.3103 0.66555 20.3948 0.657049 20.4788C0.648549 20.5603 0.630549 20.6443 0.648049 20.7244C0.658049 20.7699 0.666549 20.8129 0.661549 20.8589C0.659049 20.8829 0.661049 20.9159 0.652049 20.9389C0.641049 20.9664 0.611548 20.9809 0.592048 21.0009C0.554046 21.0399 0.507045 21.0779 0.501045 21.1349C0.495545 21.1839 0.476045 21.2534 0.506545 21.2974L0.516046 21.3094C0.515046 21.3334 0.538546 21.3844 0.549546 21.4064C0.565047 21.4364 0.591048 21.4624 0.604048 21.4934C0.623048 21.5384 0.626549 21.6119 0.611548 21.6589C0.607048 21.6734 0.596548 21.6829 0.590548 21.6959C0.584048 21.7099 0.582047 21.7249 0.574547 21.7384C0.556047 21.7724 0.537546 21.7989 0.524046 21.8359C0.512546 21.8674 0.499045 21.8989 0.495045 21.9319C0.490545 21.9659 0.486545 22.0004 0.484045 22.0344C0.482545 22.0574 0.489545 22.0744 0.493545 22.0964C0.497545 22.1189 0.496545 22.1389 0.504045 22.1609C0.513546 22.1879 0.529546 22.2104 0.529546 22.2399C0.529546 22.2634 0.527046 22.2954 0.519546 22.3174C0.511546 22.3404 0.495045 22.3509 0.482545 22.3689C0.469044 22.3884 0.463544 22.4114 0.449544 22.4309C0.439044 22.4459 0.425543 22.4539 0.412043 22.4659C0.397543 22.4794 0.391543 22.4964 0.380542 22.5124C0.360542 22.5419 0.343041 22.5694 0.337041 22.6064C0.334041 22.6264 0.334541 22.6434 0.329541 22.6629C0.323541 22.6844 0.316541 22.7024 0.31454 22.7249C0.31154 22.7609 0.30754 22.7969 0.30354 22.8334L0.30254 22.8454C0.377542 22.8529 0.439544 22.8779 0.506045 22.9129C0.569547 22.9464 0.628049 22.9884 0.69255 23.0199C0.759552 23.0524 0.825054 23.0824 0.888055 23.1224C0.956057 23.1654 1.02806 23.1994 1.07756 23.2654C1.13056 23.3359 1.19356 23.4039 1.23956 23.4789C1.28307 23.5494 1.34507 23.6029 1.39657 23.6664C1.42257 23.6984 1.44607 23.7324 1.46857 23.7669C1.47907 23.7829 1.48557 23.8009 1.49557 23.8169C1.50857 23.8369 1.52707 23.8499 1.54057 23.8689C1.56257 23.8994 1.58057 23.9299 1.60457 23.9594C1.63358 23.9949 1.65208 24.0389 1.69008 24.0644L1.71908 24.1004C1.75808 24.1024 1.81358 24.1459 1.84408 24.1684C1.87708 24.1929 1.91308 24.2124 1.94608 24.2364C1.96808 24.2524 1.98558 24.2539 2.00958 24.2644C2.02859 24.2724 2.04459 24.2879 2.06309 24.2979C2.10459 24.3204 2.13109 24.3529 2.17709 24.3674C2.34309 24.4204 2.5281 24.3989 2.6991 24.4319C2.7396 24.4394 2.77111 24.4684 2.80711 24.4855C2.85311 24.507 2.90511 24.509 2.95461 24.514C3.04161 24.523 3.12811 24.532 3.21512 24.541C3.26162 24.546 3.30762 24.5505 3.35412 24.5555C3.39862 24.56 3.43662 24.573 3.48062 24.579C3.50912 24.583 3.56763 24.612 3.58563 24.6335C3.61013 24.663 3.62663 24.716 3.62763 24.754C3.62813 24.7865 3.63063 24.8215 3.63963 24.8535C3.64463 24.872 3.65763 24.907 3.67613 24.9165C3.69413 24.926 3.72763 24.9235 3.74713 24.9255C3.76963 24.928 3.78863 24.9255 3.80563 24.9415C3.82463 24.9595 3.82913 24.9915 3.82963 25.0165C3.83063 25.0545 3.82813 25.1245 3.79463 25.1495L3.79363 25.1605C3.78663 25.1835 3.79963 25.198 3.80963 25.217C3.81913 25.2355 3.82713 25.255 3.83713 25.273C3.85963 25.3155 3.90613 25.347 3.93614 25.3845C3.98614 25.447 4.03814 25.5055 4.09214 25.564C4.12214 25.596 4.14514 25.6345 4.17514 25.666C4.20814 25.7005 4.24464 25.737 4.28014 25.7685C4.33015 25.8135 4.39615 25.8425 4.46265 25.855C4.50065 25.8625 4.53365 25.8735 4.57265 25.8775C4.60465 25.8805 4.64266 25.8795 4.67266 25.8905C4.73416 25.9125 4.79516 25.9555 4.84866 25.9915C4.88316 26.015 4.92566 26.013 4.96566 26.017C4.99116 26.0195 5.01066 26.022 5.03517 26.016C5.07617 26.0065 5.11767 26.005 5.15917 25.9955C5.19117 25.988 5.22267 25.9735 5.25617 25.981L5.26717 25.982C5.33117 25.9885 5.39617 26.0025 5.44668 26.044C5.46568 26.06 5.48768 26.068 5.50668 26.083C5.51868 26.0925 5.52518 26.1035 5.53818 26.1115C5.55818 26.124 5.57218 26.131 5.58968 26.1465C5.60718 26.162 5.62118 26.1665 5.64268 26.1765C5.66568 26.187 5.68018 26.207 5.70068 26.2215C5.71418 26.231 5.72818 26.2405 5.74168 26.2505C5.77368 26.274 5.80469 26.301 5.83719 26.323C5.86169 26.34 5.88019 26.346 5.90119 26.37C5.91519 26.386 5.92769 26.3965 5.94719 26.406C5.98669 26.426 6.02269 26.445 6.05919 26.4695C6.09519 26.494 6.13119 26.5175 6.1632 26.548C6.2002 26.5835 6.2222 26.6265 6.2517 26.667C6.3042 26.7395 6.3532 26.809 6.3912 26.89C6.4307 26.9735 6.4182 27.0525 6.4092 27.142C6.4057 27.174 6.3922 27.217 6.4097 27.2445C6.4362 27.2875 6.4877 27.311 6.5197 27.3505L6.53071 27.3515C6.56321 27.3545 6.58071 27.412 6.59871 27.4355C6.62271 27.466 6.64721 27.491 6.65821 27.529C6.66821 27.563 6.65921 27.6015 6.65521 27.6365C6.65121 27.67 6.65521 27.7075 6.65771 27.741C6.66271 27.8035 6.67271 27.87 6.69271 27.93C6.70521 27.967 6.72371 28.001 6.73921 28.0365C6.76271 28.09 6.79321 28.1405 6.82121 28.192C6.83671 28.2205 6.85671 28.2455 6.87121 28.275C6.88371 28.3011 6.89571 28.3236 6.91122 28.3491C6.92122 28.3661 6.93072 28.3851 6.93772 28.4036C6.95722 28.4516 6.98572 28.4901 7.01222 28.5346C7.03972 28.5811 7.06322 28.6301 7.09672 28.6726C7.12372 28.7071 7.13872 28.7466 7.16522 28.7816C7.19672 28.8231 7.23572 28.8646 7.27372 28.8996C7.30573 28.9296 7.34073 28.9551 7.37173 28.9861C7.40023 29.0146 7.43923 29.0386 7.46173 29.0721L7.50823 29.1191C7.53723 29.1211 7.55023 29.1571 7.56973 29.1741C7.59323 29.1941 7.62373 29.2046 7.64323 29.2296C7.66224 29.2531 7.66423 29.2681 7.68774 29.2876C7.71324 29.3086 7.74124 29.3256 7.76574 29.3486C7.80224 29.3831 7.84124 29.4141 7.87724 29.4486C7.89874 29.4691 7.91874 29.4761 7.94224 29.4911C7.97324 29.5111 7.98574 29.5356 8.01124 29.5601C8.07724 29.6231 8.15375 29.6776 8.23325 29.7241C8.28075 29.7521 8.32775 29.7736 8.37975 29.7911C8.42675 29.8071 8.46626 29.8321 8.51576 29.8376C8.62276 29.8486 8.72776 29.8896 8.83077 29.9181C8.87527 29.9306 8.91527 29.9576 8.95727 29.9756C9.00777 29.9971 9.05727 30.0166 9.10527 30.0441C9.20328 30.0996 9.30378 30.1656 9.37928 30.2501C9.43128 30.3081 9.49528 30.3431 9.53728 30.4126C9.55328 30.4391 9.56878 30.4601 9.58578 30.4856C9.61129 30.5236 9.61529 30.5561 9.65179 30.5861C9.70579 30.6456 9.77679 30.6881 9.82929 30.7501C9.86929 30.7976 9.90779 30.8386 9.95729 30.8771C10.0583 30.9551 10.1608 31.0311 10.2563 31.1181C10.3078 31.1646 10.3598 31.2131 10.4073 31.2631C10.4498 31.3081 10.4763 31.3676 10.5073 31.4191C10.5443 31.4796 10.5948 31.5336 10.6268 31.5966C10.6488 31.6391 10.6793 31.7046 10.6793 31.7536C10.6798 31.8691 10.6428 31.9856 10.6848 32.0991C10.6953 32.1287 10.7173 32.1457 10.7323 32.1722C10.7548 32.2132 10.7803 32.2597 10.7973 32.3032C10.8238 32.3717 10.8618 32.4362 10.8828 32.5077C10.9008 32.5697 10.9268 32.6372 10.9013 32.7012C10.8778 32.7612 10.8323 32.8137 10.8058 32.8727C10.7748 32.9422 10.7433 33.0037 10.7363 33.0802C10.7313 33.1322 10.7253 33.1837 10.7203 33.2357L10.7188 33.2517C10.7073 33.3602 10.7218 33.4602 10.7468 33.5662C10.7583 33.6147 10.7668 33.6587 10.7848 33.7052C10.8043 33.7552 10.8078 33.7977 10.8228 33.8482C10.8518 33.9472 10.8503 34.0527 10.8683 34.1527C10.8848 34.2462 10.8928 34.3407 10.9058 34.4347C10.9138 34.4917 10.9273 34.5507 10.9328 34.6072C10.9383 34.6612 10.9308 34.7177 10.9348 34.7712C10.9428 34.8747 10.9533 34.9772 10.9678 35.0812C10.9833 35.1907 11.0248 35.3037 11.0123 35.4147C11.0023 35.5032 10.9938 35.5917 10.9848 35.6802C10.9803 35.7212 10.9763 35.7627 10.9718 35.8037C10.9658 35.8643 10.9438 35.9173 10.9378 35.9773C10.9308 36.0478 10.9338 36.1113 10.9553 36.1788C10.9653 36.2108 10.9688 36.2453 10.9813 36.2768C10.9918 36.3033 11.0108 36.3238 11.0118 36.3538L11.0263 36.3713C11.0153 36.4043 11.0378 36.4133 11.0523 36.4383C11.0683 36.4663 11.0723 36.4968 11.0908 36.5243C11.1248 36.5753 11.1738 36.6313 11.2228 36.6678C11.2588 36.6948 11.3068 36.6913 11.3523 36.6963C11.3818 36.6993 11.4158 36.6983 11.4443 36.7048C11.4723 36.7113 11.4943 36.7258 11.5228 36.7303C11.7583 36.7673 11.9653 36.9633 12.0143 37.2013C12.0353 37.3048 12.0304 37.4393 11.9928 37.5383C11.9728 37.5913 11.9458 37.6343 11.9098 37.6798C11.8883 37.7073 11.8698 37.7408 11.8483 37.7673C11.8288 37.7908 11.8028 37.8028 11.7843 37.8278C11.7008 37.9418 11.6343 38.0698 11.5993 38.2073C11.5858 38.2613 11.5683 38.3138 11.5508 38.3668C11.5408 38.3963 11.5328 38.4268 11.5218 38.4558C11.5098 38.4873 11.4843 38.5198 11.4788 38.5528L11.4383 38.6293C11.4183 38.8243 11.3978 39.0198 11.3778 39.2148C11.3728 39.2648 11.3648 39.2958 11.3498 39.3408C11.3338 39.3893 11.3373 39.4503 11.3318 39.5013C11.3273 39.5458 11.3143 39.5913 11.3333 39.6333C11.3563 39.6833 11.3798 39.7298 11.4003 39.7819C11.4393 39.8829 11.4513 39.9944 11.4683 40.1004C11.4863 40.2124 11.4883 40.3314 11.4768 40.4444C11.4663 40.5464 11.4378 40.6639 11.4553 40.7659C11.4743 40.8774 11.5588 40.9284 11.6473 40.9869C11.6773 41.0069 11.7018 41.0324 11.7308 41.0524C11.7603 41.0724 11.7943 41.0879 11.8163 41.1174C11.8528 41.1659 11.8788 41.2259 11.8958 41.2839C11.9123 41.3404 11.9343 41.4074 11.9378 41.4659C11.9408 41.5184 11.9653 41.5894 11.9518 41.6414L11.9503 41.6574C11.9423 41.6849 11.9533 41.7069 11.9668 41.7304C11.9823 41.7569 11.9858 41.7749 11.9953 41.8039C12.0124 41.8544 12.0414 41.9079 12.0649 41.9569C12.0884 42.0059 12.1129 42.0669 12.1459 42.1104C12.1619 42.1319 12.1799 42.1459 12.1924 42.1699C12.2079 42.1999 12.2214 42.2264 12.2414 42.2539C12.2564 42.2749 12.2734 42.2939 12.2839 42.3179C12.2974 42.3479 12.2969 42.3714 12.3189 42.3989C12.3539 42.4419 12.3594 42.4939 12.3924 42.5394C12.4279 42.5884 12.4669 42.6464 12.5069 42.6914C12.5269 42.7134 12.5479 42.7344 12.5684 42.7554C12.5894 42.7769 12.6039 42.8014 12.6229 42.8234C12.6864 42.8964 12.7649 42.9724 12.8474 43.0229C12.9349 43.0764 13.0114 43.1479 13.1014 43.2034C13.1999 43.2644 13.3029 43.2684 13.4154 43.2799C13.5224 43.2909 13.6294 43.3019 13.7364 43.3129L13.7524 43.3144C13.8669 43.3264 13.9819 43.3379 14.0964 43.3499C14.1404 43.3544 14.1804 43.3569 14.2219 43.3709C14.2424 43.3779 14.2569 43.3814 14.2789 43.3844C14.3069 43.3879 14.3119 43.3999 14.3339 43.4129C14.4159 43.4619 14.5219 43.51 14.5129 43.6235C14.5094 43.667 14.5194 43.703 14.5164 43.7455C14.5124 43.7965 14.5079 43.83 14.5224 43.879C14.5389 43.933 14.5509 43.9665 14.5989 44.0015C14.6404 44.032 14.6799 44.0635 14.7219 44.093C14.7794 44.1335 14.8219 44.2025 14.8639 44.259C14.8964 44.3025 14.9099 44.338 14.9224 44.39C14.9339 44.437 14.9574 44.4755 14.9654 44.523C14.9739 44.577 14.9824 44.63 14.9889 44.6845C14.9959 44.7405 15.0014 44.796 15.0074 44.852C15.0124 44.896 15.0424 44.956 15.0329 45L35.357 44.902C35.3625 44.882 35.3525 44.859 35.349 44.8395C35.345 44.8165 35.3445 44.7925 35.342 44.77C35.3365 44.717 35.311 44.6705 35.302 44.619C35.293 44.568 35.293 44.522 35.2795 44.471C35.264 44.412 35.256 44.3515 35.2445 44.2915C35.235 44.243 35.244 44.1975 35.2305 44.1505C35.218 44.108 35.224 44.0705 35.2285 44.0275C35.2395 43.921 35.2505 43.8145 35.2615 43.708C35.2715 43.613 35.281 43.518 35.291 43.4234C35.2945 43.3874 35.294 43.3484 35.3035 43.3139C35.311 43.2869 35.3215 43.2644 35.3255 43.2359C35.328 43.2149 35.326 43.1914 35.331 43.1709C35.336 43.1504 35.348 43.1334 35.353 43.1124C35.3735 43.0239 35.3625 42.9319 35.391 42.8464C35.4055 42.8019 35.4005 42.7529 35.408 42.7069C35.414 42.6689 35.4305 42.6259 35.4455 42.5894C35.466 42.5404 35.497 42.5044 35.529 42.4629C35.558 42.4249 35.5795 42.3834 35.606 42.3434C35.6365 42.2979 35.6445 42.2669 35.6495 42.2129C35.6535 42.1694 35.643 42.1319 35.6475 42.0884L35.639 42.0294C35.6135 41.9889 35.613 41.9329 35.5885 41.8899C35.5595 41.8374 35.526 41.7869 35.4955 41.7349C35.452 41.6619 35.4 41.5944 35.3555 41.5214C35.3305 41.4804 35.316 41.4374 35.2925 41.3954C35.268 41.3509 35.248 41.3059 35.2225 41.2609C35.1915 41.2059 35.163 41.1474 35.1415 41.0879C35.122 41.0344 35.104 40.9794 35.0855 40.9254C35.071 40.8829 35.0535 40.8379 35.0445 40.7939C35.035 40.7459 35.021 40.6994 35.0155 40.6509C35.0105 40.6074 35.017 40.5654 35.0215 40.5219C35.0305 40.4339 35.055 40.3334 35.0395 40.2454C35.035 40.2199 35.028 40.2004 35.019 40.1769C35.009 40.1494 35.008 40.1164 34.9945 40.0904C34.982 40.0659 34.9575 40.0534 34.9435 40.0309C34.9285 40.0069 34.92 39.9799 34.9015 39.9574C34.8865 39.9394 34.863 39.9264 34.8505 39.9059C34.8375 39.8839 34.829 39.8524 34.819 39.8289C34.802 39.7894 34.7885 39.7364 34.786 39.6944L34.7875 39.6799C34.7985 39.5748 34.8155 39.4783 34.848 39.3793C34.873 39.3033 34.878 39.2233 34.8865 39.1413C34.8915 39.0943 34.8845 39.0518 34.8865 39.0053C34.889 38.9568 34.8705 38.8988 34.851 38.8533C34.808 38.7518 34.733 38.6708 34.7425 38.5558C34.756 38.3898 34.7985 38.2208 34.765 38.0573C34.7575 38.0213 34.7485 37.9798 34.7335 37.9458C34.723 37.9223 34.7059 37.9028 34.6949 37.8798C34.6859 37.8603 34.6829 37.8388 34.6734 37.8193C34.6604 37.7928 34.6444 37.7768 34.6374 37.7478C34.6324 37.7268 34.6309 37.7193 34.6194 37.6998C34.5954 37.6578 34.5869 37.6063 34.5714 37.5603C34.5629 37.5353 34.5489 37.5138 34.5399 37.4893C34.5304 37.4628 34.5294 37.4343 34.5254 37.4063C34.5184 37.3583 34.5199 37.3198 34.5249 37.2713C34.5294 37.2268 34.5344 37.1823 34.5384 37.1378C34.5424 37.0938 34.5614 37.0613 34.5654 37.0173L34.5669 37.0028C34.5904 36.9848 34.6044 36.9458 34.6224 36.9213C34.6414 36.8958 34.6669 36.8758 34.6859 36.8508C34.715 36.8123 34.7099 36.7473 34.7149 36.7008C34.727 36.5848 34.7095 36.4728 34.7215 36.3563C34.727 36.3013 34.729 36.2573 34.755 36.2078C34.7785 36.1633 34.808 36.1253 34.838 36.0853C34.9205 35.9743 34.991 35.8552 35.063 35.7382C35.0845 35.7032 35.0935 35.6652 35.118 35.6322C35.1315 35.6137 35.1445 35.5957 35.1565 35.5757C35.1895 35.5207 35.2345 35.4682 35.2635 35.4117C35.313 35.3162 35.3235 35.1737 35.3075 35.0687C35.298 35.0062 35.287 34.9442 35.2755 34.8817C35.266 34.8317 35.2795 34.7757 35.285 34.7247C35.292 34.6582 35.2975 34.5912 35.3055 34.5242C35.312 34.4687 35.347 34.4087 35.372 34.3582C35.407 34.2887 35.4475 34.2252 35.49 34.1612C35.5075 34.1347 35.5165 34.1137 35.5395 34.0907C35.567 34.0637 35.584 34.0357 35.607 34.0052C35.629 33.9757 35.6595 33.9527 35.68 33.9222C35.698 33.8957 35.7095 33.8727 35.7325 33.8492C35.767 33.8137 35.8035 33.7532 35.8135 33.7027L35.847 33.6622C35.854 33.6222 35.894 33.5922 35.9025 33.5502C35.91 33.5117 35.9245 33.4807 35.9285 33.4412C35.9365 33.3582 35.9455 33.2757 35.954 33.1932C35.959 33.1452 35.9635 33.0967 35.969 33.0487C35.974 33.0017 35.9655 32.9617 35.968 32.9157C35.9715 32.8537 35.9485 32.8027 35.9275 32.7447C35.872 32.5907 35.8075 32.4407 35.756 32.2862C35.7285 32.2027 35.7305 32.1141 35.7095 32.0296C35.688 31.9431 35.654 31.8511 35.6645 31.7621C35.6265 31.7166 35.618 31.6286 35.6145 31.5701C35.6115 31.5191 35.6225 31.4656 35.6275 31.4146C35.63 31.3901 35.629 31.3631 35.6345 31.3391C35.6395 31.3166 35.6525 31.2981 35.657 31.2756C35.667 31.2286 35.672 31.1821 35.693 31.1376C35.707 31.1081 35.731 31.0901 35.738 31.0576C35.741 31.0441 35.7405 31.0251 35.7415 31.0111C35.744 30.9741 35.7415 30.9361 35.7315 30.9001C35.726 30.8801 35.7155 30.8666 35.714 30.8451C35.713 30.8251 35.7195 30.7991 35.7215 30.7791C35.726 30.7346 35.733 30.6956 35.749 30.6541C35.7615 30.6211 35.78 30.5916 35.802 30.5626C35.834 30.5201 35.8555 30.4766 35.8745 30.4271C35.9065 30.3451 35.908 30.2531 35.9165 30.1651C35.92 30.1256 35.927 30.0756 35.9465 30.0401C35.957 30.0216 35.978 30.0061 35.99 29.9866C36.005 29.9631 36.014 29.9401 36.033 29.9181C36.061 29.8861 36.0765 29.8566 36.0945 29.8181C36.11 29.7856 36.1425 29.7326 36.14 29.6956L36.1415 29.6811C36.1415 29.6186 36.1905 29.5791 36.2025 29.5231C36.2145 29.4691 36.2135 29.4081 36.219 29.3531C36.2245 29.3011 36.2225 29.2446 36.242 29.1961C36.2665 29.1351 36.321 29.0846 36.372 29.0441C36.422 29.0046 36.475 28.9556 36.532 28.9271C36.5735 28.9066 36.615 28.8921 36.65 28.8591C36.721 28.7926 36.6585 28.6791 36.74 28.6206C36.822 28.5616 36.946 28.6176 37.0005 28.5066C37.022 28.4626 37.009 28.4096 37.0215 28.3636C37.028 28.3381 37.0365 28.3366 37.056 28.3176C37.074 28.3005 37.081 28.2815 37.0945 28.262C37.193 28.1185 37.197 27.9195 37.166 27.751C37.149 27.6585 37.119 27.5655 37.0955 27.4745C37.082 27.4225 37.065 27.378 37.041 27.33C37.022 27.292 36.9955 27.244 36.9655 27.2135L36.957 27.1395C36.9165 27.112 36.943 27.059 36.963 27.0255C36.992 26.976 37.011 26.9255 37.0295 26.8715C37.0515 26.807 37.087 26.7465 37.1155 26.684C37.136 26.6385 37.1635 26.5855 37.1765 26.5375C37.187 26.498 37.1945 26.4355 37.1915 26.3945C37.1885 26.355 37.188 26.3155 37.182 26.276C37.17 26.195 37.1835 26.1155 37.192 26.034C37.1965 25.9895 37.194 25.9355 37.206 25.893C37.2165 25.856 37.241 25.824 37.2535 25.788C37.2685 25.7435 37.286 25.707 37.291 25.6595C37.2945 25.622 37.2985 25.5845 37.3025 25.547C37.305 25.5275 37.307 25.516 37.3005 25.498C37.2935 25.479 37.2825 25.462 37.2795 25.4405C37.276 25.415 37.281 25.3835 37.2855 25.358C37.2895 25.3335 37.3015 25.3125 37.3055 25.2875C37.3095 25.2635 37.307 25.2395 37.315 25.2165C37.327 25.182 37.3375 25.1455 37.347 25.1095C37.392 24.938 37.5565 24.8095 37.577 24.6305L37.594 24.584C37.6175 24.518 37.6265 24.4469 37.646 24.3794C37.664 24.3179 37.69 24.2554 37.724 24.2009C37.742 24.1719 37.7625 24.1359 37.786 24.1114C37.8185 24.0769 37.864 24.0574 37.9015 24.0294C37.953 23.9914 38.001 23.9459 37.9895 23.8769C37.985 23.8494 37.963 23.8274 37.954 23.8019C37.942 23.7689 37.9375 23.7164 37.939 23.6809C37.9405 23.6509 37.9445 23.6184 37.949 23.5889C37.9535 23.5599 37.9655 23.5534 37.985 23.5309C38.0245 23.4864 38.0645 23.4479 38.1115 23.4109C38.161 23.3719 38.219 23.3339 38.2635 23.2879C38.3085 23.2409 38.2815 23.1979 38.2585 23.1494C38.238 23.1059 38.2335 23.0514 38.2385 23.0039C38.244 22.9539 38.243 22.8984 38.257 22.8499C38.2765 22.7839 38.2955 22.7139 38.323 22.6509C38.33 22.6349 38.342 22.6224 38.349 22.6069C38.3595 22.5839 38.362 22.5644 38.3775 22.5424C38.4095 22.4969 38.445 22.4179 38.4035 22.3714C38.388 22.3549 38.3725 22.3399 38.349 22.3289Z" fill="white"/>
</svg>
