<svg width="46" height="45" viewBox="0 0 46 45" fill="none" xmlns="http://www.w3.org/2000/svg">
<path d="M29.9777 14.3532L28.8779 15.9244L27.5947 9.43L17.5912 11.7345L15.0773 0.0550201L15.0913 0C15.0659 0.025435 15.0602 0.06685 15.0384 0.095655C15.0169 0.124235 15.0018 0.157285 14.9787 0.184485C14.9246 0.24806 14.8497 0.30685 14.8073 0.37918C14.7777 0.42964 14.7292 0.460435 14.6876 0.502875C14.6422 0.549345 14.6011 0.538165 14.539 0.538165C14.495 0.538165 14.44 0.528345 14.3973 0.537435C14.3441 0.54878 14.2627 0.57827 14.226 0.62286C14.1936 0.662035 14.1956 0.71261 14.206 0.75754C14.2198 0.81736 14.2672 0.87466 14.2284 0.934705C14.1875 0.998035 14.128 1.03694 14.074 1.08734C14.0537 1.10628 14.0234 1.13087 14.0086 1.15372C13.9919 1.1794 13.9876 1.23308 13.9863 1.26359C13.9831 1.3385 13.9859 1.4082 14.0079 1.48006C14.0262 1.54015 14.0459 1.59603 14.0716 1.65309C14.1267 1.77545 14.1855 1.90725 14.2716 2.01064C14.3211 2.07006 14.355 2.14207 14.4042 2.20084C14.4563 2.26295 14.499 2.32833 14.5286 2.40437C14.5415 2.43734 14.5574 2.47111 14.5641 2.50597C14.5729 2.5516 14.5886 2.60151 14.5945 2.64709C14.5989 2.68097 14.592 2.71537 14.5968 2.7492C14.6019 2.78569 14.61 2.81286 14.6097 2.8498C14.6095 2.8866 14.6091 2.9235 14.6094 2.9603C14.6098 2.99868 14.6232 3.03192 14.6242 3.07009C14.6252 3.10546 14.6243 3.14119 14.6239 3.17658C14.6236 3.21148 14.6435 3.25353 14.6381 3.28562L14.6522 3.29978C14.6522 3.34226 14.6523 3.38475 14.6522 3.42724C14.6521 3.48049 14.6669 3.51853 14.6774 3.56919C14.6812 3.58725 14.6798 3.60161 14.6882 3.61776C14.7004 3.64118 14.7213 3.67163 14.7369 3.6939C14.7541 3.71856 14.7778 3.72646 14.7997 3.74533C14.8229 3.76535 14.847 3.80023 14.8647 3.82614C14.9377 3.93362 14.986 4.03662 15.0059 4.16682C15.0132 4.21444 15.0243 4.25955 15.0354 4.30529C15.0463 4.35015 15.0448 4.40074 15.0553 4.44688C15.0662 4.4951 15.0768 4.54184 15.0881 4.58817C15.0939 4.61205 15.0885 4.63529 15.0924 4.65934C15.0969 4.68651 15.1049 4.70966 15.1056 4.73776C15.1064 4.77299 15.1119 4.81626 15.1062 4.85053C15.098 4.90002 15.0451 4.94108 15.0132 4.97922C14.9769 5.02263 14.9675 5.0789 14.9285 5.12016C14.8726 5.17924 14.8102 5.23112 14.7614 5.29659C14.738 5.32791 14.7135 5.36302 14.6938 5.3965C14.679 5.42147 14.6802 5.43471 14.6805 5.46644C14.681 5.53009 14.6917 5.58669 14.7088 5.64824C14.7375 5.75088 14.7394 5.90577 14.6951 6.00512C14.6699 6.06156 14.6406 6.10785 14.6097 6.1602C14.5756 6.21814 14.5249 6.28796 14.5248 6.3588V6.37296C14.5248 6.4291 14.5112 6.50301 14.5276 6.55707C14.5349 6.58116 14.5515 6.60365 14.56 6.62788C14.5732 6.66533 14.596 6.67506 14.6158 6.70698C14.63 6.72993 14.6363 6.759 14.6487 6.78361C14.6633 6.81248 14.6807 6.83979 14.6951 6.86863C14.7228 6.92431 14.7511 6.98818 14.7627 7.04959C14.7757 7.11832 14.7534 7.17135 14.723 7.23151C14.707 7.2632 14.695 7.29482 14.6809 7.32714C14.6694 7.35368 14.6484 7.37885 14.6409 7.40712C14.6271 7.45977 14.6381 7.52522 14.6381 7.57994C14.6381 7.64497 14.6381 7.70999 14.6381 7.77501L14.6172 7.84713C14.6172 7.87982 14.6172 7.9125 14.6172 7.94519C14.6172 7.98237 14.6224 8.01737 14.6286 8.05389C14.6409 8.12588 14.648 8.20001 14.6814 8.26534C14.7143 8.32972 14.7458 8.39653 14.7762 8.46209C14.7921 8.49648 14.8149 8.52915 14.8508 8.54429C14.8857 8.55898 14.9188 8.58001 14.9299 8.61893C14.9513 8.69399 14.8999 8.75747 14.8717 8.81997C14.8456 8.87784 14.8209 8.94386 14.8323 9.00832C14.839 9.04617 14.8627 9.07467 14.8777 9.10884C14.8888 9.1343 14.8992 9.15984 14.9124 9.18415C14.9255 9.20816 14.9276 9.23055 14.9322 9.25699C14.9443 9.32641 14.9418 9.39683 14.9255 9.46515C14.9157 9.50658 14.9088 9.53872 14.8776 9.57087C14.8476 9.60185 14.8107 9.61939 14.7706 9.6339C14.7522 9.64055 14.7345 9.64659 14.7149 9.6475C14.6983 9.64827 14.6813 9.64513 14.6649 9.64903C14.6314 9.65696 14.585 9.6554 14.5559 9.67796H14.5483C14.5204 9.681 14.533 9.81438 14.533 9.83844C14.533 9.87245 14.5322 9.90368 14.5388 9.93671C14.546 9.97345 14.5654 10.0015 14.5866 10.0324C14.6173 10.0772 14.6738 10.1298 14.6407 10.1899C14.621 10.2258 14.5847 10.2591 14.5574 10.2891C14.5263 10.3233 14.5041 10.3642 14.4734 10.3986C14.4284 10.4489 14.3834 10.5096 14.366 10.5758C14.3562 10.6126 14.3647 10.6597 14.3645 10.6975C14.3643 10.7258 14.369 10.7534 14.3738 10.781C14.3761 10.7943 14.3831 10.808 14.3857 10.8212C14.3882 10.8342 14.3868 10.8463 14.3891 10.8592C14.3951 10.8918 14.395 10.9231 14.3951 10.9568C14.3951 10.9773 14.3927 10.9989 14.3957 11.0191C14.398 11.0342 14.4023 11.0471 14.4029 11.0625C14.4034 11.0763 14.4009 11.0908 14.4023 11.1045C14.4039 11.1199 14.4127 11.1329 14.4104 11.1488V11.1564C14.4104 11.2046 14.4193 11.2622 14.4092 11.3091C14.3998 11.3528 14.3774 11.4042 14.3568 11.4433C14.3479 11.4601 14.3369 11.4756 14.3305 11.4935C14.3239 11.512 14.3201 11.5295 14.3108 11.5471C14.2957 11.5757 14.2854 11.609 14.2762 11.64C14.2693 11.6636 14.2602 11.6839 14.2553 11.7078C14.2453 11.757 14.2438 11.8079 14.2683 11.8531C14.2988 11.9095 14.3388 11.9637 14.387 12.0067C14.4344 12.049 14.4932 12.0712 14.5331 12.1234C14.5666 12.167 14.5794 12.2245 14.579 12.2786C14.5785 12.3412 14.5191 12.3813 14.4682 12.4085C14.4122 12.4384 14.3316 12.5036 14.3259 12.573C14.3238 12.5989 14.3261 12.6259 14.3261 12.6519C14.3261 12.671 14.3167 12.7209 14.3338 12.7345L14.3185 12.8111C14.3185 12.8309 14.3187 12.8508 14.3185 12.8707C14.3182 12.8988 14.3291 12.9246 14.3331 12.9524C14.3403 13.002 14.3414 13.0509 14.3414 13.1024C14.3414 13.2248 14.356 13.3559 14.3091 13.4719C14.3035 13.4858 14.2983 13.497 14.2945 13.5114C14.2922 13.5204 14.2879 13.531 14.2826 13.5388C14.2654 13.5639 14.2326 13.5792 14.2109 13.6001C14.1604 13.6488 14.1077 13.695 14.0565 13.7435C14.0022 13.7949 13.9307 13.8325 13.8674 13.8717C13.8366 13.8908 13.809 13.9173 13.7853 13.9445C13.7584 13.9755 13.7442 14.0102 13.721 14.0432C13.706 14.0645 13.6885 14.0829 13.675 14.1055C13.6536 14.1413 13.637 14.1827 13.6214 14.2216C13.6036 14.2661 13.5838 14.3191 13.5763 14.3665C13.5729 14.3877 13.5699 14.4357 13.5524 14.4504V14.458C13.552 14.4848 13.55 14.499 13.5295 14.5195C13.5064 14.5427 13.4923 14.5701 13.47 14.594C13.4235 14.6438 13.3817 14.6985 13.3344 14.7482C13.2221 14.8663 13.1086 14.9831 13.0129 15.1162C12.9876 15.1515 12.9674 15.1924 12.9474 15.2309C12.9305 15.2633 12.9168 15.2971 12.9011 15.3302C12.8868 15.3604 12.87 15.3881 12.8588 15.4197C12.833 15.4928 12.8061 15.5612 12.7923 15.6376C12.7859 15.6732 12.7731 15.7075 12.7653 15.7429C12.7556 15.787 12.7503 15.8325 12.7385 15.8762C12.7316 15.9017 12.7226 15.9267 12.7155 15.9524C12.7083 15.9786 12.701 16.0135 12.6872 16.0362C12.6697 16.0648 12.6433 16.0897 12.6169 16.1098C12.5921 16.1286 12.5707 16.1518 12.5489 16.174C12.5247 16.1985 12.4949 16.2269 12.4648 16.2435C12.4289 16.2633 12.3762 16.27 12.3497 16.3042L12.3114 16.3425C12.2445 16.3426 12.1749 16.372 12.1198 16.4096C12.081 16.4359 12.0491 16.4667 12.0181 16.5018C11.9966 16.5262 11.9833 16.5533 11.9638 16.5792C11.9413 16.6093 11.9208 16.6379 11.9051 16.6725C11.8929 16.6992 11.8851 16.7254 11.8749 16.7523C11.8648 16.779 11.8569 16.8056 11.848 16.8328C11.8432 16.8476 11.8351 16.8588 11.8286 16.8726C11.8186 16.8936 11.815 16.9176 11.8041 16.9383C11.7656 17.0114 11.7092 17.0754 11.6618 17.1434C11.65 17.1603 11.6418 17.1798 11.628 17.1951C11.6168 17.2074 11.6049 17.2176 11.5951 17.2312C11.5751 17.2588 11.553 17.2682 11.5211 17.279C11.4382 17.3069 11.3525 17.3291 11.276 17.3703C11.2567 17.3807 11.2433 17.3975 11.2238 17.4075C11.2015 17.4189 11.1843 17.4297 11.1644 17.4454C11.1207 17.48 11.0721 17.5049 11.0248 17.5338C10.9963 17.5512 10.9769 17.581 10.9513 17.6024C10.9065 17.6398 10.8658 17.6771 10.832 17.7252C10.803 17.7666 10.7691 17.8039 10.7442 17.8481C10.733 17.8681 10.7226 17.8882 10.7103 17.9075C10.6988 17.9254 10.6959 17.9397 10.6874 17.9588L10.6798 17.9665C10.6516 17.9906 10.6247 17.9993 10.59 18.0106C10.5659 18.0183 10.5416 18.0289 10.5177 18.0354C10.444 18.0555 10.3723 18.0584 10.2963 18.0584C10.2666 18.0584 10.241 18.059 10.2127 18.049C10.185 18.0392 10.1621 18.0205 10.1364 18.0053C10.1001 17.9838 10.0621 17.9548 10.0361 17.9222C10.0145 17.8951 9.9903 17.8692 9.96697 17.8436C9.94595 17.8205 9.92725 17.7941 9.90774 17.7696C9.89281 17.7508 9.88164 17.7255 9.86946 17.7047C9.85313 17.6767 9.85168 17.6433 9.83544 17.6153C9.81654 17.5827 9.79853 17.5517 9.785 17.5161C9.77591 17.4921 9.76624 17.4736 9.75325 17.4517C9.72489 17.4039 9.67845 17.3296 9.61688 17.3226C9.59219 17.3199 9.56477 17.3232 9.53989 17.323C9.51397 17.3229 9.49703 17.3278 9.47708 17.346L9.46942 17.3537C9.45399 17.3656 9.44808 17.3831 9.439 17.3996C9.4301 17.4158 9.41701 17.4295 9.40796 17.4454C9.38602 17.4839 9.36709 17.5266 9.35069 17.5681C9.33595 17.6053 9.3223 17.6453 9.30097 17.6794C9.28218 17.7095 9.25674 17.7362 9.23961 17.7673C9.22101 17.8011 9.18807 17.826 9.1613 17.8534C9.13133 17.8841 9.08887 17.9034 9.04777 17.9151C9.02176 17.9226 8.99439 17.9258 8.97 17.9376C8.93477 17.9545 8.90404 17.976 8.86901 17.9933C8.79222 18.0313 8.72112 18.0878 8.69746 18.1737C8.6938 18.1869 8.69006 18.1996 8.68597 18.2128C8.67834 18.2373 8.68191 18.2622 8.67891 18.2873C8.6698 18.3634 8.6566 18.4402 8.65725 18.517C8.65804 18.6108 8.65742 18.7046 8.65742 18.7983C8.65742 18.8577 8.65971 18.9176 8.65778 18.977C8.65644 19.0182 8.63504 19.0606 8.61185 19.0943C8.58496 19.1334 8.56411 19.1769 8.52719 19.2079C8.49107 19.2382 8.45507 19.2645 8.41186 19.2844C8.36231 19.3073 8.2936 19.3047 8.24014 19.2991C8.20825 19.2958 8.17839 19.2821 8.14728 19.2743C8.13219 19.2706 8.11396 19.2586 8.09821 19.2611H8.09055C8.07372 19.2611 8.05525 19.2636 8.03863 19.2615C8.02375 19.2596 8.01018 19.2546 7.99517 19.2532C7.97225 19.2512 7.95244 19.2456 7.92834 19.2458C7.89824 19.2459 7.8681 19.246 7.838 19.2458C7.81231 19.2456 7.80051 19.2531 7.77704 19.2609C7.69473 19.2883 7.64149 19.3645 7.60028 19.4372C7.58362 19.4667 7.56421 19.4947 7.54648 19.5234C7.52958 19.5509 7.52243 19.5834 7.51126 19.6134C7.48901 19.6731 7.49602 19.7524 7.51772 19.8128C7.53463 19.8599 7.56859 19.9001 7.59283 19.9429C7.60544 19.9651 7.61692 19.9875 7.62549 20.0116C7.63747 20.0452 7.61144 20.0431 7.58533 20.0484C7.55474 20.0546 7.52883 20.0509 7.49884 20.0634C7.46773 20.0763 7.44807 20.1049 7.43175 20.1344L7.40877 20.1803C7.40851 20.1972 7.41127 20.2145 7.40523 20.2304C7.40039 20.2431 7.39595 20.2526 7.39212 20.2658C7.37889 20.3113 7.34425 20.3417 7.31853 20.3794C7.29404 20.4152 7.274 20.4535 7.24791 20.4884C7.2251 20.519 7.21018 20.5541 7.19792 20.5898C7.18635 20.6235 7.18664 20.6599 7.18663 20.6953C7.1866 20.7462 7.18207 20.7987 7.19204 20.8487C7.20133 20.8953 7.22255 20.9389 7.23174 20.9856C7.23928 21.024 7.25041 21.0596 7.26612 21.0954C7.27562 21.117 7.27971 21.1408 7.28795 21.163C7.29582 21.1841 7.30948 21.2027 7.31725 21.2238C7.33255 21.2655 7.34363 21.3099 7.35726 21.3524C7.3624 21.3684 7.36599 21.3856 7.36954 21.4022C7.37329 21.4197 7.38092 21.4367 7.3843 21.4541C7.39179 21.4925 7.40178 21.5356 7.4013 21.5749C7.40094 21.6036 7.409 21.6452 7.39978 21.6724C7.39705 21.6805 7.38971 21.6894 7.38614 21.6975C7.3814 21.7082 7.37734 21.718 7.37076 21.7279C7.35736 21.7481 7.34318 21.7699 7.32863 21.7893C7.30479 21.821 7.2697 21.8314 7.23279 21.8407C7.19483 21.8503 7.15885 21.8584 7.11978 21.858C7.09705 21.8577 7.07825 21.8639 7.05622 21.866C7.03836 21.8677 7.01883 21.8658 7.00086 21.8656C6.96183 21.8654 6.91742 21.8771 6.88753 21.9038C6.85644 21.9315 6.85237 21.9832 6.84884 22.0221C6.84597 22.0538 6.84182 22.0826 6.84192 22.1146C6.84201 22.1414 6.84191 22.1682 6.84191 22.195V22.2027C6.842 22.2199 6.85434 22.2295 6.86492 22.241C6.87669 22.2538 6.88592 22.2666 6.89553 22.2812C6.91411 22.3094 6.93432 22.3416 6.95815 22.3655C6.97486 22.3823 6.99164 22.399 7.00831 22.4158C7.02286 22.4305 7.03986 22.4343 7.05811 22.4418C7.0757 22.4491 7.09141 22.4599 7.11018 22.4635C7.12326 22.466 7.13633 22.4683 7.14966 22.471C7.19442 22.4801 7.24052 22.4786 7.28488 22.4938C7.31452 22.504 7.35198 22.5144 7.3708 22.5409C7.3935 22.5728 7.39362 22.6153 7.39346 22.6525C7.39334 22.68 7.40128 22.7208 7.39212 22.7466C7.38718 22.7514 7.38314 22.757 7.37999 22.7632C7.37816 22.7729 7.37513 22.7821 7.3709 22.791C7.36176 22.8066 7.35118 22.8146 7.34524 22.8328C7.33442 22.8659 7.33983 22.904 7.33983 22.9386C7.33983 22.9575 7.3366 22.9805 7.34117 22.9988C7.35223 23.0432 7.37279 23.0771 7.39904 23.1137C7.42996 23.1568 7.4483 23.2065 7.47772 23.2502C7.49675 23.2784 7.51755 23.3042 7.539 23.3304C7.56236 23.359 7.57977 23.3919 7.60029 23.4226C7.62022 23.4524 7.63696 23.4963 7.66923 23.5126V23.5203C7.67064 23.5336 7.68077 23.5475 7.68623 23.5599C7.69174 23.5723 7.69792 23.584 7.70048 23.5974C7.70134 23.6019 7.69837 23.6076 7.69946 23.6122C7.70671 23.6426 7.71698 23.6827 7.70018 23.7116C7.67472 23.7553 7.62901 23.7896 7.58477 23.8113C7.53995 23.8334 7.50007 23.8644 7.45624 23.8883C7.41483 23.911 7.37253 23.9266 7.32495 23.9262C7.30248 23.926 7.27797 23.9312 7.25768 23.9197C7.24254 23.9111 7.23114 23.8931 7.21748 23.8822C7.20175 23.8696 7.18672 23.8578 7.17247 23.8433C7.13927 23.8096 7.10285 23.778 7.07158 23.7426C7.04418 23.7117 7.02154 23.672 6.9783 23.6597C6.96246 23.6552 6.9372 23.6539 6.926 23.6666C6.91031 23.6843 6.90162 23.7131 6.88827 23.7329C6.88045 23.7444 6.86943 23.7533 6.86172 23.7651C6.85382 23.7772 6.84835 23.7907 6.84176 23.8035C6.82342 23.8392 6.82137 23.8782 6.8132 23.9171C6.80003 23.9797 6.8066 24.0404 6.80401 24.104C6.80244 24.1424 6.79583 24.1784 6.79598 24.2173C6.79615 24.261 6.79677 24.3027 6.79017 24.3458C6.78354 24.389 6.77559 24.4232 6.75574 24.4625C6.73588 24.5018 6.70719 24.545 6.67527 24.5759C6.62328 24.6261 6.55709 24.6587 6.48763 24.6771C6.39287 24.7022 6.30437 24.7189 6.20595 24.7158C6.15156 24.7141 6.1138 24.6867 6.06839 24.6638C6.02362 24.6411 6.00037 24.5966 5.9993 24.5467C5.99883 24.5248 5.99747 24.5063 6.00641 24.4858C6.02071 24.4531 6.04503 24.4288 6.06091 24.3976C6.08515 24.35 6.09892 24.3009 6.09885 24.248H6.10651C6.10515 24.1939 6.13742 24.1375 6.15095 24.0858C6.15801 24.0589 6.15389 24.0233 6.15284 23.9952C6.15185 23.9688 6.13565 23.9421 6.12373 23.9186C6.06074 23.7945 5.96353 23.6914 5.86513 23.593C5.84772 23.5755 5.83115 23.5577 5.81158 23.5432C5.78793 23.5257 5.76263 23.5108 5.73844 23.4935C5.71462 23.4764 5.69355 23.4565 5.66286 23.4517C5.63817 23.4478 5.61064 23.4513 5.5856 23.4513C5.50547 23.4513 5.42328 23.4478 5.34461 23.4628C5.31962 23.4675 5.29525 23.4666 5.26983 23.4666C5.2449 23.4666 5.21487 23.4713 5.19173 23.4594C5.15588 23.4409 5.1387 23.3952 5.12601 23.3594C5.11097 23.3169 5.09855 23.2705 5.08036 23.2294C5.07138 23.2091 5.06416 23.1944 5.0438 23.1848C5.03102 23.1787 5.01669 23.1728 5.00342 23.1677C4.9688 23.1543 4.94058 23.1525 4.90383 23.1526H4.89617C4.89376 23.1733 4.88308 23.1999 4.87547 23.2196C4.86898 23.2365 4.85718 23.2495 4.85191 23.2671C4.84672 23.2845 4.84148 23.3023 4.83662 23.3197C4.82976 23.3444 4.8196 23.3706 4.81937 23.396C4.81918 23.4165 4.81161 23.432 4.81193 23.4526C4.81281 23.509 4.79598 23.5593 4.7506 23.5972C4.72579 23.618 4.6953 23.6364 4.66636 23.6505C4.63434 23.6661 4.60625 23.6887 4.57446 23.7045C4.50907 23.7369 4.44158 23.7605 4.38283 23.8056C4.33512 23.8422 4.33204 23.9001 4.32332 23.955C4.31651 23.998 4.31447 24.0421 4.30806 24.0854C4.30144 24.1301 4.30391 24.1813 4.31191 24.2254C4.31812 24.2596 4.324 24.2953 4.33293 24.3287C4.33615 24.3407 4.34269 24.3512 4.34675 24.3627C4.35175 24.3768 4.34845 24.3972 4.3676 24.4012L4.35229 24.4702C4.29997 24.5058 4.26833 24.5703 4.22394 24.614C4.1817 24.6555 4.14202 24.6987 4.10678 24.7461C4.07875 24.7838 4.05891 24.8366 4.04778 24.8819C4.04243 24.9037 4.03815 24.923 4.03824 24.9455C4.03837 24.9777 4.04458 24.9997 4.05355 25.0302C4.06442 25.0672 4.08197 25.1 4.09567 25.136C4.11619 25.1899 4.13103 25.2465 4.14927 25.3014C4.16163 25.3385 4.1759 25.3753 4.18786 25.4124C4.19433 25.4325 4.19051 25.4535 4.19114 25.4743C4.19194 25.5011 4.1996 25.5313 4.20504 25.5579C4.21166 25.5903 4.20657 25.6284 4.20673 25.6613C4.20688 25.6943 4.20638 25.7133 4.18601 25.7393C4.14945 25.7861 4.11833 25.837 4.08055 25.8835C4.02137 25.9563 3.96125 26.0303 3.89266 26.0938C3.85625 26.1275 3.82666 26.1706 3.79367 26.2077C3.7786 26.2247 3.76292 26.2395 3.75068 26.2588C3.73994 26.2758 3.73293 26.2961 3.71648 26.3087L3.70882 26.3163C3.71158 26.3405 3.6935 26.3615 3.68735 26.3836C3.68032 26.4088 3.67558 26.4368 3.67118 26.4625C3.66325 26.5089 3.66882 26.567 3.68175 26.6116C3.70281 26.6843 3.76075 26.7521 3.82543 26.7912C3.87431 26.8208 3.92859 26.8504 3.96536 26.8952C4.02191 26.9641 4.03941 27.0546 4.03839 27.1421C4.03761 27.209 4.03821 27.276 4.03821 27.343C4.03821 27.4359 4.03384 27.5299 4.03814 27.6227C4.04015 27.666 4.06167 27.7076 4.07081 27.7502C4.07604 27.7745 4.07911 27.7926 4.09215 27.8142C4.11154 27.8464 4.12649 27.8776 4.14105 27.9125C4.15664 27.9499 4.17616 27.9768 4.20364 28.0063C4.24832 28.0541 4.28511 28.1256 4.28334 28.1931L4.291 28.2697C4.29126 28.2966 4.28883 28.3177 4.30157 28.3422C4.30896 28.3564 4.31603 28.3698 4.32162 28.3846C4.32753 28.4003 4.32881 28.4112 4.32911 28.4283C4.32954 28.4535 4.33716 28.4761 4.33695 28.5016C4.33681 28.5187 4.33753 28.5359 4.33712 28.553C4.33655 28.5771 4.32761 28.5977 4.32145 28.6208C4.30975 28.6646 4.29006 28.7025 4.25653 28.7335C4.22322 28.7642 4.18176 28.7819 4.1368 28.7889C4.06164 28.8007 3.9854 28.7983 3.90954 28.7983C3.88233 28.7983 3.85512 28.7983 3.82792 28.7983C3.76774 28.7981 3.71255 28.8157 3.65821 28.8427C3.63017 28.8567 3.60059 28.8617 3.57224 28.8747C3.54875 28.8855 3.52606 28.9011 3.50329 28.9136C3.45582 28.9395 3.40576 28.9707 3.37905 29.0204C3.36726 29.0424 3.35485 29.0638 3.34402 29.0861C3.33114 29.1126 3.32945 29.1376 3.32391 29.166C3.31161 29.2292 3.31401 29.3029 3.31774 29.3676C3.31995 29.4059 3.33302 29.4442 3.33941 29.4816C3.34456 29.5117 3.34253 29.5414 3.34872 29.5719C3.35684 29.612 3.36847 29.6512 3.37568 29.6914C3.3816 29.7245 3.38717 29.7562 3.39681 29.7883C3.40356 29.8108 3.39999 29.8319 3.4041 29.8547C3.41728 29.9277 3.41006 30.0051 3.41006 30.0794C3.41006 30.1281 3.41874 30.1833 3.38783 30.225C3.3661 30.2544 3.33584 30.2742 3.31776 30.3075C3.30399 30.3329 3.28193 30.3561 3.2737 30.3838C3.2557 30.4444 3.25637 30.499 3.25703 30.5619C3.25777 30.6333 3.24225 30.7038 3.24153 30.7747V30.7823C3.24153 30.8059 3.24131 30.8294 3.2415 30.853C3.24165 30.8709 3.2419 30.8862 3.23597 30.9034C3.2304 30.9196 3.22906 30.9348 3.22469 30.9512C3.20636 31.0202 3.12566 31.0404 3.06558 31.0562C3.03432 31.0644 3.00303 31.0734 2.9715 31.0793C2.93556 31.0861 2.89483 31.0811 2.85833 31.0811C2.84275 31.0811 2.82714 31.0815 2.81157 31.0814C2.78312 31.0813 2.76094 31.0728 2.73406 31.0655C2.70673 31.0581 2.67845 31.0562 2.65116 31.0485C2.63391 31.0437 2.61779 31.0373 2.59994 31.0349C2.57072 31.031 2.54209 31.0273 2.51231 31.0274C2.49542 31.0275 2.47753 31.0257 2.46072 31.0269C2.43397 31.0287 2.40895 31.0421 2.38375 31.0505C2.34317 31.0639 2.30183 31.0776 2.26256 31.0943C2.24051 31.1036 2.22019 31.12 2.1999 31.1328C2.18712 31.1409 2.17621 31.146 2.16589 31.1576C2.15619 31.1685 2.14934 31.1799 2.1371 31.1883C2.10542 31.21 2.0669 31.2306 2.03102 31.2442C2.01054 31.252 1.99079 31.2584 1.97027 31.267C1.95462 31.2736 1.94072 31.2713 1.92431 31.2743C1.90365 31.2781 1.88291 31.2818 1.86229 31.286C1.82362 31.2938 1.78845 31.3067 1.75616 31.3307C1.7216 31.3564 1.68434 31.3852 1.65393 31.4159C1.62636 31.4437 1.59754 31.4726 1.57159 31.502C1.5589 31.5163 1.55141 31.5318 1.53644 31.5442C1.5186 31.5591 1.51097 31.5788 1.49496 31.5943L1.42601 31.625C1.42087 31.6453 1.38554 31.6683 1.37007 31.679C1.35098 31.6922 1.33314 31.7072 1.31495 31.7217C1.2778 31.7513 1.23855 31.7768 1.20061 31.8053C1.14061 31.8502 1.06872 31.8721 0.994729 31.8777C0.978569 31.879 0.964319 31.8846 0.948194 31.8857C0.934099 31.8866 0.919504 31.8854 0.905324 31.8854C0.874749 31.8854 0.844179 31.8855 0.813604 31.8854C0.798234 31.8854 0.777844 31.8797 0.768404 31.8937C0.760169 31.9058 0.767199 31.9355 0.767219 31.9501C0.767279 31.9896 0.767219 32.0292 0.767219 32.0687C0.767219 32.1033 0.767409 32.138 0.767234 32.1727C0.767029 32.2131 0.775839 32.2557 0.783269 32.2953C0.785884 32.3092 0.789039 32.3234 0.791904 32.3374C0.796519 32.3599 0.804169 32.3729 0.819164 32.3912C0.832574 32.4075 0.836749 32.4262 0.847439 32.4439C0.859664 32.4641 0.868049 32.4772 0.874434 32.5001C0.882074 32.5275 0.887754 32.5548 0.895559 32.5823C0.901394 32.6028 0.907869 32.61 0.918744 32.6281C0.932739 32.6514 0.940209 32.6755 0.956994 32.698C0.978944 32.7273 0.997899 32.7601 1.01025 32.7947C1.01808 32.8166 1.03133 32.8355 1.03743 32.8579C1.04462 32.8842 1.0551 32.9101 1.06061 32.9368C1.07159 32.9898 1.08104 33.0429 1.09083 33.0961C1.09745 33.1321 1.10377 33.1681 1.10409 33.2045C1.10462 33.2628 1.12253 33.3213 1.12747 33.3797C1.12913 33.3994 1.13132 33.4214 1.13642 33.4409C1.13982 33.4538 1.15608 33.4931 1.16555 33.5017V33.5094C1.16527 33.5375 1.1646 33.557 1.14991 33.582C1.13288 33.6109 1.10103 33.6331 1.07296 33.6511C1.0182 33.6862 0.963484 33.7123 0.916594 33.7583C0.897344 33.7772 0.880529 33.7978 0.874309 33.8235C0.867214 33.8528 0.866799 33.8786 0.866799 33.9093C0.866799 33.939 0.861349 33.9754 0.870279 34.0036C0.879924 34.034 0.900129 34.0537 0.923889 34.0728C0.950374 34.0941 0.972484 34.1214 0.996819 34.1452C1.02172 34.1695 1.04717 34.1834 1.06594 34.2142C1.07569 34.2302 1.08911 34.243 1.09689 34.2598C1.10366 34.2744 1.10904 34.2901 1.11568 34.3049C1.13523 34.3484 1.14841 34.3903 1.15979 34.4364C1.16545 34.4594 1.17343 34.4779 1.1732 34.5014C1.173 34.5221 1.17304 34.5427 1.17329 34.5634C1.17407 34.6288 1.12941 34.6638 1.0949 34.7121C1.07381 34.7416 1.04479 34.7689 1.02031 34.7958C1.00033 34.8177 0.992724 34.8501 0.983599 34.8784C0.967684 34.9276 0.958049 34.9827 0.958544 35.0342C0.958759 35.0567 0.956829 35.0799 0.959299 35.1022C0.961429 35.1215 0.970294 35.1378 0.974039 35.1564L0.981699 35.164C0.981904 35.1791 0.978864 35.1957 0.982859 35.2104C0.987644 35.228 1.00085 35.2351 1.01219 35.2477C1.03822 35.2766 1.06079 35.3045 1.09505 35.3255C1.11428 35.3373 1.13262 35.353 1.15561 35.3559C1.19064 35.3604 1.22995 35.3555 1.26529 35.3555C1.36896 35.3555 1.49501 35.3383 1.57192 35.4228C1.58905 35.4416 1.60602 35.4621 1.62631 35.4777C1.64572 35.4928 1.66557 35.5042 1.68108 35.5237C1.6964 35.543 1.70815 35.565 1.72264 35.585C1.75001 35.6227 1.76379 35.664 1.78046 35.7067C1.78811 35.7264 1.7971 35.7428 1.80288 35.7629C1.8113 35.7921 1.82684 35.8255 1.8393 35.8533C1.8457 35.8676 1.85653 35.8796 1.86305 35.8935C1.87176 35.912 1.87397 35.9285 1.88546 35.9456C1.92278 36.0011 1.9527 36.0585 2.00054 36.1063L2.03118 36.1369C2.06295 36.1315 2.09459 36.1645 2.11562 36.1831C2.14591 36.2099 2.17615 36.2369 2.20967 36.2597C2.23818 36.2791 2.25912 36.3053 2.28224 36.3305C2.30152 36.3515 2.32347 36.3721 2.34143 36.3942C2.37967 36.4412 2.41891 36.4863 2.46187 36.5293C2.48109 36.5486 2.49741 36.569 2.51556 36.5889C2.54079 36.6166 2.57957 36.634 2.61334 36.6505C2.63302 36.6602 2.66081 36.6661 2.68234 36.6714C2.69268 36.674 2.70236 36.6719 2.71288 36.6737C2.72748 36.6763 2.74033 36.6846 2.755 36.6876C2.78012 36.6928 2.80104 36.7 2.82403 36.7115C2.83361 36.7163 2.84337 36.7206 2.85252 36.7263C2.87303 36.7388 2.87827 36.7504 2.88371 36.773C2.89058 36.8015 2.89373 36.8358 2.88759 36.8651C2.87979 36.9022 2.85418 36.923 2.82957 36.9485C2.79 36.9896 2.77427 37.0536 2.77424 37.1089C2.77421 37.1652 2.76673 37.226 2.78321 37.2796C2.79341 37.3129 2.82056 37.3393 2.83553 37.3703C2.84582 37.3916 2.85898 37.4108 2.87007 37.4316C2.87805 37.4466 2.88527 37.4648 2.89681 37.4775V37.4852C2.89815 37.517 2.92775 37.5522 2.94587 37.5768C2.95593 37.5904 2.96729 37.5963 2.97937 37.6073C2.99019 37.6171 2.99684 37.6294 3.00781 37.6386C3.02607 37.654 3.05036 37.6656 3.07428 37.6694C3.08994 37.6719 3.10679 37.6666 3.12251 37.6687C3.13481 37.6704 3.14448 37.6763 3.15727 37.677C3.20815 37.6796 3.25961 37.6735 3.31047 37.6763C3.36615 37.6793 3.42333 37.7136 3.45218 37.7612C3.49446 37.8309 3.50878 37.9142 3.53091 37.9906C3.53878 38.0177 3.53601 38.0453 3.54093 38.0721C3.54779 38.1094 3.55771 38.1465 3.57074 38.1823C3.5982 38.2577 3.63575 38.3242 3.69284 38.3808C3.71492 38.4028 3.73786 38.4232 3.76376 38.4406C3.78138 38.4525 3.80017 38.4619 3.81677 38.4754C3.83008 38.4862 3.84066 38.4997 3.85435 38.5099C3.86561 38.5183 3.87872 38.5223 3.8908 38.5287C3.9048 38.5361 3.9163 38.5466 3.93067 38.5538C3.95057 38.5638 3.96859 38.5721 3.98458 38.588C3.99939 38.6027 4.01365 38.6162 4.03051 38.6286C4.06029 38.6506 4.09535 38.671 4.12283 38.6955C4.14617 38.7163 4.16352 38.7415 4.19141 38.7568L4.19907 38.7644C4.21644 38.7822 4.23897 38.8034 4.25996 38.8165C4.27834 38.828 4.3013 38.8258 4.32184 38.8257C4.34221 38.8256 4.36279 38.8247 4.38312 38.8255C4.41343 38.8268 4.43149 38.8404 4.45858 38.8517C4.49621 38.8674 4.50988 38.8879 4.53781 38.9159C4.55924 38.9374 4.58266 38.9505 4.59571 38.9788C4.6178 39.0267 4.64464 39.0735 4.66446 39.1228C4.68423 39.172 4.71142 39.2183 4.7392 39.2633C4.74845 39.2783 4.75312 39.2922 4.75959 39.3081C4.76646 39.3249 4.77924 39.3333 4.78971 39.3472C4.80368 39.3658 4.80988 39.3897 4.82149 39.4101C4.83923 39.4412 4.85033 39.4766 4.8732 39.5037C4.88659 39.5196 4.89332 39.5374 4.9055 39.554C4.91381 39.5654 4.92551 39.5734 4.93464 39.5839C4.94881 39.6001 4.96071 39.6192 4.97237 39.6372C4.98071 39.65 4.98791 39.6624 4.99518 39.6759C5.00895 39.7016 5.0301 39.7174 5.04171 39.745L5.07235 39.7909C5.08631 39.8058 5.09679 39.8231 5.11179 39.838C5.13494 39.8611 5.158 39.8842 5.1811 39.9073C5.20223 39.9285 5.22393 39.948 5.24086 39.9727C5.2573 39.9966 5.27437 40.0194 5.2928 40.0418C5.32448 40.0805 5.34426 40.1323 5.38799 40.1586C5.40814 40.1708 5.42905 40.1845 5.44958 40.1954C5.47119 40.2068 5.49355 40.2046 5.51706 40.2046C5.55272 40.2046 5.5884 40.205 5.62406 40.2046C5.64546 40.2044 5.66432 40.209 5.68507 40.2121C5.72249 40.2175 5.75836 40.231 5.79466 40.2412C5.81232 40.2461 5.82979 40.2504 5.84721 40.2559C5.86314 40.261 5.87681 40.267 5.89205 40.2737C5.90714 40.2805 5.92352 40.2813 5.93838 40.2884C5.95197 40.295 5.96126 40.3053 5.97586 40.3101C5.99243 40.3156 6.0055 40.3177 6.02069 40.3272C6.03866 40.3383 6.05743 40.3479 6.07717 40.3557C6.12039 40.3728 6.15756 40.401 6.19077 40.4344C6.2057 40.4494 6.22494 40.4612 6.23898 40.4762C6.24642 40.4841 6.25037 40.4944 6.25702 40.5032C6.27018 40.5206 6.28991 40.5373 6.30777 40.5498C6.32899 40.5647 6.35162 40.5723 6.37499 40.5573C6.38963 40.548 6.4027 40.5338 6.41675 40.5231C6.43133 40.5121 6.44983 40.5067 6.46487 40.4957C6.49311 40.4749 6.51414 40.4725 6.54965 40.4727C6.56579 40.4728 6.58149 40.4702 6.59637 40.4775C6.61915 40.4887 6.62849 40.5128 6.64271 40.5323C6.65805 40.5532 6.66883 40.5696 6.6789 40.5934C6.69051 40.6207 6.70214 40.6554 6.72129 40.6782C6.74524 40.7067 6.77712 40.7501 6.81129 40.7661C6.82903 40.7743 6.85172 40.7835 6.87062 40.7872C6.89096 40.7911 6.91305 40.7909 6.93346 40.7956C6.95911 40.8014 6.99654 40.8266 7.01077 40.8494C7.02756 40.8763 7.02614 40.9104 7.02575 40.9405C7.02519 40.9844 7.04164 41.0289 7.0566 41.0704C7.06492 41.0934 7.06646 41.1248 7.0788 41.1453C7.0934 41.1695 7.11892 41.193 7.14066 41.21C7.19231 41.2504 7.22554 41.3074 7.27088 41.3536V41.3613C7.43617 41.3613 7.60145 41.3613 7.76673 41.3613C7.80465 41.3613 7.84137 41.3587 7.87778 41.369C7.89768 41.3746 7.91872 41.3779 7.93793 41.3862C7.9599 41.3957 7.97823 41.4117 7.99879 41.423C8.03084 41.4405 8.05481 41.4546 8.09227 41.4534C8.14712 41.4516 8.18186 41.4161 8.22806 41.3921C8.25441 41.3784 8.27734 41.3565 8.30558 41.3473C8.32293 41.3417 8.33998 41.3357 8.35695 41.3288C8.39088 41.3149 8.42479 41.3075 8.45821 41.2905C8.48564 41.2765 8.5134 41.2701 8.54228 41.2634C8.55721 41.26 8.5727 41.2623 8.58767 41.26C8.61432 41.256 8.63767 41.2532 8.66525 41.2539C8.6826 41.2543 8.69591 41.2591 8.71256 41.2615C8.73627 41.265 8.75614 41.2715 8.77094 41.2918C8.78729 41.3143 8.78835 41.3325 8.78776 41.3596C8.78713 41.388 8.77136 41.3998 8.75872 41.4247C8.75105 41.4398 8.74468 41.4545 8.73423 41.4684C8.72173 41.4849 8.71632 41.5039 8.70357 41.5206C8.67969 41.5519 8.65325 41.5834 8.63631 41.6197C8.61871 41.6574 8.59544 41.6924 8.5787 41.7309C8.55854 41.7773 8.56062 41.8184 8.58849 41.8613C8.62109 41.9115 8.66971 41.9452 8.71085 41.9889C8.73467 42.0141 8.75512 42.0414 8.77997 42.0661C8.80223 42.0881 8.82126 42.111 8.84126 42.135H8.84892C8.84542 42.1523 8.85972 42.1722 8.86442 42.1888C8.86963 42.2072 8.87209 42.2211 8.87187 42.2401C8.8714 42.2823 8.87951 42.3225 8.87956 42.365C8.8796 42.4028 8.88687 42.4361 8.89318 42.4724C8.89881 42.5049 8.90534 42.541 8.92109 42.5714C8.94561 42.6188 8.98446 42.6467 9.03121 42.6697C9.0465 42.6772 9.06237 42.6838 9.07873 42.6886C9.09869 42.6945 9.11554 42.6913 9.13545 42.6949C9.14334 42.6963 9.14855 42.7009 9.15683 42.7023C9.16446 42.7035 9.1726 42.7005 9.18026 42.7014C9.20181 42.704 9.22597 42.7071 9.24746 42.7112C9.26717 42.715 9.2889 42.7232 9.30873 42.7253C9.32781 42.7273 9.34 42.7279 9.35835 42.7364C9.39328 42.7526 9.42249 42.7696 9.45238 42.7936C9.48502 42.8199 9.50603 42.8678 9.52619 42.9039C9.53397 42.9178 9.53565 42.9323 9.54023 42.9472C9.54451 42.9611 9.54319 42.9714 9.54562 42.9851C9.54901 43.0044 9.554 43.0163 9.55367 43.0369C9.55322 43.0654 9.55731 43.0916 9.56583 43.1191C9.58258 43.1731 9.59263 43.2295 9.61303 43.2825C9.61855 43.2968 9.62715 43.3097 9.63238 43.3241C9.64083 43.3475 9.64504 43.3688 9.6571 43.3916C9.6747 43.4249 9.6916 43.4579 9.70901 43.4911C9.73295 43.5368 9.75379 43.5825 9.77585 43.629C9.79686 43.6733 9.82154 43.7153 9.84462 43.7585C9.88332 43.8308 9.9323 43.8873 9.99965 43.9356C10.0641 43.9817 10.1407 44.0244 10.2188 44.0411C10.2729 44.0527 10.3256 44.0655 10.381 44.0654L10.427 44.0731C10.4463 44.0895 10.4633 44.1148 10.4806 44.134C10.5032 44.1591 10.5178 44.1917 10.538 44.2187C10.5458 44.2291 10.5561 44.2381 10.5631 44.2489C10.5709 44.2607 10.5735 44.2732 10.5839 44.284C10.6045 44.3053 10.6181 44.3254 10.6334 44.3505C10.6473 44.3734 10.6689 44.3921 10.6869 44.4117C10.714 44.4414 10.7416 44.4703 10.779 44.4836C10.8069 44.4936 10.8315 44.5142 10.8597 44.5215C10.9 44.5321 10.9386 44.5481 10.9806 44.554C11.1321 44.5752 11.2921 44.5633 11.445 44.5633C11.4996 44.5633 11.5582 44.557 11.6112 44.5707C11.6567 44.5824 11.6905 44.6109 11.7296 44.6355C11.7684 44.6599 11.7871 44.6896 11.8156 44.7248C11.8415 44.7568 11.8703 44.7873 11.8975 44.8182C11.9226 44.8467 11.955 44.8662 11.9818 44.8927C12.012 44.9226 12.0518 44.9392 12.0893 44.9578C12.1199 44.9731 12.1545 44.9955 12.1888 45H12.1965C12.2507 45 12.305 45 12.3592 45C12.3869 45 12.4104 44.9971 12.4374 44.993C12.4593 44.9896 12.4808 44.9942 12.5025 44.9885C12.5484 44.9765 12.6012 44.9792 12.6485 44.9734C12.693 44.9679 12.7349 44.9535 12.7786 44.9472C12.8439 44.9378 12.9063 44.917 12.9708 44.9042C12.9872 44.901 13.0039 44.9 13.0202 44.8962C13.0495 44.8893 13.0762 44.8765 13.106 44.8715C13.1533 44.8635 13.2008 44.8548 13.2478 44.8451C13.2971 44.8349 13.3427 44.8085 13.3927 44.801C13.4365 44.7944 13.4832 44.7767 13.5218 44.7551C13.5614 44.733 13.6026 44.7134 13.6385 44.6859C13.6962 44.6419 13.762 44.6107 13.817 44.5631C13.8862 44.5032 13.954 44.4381 14.0308 44.3878C14.0604 44.3683 14.0886 44.3424 14.1193 44.3258C14.1385 44.3154 14.1451 44.3047 14.1585 44.2879C14.1784 44.2632 14.2097 44.2465 14.2325 44.2245C14.255 44.2029 14.2778 44.1807 14.2992 44.1579C14.3191 44.1369 14.3286 44.1139 14.3414 44.0884L14.3491 44.0807C14.3722 44.0849 14.3893 44.0558 14.4029 44.042C14.4178 44.0268 14.434 44.0139 14.4487 43.9986C14.4895 43.9557 14.5216 43.9087 14.5571 43.8613C14.6043 43.798 14.6549 43.7309 14.7114 43.6757C14.7331 43.6544 14.7561 43.6366 14.7761 43.6135C14.794 43.5927 14.8127 43.5704 14.8332 43.5522C14.906 43.4873 14.9665 43.4097 15.0406 43.3453C15.0716 43.3184 15.0904 43.2826 15.1207 43.2551C15.1476 43.2307 15.175 43.2086 15.2011 43.1828C15.2483 43.1361 15.3155 43.1008 15.3828 43.1C15.4222 43.0995 15.4658 43.0957 15.5047 43.1014C15.5733 43.1115 15.6367 43.1452 15.6972 43.1768C15.7491 43.2038 15.7968 43.2284 15.8449 43.2612C15.8774 43.2834 15.9118 43.3017 15.9442 43.3239C16.0047 43.3654 16.0602 43.4094 16.1121 43.4614C16.1389 43.4882 16.1686 43.5099 16.1952 43.5368L16.2029 43.5445C16.2228 43.5437 16.2422 43.5663 16.2567 43.5773C16.2693 43.5868 16.282 43.5966 16.2948 43.606C16.3101 43.6172 16.3269 43.6254 16.3427 43.636C16.3564 43.6453 16.3672 43.6582 16.3808 43.6675C16.432 43.7024 16.4998 43.7278 16.5618 43.7285C16.5836 43.7288 16.6055 43.7284 16.6273 43.7284C16.6717 43.7284 16.7191 43.7336 16.7632 43.7287C16.8023 43.7245 16.8484 43.7085 16.8844 43.6921C16.9659 43.6552 17.0398 43.6047 17.1065 43.5442C17.1572 43.4982 17.2021 43.4459 17.252 43.3989C17.2786 43.3739 17.3096 43.3538 17.337 43.33C17.3608 43.3094 17.3839 43.2844 17.4055 43.2615C17.4169 43.2494 17.4245 43.2339 17.436 43.2222C17.4472 43.2109 17.4625 43.2036 17.4743 43.1925C17.505 43.1636 17.5311 43.1317 17.5588 43.1002L17.5817 43.0619C17.6064 43.0619 17.639 43.0316 17.658 43.018C17.6928 42.993 17.7302 42.9733 17.7676 42.9529C17.8467 42.9097 17.9296 42.8749 18.011 42.8356C18.0504 42.8166 18.0981 42.8001 18.1408 42.7919C18.2054 42.7795 18.2676 42.7553 18.3311 42.738C18.3806 42.7246 18.4281 42.7038 18.478 42.6904C18.5473 42.6717 18.615 42.6502 18.6848 42.6329C18.7308 42.6215 18.7753 42.6068 18.8214 42.5965C18.8517 42.5898 18.8779 42.5744 18.9072 42.5657C18.9332 42.5579 18.9572 42.5476 18.9838 42.541C19.0019 42.5365 19.0231 42.5314 19.0372 42.518H19.0449C19.0936 42.5186 19.1243 42.4989 19.1678 42.4793C19.2075 42.4614 19.2506 42.4521 19.2898 42.4339C19.3688 42.3973 19.4518 42.371 19.5317 42.3371C19.5889 42.3127 19.6421 42.2846 19.6881 42.2422C19.7641 42.1723 19.8413 42.1031 19.8952 42.0143C19.9645 41.9001 20.0155 41.7768 20.079 41.6595C20.0964 41.6273 20.1234 41.6007 20.1403 41.5687C20.1604 41.5307 20.1851 41.4942 20.1981 41.4531C20.219 41.3869 20.1744 41.3169 20.1255 41.2755C20.0874 41.2431 20.0561 41.2087 20.0138 41.1813C19.9943 41.1687 19.9863 41.1556 19.9718 41.1387C19.959 41.1238 19.9431 41.113 19.9331 41.0954C19.9031 41.0423 19.9104 40.9681 19.9105 40.9093C19.9105 40.8839 19.9106 40.8621 19.9159 40.8373C19.9232 40.803 19.9393 40.7725 19.9471 40.7387C19.9531 40.7124 19.9647 40.6899 19.9721 40.6642C19.9792 40.6394 19.9815 40.6117 19.9918 40.5879C19.9994 40.5702 20.0114 40.5573 20.0215 40.5413C20.0388 40.5139 20.0409 40.4881 20.0714 40.4727V40.465C20.0888 40.446 20.1254 40.4332 20.1499 40.4284C20.1725 40.424 20.2009 40.425 20.2242 40.4263C20.2429 40.4275 20.2594 40.4334 20.2759 40.4417C20.2962 40.4519 20.3182 40.4615 20.3382 40.4727C20.3631 40.4867 20.393 40.502 20.4157 40.5197C20.4442 40.5421 20.4673 40.568 20.4986 40.5859C20.5233 40.6 20.5458 40.6182 20.571 40.6334C20.6064 40.6547 20.6399 40.6793 20.6769 40.6981C20.699 40.7093 20.7208 40.715 20.7438 40.7234C20.7653 40.7312 20.7847 40.7425 20.8064 40.7499C20.8276 40.7572 20.8435 40.7689 20.8658 40.7735C20.8902 40.7786 20.9147 40.7838 20.9392 40.7888C20.969 40.7949 20.9969 40.7944 21.027 40.7944C21.0428 40.7944 21.0587 40.7943 21.0745 40.7946C21.1005 40.795 21.1141 40.788 21.1378 40.7788C21.1548 40.7723 21.1727 40.7712 21.1894 40.7642C21.2173 40.7525 21.2457 40.7439 21.2741 40.7335C21.3338 40.7115 21.3944 40.6796 21.4503 40.6493C21.487 40.6294 21.5147 40.594 21.5498 40.5719C21.5797 40.553 21.6092 40.5364 21.6341 40.511L21.6494 40.5033C21.6521 40.4895 21.6762 40.4767 21.6858 40.4671C21.7006 40.4522 21.7135 40.4363 21.7277 40.421C21.7528 40.3937 21.781 40.3694 21.8082 40.3444C21.8377 40.3172 21.8698 40.2875 21.9022 40.2637C21.9376 40.2378 21.9665 40.2058 22.0014 40.1797C22.0261 40.1612 22.0525 40.1452 22.0782 40.1283C22.1129 40.1055 22.1429 40.079 22.1747 40.0525C22.1922 40.0378 22.2133 40.0262 22.2302 40.0108C22.248 39.9947 22.2666 39.9872 22.2856 39.9731C22.3176 39.9493 22.3445 39.9194 22.3769 39.8963C22.4138 39.8699 22.4496 39.8412 22.4852 39.8131C22.5588 39.7549 22.6279 39.691 22.6999 39.6309C22.7311 39.6048 22.7686 39.5876 22.7988 39.5611C22.8175 39.5446 22.8325 39.5235 22.8515 39.5074C22.8689 39.4927 22.8895 39.4853 22.9063 39.4692C22.919 39.4569 22.9293 39.4443 22.944 39.4344C22.9556 39.4265 22.9689 39.4234 22.9806 39.4159C22.9933 39.4078 23.0013 39.3946 23.0126 39.3849C23.0229 39.3759 23.0351 39.3698 23.0453 39.3606C23.0617 39.3459 23.0739 39.3246 23.0957 39.3171C23.1176 39.3097 23.1425 39.3008 23.1657 39.3005C23.1939 39.3 23.2222 39.3006 23.2504 39.3006L23.2964 39.2853C23.3217 39.2853 23.347 39.2855 23.3724 39.2853C23.4044 39.2851 23.4273 39.2943 23.457 39.305C23.4889 39.3166 23.517 39.3389 23.5451 39.3577C23.5811 39.382 23.6153 39.4105 23.6414 39.4449C23.6572 39.4655 23.6785 39.4813 23.6946 39.5017C23.7104 39.5219 23.715 39.5224 23.7407 39.5285C23.7593 39.5329 23.7747 39.5381 23.794 39.5383C23.8169 39.5385 23.8423 39.5422 23.8633 39.5326C23.8741 39.5276 23.8831 39.5254 23.8945 39.5216C23.9127 39.5154 23.9274 39.4989 23.9436 39.4883C23.988 39.4591 24.026 39.423 24.0665 39.3887C24.1017 39.3588 24.1361 39.3304 24.1543 39.2876C24.1858 39.2137 24.1732 39.1275 24.2456 39.075C24.2723 39.0556 24.2964 39.0406 24.3302 39.0399C24.3588 39.0394 24.3875 39.0403 24.4161 39.04C24.4622 39.0395 24.5051 39.0562 24.5511 39.0557C24.5805 39.0554 24.6239 39.0637 24.6521 39.0543C24.6929 39.0408 24.7254 39.0036 24.752 38.9718C24.7701 38.9503 24.7778 38.9234 24.7957 38.9018C24.8086 38.8861 24.823 38.8716 24.8363 38.8561C24.8639 38.824 24.8972 38.8021 24.9275 38.7724C24.9479 38.7524 24.9704 38.732 24.9934 38.7149C25.0111 38.7018 25.0354 38.6965 25.0506 38.6801L25.0659 38.6725C25.069 38.6558 25.0904 38.6377 25.0996 38.6238C25.1194 38.5941 25.141 38.5656 25.1638 38.5381C25.1938 38.5017 25.2228 38.4672 25.2572 38.4354C25.2707 38.4229 25.2818 38.407 25.2972 38.3966C25.3115 38.3868 25.3278 38.3803 25.343 38.3724C25.3766 38.355 25.4128 38.3302 25.4411 38.305C25.4655 38.2832 25.4917 38.2714 25.4875 38.2341C25.486 38.22 25.4804 38.2001 25.4663 38.1928C25.4553 38.187 25.4452 38.1911 25.4336 38.1882C25.3688 38.1718 25.2951 38.1645 25.2339 38.1325C25.2034 38.1166 25.1935 38.0986 25.1887 38.0656C25.1811 38.0135 25.155 37.9632 25.1421 37.912C25.1287 37.8583 25.1197 37.8005 25.1196 37.7452C25.1195 37.7013 25.1311 37.6625 25.1502 37.6226C25.1602 37.6018 25.1711 37.5818 25.1801 37.5605C25.1952 37.5249 25.221 37.4961 25.242 37.4638C25.2849 37.398 25.3491 37.3485 25.4117 37.3025C25.465 37.2633 25.5023 37.2095 25.5485 37.1634L25.5562 37.1557C25.5566 37.1404 25.582 37.1185 25.5909 37.1066C25.6009 37.0933 25.6083 37.0795 25.6153 37.0643C25.6336 37.0252 25.6464 36.9826 25.6567 36.941C25.6681 36.8945 25.6708 36.8298 25.658 36.7832C25.6518 36.7605 25.6401 36.74 25.6299 36.719C25.6201 36.6991 25.606 36.6833 25.5962 36.6633C25.5779 36.6262 25.5599 36.5879 25.5259 36.5617C25.4871 36.5319 25.4398 36.5352 25.3937 36.5352C25.3382 36.5352 25.2827 36.5352 25.2272 36.5352C25.1692 36.5352 25.1121 36.5426 25.0582 36.5199L25.0506 36.4586C25.0506 36.3215 25.0506 36.1844 25.0506 36.0473C25.0506 35.864 25.0433 35.683 25.083 35.5028C25.0988 35.4306 25.1146 35.3581 25.1329 35.2865C25.142 35.251 25.1453 35.2152 25.1521 35.1793C25.1563 35.157 25.1581 35.1339 25.1632 35.1117C25.1666 35.0965 25.1741 35.087 25.1789 35.0725C25.1985 35.0142 25.2151 34.951 25.2434 34.8962C25.2636 34.8571 25.2815 34.8211 25.2978 34.7801C25.3104 34.7482 25.328 34.7172 25.3474 34.6889C25.3759 34.6473 25.3905 34.5993 25.4204 34.5585C25.4758 34.4828 25.5162 34.3943 25.564 34.3135C25.5837 34.2802 25.5975 34.2459 25.6193 34.2142C25.6341 34.1927 25.6411 34.168 25.6556 34.1467C25.6655 34.1322 25.6772 34.1215 25.6847 34.1051C25.6912 34.091 25.6947 34.0767 25.7031 34.0632C25.7184 34.0384 25.7359 34.0163 25.7481 33.9895C25.7565 33.9709 25.7644 33.9537 25.7783 33.9384L25.786 33.9307C25.7845 33.8905 25.8069 33.8526 25.8258 33.8178C25.8422 33.7879 25.8625 33.7609 25.8777 33.7302C25.892 33.7014 25.9051 33.6755 25.9223 33.6485C25.9377 33.6243 25.9487 33.5994 25.962 33.5743C25.9711 33.5569 25.9841 33.5421 25.9932 33.5245C26.0035 33.5048 26.0103 33.4819 26.0252 33.465C26.0352 33.4535 26.0461 33.4446 26.0543 33.4313C26.065 33.4139 26.0716 33.3953 26.0844 33.3792C26.0947 33.366 26.1072 33.3547 26.1173 33.341C26.142 33.3077 26.1656 33.2724 26.1923 33.2407C26.2115 33.2179 26.2276 33.1897 26.244 33.1641C26.2568 33.1443 26.2722 33.1247 26.2822 33.1035C26.2968 33.0727 26.3128 33.0381 26.3149 33.0032C26.3165 32.9776 26.3145 32.9512 26.3145 32.9255C26.3145 32.8994 26.3145 32.8733 26.3145 32.8471C26.3145 32.8033 26.3085 32.7559 26.3157 32.7129C26.333 32.6097 26.3888 32.5269 26.4448 32.4423C26.4617 32.4168 26.485 32.3977 26.502 32.372C26.5122 32.3567 26.5245 32.3436 26.5354 32.3289C26.5434 32.3182 26.5497 32.3158 26.5597 32.3067L26.6133 32.2914C26.6373 32.2639 26.6712 32.2382 26.6993 32.2148C26.7201 32.1974 26.7392 32.1803 26.7586 32.1612C26.7796 32.1404 26.8038 32.1258 26.8267 32.1074C26.8776 32.0663 26.9266 32.0227 26.9769 31.9808C26.9989 31.9624 27.0177 31.9405 27.0398 31.9221C27.0758 31.8923 27.1093 31.8606 27.1384 31.8238C27.1753 31.7771 27.209 31.7401 27.2225 31.6796C27.2367 31.6161 27.2338 31.5521 27.2338 31.4873C27.2338 31.4298 27.2408 31.3667 27.2323 31.3098C27.2247 31.2591 27.2176 31.208 27.2088 31.1574C27.2025 31.1218 27.2043 31.0868 27.1972 31.0519C27.1896 31.0144 27.1956 30.9706 27.1955 30.9322C27.1955 30.9097 27.1935 30.8881 27.1996 30.8662C27.2076 30.8369 27.2197 30.808 27.2317 30.7802C27.2503 30.737 27.2704 30.6945 27.2895 30.6515C27.3026 30.6223 27.3252 30.5936 27.3442 30.5681C27.3527 30.5567 27.3634 30.5481 27.3721 30.5372C27.3804 30.5269 27.3834 30.5148 27.3947 30.5065L27.4023 30.4989C27.398 30.4543 27.4392 30.407 27.456 30.3671C27.4809 30.308 27.5049 30.2484 27.5287 30.1888C27.5425 30.1541 27.5586 30.1201 27.5713 30.085C27.5866 30.0421 27.5975 29.9987 27.6151 29.9565C27.6456 29.8836 27.6538 29.8044 27.6649 29.7267C27.6728 29.6714 27.6701 29.6159 27.6704 29.5601C27.6706 29.5295 27.6628 29.5034 27.6628 29.4721C27.6628 29.4496 27.6619 29.427 27.6623 29.4045C27.6632 29.3556 27.6816 29.3075 27.7049 29.2649C27.7307 29.2176 27.757 29.1606 27.793 29.12L27.8237 29.0894C27.8218 29.0756 27.8306 29.0559 27.8363 29.0437C27.8481 29.0188 27.8708 28.9918 27.8866 28.9687C27.9265 28.9108 27.9707 28.8569 28.015 28.8024C28.0556 28.7524 28.101 28.7073 28.1416 28.6572C28.1518 28.6446 28.1645 28.6334 28.176 28.6221C28.1935 28.6048 28.2021 28.5903 28.2139 28.5686C28.2403 28.5205 28.28 28.4781 28.3046 28.4294C28.3218 28.3952 28.3327 28.3581 28.3485 28.3234C28.3579 28.3026 28.3696 28.2852 28.3773 28.2636C28.3907 28.2259 28.4123 28.1926 28.4257 28.1554C28.4441 28.1037 28.4708 28.0566 28.4978 28.0093V28.0016C28.4978 27.9761 28.4979 27.9506 28.4976 27.9252C28.4971 27.8865 28.5167 27.8549 28.5211 27.8175C28.5243 27.7909 28.5208 27.7611 28.5208 27.7342C28.5208 27.6855 28.5219 27.642 28.5091 27.595C28.4964 27.5489 28.4802 27.5071 28.4572 27.4648C28.4451 27.4426 28.4308 27.4198 28.4208 27.3968C28.4113 27.3751 28.4107 27.3536 28.3982 27.3329C28.3896 27.3187 28.3825 27.3035 28.3771 27.2877C28.3576 27.2299 28.3525 27.166 28.3633 27.1051C28.3746 27.0413 28.4058 26.9782 28.4368 26.9217C28.4614 26.8766 28.4824 26.8296 28.5054 26.7836C28.522 26.7504 28.5343 26.7146 28.5512 26.6821C28.5693 26.6473 28.5745 26.6113 28.5896 26.5755C28.6267 26.4875 28.6423 26.3901 28.6786 26.3019C28.6919 26.2698 28.7095 26.2368 28.7182 26.2031C28.7261 26.1726 28.7302 26.1416 28.7372 26.111C28.7426 26.0869 28.7516 26.0637 28.7599 26.0405C28.7645 26.028 28.7719 26.0199 28.7738 26.0064C28.7757 25.9928 28.7735 25.9777 28.7735 25.9639L28.7965 25.9026C28.7965 25.8588 28.794 25.8142 28.7961 25.7705C28.7974 25.7445 28.8048 25.7201 28.8044 25.6937C28.804 25.6653 28.8099 25.641 28.8122 25.6131C28.8163 25.5654 28.8119 25.5153 28.8119 25.4675C28.8119 25.4252 28.8182 25.3824 28.8021 25.3438C28.7903 25.3157 28.7853 25.2828 28.7754 25.2534C28.7634 25.2175 28.7527 25.1779 28.7354 25.1444C28.7111 25.0972 28.701 25.0481 28.6893 24.9968C28.6819 24.9644 28.6737 24.9306 28.674 24.8972C28.6744 24.8525 28.6725 24.8164 28.6966 24.7762C28.708 24.7572 28.7263 24.7427 28.7431 24.7287C28.7616 24.7133 28.7723 24.6939 28.7888 24.6768C28.8011 24.6642 28.8099 24.6595 28.8122 24.6422C28.815 24.6215 28.8119 24.5973 28.8119 24.5762C28.8119 24.5205 28.8113 24.4646 28.812 24.4089C28.8126 24.3651 28.7984 24.3209 28.7906 24.278C28.7879 24.263 28.79 24.2483 28.7873 24.2333C28.7823 24.2047 28.7731 24.1802 28.7734 24.1505C28.7738 24.1089 28.7742 24.0724 28.7889 24.0335C28.8022 23.9983 28.8137 23.9666 28.8344 23.9339C28.8477 23.913 28.866 23.8907 28.8823 23.8725C28.8955 23.8576 28.9177 23.8373 28.9346 23.8261C28.9477 23.8175 28.9636 23.816 28.9783 23.8096C29.0014 23.7996 29.0238 23.791 29.0477 23.7824C29.0769 23.772 29.1079 23.7724 29.1381 23.7657C29.1701 23.7585 29.2009 23.7481 29.2335 23.7433C29.2528 23.7404 29.2714 23.7359 29.2906 23.7348C29.3098 23.7336 29.3288 23.7243 29.3481 23.7271H29.3634C29.4936 23.7271 29.6238 23.7271 29.754 23.7271C29.8176 23.7271 29.8919 23.717 29.9527 23.7331C29.9689 23.7374 29.9838 23.7336 29.9998 23.7403C30.0087 23.7441 30.0169 23.7478 30.026 23.751C30.0558 23.7616 30.0835 23.7716 30.1101 23.7899C30.1689 23.8307 30.2327 23.8795 30.2795 23.9336C30.3577 24.0239 30.4293 24.1231 30.519 24.2022C30.5551 24.234 30.5804 24.2783 30.6091 24.3163C30.6455 24.3642 30.6816 24.4135 30.7178 24.4625C30.7556 24.5135 30.7864 24.5694 30.8269 24.6185C30.8574 24.6556 30.8868 24.693 30.9155 24.7313C30.9309 24.752 30.9488 24.7698 30.9646 24.7899C30.9767 24.8053 30.9903 24.8172 31.003 24.8319C31.0343 24.8683 31.0635 24.9029 31.1042 24.9297C31.1436 24.9557 31.1827 24.9777 31.225 24.9987C31.2567 25.0144 31.2821 25.0296 31.3168 25.037L31.3628 25.0447C31.4151 25.0447 31.4731 25.0521 31.5238 25.0391C31.5448 25.0337 31.5649 25.0227 31.586 25.0215C31.6089 25.0202 31.6326 25.0244 31.6554 25.0221C31.6764 25.02 31.6947 25.0139 31.7164 25.014C31.7453 25.0143 31.7712 25.0077 31.7994 25.006C31.8443 25.0033 31.8904 25.0063 31.9354 25.0064C31.9906 25.0064 32.043 25.0185 32.098 25.0273C32.1607 25.0373 32.2219 25.0567 32.2822 25.0753C32.3006 25.081 32.3191 25.0852 32.3373 25.0907C32.3569 25.0965 32.3763 25.1056 32.3966 25.11C32.4572 25.1232 32.5189 25.1289 32.5808 25.1289C32.605 25.1289 32.6342 25.1334 32.6575 25.1272C32.6758 25.1225 32.6935 25.1186 32.7121 25.1136C32.768 25.0984 32.8268 25.0898 32.8792 25.0642C32.9122 25.048 32.9477 25.0337 32.9798 25.0166C33.0086 25.0012 33.0333 24.9764 33.0557 24.9531C33.1031 24.904 33.1303 24.8335 33.1647 24.775C33.2078 24.7015 33.2421 24.6217 33.2834 24.5468C33.2933 24.5287 33.306 24.5101 33.3179 24.4933C33.3349 24.4691 33.3487 24.445 33.3698 24.4242C33.3896 24.4047 33.4063 24.3849 33.4232 24.3629C33.4439 24.336 33.4689 24.3219 33.4694 24.2866C33.4706 24.2063 33.4575 24.1287 33.4534 24.0488C33.4464 23.9144 33.4146 23.7821 33.3934 23.6501C33.388 23.6166 33.3818 23.5812 33.3781 23.5471C33.3759 23.527 33.3805 23.506 33.3777 23.4861C33.3757 23.4712 33.3664 23.4599 33.3698 23.4437C33.3688 23.4177 33.3793 23.3938 33.3893 23.3705C33.4042 23.3359 33.4268 23.3058 33.4485 23.2754C33.4729 23.2411 33.4948 23.2078 33.5221 23.1756C33.5502 23.1425 33.5779 23.1099 33.6044 23.0763C33.6132 23.0653 33.625 23.0592 33.6346 23.0491C33.6414 23.042 33.6443 23.0338 33.6501 23.0262C33.667 23.004 33.6806 22.9814 33.6953 22.9573C33.7244 22.9097 33.7366 22.8587 33.756 22.8085C33.7685 22.7759 33.7605 22.728 33.7605 22.6931C33.7605 22.6344 33.7605 22.5756 33.7605 22.5169C33.7605 22.446 33.7605 22.3751 33.7605 22.3042C33.7605 22.2806 33.7607 22.257 33.7605 22.2334C33.76 22.1822 33.7774 22.1392 33.7909 22.0902C33.8098 22.0222 33.8371 21.9561 33.8754 21.8966C33.8943 21.8673 33.9118 21.8364 33.9367 21.812C33.9615 21.7875 33.9857 21.7644 34.0134 21.7431C34.039 21.7233 34.0592 21.6971 34.0822 21.6741L34.1282 21.6435C34.1759 21.5968 34.2049 21.5495 34.2048 21.483C34.2047 21.4524 34.2048 21.4218 34.2048 21.3912C34.2048 21.3629 34.2065 21.3341 34.2052 21.3059C34.2043 21.288 34.198 21.2719 34.1967 21.2544C34.1916 21.1886 34.1855 21.1201 34.1686 21.0553C34.1556 21.006 34.1378 20.9572 34.1278 20.9071C34.1183 20.8597 34.118 20.811 34.1108 20.7632C34.1068 20.7368 34.1049 20.7123 34.1051 20.6856C34.1055 20.6116 34.1022 20.537 34.1046 20.463C34.1065 20.405 34.1361 20.3463 34.1646 20.2968C34.1879 20.2563 34.2136 20.2123 34.243 20.1764C34.2642 20.1506 34.2808 20.1211 34.3038 20.0964C34.3378 20.0599 34.3736 20.0272 34.4039 19.9871C34.4518 19.9239 34.503 19.8623 34.5342 19.7897C34.5342 19.7645 34.5356 19.7448 34.5266 19.7213C34.5199 19.7035 34.5174 19.6838 34.5076 19.6675C34.4996 19.654 34.4888 19.6428 34.4808 19.6292C34.4534 19.5828 34.4188 19.5344 34.4193 19.4788C34.4197 19.4275 34.414 19.3741 34.4352 19.3259C34.4599 19.2696 34.5575 19.253 34.6117 19.2531C34.693 19.2531 34.7709 19.2811 34.8463 19.309C34.8714 19.3183 34.8936 19.3313 34.9192 19.3396C34.9624 19.3538 35.0058 19.368 35.0459 19.3896C35.1144 19.4266 35.1917 19.446 35.2619 19.4794C35.2944 19.4949 35.3281 19.5058 35.3615 19.5184C35.3943 19.5309 35.4249 19.5467 35.4569 19.5599C35.5306 19.59 35.5916 19.6469 35.6632 19.6825C35.6763 19.689 35.6898 19.6957 35.7027 19.7026C35.7148 19.7091 35.7244 19.7123 35.7375 19.7173C35.7675 19.7289 35.7941 19.7528 35.8288 19.7514L35.864 19.7116C35.8554 19.6377 35.9073 19.5924 35.9304 19.5299C35.956 19.4608 35.9739 19.3888 35.996 19.3185C36.0313 19.2065 36.0626 19.0937 36.1071 18.9853C36.159 18.8591 36.2117 18.7346 36.2566 18.6043C36.2934 18.4975 36.3173 18.3871 36.3596 18.2817C36.3711 18.253 36.3725 18.2259 36.3796 18.1964C36.3888 18.1585 36.4108 18.1271 36.4213 18.09C36.4374 18.0333 36.4603 17.9837 36.4787 17.9284C36.5154 17.8181 36.5855 17.681 36.6888 17.6176C36.7113 17.6038 36.7497 17.5935 36.7763 17.5961C36.8102 17.5996 36.8108 17.6169 36.8383 17.628C36.8642 17.6385 36.8975 17.6292 36.9254 17.6345C36.9557 17.6402 36.9752 17.6485 37.0067 17.6476C37.065 17.6458 37.136 17.6219 37.1814 17.5825C37.2088 17.5586 37.229 17.5235 37.2511 17.4946C37.2657 17.4755 37.3013 17.4419 37.3007 17.4161L37.3172 17.3831C37.3901 17.2981 37.4485 17.196 37.5065 17.1009C37.5442 17.0391 37.5846 16.9807 37.6182 16.9167C37.6461 16.8634 37.6924 16.8188 37.7305 16.7725C37.7712 16.723 37.8002 16.6593 37.8376 16.6061C37.8724 16.5567 37.9144 16.5111 37.9532 16.465C37.9875 16.4242 38.0052 16.3804 38.0439 16.3426C38.0864 16.3012 38.1173 16.2523 38.1595 16.2106C38.2451 16.1261 38.3528 16.037 38.3878 15.9165C38.4033 15.863 38.4047 15.8119 38.4065 15.757C38.4086 15.6941 38.4264 15.6279 38.4421 15.5671C38.4841 15.4036 38.5396 15.2449 38.5852 15.0827C38.6053 15.0108 38.6285 14.9437 38.6551 14.8741C38.6779 14.8144 38.6997 14.7501 38.7292 14.6932C38.7684 14.6179 38.7944 14.5374 38.8373 14.4625C38.8667 14.4113 38.8945 14.3608 38.9274 14.3114C38.9459 14.2836 38.9624 14.2529 38.9848 14.228C39.0128 14.197 39.0481 14.1858 39.0814 14.1628C39.1085 14.144 39.1306 14.1163 39.1536 14.093C39.176 14.0703 39.224 14.0451 39.2329 14.0141L39.2494 13.9976C39.249 13.9634 39.2455 13.9316 39.2591 13.8995C39.2725 13.8679 39.2793 13.8517 39.2861 13.8173C39.2964 13.7642 39.3167 13.7148 39.3319 13.6641C39.3643 13.5561 39.354 13.4415 39.3154 13.3371C39.295 13.2818 39.2732 13.2309 39.254 13.1756C39.233 13.115 39.196 13.0605 39.1701 13.0018C39.1275 12.9053 39.1343 12.805 39.1338 12.702C39.1329 12.4757 39.214 12.2612 39.2986 12.053C39.3233 11.9922 39.3641 11.9423 39.3934 11.8843C39.4202 11.8315 39.4556 11.7769 39.4971 11.7347C39.5389 11.6921 39.566 11.6401 39.5978 11.5889C39.6333 11.5316 39.5883 11.4959 39.5467 11.4544H39.5301C39.4871 11.4105 39.4492 11.3651 39.41 11.3182C39.3774 11.2792 39.3546 11.2271 39.3163 11.1934C39.2773 11.1592 39.2084 11.1286 39.1858 11.0759C39.1682 11.0346 39.1833 10.9624 39.1833 10.9179C39.1834 10.8905 39.1774 10.8568 39.1825 10.8301C39.1862 10.811 39.1969 10.7964 39.2007 10.7774C39.2089 10.7355 39.1814 10.6943 39.1592 10.6617C39.1247 10.6111 39.0993 10.5915 39.088 10.5295C39.0759 10.4634 39.0856 10.4279 39.1338 10.381L39.0862 10.348L44.826 12.8417L45.6479 10.2923L45.6408 10.3009C45.6127 10.3016 45.5891 10.2849 45.5617 10.2791C45.5347 10.2734 45.5067 10.28 45.4795 10.2734C45.4477 10.2656 45.415 10.2732 45.3828 10.2677C45.3659 10.2648 45.349 10.2625 45.3377 10.2495C45.327 10.2372 45.3139 10.2205 45.3069 10.206C45.2889 10.1686 45.2849 10.1288 45.2777 10.0884C45.2711 10.0511 45.2604 10.0192 45.2454 9.9845C45.2364 9.96356 45.2258 9.94347 45.2159 9.92291C45.2048 9.8997 45.1879 9.88387 45.1715 9.86436C45.1382 9.82453 45.1036 9.78616 45.0662 9.74991L45.0032 9.68693C44.9736 9.63558 44.9427 9.5853 44.9556 9.52279C44.9602 9.50036 44.9756 9.48168 44.9792 9.45864C44.9828 9.43553 44.98 9.40946 44.9797 9.38586C44.9793 9.34758 44.9675 9.34438 44.9321 9.33492C44.909 9.32874 44.8937 9.31738 44.8692 9.31681C44.8201 9.31565 44.7707 9.31696 44.7216 9.31696C44.6784 9.31696 44.6293 9.32408 44.5872 9.31516C44.5531 9.30793 44.5405 9.26898 44.5386 9.2369C44.5363 9.19762 44.5371 9.15638 44.5447 9.11839C44.553 9.07697 44.5668 9.04586 44.5842 9.00803C44.6019 8.96957 44.6247 8.93296 44.6489 8.89742C44.6601 8.88105 44.6717 8.87234 44.6729 8.85271C44.6741 8.83267 44.6637 8.81826 44.6493 8.80515C44.6341 8.79124 44.5992 8.78292 44.5929 8.76437C44.589 8.75292 44.594 8.73138 44.5939 8.71901C44.5937 8.70004 44.5935 8.68372 44.5994 8.66559C44.6067 8.64324 44.6195 8.63237 44.6332 8.61481C44.6552 8.58678 44.6712 8.55506 44.6965 8.52939C44.7181 8.50752 44.7213 8.49572 44.7199 8.46448C44.7184 8.43005 44.6916 8.40284 44.6566 8.4039C44.6395 8.40442 44.6209 8.40146 44.6039 8.40343C44.5841 8.40573 44.569 8.41214 44.5484 8.41171C44.5167 8.41104 44.484 8.4241 44.4518 8.42746C44.4349 8.42922 44.4214 8.43669 44.4053 8.44124C44.3872 8.44637 44.3675 8.44709 44.3496 8.45283C44.3149 8.464 44.2828 8.47566 44.2469 8.48324C44.2186 8.4892 44.1983 8.49852 44.169 8.49828C44.1507 8.49813 44.1324 8.49823 44.1141 8.49831C44.0786 8.49847 44.0301 8.49437 44.0035 8.46683L43.9956 8.45896C43.9768 8.43987 43.9574 8.42123 43.9497 8.39439C43.9436 8.37312 43.9433 8.33123 43.95 8.30942C43.9569 8.28641 43.9812 8.2654 43.9954 8.2466C44.0151 8.22048 44.0367 8.19682 44.0357 8.16136C44.0346 8.12555 44.0124 8.09502 43.9956 8.0654C43.9796 8.0372 43.9564 7.99383 43.9228 7.9855C43.8998 7.97982 43.8659 7.98615 43.8476 8.00165C43.8238 8.02181 43.8188 8.05467 43.8051 8.08094C43.7961 8.09813 43.7854 8.11566 43.7758 8.13249C43.766 8.14961 43.7522 8.15653 43.7372 8.16803C43.7199 8.18122 43.7125 8.19664 43.6887 8.18969C43.6413 8.17584 43.6024 8.14129 43.5703 8.10491C43.5495 8.08128 43.5328 8.05405 43.5154 8.02751C43.5009 8.0053 43.4828 7.98324 43.466 7.96263C43.4297 7.91811 43.3758 7.87278 43.3653 7.81365C43.3561 7.7621 43.3882 7.71493 43.4284 7.68711C43.4465 7.6746 43.4762 7.67443 43.4977 7.66984C43.522 7.66465 43.5464 7.6626 43.5707 7.65603C43.624 7.64163 43.6774 7.63124 43.7281 7.6086C43.7721 7.58898 43.8296 7.58145 43.8206 7.52077C43.81 7.44973 43.7914 7.37761 43.7616 7.31145C43.7442 7.27296 43.701 7.24339 43.6652 7.22483C43.5634 7.17206 43.4371 7.24605 43.3421 7.16795C43.3187 7.1487 43.305 7.13043 43.2872 7.1066C43.2689 7.08231 43.258 7.08129 43.2289 7.08124C43.1908 7.08117 43.1502 7.08835 43.1135 7.09873C43.0791 7.10843 43.074 7.12181 43.0746 7.1542C43.0756 7.20521 43.0772 7.25738 43.0748 7.30831C43.0723 7.35973 43.0189 7.35695 42.9801 7.35691V7.34904C42.9423 7.35522 42.9007 7.32295 42.8817 7.29334C42.8667 7.27008 42.864 7.24677 42.8412 7.23063C42.8197 7.21547 42.7988 7.2142 42.7734 7.21509C42.7478 7.21599 42.7422 7.2235 42.7283 7.24442C42.7138 7.26614 42.7048 7.28412 42.7045 7.31024C42.7041 7.33841 42.7 7.36989 42.7103 7.39587C42.7213 7.42353 42.7307 7.46541 42.7089 7.49013C42.692 7.50935 42.6582 7.52227 42.6333 7.52238C42.5975 7.52253 42.5505 7.51322 42.5194 7.49495C42.4884 7.47679 42.4642 7.44717 42.4391 7.42205C42.4279 7.41084 42.4157 7.4002 42.4053 7.38828C42.4005 7.38285 42.3953 7.37174 42.3884 7.36778C42.3685 7.3563 42.3442 7.36667 42.327 7.37692C42.2863 7.40124 42.2586 7.43798 42.2304 7.47515C42.2154 7.49492 42.2032 7.51105 42.1772 7.50586C42.1633 7.50308 42.1488 7.49762 42.1365 7.49114C42.1214 7.48321 42.1056 7.47708 42.0905 7.46928C42.076 7.4618 42.0672 7.45036 42.0549 7.43993C42.0058 7.39828 41.9512 7.36356 41.8995 7.32527C41.8704 7.3037 41.837 7.29091 41.8033 7.27918C41.789 7.27419 41.7748 7.27014 41.7601 7.26631C41.7429 7.26184 41.7268 7.26363 41.7094 7.26067C41.6857 7.25667 41.6606 7.25553 41.6374 7.24905C41.6168 7.24329 41.5998 7.23072 41.5799 7.22308C41.5526 7.21258 41.5282 7.19974 41.5003 7.19026C41.4789 7.183 41.4619 7.16434 41.4432 7.15203C41.3899 7.117 41.3253 7.09052 41.2791 7.046C41.2584 7.02614 41.24 7.00473 41.219 6.985C41.2029 6.9699 41.1835 6.96075 41.1674 6.94606C41.1368 6.91809 41.1105 6.89198 41.0673 6.89247H41.0595C41.0439 6.87635 41.0253 6.87504 41.0059 6.86692C40.9874 6.85917 40.9708 6.85164 40.9515 6.84524C40.9249 6.83638 40.8974 6.82947 40.8705 6.82124C40.8412 6.81229 40.8143 6.81379 40.7842 6.8138C40.7064 6.81383 40.628 6.82655 40.5539 6.84658C40.5149 6.85711 40.4889 6.89182 40.4474 6.89303C40.4159 6.89394 40.3823 6.8946 40.3508 6.89265C40.2955 6.88922 40.2603 6.84319 40.2251 6.80569C40.2044 6.78369 40.1796 6.7534 40.1479 6.75021C40.1174 6.74716 40.088 6.75456 40.0585 6.76065C40.0261 6.76736 39.9954 6.77248 39.9636 6.78226C39.9357 6.79082 39.9047 6.80037 39.8758 6.8043C39.846 6.80836 39.8205 6.80802 39.8152 6.84564C39.8137 6.85606 39.8169 6.86755 39.8161 6.87809C39.8148 6.8967 39.8079 6.91251 39.8076 6.93142C39.8074 6.95065 39.8122 6.97487 39.8082 6.99361C39.8063 7.00265 39.802 7.00943 39.7997 7.01823C39.7941 7.04072 39.7804 7.20772 39.737 7.19159H39.7055C39.6933 7.20408 39.6535 7.20511 39.6362 7.20952C39.6167 7.2145 39.5993 7.21843 39.5805 7.22597C39.539 7.24259 39.5006 7.26017 39.4851 7.30568C39.4739 7.33843 39.4666 7.37112 39.4597 7.40488C39.4551 7.42758 39.445 7.44902 39.4284 7.46548C39.3946 7.49886 39.3432 7.50923 39.3056 7.53795C39.2745 7.56172 39.2642 7.58601 39.2646 7.62491C39.2649 7.65038 39.2647 7.67586 39.2647 7.70133C39.2646 7.74472 39.2724 7.78581 39.2725 7.82936C39.2726 7.86255 39.2724 7.89956 39.232 7.90846C39.1945 7.91675 39.1479 7.90021 39.1118 7.89295C39.0869 7.88795 39.0636 7.88586 39.0381 7.88449C39.0162 7.88332 38.9898 7.87738 38.9698 7.86864C38.9404 7.85579 38.9126 7.84594 38.8849 7.82918C38.8472 7.80641 38.8073 7.77223 38.7648 7.76186C38.7356 7.75472 38.6948 7.75432 38.6645 7.75795C38.637 7.76124 38.6061 7.76966 38.5804 7.77963C38.5415 7.79473 38.5135 7.80646 38.5086 7.85087C38.5069 7.86631 38.5149 7.88981 38.508 7.90376C38.5019 7.91597 38.4897 7.91481 38.4779 7.9177C38.4444 7.92589 38.4098 7.92328 38.3756 7.92963C38.3485 7.93466 38.329 7.93575 38.3046 7.95115C38.2925 7.95885 38.2833 7.96812 38.2732 7.97839C38.2536 7.99838 38.2007 8.0336 38.202 8.06536V8.07323C38.1835 8.09378 38.1692 8.12008 38.1624 8.14626C38.1557 8.17215 38.1504 8.21621 38.1317 8.23479C38.1131 8.23222 38.0896 8.21944 38.0728 8.21099C38.0571 8.20314 38.0396 8.19731 38.0254 8.18737C38.001 8.17018 37.9794 8.15482 37.9483 8.15157C37.914 8.14797 37.8766 8.15203 37.842 8.15195C37.8251 8.15191 37.8071 8.14964 37.7905 8.15339C37.7677 8.15851 37.7597 8.17286 37.7454 8.18962C37.7308 8.20688 37.7162 8.21694 37.7057 8.23835C37.6967 8.25666 37.6874 8.27463 37.6896 8.29577C37.6932 8.32969 37.7284 8.35721 37.7572 8.36954C37.78 8.3793 37.8061 8.38391 37.828 8.3956C37.8569 8.41099 37.8867 8.43299 37.9107 8.4554C37.9384 8.48122 37.9504 8.51288 37.9501 8.54978C37.9499 8.57711 37.9531 8.61911 37.9261 8.63514C37.9018 8.64964 37.8558 8.64 37.8278 8.64C37.7961 8.64 37.7674 8.64097 37.7366 8.63221C37.6713 8.61358 37.6092 8.60902 37.5443 8.63177C37.4705 8.65764 37.4858 8.75967 37.4856 8.82038C37.4855 8.85793 37.4886 8.8963 37.4951 8.93317C37.4995 8.95859 37.5099 8.98311 37.5372 8.98672C37.5847 8.99301 37.6381 8.98679 37.6863 8.98638C37.7154 8.98613 37.736 8.99419 37.7631 9.00408C37.7907 9.0142 37.8046 9.02932 37.8234 9.05223C37.8686 9.1072 37.8423 9.17515 37.8123 9.23084C37.8026 9.24877 37.7988 9.26817 37.789 9.28609C37.7782 9.30578 37.7698 9.32598 37.7611 9.34672C37.7473 9.37987 37.7311 9.41403 37.71 9.44323C37.6895 9.47155 37.674 9.50329 37.6511 9.52927C37.6302 9.55301 37.6081 9.58556 37.5803 9.60055C37.5537 9.61489 37.5303 9.63635 37.5012 9.64582C37.4818 9.65213 37.4653 9.6609 37.4466 9.66924C37.3812 9.6985 37.3049 9.69483 37.2349 9.69483C37.2002 9.69483 37.1655 9.69483 37.1308 9.69483C37.1113 9.69483 37.0874 9.69815 37.0684 9.69308C37.0403 9.68559 37.0109 9.68482 36.9816 9.67693C36.9508 9.6686 36.9197 9.67232 36.8887 9.66335C36.8414 9.64966 36.7933 9.64041 36.7455 9.63011C36.7221 9.62507 36.7001 9.61358 36.677 9.60611C36.6506 9.5976 36.6236 9.60037 36.5961 9.60037H36.5882C36.5461 9.56313 36.4801 9.54519 36.4254 9.54527C36.3984 9.54531 36.3711 9.54338 36.3441 9.54684C36.3122 9.55094 36.2814 9.55837 36.2492 9.56099C36.2165 9.56364 36.1837 9.56744 36.1537 9.57894C36.1368 9.58543 36.1189 9.58473 36.1017 9.59034C36.0874 9.59504 36.0741 9.6031 36.0592 9.60652C36.0336 9.6124 36.01 9.6157 35.9844 9.62398C35.9509 9.63486 35.922 9.63738 35.8875 9.64163C35.8227 9.64961 35.7581 9.64691 35.6928 9.64757C35.6603 9.6479 35.6354 9.6346 35.606 9.62202C35.5752 9.60887 35.5409 9.59734 35.5112 9.58272C35.4938 9.57418 35.4886 9.56929 35.4685 9.56873C35.4529 9.56829 35.4372 9.569 35.4216 9.56891C35.3818 9.56868 35.3499 9.57803 35.3124 9.59074C35.2925 9.59749 35.2708 9.60495 35.2502 9.60864C35.2257 9.61305 35.1952 9.60868 35.1699 9.60842C35.1284 9.60798 35.0927 9.58902 35.0605 9.56334C35.0427 9.54922 35.0305 9.52875 35.0155 9.51184C35.0047 9.49967 34.9951 9.48348 34.9981 9.46654V9.45867C35.0008 9.44482 34.992 9.43741 34.9845 9.42721C34.9734 9.41226 34.9659 9.41065 34.9505 9.40166C34.9396 9.39537 34.9361 9.38932 34.9234 9.38746C34.9096 9.38546 34.893 9.38768 34.8803 9.39206C34.8627 9.39815 34.8484 9.41283 34.8309 9.41812C34.8182 9.42195 34.8026 9.41971 34.7895 9.41937C34.7608 9.41863 34.7236 9.41364 34.6968 9.40197C34.6784 9.39396 34.6615 9.38129 34.6435 9.37226C34.6274 9.36414 34.6161 9.35527 34.6126 9.33693C34.6083 9.31432 34.6085 9.27753 34.6118 9.25459C34.6168 9.22015 34.646 9.18187 34.6672 9.15531C34.6902 9.12648 34.7228 9.11048 34.7351 9.07256C34.7437 9.04575 34.7322 9.02367 34.7302 8.99742C34.728 8.96954 34.7278 8.95149 34.7168 8.92514C34.6998 8.88424 34.6421 8.87598 34.6028 8.87616C34.5443 8.87641 34.4859 8.87616 34.4275 8.87616C34.3926 8.87616 34.3576 8.87671 34.3228 8.87619C34.2948 8.87576 34.2789 8.88473 34.2742 8.91511C34.2665 8.96579 34.2804 9.02403 34.2858 9.0742C34.2903 9.11599 34.2897 9.15727 34.2897 9.19926C34.2897 9.24896 34.3022 9.3185 34.2746 9.36249C34.2654 9.37732 34.2475 9.38525 34.2345 9.39636C34.2201 9.40872 34.2084 9.42368 34.1933 9.43524C34.1708 9.45243 34.143 9.46904 34.1392 9.49981C34.1366 9.52012 34.1457 9.54105 34.1478 9.56101C34.1497 9.57895 34.1553 9.59213 34.1634 9.60821C34.1808 9.64283 34.2072 9.66371 34.2152 9.70269C34.2269 9.75935 34.2134 9.824 34.1748 9.86835C34.1365 9.9124 34.0738 9.90214 34.0338 9.94273C33.9322 10.0459 33.841 10.1871 33.841 10.3345C33.8409 10.3699 33.8407 10.4054 33.8411 10.4409C33.8413 10.4587 33.8381 10.473 33.8348 10.4902C33.8321 10.5046 33.8346 10.5188 33.8295 10.5326C33.8207 10.5567 33.7967 10.5718 33.7799 10.5901C33.7499 10.6229 33.7181 10.6562 33.6911 10.6916C33.6749 10.7128 33.6614 10.7373 33.6422 10.7561C33.6271 10.7709 33.6102 10.7821 33.5963 10.7982C33.5639 10.8355 33.5303 10.8722 33.495 10.9069C33.4527 10.9486 33.4222 10.9964 33.3832 11.041C33.3543 11.074 33.3246 11.1112 33.3057 11.1511L33.2899 11.1826C33.2448 11.2285 33.2281 11.2775 33.2132 11.34C33.2026 11.3845 33.2013 11.4292 33.1949 11.4735C33.1797 11.5776 33.1023 11.662 33.0154 11.7139C32.9945 11.7264 32.9775 11.7445 32.9514 11.742C32.9367 11.7406 32.9182 11.7342 32.9058 11.7261C32.8736 11.7054 32.8457 11.6698 32.824 11.6394C32.8033 11.6105 32.7772 11.5838 32.7513 11.5596C32.7265 11.5364 32.6958 11.5078 32.6659 11.4904C32.6371 11.4737 32.5764 11.4767 32.5441 11.4835C32.5085 11.4909 32.4797 11.4931 32.4459 11.4797C32.4268 11.4722 32.4145 11.4664 32.4 11.4506C32.3832 11.4322 32.381 11.4061 32.3529 11.4023C32.3219 11.398 32.2718 11.3977 32.2428 11.4088C32.2082 11.422 32.1735 11.4353 32.1387 11.4481C32.1001 11.4622 32.0573 11.4826 32.0262 11.5098C31.9849 11.5459 31.9748 11.6028 31.9753 11.6551C31.9756 11.6917 31.9752 11.7283 31.9753 11.765C31.9755 11.8056 31.9664 11.8393 31.9582 11.8783C31.9537 11.8998 31.9434 11.9185 31.9355 11.9387C31.9301 11.9527 31.9294 11.9676 31.9234 11.9813C31.9161 11.998 31.9057 12.0156 31.8972 12.0321C31.8801 12.0655 31.8577 12.0965 31.8397 12.129C31.8294 12.1477 31.8153 12.1593 31.8022 12.176C31.7878 12.1943 31.7755 12.216 31.7628 12.2354C31.7423 12.2669 31.7096 12.2979 31.6762 12.3161H31.6684C31.636 12.3452 31.5917 12.3714 31.5505 12.385C31.5104 12.3983 31.4547 12.4103 31.4318 12.4496C31.4201 12.4698 31.4088 12.4884 31.4082 12.512C31.4077 12.5333 31.4086 12.5548 31.4086 12.5761C31.4086 12.595 31.4121 12.6184 31.4091 12.6371C31.4061 12.6559 31.3931 12.661 31.3778 12.6698C31.3444 12.689 31.3143 12.7131 31.2803 12.7317C31.2568 12.7446 31.2311 12.7528 31.2073 12.7648C31.1743 12.7815 31.1562 12.8008 31.1469 12.8357C31.1357 12.8774 31.1295 12.9205 31.1252 12.964C31.1209 13.0072 31.1183 13.0528 31.0939 13.0897C31.0683 13.1285 31.039 13.138 30.9939 13.1427C30.9527 13.1469 30.9031 13.1463 30.8644 13.1627C30.827 13.1785 30.8085 13.215 30.7867 13.247C30.7567 13.2912 30.7461 13.3456 30.7314 13.3967C30.7209 13.4333 30.7088 13.4731 30.7078 13.5114C30.7074 13.5279 30.7058 13.5393 30.7011 13.5553C30.6914 13.5881 30.6809 13.6209 30.6726 13.6542C30.6572 13.7157 30.6482 13.778 30.6371 13.8404C30.6282 13.8907 30.6247 13.9413 30.6137 13.9912C30.6044 14.0338 30.5896 14.0774 30.5834 14.1205C30.5725 14.1958 30.5464 14.2495 30.4682 14.2714C30.4003 14.2905 30.3268 14.2841 30.257 14.2841C30.2158 14.2841 30.1746 14.2841 30.1333 14.2841L29.9777 14.3532Z" fill="white"/>
</svg>
