<svg width="235" height="43" viewBox="0 0 235 43" fill="none" xmlns="http://www.w3.org/2000/svg">
<g clip-path="url(#clip0_28229_3193)">
<path d="M5.31369 1.20312H10.0233L15.8199 17.0683L21.7371 1.20312H26.326L30.5526 24.0708H25.9637L23.1862 9.62806L17.8728 24.0708H13.6462L8.3327 9.62806L5.55521 24.0708H0.966309L5.31369 1.20312Z" fill="#026666"/>
<path d="M51.3234 20.7902C49.2704 23.4162 46.7345 24.5103 42.7494 24.5103C36.8321 24.5103 32.9678 20.5714 32.9678 15.6478C32.9678 11.0523 36.5906 6.78516 42.6286 6.78516C48.6666 6.78516 52.531 10.6147 52.531 15.976C52.531 16.4137 52.531 16.5231 52.531 16.9607H37.5567C38.0397 19.4773 40.0926 20.8997 42.7494 20.8997C44.8023 20.8997 46.1307 20.3526 47.3383 19.2584L51.3234 20.7902ZM47.9421 13.4595C47.3383 11.49 45.2853 10.2864 42.8701 10.2864C40.5757 10.2864 38.7643 11.3806 37.7982 13.4595H47.9421Z" fill="#026666"/>
<path d="M70.0412 22.211C68.3506 23.6333 66.6599 24.3993 64.2447 24.3993C59.5351 24.3993 55.4292 20.6791 55.4292 15.5367C55.4292 10.3942 59.2935 6.67406 64.2447 6.67406C66.5392 6.67406 68.4713 7.43996 70.0412 8.97177V0.65625H74.7509V24.071H70.0412V22.211ZM60.1389 15.5367C60.1389 18.3814 62.1918 20.5697 65.2108 20.5697C68.2298 20.5697 70.2827 18.6003 70.2827 15.5367C70.2827 12.473 68.1091 10.613 65.2108 10.613C62.3125 10.613 60.1389 12.8013 60.1389 15.5367Z" fill="#026666"/>
<path d="M84.2913 2.95412C84.2913 4.48593 82.9629 5.68949 81.2723 5.68949C79.5816 5.68949 78.374 4.37651 78.374 2.73529C78.374 1.3129 79.7024 0.21875 81.393 0.21875C83.0837 0.21875 84.2913 1.53173 84.2913 2.95412ZM78.9778 7.11188H83.6875V24.0712H78.9778V7.11188Z" fill="#026666"/>
<path d="M105.907 20.8997C103.854 23.1974 101.077 24.401 97.4539 24.401C91.0536 24.401 86.9478 20.4621 86.9478 15.5384C86.9478 10.6148 91.2951 6.56641 97.4539 6.56641C101.077 6.56641 104.217 7.87938 106.028 10.3959L102.164 12.3654C100.835 11.0524 99.5068 10.5053 97.4539 10.5053C93.8311 10.5053 91.6574 12.6936 91.6574 15.6478C91.6574 18.602 93.8311 20.5715 97.3332 20.5715C99.3861 20.5715 101.077 19.915 102.164 18.602L105.907 20.8997Z" fill="#026666"/>
<path d="M121.727 22.2088C120.036 23.6312 118.345 24.3971 115.93 24.3971C111.221 24.3971 107.115 20.677 107.115 15.5345C107.115 10.392 110.979 6.67188 115.93 6.67188C118.225 6.67188 120.157 7.43778 121.727 8.96958V7.10953H126.436V24.0688H121.727V22.2088ZM111.704 15.5345C111.704 18.3793 113.757 20.5675 116.776 20.5675C119.795 20.5675 121.848 18.5981 121.848 15.5345C121.848 12.4709 119.674 10.6108 116.776 10.6108C113.877 10.6108 111.704 12.7991 111.704 15.5345Z" fill="#026666"/>
<path d="M135.856 2.95412C135.856 4.48593 134.528 5.68949 132.837 5.68949C131.146 5.68949 129.818 4.37651 129.818 2.73529C129.818 1.3129 131.146 0.21875 132.837 0.21875C134.528 0.21875 135.856 1.53173 135.856 2.95412ZM130.542 7.11188H135.252V24.0712H130.542V7.11188Z" fill="#026666"/>
<path d="M153.245 22.211C151.555 23.6333 149.864 24.3993 147.449 24.3993C142.739 24.3993 138.633 20.6791 138.633 15.5367C138.633 10.3942 142.498 6.67406 147.449 6.67406C149.743 6.67406 151.675 7.43996 153.245 8.97177V0.65625H157.955V24.071H153.245V22.211ZM143.343 15.5367C143.343 18.3814 145.396 20.5697 148.415 20.5697C151.434 20.5697 153.487 18.6003 153.487 15.5367C153.487 12.473 151.313 10.613 148.415 10.613C145.517 10.613 143.343 12.8013 143.343 15.5367Z" fill="#026666"/>
<path d="M167.616 22.5398C167.616 23.6339 166.65 24.5092 165.563 24.5092C164.476 24.5092 163.51 23.6339 163.51 22.5398C163.51 21.4456 164.476 20.5703 165.563 20.5703C166.65 20.5703 167.616 21.4456 167.616 22.5398Z" fill="#565656"/>
<path d="M191.044 20.5675C191.044 23.3029 190.923 25.6006 189.353 27.4607C187.783 29.4301 185.005 30.5243 181.503 30.5243C176.19 30.5243 173.533 28.5548 171.843 25.2724H174.379C175.828 27.4607 178.001 28.5548 181.262 28.5548C184.402 28.5548 186.575 27.5701 187.783 25.71C188.508 24.5065 188.628 23.3029 188.628 21.9899V20.7864C186.817 22.9747 184.039 23.9594 181.141 23.9594C175.948 23.9594 171.601 20.4581 171.601 15.4251C171.601 10.392 176.19 6.67188 181.141 6.67188C184.402 6.67188 186.696 7.98485 188.628 10.0637V7.21895H191.044V20.5675ZM174.137 15.6439C174.137 19.0357 176.794 21.9899 181.624 21.9899C185.73 21.9899 188.749 19.4734 188.749 15.5345C188.749 11.5955 185.368 8.86017 181.624 8.86017C177.398 8.86017 174.137 11.705 174.137 15.6439Z" fill="#565656"/>
<path d="M214.712 15.6439C214.712 20.4581 210.606 24.5065 205.051 24.5065C199.496 24.5065 195.391 20.4581 195.391 15.6439C195.391 10.8296 199.496 6.67188 205.051 6.67188C210.606 6.67188 214.712 10.8296 214.712 15.6439ZM197.806 15.6439C197.806 19.364 200.825 22.3182 205.051 22.3182C209.278 22.3182 212.297 19.2546 212.297 15.6439C212.297 12.0332 209.037 8.75076 205.051 8.75076C201.066 8.75076 197.806 11.9238 197.806 15.6439Z" fill="#565656"/>
<path d="M217.369 7.11328H219.905L226.185 19.3677L232.343 7.11328H234.879L226.426 24.0726H225.943L217.369 7.11328Z" fill="#565656"/>
<path d="M8.93622 39.4995H7.60785L3.86427 35.0135L2.77743 35.8888V39.6089H1.56982V30.1992H2.77743V34.7946L7.48709 30.1992H8.93622L4.83036 34.2476L8.93622 39.4995Z" fill="#565656"/>
<path d="M13.5253 39.6081C12.4385 39.6081 11.4724 39.2799 10.8686 38.6234C10.2648 37.9669 9.78174 37.201 9.78174 35.9974C9.78174 34.9033 10.0233 33.9186 10.7478 33.2621C11.4724 32.6056 12.1969 32.2773 13.2838 32.2773C14.2499 32.2773 14.9744 32.6056 15.5782 33.1527C16.182 33.6997 16.4236 34.4656 16.4236 35.4504V36.1069H10.9893C10.9893 36.9822 11.2309 37.5293 11.7139 37.9669C12.1969 38.4046 12.8008 38.6234 13.5253 38.6234C14.3706 38.6234 15.216 38.514 16.0613 38.1857V39.1705C15.699 39.3893 15.216 39.3893 14.8537 39.4987C14.4914 39.6081 14.0084 39.6081 13.5253 39.6081ZM13.163 33.2621C12.5592 33.2621 12.0762 33.4809 11.7139 33.8091C11.3516 34.1374 11.1101 34.6845 11.1101 35.341H15.216C15.216 34.6845 15.0952 34.1374 14.7329 33.8091C14.3706 33.4809 13.7668 33.2621 13.163 33.2621Z" fill="#565656"/>
<path d="M21.616 39.6081C20.4084 39.6081 19.5631 39.2799 18.9592 38.6234C18.3554 37.9669 17.9932 37.0916 17.9932 35.9974C17.9932 34.9033 18.2347 33.9186 18.9592 33.2621C19.6838 32.6056 20.4084 32.2773 21.3745 32.2773C22.3405 32.2773 23.0651 32.6056 23.6689 33.1527C24.2727 33.6997 24.5142 34.4656 24.5142 35.4504V36.1069H19.2008C19.2008 36.9822 19.4423 37.5293 19.9253 37.9669C20.4084 38.4046 21.0122 38.6234 21.7367 38.6234C22.5821 38.6234 23.4274 38.514 24.152 38.1857V39.1705C23.7897 39.3893 23.3066 39.3893 22.9443 39.4987C22.5821 39.6081 22.099 39.6081 21.616 39.6081ZM21.2537 33.2621C20.6499 33.2621 20.1669 33.4809 19.8046 33.8091C19.4423 34.1374 19.2008 34.6845 19.2008 35.341H23.3066C23.3066 34.6845 23.1859 34.1374 22.8236 33.8091C22.4613 33.4809 21.9783 33.2621 21.2537 33.2621Z" fill="#565656"/>
<path d="M30.0691 39.612C29.5861 39.612 29.103 39.5026 28.7407 39.3932C28.3785 39.2838 28.0162 38.9555 27.6539 38.6273H27.5331C27.5331 39.0649 27.6539 39.3932 27.6539 39.8308V42.6756H26.4463V32.5H27.4124L27.5331 33.4848C27.7747 33.0471 28.1369 32.8283 28.62 32.6095C29.103 32.3906 29.4653 32.3906 29.9483 32.3906C31.0352 32.3906 31.7598 32.7189 32.3636 33.3754C32.9674 34.0318 33.2089 34.9072 33.2089 36.0013C33.2089 37.0955 32.9674 38.0802 32.3636 38.7367C31.7598 39.3932 31.0352 39.612 30.0691 39.612ZM29.9483 33.2659C29.103 33.2659 28.62 33.4848 28.2577 33.813C27.8954 34.1413 27.7747 34.7977 27.6539 35.6731V35.8919C27.6539 36.8766 27.7747 37.5331 28.2577 37.9708C28.7407 38.4084 29.2238 38.6273 30.0691 38.6273C30.6729 38.6273 31.2767 38.4084 31.639 37.8614C32.0013 37.3143 32.2428 36.6578 32.2428 35.7825C32.2428 34.9072 32.0013 34.2507 31.639 33.813C31.2767 33.3754 30.5521 33.2659 29.9483 33.2659Z" fill="#565656"/>
<path d="M35.2622 30.5276C35.2622 30.3088 35.2622 30.09 35.5037 29.9805C35.7452 29.8711 35.7452 29.7617 35.9868 29.7617C36.2283 29.7617 36.3491 29.7617 36.4698 29.9805C36.5906 30.1994 36.7113 30.3088 36.7113 30.5276C36.7113 30.7465 36.5906 30.9653 36.4698 31.0747C36.3491 31.1841 36.2283 31.2935 35.9868 31.2935C35.7452 31.2935 35.6245 31.2935 35.5037 31.0747C35.383 30.8559 35.2622 30.8559 35.2622 30.5276ZM36.4698 39.4996H35.2622V32.4971H36.4698V39.4996Z" fill="#565656"/>
<path d="M44.319 39.5026V35.0166C44.319 34.4695 44.1982 34.0318 43.8359 33.7036C43.4737 33.3754 43.1114 33.2659 42.5076 33.2659C41.6623 33.2659 41.0585 33.4848 40.6962 33.813C40.3339 34.1413 40.0924 34.9072 40.0924 35.7825V39.5026H38.8848V32.5H39.8508L40.0924 33.4848C40.3339 33.1565 40.6962 32.8283 41.0585 32.7189C41.4207 32.6095 42.0245 32.3906 42.5076 32.3906C43.4737 32.3906 44.1982 32.6095 44.6813 33.0471C45.1643 33.4848 45.4058 34.1413 45.4058 35.0166V39.612L44.319 39.5026Z" fill="#565656"/>
<path d="M54.2212 32.4961V33.1526L52.7721 33.262C52.8929 33.3714 53.0136 33.5902 53.1344 33.8091C53.2551 34.0279 53.2551 34.3561 53.2551 34.575C53.2551 35.2315 53.0136 35.7785 52.5306 36.2162C52.0475 36.6539 51.323 36.8727 50.3569 36.8727C50.1154 36.8727 49.8738 36.8727 49.7531 36.8727C49.27 37.0915 49.0285 37.4198 49.0285 37.748C49.0285 37.9668 49.1493 38.0762 49.27 38.1857C49.3908 38.2951 49.7531 38.2951 50.1154 38.2951H51.4437C52.289 38.2951 52.8929 38.5139 53.3759 38.7327C53.8589 38.9516 54.1005 39.4986 54.1005 40.1551C54.1005 40.921 53.7382 41.4681 53.0136 41.9058C52.289 42.3434 51.4437 42.6717 50.1154 42.6717C49.1493 42.6717 48.3039 42.4528 47.8209 42.1246C47.3379 41.7963 46.9756 41.2493 46.9756 40.7022C46.9756 40.2645 47.0963 39.9363 47.4586 39.6081C47.8209 39.2798 48.1832 39.061 48.6662 38.9516C48.4247 38.8421 48.304 38.7327 48.1832 38.6233C48.0624 38.5139 47.9417 38.2951 47.9417 38.0762C47.9417 37.8574 48.0624 37.6386 48.1832 37.4198C48.304 37.2009 48.5455 37.0915 48.9078 36.8727C48.5455 36.7633 48.1832 36.435 47.9417 36.1068C47.7001 35.7785 47.5794 35.3409 47.5794 34.9032C47.5794 34.1373 47.8209 33.5902 48.3039 33.1526C48.787 32.7149 49.5116 32.4961 50.4776 32.4961C50.8399 32.4961 51.2022 32.4961 51.5645 32.6055L54.2212 32.4961ZM48.0624 40.7022C48.0624 41.0304 48.304 41.3587 48.5455 41.5775C48.787 41.7963 49.3908 41.9058 50.1154 41.9058C51.0814 41.9058 51.806 41.7963 52.289 41.4681C52.7721 41.1399 53.0136 40.8116 53.0136 40.374C53.0136 40.0457 52.8928 39.7175 52.6513 39.6081C52.4098 39.4986 51.9268 39.3892 51.2022 39.3892H49.7531C49.27 39.3892 48.787 39.4986 48.5455 39.7175C48.304 39.9363 48.0624 40.2645 48.0624 40.7022ZM48.6662 34.6844C48.6662 35.122 48.787 35.5597 49.1493 35.7785C49.5116 35.9974 49.8738 36.1068 50.4776 36.1068C51.6852 36.1068 52.1683 35.5597 52.1683 34.575C52.1683 33.5902 51.5645 32.9338 50.4776 32.9338C49.8738 32.9338 49.5116 33.0432 49.27 33.3714C49.0285 33.6997 48.6662 34.2467 48.6662 34.6844Z" fill="#565656"/>
<path d="M66.2977 39.4995L64.9693 36.5453H60.8635L59.6558 39.4995H58.4482L62.5541 30.0898H63.5202L67.626 39.4995H66.2977ZM64.607 35.5606L63.3994 32.7158C63.2787 32.3876 63.0371 31.8405 62.9164 31.4028C62.7956 31.8405 62.6749 32.2781 62.4333 32.7158L61.2257 35.5606H64.607Z" fill="#565656"/>
<path d="M78.7359 39.5026V34.9072C78.7359 34.3601 78.6151 33.9224 78.3736 33.7036C78.1321 33.4848 77.649 33.2659 77.166 33.2659C76.4414 33.2659 75.9584 33.4848 75.5961 33.813C75.2338 34.1413 74.8715 34.7977 74.8715 35.5637V39.5026H73.6639V34.9072C73.6639 34.3601 73.5432 33.9224 73.3016 33.7036C73.0601 33.4848 72.5771 33.2659 72.094 33.2659C71.3695 33.2659 70.7657 33.4848 70.5241 33.813C70.2826 34.1413 70.0411 34.9072 70.0411 35.7825V39.5026H68.8335V32.5H69.7996L70.0411 33.4848C70.2826 33.1565 70.5241 32.8283 71.0072 32.7189C71.4902 32.6095 71.8525 32.3906 72.3356 32.3906C73.5432 32.3906 74.3885 32.8283 74.7508 33.5942C74.9923 33.2659 75.3546 32.9377 75.7168 32.7189C76.0791 32.5 76.6829 32.3906 77.166 32.3906C78.0113 32.3906 78.7359 32.6095 79.0981 33.0471C79.4604 33.4848 79.7019 34.1413 79.7019 35.0166V39.612L78.7359 39.5026Z" fill="#565656"/>
<path d="M85.4983 39.6081C84.4115 39.6081 83.4454 39.2799 82.8416 38.6234C82.2378 37.9669 81.8755 37.0916 81.8755 35.9974C81.8755 34.9033 82.117 33.9186 82.8416 33.2621C83.5661 32.6056 84.2907 32.2773 85.3775 32.2773C86.3436 32.2773 87.0682 32.6056 87.672 33.1527C88.2758 33.6997 88.5173 34.4656 88.5173 35.4504V36.1069H83.2039C83.2039 36.9822 83.4454 37.5293 83.9284 37.9669C84.4115 38.4046 85.0153 38.6234 85.7398 38.6234C86.5851 38.6234 87.4305 38.514 88.2758 38.1857V39.1705C87.9135 39.3893 87.4305 39.3893 87.0682 39.4987C86.7059 39.6081 86.1021 39.6081 85.4983 39.6081ZM85.2568 33.2621C84.653 33.2621 84.1699 33.4809 83.8077 33.8091C83.4454 34.1374 83.2039 34.6845 83.2039 35.341H87.3097C87.3097 34.6845 87.1889 34.1374 86.8267 33.8091C86.4644 33.4809 85.8606 33.2621 85.2568 33.2621Z" fill="#565656"/>
<path d="M93.9518 32.3906C94.314 32.3906 94.5556 32.3906 94.9178 32.5L94.7971 33.4848C94.4348 33.3754 94.1933 33.3754 93.9518 33.3754C93.348 33.3754 92.7442 33.5942 92.3819 34.0318C91.8988 34.4695 91.6573 35.0166 91.6573 35.7825V39.612H90.4497V32.6095H91.4158L91.5366 33.9224H91.6573C91.8988 33.4848 92.2611 33.1565 92.7442 32.8283C93.2272 32.5 93.4687 32.3906 93.9518 32.3906Z" fill="#565656"/>
<path d="M96.2461 30.5276C96.2461 30.3088 96.3669 30.09 96.4876 29.9805C96.6084 29.8711 96.7291 29.7617 96.9707 29.7617C97.2122 29.7617 97.3329 29.7617 97.4537 29.9805C97.5745 30.1994 97.6952 30.3088 97.6952 30.5276C97.6952 30.7465 97.5745 30.9653 97.4537 31.0747C97.3329 31.1841 97.2122 31.2935 96.9707 31.2935C96.7291 31.2935 96.6084 31.2935 96.4876 31.0747C96.3669 30.8559 96.2461 30.8559 96.2461 30.5276ZM97.4537 39.4996H96.2461V32.4971H97.4537V39.4996Z" fill="#565656"/>
<path d="M103.13 39.6081C102.043 39.6081 101.077 39.2799 100.473 38.6234C99.8691 37.9669 99.5068 37.0916 99.5068 35.9974C99.5068 34.9033 99.8691 33.9186 100.473 33.2621C101.077 32.6056 101.922 32.2773 103.13 32.2773C103.492 32.2773 103.854 32.2773 104.216 32.3868C104.579 32.4962 104.941 32.4962 105.062 32.6056L104.7 33.4809C104.458 33.3715 104.216 33.2621 103.854 33.2621C103.492 33.2621 103.25 33.1527 103.009 33.1527C101.439 33.1527 100.594 34.028 100.594 35.888C100.594 36.7633 100.835 37.4198 101.197 37.8575C101.56 38.2952 102.164 38.514 102.888 38.514C103.492 38.514 104.216 38.4046 104.941 38.1857V39.1705C104.579 39.4987 103.854 39.6081 103.13 39.6081Z" fill="#565656"/>
<path d="M111.703 39.4986L111.462 38.5139H111.341C110.979 38.9516 110.616 39.2798 110.133 39.3892C109.65 39.4986 109.288 39.6081 108.684 39.6081C107.96 39.6081 107.356 39.3892 106.873 39.061C106.39 38.7327 106.269 38.1857 106.269 37.5292C106.269 36.1068 107.477 35.3409 110.013 35.3409H111.341V34.9032C111.341 34.3561 111.22 33.9185 110.979 33.6997C110.737 33.4808 110.254 33.262 109.771 33.262C109.167 33.262 108.443 33.4808 107.597 33.8091L107.235 33.0432C107.597 32.8243 108.08 32.7149 108.443 32.6055C108.805 32.4961 109.409 32.4961 109.771 32.4961C110.737 32.4961 111.341 32.7149 111.824 33.0432C112.307 33.3714 112.549 34.0279 112.549 34.7938V39.6081L111.703 39.4986ZM109.047 38.7327C109.771 38.7327 110.375 38.5139 110.737 38.1857C111.099 37.8574 111.341 37.3103 111.341 36.6539V35.9974H110.133C109.167 35.9974 108.563 36.2162 108.08 36.435C107.597 36.6539 107.477 36.9821 107.477 37.5292C107.477 37.8574 107.597 38.1857 107.839 38.4045C108.08 38.6233 108.563 38.7327 109.047 38.7327Z" fill="#565656"/>
<path d="M126.799 39.4995H125.591V35.1229H120.157V39.4995H118.949V30.0898H120.157V34.0288H125.591V30.0898H126.799V39.4995Z" fill="#565656"/>
<path d="M132.716 39.6081C131.629 39.6081 130.663 39.2799 130.059 38.6234C129.455 37.9669 129.093 37.0916 129.093 35.9974C129.093 34.9033 129.334 33.9186 130.059 33.2621C130.783 32.6056 131.508 32.2773 132.595 32.2773C133.561 32.2773 134.285 32.6056 134.889 33.1527C135.493 33.6997 135.735 34.4656 135.735 35.4504V36.1069H130.421C130.421 36.9822 130.663 37.5293 131.146 37.9669C131.629 38.4046 132.233 38.6234 132.957 38.6234C133.802 38.6234 134.648 38.514 135.493 38.1857V39.1705C135.131 39.3893 134.648 39.3893 134.285 39.4987C133.923 39.6081 133.199 39.6081 132.716 39.6081ZM132.353 33.2621C131.75 33.2621 131.266 33.4809 130.904 33.8091C130.542 34.1374 130.3 34.6845 130.3 35.341H134.406C134.406 34.6845 134.285 34.1374 133.923 33.8091C133.561 33.4809 132.957 33.2621 132.353 33.2621Z" fill="#565656"/>
<path d="M142.256 39.4986L142.014 38.5139H141.894C141.531 38.9516 141.169 39.2798 140.686 39.3892C140.203 39.4986 139.841 39.6081 139.237 39.6081C138.512 39.6081 137.909 39.3892 137.426 39.061C136.943 38.7327 136.822 38.1857 136.822 37.5292C136.822 36.1068 138.029 35.3409 140.565 35.3409H141.894V34.9032C141.894 34.3561 141.773 33.9185 141.531 33.6997C141.29 33.4808 140.807 33.262 140.324 33.262C139.72 33.262 138.995 33.4808 138.15 33.8091L137.788 33.0432C138.15 32.8243 138.633 32.7149 138.995 32.6055C139.358 32.4961 139.962 32.4961 140.324 32.4961C141.29 32.4961 141.894 32.7149 142.377 33.0432C142.86 33.3714 143.101 34.0279 143.101 34.7938V39.6081L142.256 39.4986ZM139.599 38.7327C140.324 38.7327 140.928 38.5139 141.29 38.1857C141.652 37.8574 141.894 37.3103 141.894 36.6539V35.9974H140.686C139.72 35.9974 139.116 36.2162 138.633 36.435C138.15 36.6539 138.029 36.9821 138.029 37.5292C138.029 37.8574 138.15 38.1857 138.392 38.4045C138.633 38.6233 139.237 38.7327 139.599 38.7327Z" fill="#565656"/>
<path d="M146.724 39.4997H145.517V29.543H146.724V39.4997Z" fill="#565656"/>
<path d="M151.796 38.7333C152.037 38.7333 152.158 38.7333 152.399 38.7333C152.641 38.7333 152.762 38.7333 152.883 38.6239V39.3898C152.762 39.3898 152.52 39.4992 152.279 39.4992C152.037 39.4992 151.796 39.4992 151.554 39.4992C150.105 39.4992 149.26 38.7333 149.26 37.3109V33.1532H148.173V32.8249L149.26 32.3873L149.743 30.8555H150.467V32.4967H152.762V33.372H150.467V37.5298C150.467 37.9674 150.588 38.2957 150.83 38.5145C151.071 38.7333 151.433 38.7333 151.796 38.7333Z" fill="#565656"/>
<path d="M159.645 39.4997V35.0137C159.645 34.4666 159.524 34.029 159.162 33.7007C158.8 33.3725 158.438 33.2631 157.834 33.2631C156.988 33.2631 156.385 33.4819 156.022 33.8101C155.66 34.1384 155.419 34.9043 155.419 35.7796V39.4997H154.211V29.543H155.419V32.6066C155.419 32.9348 155.419 33.2631 155.298 33.4819H155.419C155.66 33.1537 156.022 32.9348 156.385 32.716C156.747 32.4972 157.351 32.3878 157.834 32.3878C158.8 32.3878 159.524 32.6066 160.007 33.0442C160.49 33.4819 160.732 34.1384 160.732 35.0137V39.6091H159.645V39.4997Z" fill="#565656"/>
<path d="M162.061 32.4961H163.268L164.959 36.5444C165.321 37.4198 165.563 38.0762 165.683 38.5139H165.804C165.925 38.2951 166.046 37.9668 166.166 37.4198C166.287 36.8727 167.012 35.2315 168.099 32.6055H169.306L165.925 40.5928C165.563 41.3587 165.2 41.9058 164.717 42.234C164.234 42.5622 163.751 42.7811 163.147 42.7811C162.785 42.7811 162.423 42.7811 162.061 42.6717V41.7963C162.302 41.7963 162.664 41.9058 162.906 41.9058C163.751 41.9058 164.234 41.4681 164.597 40.7022L165.08 39.7175C165.2 39.4986 162.061 32.4961 162.061 32.4961Z" fill="#565656"/>
</g>
<defs>
<clipPath id="clip0_28229_3193">
<rect width="235" height="43" fill="white"/>
</clipPath>
</defs>
</svg>
