<svg width="125" height="44" viewBox="0 0 125 44" fill="none" xmlns="http://www.w3.org/2000/svg">
<path d="M68.7125 8.4849C68.7125 11.1575 68.0584 13.2473 66.7512 14.7544C65.4441 16.2515 63.6411 17 61.3402 17C59.8918 17 58.6147 16.6534 57.5098 15.9601C56.406 15.2668 55.5596 14.2722 54.9716 12.9761C54.3836 11.68 54.0901 10.1829 54.0901 8.4849C54.0901 5.8124 54.7442 3.7326 56.0514 2.2456C57.3586 0.7485 59.1516 0 61.4314 0C63.7012 0 65.4801 0.7586 66.7673 2.2757C68.0634 3.7828 68.7125 5.8525 68.7125 8.4849ZM55.6708 8.4849C55.6708 10.7355 56.1676 12.4938 57.1603 13.7598C58.1639 15.0157 59.5773 15.6436 61.4013 15.6436C63.2254 15.6436 64.6337 15.0157 65.6264 13.7598C66.63 12.4938 67.1319 10.7355 67.1319 8.4849C67.1319 6.2243 66.625 4.471 65.6113 3.2252C64.6087 1.9793 63.1953 1.3564 61.3713 1.3564C59.5472 1.3564 58.1379 1.9793 57.1452 3.2252C56.1626 4.461 55.6708 6.2142 55.6708 8.4849Z" fill="white"/>
<path d="M84.8093 16.6986V6.0736C84.8093 4.4258 84.4597 3.2302 83.7606 2.4867C83.0614 1.7332 81.9766 1.3564 80.5071 1.3564C78.5319 1.3564 77.0824 1.8537 76.1599 2.8484C75.2484 3.833 74.7926 5.4356 74.7926 7.656V16.6986H73.2871V0.3165H74.5642L74.8527 2.5621H74.9439C76.0187 0.853999 77.9288 0 80.6744 0C84.4237 0 86.2988 1.9944 86.2988 5.9832V16.6986H84.8093Z" fill="white"/>
<path d="M98.3219 17C95.9199 17 94.0458 16.2665 92.6975 14.7996C91.3603 13.3327 90.6912 11.2781 90.6912 8.6356C90.6912 6.0233 91.3403 3.9335 92.6374 2.3661C93.9336 0.7887 95.6825 0 97.8812 0C99.8264 0 101.362 0.673201 102.487 2.0195C103.612 3.3658 104.174 5.1944 104.174 7.5053V8.711H92.2718C92.2928 10.9616 92.8197 12.6797 93.8534 13.8652C94.8962 15.0508 96.3867 15.6436 98.3219 15.6436C99.2645 15.6436 100.09 15.5783 100.799 15.4477C101.519 15.3171 102.426 15.0358 103.52 14.6037V15.9601C102.588 16.362 101.727 16.6333 100.936 16.7739C100.146 16.9246 99.2745 17 98.3219 17ZM97.8812 1.3262C96.2895 1.3262 95.0134 1.8487 94.0508 2.8936C93.0882 3.9285 92.5252 5.4255 92.363 7.3848H102.578C102.578 5.4858 102.162 4.0038 101.331 2.9388C100.501 1.8638 99.3506 1.3262 97.8812 1.3262Z" fill="white"/>
<path d="M64.7128 43.6939L60.1973 27.5802H60.0611C60.2724 30.3245 60.3786 32.4566 60.3786 33.9767V43.6939H55.0918V21.3214H63.036L67.6427 37.2056H67.7639L72.2805 21.3214H80.2397V43.6939H74.7566V33.8849C74.7566 33.3748 74.7616 32.8086 74.7726 32.1863C74.7926 31.564 74.8628 30.0388 74.984 27.6108H74.8477L70.3923 43.6939H64.7128Z" fill="white"/>
<path d="M98.5453 43.6939L97.4585 39.501H90.2835L89.1656 43.6939H82.6107L89.8157 21.2295H97.775L105.07 43.6939H98.5453ZM96.2194 34.5429L95.2678 30.8703C95.0464 30.0541 94.775 28.9982 94.4524 27.7026C94.1399 26.407 93.9336 25.4786 93.8334 24.9175C93.7423 25.4378 93.561 26.2947 93.2895 27.4884C93.0281 28.682 92.4391 31.0335 91.5226 34.5429H96.2194Z" fill="white"/>
<path d="M117.304 25.9581C115.885 25.9581 114.777 26.5498 113.982 27.7332C113.187 28.9064 112.789 30.5285 112.789 32.5995C112.789 36.9046 114.405 39.0572 117.637 39.0572C118.614 39.0572 119.56 38.9195 120.477 38.644C121.392 38.3686 122.314 38.037 123.24 37.6494V42.7605C121.397 43.5868 119.314 44 116.987 44C113.654 44 111.097 43.0206 109.314 41.0619C107.542 39.1031 106.657 36.2721 106.657 32.5689C106.657 30.253 107.084 28.2178 107.94 26.4631C108.806 24.7084 110.044 23.3617 111.656 22.4232C113.277 21.4744 115.18 21 117.365 21C119.752 21 122.032 21.5254 124.207 22.5762L122.379 27.3353C121.564 26.9477 120.748 26.6212 119.933 26.356C119.117 26.0907 118.241 25.9581 117.304 25.9581Z" fill="white"/>
<path fill-rule="evenodd" clip-rule="evenodd" d="M0 0H46.5215V44H0V0ZM17.1393 27.8666H41.6254V4.8888H4.89746V9.7776H4.89666V39.5998H17.1393V27.8666Z" fill="white"/>
</svg>
